<svg xmlns="http://www.w3.org/2000/svg" xmlns:xlink="http://www.w3.org/1999/xlink" xmlns:inkscape="http://www.inkscape.org/namespaces/inkscape" version="1.1" width="93" height="92" viewBox="0 0 93 92">
<defs>
<path id="font_1_41" d="M.5359955 .44532777V.36528016H.18998719V.44532777C.18998719 .5203552 .19198609 .5924072 .19999695 .6454315L.19898987 .6484375C.18699646 .64642336 .15899658 .6454315 .14698792 .6454315 .1349945 .6454315 .10798645 .64642336 .09599304 .6484375L.09399414 .6454315C.101989749 .58839419 .10398865 .5203552 .10398865 .44532777V.20019531C.10398865 .12515259 .101989749 .054107667 .09399414 .000061035159L.09498596-.0029296876C.10699463-.00093078616 .1349945 .000061035159 .14698792 .000061035159 .15899658 .000061035159 .18598938-.00093078616 .19799805-.0029296876L.19999695 .000061035159C.19198609 .05709839 .18998719 .12515259 .18998719 .20019531V.32128907H.5359955V.20019531C.5359955 .12515259 .5339966 .054107667 .526001 .000061035159L.5269928-.0029296876C.5389862-.00093078616 .5669861 .000061035159 .57899478 .000061035159 .59098818 .000061035159 .6179962-.00093078616 .6299896-.0029296876L.6319885 .000061035159C.6239929 .05709839 .621994 .12515259 .621994 .20019531V.44532777C.621994 .5203552 .6239929 .5924072 .6319885 .6454315L.6309967 .6484375C.61898806 .64642336 .59098818 .6454315 .57899478 .6454315 .5669861 .6454315 .5399933 .64642336 .5279999 .6484375L.526001 .6454315C.5339966 .58839419 .5359955 .5203552 .5359955 .44532777Z"/>
<path id="font_1_66" d="M.30999757 .2253418 .30599977 .10626221C.30599977 .09326172 .2999878 .086257938 .2919922 .08024597 .2639923 .05923462 .22999573 .041229249 .19999695 .041229249 .15499878 .041229249 .12599182 .071243289 .12599182 .102264408 .12599182 .14729309 .14698792 .18132019 .22499085 .20233155L.30999757 .2253418M.3100891 .048233034C.32148744 .009124756 .35139466-.009765625 .3880005-.009765625 .41319276-.009765625 .44400025-.003768921 .46759034 .021224976L.46018983 .045928956C.44929505 .042129518 .4407959 .040725709 .43319703 .040725709 .42329408 .040725709 .4099884 .042633058 .40390016 .048233034 .39369203 .057540895 .38719178 .08175659 .38719178 .12628174 .38719178 .15530396 .3899994 .26635743 .3899994 .27737428 .3899994 .41244508 .30099488 .43943788 .22499085 .43943788 .14898682 .43943788 .102996829 .40245057 .07798767 .3814392L.07499695 .37742616 .09199524 .3103943 .10499573 .3093872C.1329956 .3544159 .16699219 .3944397 .21499634 .3944397 .25099183 .3944397 .31098939 .3894348 .31098939 .2763672 .31098939 .2693634 .30699159 .2653656 .3039856 .26435853L.21099854 .24334717C.10899353 .22033692 .04499817 .16630554 .04499817 .0982666 .04499817 .024230957 .09599304-.009780884 .16999817-.009780884 .22499085-.009780884 .25299073 .0032196046 .30599977 .048233034H.3100891Z"/>
<path id="font_1_88" d="M.20498657-.0040130617C.21499634-.0010070801 .22799683-.0010070801 .23799134-.0010070801 .24798584-.0010070801 .2649994-.0010070801 .27398683-.0040130617 .3013916 .072891239 .33039857 .15512085 .3625946 .23353577 .39259339 .15551758 .4244995 .07458496 .45298768-.0030059815 .46299745 0 .46899415 0 .47898866 0 .4889984 0 .5069885 0 .5159912-.0030059815 .5649872 .11495972 .644989 .3067627 .70199587 .43164063 .69299319 .42863465 .6689911 .42863465 .6589966 .42863465 .6489868 .42863465 .6339874 .42863465 .625 .43164063 .58799746 .31375123 .54299929 .18589783 .50180056 .09008789H.49378968C.45199586 .19987488 .42099 .32574464 .397995 .43164063 .3849945 .42863465 .3619995 .42863465 .34799195 .42863465 .33198548 .42863465 .30599977 .42863465 .2899933 .43164063 .30369569 .39067079 .31959535 .34672547 .336792 .30107118 .30999757 .22584534 .28279115 .15092469 .25379945 .08909607H.24778748C.19769287 .20347595 .16429138 .3160553 .12799073 .43063355 .114990238 .42764283 .09199524 .42764283 .07798767 .42764283 .06199646 .42764283 .035995485 .42764283 .019989014 .43063355 .08699036 .28378297 .14898682 .14193726 .20498657-.0040130617Z"/>
<path id="font_1_74" d="M.07998657 .59742739C.07998657 .5704346 .10398865 .5464325 .1309967 .5464325 .1579895 .5464325 .18199158 .5704346 .18199158 .59742739 .18199158 .6244354 .1579895 .6484375 .1309967 .6484375 .10398865 .6484375 .07998657 .6244354 .07998657 .59742739M.08999634 .2348175V.1798706C.08999634 .10494995 .0881958 .054000856 .08099365 .000061035159L.08299255-.0029296876C.09498596-.0009460449 .117996219 .000061035159 .12998963 .000061035159 .14199829 .000061035159 .16499329-.0009460449 .1769867-.0029296876L.1789856 .000061035159C.1717987 .056793214 .16999817 .10395813 .16999817 .1798706V.25079347C.16999817 .3257141 .17248535 .36167909 .1789856 .42262269 .1789856 .4316101 .17779541 .4326172 .16999817 .4326172 .14729309 .4303131 .10418701 .42991639 .08299255 .4316101L.08099365 .42861939C.08729553 .38586427 .08999634 .30973817 .08999634 .2348175Z"/>
<path id="font_1_83" d="M.16699219 .33441163V.42544557C.16699219 .43315126 .16569519 .43544007 .16099549 .43544007 .13848877 .43093873 .10269165 .43014527 .07998657 .43244935L.07798767 .42944337C.084991458 .38613893 .08699036 .31037904 .08699036 .23530579V.18025208C.08699036 .10517883 .08580017 .05392456 .07798767 .000061035159L.07998657-.0029296876C.09199524-.00093078616 .114990238 .000061035159 .1269989 .000061035159 .13899231 .000061035159 .1619873-.00093078616 .17399597-.0029296876L.17599488 .000061035159C.16848755 .057128908 .16699219 .10417175 .16699219 .18025208V.2322998C.16699219 .27435304 .17948914 .29837037 .20098877 .33140565 .21549988 .35372926 .23799134 .36643983 .25698854 .36643983 .2769928 .36643983 .29599 .36444093 .30899049 .35243226L.31698609 .35443116 .33699037 .42845155 .33299256 .43244935C.31599427 .43743897 .31498719 .43945313 .29699708 .43945313 .24299622 .43945313 .21398926 .40844728 .16999817 .33241273L.16699219 .33441163Z"/>
<path id="font_1_70" d="M.125 .27339173C.14199829 .3774414 .20748902 .39944459 .23899842 .39944459 .27848817 .39944459 .32299806 .36242677 .32299806 .2873993 .32299806 .2783966 .31900025 .27339173 .30899049 .27339173H.125M.3919983 .104278568C.35699464 .0662384 .30999757 .049224855 .25498963 .049224855 .22079468 .049224855 .17349243 .0622406 .1459961 .106277469 .12838745 .13439942 .12199402 .17524719 .12199402 .23339844H.3939972C.40499879 .23339844 .4119873 .23939514 .4119873 .25039674 .4119873 .33441163 .37098695 .43945313 .23899842 .43945313 .13598633 .43945313 .033996583 .35643006 .033996583 .20936585 .033996583 .15261841 .04548645 .096466068 .07899475 .056228639 .11338806 .014923096 .17059326-.009765625 .23799134-.009765625 .30999757-.009765625 .37399293 .02722168 .4119873 .07925415L.3919983 .104278568Z"/>
<path id="font_1_84" d="M.049987794 .10127258 .032989503 .017227173C.08999634-.0027770997 .1459961-.009765625 .18399048-.009765625 .32199098-.009765625 .35398866 .072250369 .35398866 .12728882 .35398866 .20933533 .2889862 .24134827 .21798706 .25836183 .18019104 .2674713 .125 .28637696 .125 .33641053 .125 .3774414 .1579895 .39944459 .20098877 .39944459 .25299073 .39944459 .2849884 .35842896 .30799867 .33140565L.32199098 .33241273 .34199525 .40644837 .33999635 .4094391C.31098939 .42443849 .2559967 .43945313 .20498657 .43945313 .1309967 .43945313 .053985597 .40045167 .053985597 .31739808 .053985597 .23735047 .11369324 .2109375 .17399597 .19432068 .23199463 .17831421 .2749939 .16230774 .2749939 .11328125 .2749939 .0602417 .23599243 .030227662 .18299866 .030227662 .1349945 .030227662 .09298706 .06324768 .06498718 .102264408L.049987794 .10127258Z"/>
<path id="font_1_80" d="M.037994386 .20533753C.037994386 .08526611 .116989139-.009765625 .25-.009765625 .38198854-.009765625 .46199037 .08325195 .46199037 .21434021 .46199037 .3504181 .3889923 .43945313 .2539978 .43945313 .12298584 .43945313 .037994386 .3474121 .037994386 .20533753M.24699402 .39944459C.35299684 .39944459 .37399293 .31739808 .37399293 .19631958 .37399293 .10116577 .32598878 .030227662 .25898744 .030227662 .15299988 .030227662 .12599182 .14529419 .12599182 .22233582 .12599182 .3093872 .15299988 .39944459 .24699402 .39944459Z"/>
<path id="font_1_85" d="M.09498596 .42871095C.07449341 .4288025 .053390504 .42910768 .040985109 .43070985 .0342865 .4143982 .028686524 .40470887 .018997193 .38970948L.023986817 .3827057C.04119873 .3840027 .07218933 .38459779 .09498596 .3847046V.24784851C.09498596 .18791199 .09199524 .115982059 .09199524 .086013797 .09199524 .021072388 .13398743-.009765625 .17999268-.009765625 .22200012-.009765625 .2539978 .00018310547 .29599 .027053833L.2836914 .051757814C.25299073 .041046144 .22999573 .04005432 .20498657 .044052125 .18128968 .047851564 .17199707 .07192993 .17199707 .12597656 .17199707 .15594483 .1749878 .19889832 .1749878 .25883485V.3847046H.21299744C.23699951 .3847046 .271698 .3840027 .2849884 .3827057 .28799439 .3986969 .29100038 .40899659 .29699708 .42370606L.2919922 .43070985C.27398683 .43000794 .24499512 .42871095 .22200012 .42871095H.1749878C.1749878 .5035095 .17549134 .5167084 .17999268 .57470706 .17999268 .58200076 .17729187 .58470156 .17098999 .58470156 .14588928 .57470706 .13349915 .564209 .100997928 .55970767L.09899902 .55670168C.09700012 .5220032 .09498596 .4867096 .09498596 .42871095Z"/>
<path id="font_1_18" d="M.32598878 .18917847V.44332887C.32598878 .5513611 .33198548 .59135439 .33399964 .6053467 .33399964 .61035159 .33099366 .61035159 .32699586 .61035159 .2619934 .5893402 .18598938 .550354 .10798645 .5263672L.11399841 .49736024C.15899658 .5023651 .20799256 .5133667 .22799683 .5133667 .24598694 .5133667 .24598694 .4733429 .24598694 .43733216V.18917847C.24598694 .11112976 .24499512 .05709839 .23799134 .000061035159L.23899842-.0029296876C.23899842-.0029296876 .2669983 .000061035159 .2849884 .000061035159 .30499269 .000061035159 .33299256-.0029296876 .33299256-.0029296876L.33499146 .000061035159C.32798768 .06010437 .32598878 .11012268 .32598878 .18917847Z"/>
<path id="font_1_19" d="M.22200012 .5533447C.2743988 .5533447 .3277893 .5051575 .3277893 .4348755 .3277893 .39317323 .3157959 .33998109 .2896881 .3009796 .21798706 .19398499 .10348511 .093688968 .054397584 .04699707 .05319214 .043289186 .052597047 .038986207 .052597047 .03439331 .052597047 .01928711 .057495119 .0035858155 .062698367-.005004883 .13648987-.0030059815 .1789856 0 .2519989 0 .32398988 0 .35429383-.0020141602 .4256897-.005004883 .42419435 .0053863527 .42259217 .017089844 .42259217 .027999878 .42259217 .044189454 .4237976 .059799196 .42749024 .07499695 .37120057 .069992069 .34059144 .066986087 .24459839 .066986087 .20948792 .066986087 .19029236 .066986087 .16288758 .06498718 .16209412 .066589359 .16169739 .067993167 .16169739 .069992069 .16169739 .07928467 .17199707 .08988953 .17939759 .09698486 .22799683 .14398194 .2749939 .1889801 .34109498 .27798463 .37799073 .3276825 .4136963 .39187623 .4136963 .44847108 .4136963 .5439148 .3498993 .61035159 .23829651 .61035159 .14729309 .61035159 .088897708 .55934146 .066085819 .5292511L.08779907 .4599762 .10089111 .45898438C.11468506 .48908998 .11959839 .50987246 .14498902 .5302582 .16499329 .5463104 .19400025 .5533447 .22200012 .5533447Z"/>
<path id="font_1_39" d="M.40699769 .64453127H.14698792C.11299133 .64453127 .09599304 .647522 .09599304 .647522L.09399414 .64453127C.101989749 .5875244 .10398865 .5194855 .10398865 .44444276V.199646C.10398865 .124801639 .101989749 .05393982 .09399414 .000061035159L.09498596-.0029296876C.09498596-.0029296876 .11199951 .000061035159 .14698792 .000061035159 .18099976 .000061035159 .19799805-.0029296876 .19799805-.0029296876L.19999695 .000061035159C.19198609 .0569458 .18998719 .124801639 .18998719 .199646V.31640626C.23799134 .31640626 .34399415 .31340028 .41299439 .306427L.41600038 .30941773C.4139862 .31840516 .41299439 .33239747 .41299439 .34140016 .41299439 .35040284 .4139862 .36439515 .41600038 .37339784L.41299439 .3764038C.35398866 .37139894 .30799867 .36639405 .18998719 .36639405V.44444276C.18998719 .4614563 .19099427 .56451418 .19799805 .58851626 .33198548 .58851626 .46998597 .5765228 .46998597 .5765228L.47200013 .58052065C.47099305 .58851626 .46998597 .6015167 .46998597 .6105194 .46998597 .6185303 .47099305 .6305237 .47200013 .64453127L.46998597 .647522C.45399476 .6455231 .43099977 .64453127 .40699769 .64453127Z"/>
<path id="font_1_77" d="M.08999634 .20011902C.08999634 .1255951 .08848572 .05357361 .08099365 .000061035159L.08299255-.0029296876C.09498596-.00093078616 .117996219 .000061035159 .12998963 .000061035159 .14199829 .000061035159 .16499329-.00093078616 .1769867-.0029296876L.1789856 .000061035159C.17118836 .05708313 .16999817 .12489319 .16999817 .20011902V.5001831C.16999817 .5751953 .17428589 .62490847 .1789856 .6882324 .1789856 .6952362 .17630005 .6982422 .16999817 .6982422 .14489746 .6882324 .12348938 .68122866 .08299255 .67822268L.08099365 .67523196C.08869934 .6325226 .08999634 .558197 .08999634 .48217774V.20011902Z"/>
<path id="font_1_69" d="M.36099244 .11326599C.3244934 .06674194 .27848817 .04222107 .23799134 .04222107 .18399048 .04222107 .13798523 .09625244 .13798523 .221344 .13798523 .37142945 .21759033 .39944459 .2659912 .39944459 .31298829 .39944459 .33699037 .3794403 .36099244 .3414154V.11326599M.36099244 .058242799H.36299134L.36799623 .00022888184C.36799623-.0019378662 .37098695-.0029296876 .3769989-.0029296876 .3902893-.0012359619 .39698792 .000061035159 .41149903 .000061035159 .42408753 .000061035159 .44299317-.00093078616 .45599366-.0029296876L.45799256 .000061035159C.44999696 .04310608 .44099427 .11717224 .44099427 .19224549V.5003967C.44099427 .5743408 .44499208 .6265869 .44999696 .6882477 .44999696 .6952362 .44729615 .6982422 .44099427 .6982422 .41589356 .6882477 .39450074 .6812439 .35398866 .6782532L.35198976 .6752472C.35969544 .6325836 .36099244 .5583496 .36099244 .48240663V.41744996C.33799745 .43045045 .29699708 .43945313 .2769928 .43945313 .14678955 .43945313 .050994874 .34939576 .050994874 .2132721 .050994874 .09025574 .12399292-.009765625 .23199463-.009765625 .27999879-.009765625 .32499696 .011734009 .36099244 .058242799Z"/>
<path id="font_1_20" d="M.20899964 .029220581C.12998963 .029220581 .11898804 .059188844 .09199524 .117111209L.07699585 .116104129 .054992677 .04121399 .057998659 .038208009C.083999637 .016220093 .1269989-.009765625 .20698548-.009765625 .2919922-.009765625 .42599488 .048202516 .42599488 .1800232 .42599488 .25891114 .36499024 .3148651 .28799439 .32185365V.32685853C.33999635 .3388672 .4059906 .39698792 .4059906 .48014833 .4059906 .5523071 .34399415 .61035159 .24499512 .61035159 .16799927 .61035159 .11199951 .5763397 .08699036 .55430606L.083999637 .55130007 .10499573 .48716737 .11999512 .48616029C.14399719 .5422821 .17599488 .5713501 .23599243 .5713501 .2749939 .5713501 .31900025 .5302582 .31900025 .4651184 .31900025 .42103578 .3039856 .3889618 .2809906 .36691285 .26098634 .34788514 .23199463 .3388672 .19799805 .3388672 .18598938 .3388672 .1749878 .339859 .16099549 .34187318V.29786683C.17298889 .29986573 .19400025 .29986573 .20298767 .29986573 .23498535 .29986573 .272995 .2908783 .30099488 .26789857 .32699586 .2459259 .33999635 .21098328 .33999635 .17202759 .33999635 .051193239 .24499512 .029220581 .20899964 .029220581Z"/>
<path id="font_1_34" d="M.4072876 .27592469C.3742981 .27442933 .33268739 .2734375 .30299378 .2734375 .27409364 .2734375 .22059632 .27513124 .19859314 .2763214L.3039856 .52207949H.30599977C.34709168 .42773438 .38038636 .34558106 .4072876 .27592469M.1789856 .22872925C.20399475 .23042298 .27349855 .23143006 .30799867 .23143006 .34599305 .23143006 .40098573 .23042298 .42529298 .22872925 .47428895 .09741211 .4968872 .019302369 .5029907-.0029296876 .519989 .000061035159 .5359955 .000061035159 .5529938 .000061035159 .56999209 .000061035159 .59599307 .000061035159 .61299136-.0029296876 .5629883 .098220828 .43099977 .43933106 .33898927 .6582031H.31098939C.21499634 .43632508 .116989139 .2184143 .015991211-.0029296876 .027999878 .000061035159 .039993287 .000061035159 .050994874 .000061035159 .06199646 .000061035159 .083999637 .000061035159 .09599304-.0029296876 .11239624 .05845642 .14329529 .14108277 .1789856 .22872925Z"/>
<path id="font_1_76" d="M.08999634 .19995117C.08999634 .12550354 .08848572 .053527833 .08099365 .000061035159L.08299255-.0029296876C.09498596-.00093078616 .117996219 .000061035159 .12998963 .000061035159 .14199829 .000061035159 .16499329-.00093078616 .1769867-.0029296876L.1789856 .000061035159C.17118836 .057037355 .16999817 .124801639 .16999817 .19995117V.20996094C.17819214 .20974732 .20239258 .20664978 .21099854 .19895935 .27598573 .1309967 .2999878 .09501648 .36799623-.0029296876 .38328553-.0011444092 .4169922 .000061035159 .43399049 .000061035159 .45069886 .000061035159 .4850006-.0011444092 .49398805-.0029296876L.49598695 .000061035159C.42160035 .07861328 .36839295 .122802738 .272995 .23796082 .3123932 .27879334 .4099884 .3736267 .47499085 .42863465L.47299195 .43164063C.45399476 .42863465 .39898683 .42863465 .37199403 .42863465 .32888795 .36624146 .25358583 .28538514 .21398926 .2549286 .20129395 .24523926 .18299866 .2411499 .16999817 .24005127V.49978639C.16999817 .5749512 .17428589 .6247711 .1789856 .68821719 .1789856 .6952362 .17630005 .6982422 .16999817 .6982422 .14489746 .68821719 .12348938 .6811981 .08299255 .67819216L.08099365 .67518618C.08869934 .63238528 .08999634 .55792239 .08999634 .4817505V.19995117Z"/>
</defs>
<use data-text="H" xlink:href="#font_1_41" transform="matrix(5.97772,0,0,-5.97772,29.54577,16.466088)"/>
<use data-text="a" xlink:href="#font_1_66" transform="matrix(5.97772,0,0,-5.97772,33.885599,16.466088)"/>
<use data-text="w" xlink:href="#font_1_88" transform="matrix(5.97772,0,0,-5.97772,36.76088,16.466088)"/>
<use data-text="a" xlink:href="#font_1_66" transform="matrix(5.97772,0,0,-5.97772,41.076795,16.466088)"/>
<use data-text="i" xlink:href="#font_1_74" transform="matrix(5.97772,0,0,-5.97772,43.952077,16.466088)"/>
<use data-text="i" xlink:href="#font_1_74" transform="matrix(5.97772,0,0,-5.97772,45.506284,16.466088)"/>
<use data-text="r" xlink:href="#font_1_83" transform="matrix(5.97772,0,0,-5.97772,73.12165,4.8808557)"/>
<use data-text="e" xlink:href="#font_1_70" transform="matrix(5.97772,0,0,-5.97772,75.2019,4.8808557)"/>
<use data-text="s" xlink:href="#font_1_84" transform="matrix(5.97772,0,0,-5.97772,77.909809,4.8808557)"/>
<use data-text="o" xlink:href="#font_1_80" transform="matrix(5.97772,0,0,-5.97772,80.27698,4.8808557)"/>
<use data-text="r" xlink:href="#font_1_83" transform="matrix(5.97772,0,0,-5.97772,83.26584,4.8808557)"/>
<use data-text="t" xlink:href="#font_1_85" transform="matrix(5.97772,0,0,-5.97772,85.38793,4.8808557)"/>
<use data-text="1" xlink:href="#font_1_18" transform="matrix(5.97772,0,0,-5.97772,88.90881,4.8808557)"/>
<use data-text="r" xlink:href="#font_1_83" transform="matrix(5.97772,0,0,-5.97772,73.12165,24.724255)"/>
<use data-text="e" xlink:href="#font_1_70" transform="matrix(5.97772,0,0,-5.97772,75.2019,24.724255)"/>
<use data-text="s" xlink:href="#font_1_84" transform="matrix(5.97772,0,0,-5.97772,77.909809,24.724255)"/>
<use data-text="o" xlink:href="#font_1_80" transform="matrix(5.97772,0,0,-5.97772,80.27698,24.724255)"/>
<use data-text="r" xlink:href="#font_1_83" transform="matrix(5.97772,0,0,-5.97772,83.26584,24.724255)"/>
<use data-text="t" xlink:href="#font_1_85" transform="matrix(5.97772,0,0,-5.97772,85.38793,24.724255)"/>
<use data-text="2" xlink:href="#font_1_19" transform="matrix(5.97772,0,0,-5.97772,88.90881,24.724255)"/>
<use data-text="F" xlink:href="#font_1_39" transform="matrix(5.97772,0,0,-5.97772,29.54577,53.333829)"/>
<use data-text="l" xlink:href="#font_1_77" transform="matrix(5.97772,0,0,-5.97772,32.630277,53.333829)"/>
<use data-text="o" xlink:href="#font_1_80" transform="matrix(5.97772,0,0,-5.97772,34.13666,53.333829)"/>
<use data-text="r" xlink:href="#font_1_83" transform="matrix(5.97772,0,0,-5.97772,37.12552,53.333829)"/>
<use data-text="i" xlink:href="#font_1_74" transform="matrix(5.97772,0,0,-5.97772,39.247613,53.333829)"/>
<use data-text="d" xlink:href="#font_1_69" transform="matrix(5.97772,0,0,-5.97772,40.80182,53.333829)"/>
<use data-text="a" xlink:href="#font_1_66" transform="matrix(5.97772,0,0,-5.97772,43.97001,53.333829)"/>
<use data-text="r" xlink:href="#font_1_83" transform="matrix(5.97772,0,0,-5.97772,73.12165,41.732599)"/>
<use data-text="e" xlink:href="#font_1_70" transform="matrix(5.97772,0,0,-5.97772,75.2019,41.732599)"/>
<use data-text="s" xlink:href="#font_1_84" transform="matrix(5.97772,0,0,-5.97772,77.909809,41.732599)"/>
<use data-text="o" xlink:href="#font_1_80" transform="matrix(5.97772,0,0,-5.97772,80.27698,41.732599)"/>
<use data-text="r" xlink:href="#font_1_83" transform="matrix(5.97772,0,0,-5.97772,83.26584,41.732599)"/>
<use data-text="t" xlink:href="#font_1_85" transform="matrix(5.97772,0,0,-5.97772,85.38793,41.732599)"/>
<use data-text="1" xlink:href="#font_1_18" transform="matrix(5.97772,0,0,-5.97772,88.90881,41.732599)"/>
<use data-text="r" xlink:href="#font_1_83" transform="matrix(5.97772,0,0,-5.97772,73.12165,53.070825)"/>
<use data-text="e" xlink:href="#font_1_70" transform="matrix(5.97772,0,0,-5.97772,75.2019,53.070825)"/>
<use data-text="s" xlink:href="#font_1_84" transform="matrix(5.97772,0,0,-5.97772,77.909809,53.070825)"/>
<use data-text="o" xlink:href="#font_1_80" transform="matrix(5.97772,0,0,-5.97772,80.27698,53.070825)"/>
<use data-text="r" xlink:href="#font_1_83" transform="matrix(5.97772,0,0,-5.97772,83.26584,53.070825)"/>
<use data-text="t" xlink:href="#font_1_85" transform="matrix(5.97772,0,0,-5.97772,85.38793,53.070825)"/>
<use data-text="2" xlink:href="#font_1_19" transform="matrix(5.97772,0,0,-5.97772,88.90881,53.070825)"/>
<use data-text="r" xlink:href="#font_1_83" transform="matrix(5.97772,0,0,-5.97772,73.12165,64.41005)"/>
<use data-text="e" xlink:href="#font_1_70" transform="matrix(5.97772,0,0,-5.97772,75.2019,64.41005)"/>
<use data-text="s" xlink:href="#font_1_84" transform="matrix(5.97772,0,0,-5.97772,77.909809,64.41005)"/>
<use data-text="o" xlink:href="#font_1_80" transform="matrix(5.97772,0,0,-5.97772,80.27698,64.41005)"/>
<use data-text="r" xlink:href="#font_1_83" transform="matrix(5.97772,0,0,-5.97772,83.26584,64.41005)"/>
<use data-text="t" xlink:href="#font_1_85" transform="matrix(5.97772,0,0,-5.97772,85.38793,64.41005)"/>
<use data-text="3" xlink:href="#font_1_20" transform="matrix(5.97772,0,0,-5.97772,88.90881,64.41005)"/>
<use data-text="A" xlink:href="#font_1_34" transform="matrix(5.97772,0,0,-5.97772,29.54577,89.903568)"/>
<use data-text="l" xlink:href="#font_1_77" transform="matrix(5.97772,0,0,-5.97772,33.305757,89.903568)"/>
<use data-text="a" xlink:href="#font_1_66" transform="matrix(5.97772,0,0,-5.97772,34.81214,89.903568)"/>
<use data-text="s" xlink:href="#font_1_84" transform="matrix(5.97772,0,0,-5.97772,37.687429,89.903568)"/>
<use data-text="k" xlink:href="#font_1_76" transform="matrix(5.97772,0,0,-5.97772,40.054605,89.903568)"/>
<use data-text="a" xlink:href="#font_1_66" transform="matrix(5.97772,0,0,-5.97772,43.061399,89.903568)"/>
<use data-text="r" xlink:href="#font_1_83" transform="matrix(5.97772,0,0,-5.97772,73.12165,89.92256)"/>
<use data-text="e" xlink:href="#font_1_70" transform="matrix(5.97772,0,0,-5.97772,75.2019,89.92256)"/>
<use data-text="s" xlink:href="#font_1_84" transform="matrix(5.97772,0,0,-5.97772,77.909809,89.92256)"/>
<use data-text="o" xlink:href="#font_1_80" transform="matrix(5.97772,0,0,-5.97772,80.27698,89.92256)"/>
<use data-text="r" xlink:href="#font_1_83" transform="matrix(5.97772,0,0,-5.97772,83.26584,89.92256)"/>
<use data-text="t" xlink:href="#font_1_85" transform="matrix(5.97772,0,0,-5.97772,85.38793,89.92256)"/>
<use data-text="1" xlink:href="#font_1_18" transform="matrix(5.97772,0,0,-5.97772,88.90881,89.92256)"/>
<path transform="matrix(1.00002,0,0,-1.00002,-2.6368728,51.277788)" stroke-width=".42517" stroke-linecap="butt" stroke-miterlimit="10" stroke-linejoin="miter" fill="none" stroke="#000000" d="M3.83525 0 28.3468 36.7183M53.53186 39.99364 71.92186 44.77853M53.53186 34.3282 71.92186 30.83615M3.83525 0H28.3468M53.31667 3.20276 71.92186 7.97603M53.31667 0H71.92186M53.31667-3.20276 71.92186-7.97603M3.83525 0 28.3468-36.56885M52.40807-36.64485 71.92186-36.76826"/>
</svg>
