<svg xmlns="http://www.w3.org/2000/svg" xmlns:xlink="http://www.w3.org/1999/xlink" xmlns:inkscape="http://www.inkscape.org/namespaces/inkscape" version="1.1" width="333" height="295" viewBox="0 0 333 295">
<defs>
<path id="font_1_34" d="M.4072876 .27592469C.3742981 .27442933 .33268739 .2734375 .30299378 .2734375 .27409364 .2734375 .22059632 .27513124 .19859314 .2763214L.3039856 .52207949H.30599977C.34709168 .42773438 .38038636 .34558106 .4072876 .27592469M.1789856 .22872925C.20399475 .23042298 .27349855 .23143006 .30799867 .23143006 .34599305 .23143006 .40098573 .23042298 .42529298 .22872925 .47428895 .09741211 .4968872 .019302369 .5029907-.0029296876 .519989 .000061035159 .5359955 .000061035159 .5529938 .000061035159 .56999209 .000061035159 .59599307 .000061035159 .61299136-.0029296876 .5629883 .098220828 .43099977 .43933106 .33898927 .6582031H.31098939C.21499634 .43632508 .116989139 .2184143 .015991211-.0029296876 .027999878 .000061035159 .039993287 .000061035159 .050994874 .000061035159 .06199646 .000061035159 .083999637 .000061035159 .09599304-.0029296876 .11239624 .05845642 .14329529 .14108277 .1789856 .22872925Z"/>
<path id="font_1_79" d="M.45999146 .18025208C.45999146 .21228028 .46199037 .24931336 .46199037 .28134156 .46199037 .38545228 .42799378 .43945313 .33799745 .43945313 .2999878 .43945313 .22898865 .42443849 .16499329 .349411L.16299439 .352417V.42544557C.16279602 .43315126 .16169739 .43544007 .15699768 .43544007 .13449097 .43093873 .09869385 .43014527 .07598877 .43244935L.07398987 .42944337C.08099365 .38613893 .08299255 .31037904 .08299255 .23530579V.18025208C.08299255 .105163577 .08198547 .054122926 .07398987 .000061035159L.07598877-.0029296876C.08799744-.00093078616 .11099243 .000061035159 .12298584 .000061035159 .1349945 .000061035159 .1579895-.00093078616 .16999817-.0029296876L.17199707 .000061035159C.1639862 .057128908 .16299439 .10417175 .16299439 .18025208V.29736329C.21398926 .35742188 .27198792 .3794403 .30799867 .3794403 .35899354 .3794403 .37998963 .35942079 .37998963 .27835084V.18025208C.37998963 .105163577 .3781891 .05392456 .37098695 .000061035159L.37298585-.0029296876C.3849945-.00093078616 .4079895 .000061035159 .41999818 .000061035159 .43199159 .000061035159 .45498658-.00093078616 .46699525-.0029296876L.46899415 .000061035159C.4611969 .057128908 .45999146 .10417175 .45999146 .18025208Z"/>
<path id="font_1_68" d="M.25 .39944459C.28849793 .39944459 .32348634 .3709259 .34999085 .32540895L.36299134 .32640077 .38598634 .40844728 .38398744 .411438C.35299684 .42744447 .30099488 .43945313 .25099183 .43945313 .14698792 .43945313 .037994386 .3544159 .037994386 .21833802 .037994386 .07914734 .116989139-.009765625 .23899842-.009765625 .29899598-.009765625 .34599305 .010223389 .38598634 .06123352L.36698915 .08226013H.36299134C.32499696 .048233034 .29319764 .040222169 .2559967 .040222169 .18299866 .040222169 .12599182 .10626221 .12599182 .2233429 .12599182 .33340455 .18399048 .39944459 .25 .39944459Z"/>
<path id="font_1_73" d="M.16999817 .352417V.50138857C.16999817 .57533267 .17419434 .6267853 .1789856 .6882477 .1789856 .6952362 .17630005 .6982422 .16999817 .6982422 .14489746 .6882477 .12348938 .6812439 .08299255 .6782532L.08099365 .6752472C.08869934 .6325836 .08999634 .5573425 .08999634 .4814148V.18025208C.08999634 .105667117 .08879089 .056121828 .08099365 .000061035159L.08299255-.0029296876C.09498596-.00093078616 .117996219 .000061035159 .12998963 .000061035159 .14199829 .000061035159 .16499329-.00093078616 .1769867-.0029296876L.1789856 .000061035159C.17149353 .05732727 .16999817 .10417175 .16999817 .18025208V.29736329C.22099304 .35742188 .27949525 .3794403 .31498719 .3794403 .3659973 .3794403 .3869934 .35942079 .3869934 .27835084V.18025208C.3869934 .105163577 .38598634 .05392456 .37799073 .000061035159L.37998963-.0029296876C.3919983-.00093078616 .4149933 .000061035159 .4269867 .000061035159 .43899537 .000061035159 .46199037-.00093078616 .47399903-.0029296876L.47599793 .000061035159C.46798707 .05732727 .46699525 .10417175 .46699525 .18025208 .46699525 .21228028 .46899415 .24931336 .46899415 .28134156 .46899415 .38545228 .43499757 .43945313 .34498597 .43945313 .30699159 .43945313 .23599243 .42443849 .17199707 .349411L.16999817 .352417Z"/>
<path id="font_1_80" d="M.037994386 .20533753C.037994386 .08526611 .116989139-.009765625 .25-.009765625 .38198854-.009765625 .46199037 .08325195 .46199037 .21434021 .46199037 .3504181 .3889923 .43945313 .2539978 .43945313 .12298584 .43945313 .037994386 .3474121 .037994386 .20533753M.24699402 .39944459C.35299684 .39944459 .37399293 .31739808 .37399293 .19631958 .37399293 .10116577 .32598878 .030227662 .25898744 .030227662 .15299988 .030227662 .12599182 .14529419 .12599182 .22233582 .12599182 .3093872 .15299988 .39944459 .24699402 .39944459Z"/>
<path id="font_1_87" d="M.20199585-.0029296876C.21199036 .000061035159 .22299195 .000061035159 .23298645 .000061035159 .24299622 .000061035159 .2539978 .000061035159 .2630005-.0029296876 .31498719 .14291382 .3769989 .28477479 .44198609 .43164063 .43299867 .42863465 .4139862 .42863465 .4039917 .42863465 .3939972 .42863465 .3789978 .42863465 .36999513 .43164063 .3294983 .3186493 .294693 .18797302 .24879456 .09007263H.24679566C.19668579 .20445252 .16429138 .31704713 .12799073 .43164063 .114990238 .42863465 .09199524 .42863465 .07798767 .42863465 .06199646 .42863465 .035995485 .42863465 .019989014 .43164063 .08699036 .28477479 .1459961 .14291382 .20199585-.0029296876Z"/>
<path id="font_1_74" d="M.07998657 .59742739C.07998657 .5704346 .10398865 .5464325 .1309967 .5464325 .1579895 .5464325 .18199158 .5704346 .18199158 .59742739 .18199158 .6244354 .1579895 .6484375 .1309967 .6484375 .10398865 .6484375 .07998657 .6244354 .07998657 .59742739M.08999634 .2348175V.1798706C.08999634 .10494995 .0881958 .054000856 .08099365 .000061035159L.08299255-.0029296876C.09498596-.0009460449 .117996219 .000061035159 .12998963 .000061035159 .14199829 .000061035159 .16499329-.0009460449 .1769867-.0029296876L.1789856 .000061035159C.1717987 .056793214 .16999817 .10395813 .16999817 .1798706V.25079347C.16999817 .3257141 .17248535 .36167909 .1789856 .42262269 .1789856 .4316101 .17779541 .4326172 .16999817 .4326172 .14729309 .4303131 .10418701 .42991639 .08299255 .4316101L.08099365 .42861939C.08729553 .38586427 .08999634 .30973817 .08999634 .2348175Z"/>
<path id="font_1_70" d="M.125 .27339173C.14199829 .3774414 .20748902 .39944459 .23899842 .39944459 .27848817 .39944459 .32299806 .36242677 .32299806 .2873993 .32299806 .2783966 .31900025 .27339173 .30899049 .27339173H.125M.3919983 .104278568C.35699464 .0662384 .30999757 .049224855 .25498963 .049224855 .22079468 .049224855 .17349243 .0622406 .1459961 .106277469 .12838745 .13439942 .12199402 .17524719 .12199402 .23339844H.3939972C.40499879 .23339844 .4119873 .23939514 .4119873 .25039674 .4119873 .33441163 .37098695 .43945313 .23899842 .43945313 .13598633 .43945313 .033996583 .35643006 .033996583 .20936585 .033996583 .15261841 .04548645 .096466068 .07899475 .056228639 .11338806 .014923096 .17059326-.009765625 .23799134-.009765625 .30999757-.009765625 .37399293 .02722168 .4119873 .07925415L.3919983 .104278568Z"/>
<path id="font_1_84" d="M.049987794 .10127258 .032989503 .017227173C.08999634-.0027770997 .1459961-.009765625 .18399048-.009765625 .32199098-.009765625 .35398866 .072250369 .35398866 .12728882 .35398866 .20933533 .2889862 .24134827 .21798706 .25836183 .18019104 .2674713 .125 .28637696 .125 .33641053 .125 .3774414 .1579895 .39944459 .20098877 .39944459 .25299073 .39944459 .2849884 .35842896 .30799867 .33140565L.32199098 .33241273 .34199525 .40644837 .33999635 .4094391C.31098939 .42443849 .2559967 .43945313 .20498657 .43945313 .1309967 .43945313 .053985597 .40045167 .053985597 .31739808 .053985597 .23735047 .11369324 .2109375 .17399597 .19432068 .23199463 .17831421 .2749939 .16230774 .2749939 .11328125 .2749939 .0602417 .23599243 .030227662 .18299866 .030227662 .1349945 .030227662 .09298706 .06324768 .06498718 .102264408L.049987794 .10127258Z"/>
<path id="font_1_35" d="M.18998719 .55937197C.18998719 .5927124 .19999695 .605423 .2809906 .605423 .33699037 .605423 .4079895 .58340457 .4079895 .4812622 .4079895 .39614869 .35099793 .37112428 .2679901 .37112428H.18998719V.55937197M.18998719 .328125H.2829895C.3999939 .328125 .45498658 .2551117 .45498658 .16508484 .45498658 .09597778 .43119813 .04006958 .2869873 .04006958 .21699524 .04006958 .18998719 .05506897 .18998719 .08807373V.328125M.14698792 .6454315C.11299133 .6454315 .09599304 .6484375 .09599304 .6484375L.09399414 .6454315C.101989749 .5884094 .10398865 .52030947 .10398865 .44522096V.2000885C.10398865 .1250763 .101989749 .05406189 .09399414 .000061035159L.09498596-.0029296876C.09498596-.0029296876 .11199951 .000061035159 .14698792 .000061035159 .20899964 .000061035159 .21699524-.0029296876 .30599977-.0029296876 .5049896-.0029296876 .55400088 .09806824 .55400088 .18409729 .55400088 .2801056 .4889984 .33511354 .4019928 .36012269 .45298768 .38513185 .49499513 .4382019 .49499513 .49328614 .49499513 .56036379 .45999146 .6484375 .27398683 .6484375 .23899842 .6484375 .19699097 .6454315 .14698792 .6454315Z"/>
<path id="font_1_66" d="M.30999757 .2253418 .30599977 .10626221C.30599977 .09326172 .2999878 .086257938 .2919922 .08024597 .2639923 .05923462 .22999573 .041229249 .19999695 .041229249 .15499878 .041229249 .12599182 .071243289 .12599182 .102264408 .12599182 .14729309 .14698792 .18132019 .22499085 .20233155L.30999757 .2253418M.3100891 .048233034C.32148744 .009124756 .35139466-.009765625 .3880005-.009765625 .41319276-.009765625 .44400025-.003768921 .46759034 .021224976L.46018983 .045928956C.44929505 .042129518 .4407959 .040725709 .43319703 .040725709 .42329408 .040725709 .4099884 .042633058 .40390016 .048233034 .39369203 .057540895 .38719178 .08175659 .38719178 .12628174 .38719178 .15530396 .3899994 .26635743 .3899994 .27737428 .3899994 .41244508 .30099488 .43943788 .22499085 .43943788 .14898682 .43943788 .102996829 .40245057 .07798767 .3814392L.07499695 .37742616 .09199524 .3103943 .10499573 .3093872C.1329956 .3544159 .16699219 .3944397 .21499634 .3944397 .25099183 .3944397 .31098939 .3894348 .31098939 .2763672 .31098939 .2693634 .30699159 .2653656 .3039856 .26435853L.21099854 .24334717C.10899353 .22033692 .04499817 .16630554 .04499817 .0982666 .04499817 .024230957 .09599304-.009780884 .16999817-.009780884 .22499085-.009780884 .25299073 .0032196046 .30599977 .048233034H.3100891Z"/>
<path id="font_1_36" d="M.37998963 .6582031C.21099854 .6582031 .051986696 .51220706 .051986696 .31521607 .051986696 .14222718 .15098572-.009765625 .3659973-.009765625 .45838929-.009765625 .5452881 .018920899 .61209109 .09971619 .611496 .11122131 .6094971 .13322449 .60598757 .14222718L.598999 .1452179C.5279999 .067230228 .46798707 .041229249 .375 .041229249 .24819947 .041229249 .15499878 .17822266 .15499878 .33421327 .15499878 .5372009 .28399659 .6111908 .3659973 .6111908 .45599366 .6111908 .5289917 .5751953 .56999209 .49319459L.58200076 .49420167C.58558657 .54519656 .58898928 .56269839 .59999087 .6051941L.59799197 .6082001C.59799197 .6082001 .5019989 .6582031 .37998963 .6582031Z"/>
<path id="font_1_49" d="M.18998719 .56533816C.18998719 .59432986 .20799256 .6093292 .27999879 .6093292 .34899903 .6093292 .42199708 .59033206 .42199708 .47132875 .42199708 .35632325 .3659973 .31933595 .2689972 .31933595 .24398804 .31933595 .20298767 .32232667 .18998719 .32933045V.56533816M.10398865 .44532777V.20025635C.10398865 .1251831 .101989749 .054122926 .09399414 .000061035159L.09599304-.0029296876C.10798645-.00093078616 .1349945 .000061035159 .14698792 .000061035159 .15899658 .000061035159 .18598938-.00093078616 .19799805-.0029296876L.19999695 .000061035159C.19198609 .057113649 .18998719 .1251831 .18998719 .20025635V.28633119C.21199036 .2793274 .23899842 .2763214 .27398683 .2763214 .45599366 .2763214 .5189972 .3913269 .5189972 .47633363 .5189972 .55033877 .47200013 .65234377 .2869873 .65234377 .26098634 .65234377 .1769867 .64533999 .14698792 .64533999 .1349945 .64533999 .10798645 .6463318 .09599304 .6483307L.09399414 .64533999C.101989749 .58833315 .10398865 .52033999 .10398865 .44532777Z"/>
<path id="font_1_81" d="M.1619873 .29438783C.18399048 .3474121 .24299622 .39344789 .28199769 .39344789 .34999085 .39344789 .3849945 .33140565 .3849945 .21833802 .3849945 .1362915 .3619995 .030227662 .25498963 .030227662 .23899842 .030227662 .19699097 .034225465 .1619873 .07525635V.29438783M.1619873 .352417V.42544557C.1619873 .43315126 .16069031 .43544007 .1559906 .43544007 .13349915 .43093873 .09768677 .43014527 .07499695 .43244935L.07299805 .42944337C.07998657 .38613893 .08198547 .3103943 .08198547 .23535156V-.031829835C.08198547-.10652161 .08018494-.17840576 .07299805-.23234558L.07499695-.23535156C.08699036-.23335266 .10998535-.23234558 .12199402-.23234558 .13398743-.23234558 .15699768-.23335266 .16899109-.23535156L.17098999-.23234558C.16378784-.17520142 .1619873-.10722351 .1619873-.031829835V.01222229C.18798828-.0017700195 .22499085-.009765625 .26098634-.009765625 .3929901-.009765625 .47299195 .09036255 .47299195 .23135376 .47299195 .3374176 .41099549 .43945313 .29899598 .43945313 .2599945 .43945313 .20999146 .41944886 .1639862 .349411L.1619873 .352417Z"/>
<path id="font_1_83" d="M.16699219 .33441163V.42544557C.16699219 .43315126 .16569519 .43544007 .16099549 .43544007 .13848877 .43093873 .10269165 .43014527 .07998657 .43244935L.07798767 .42944337C.084991458 .38613893 .08699036 .31037904 .08699036 .23530579V.18025208C.08699036 .10517883 .08580017 .05392456 .07798767 .000061035159L.07998657-.0029296876C.09199524-.00093078616 .114990238 .000061035159 .1269989 .000061035159 .13899231 .000061035159 .1619873-.00093078616 .17399597-.0029296876L.17599488 .000061035159C.16848755 .057128908 .16699219 .10417175 .16699219 .18025208V.2322998C.16699219 .27435304 .17948914 .29837037 .20098877 .33140565 .21549988 .35372926 .23799134 .36643983 .25698854 .36643983 .2769928 .36643983 .29599 .36444093 .30899049 .35243226L.31698609 .35443116 .33699037 .42845155 .33299256 .43244935C.31599427 .43743897 .31498719 .43945313 .29699708 .43945313 .24299622 .43945313 .21398926 .40844728 .16999817 .33241273L.16699219 .33441163Z"/>
<path id="font_1_46" d="M.19299317 .6620636C.1579895 .46006776 .102996829 .18406677 .06399536-.0029296876 .07499695 .000061035159 .084991458 .000061035159 .09700012 .000061035159 .10798645 .000061035159 .115997318 .000061035159 .1269989-.0029296876 .14199829 .10206604 .17630005 .3251648 .2007904 .47625733H.2052002C.28079225 .31706239 .35099793 .15505982 .4149933 .000061035159H.43399049C.5059967 .16426087 .57699587 .31607057 .6559906 .47306825L.6595001 .47296144C.6806946 .31526185 .70028689 .16285706 .71499636-.0029296876 .7299957 .000061035159 .7489929 .000061035159 .7639923 .000061035159 .7789917 .000061035159 .8049927 .000061035159 .81999209-.0029296876 .7839966 .21105957 .7539978 .41906739 .7259979 .6620636H.70098879L.45838929 .1660614 .44999696 .16636658C.3712921 .33006288 .29978944 .4902649 .22599793 .6620636H.19299317Z"/>
<path id="font_1_86" d="M.36499024 .09196472 .36898805 .088974 .37399293 .000061035159C.37399293-.0019378662 .37519837-.0029296876 .37799073-.0029296876 .3912964-.0012359619 .40299989 .000061035159 .41749574 .000061035159 .4300995 .000061035159 .44898988-.0009460449 .46199037-.0029296876L.46398927 .000061035159C.45599366 .043014528 .44699098 .11694336 .44699098 .19186402V.24880982C.44699098 .32374574 .44799806 .37568666 .45599366 .42863465L.45399476 .43164063C.44198609 .42964173 .4189911 .42863465 .40699769 .42863465 .394989 .42863465 .37199403 .42964173 .3600006 .43164063L.35798646 .42863465C.36579896 .37149049 .36698915 .32473756 .36698915 .24880982V.15090943C.33648683 .09963989 .2789917 .04623413 .22999573 .04623413 .1954956 .04623413 .16299439 .0572052 .16299439 .15007019V.24891663C.16299439 .32380677 .1639862 .37571717 .17199707 .42863465L.16999817 .43164063C.1579895 .42964173 .1349945 .42863465 .12298584 .42863465 .11099243 .42863465 .08799744 .42964173 .07598877 .43164063L.07398987 .42863465C.08198547 .37173463 .08299255 .32479859 .08299255 .24891663V.12910462C.08299255 .06021118 .114990238-.009765625 .21398926-.009765625 .27598573-.009765625 .33198548 .041229249 .36499024 .092163089V.09196472Z"/>
<path id="font_1_78" d="M.1619873 .352417V.42544557C.1619873 .43315126 .16069031 .43544007 .1559906 .43544007 .13349915 .43093873 .09768677 .43014527 .07499695 .43244935L.07299805 .42944337C.07998657 .38613893 .08198547 .31037904 .08198547 .23530579V.18025208C.08198547 .105163577 .08099365 .054122926 .07299805 .000061035159L.07499695-.0029296876C.08699036-.00093078616 .10998535 .000061035159 .12199402 .000061035159 .13398743 .000061035159 .15699768-.00093078616 .16899109-.0029296876L.17098999 .000061035159C.16299439 .057128908 .1619873 .10417175 .1619873 .18025208V.30136109C.20899964 .349411 .2649994 .3794403 .2999878 .3794403 .33799745 .3794403 .3659973 .35742188 .3659973 .2903595V.18025208C.3659973 .105163577 .36499024 .054122926 .35699464 .000061035159L.35899354-.0029296876C.37098695-.00093078616 .3939972 .000061035159 .4059906 .000061035159 .41799928 .000061035159 .44099427-.00093078616 .45298768-.0029296876L.45498658 .000061035159C.44699098 .057128908 .44599916 .10417175 .44599916 .18025208V.28134156C.44599916 .29536439 .44599916 .30737306 .44499208 .3193817 .49299623 .37243653 .5329895 .3794403 .57199099 .3794403 .6259918 .3794403 .6519928 .35742188 .6519928 .2903595V.18025208C.6519928 .105163577 .651001 .054122926 .6429901 .000061035159L.644989-.0029296876C.6569977-.00093078616 .6799927 .000061035159 .69200137 .000061035159 .70399478 .000061035159 .72698977-.00093078616 .7389984-.0029296876L.7409973 .000061035159C.73298647 .057128908 .7319946 .10417175 .7319946 .18025208V.28034974C.7319946 .36943055 .71598818 .43945313 .60798647 .43945313 .55400088 .43945313 .49598695 .42044068 .43899537 .36042787 .42999269 .40844728 .3889923 .43945313 .33299256 .43945313 .2709961 .43945313 .21199036 .39944459 .16499329 .349411L.1619873 .352417Z"/>
<path id="font_1_48" d="M.35499574 .6141968C.49598695 .6141968 .58599856 .51820376 .58599856 .31021119 .58599856 .13122559 .5029907 .034225465 .3889923 .034225465 .2689972 .034225465 .15499878 .13522339 .15499878 .32720948 .15499878 .5372009 .25898744 .6141968 .35499574 .6141968M.68899539 .32920838C.68899539 .52719119 .5479889 .6582031 .36799623 .6582031 .18899536 .6582031 .051986696 .50619509 .051986696 .31021119 .051986696 .113220218 .19699097-.009765625 .36898805-.009765625 .55999758-.009765625 .68899539 .12922669 .68899539 .32920838Z"/>
<path id="font_1_77" d="M.08999634 .20011902C.08999634 .1255951 .08848572 .05357361 .08099365 .000061035159L.08299255-.0029296876C.09498596-.00093078616 .117996219 .000061035159 .12998963 .000061035159 .14199829 .000061035159 .16499329-.00093078616 .1769867-.0029296876L.1789856 .000061035159C.17118836 .05708313 .16999817 .12489319 .16999817 .20011902V.5001831C.16999817 .5751953 .17428589 .62490847 .1789856 .6882324 .1789856 .6952362 .17630005 .6982422 .16999817 .6982422 .14489746 .6882324 .12348938 .68122866 .08299255 .67822268L.08099365 .67523196C.08869934 .6325226 .08999634 .558197 .08999634 .48217774V.20011902Z"/>
<path id="font_1_52" d="M.24198914 .034225465C.18598938 .034225465 .11399841 .083221439 .08299255 .14222718L.07299805 .1412201C.068984989 .10522461 .057998659 .068222049 .049987794 .038223268L.051986696 .035232545C.051986696 .035232545 .116989139-.009765625 .23399353-.009765625 .35699464-.009765625 .45199586 .06523132 .45199586 .18121338 .45199586 .2972107 .3538971 .35101319 .272995 .38121034 .22200012 .40020753 .15098572 .42919923 .15098572 .5121918 .15098572 .5482025 .17098999 .5881958 .19699097 .6021881 .21398926 .6111908 .23498535 .6141968 .2579956 .6141968 .31298829 .6141968 .36698915 .5711975 .3939972 .50920107L.4039917 .5101929C.4079895 .5462036 .41799928 .5802002 .4269867 .610199L.4249878 .6131897C.4249878 .6131897 .3829956 .6582031 .2659912 .6582031 .23899842 .6582031 .20899964 .65319827 .17999268 .6411896 .12098694 .6161957 .069992069 .558197 .069992069 .48519898 .069992069 .38020326 .15899658 .33120729 .24198914 .29621888 .30699159 .26921083 .35899354 .23622132 .35899354 .1512146 .35899354 .07621765 .30099488 .034225465 .24198914 .034225465Z"/>
<path id="font_1_72" d="M.100997928-.10398865C.100997928-.070755008 .1309967-.033721925 .1659851-.0146484379 .1954956-.01473999 .24119568-.01171875 .25498963-.01171875 .30299378-.01171875 .33358766-.012634277 .36099244-.028778077 .3899994-.045837404 .3999939-.07493591 .3999939-.10101318 .3999939-.16221619 .31799317-.19430542 .23199463-.19430542 .16699219-.19430542 .100997928-.17224121 .100997928-.104019168V-.10398865M.3899994 .2855835C.3899994 .35450746 .36299134 .38645936 .3395996 .4018402 .36968995 .39944459 .40278626 .3956604 .44400025 .39146424L.44699098 .39445497C.44499208 .40344239 .44400025 .411438 .44400025 .42044068 .44400025 .42944337 .44499208 .43743897 .44699098 .44644166L.44400025 .44944764C.39619447 .44534303 .36088563 .43473817 .2862854 .43084718 .26838685 .43644715 .24649048 .43945313 .22499085 .43945313 .1459961 .43945313 .054992677 .38656617 .054992677 .2875824 .054992677 .21266175 .09799194 .17871094 .12599182 .16270447 .09700012 .14271546 .06199646 .113586429 .06199646 .07940674 .06199646 .038269044 .085998538 .0022735596 .13989258-.007019043 .11199951-.018447876 .08088684-.03781128 .054992677-.057876588 .042495729-.076934818 .03199768-.10533142 .03199768-.12408447 .03199768-.20301819 .117996219-.23730469 .22399903-.23730469 .38009645-.23730469 .47299195-.17193604 .47299195-.077941898 .47299195-.033691408 .45899964-.0026245118 .43099977 .021270752 .39349366 .053268434 .32499696 .054275514 .2899933 .054275514 .272995 .054275514 .23298645 .05227661 .20999146 .04927063 .19599915 .048355104 .18598938 .047348024 .18099976 .047348024 .15299988 .047348024 .12298584 .051361085 .12298584 .09454346 .12298584 .11462402 .12799073 .13168335 .1499939 .15071106 .16299439 .14370728 .19389344 .13671875 .22399903 .13671875 .32798768 .13671875 .3899994 .20687866 .3899994 .2855835M.31199647 .28459168C.31199647 .22395325 .2869873 .17671204 .22698975 .17671204 .15499878 .17671204 .1329956 .22366333 .1329956 .29257203 .1329956 .35849 .16299439 .40144349 .22099304 .40144349 .28599549 .40144349 .31199647 .35549928 .31199647 .28459168Z"/>
<path id="font_2_1" d="M.45999146 .31976319C.45999146 .39982606 .45498658 .47988893 .41999818 .5539398 .37399293 .65000918 .2919922 .6660156 .25 .6660156 .18998719 .6660156 .116989139 .64001467 .07598877 .54693606 .04399109 .47789 .038986207 .39982606 .038986207 .31976319 .038986207 .24472046 .042999269 .15464783 .083999637 .07859802 .1269989-.0024719239 .19999695-.022460938 .24899292-.022460938 .30299378-.022460938 .3789978-.0014648438 .4229889 .09359741 .45498658 .16265869 .45999146 .2407074 .45999146 .31976319M.24899292-.00047302247C.20999146-.00047302247 .15098572 .024551392 .1329956 .12062073 .12199402 .18066406 .12199402 .2727356 .12199402 .3317871 .12199402 .39582826 .12199402 .46188355 .12998963 .5159149 .14898682 .63500979 .22399903 .64401248 .24899292 .64401248 .28199769 .64401248 .34799195 .6259918 .36698915 .52693179 .3769989 .47088624 .3769989 .39482118 .3769989 .3317871 .3769989 .25672914 .3769989 .18867493 .3659973 .12461853 .35099793 .029556275 .2939911-.00047302247 .24899292-.00047302247Z"/>
<path id="font_2_5" d="M.44898988 .20022583C.44898988 .3193512 .36698915 .41944886 .25898744 .41944886 .21099854 .41944886 .16799927 .40345765 .13198853 .36842347V.5637665C.1519928 .5577698 .18499756 .55078127 .21699524 .55078127 .33999635 .55078127 .4099884 .6417694 .4099884 .6547699 .4099884 .6607666 .40699769 .6657715 .3999939 .6657715 .39898683 .6657715 .39698792 .6657715 .3919983 .66278079 .37199403 .6537781 .32299806 .6337738 .2559967 .6337738 .21598816 .6337738 .16999817 .6407776 .12298584 .6617737 .114990238 .66477969 .11299133 .66477969 .11099243 .66477969 .100997928 .66477969 .100997928 .6567688 .100997928 .6407776V.34439088C.100997928 .32637025 .100997928 .31835938 .114990238 .31835938 .12199402 .31835938 .12399292 .32136537 .12799073 .32736207 .13899231 .3433838 .17599488 .39746095 .25698854 .39746095 .30899049 .39746095 .33399964 .35139466 .34199525 .33337403 .35798646 .29632569 .3600006 .25727845 .3600006 .20722962 .3600006 .17222595 .3600006 .11222839 .33599855 .07035828 .31199647 .031463624 .2749939 .0055389406 .22898865 .0055389406 .1559906 .0055389406 .09899902 .058380128 .08198547 .11723328 .084991458 .1162262 .08799744 .115234378 .09899902 .115234378 .13198853 .115234378 .14898682 .14022827 .14898682 .16423035 .14898682 .18823242 .13198853 .21322632 .09899902 .21322632 .084991458 .21322632 .049987794 .20622254 .049987794 .16023255 .049987794 .07434082 .11898804-.022460938 .23098755-.022460938 .34700013-.022460938 .44898988 .073349 .44898988 .20022583Z"/>
<path id="font_2_2" d="M.2939911 .64004519C.2939911 .66400149 .2939911 .6660156 .2709961 .6660156 .20899964 .60227969 .12098694 .60227969 .08898926 .60227969V.57128909C.10899353 .57128909 .16799927 .57128909 .21998596 .5972748V.07902527C.21998596 .042999269 .21699524 .0309906 .1269989 .0309906H.09498596V0C.12998963 .0029907227 .21699524 .0029907227 .25698854 .0029907227 .29699708 .0029907227 .38398744 .0029907227 .4189911 0V.0309906H.3869934C.29699708 .0309906 .2939911 .041992189 .2939911 .07902527V.64004519Z"/>
<path id="font_2_3" d="M.1269989 .07699585 .23298645 .18003845C.3889923 .31811524 .44898988 .3721466 .44898988 .47216798 .44898988 .5860901 .35899354 .6660156 .23699951 .6660156 .12399292 .6660156 .049987794 .57411196 .049987794 .48516847 .049987794 .4291687 .099990848 .4291687 .102996829 .4291687 .11999512 .4291687 .15499878 .44117738 .15499878 .48217774 .15499878 .5081787 .13699341 .5341797 .101989749 .5341797 .09399414 .5341797 .09199524 .5341797 .08898926 .5331726 .11199951 .59806826 .1659851 .63500979 .22399903 .63500979 .31498719 .63500979 .35798646 .5541382 .35798646 .47216798 .35798646 .39215089 .30799867 .31311036 .25299073 .25108338L.06098938 .036987306C.049987794 .025985718 .049987794 .023986817 .049987794 0H.42099L.44898988 .17404175H.42399598C.4189911 .14402771 .4119873 .1000061 .4019928 .084991458 .394989 .07699585 .32899476 .07699585 .30699159 .07699585H.1269989Z"/>
<path id="font_2_7" d="M.47599793 .609375C.4850006 .6213684 .4850006 .62338259 .4850006 .64437869H.24198914C.11999512 .64437869 .117996219 .65737918 .11399841 .67637637H.08898926L.055999757 .4702301H.08099365C.083999637 .48625184 .09298706 .5493469 .10598755 .56137087 .11299133 .5673828 .19099427 .5673828 .20399475 .5673828H.41099549C.3999939 .5513611 .32099916 .4421997 .29899598 .40914918 .20899964 .27394105 .17599488 .1347351 .17599488 .032577516 .17599488 .022567749 .17599488-.022460938 .22200012-.022460938 .2679901-.022460938 .2679901 .022567749 .2679901 .032577516V.08366394C.2679901 .13873291 .2709961 .19381714 .2789917 .24790955 .2829895 .27093507 .29699708 .35707093 .34098817 .41915895L.47599793 .609375Z"/>
<path id="font_2_4" d="M.2939911 .16503906V.07800293C.2939911 .041992189 .2919922 .0309906 .21798706 .0309906H.19699097V0C.23799134 .0029907227 .2899933 .0029907227 .33198548 .0029907227 .37399293 .0029907227 .4269867 .0029907227 .46798707 0V.0309906H.44699098C.37298585 .0309906 .37098695 .041992189 .37098695 .07800293V.16503906H.47099305V.19602967H.37098695V.65075686C.37098695 .67074587 .37098695 .6767578 .35499574 .6767578 .34599305 .6767578 .34298707 .6767578 .33499146 .66474917L.027999878 .19602967V.16503906H.2939911M.2999878 .19602967H.055999757L.2999878 .5688019V.19602967Z"/>
<path id="font_2_6" d="M.13198853 .327713V.35173036C.13198853 .6047821 .2559967 .64100649 .30699159 .64100649 .33099366 .64100649 .37298585 .634964 .394989 .6007538 .37998963 .6007538 .33999635 .6007538 .33999635 .5557556 .33999635 .524765 .3639984 .5097656 .38598634 .5097656 .4019928 .5097656 .43199159 .51875308 .43199159 .5577545 .43199159 .6178589 .3880005 .6660156 .30499269 .6660156 .1769867 .6660156 .041992189 .5367584 .041992189 .31570436 .041992189 .048553468 .1579895-.022460938 .25099183-.022460938 .3619995-.022460938 .45700074 .07156372 .45700074 .2036438 .45700074 .33070375 .36799623 .4267578 .25698854 .4267578 .18899536 .4267578 .1519928 .37573243 .13198853 .327713M.25099183 .0055389406C.18798828 .0055389406 .1579895 .06556702 .1519928 .080566409 .13398743 .127594 .13398743 .2076416 .13398743 .22564698 .13398743 .30369569 .1659851 .40374757 .2559967 .40374757 .27198792 .40374757 .31799317 .40374757 .34899903 .34172059 .36698915 .30470277 .36698915 .2536621 .36698915 .20463562 .36698915 .15661621 .36698915 .10658264 .34999085 .0705719 .31999208 .010528564 .27398683 .0055389406 .25099183 .0055389406Z"/>
<path id="font_1_91" d="M.13589478 .04499817 .36499024 .3867035C.38198854 .41210938 .3889923 .42170716 .394989 .42871095 .394989 .43270875 .39369203 .43499757 .3896942 .43499757 .38468934 .43499757 .33799745 .42871095 .30899049 .42871095H.10499573C.084991458 .42871095 .06399536 .42970277 .04899597 .43170167L.04699707 .42871095C.04798889 .41571046 .04899597 .41070558 .04899597 .40170289 .04899597 .3927002 .04798889 .3836975 .04699707 .37571717L.04899597 .37271119C.04899597 .37271119 .16239929 .38180543 .2769928 .3834076L.041992189 .03199768C.033996583 .019989014 .027999878 .010696411 .019989014 .0014953613L.022994996-.0030059815C.022994996-.0030059815 .07548523 0 .10398865 0H.32998658C.34999085 0 .37098695-.0010070801 .38598634-.0030059815L.3880005 0C.3869934 .0129852299 .38598634 .017990113 .38598634 .026992798 .38598634 .035995485 .3869934 .04499817 .3880005 .052978517L.38598634 .055984498C.38598634 .055984498 .25749208 .045684816 .13589478 .04499817Z"/>
<path id="font_1_53" d="M.22698975 .44465638V.19987488C.22698975 .12495422 .22499085 .054016115 .21699524 .000061035159L.21899414-.0029296876C.23098755-.0009460449 .2579956 .000061035159 .269989 .000061035159 .28199769 .000061035159 .30899049-.0009460449 .32099916-.0029296876L.32299806 .000061035159C.31498719 .057006837 .31298829 .12495422 .31298829 .19987488V.44465638C.31298829 .4616394 .31399537 .5645447 .32099916 .58851626 .45498658 .58851626 .522995 .5745392 .522995 .5745392L.5249939 .578537C.522995 .5935211 .522995 .6165161 .5249939 .64453127L.522995 .647522C.5069885 .6455231 .48399354 .64453127 .46299745 .64453127H.07699585C.055999757 .64453127 .032989503 .6455231 .016998291 .647522L.01499939 .64453127C.016998291 .6165161 .016998291 .5935211 .01499939 .578537L.016998291 .5745392C.016998291 .5745392 .084991458 .58851626 .21899414 .58851626 .22599793 .5645447 .22698975 .4616394 .22698975 .44465638Z"/>
<path id="font_1_39" d="M.40699769 .64453127H.14698792C.11299133 .64453127 .09599304 .647522 .09599304 .647522L.09399414 .64453127C.101989749 .5875244 .10398865 .5194855 .10398865 .44444276V.199646C.10398865 .124801639 .101989749 .05393982 .09399414 .000061035159L.09498596-.0029296876C.09498596-.0029296876 .11199951 .000061035159 .14698792 .000061035159 .18099976 .000061035159 .19799805-.0029296876 .19799805-.0029296876L.19999695 .000061035159C.19198609 .0569458 .18998719 .124801639 .18998719 .199646V.31640626C.23799134 .31640626 .34399415 .31340028 .41299439 .306427L.41600038 .30941773C.4139862 .31840516 .41299439 .33239747 .41299439 .34140016 .41299439 .35040284 .4139862 .36439515 .41600038 .37339784L.41299439 .3764038C.35398866 .37139894 .30799867 .36639405 .18998719 .36639405V.44444276C.18998719 .4614563 .19099427 .56451418 .19799805 .58851626 .33198548 .58851626 .46998597 .5765228 .46998597 .5765228L.47200013 .58052065C.47099305 .58851626 .46998597 .6015167 .46998597 .6105194 .46998597 .6185303 .47099305 .6305237 .47200013 .64453127L.46998597 .647522C.45399476 .6455231 .43099977 .64453127 .40699769 .64453127Z"/>
<path id="font_1_82" d="M.35699464 .37643434C.35699464 .37643434 .3600006 .33441163 .3600006 .23434448V.0662384C.33399964 .04623413 .2849884 .034225465 .2659912 .034225465 .20799256 .034225465 .13699341 .07624817 .13699341 .2273407 .13699341 .33140565 .18899536 .39944459 .2630005 .39944459 .3066864 .39944459 .33529664 .3944397 .35699464 .37643434M.3659973 .43244935C.3479004 .43544007 .29100038 .43945313 .25698854 .43945313 .14099121 .43945313 .04899597 .3484192 .04899597 .21633911 .04899597 .111968997 .10398865-.009765625 .24198914-.009765625 .29899598-.009765625 .34498597 .010223389 .3600006 .023223877V-.031829835C.3600006-.10601807 .35949708-.17871094 .35099793-.23234558L.35299684-.23535156C.35299684-.23535156 .36499024-.23234558 .3999939-.23234558 .43429566-.23234558 .44699098-.23535156 .44699098-.23535156L.44898988-.23234558C.44049073-.17520142 .43998719-.10722351 .43998719-.031829835V.23535156C.43998719 .3103943 .44198609 .38613893 .44898988 .42944337L.44699098 .43244935C.4242859 .43014527 .3842926 .42944337 .3659973 .43244935Z"/>
<path id="font_1_90" d="M.027999878 .43164063C.0677948 .34283448 .18659973 .08476257 .22200012-.0103302 .18998719-.08502197 .14918518-.16201782 .10398865-.23730469 .11399841-.23431397 .1289978-.23231507 .13899231-.23231507 .14898682-.23231507 .17799378-.23431397 .18798828-.23730469 .22599793-.11231995 .44499208 .36463929 .47799684 .43164063 .46798707 .42863465 .44499208 .42863465 .43499757 .42863465 .4249878 .42863465 .4059906 .42863465 .3959961 .43164063 .3600006 .31863404 .31329347 .19085694 .2646942 .087265018H.2626953C.21348572 .20614624 .1663971 .31744386 .1289978 .43164063 .115997318 .42863465 .09399414 .42863465 .07998657 .42863465 .066986087 .42863465 .041992189 .42863465 .027999878 .43164063Z"/>
<path id="font_3_39" d="M.46798707 .64453127H.17199707C.13798523 .64453127 .08799744 .647522 .08799744 .647522L.085998538 .64453127C.09399414 .5875244 .09799194 .5195923 .09799194 .44467164V.19987488C.09799194 .124938968 .09399414 .054000856 .085998538 .000061035159L.08699036-.0029296876C.08699036-.0029296876 .13699341 .000061035159 .17199707 .000061035159 .20599365 .000061035159 .25-.0029296876 .25-.0029296876L.2519989 .000061035159C.24398804 .057006837 .24198914 .124938968 .24198914 .19987488V.30078126C.2899933 .30078126 .4099884 .29777528 .47898866 .29078675L.48199464 .29377748C.47999574 .30278016 .47898866 .32276917 .47898866 .33177186 .47898866 .34077455 .47999574 .35977174 .48199464 .36875917L.47898866 .37176515C.41999818 .3667755 .3600006 .36177064 .24198914 .36177064V.44467164C.24198914 .46165467 .24299622 .55255129 .25 .5765228 .38398744 .5765228 .5309906 .5545502 .5309906 .5545502L.5329895 .558548C.5319977 .5665283 .5309906 .6005249 .5309906 .6095276 .5309906 .6175232 .5319977 .6305237 .5329895 .64453127L.5309906 .647522C.5149994 .6455231 .49198915 .64453127 .46798707 .64453127Z"/>
<path id="font_3_66" d="M.31098939 .22233582 .30899049 .12927246C.30899049 .11627197 .30108644 .09135437 .2939911 .084243778 .2709961 .06123352 .24798584 .050231935 .21998596 .050231935 .18998719 .050231935 .16799927 .08024597 .16799927 .10726929 .16799927 .14338684 .18078614 .18811035 .23098755 .20132447L.31098939 .22233582M.43699647 .08024597C.43699647 .10926819 .44099427 .26637269 .44099427 .27737428 .44099427 .33750917 .42858888 .3747406 .40098573 .3995514 .3692932 .427948 .3090973 .43945313 .26098634 .43945313 .18899536 .43945313 .09298706 .4074402 .068984989 .3864441L.06599426 .3824463 .085998538 .3073883 .11898804 .30639649C.15299988 .35643006 .19699097 .38545228 .24198914 .38545228 .28599549 .38545228 .31098939 .36053468 .31098939 .28338624 .31098939 .27638246 .30799867 .27236939 .30499269 .27137757L.18798828 .24035645C.09199524 .21733094 .033996583 .16630554 .033996583 .09825134 .033996583 .029220581 .100997928-.009765625 .17098999-.009765625 .21009827-.009765625 .2630005 .0032196046 .30799867 .048233034H.30999757C.32398988 .007232666 .34599305-.009765625 .3889923-.009765625 .42808534-.009765625 .47799684 .00022888184 .5079956 .023223877 .5066986 .031921388 .5039978 .039230348 .49798585 .04421997 .45799256 .04421997 .43699647 .047225954 .43699647 .08024597Z"/>
<path id="font_3_87" d="M.21398926-.0029296876C.22499085-.0009460449 .25898744 .000061035159 .2689972 .000061035159 .2789917 .000061035159 .30249024-.0009460449 .31098939-.0029296876 .37348939 .13243103 .4544983 .28826905 .5299988 .43164063 .5209961 .42863465 .48298646 .42863465 .47299195 .42863465 .46299745 .42863465 .43899537 .42863465 .42999269 .43164063 .3985901 .3405304 .34649659 .2048645 .30029298 .12243652L.2939911 .12294006C.25439454 .21734619 .21089173 .33732606 .18099976 .43164063 .16799927 .42863465 .12098694 .42863465 .10699463 .42863465 .09098816 .42863465 .035995485 .42863465 .019989014 .43164063 .09098816 .28477479 .1579895 .14291382 .21398926-.0029296876Z"/>
<path id="font_3_80" d="M.040985109 .20533753C.040985109 .072250369 .13398743-.009765625 .2829895-.009765625 .43598939-.009765625 .5249939 .076049808 .5249939 .21434021 .5249939 .34040834 .45399476 .43945313 .2849884 .43945313 .14199829 .43945313 .040985109 .36042787 .040985109 .20533753M.27799989 .38945008C.36299134 .38945008 .3829956 .32640077 .3829956 .1873169 .3829956 .072250369 .34199525 .040222169 .29699708 .040222169 .19299317 .040222169 .18299866 .1512909 .18299866 .22834778 .18299866 .31539918 .19198609 .38945008 .27799989 .38945008Z"/>
<path id="font_3_83" d="M.22499085 .34944154 .22079468 .3524475C.22079468 .37524415 .21949768 .4169464 .21798706 .42544557 .21679688 .43234254 .21528626 .43544007 .20899964 .43544007 .17999268 .43074037 .114990238 .43074037 .07998657 .43244935L.07798767 .42944337C.08569336 .38674928 .08898926 .31010438 .08898926 .23532105V.18026734C.08898926 .10517883 .08699036 .054122926 .07899475 .000061035159L.07998657-.0029296876C.07998657-.0029296876 .11199951 .000061035159 .14698792 .000061035159 .18099976 .000061035159 .22898865-.0029296876 .22898865-.0029296876L.23098755 .000061035159C.22299195 .057128908 .22099304 .10418701 .22099304 .18026734V.25334168C.22099304 .3308258 .28988648 .34243775 .30499269 .34243775 .32398988 .34243775 .34498597 .33743287 .36299134 .3234253L.3809967 .3254242 .40098573 .42845155 .39698792 .43244935C.37998963 .43743897 .3639984 .43945313 .34599305 .43945313 .29899598 .43945313 .25099183 .388443 .22499085 .34944154Z"/>
<path id="font_3_74" d="M.084991458 .606781C.084991458 .56877139 .115997318 .53778079 .1559906 .53778079 .19599915 .53778079 .22698975 .56877139 .22698975 .606781 .22698975 .6447754 .19599915 .67578127 .1559906 .67578127 .115997318 .67578127 .084991458 .6447754 .084991458 .606781M.08999634 .23483277V.17988587C.08999634 .10494995 .08799744 .054000856 .07998657 .000061035159L.08198547-.0029296876C.10269165-.00064086916 .12098694 .000061035159 .1559906 .000061035159 .18998719 .000061035159 .21128845-.0009460449 .22999573-.0029296876L.23199463 .000061035159C.22399903 .057006837 .22200012 .10395813 .22200012 .17988587V.24581909C.22200012 .32073976 .22569275 .3637085 .23199463 .42364503 .23199463 .43063355 .22898865 .43363954 .22299195 .43363954 .20928955 .43164063 .18199158 .42863465 .1539917 .42863465 .12799073 .42863465 .10069275 .43034364 .08299255 .43164063L.07998657 .42764283C.08799744 .38468934 .08999634 .30975343 .08999634 .23483277Z"/>
<path id="font_3_85" d="M.08999634 .42871095C.069488529 .4288025 .04838562 .4300995 .035995485 .43170167 .03048706 .41470338 .0236969 .3986969 .01399231 .3836975L.018997193 .37670899C.036193849 .37800599 .06719971 .37860108 .08999634 .3787079L.08699036 .2609558C.085494998 .20103455 .083999637 .118133548 .083999637 .08818054 .083999637 .041229249 .116989139-.009780884 .18099976-.009780884 .23298645-.009780884 .2849884-.00077819827 .32798768 .025222779 .32798768 .041229249 .32199098 .05621338 .31098939 .063201908 .2889862 .052230836 .2789917 .051223756 .25299073 .051223756 .22599793 .051223756 .21598816 .09017944 .21598816 .13111878 .21598816 .16108704 .2158966 .21202088 .21699524 .27194215L.21899414 .3787079H.25698854C.2809906 .3787079 .3156891 .37800599 .32899476 .37670899 .3304901 .39170838 .33499146 .40899659 .34098817 .42370606L.33599855 .43170167C.31739808 .4300995 .2889862 .42869569 .2659912 .42869569H.21899414C.21899414 .48469544 .21949768 .5146942 .22399903 .56770327 .22399903 .57470706 .22099304 .57769778 .21499634 .57769778 .18998719 .56770327 .13598633 .5417023 .09599304 .5326996L.09399414 .52970889C.09069824 .503006 .08999634 .46839906 .08999634 .42871095Z"/>
<path id="font_3_70" d="M.17298889 .2549591C.17649842 .30413819 .18869019 .33906556 .20349121 .35932923 .21618653 .37669374 .23568726 .38945008 .2639923 .38945008 .30488587 .38945008 .32899476 .34277345 .32899476 .2549591H.17298889M.44799806 .10714722C.40148927 .06971741 .35299684 .066223148 .31098939 .066223148 .26239015 .066223148 .22599793 .07929993 .20219422 .105148319 .18019104 .12910462 .16899109 .1641388 .16899109 .20996094H.26849366C.36849977 .20996094 .45399476 .20796204 .45399476 .20796204L.45999146 .21395874C.45999146 .33926393 .4249878 .43945313 .2709961 .43945313 .21598816 .43945313 .15618897 .42214967 .116485599 .38945008 .067993167 .3493042 .034988405 .28897096 .034988405 .20596314 .034988405 .14707947 .0566864 .08509827 .09799194 .04222107 .13218689 .006729126 .19099427-.009765625 .2659912-.009765625 .33799745-.009765625 .40950013 .01322937 .46398927 .07620239 .46398927 .08918762 .45799256 .10714722 .44799806 .10714722Z"/>
<path id="font_3_49" d="M.23498535 .560318C.23498535 .58932498 .24299622 .6043396 .31498719 .6043396 .37399293 .6043396 .42199708 .58732607 .42199708 .46826173 .42199708 .36720277 .37208558 .3251953 .31399537 .3251953 .2889862 .3251953 .24798584 .32818605 .23498535 .33518983V.560318M.09298706 .44525147V.20014954C.09298706 .12512207 .08898926 .054092409 .08099365 .000061035159L.08198547-.0029296876C.08198547-.0029296876 .12998963 .000061035159 .16499329 .000061035159 .19898987 .000061035159 .24499512-.0029296876 .24499512-.0029296876L.24699402 .000061035159C.23899842 .05708313 .23498535 .12512207 .23498535 .20014954V.28419496C.25698854 .27719117 .2899933 .27418519 .32499696 .27418519 .5069885 .27418519 .57299807 .3832245 .57299807 .4862671 .57299807 .52259829 .5589905 .57933047 .5029907 .6183319 .46769715 .6429291 .4131012 .65234377 .34199525 .65234377 .31599427 .65234377 .19499207 .64533999 .16499329 .64533999 .1309967 .64533999 .08299255 .6483307 .08299255 .6483307L.08099365 .64533999C.08898926 .58833315 .09298706 .5202942 .09298706 .44525147Z"/>
<path id="font_3_91" d="M.2709961 .3697052 .041992189 .03199768C.033996583 .019989014 .02999878 .015991211 .020996094 .0069885256L.022994996-.0030059815C.022994996-.0030059815 .13398743 0 .1619873 0H.3880005C.4079895 0 .42900086-.0010070801 .44400025-.0030059815L.44599916 0C.44499208 .0129852299 .44400025 .022994996 .44400025 .03199768 .44400025 .040985109 .44499208 .05899048 .44599916 .066986087L.44400025 .06997681C.44400025 .06997681 .31999208 .05999756 .19999695 .05899048L.4229889 .3867035C.43998719 .4116974 .44699098 .42170716 .45298768 .42871095 .45298768 .43270875 .45199586 .43470765 .44799806 .43470765 .44299317 .43470765 .3959961 .42871095 .36698915 .42871095H.114990238C.09498596 .42871095 .07398987 .42970277 .05899048 .43170167L.056991579 .42871095C.057998659 .41571046 .05899048 .40570069 .05899048 .396698 .05899048 .38771058 .057998659 .3697052 .056991579 .3617096L.05899048 .35871888C.05899048 .35871888 .15899658 .3677063 .2709961 .3697052Z"/>
<path id="font_3_53" d="M.22898865 .43563844V.19987488C.22898865 .124938968 .22698975 .054000856 .21899414 .000061035159L.21998596-.0029296876C.21998596-.0029296876 .2659912 .000061035159 .30099488 .000061035159 .33499146 .000061035159 .3809967-.0029296876 .3809967-.0029296876L.3829956 .000061035159C.375 .057006837 .37298585 .124938968 .37298585 .19987488V.43563844C.37298585 .45262147 .37399293 .5425415 .3809967 .5665283 .5149994 .5665283 .58499148 .5445404 .58499148 .5445404L.58699038 .5485382C.58499148 .56352236 .58499148 .6165161 .58699038 .64453127L.58499148 .647522C.56900027 .6455231 .54599 .64453127 .5249939 .64453127H.07699585C.055999757 .64453127 .032989503 .6455231 .016998291 .647522L.01499939 .64453127C.016998291 .6165161 .016998291 .56352236 .01499939 .5485382L.016998291 .5445404C.016998291 .5445404 .08699036 .5665283 .22099304 .5665283 .22799683 .5425415 .22898865 .45262147 .22898865 .43563844Z"/>
<path id="font_3_81" d="M.21199036 .28237916C.23399353 .3354187 .2899933 .3694458 .32398988 .3694458 .3849945 .3694458 .40098573 .30490113 .40098573 .2083435 .40098573 .101760867 .35699464 .040222169 .30099488 .040222169 .27598573 .040222169 .24899292 .04522705 .21199036 .07624817V.28237916M.21598816 .35842896 .21179199 .36143495C.21179199 .38424684 .210495 .4169464 .20899964 .42544557 .20779419 .43234254 .20629883 .43544007 .19999695 .43544007 .17098999 .43074037 .10598755 .43074037 .070999149 .43244935L.068984989 .42944337C.076690677 .38674928 .07998657 .31010438 .07998657 .23535156V-.031829835C.07998657-.10652161 .07849121-.17871094 .069992069-.23234558L.070999149-.23535156C.070999149-.23535156 .10998535-.23234558 .14498902-.23234558 .17929077-.23234558 .21998596-.23535156 .21998596-.23535156L.22200012-.23234558C.21348572-.17520142 .21199036-.10702515 .21199036-.031829835V.018234253C.24499512-.0027770997 .28199769-.009765625 .31900025-.009765625 .44509889-.009765625 .54299929 .09436035 .54299929 .23535156 .54299929 .309906 .519989 .36593629 .4724884 .4069519 .44909669 .42713929 .41448976 .43945313 .37098695 .43945313 .32798768 .43945313 .2649994 .42544557 .21598816 .35842896Z"/>
<path id="font_3_79" d="M.5119934 .18025208V.29136659C.5119934 .3964386 .46299745 .43945313 .37298585 .43945313 .32199098 .43945313 .2619934 .40844728 .21598816 .34942628L.21179199 .35243226C.21179199 .37524415 .210495 .4169464 .20899964 .42544557 .20779419 .43234254 .20629883 .43544007 .19999695 .43544007 .17098999 .43074037 .10598755 .43074037 .070999149 .43244935L.068984989 .42944337C.076690677 .38674928 .07998657 .3100891 .07998657 .23530579V.18025208C.07998657 .10517883 .07749939 .053619386 .068984989 .000061035159L.070999149-.0029296876C.070999149-.0029296876 .117996219 .000061035159 .15299988 .000061035159 .18728638 .000061035159 .21499634-.0029296876 .21499634-.0029296876L.21798706 .000061035159C.21299744 .057128908 .21199036 .10417175 .21199036 .18025208V.2823639C.25 .33241273 .2919922 .36244203 .32798768 .36244203 .35499574 .36244203 .37998963 .3424225 .37998963 .26934815V.18025208C.37998963 .10517883 .37998963 .053115846 .37399293 .000061035159L.37599183-.0029296876C.37599183-.0029296876 .4079895 .000061035159 .44299317 .000061035159 .47698976 .000061035159 .5209961-.0029296876 .5209961-.0029296876L.522995 .000061035159C.5139923 .057128908 .5119934 .10417175 .5119934 .18025208Z"/>
<path id="font_3_72" d="M.45899964 .28952027C.45899964 .32398988 .43899537 .36506654 .40789796 .38604737 .43769837 .38555909 .4741974 .3798523 .5089874 .37745667L.5119934 .38046266C.5099945 .38945008 .5089874 .3984375 .5089874 .4074402 .5089874 .41644288 .5099945 .42744447 .5119934 .43644715L.5089874 .43943788C.4611969 .4353485 .39788819 .43473817 .32328797 .43084718 .3053894 .43644715 .27249146 .43943788 .25099183 .43943788 .14299011 .43943788 .053985597 .38145448 .053985597 .28552247 .053985597 .22955323 .08279419 .20158386 .10848999 .18359375 .123291019 .17318726 .147995 .16558838 .147995 .16558838L.1459961 .16059876C.101486209 .14559937 .05899048 .107299808 .05899048 .074417117 .05899048 .03239441 .08248901 .0048828127 .13798523-.003616333 .11639404-.017211914 .07798767-.031661989 .053985597-.045715333 .036987306-.06781006 .03199768-.099121097 .03199768-.12402344 .03199768-.21128845 .13578797-.23829651 .22499085-.23829651 .29029847-.23829651 .36608888-.23048401 .4264984-.2007904 .4854889-.17170716 .5299988-.121414188 .5299988-.06781006 .5299988 .04638672 .40299989 .06639099 .31098939 .06639099 .2939911 .06639099 .2709961 .06439209 .24798584 .06138611 .23399353 .05960083 .23399353 .05857849 .22898865 .05857849 .20098877 .05857849 .17098999 .06364441 .17098999 .107177738 .17098999 .12347412 .17149353 .1355133 .18249512 .15258789 .1967926 .14659119 .22389221 .1415863 .2579956 .1415863 .37399293 .1415863 .45899964 .19648743 .45899964 .28952027M.32598878 .28851319C.32598878 .21757508 .3059845 .18159485 .2579956 .18159485 .19699097 .18159485 .18699646 .21757508 .18699646 .29051209 .18699646 .35647584 .20298767 .39944459 .25498963 .39944459 .31498719 .39944459 .32598878 .36346437 .32598878 .28851319M.18299866-.015823365C.18939209-.017211914 .19699097-.018417359 .20599365-.018417359 .23548889-.017608643 .26219178-.016616822 .27598573-.016616822 .33198548-.016616822 .3999939-.02142334 .3999939-.09089661 .3999939-.15213013 .33898927-.19328308 .25299073-.19328308 .21899414-.19328308 .15098572-.1722107 .15098572-.10394287 .15098572-.07072449 .15699768-.04270935 .18299866-.015609741V-.015823365Z"/>
<path id="font_3_84" d="M.053985597 .11328125 .037994386 .01727295C.09199524-.0027770997 .1579895-.009765625 .19400025-.009765625 .32398988-.009765625 .3789978 .053237916 .3789978 .122283939 .3789978 .21243286 .30799867 .24035645 .23699951 .27838136 .20439148 .29588319 .1769867 .31340028 .1769867 .3454132 .1769867 .37342835 .18699646 .3944397 .22599793 .3944397 .2749939 .3944397 .3039856 .3474121 .31698609 .31939698L.34399415 .32040406 .36299134 .41044618 .36099244 .41345216C.33399964 .42845155 .27598573 .43945313 .22799683 .43945313 .13798523 .43945313 .05899048 .39544679 .05899048 .31840516 .05899048 .24835205 .10809326 .21253968 .16499329 .18132019 .23799134 .14129639 .2599945 .12327576 .2599945 .08325195 .2599945 .036224367 .22898865 .034225465 .19099427 .034225465 .15589905 .034225465 .11399841 .056243898 .083999637 .11427307L.053985597 .11328125Z"/>
</defs>
<path transform="matrix(1.00008,0,0,-1.00003,36.36223,204.93277)" stroke-width=".3985" stroke-linecap="butt" stroke-miterlimit="10" stroke-linejoin="miter" fill="none" stroke="#bfbfbf" d="M0 0H295.32884M0 45.48508H295.32884M0 90.97015H295.32884M0 136.45523H295.32884M0 181.9403H295.32884"/>
<path transform="matrix(1.00008,0,0,-1.00003,36.36223,204.93277)" stroke-width=".79701" stroke-linecap="butt" stroke-miterlimit="10" stroke-linejoin="miter" fill="none" stroke="#7f807f" d="M14.76643-4.25157V0M44.29932-4.25157V0M73.8322-4.25157V0M103.36508-4.25157V0M132.89797-4.25157V0M162.43085-4.25157V0M191.96373-4.25157V0M221.49662-4.25157V0M251.0295-4.25157V0M280.56239-4.25157V0"/>
<path transform="matrix(1.00008,0,0,-1.00003,36.36223,204.93277)" stroke-width=".79701" stroke-linecap="butt" stroke-miterlimit="10" stroke-linejoin="miter" fill="none" stroke="#7f807f" d="M-2.12604 0H2.12604M-2.12604 45.48508H2.12604M-2.12604 90.97015H2.12604M-2.12604 136.45523H2.12604M-2.12604 181.9403H2.12604"/>
<path transform="matrix(1.00008,0,0,-1.00003,36.36223,204.93277)" stroke-width=".79701" stroke-linecap="butt" stroke-miterlimit="10" stroke-linejoin="miter" fill="none" stroke="#000000" d="M0 0H292.73857"/>
<path transform="matrix(1.00008,0,0,-1.00003,329.1242,204.93277)" d="M2.59026 0-1.55415 2.0722 0 0-1.55415-2.0722"/>
<path transform="matrix(1.00008,0,0,-1.00003,36.36223,204.93277)" stroke-width=".79701" stroke-linecap="butt" stroke-miterlimit="10" stroke-linejoin="miter" fill="none" stroke="#000000" d="M0 0V179.35005"/>
<path transform="matrix(0,-1.00003,-1.00008,-0,36.36223,25.577332)" d="M2.59026 0-1.55415 2.0722 0 0-1.55415-2.0722"/>
<use data-text="A" xlink:href="#font_1_34" transform="matrix(0,-10.909428,-10.909972,-0,54.88271,258.9494)"/>
<use data-text="n" xlink:href="#font_1_79" transform="matrix(0,-10.909428,-10.909972,-0,54.88271,252.08737)"/>
<use data-text="c" xlink:href="#font_1_68" transform="matrix(0,-10.909428,-10.909972,-0,54.88271,246.2072)"/>
<use data-text="h" xlink:href="#font_1_73" transform="matrix(0,-10.909428,-10.909972,-0,54.88271,241.52706)"/>
<use data-text="o" xlink:href="#font_1_80" transform="matrix(0,-10.909428,-10.909972,-0,54.88271,235.53778)"/>
<use data-text="v" xlink:href="#font_1_87" transform="matrix(0,-10.909428,-10.909972,-0,54.88271,230.14853)"/>
<use data-text="i" xlink:href="#font_1_74" transform="matrix(0,-10.909428,-10.909972,-0,54.88271,225.10837)"/>
<use data-text="e" xlink:href="#font_1_70" transform="matrix(0,-10.909428,-10.909972,-0,54.88271,222.27191)"/>
<use data-text="s" xlink:href="#font_1_84" transform="matrix(0,-10.909428,-10.909972,-0,54.88271,217.32996)"/>
<use data-text="B" xlink:href="#font_1_35" transform="matrix(0,-10.909428,-10.909972,-0,84.14505,241.00284)"/>
<use data-text="a" xlink:href="#font_1_66" transform="matrix(0,-10.909428,-10.909972,-0,84.14505,234.28263)"/>
<use data-text="c" xlink:href="#font_1_68" transform="matrix(0,-10.909428,-10.909972,-0,84.14505,229.0352)"/>
<use data-text="o" xlink:href="#font_1_80" transform="matrix(0,-10.909428,-10.909972,-0,84.14505,224.35504)"/>
<use data-text="n" xlink:href="#font_1_79" transform="matrix(0,-10.909428,-10.909972,-0,84.14505,218.90033)"/>
<use data-text="C" xlink:href="#font_1_36" transform="matrix(0,-10.909428,-10.909972,-0,113.95343,245.61798)"/>
<use data-text="h" xlink:href="#font_1_73" transform="matrix(0,-10.909428,-10.909972,-0,113.95343,238.2323)"/>
<use data-text="e" xlink:href="#font_1_70" transform="matrix(0,-10.909428,-10.909972,-0,113.95343,232.24303)"/>
<use data-text="e" xlink:href="#font_1_70" transform="matrix(0,-10.909428,-10.909972,-0,113.95343,227.2247)"/>
<use data-text="s" xlink:href="#font_1_84" transform="matrix(0,-10.909428,-10.909972,-0,113.95343,222.28272)"/>
<use data-text="e" xlink:href="#font_1_70" transform="matrix(0,-10.909428,-10.909972,-0,113.95343,217.96259)"/>
<use data-text="P" xlink:href="#font_1_49" transform="matrix(0,-10.909428,-10.909972,-0,142.01068,244.36295)"/>
<use data-text="e" xlink:href="#font_1_70" transform="matrix(0,-10.909428,-10.909972,-0,142.01068,238.26459)"/>
<use data-text="p" xlink:href="#font_1_81" transform="matrix(0,-10.909428,-10.909972,-0,142.01068,233.3226)"/>
<use data-text="p" xlink:href="#font_1_81" transform="matrix(0,-10.909428,-10.909972,-0,142.01068,227.61698)"/>
<use data-text="e" xlink:href="#font_1_70" transform="matrix(0,-10.909428,-10.909972,-0,142.01068,221.83499)"/>
<use data-text="r" xlink:href="#font_1_83" transform="matrix(0,-10.909428,-10.909972,-0,142.01068,216.893)"/>
<use data-text="M" xlink:href="#font_1_46" transform="matrix(0,-10.909428,-10.909972,-0,173.02417,262.4295)"/>
<use data-text="u" xlink:href="#font_1_86" transform="matrix(0,-10.909428,-10.909972,-0,173.02417,252.76377)"/>
<use data-text="s" xlink:href="#font_1_84" transform="matrix(0,-10.909428,-10.909972,-0,173.02417,246.9054)"/>
<use data-text="h" xlink:href="#font_1_73" transform="matrix(0,-10.909428,-10.909972,-0,173.02417,242.58527)"/>
<use data-text="r" xlink:href="#font_1_83" transform="matrix(0,-10.909428,-10.909972,-0,173.02417,236.59598)"/>
<use data-text="o" xlink:href="#font_1_80" transform="matrix(0,-10.909428,-10.909972,-0,173.02417,232.7995)"/>
<use data-text="o" xlink:href="#font_1_80" transform="matrix(0,-10.909428,-10.909972,-0,173.02417,227.27933)"/>
<use data-text="m" xlink:href="#font_1_78" transform="matrix(0,-10.909428,-10.909972,-0,173.02417,221.82462)"/>
<use data-text="O" xlink:href="#font_1_48" transform="matrix(0,-10.909428,-10.909972,-0,202.55953,236.58472)"/>
<use data-text="l" xlink:href="#font_1_77" transform="matrix(0,-10.909428,-10.909972,-0,202.55953,228.50084)"/>
<use data-text="i" xlink:href="#font_1_74" transform="matrix(0,-10.909428,-10.909972,-0,202.55953,225.75167)"/>
<use data-text="v" xlink:href="#font_1_87" transform="matrix(0,-10.909428,-10.909972,-0,202.55953,222.91522)"/>
<use data-text="e" xlink:href="#font_1_70" transform="matrix(0,-10.909428,-10.909972,-0,202.55953,217.95143)"/>
<use data-text="O" xlink:href="#font_1_48" transform="matrix(0,-10.909428,-10.909972,-0,231.87586,241.15586)"/>
<use data-text="n" xlink:href="#font_1_79" transform="matrix(0,-10.909428,-10.909972,-0,231.87586,233.07198)"/>
<use data-text="i" xlink:href="#font_1_74" transform="matrix(0,-10.909428,-10.909972,-0,231.87586,227.1918)"/>
<use data-text="o" xlink:href="#font_1_80" transform="matrix(0,-10.909428,-10.909972,-0,231.87586,224.35535)"/>
<use data-text="n" xlink:href="#font_1_79" transform="matrix(0,-10.909428,-10.909972,-0,231.87586,218.90064)"/>
<use data-text="P" xlink:href="#font_1_49" transform="matrix(0,-10.909428,-10.909972,-0,260.15113,258.4474)"/>
<use data-text="e" xlink:href="#font_1_70" transform="matrix(0,-10.909428,-10.909972,-0,260.15113,252.34903)"/>
<use data-text="p" xlink:href="#font_1_81" transform="matrix(0,-10.909428,-10.909972,-0,260.15113,247.40705)"/>
<use data-text="p" xlink:href="#font_1_81" transform="matrix(0,-10.909428,-10.909972,-0,260.15113,241.70142)"/>
<use data-text="e" xlink:href="#font_1_70" transform="matrix(0,-10.909428,-10.909972,-0,260.15113,235.91944)"/>
<use data-text="r" xlink:href="#font_1_83" transform="matrix(0,-10.909428,-10.909972,-0,260.15113,230.97745)"/>
<use data-text="o" xlink:href="#font_1_80" transform="matrix(0,-10.909428,-10.909972,-0,260.15113,227.18097)"/>
<use data-text="n" xlink:href="#font_1_79" transform="matrix(0,-10.909428,-10.909972,-0,260.15113,221.72626)"/>
<use data-text="i" xlink:href="#font_1_74" transform="matrix(0,-10.909428,-10.909972,-0,260.15113,215.84607)"/>
<use data-text="P" xlink:href="#font_1_49" transform="matrix(0,-10.909428,-10.909972,-0,289.9375,257.12733)"/>
<use data-text="i" xlink:href="#font_1_74" transform="matrix(0,-10.909428,-10.909972,-0,289.9375,251.02896)"/>
<use data-text="n" xlink:href="#font_1_79" transform="matrix(0,-10.909428,-10.909972,-0,289.9375,248.1925)"/>
<use data-text="e" xlink:href="#font_1_70" transform="matrix(0,-10.909428,-10.909972,-0,289.9375,242.31232)"/>
<use data-text="a" xlink:href="#font_1_66" transform="matrix(0,-10.909428,-10.909972,-0,289.9375,237.37036)"/>
<use data-text="p" xlink:href="#font_1_81" transform="matrix(0,-10.909428,-10.909972,-0,289.9375,232.12293)"/>
<use data-text="p" xlink:href="#font_1_81" transform="matrix(0,-10.909428,-10.909972,-0,289.9375,226.4173)"/>
<use data-text="l" xlink:href="#font_1_77" transform="matrix(0,-10.909428,-10.909972,-0,289.9375,220.71167)"/>
<use data-text="e" xlink:href="#font_1_70" transform="matrix(0,-10.909428,-10.909972,-0,289.9375,217.9625)"/>
<use data-text="S" xlink:href="#font_1_52" transform="matrix(0,-10.909428,-10.909972,-0,319.24385,249.6001)"/>
<use data-text="a" xlink:href="#font_1_66" transform="matrix(0,-10.909428,-10.909972,-0,319.24385,244.07993)"/>
<use data-text="u" xlink:href="#font_1_86" transform="matrix(0,-10.909428,-10.909972,-0,319.24385,238.8325)"/>
<use data-text="s" xlink:href="#font_1_84" transform="matrix(0,-10.909428,-10.909972,-0,319.24385,232.97414)"/>
<use data-text="a" xlink:href="#font_1_66" transform="matrix(0,-10.909428,-10.909972,-0,319.24385,228.654)"/>
<use data-text="g" xlink:href="#font_1_72" transform="matrix(0,-10.909428,-10.909972,-0,319.24385,223.40659)"/>
<use data-text="e" xlink:href="#font_1_70" transform="matrix(0,-10.909428,-10.909972,-0,319.24385,217.96277)"/>
<use data-text="0" xlink:href="#font_2_1" transform="matrix(10.909972,0,0,-10.909428,24.945313,208.44788)"/>
<use data-text="5" xlink:href="#font_2_5" transform="matrix(10.909972,0,0,-10.909428,24.945313,162.9615)"/>
<use data-text="1" xlink:href="#font_2_2" transform="matrix(10.909972,0,0,-10.909428,19.489876,117.47514)"/>
<use data-text="0" xlink:href="#font_2_1" transform="matrix(10.909972,0,0,-10.909428,24.944863,117.47514)"/>
<use data-text="1" xlink:href="#font_2_2" transform="matrix(10.909972,0,0,-10.909428,19.489876,71.98877)"/>
<use data-text="5" xlink:href="#font_2_5" transform="matrix(10.909972,0,0,-10.909428,24.944863,71.98877)"/>
<use data-text="2" xlink:href="#font_2_3" transform="matrix(10.909972,0,0,-10.909428,19.489876,26.50241)"/>
<use data-text="0" xlink:href="#font_2_1" transform="matrix(10.909972,0,0,-10.909428,24.944863,26.50241)"/>
<path transform="matrix(1.00008,0,0,-1.00003,36.36223,204.93277)" d="M7.67975 0H21.85314V9.09702H7.67975ZM37.21263 0H51.38602V90.97015H37.21263ZM66.74551 0H80.9189V154.64926H66.74551ZM96.2784 0H110.45179V100.06717H96.2784ZM125.81128 0H139.98467V36.38806H125.81128ZM155.34416 0H169.51755V136.45523H155.34416ZM184.87705 0H199.05043V45.48508H184.87705ZM214.40993 0H228.58332V154.64926H214.40993ZM243.94281 0H258.1162V54.58209H243.94281ZM273.4757 0H287.6491V90.97015H273.4757Z" fill="#3c546f"/>
<path transform="matrix(1.00008,0,0,-1.00003,36.36223,204.93277)" stroke-width=".3985" stroke-linecap="butt" stroke-miterlimit="10" stroke-linejoin="miter" fill="none" stroke="#000000" d="M7.67975 0H21.85314V9.09702H7.67975ZM37.21263 0H51.38602V90.97015H37.21263ZM66.74551 0H80.9189V154.64926H66.74551ZM96.2784 0H110.45179V100.06717H96.2784ZM125.81128 0H139.98467V36.38806H125.81128ZM155.34416 0H169.51755V136.45523H155.34416ZM184.87705 0H199.05043V45.48508H184.87705ZM214.40993 0H228.58332V154.64926H214.40993ZM243.94281 0H258.1162V54.58209H243.94281ZM273.4757 0H287.6491V90.97015H273.4757Z"/>
<path transform="matrix(1.00008,0,0,-1.00003,36.36223,204.93277)" stroke-width=".3985" stroke-linecap="butt" stroke-miterlimit="10" stroke-linejoin="miter" fill="none" stroke="#000000" d=""/>
<use data-text="1" xlink:href="#font_2_2" transform="matrix(10.909972,0,0,-10.909428,48.40219,192.00038)"/>
<path transform="matrix(1.00008,0,0,-1.00003,36.36223,204.93277)" stroke-width=".3985" stroke-linecap="butt" stroke-miterlimit="10" stroke-linejoin="miter" fill="none" stroke="#000000" d=""/>
<use data-text="1" xlink:href="#font_2_2" transform="matrix(10.909972,0,0,-10.909428,75.21034,110.12492)"/>
<use data-text="0" xlink:href="#font_2_1" transform="matrix(10.909972,0,0,-10.909428,80.66533,110.12492)"/>
<path transform="matrix(1.00008,0,0,-1.00003,36.36223,204.93277)" stroke-width=".3985" stroke-linecap="butt" stroke-miterlimit="10" stroke-linejoin="miter" fill="none" stroke="#000000" d=""/>
<use data-text="1" xlink:href="#font_2_2" transform="matrix(10.909972,0,0,-10.909428,104.7457,46.44301)"/>
<use data-text="7" xlink:href="#font_2_7" transform="matrix(10.909972,0,0,-10.909428,110.20068,46.44301)"/>
<path transform="matrix(1.00008,0,0,-1.00003,36.36223,204.93277)" stroke-width=".3985" stroke-linecap="butt" stroke-miterlimit="10" stroke-linejoin="miter" fill="none" stroke="#000000" d=""/>
<use data-text="1" xlink:href="#font_2_2" transform="matrix(10.909972,0,0,-10.909428,134.28006,101.02765)"/>
<use data-text="1" xlink:href="#font_2_2" transform="matrix(10.909972,0,0,-10.909428,139.73505,101.02765)"/>
<path transform="matrix(1.00008,0,0,-1.00003,36.36223,204.93277)" stroke-width=".3985" stroke-linecap="butt" stroke-miterlimit="10" stroke-linejoin="miter" fill="none" stroke="#000000" d=""/>
<use data-text="4" xlink:href="#font_2_4" transform="matrix(10.909972,0,0,-10.909428,166.54364,164.70856)"/>
<path transform="matrix(1.00008,0,0,-1.00003,36.36223,204.93277)" stroke-width=".3985" stroke-linecap="butt" stroke-miterlimit="10" stroke-linejoin="miter" fill="none" stroke="#000000" d=""/>
<use data-text="1" xlink:href="#font_2_2" transform="matrix(10.909972,0,0,-10.909428,193.35079,64.63756)"/>
<use data-text="5" xlink:href="#font_2_5" transform="matrix(10.909972,0,0,-10.909428,198.80577,64.63756)"/>
<path transform="matrix(1.00008,0,0,-1.00003,36.36223,204.93277)" stroke-width=".3985" stroke-linecap="butt" stroke-miterlimit="10" stroke-linejoin="miter" fill="none" stroke="#000000" d=""/>
<use data-text="5" xlink:href="#font_2_5" transform="matrix(10.909972,0,0,-10.909428,225.61336,155.6113)"/>
<path transform="matrix(1.00008,0,0,-1.00003,36.36223,204.93277)" stroke-width=".3985" stroke-linecap="butt" stroke-miterlimit="10" stroke-linejoin="miter" fill="none" stroke="#000000" d=""/>
<use data-text="1" xlink:href="#font_2_2" transform="matrix(10.909972,0,0,-10.909428,252.42153,46.44301)"/>
<use data-text="7" xlink:href="#font_2_7" transform="matrix(10.909972,0,0,-10.909428,257.87654,46.44301)"/>
<path transform="matrix(1.00008,0,0,-1.00003,36.36223,204.93277)" stroke-width=".3985" stroke-linecap="butt" stroke-miterlimit="10" stroke-linejoin="miter" fill="none" stroke="#000000" d=""/>
<use data-text="6" xlink:href="#font_2_6" transform="matrix(10.909972,0,0,-10.909428,284.68409,146.514)"/>
<path transform="matrix(1.00008,0,0,-1.00003,36.36223,204.93277)" stroke-width=".3985" stroke-linecap="butt" stroke-miterlimit="10" stroke-linejoin="miter" fill="none" stroke="#000000" d=""/>
<use data-text="1" xlink:href="#font_2_2" transform="matrix(10.909972,0,0,-10.909428,311.49226,110.12492)"/>
<use data-text="0" xlink:href="#font_2_1" transform="matrix(10.909972,0,0,-10.909428,316.9472,110.12492)"/>
<path transform="matrix(1.00008,0,0,-1.00003,36.36223,204.93277)" stroke-width=".3985" stroke-linecap="butt" stroke-miterlimit="10" stroke-linejoin="miter" fill="none" stroke="#000000" d=""/>
<use data-text="P" xlink:href="#font_1_49" transform="matrix(10.909972,0,0,-10.909428,152.92856,291.18739)"/>
<use data-text="i" xlink:href="#font_1_74" transform="matrix(10.909972,0,0,-10.909428,159.02722,291.18739)"/>
<use data-text="z" xlink:href="#font_1_91" transform="matrix(10.909972,0,0,-10.909428,161.86382,291.18739)"/>
<use data-text="z" xlink:href="#font_1_91" transform="matrix(10.909972,0,0,-10.909428,166.40238,291.18739)"/>
<use data-text="a" xlink:href="#font_1_66" transform="matrix(10.909972,0,0,-10.909428,170.94092,291.18739)"/>
<use data-text="T" xlink:href="#font_1_53" transform="matrix(10.909972,0,0,-10.909428,178.9161,291.18739)"/>
<use data-text="o" xlink:href="#font_1_80" transform="matrix(10.909972,0,0,-10.909428,184.13108,291.18739)"/>
<use data-text="p" xlink:href="#font_1_81" transform="matrix(10.909972,0,0,-10.909428,189.58606,291.18739)"/>
<use data-text="p" xlink:href="#font_1_81" transform="matrix(10.909972,0,0,-10.909428,195.29198,291.18739)"/>
<use data-text="i" xlink:href="#font_1_74" transform="matrix(10.909972,0,0,-10.909428,200.9979,291.18739)"/>
<use data-text="n" xlink:href="#font_1_79" transform="matrix(10.909972,0,0,-10.909428,203.8345,291.18739)"/>
<use data-text="g" xlink:href="#font_1_72" transform="matrix(10.909972,0,0,-10.909428,209.71497,291.18739)"/>
<use data-text="F" xlink:href="#font_1_39" transform="matrix(0,-10.909428,-10.909972,-0,9.433075,137.39875)"/>
<use data-text="r" xlink:href="#font_1_83" transform="matrix(0,-10.909428,-10.909972,-0,9.433075,131.90039)"/>
<use data-text="e" xlink:href="#font_1_70" transform="matrix(0,-10.909428,-10.909972,-0,9.433075,128.10391)"/>
<use data-text="q" xlink:href="#font_1_82" transform="matrix(0,-10.909428,-10.909972,-0,9.433075,123.0965)"/>
<use data-text="u" xlink:href="#font_1_86" transform="matrix(0,-10.909428,-10.909972,-0,9.433075,117.40177)"/>
<use data-text="e" xlink:href="#font_1_70" transform="matrix(0,-10.909428,-10.909972,-0,9.433075,111.54341)"/>
<use data-text="n" xlink:href="#font_1_79" transform="matrix(0,-10.909428,-10.909972,-0,9.433075,106.60144)"/>
<use data-text="c" xlink:href="#font_1_68" transform="matrix(0,-10.909428,-10.909972,-0,9.433075,100.72125)"/>
<use data-text="y" xlink:href="#font_1_90" transform="matrix(0,-10.909428,-10.909972,-0,9.433075,96.04111)"/>
<use data-text="F" xlink:href="#font_3_39" transform="matrix(11.956157,0,0,-11.95556,119.27086,10.315933)"/>
<use data-text="a" xlink:href="#font_3_66" transform="matrix(11.956157,0,0,-11.95556,125.89457,10.315933)"/>
<use data-text="v" xlink:href="#font_3_87" transform="matrix(11.956157,0,0,-11.95556,132.06395,10.315933)"/>
<use data-text="o" xlink:href="#font_3_80" transform="matrix(11.956157,0,0,-11.95556,138.55615,10.315933)"/>
<use data-text="r" xlink:href="#font_3_83" transform="matrix(11.956157,0,0,-11.95556,145.32334,10.315933)"/>
<use data-text="i" xlink:href="#font_3_74" transform="matrix(11.956157,0,0,-11.95556,150.35688,10.315933)"/>
<use data-text="t" xlink:href="#font_3_85" transform="matrix(11.956157,0,0,-11.95556,154.08719,10.315933)"/>
<use data-text="e" xlink:href="#font_3_70" transform="matrix(11.956157,0,0,-11.95556,158.31967,10.315933)"/>
<use data-text="P" xlink:href="#font_3_49" transform="matrix(11.956157,0,0,-11.95556,167.37049,10.315933)"/>
<use data-text="i" xlink:href="#font_3_74" transform="matrix(11.956157,0,0,-11.95556,174.52027,10.315933)"/>
<use data-text="z" xlink:href="#font_3_91" transform="matrix(11.956157,0,0,-11.95556,178.2506,10.315933)"/>
<use data-text="z" xlink:href="#font_3_91" transform="matrix(11.956157,0,0,-11.95556,184.03737,10.315933)"/>
<use data-text="a" xlink:href="#font_3_66" transform="matrix(11.956157,0,0,-11.95556,189.82416,10.315933)"/>
<use data-text="T" xlink:href="#font_3_53" transform="matrix(11.956157,0,0,-11.95556,198.98258,10.315933)"/>
<use data-text="o" xlink:href="#font_3_80" transform="matrix(11.956157,0,0,-11.95556,205.4389,10.315933)"/>
<use data-text="p" xlink:href="#font_3_81" transform="matrix(11.956157,0,0,-11.95556,212.20609,10.315933)"/>
<use data-text="p" xlink:href="#font_3_81" transform="matrix(11.956157,0,0,-11.95556,219.20044,10.315933)"/>
<use data-text="i" xlink:href="#font_3_74" transform="matrix(11.956157,0,0,-11.95556,226.19478,10.315933)"/>
<use data-text="n" xlink:href="#font_3_79" transform="matrix(11.956157,0,0,-11.95556,229.92511,10.315933)"/>
<use data-text="g" xlink:href="#font_3_72" transform="matrix(11.956157,0,0,-11.95556,237.0988,10.315933)"/>
<use data-text="s" xlink:href="#font_3_84" transform="matrix(11.956157,0,0,-11.95556,243.80622,10.315933)"/>
</svg>
