<svg xmlns="http://www.w3.org/2000/svg" xmlns:xlink="http://www.w3.org/1999/xlink" xmlns:inkscape="http://www.inkscape.org/namespaces/inkscape" version="1.1" width="334" height="237" viewBox="0 0 334 237">
<defs>
<path id="font_1_1" d="M.45999146 .31976319C.45999146 .39982606 .45498658 .47988893 .41999818 .5539398 .37399293 .65000918 .2919922 .6660156 .25 .6660156 .18998719 .6660156 .116989139 .64001467 .07598877 .54693606 .04399109 .47789 .038986207 .39982606 .038986207 .31976319 .038986207 .24472046 .042999269 .15464783 .083999637 .07859802 .1269989-.0024719239 .19999695-.022460938 .24899292-.022460938 .30299378-.022460938 .3789978-.0014648438 .4229889 .09359741 .45498658 .16265869 .45999146 .2407074 .45999146 .31976319M.24899292-.00047302247C.20999146-.00047302247 .15098572 .024551392 .1329956 .12062073 .12199402 .18066406 .12199402 .2727356 .12199402 .3317871 .12199402 .39582826 .12199402 .46188355 .12998963 .5159149 .14898682 .63500979 .22399903 .64401248 .24899292 .64401248 .28199769 .64401248 .34799195 .6259918 .36698915 .52693179 .3769989 .47088624 .3769989 .39482118 .3769989 .3317871 .3769989 .25672914 .3769989 .18867493 .3659973 .12461853 .35099793 .029556275 .2939911-.00047302247 .24899292-.00047302247Z"/>
<path id="font_1_5" d="M.44898988 .20022583C.44898988 .3193512 .36698915 .41944886 .25898744 .41944886 .21099854 .41944886 .16799927 .40345765 .13198853 .36842347V.5637665C.1519928 .5577698 .18499756 .55078127 .21699524 .55078127 .33999635 .55078127 .4099884 .6417694 .4099884 .6547699 .4099884 .6607666 .40699769 .6657715 .3999939 .6657715 .39898683 .6657715 .39698792 .6657715 .3919983 .66278079 .37199403 .6537781 .32299806 .6337738 .2559967 .6337738 .21598816 .6337738 .16999817 .6407776 .12298584 .6617737 .114990238 .66477969 .11299133 .66477969 .11099243 .66477969 .100997928 .66477969 .100997928 .6567688 .100997928 .6407776V.34439088C.100997928 .32637025 .100997928 .31835938 .114990238 .31835938 .12199402 .31835938 .12399292 .32136537 .12799073 .32736207 .13899231 .3433838 .17599488 .39746095 .25698854 .39746095 .30899049 .39746095 .33399964 .35139466 .34199525 .33337403 .35798646 .29632569 .3600006 .25727845 .3600006 .20722962 .3600006 .17222595 .3600006 .11222839 .33599855 .07035828 .31199647 .031463624 .2749939 .0055389406 .22898865 .0055389406 .1559906 .0055389406 .09899902 .058380128 .08198547 .11723328 .084991458 .1162262 .08799744 .115234378 .09899902 .115234378 .13198853 .115234378 .14898682 .14022827 .14898682 .16423035 .14898682 .18823242 .13198853 .21322632 .09899902 .21322632 .084991458 .21322632 .049987794 .20622254 .049987794 .16023255 .049987794 .07434082 .11898804-.022460938 .23098755-.022460938 .34700013-.022460938 .44898988 .073349 .44898988 .20022583Z"/>
<path id="font_1_2" d="M.2939911 .64004519C.2939911 .66400149 .2939911 .6660156 .2709961 .6660156 .20899964 .60227969 .12098694 .60227969 .08898926 .60227969V.57128909C.10899353 .57128909 .16799927 .57128909 .21998596 .5972748V.07902527C.21998596 .042999269 .21699524 .0309906 .1269989 .0309906H.09498596V0C.12998963 .0029907227 .21699524 .0029907227 .25698854 .0029907227 .29699708 .0029907227 .38398744 .0029907227 .4189911 0V.0309906H.3869934C.29699708 .0309906 .2939911 .041992189 .2939911 .07902527V.64004519Z"/>
<path id="font_1_3" d="M.1269989 .07699585 .23298645 .18003845C.3889923 .31811524 .44898988 .3721466 .44898988 .47216798 .44898988 .5860901 .35899354 .6660156 .23699951 .6660156 .12399292 .6660156 .049987794 .57411196 .049987794 .48516847 .049987794 .4291687 .099990848 .4291687 .102996829 .4291687 .11999512 .4291687 .15499878 .44117738 .15499878 .48217774 .15499878 .5081787 .13699341 .5341797 .101989749 .5341797 .09399414 .5341797 .09199524 .5341797 .08898926 .5331726 .11199951 .59806826 .1659851 .63500979 .22399903 .63500979 .31498719 .63500979 .35798646 .5541382 .35798646 .47216798 .35798646 .39215089 .30799867 .31311036 .25299073 .25108338L.06098938 .036987306C.049987794 .025985718 .049987794 .023986817 .049987794 0H.42099L.44898988 .17404175H.42399598C.4189911 .14402771 .4119873 .1000061 .4019928 .084991458 .394989 .07699585 .32899476 .07699585 .30699159 .07699585H.1269989Z"/>
<path id="font_1_4" d="M.2939911 .16503906V.07800293C.2939911 .041992189 .2919922 .0309906 .21798706 .0309906H.19699097V0C.23799134 .0029907227 .2899933 .0029907227 .33198548 .0029907227 .37399293 .0029907227 .4269867 .0029907227 .46798707 0V.0309906H.44699098C.37298585 .0309906 .37098695 .041992189 .37098695 .07800293V.16503906H.47099305V.19602967H.37098695V.65075686C.37098695 .67074587 .37098695 .6767578 .35499574 .6767578 .34599305 .6767578 .34298707 .6767578 .33499146 .66474917L.027999878 .19602967V.16503906H.2939911M.2999878 .19602967H.055999757L.2999878 .5688019V.19602967Z"/>
<path id="font_1_6" d="M.13198853 .327713V.35173036C.13198853 .6047821 .2559967 .64100649 .30699159 .64100649 .33099366 .64100649 .37298585 .634964 .394989 .6007538 .37998963 .6007538 .33999635 .6007538 .33999635 .5557556 .33999635 .524765 .3639984 .5097656 .38598634 .5097656 .4019928 .5097656 .43199159 .51875308 .43199159 .5577545 .43199159 .6178589 .3880005 .6660156 .30499269 .6660156 .1769867 .6660156 .041992189 .5367584 .041992189 .31570436 .041992189 .048553468 .1579895-.022460938 .25099183-.022460938 .3619995-.022460938 .45700074 .07156372 .45700074 .2036438 .45700074 .33070375 .36799623 .4267578 .25698854 .4267578 .18899536 .4267578 .1519928 .37573243 .13198853 .327713M.25099183 .0055389406C.18798828 .0055389406 .1579895 .06556702 .1519928 .080566409 .13398743 .127594 .13398743 .2076416 .13398743 .22564698 .13398743 .30369569 .1659851 .40374757 .2559967 .40374757 .27198792 .40374757 .31799317 .40374757 .34899903 .34172059 .36698915 .30470277 .36698915 .2536621 .36698915 .20463562 .36698915 .15661621 .36698915 .10658264 .34999085 .0705719 .31999208 .010528564 .27398683 .0055389406 .25099183 .0055389406Z"/>
<path id="font_1_7" d="M.16299439 .4569702C.116989139 .486969 .11299133 .52098086 .11299133 .5379791 .11299133 .598999 .17799378 .64100649 .24899292 .64100649 .32199098 .64100649 .38598634 .58898928 .38598634 .51698306 .38598634 .45996095 .34700013 .4119568 .2869873 .37695313L.16299439 .4569702M.30899049 .36193849C.3809967 .3989563 .42999269 .45095826 .42999269 .51698306 .42999269 .6090088 .34098817 .6660156 .25 .6660156 .1499939 .6660156 .068984989 .59199526 .068984989 .49897767 .068984989 .4809723 .070999149 .43595887 .11299133 .38894654 .12399292 .37695313 .16099549 .35194398 .18598938 .33494569 .12799073 .30592347 .041992189 .24984741 .041992189 .15072632 .041992189 .04458618 .14399719-.022460938 .24899292-.022460938 .3619995-.022460938 .45700074 .06060791 .45700074 .16773987 .45700074 .20379639 .44599916 .24885559 .4079895 .2909088 .3889923 .31193543 .37298585 .3219452 .30899049 .36193849M.20899964 .3199463 .33198548 .24183655C.3600006 .2228241 .40699769 .19277954 .40699769 .13169861 .40699769 .05760193 .33198548 .0055389406 .25 .0055389406 .1639862 .0055389406 .09199524 .067611698 .09199524 .15072632 .09199524 .20880127 .12399292 .27288819 .20899964 .3199463Z"/>
<path id="font_2_36" d="M.37998963 .6582031C.21099854 .6582031 .051986696 .51220706 .051986696 .31521607 .051986696 .14222718 .15098572-.009765625 .3659973-.009765625 .45838929-.009765625 .5452881 .018920899 .61209109 .09971619 .611496 .11122131 .6094971 .13322449 .60598757 .14222718L.598999 .1452179C.5279999 .067230228 .46798707 .041229249 .375 .041229249 .24819947 .041229249 .15499878 .17822266 .15499878 .33421327 .15499878 .5372009 .28399659 .6111908 .3659973 .6111908 .45599366 .6111908 .5289917 .5751953 .56999209 .49319459L.58200076 .49420167C.58558657 .54519656 .58898928 .56269839 .59999087 .6051941L.59799197 .6082001C.59799197 .6082001 .5019989 .6582031 .37998963 .6582031Z"/>
<path id="font_2_77" d="M.08999634 .20011902C.08999634 .1255951 .08848572 .05357361 .08099365 .000061035159L.08299255-.0029296876C.09498596-.00093078616 .117996219 .000061035159 .12998963 .000061035159 .14199829 .000061035159 .16499329-.00093078616 .1769867-.0029296876L.1789856 .000061035159C.17118836 .05708313 .16999817 .12489319 .16999817 .20011902V.5001831C.16999817 .5751953 .17428589 .62490847 .1789856 .6882324 .1789856 .6952362 .17630005 .6982422 .16999817 .6982422 .14489746 .6882324 .12348938 .68122866 .08299255 .67822268L.08099365 .67523196C.08869934 .6325226 .08999634 .558197 .08999634 .48217774V.20011902Z"/>
<path id="font_2_66" d="M.30999757 .2253418 .30599977 .10626221C.30599977 .09326172 .2999878 .086257938 .2919922 .08024597 .2639923 .05923462 .22999573 .041229249 .19999695 .041229249 .15499878 .041229249 .12599182 .071243289 .12599182 .102264408 .12599182 .14729309 .14698792 .18132019 .22499085 .20233155L.30999757 .2253418M.3100891 .048233034C.32148744 .009124756 .35139466-.009765625 .3880005-.009765625 .41319276-.009765625 .44400025-.003768921 .46759034 .021224976L.46018983 .045928956C.44929505 .042129518 .4407959 .040725709 .43319703 .040725709 .42329408 .040725709 .4099884 .042633058 .40390016 .048233034 .39369203 .057540895 .38719178 .08175659 .38719178 .12628174 .38719178 .15530396 .3899994 .26635743 .3899994 .27737428 .3899994 .41244508 .30099488 .43943788 .22499085 .43943788 .14898682 .43943788 .102996829 .40245057 .07798767 .3814392L.07499695 .37742616 .09199524 .3103943 .10499573 .3093872C.1329956 .3544159 .16699219 .3944397 .21499634 .3944397 .25099183 .3944397 .31098939 .3894348 .31098939 .2763672 .31098939 .2693634 .30699159 .2653656 .3039856 .26435853L.21099854 .24334717C.10899353 .22033692 .04499817 .16630554 .04499817 .0982666 .04499817 .024230957 .09599304-.009780884 .16999817-.009780884 .22499085-.009780884 .25299073 .0032196046 .30599977 .048233034H.3100891Z"/>
<path id="font_2_84" d="M.049987794 .10127258 .032989503 .017227173C.08999634-.0027770997 .1459961-.009765625 .18399048-.009765625 .32199098-.009765625 .35398866 .072250369 .35398866 .12728882 .35398866 .20933533 .2889862 .24134827 .21798706 .25836183 .18019104 .2674713 .125 .28637696 .125 .33641053 .125 .3774414 .1579895 .39944459 .20098877 .39944459 .25299073 .39944459 .2849884 .35842896 .30799867 .33140565L.32199098 .33241273 .34199525 .40644837 .33999635 .4094391C.31098939 .42443849 .2559967 .43945313 .20498657 .43945313 .1309967 .43945313 .053985597 .40045167 .053985597 .31739808 .053985597 .23735047 .11369324 .2109375 .17399597 .19432068 .23199463 .17831421 .2749939 .16230774 .2749939 .11328125 .2749939 .0602417 .23599243 .030227662 .18299866 .030227662 .1349945 .030227662 .09298706 .06324768 .06498718 .102264408L.049987794 .10127258Z"/>
<path id="font_2_39" d="M.40699769 .64453127H.14698792C.11299133 .64453127 .09599304 .647522 .09599304 .647522L.09399414 .64453127C.101989749 .5875244 .10398865 .5194855 .10398865 .44444276V.199646C.10398865 .124801639 .101989749 .05393982 .09399414 .000061035159L.09498596-.0029296876C.09498596-.0029296876 .11199951 .000061035159 .14698792 .000061035159 .18099976 .000061035159 .19799805-.0029296876 .19799805-.0029296876L.19999695 .000061035159C.19198609 .0569458 .18998719 .124801639 .18998719 .199646V.31640626C.23799134 .31640626 .34399415 .31340028 .41299439 .306427L.41600038 .30941773C.4139862 .31840516 .41299439 .33239747 .41299439 .34140016 .41299439 .35040284 .4139862 .36439515 .41600038 .37339784L.41299439 .3764038C.35398866 .37139894 .30799867 .36639405 .18998719 .36639405V.44444276C.18998719 .4614563 .19099427 .56451418 .19799805 .58851626 .33198548 .58851626 .46998597 .5765228 .46998597 .5765228L.47200013 .58052065C.47099305 .58851626 .46998597 .6015167 .46998597 .6105194 .46998597 .6185303 .47099305 .6305237 .47200013 .64453127L.46998597 .647522C.45399476 .6455231 .43099977 .64453127 .40699769 .64453127Z"/>
<path id="font_2_83" d="M.16699219 .33441163V.42544557C.16699219 .43315126 .16569519 .43544007 .16099549 .43544007 .13848877 .43093873 .10269165 .43014527 .07998657 .43244935L.07798767 .42944337C.084991458 .38613893 .08699036 .31037904 .08699036 .23530579V.18025208C.08699036 .10517883 .08580017 .05392456 .07798767 .000061035159L.07998657-.0029296876C.09199524-.00093078616 .114990238 .000061035159 .1269989 .000061035159 .13899231 .000061035159 .1619873-.00093078616 .17399597-.0029296876L.17599488 .000061035159C.16848755 .057128908 .16699219 .10417175 .16699219 .18025208V.2322998C.16699219 .27435304 .17948914 .29837037 .20098877 .33140565 .21549988 .35372926 .23799134 .36643983 .25698854 .36643983 .2769928 .36643983 .29599 .36444093 .30899049 .35243226L.31698609 .35443116 .33699037 .42845155 .33299256 .43244935C.31599427 .43743897 .31498719 .43945313 .29699708 .43945313 .24299622 .43945313 .21398926 .40844728 .16999817 .33241273L.16699219 .33441163Z"/>
<path id="font_2_70" d="M.125 .27339173C.14199829 .3774414 .20748902 .39944459 .23899842 .39944459 .27848817 .39944459 .32299806 .36242677 .32299806 .2873993 .32299806 .2783966 .31900025 .27339173 .30899049 .27339173H.125M.3919983 .104278568C.35699464 .0662384 .30999757 .049224855 .25498963 .049224855 .22079468 .049224855 .17349243 .0622406 .1459961 .106277469 .12838745 .13439942 .12199402 .17524719 .12199402 .23339844H.3939972C.40499879 .23339844 .4119873 .23939514 .4119873 .25039674 .4119873 .33441163 .37098695 .43945313 .23899842 .43945313 .13598633 .43945313 .033996583 .35643006 .033996583 .20936585 .033996583 .15261841 .04548645 .096466068 .07899475 .056228639 .11338806 .014923096 .17059326-.009765625 .23799134-.009765625 .30999757-.009765625 .37399293 .02722168 .4119873 .07925415L.3919983 .104278568Z"/>
<path id="font_2_82" d="M.35699464 .37643434C.35699464 .37643434 .3600006 .33441163 .3600006 .23434448V.0662384C.33399964 .04623413 .2849884 .034225465 .2659912 .034225465 .20799256 .034225465 .13699341 .07624817 .13699341 .2273407 .13699341 .33140565 .18899536 .39944459 .2630005 .39944459 .3066864 .39944459 .33529664 .3944397 .35699464 .37643434M.3659973 .43244935C.3479004 .43544007 .29100038 .43945313 .25698854 .43945313 .14099121 .43945313 .04899597 .3484192 .04899597 .21633911 .04899597 .111968997 .10398865-.009765625 .24198914-.009765625 .29899598-.009765625 .34498597 .010223389 .3600006 .023223877V-.031829835C.3600006-.10601807 .35949708-.17871094 .35099793-.23234558L.35299684-.23535156C.35299684-.23535156 .36499024-.23234558 .3999939-.23234558 .43429566-.23234558 .44699098-.23535156 .44699098-.23535156L.44898988-.23234558C.44049073-.17520142 .43998719-.10722351 .43998719-.031829835V.23535156C.43998719 .3103943 .44198609 .38613893 .44898988 .42944337L.44699098 .43244935C.4242859 .43014527 .3842926 .42944337 .3659973 .43244935Z"/>
<path id="font_2_86" d="M.36499024 .09196472 .36898805 .088974 .37399293 .000061035159C.37399293-.0019378662 .37519837-.0029296876 .37799073-.0029296876 .3912964-.0012359619 .40299989 .000061035159 .41749574 .000061035159 .4300995 .000061035159 .44898988-.0009460449 .46199037-.0029296876L.46398927 .000061035159C.45599366 .043014528 .44699098 .11694336 .44699098 .19186402V.24880982C.44699098 .32374574 .44799806 .37568666 .45599366 .42863465L.45399476 .43164063C.44198609 .42964173 .4189911 .42863465 .40699769 .42863465 .394989 .42863465 .37199403 .42964173 .3600006 .43164063L.35798646 .42863465C.36579896 .37149049 .36698915 .32473756 .36698915 .24880982V.15090943C.33648683 .09963989 .2789917 .04623413 .22999573 .04623413 .1954956 .04623413 .16299439 .0572052 .16299439 .15007019V.24891663C.16299439 .32380677 .1639862 .37571717 .17199707 .42863465L.16999817 .43164063C.1579895 .42964173 .1349945 .42863465 .12298584 .42863465 .11099243 .42863465 .08799744 .42964173 .07598877 .43164063L.07398987 .42863465C.08198547 .37173463 .08299255 .32479859 .08299255 .24891663V.12910462C.08299255 .06021118 .114990238-.009765625 .21398926-.009765625 .27598573-.009765625 .33198548 .041229249 .36499024 .092163089V.09196472Z"/>
<path id="font_2_79" d="M.45999146 .18025208C.45999146 .21228028 .46199037 .24931336 .46199037 .28134156 .46199037 .38545228 .42799378 .43945313 .33799745 .43945313 .2999878 .43945313 .22898865 .42443849 .16499329 .349411L.16299439 .352417V.42544557C.16279602 .43315126 .16169739 .43544007 .15699768 .43544007 .13449097 .43093873 .09869385 .43014527 .07598877 .43244935L.07398987 .42944337C.08099365 .38613893 .08299255 .31037904 .08299255 .23530579V.18025208C.08299255 .105163577 .08198547 .054122926 .07398987 .000061035159L.07598877-.0029296876C.08799744-.00093078616 .11099243 .000061035159 .12298584 .000061035159 .1349945 .000061035159 .1579895-.00093078616 .16999817-.0029296876L.17199707 .000061035159C.1639862 .057128908 .16299439 .10417175 .16299439 .18025208V.29736329C.21398926 .35742188 .27198792 .3794403 .30799867 .3794403 .35899354 .3794403 .37998963 .35942079 .37998963 .27835084V.18025208C.37998963 .105163577 .3781891 .05392456 .37098695 .000061035159L.37298585-.0029296876C.3849945-.00093078616 .4079895 .000061035159 .41999818 .000061035159 .43199159 .000061035159 .45498658-.00093078616 .46699525-.0029296876L.46899415 .000061035159C.4611969 .057128908 .45999146 .10417175 .45999146 .18025208Z"/>
<path id="font_2_68" d="M.25 .39944459C.28849793 .39944459 .32348634 .3709259 .34999085 .32540895L.36299134 .32640077 .38598634 .40844728 .38398744 .411438C.35299684 .42744447 .30099488 .43945313 .25099183 .43945313 .14698792 .43945313 .037994386 .3544159 .037994386 .21833802 .037994386 .07914734 .116989139-.009765625 .23899842-.009765625 .29899598-.009765625 .34599305 .010223389 .38598634 .06123352L.36698915 .08226013H.36299134C.32499696 .048233034 .29319764 .040222169 .2559967 .040222169 .18299866 .040222169 .12599182 .10626221 .12599182 .2233429 .12599182 .33340455 .18399048 .39944459 .25 .39944459Z"/>
<path id="font_2_90" d="M.027999878 .43164063C.0677948 .34283448 .18659973 .08476257 .22200012-.0103302 .18998719-.08502197 .14918518-.16201782 .10398865-.23730469 .11399841-.23431397 .1289978-.23231507 .13899231-.23231507 .14898682-.23231507 .17799378-.23431397 .18798828-.23730469 .22599793-.11231995 .44499208 .36463929 .47799684 .43164063 .46798707 .42863465 .44499208 .42863465 .43499757 .42863465 .4249878 .42863465 .4059906 .42863465 .3959961 .43164063 .3600006 .31863404 .31329347 .19085694 .2646942 .087265018H.2626953C.21348572 .20614624 .1663971 .31744386 .1289978 .43164063 .115997318 .42863465 .09399414 .42863465 .07998657 .42863465 .066986087 .42863465 .041992189 .42863465 .027999878 .43164063Z"/>
<path id="font_3_41" d="M.5269928 .4453125V.36328126H.23699951V.4453125C.23699951 .5203552 .24099732 .5924072 .24899292 .6454315L.24798584 .6484375C.24798584 .6484375 .19999695 .6454315 .16499329 .6454315 .1309967 .6454315 .08299255 .6484375 .08299255 .6484375L.08099365 .6454315C.08898926 .58839419 .09298706 .5203552 .09298706 .4453125V.20019531C.09298706 .12515259 .08898926 .054107667 .08099365 .000061035159L.08198547-.0029296876C.08198547-.0029296876 .12998963 .000061035159 .16499329 .000061035159 .19898987 .000061035159 .24699402-.0029296876 .24699402-.0029296876L.24899292 .000061035159C.24099732 .05709839 .23699951 .12515259 .23699951 .20019531V.3112793H.5269928V.20019531C.5269928 .12515259 .522995 .054107667 .5149994 .000061035159L.5159912-.0029296876C.5159912-.0029296876 .56399539 .000061035159 .598999 .000061035159 .6329956 .000061035159 .68099978-.0029296876 .68099978-.0029296876L.68299868 .000061035159C.6749878 .05709839 .67099 .12515259 .67099 .20019531V.4453125C.67099 .5203552 .6749878 .5924072 .68299868 .6454315L.6819916 .6484375C.6819916 .6484375 .6339874 .6454315 .598999 .6454315 .5649872 .6454315 .5169983 .6484375 .5169983 .6484375L.5149994 .6454315C.522995 .58839419 .5269928 .5203552 .5269928 .4453125Z"/>
<path id="font_3_74" d="M.084991458 .606781C.084991458 .56877139 .115997318 .53778079 .1559906 .53778079 .19599915 .53778079 .22698975 .56877139 .22698975 .606781 .22698975 .6447754 .19599915 .67578127 .1559906 .67578127 .115997318 .67578127 .084991458 .6447754 .084991458 .606781M.08999634 .23483277V.17988587C.08999634 .10494995 .08799744 .054000856 .07998657 .000061035159L.08198547-.0029296876C.10269165-.00064086916 .12098694 .000061035159 .1559906 .000061035159 .18998719 .000061035159 .21128845-.0009460449 .22999573-.0029296876L.23199463 .000061035159C.22399903 .057006837 .22200012 .10395813 .22200012 .17988587V.24581909C.22200012 .32073976 .22569275 .3637085 .23199463 .42364503 .23199463 .43063355 .22898865 .43363954 .22299195 .43363954 .20928955 .43164063 .18199158 .42863465 .1539917 .42863465 .12799073 .42863465 .10069275 .43034364 .08299255 .43164063L.07998657 .42764283C.08799744 .38468934 .08999634 .30975343 .08999634 .23483277Z"/>
<path id="font_3_84" d="M.053985597 .11328125 .037994386 .01727295C.09199524-.0027770997 .1579895-.009765625 .19400025-.009765625 .32398988-.009765625 .3789978 .053237916 .3789978 .122283939 .3789978 .21243286 .30799867 .24035645 .23699951 .27838136 .20439148 .29588319 .1769867 .31340028 .1769867 .3454132 .1769867 .37342835 .18699646 .3944397 .22599793 .3944397 .2749939 .3944397 .3039856 .3474121 .31698609 .31939698L.34399415 .32040406 .36299134 .41044618 .36099244 .41345216C.33399964 .42845155 .27598573 .43945313 .22799683 .43945313 .13798523 .43945313 .05899048 .39544679 .05899048 .31840516 .05899048 .24835205 .10809326 .21253968 .16499329 .18132019 .23799134 .14129639 .2599945 .12327576 .2599945 .08325195 .2599945 .036224367 .22898865 .034225465 .19099427 .034225465 .15589905 .034225465 .11399841 .056243898 .083999637 .11427307L.053985597 .11328125Z"/>
<path id="font_3_85" d="M.08999634 .42871095C.069488529 .4288025 .04838562 .4300995 .035995485 .43170167 .03048706 .41470338 .0236969 .3986969 .01399231 .3836975L.018997193 .37670899C.036193849 .37800599 .06719971 .37860108 .08999634 .3787079L.08699036 .2609558C.085494998 .20103455 .083999637 .118133548 .083999637 .08818054 .083999637 .041229249 .116989139-.009780884 .18099976-.009780884 .23298645-.009780884 .2849884-.00077819827 .32798768 .025222779 .32798768 .041229249 .32199098 .05621338 .31098939 .063201908 .2889862 .052230836 .2789917 .051223756 .25299073 .051223756 .22599793 .051223756 .21598816 .09017944 .21598816 .13111878 .21598816 .16108704 .2158966 .21202088 .21699524 .27194215L.21899414 .3787079H.25698854C.2809906 .3787079 .3156891 .37800599 .32899476 .37670899 .3304901 .39170838 .33499146 .40899659 .34098817 .42370606L.33599855 .43170167C.31739808 .4300995 .2889862 .42869569 .2659912 .42869569H.21899414C.21899414 .48469544 .21949768 .5146942 .22399903 .56770327 .22399903 .57470706 .22099304 .57769778 .21499634 .57769778 .18998719 .56770327 .13598633 .5417023 .09599304 .5326996L.09399414 .52970889C.09069824 .503006 .08999634 .46839906 .08999634 .42871095Z"/>
<path id="font_3_80" d="M.040985109 .20533753C.040985109 .072250369 .13398743-.009765625 .2829895-.009765625 .43598939-.009765625 .5249939 .076049808 .5249939 .21434021 .5249939 .34040834 .45399476 .43945313 .2849884 .43945313 .14199829 .43945313 .040985109 .36042787 .040985109 .20533753M.27799989 .38945008C.36299134 .38945008 .3829956 .32640077 .3829956 .1873169 .3829956 .072250369 .34199525 .040222169 .29699708 .040222169 .19299317 .040222169 .18299866 .1512909 .18299866 .22834778 .18299866 .31539918 .19198609 .38945008 .27799989 .38945008Z"/>
<path id="font_3_72" d="M.45899964 .28952027C.45899964 .32398988 .43899537 .36506654 .40789796 .38604737 .43769837 .38555909 .4741974 .3798523 .5089874 .37745667L.5119934 .38046266C.5099945 .38945008 .5089874 .3984375 .5089874 .4074402 .5089874 .41644288 .5099945 .42744447 .5119934 .43644715L.5089874 .43943788C.4611969 .4353485 .39788819 .43473817 .32328797 .43084718 .3053894 .43644715 .27249146 .43943788 .25099183 .43943788 .14299011 .43943788 .053985597 .38145448 .053985597 .28552247 .053985597 .22955323 .08279419 .20158386 .10848999 .18359375 .123291019 .17318726 .147995 .16558838 .147995 .16558838L.1459961 .16059876C.101486209 .14559937 .05899048 .107299808 .05899048 .074417117 .05899048 .03239441 .08248901 .0048828127 .13798523-.003616333 .11639404-.017211914 .07798767-.031661989 .053985597-.045715333 .036987306-.06781006 .03199768-.099121097 .03199768-.12402344 .03199768-.21128845 .13578797-.23829651 .22499085-.23829651 .29029847-.23829651 .36608888-.23048401 .4264984-.2007904 .4854889-.17170716 .5299988-.121414188 .5299988-.06781006 .5299988 .04638672 .40299989 .06639099 .31098939 .06639099 .2939911 .06639099 .2709961 .06439209 .24798584 .06138611 .23399353 .05960083 .23399353 .05857849 .22898865 .05857849 .20098877 .05857849 .17098999 .06364441 .17098999 .107177738 .17098999 .12347412 .17149353 .1355133 .18249512 .15258789 .1967926 .14659119 .22389221 .1415863 .2579956 .1415863 .37399293 .1415863 .45899964 .19648743 .45899964 .28952027M.32598878 .28851319C.32598878 .21757508 .3059845 .18159485 .2579956 .18159485 .19699097 .18159485 .18699646 .21757508 .18699646 .29051209 .18699646 .35647584 .20298767 .39944459 .25498963 .39944459 .31498719 .39944459 .32598878 .36346437 .32598878 .28851319M.18299866-.015823365C.18939209-.017211914 .19699097-.018417359 .20599365-.018417359 .23548889-.017608643 .26219178-.016616822 .27598573-.016616822 .33198548-.016616822 .3999939-.02142334 .3999939-.09089661 .3999939-.15213013 .33898927-.19328308 .25299073-.19328308 .21899414-.19328308 .15098572-.1722107 .15098572-.10394287 .15098572-.07072449 .15699768-.04270935 .18299866-.015609741V-.015823365Z"/>
<path id="font_3_83" d="M.22499085 .34944154 .22079468 .3524475C.22079468 .37524415 .21949768 .4169464 .21798706 .42544557 .21679688 .43234254 .21528626 .43544007 .20899964 .43544007 .17999268 .43074037 .114990238 .43074037 .07998657 .43244935L.07798767 .42944337C.08569336 .38674928 .08898926 .31010438 .08898926 .23532105V.18026734C.08898926 .10517883 .08699036 .054122926 .07899475 .000061035159L.07998657-.0029296876C.07998657-.0029296876 .11199951 .000061035159 .14698792 .000061035159 .18099976 .000061035159 .22898865-.0029296876 .22898865-.0029296876L.23098755 .000061035159C.22299195 .057128908 .22099304 .10418701 .22099304 .18026734V.25334168C.22099304 .3308258 .28988648 .34243775 .30499269 .34243775 .32398988 .34243775 .34498597 .33743287 .36299134 .3234253L.3809967 .3254242 .40098573 .42845155 .39698792 .43244935C.37998963 .43743897 .3639984 .43945313 .34599305 .43945313 .29899598 .43945313 .25099183 .388443 .22499085 .34944154Z"/>
<path id="font_3_66" d="M.31098939 .22233582 .30899049 .12927246C.30899049 .11627197 .30108644 .09135437 .2939911 .084243778 .2709961 .06123352 .24798584 .050231935 .21998596 .050231935 .18998719 .050231935 .16799927 .08024597 .16799927 .10726929 .16799927 .14338684 .18078614 .18811035 .23098755 .20132447L.31098939 .22233582M.43699647 .08024597C.43699647 .10926819 .44099427 .26637269 .44099427 .27737428 .44099427 .33750917 .42858888 .3747406 .40098573 .3995514 .3692932 .427948 .3090973 .43945313 .26098634 .43945313 .18899536 .43945313 .09298706 .4074402 .068984989 .3864441L.06599426 .3824463 .085998538 .3073883 .11898804 .30639649C.15299988 .35643006 .19699097 .38545228 .24198914 .38545228 .28599549 .38545228 .31098939 .36053468 .31098939 .28338624 .31098939 .27638246 .30799867 .27236939 .30499269 .27137757L.18798828 .24035645C.09199524 .21733094 .033996583 .16630554 .033996583 .09825134 .033996583 .029220581 .100997928-.009765625 .17098999-.009765625 .21009827-.009765625 .2630005 .0032196046 .30799867 .048233034H.30999757C.32398988 .007232666 .34599305-.009765625 .3889923-.009765625 .42808534-.009765625 .47799684 .00022888184 .5079956 .023223877 .5066986 .031921388 .5039978 .039230348 .49798585 .04421997 .45799256 .04421997 .43699647 .047225954 .43699647 .08024597Z"/>
<path id="font_3_78" d="M.21598816 .34942628 .21179199 .35243226C.21179199 .37524415 .210495 .4169464 .20899964 .42544557 .20779419 .43234254 .20629883 .43544007 .19999695 .43544007 .17098999 .43074037 .10598755 .43074037 .070999149 .43244935L.068984989 .42944337C.076690677 .38674928 .07998657 .3100891 .07998657 .23530579V.18025208C.07998657 .10517883 .07598877 .054122926 .067993167 .000061035159L.068984989-.0029296876C.068984989-.0029296876 .11099243 .000061035159 .1459961 .000061035159 .17999268 .000061035159 .21998596-.0029296876 .21998596-.0029296876L.22200012 .000061035159C.21398926 .057128908 .21199036 .10417175 .21199036 .18025208V.2813568C.2539978 .33241273 .2899933 .36244203 .31799317 .36244203 .35598756 .36244203 .3769989 .34843446 .3769989 .2813568V.18025208C.3769989 .10517883 .37298585 .054122926 .36499024 .000061035159L.3659973-.0029296876C.3659973-.0029296876 .41099549 .000061035159 .44599916 .000061035159 .47999574 .000061035159 .5189972-.0029296876 .5189972-.0029296876L.5209961 .000061035159C.5130005 .057128908 .5089874 .10417175 .5089874 .18025208V.26834107C.5089874 .2823639 .5089874 .2863617 .5079956 .29837037 .55599978 .35142518 .5779877 .36244203 .61698916 .36244203 .6489868 .36244203 .6719971 .34042359 .6719971 .27334596V.18025208C.6719971 .10517883 .66799929 .054122926 .6599884 .000061035159L.6609955-.0029296876C.6609955-.0029296876 .70599368 .000061035159 .7409973 .000061035159 .7749939 .000061035159 .81399539-.0029296876 .81399539-.0029296876L.81599429 .000061035159C.80799868 .057128908 .80400088 .10417175 .80400088 .18025208V.280365C.80400088 .3804474 .7689972 .43945313 .6609955 .43945313 .61099246 .43945313 .5589905 .41944886 .5019989 .35943605 .48199464 .4094391 .45458985 .43945313 .36499024 .43945313 .31599427 .43945313 .2539978 .39845277 .21598816 .34942628Z"/>
<path id="font_3_36" d="M.4139862 .6582031C.32299806 .6582031 .23849488 .6329956 .17599488 .584198 .097091678 .5225067 .051986696 .42010499 .051986696 .31021119 .051986696 .20521546 .09599304 .10122681 .1749878 .048233034 .23509217 .0079193119 .29519654-.009780884 .37998963-.009780884 .4691925-.009780884 .568985 .018218995 .6529999 .10522461L.6289978 .13922119C.5539856 .067230228 .49899293 .050231935 .4059906 .050231935 .29699708 .050231935 .21499634 .15901184 .21499634 .32920838 .21499634 .53219607 .32499696 .6031952 .40699769 .6031952 .49699403 .6031952 .5499878 .561203 .59098818 .47920228L.62098696 .4801941C.624588 .5312042 .62919619 .5608978 .6409912 .610199L.6389923 .6131897C.6389923 .6131897 .5359955 .6582031 .4139862 .6582031Z"/>
</defs>
<path transform="matrix(1.00002,0,0,-1,33.28675,204.92801)" stroke-width=".3985" stroke-linecap="butt" stroke-miterlimit="10" stroke-linejoin="miter" fill="none" stroke="#bfbfbf" d="M0 0H295.32884M0 30.32368H295.32884M0 60.64737H295.32884M0 90.97107H295.32884M0 121.29475H295.32884M0 151.61844H295.32884M0 181.94214H295.32884"/>
<path transform="matrix(1.00002,0,0,-1,33.28675,204.92801)" stroke-width=".19925" stroke-linecap="butt" stroke-miterlimit="10" stroke-linejoin="miter" fill="none" stroke="#7f807f" d="M0-4.25218V0M59.06577-4.25218V0M118.13153-4.25218V0M177.1973-4.25218V0M236.26306-4.25218V0M295.32884-4.25218V0"/>
<path transform="matrix(1.00002,0,0,-1,33.28675,204.92801)" stroke-width=".19925" stroke-linecap="butt" stroke-miterlimit="10" stroke-linejoin="miter" fill="none" stroke="#7f807f" d="M0 0H4.25246M0 30.32368H4.25246M0 60.64737H4.25246M0 90.97107H4.25246M0 121.29475H4.25246M0 151.61844H4.25246M0 181.94214H4.25246"/>
<path transform="matrix(1.00002,0,0,-1,33.28675,204.92801)" stroke-width=".3985" stroke-linecap="butt" stroke-miterlimit="10" stroke-linejoin="miter" fill="none" stroke="#000000" d="M0 0H295.32884"/>
<path transform="matrix(1.00002,0,0,-1,33.28675,204.92801)" stroke-width=".3985" stroke-linecap="butt" stroke-miterlimit="10" stroke-linejoin="miter" fill="none" stroke="#000000" d="M0 0V181.94214"/>
<use data-text="0" xlink:href="#font_1_1" transform="matrix(9.962799,0,0,-9.9626,30.7957,219.436)"/>
<use data-text="5" xlink:href="#font_1_5" transform="matrix(9.962799,0,0,-9.9626,89.862888,219.436)"/>
<use data-text="1" xlink:href="#font_1_2" transform="matrix(9.962799,0,0,-9.9626,146.43903,219.436)"/>
<use data-text="0" xlink:href="#font_1_1" transform="matrix(9.962799,0,0,-9.9626,151.42041,219.436)"/>
<use data-text="1" xlink:href="#font_1_2" transform="matrix(9.962799,0,0,-9.9626,205.5062,219.436)"/>
<use data-text="5" xlink:href="#font_1_5" transform="matrix(9.962799,0,0,-9.9626,210.4876,219.436)"/>
<use data-text="2" xlink:href="#font_1_3" transform="matrix(9.962799,0,0,-9.9626,264.5734,219.436)"/>
<use data-text="0" xlink:href="#font_1_1" transform="matrix(9.962799,0,0,-9.9626,269.5548,219.436)"/>
<use data-text="2" xlink:href="#font_1_3" transform="matrix(9.962799,0,0,-9.9626,323.63957,219.436)"/>
<use data-text="5" xlink:href="#font_1_5" transform="matrix(9.962799,0,0,-9.9626,328.62098,219.436)"/>
<use data-text="0" xlink:href="#font_1_1" transform="matrix(9.962799,0,0,-9.9626,24.469574,208.138)"/>
<use data-text="2" xlink:href="#font_1_3" transform="matrix(9.962799,0,0,-9.9626,24.469574,177.815)"/>
<use data-text="4" xlink:href="#font_1_4" transform="matrix(9.962799,0,0,-9.9626,24.469574,147.49102)"/>
<use data-text="6" xlink:href="#font_1_6" transform="matrix(9.962799,0,0,-9.9626,24.469574,117.16701)"/>
<use data-text="8" xlink:href="#font_1_7" transform="matrix(9.962799,0,0,-9.9626,24.469574,86.84301)"/>
<use data-text="1" xlink:href="#font_1_2" transform="matrix(9.962799,0,0,-9.9626,19.488472,56.520006)"/>
<use data-text="0" xlink:href="#font_1_1" transform="matrix(9.962799,0,0,-9.9626,24.469872,56.520006)"/>
<use data-text="1" xlink:href="#font_1_2" transform="matrix(9.962799,0,0,-9.9626,19.488472,26.196015)"/>
<use data-text="2" xlink:href="#font_1_3" transform="matrix(9.962799,0,0,-9.9626,24.469872,26.196015)"/>
<path transform="matrix(1.00002,0,0,-1,33.28675,204.92801)" d="M0 0H59.06577V60.64737H0ZM59.06577 0H118.13154V106.1329H59.06577ZM118.13153 0H177.1973V166.78029H118.13153ZM177.1973 0H236.26306V90.97107H177.1973ZM236.26306 0H295.32884V60.64737H236.26306Z" fill="#1175a7"/>
<path transform="matrix(1.00002,0,0,-1,33.28675,204.92801)" stroke-width=".3985" stroke-linecap="butt" stroke-miterlimit="10" stroke-linejoin="miter" fill="none" stroke="#bfbfbf" d="M0 0H59.06577V60.64737H0ZM59.06577 0H118.13154V106.1329H59.06577ZM118.13153 0H177.1973V166.78029H118.13153ZM177.1973 0H236.26306V90.97107H177.1973ZM236.26306 0H295.32884V60.64737H236.26306Z"/>
<use data-text="C" xlink:href="#font_2_36" transform="matrix(10.909318,0,0,-10.9091,168.94248,234.52101)"/>
<use data-text="l" xlink:href="#font_2_77" transform="matrix(10.909318,0,0,-10.9091,176.32807,234.52101)"/>
<use data-text="a" xlink:href="#font_2_66" transform="matrix(10.909318,0,0,-10.9091,179.07721,234.52101)"/>
<use data-text="s" xlink:href="#font_2_84" transform="matrix(10.909318,0,0,-10.9091,184.3246,234.52101)"/>
<use data-text="s" xlink:href="#font_2_84" transform="matrix(10.909318,0,0,-10.9091,188.64469,234.52101)"/>
<use data-text="F" xlink:href="#font_2_39" transform="matrix(0,-10.9091,-10.909318,-0,9.431274,137.396)"/>
<use data-text="r" xlink:href="#font_2_83" transform="matrix(0,-10.9091,-10.909318,-0,9.431274,131.89783)"/>
<use data-text="e" xlink:href="#font_2_70" transform="matrix(0,-10.9091,-10.909318,-0,9.431274,128.10144)"/>
<use data-text="q" xlink:href="#font_2_82" transform="matrix(0,-10.9091,-10.909318,-0,9.431274,123.09417)"/>
<use data-text="u" xlink:href="#font_2_86" transform="matrix(0,-10.9091,-10.909318,-0,9.431274,117.39962)"/>
<use data-text="e" xlink:href="#font_2_70" transform="matrix(0,-10.9091,-10.909318,-0,9.431274,111.541439)"/>
<use data-text="n" xlink:href="#font_2_79" transform="matrix(0,-10.9091,-10.909318,-0,9.431274,106.59961)"/>
<use data-text="c" xlink:href="#font_2_68" transform="matrix(0,-10.9091,-10.909318,-0,9.431274,100.719608)"/>
<use data-text="y" xlink:href="#font_2_90" transform="matrix(0,-10.9091,-10.909318,-0,9.431274,96.0396)"/>
<use data-text="H" xlink:href="#font_3_41" transform="matrix(11.95544,0,0,-11.9552,146.51602,10.3160099)"/>
<use data-text="i" xlink:href="#font_3_74" transform="matrix(11.95544,0,0,-11.9552,155.64997,10.3160099)"/>
<use data-text="s" xlink:href="#font_3_84" transform="matrix(11.95544,0,0,-11.9552,159.38007,10.3160099)"/>
<use data-text="t" xlink:href="#font_3_85" transform="matrix(11.95544,0,0,-11.9552,164.3894,10.3160099)"/>
<use data-text="o" xlink:href="#font_3_80" transform="matrix(11.95544,0,0,-11.9552,168.62162,10.3160099)"/>
<use data-text="g" xlink:href="#font_3_72" transform="matrix(11.95544,0,0,-11.9552,175.3884,10.3160099)"/>
<use data-text="r" xlink:href="#font_3_83" transform="matrix(11.95544,0,0,-11.9552,182.0954,10.3160099)"/>
<use data-text="a" xlink:href="#font_3_66" transform="matrix(11.95544,0,0,-11.9552,187.12865,10.3160099)"/>
<use data-text="m" xlink:href="#font_3_78" transform="matrix(11.95544,0,0,-11.9552,193.29766,10.3160099)"/>
<use data-text="C" xlink:href="#font_3_36" transform="matrix(11.95544,0,0,-11.9552,206.95078,10.3160099)"/>
</svg>
