<svg xmlns="http://www.w3.org/2000/svg" xmlns:xlink="http://www.w3.org/1999/xlink" xmlns:inkscape="http://www.inkscape.org/namespaces/inkscape" version="1.1" width="146" height="224" viewBox="0 0 146 224">
<defs>
<path id="font_1_56" d="M.6439972 .13227844H.6419983C.5389862 .43536378 .49499513 .5854187 .48098756 .6484375 .46398927 .6454315 .44299317 .6454315 .42599488 .6454315 .40899659 .6454315 .3829956 .6454315 .3659973 .6484375 .3836975 .60472109 .41539 .52130129 .45228578 .4224701 .4113922 .32162477 .3639984 .21369934 .32499696 .12327576H.32299806C.18798828 .43437196 .13598633 .6134186 .12599182 .6484375 .10899353 .6454315 .09298706 .6454315 .07598877 .6454315 .05899048 .6454315 .032989503 .6454315 .015991211 .6484375 .06599426 .54740908 .19799805 .20928955 .2899933-.009765625H.31799317L.47850038 .35194398C.522995 .23179627 .5713959 .098861698 .6100006-.009765625H.6380005C.73399356 .21229553 .83200076 .42736817 .93299868 .6484375 .92099 .6454315 .9089966 .6454315 .897995 .6454315 .8869934 .6454315 .8600006 .6454315 .84799197 .6484375 .81399539 .5193939 .71598818 .29832459 .6439972 .13227844Z"/>
<path id="font_1_51" d="M.18998719 .28616334C.22499085 .28616334 .25579835 .28726197 .28279115 .28926087 .31089784 .25634767 .332489 .21723938 .35798646 .17611695 .3939972 .11810303 .44198609 .031066895 .45298768-.0029296876 .47200013 .000061035159 .49398805 .000061035159 .5130005 .000061035159 .5329895 .000061035159 .5529938 .000061035159 .57299807-.0029296876L.57499697 .000061035159C.5251007 .05657959 .42478944 .21484375 .36149598 .29916383 .38819886 .30445863 .4079895 .31095887 .42199708 .318161 .47599793 .34516908 .5219879 .39720155 .5219879 .4792633 .5219879 .5292816 .5049896 .5703125 .46899415 .6043396 .42099 .64933779 .34498597 .65234377 .28199769 .65234377 .25698854 .65234377 .1769867 .64533999 .14698792 .64533999 .1349945 .64533999 .10798645 .6463318 .09599304 .6483307L.09399414 .64533999C.101989749 .5883179 .10398865 .52027896 .10398865 .4452362V.20013428C.10398865 .12510681 .101989749 .05407715 .09399414 .000061035159L.09599304-.0029296876C.10798645-.00093078616 .1349945 .000061035159 .14698792 .000061035159 .15899658 .000061035159 .18598938-.00093078616 .19799805-.0029296876L.19999695 .000061035159C.19198609 .05708313 .18998719 .12510681 .18998719 .20013428V.28616334M.2829895 .6093292C.34399415 .6093292 .42599488 .58631899 .42599488 .47825624 .42599488 .3561859 .34498597 .32617188 .24798584 .32617188H.18998719V.5653076C.18998719 .6043396 .19299317 .6093292 .2829895 .6093292Z"/>
<path id="font_2_3" d="M.46199037 .17704773H.43399049C.43199159 .16404724 .42399598 .10501099 .41099549 .08900452 .40499879 .07998657 .33599855 .07998657 .31599427 .07998657H.13798523L.23699951 .17404175C.40098573 .3161316 .46199037 .36915589 .46199037 .4711914 .46199037 .5860901 .36698915 .6660156 .24398804 .6660156 .1289978 .6660156 .050994874 .575119 .050994874 .4841919 .050994874 .43418885 .09399414 .42919923 .102996829 .42919923 .125 .42919923 .15499878 .44519044 .15499878 .48120118 .15499878 .51119998 .13398743 .5332031 .102996829 .5332031 .09799194 .5332031 .09498596 .5332031 .09098816 .53219607 .114990238 .6030731 .1789856 .63500979 .23298645 .63500979 .33499146 .63500979 .36999513 .5401764 .36999513 .4711914 .36999513 .36915589 .29299928 .28611756 .24499512 .23408509L.06199646 .035995485C.050994874 .024993897 .050994874 .022994996 .050994874 0H.43399049L.46199037 .17704773Z"/>
<path id="font_2_1" d="M.45098878 .71099856C.45399476 .7200012 .45599366 .723999 .45599366 .7279968 .45599366 .7429962 .44400025 .75 .43499757 .75 .4189911 .75 .4149933 .7389984 .41099549 .72698977L.06199646-.2110138C.05899048-.22000122 .056991579-.22401428 .056991579-.22801209 .056991579-.24301148 .068984989-.25 .07798767-.25 .09399414-.25 .09799194-.23901367 .101989749-.227005L.45098878 .71099856Z"/>
<path id="font_2_5" d="M.10398865 .3444519C.10398865 .32641603 .10398865 .31539918 .117996219 .31539918 .12599182 .31539918 .1289978 .31941224 .1349945 .32843019 .16499329 .3704834 .21299744 .39453126 .2649994 .39453126 .37199403 .39453126 .37199403 .24029541 .37199403 .20425415 .37199403 .17324829 .37199403 .11125183 .34399415 .06637573 .31698609 .024475098 .2749939 .0055389406 .23599243 .0055389406 .1769867 .0055389406 .10998535 .042434694 .085998538 .116256717 .08699036 .116256717 .09298706 .11425781 .099990848 .11425781 .11999512 .11425781 .14898682 .12724304 .14898682 .16325379 .14898682 .19424439 .1269989 .21224976 .099990848 .21224976 .07899475 .21224976 .050994874 .20025635 .050994874 .1602478 .050994874 .069366458 .1269989-.022460938 .23799134-.022460938 .35899354-.022460938 .46199037 .0753479 .46199037 .19924927 .46199037 .3204193 .37599183 .41952516 .2669983 .41952516 .21899414 .41952516 .16999817 .40351869 .1349945 .36747743V.56477358C.16499329 .5557709 .19599915 .55078127 .22698975 .55078127 .34999085 .55078127 .42199708 .6397705 .42199708 .652771 .42199708 .6617737 .41600038 .6657715 .41099549 .6657715 .40899659 .6657715 .40699769 .6657715 .397995 .6607666 .35099793 .6417694 .30499269 .6337738 .2630005 .6337738 .21998596 .6337738 .1749878 .6417694 .1289978 .6607666 .11898804 .6657715 .116989139 .6657715 .115997318 .6657715 .10398865 .6657715 .10398865 .655777 .10398865 .6387787V.3444519Z"/>
<path id="font_1_35" d="M.18998719 .55937197C.18998719 .5927124 .19999695 .605423 .2809906 .605423 .33699037 .605423 .4079895 .58340457 .4079895 .4812622 .4079895 .39614869 .35099793 .37112428 .2679901 .37112428H.18998719V.55937197M.18998719 .328125H.2829895C.3999939 .328125 .45498658 .2551117 .45498658 .16508484 .45498658 .09597778 .43119813 .04006958 .2869873 .04006958 .21699524 .04006958 .18998719 .05506897 .18998719 .08807373V.328125M.14698792 .6454315C.11299133 .6454315 .09599304 .6484375 .09599304 .6484375L.09399414 .6454315C.101989749 .5884094 .10398865 .52030947 .10398865 .44522096V.2000885C.10398865 .1250763 .101989749 .05406189 .09399414 .000061035159L.09498596-.0029296876C.09498596-.0029296876 .11199951 .000061035159 .14698792 .000061035159 .20899964 .000061035159 .21699524-.0029296876 .30599977-.0029296876 .5049896-.0029296876 .55400088 .09806824 .55400088 .18409729 .55400088 .2801056 .4889984 .33511354 .4019928 .36012269 .45298768 .38513185 .49499513 .4382019 .49499513 .49328614 .49499513 .56036379 .45999146 .6484375 .27398683 .6484375 .23899842 .6484375 .19699097 .6454315 .14698792 .6454315Z"/>
<path id="font_2_4" d="M.30499269 .35195924C.397995 .38697816 .44198609 .46006776 .44198609 .5290985 .44198609 .60606387 .35699464 .6660156 .25299073 .6660156 .14898682 .6660156 .070999149 .60705569 .070999149 .5310974 .070999149 .49809266 .09298706 .47909547 .12199402 .47909547 .15098572 .47909547 .17199707 .50009158 .17199707 .5290985 .17199707 .5640869 .147995 .57910159 .11399841 .57910159 .13999939 .6210327 .20098877 .64100649 .25 .64100649 .33299256 .64100649 .34899903 .5750885 .34899903 .52809146 .34899903 .49809266 .34298707 .45005799 .31799317 .41201783 .2869873 .36695863 .2519989 .36495973 .22299195 .36296083 .19799805 .36094667 .19599915 .36094667 .18798828 .36094667 .1789856 .35995484 .17098999 .35894776 .17098999 .34794618 .17098999 .33496095 .1789856 .33496095 .19599915 .33496095H.24299622C.32998658 .33496095 .36799623 .2646637 .36799623 .16937256 .36799623 .04145813 .2999878 .0055389406 .24899292 .0055389406 .22999573 .0055389406 .1329956 .010528564 .08799744 .0843811 .12399292 .07939148 .1519928 .10437012 .1519928 .13838196 .1519928 .17137146 .1269989 .19238281 .09799194 .19238281 .07299805 .19238281 .042999269 .17736817 .042999269 .13537598 .042999269 .046447755 .13598633-.022460938 .2519989-.022460938 .3769989-.022460938 .46998597 .06741333 .46998597 .16937256 .46998597 .25663758 .40098573 .33093263 .30499269 .35195924Z"/>
<path id="font_2_2" d="M.3039856 .6392822C.3039856 .6642761 .30299378 .666275 .27799989 .666275 .21598816 .60227969 .12399292 .60227969 .09298706 .60227969V.57128909C.11199951 .57128909 .17298889 .57128909 .22698975 .5972748V.08001709C.22698975 .042999269 .22399903 .0309906 .1309967 .0309906H.09899902V0C.1349945 .0029907227 .22399903 .0029907227 .2649994 .0029907227 .30599977 .0029907227 .3959961 .0029907227 .43199159 0V.0309906H.3999939C.30699159 .0309906 .3039856 .042999269 .3039856 .08001709V.6392822Z"/>
<path id="font_2_6" d="M.13398743 .33073426C.13398743 .43276979 .14498902 .4897766 .17199707 .54177859 .19198609 .58277896 .24099732 .64100649 .31498719 .64100649 .33499146 .64100649 .3809967 .63697817 .4039917 .6007843 .36698915 .6007843 .35099793 .5817871 .35099793 .55477908 .35099793 .5287781 .36898805 .50878909 .39698792 .50878909 .4249878 .50878909 .44400025 .5267792 .44400025 .55677798 .44400025 .612854 .4039917 .6660156 .31298829 .6660156 .18399048 .6660156 .042999269 .53878787 .042999269 .3157196 .042999269 .044555665 .16499329-.022460938 .25898744-.022460938 .36999513-.022460938 .46998597 .0705719 .46998597 .20265198 .46998597 .32972718 .37799073 .42578126 .2649994 .42578126 .20498657 .42578126 .1619873 .39076234 .13398743 .33073426M.2579956 .0055389406C.20098877 .0055389406 .16799927 .05256653 .1559906 .08157349 .13699341 .12660218 .13598633 .20965576 .13598633 .22566223 .13598633 .29270936 .16699219 .4007721 .2630005 .4007721 .2789917 .4007721 .32798768 .4007721 .3600006 .33872987 .3789978 .30070497 .3789978 .25167848 .3789978 .20365906 .3789978 .15562439 .3789978 .1065979 .3600006 .06956482 .32899476 .012542725 .2849884 .0055389406 .2579956 .0055389406Z"/>
</defs>
<use data-text="W" xlink:href="#font_1_56" transform="matrix(10.909428,0,0,-10.9091,63.045167,204.859)"/>
<path transform="matrix(1.00003,0,0,-1,-2.6368089,120.59)" stroke-width=".3985" stroke-linecap="butt" stroke-miterlimit="10" stroke-linejoin="miter" fill="none" stroke="#000000" d="M3.83525 0 61.84444-80.78859"/>
<use data-text="R" xlink:href="#font_1_51" transform="matrix(10.909428,0,0,-10.9091,135.82836,221.927)"/>
<path transform="matrix(1.00003,0,0,-1,-2.6368089,120.59)" stroke-width=".3985" stroke-linecap="butt" stroke-miterlimit="10" stroke-linejoin="miter" fill="none" stroke="#000000" d="M79.88965-80.78859 134.62607-97.79665"/>
<use data-text="2" xlink:href="#font_2_3" transform="matrix(8.966669,0,0,-8.9664,97.712207,203.806)"/>
<use data-text="/" xlink:href="#font_2_1" transform="matrix(8.966669,0,0,-8.9664,102.3121,203.806)"/>
<use data-text="5" xlink:href="#font_2_5" transform="matrix(8.966669,0,0,-8.9664,106.91201,203.806)"/>
<use data-text="B" xlink:href="#font_1_35" transform="matrix(10.909428,0,0,-10.9091,135.74134,187.889)"/>
<path transform="matrix(1.00003,0,0,-1,-2.6368089,120.59)" stroke-width=".3985" stroke-linecap="butt" stroke-miterlimit="10" stroke-linejoin="miter" fill="none" stroke="#000000" d="M79.88965-80.78859 134.53879-63.78055"/>
<use data-text="3" xlink:href="#font_2_4" transform="matrix(8.966669,0,0,-8.9664,97.669208,186.798)"/>
<use data-text="/" xlink:href="#font_2_1" transform="matrix(8.966669,0,0,-8.9664,102.269107,186.798)"/>
<use data-text="5" xlink:href="#font_2_5" transform="matrix(8.966669,0,0,-8.9664,106.86901,186.798)"/>
<use data-text="1" xlink:href="#font_2_2" transform="matrix(8.966669,0,0,-8.9664,12.544647,163.226)"/>
<use data-text="/" xlink:href="#font_2_1" transform="matrix(8.966669,0,0,-8.9664,17.144547,163.226)"/>
<use data-text="6" xlink:href="#font_2_6" transform="matrix(8.966669,0,0,-8.9664,21.74445,163.226)"/>
<use data-text="R" xlink:href="#font_1_51" transform="matrix(10.909428,0,0,-10.9091,64.95922,124.13)"/>
<path transform="matrix(1.00003,0,0,-1,-2.6368089,120.59)" stroke-width=".3985" stroke-linecap="butt" stroke-miterlimit="10" stroke-linejoin="miter" fill="none" stroke="#000000" d="M3.83525 0H63.75902"/>
<use data-text="W" xlink:href="#font_1_56" transform="matrix(10.909428,0,0,-10.9091,133.91429,158.086)"/>
<path transform="matrix(1.00003,0,0,-1,-2.6368089,120.59)" stroke-width=".3985" stroke-linecap="butt" stroke-miterlimit="10" stroke-linejoin="miter" fill="none" stroke="#000000" d="M77.97505 0 132.71149-34.0161"/>
<use data-text="1" xlink:href="#font_2_2" transform="matrix(8.966669,0,0,-8.9664,95.79815,131.521)"/>
<use data-text="/" xlink:href="#font_2_1" transform="matrix(8.966669,0,0,-8.9664,100.39805,131.521)"/>
<use data-text="5" xlink:href="#font_2_5" transform="matrix(8.966669,0,0,-8.9664,104.997959,131.521)"/>
<use data-text="R" xlink:href="#font_1_51" transform="matrix(10.909428,0,0,-10.9091,135.82836,124.13)"/>
<path transform="matrix(1.00003,0,0,-1,-2.6368089,120.59)" stroke-width=".3985" stroke-linecap="butt" stroke-miterlimit="10" stroke-linejoin="miter" fill="none" stroke="#000000" d="M77.97505 0H134.62607"/>
<use data-text="1" xlink:href="#font_2_2" transform="matrix(8.966669,0,0,-8.9664,96.75517,114.51299)"/>
<use data-text="/" xlink:href="#font_2_1" transform="matrix(8.966669,0,0,-8.9664,101.35507,114.51299)"/>
<use data-text="5" xlink:href="#font_2_5" transform="matrix(8.966669,0,0,-8.9664,105.95498,114.51299)"/>
<use data-text="B" xlink:href="#font_1_35" transform="matrix(10.909428,0,0,-10.9091,135.74134,90.091999)"/>
<path transform="matrix(1.00003,0,0,-1,-2.6368089,120.59)" stroke-width=".3985" stroke-linecap="butt" stroke-miterlimit="10" stroke-linejoin="miter" fill="none" stroke="#000000" d="M77.97505 0 134.53879 34.0161"/>
<use data-text="3" xlink:href="#font_2_4" transform="matrix(8.966669,0,0,-8.9664,96.711177,97.505)"/>
<use data-text="/" xlink:href="#font_2_1" transform="matrix(8.966669,0,0,-8.9664,101.31107,97.505)"/>
<use data-text="5" xlink:href="#font_2_5" transform="matrix(8.966669,0,0,-8.9664,105.91098,97.505)"/>
<use data-text="2" xlink:href="#font_2_3" transform="matrix(8.966669,0,0,-8.9664,24.249999,114.51299)"/>
<use data-text="/" xlink:href="#font_2_1" transform="matrix(8.966669,0,0,-8.9664,28.8499,114.51299)"/>
<use data-text="6" xlink:href="#font_2_6" transform="matrix(8.966669,0,0,-8.9664,33.4498,114.51299)"/>
<use data-text="B" xlink:href="#font_1_35" transform="matrix(10.909428,0,0,-10.9091,64.87222,43.32)"/>
<path transform="matrix(1.00003,0,0,-1,-2.6368089,120.59)" stroke-width=".3985" stroke-linecap="butt" stroke-miterlimit="10" stroke-linejoin="miter" fill="none" stroke="#000000" d="M3.83525 0 63.67175 80.78859"/>
<use data-text="W" xlink:href="#font_1_56" transform="matrix(10.909428,0,0,-10.9091,133.91429,77.298)"/>
<path transform="matrix(1.00003,0,0,-1,-2.6368089,120.59)" stroke-width=".3985" stroke-linecap="butt" stroke-miterlimit="10" stroke-linejoin="miter" fill="none" stroke="#000000" d="M78.06233 80.78859 132.71149 46.77249"/>
<use data-text="1" xlink:href="#font_2_2" transform="matrix(8.966669,0,0,-8.9664,95.84115,50.732995)"/>
<use data-text="/" xlink:href="#font_2_1" transform="matrix(8.966669,0,0,-8.9664,100.44105,50.732995)"/>
<use data-text="5" xlink:href="#font_2_5" transform="matrix(8.966669,0,0,-8.9664,105.040958,50.732995)"/>
<use data-text="R" xlink:href="#font_1_51" transform="matrix(10.909428,0,0,-10.9091,135.82836,43.340997)"/>
<path transform="matrix(1.00003,0,0,-1,-2.6368089,120.59)" stroke-width=".3985" stroke-linecap="butt" stroke-miterlimit="10" stroke-linejoin="miter" fill="none" stroke="#000000" d="M78.06233 80.78859H134.62607"/>
<use data-text="2" xlink:href="#font_2_3" transform="matrix(8.966669,0,0,-8.9664,96.79918,33.725)"/>
<use data-text="/" xlink:href="#font_2_1" transform="matrix(8.966669,0,0,-8.9664,101.39908,33.725)"/>
<use data-text="5" xlink:href="#font_2_5" transform="matrix(8.966669,0,0,-8.9664,105.998989,33.725)"/>
<use data-text="B" xlink:href="#font_1_35" transform="matrix(10.909428,0,0,-10.9091,135.74134,9.303993)"/>
<path transform="matrix(1.00003,0,0,-1,-2.6368089,120.59)" stroke-width=".3985" stroke-linecap="butt" stroke-miterlimit="10" stroke-linejoin="miter" fill="none" stroke="#000000" d="M78.06233 80.78859 134.53879 114.80469"/>
<use data-text="2" xlink:href="#font_2_3" transform="matrix(8.966669,0,0,-8.9664,96.75517,16.715996)"/>
<use data-text="/" xlink:href="#font_2_1" transform="matrix(8.966669,0,0,-8.9664,101.35507,16.715996)"/>
<use data-text="5" xlink:href="#font_2_5" transform="matrix(8.966669,0,0,-8.9664,105.95498,16.715996)"/>
<use data-text="3" xlink:href="#font_2_4" transform="matrix(8.966669,0,0,-8.9664,13.4586739,82.437)"/>
<use data-text="/" xlink:href="#font_2_1" transform="matrix(8.966669,0,0,-8.9664,18.058575,82.437)"/>
<use data-text="6" xlink:href="#font_2_6" transform="matrix(8.966669,0,0,-8.9664,22.658476,82.437)"/>
</svg>
