<svg xmlns="http://www.w3.org/2000/svg" xmlns:xlink="http://www.w3.org/1999/xlink" xmlns:inkscape="http://www.inkscape.org/namespaces/inkscape" version="1.1" width="178" height="153" viewBox="0 0 178 153">
<defs>
<path id="font_1_80" d="M.037994386 .20533753C.037994386 .08526611 .116989139-.009765625 .25-.009765625 .38198854-.009765625 .46199037 .08325195 .46199037 .21434021 .46199037 .3504181 .3889923 .43945313 .2539978 .43945313 .12298584 .43945313 .037994386 .3474121 .037994386 .20533753M.24699402 .39944459C.35299684 .39944459 .37399293 .31739808 .37399293 .19631958 .37399293 .10116577 .32598878 .030227662 .25898744 .030227662 .15299988 .030227662 .12599182 .14529419 .12599182 .22233582 .12599182 .3093872 .15299988 .39944459 .24699402 .39944459Z"/>
<path id="font_1_86" d="M.36499024 .09196472 .36898805 .088974 .37399293 .000061035159C.37399293-.0019378662 .37519837-.0029296876 .37799073-.0029296876 .3912964-.0012359619 .40299989 .000061035159 .41749574 .000061035159 .4300995 .000061035159 .44898988-.0009460449 .46199037-.0029296876L.46398927 .000061035159C.45599366 .043014528 .44699098 .11694336 .44699098 .19186402V.24880982C.44699098 .32374574 .44799806 .37568666 .45599366 .42863465L.45399476 .43164063C.44198609 .42964173 .4189911 .42863465 .40699769 .42863465 .394989 .42863465 .37199403 .42964173 .3600006 .43164063L.35798646 .42863465C.36579896 .37149049 .36698915 .32473756 .36698915 .24880982V.15090943C.33648683 .09963989 .2789917 .04623413 .22999573 .04623413 .1954956 .04623413 .16299439 .0572052 .16299439 .15007019V.24891663C.16299439 .32380677 .1639862 .37571717 .17199707 .42863465L.16999817 .43164063C.1579895 .42964173 .1349945 .42863465 .12298584 .42863465 .11099243 .42863465 .08799744 .42964173 .07598877 .43164063L.07398987 .42863465C.08198547 .37173463 .08299255 .32479859 .08299255 .24891663V.12910462C.08299255 .06021118 .114990238-.009765625 .21398926-.009765625 .27598573-.009765625 .33198548 .041229249 .36499024 .092163089V.09196472Z"/>
<path id="font_1_85" d="M.09498596 .42871095C.07449341 .4288025 .053390504 .42910768 .040985109 .43070985 .0342865 .4143982 .028686524 .40470887 .018997193 .38970948L.023986817 .3827057C.04119873 .3840027 .07218933 .38459779 .09498596 .3847046V.24784851C.09498596 .18791199 .09199524 .115982059 .09199524 .086013797 .09199524 .021072388 .13398743-.009765625 .17999268-.009765625 .22200012-.009765625 .2539978 .00018310547 .29599 .027053833L.2836914 .051757814C.25299073 .041046144 .22999573 .04005432 .20498657 .044052125 .18128968 .047851564 .17199707 .07192993 .17199707 .12597656 .17199707 .15594483 .1749878 .19889832 .1749878 .25883485V.3847046H.21299744C.23699951 .3847046 .271698 .3840027 .2849884 .3827057 .28799439 .3986969 .29100038 .40899659 .29699708 .42370606L.2919922 .43070985C.27398683 .43000794 .24499512 .42871095 .22200012 .42871095H.1749878C.1749878 .5035095 .17549134 .5167084 .17999268 .57470706 .17999268 .58200076 .17729187 .58470156 .17098999 .58470156 .14588928 .57470706 .13349915 .564209 .100997928 .55970767L.09899902 .55670168C.09700012 .5220032 .09498596 .4867096 .09498596 .42871095Z"/>
<path id="font_1_71" d="M.09899902 .42871095C.07728577 .42871095 .05419922 .4289093 .040985109 .43070985 .0342865 .4143982 .028686524 .40470887 .018997193 .38970948L.023986817 .3827057C.041992189 .3840027 .07499695 .3847046 .09799194 .3847046H.09899902V.19888306C.09899902 .12394714 .0974884 .053512575 .08898926 .000061035159L.09098816-.0029296876C.102996829-.0009460449 .1269989 .000061035159 .13899231 .000061035159 .15098572 .000061035159 .1749878-.0009460449 .18699646-.0029296876L.18899536 .000061035159C.18049622 .057006837 .1789856 .12394714 .1789856 .19888306V.3847046H.21299744C.23699951 .3847046 .271698 .3840027 .2849884 .3827057 .28799439 .3986969 .29100038 .40899659 .29699708 .42370606L.2919922 .43070985C.27519227 .42991639 .24499512 .42871095 .22200012 .42871095H.1789856V.43774415C.1789856 .47392274 .17399597 .5261688 .17399597 .5442505 .17399597 .5997162 .20968628 .63723757 .2669983 .63723757 .2926941 .63723757 .31399537 .6223602 .32499696 .60253909L.33599855 .6035156C.34298707 .6302948 .35369874 .6639404 .3639984 .6852417L.36299134 .6882324C.35499574 .6932373 .33699037 .6982422 .31799317 .6982422 .25498963 .6982422 .19169617 .66893008 .1539917 .6213684 .115997318 .5733948 .09899902 .5261688 .09899902 .4678955V.42871095Z"/>
<path id="font_1_74" d="M.07998657 .59742739C.07998657 .5704346 .10398865 .5464325 .1309967 .5464325 .1579895 .5464325 .18199158 .5704346 .18199158 .59742739 .18199158 .6244354 .1579895 .6484375 .1309967 .6484375 .10398865 .6484375 .07998657 .6244354 .07998657 .59742739M.08999634 .2348175V.1798706C.08999634 .10494995 .0881958 .054000856 .08099365 .000061035159L.08299255-.0029296876C.09498596-.0009460449 .117996219 .000061035159 .12998963 .000061035159 .14199829 .000061035159 .16499329-.0009460449 .1769867-.0029296876L.1789856 .000061035159C.1717987 .056793214 .16999817 .10395813 .16999817 .1798706V.25079347C.16999817 .3257141 .17248535 .36167909 .1789856 .42262269 .1789856 .4316101 .17779541 .4326172 .16999817 .4326172 .14729309 .4303131 .10418701 .42991639 .08299255 .4316101L.08099365 .42861939C.08729553 .38586427 .08999634 .30973817 .08999634 .2348175Z"/>
<path id="font_1_84" d="M.049987794 .10127258 .032989503 .017227173C.08999634-.0027770997 .1459961-.009765625 .18399048-.009765625 .32199098-.009765625 .35398866 .072250369 .35398866 .12728882 .35398866 .20933533 .2889862 .24134827 .21798706 .25836183 .18019104 .2674713 .125 .28637696 .125 .33641053 .125 .3774414 .1579895 .39944459 .20098877 .39944459 .25299073 .39944459 .2849884 .35842896 .30799867 .33140565L.32199098 .33241273 .34199525 .40644837 .33999635 .4094391C.31098939 .42443849 .2559967 .43945313 .20498657 .43945313 .1309967 .43945313 .053985597 .40045167 .053985597 .31739808 .053985597 .23735047 .11369324 .2109375 .17399597 .19432068 .23199463 .17831421 .2749939 .16230774 .2749939 .11328125 .2749939 .0602417 .23599243 .030227662 .18299866 .030227662 .1349945 .030227662 .09298706 .06324768 .06498718 .102264408L.049987794 .10127258Z"/>
<path id="font_1_81" d="M.1619873 .29438783C.18399048 .3474121 .24299622 .39344789 .28199769 .39344789 .34999085 .39344789 .3849945 .33140565 .3849945 .21833802 .3849945 .1362915 .3619995 .030227662 .25498963 .030227662 .23899842 .030227662 .19699097 .034225465 .1619873 .07525635V.29438783M.1619873 .352417V.42544557C.1619873 .43315126 .16069031 .43544007 .1559906 .43544007 .13349915 .43093873 .09768677 .43014527 .07499695 .43244935L.07299805 .42944337C.07998657 .38613893 .08198547 .3103943 .08198547 .23535156V-.031829835C.08198547-.10652161 .08018494-.17840576 .07299805-.23234558L.07499695-.23535156C.08699036-.23335266 .10998535-.23234558 .12199402-.23234558 .13398743-.23234558 .15699768-.23335266 .16899109-.23535156L.17098999-.23234558C.16378784-.17520142 .1619873-.10722351 .1619873-.031829835V.01222229C.18798828-.0017700195 .22499085-.009765625 .26098634-.009765625 .3929901-.009765625 .47299195 .09036255 .47299195 .23135376 .47299195 .3374176 .41099549 .43945313 .29899598 .43945313 .2599945 .43945313 .20999146 .41944886 .1639862 .349411L.1619873 .352417Z"/>
<path id="font_1_66" d="M.30999757 .2253418 .30599977 .10626221C.30599977 .09326172 .2999878 .086257938 .2919922 .08024597 .2639923 .05923462 .22999573 .041229249 .19999695 .041229249 .15499878 .041229249 .12599182 .071243289 .12599182 .102264408 .12599182 .14729309 .14698792 .18132019 .22499085 .20233155L.30999757 .2253418M.3100891 .048233034C.32148744 .009124756 .35139466-.009765625 .3880005-.009765625 .41319276-.009765625 .44400025-.003768921 .46759034 .021224976L.46018983 .045928956C.44929505 .042129518 .4407959 .040725709 .43319703 .040725709 .42329408 .040725709 .4099884 .042633058 .40390016 .048233034 .39369203 .057540895 .38719178 .08175659 .38719178 .12628174 .38719178 .15530396 .3899994 .26635743 .3899994 .27737428 .3899994 .41244508 .30099488 .43943788 .22499085 .43943788 .14898682 .43943788 .102996829 .40245057 .07798767 .3814392L.07499695 .37742616 .09199524 .3103943 .10499573 .3093872C.1329956 .3544159 .16699219 .3944397 .21499634 .3944397 .25099183 .3944397 .31098939 .3894348 .31098939 .2763672 .31098939 .2693634 .30699159 .2653656 .3039856 .26435853L.21099854 .24334717C.10899353 .22033692 .04499817 .16630554 .04499817 .0982666 .04499817 .024230957 .09599304-.009780884 .16999817-.009780884 .22499085-.009780884 .25299073 .0032196046 .30599977 .048233034H.3100891Z"/>
<path id="font_1_79" d="M.45999146 .18025208C.45999146 .21228028 .46199037 .24931336 .46199037 .28134156 .46199037 .38545228 .42799378 .43945313 .33799745 .43945313 .2999878 .43945313 .22898865 .42443849 .16499329 .349411L.16299439 .352417V.42544557C.16279602 .43315126 .16169739 .43544007 .15699768 .43544007 .13449097 .43093873 .09869385 .43014527 .07598877 .43244935L.07398987 .42944337C.08099365 .38613893 .08299255 .31037904 .08299255 .23530579V.18025208C.08299255 .105163577 .08198547 .054122926 .07398987 .000061035159L.07598877-.0029296876C.08799744-.00093078616 .11099243 .000061035159 .12298584 .000061035159 .1349945 .000061035159 .1579895-.00093078616 .16999817-.0029296876L.17199707 .000061035159C.1639862 .057128908 .16299439 .10417175 .16299439 .18025208V.29736329C.21398926 .35742188 .27198792 .3794403 .30799867 .3794403 .35899354 .3794403 .37998963 .35942079 .37998963 .27835084V.18025208C.37998963 .105163577 .3781891 .05392456 .37098695 .000061035159L.37298585-.0029296876C.3849945-.00093078616 .4079895 .000061035159 .41999818 .000061035159 .43199159 .000061035159 .45498658-.00093078616 .46699525-.0029296876L.46899415 .000061035159C.4611969 .057128908 .45999146 .10417175 .45999146 .18025208Z"/>
<path id="font_1_19" d="M.22200012 .5533447C.2743988 .5533447 .3277893 .5051575 .3277893 .4348755 .3277893 .39317323 .3157959 .33998109 .2896881 .3009796 .21798706 .19398499 .10348511 .093688968 .054397584 .04699707 .05319214 .043289186 .052597047 .038986207 .052597047 .03439331 .052597047 .01928711 .057495119 .0035858155 .062698367-.005004883 .13648987-.0030059815 .1789856 0 .2519989 0 .32398988 0 .35429383-.0020141602 .4256897-.005004883 .42419435 .0053863527 .42259217 .017089844 .42259217 .027999878 .42259217 .044189454 .4237976 .059799196 .42749024 .07499695 .37120057 .069992069 .34059144 .066986087 .24459839 .066986087 .20948792 .066986087 .19029236 .066986087 .16288758 .06498718 .16209412 .066589359 .16169739 .067993167 .16169739 .069992069 .16169739 .07928467 .17199707 .08988953 .17939759 .09698486 .22799683 .14398194 .2749939 .1889801 .34109498 .27798463 .37799073 .3276825 .4136963 .39187623 .4136963 .44847108 .4136963 .5439148 .3498993 .61035159 .23829651 .61035159 .14729309 .61035159 .088897708 .55934146 .066085819 .5292511L.08779907 .4599762 .10089111 .45898438C.11468506 .48908998 .11959839 .50987246 .14498902 .5302582 .16499329 .5463104 .19400025 .5533447 .22200012 .5533447Z"/>
<path id="font_1_73" d="M.16999817 .352417V.50138857C.16999817 .57533267 .17419434 .6267853 .1789856 .6882477 .1789856 .6952362 .17630005 .6982422 .16999817 .6982422 .14489746 .6882477 .12348938 .6812439 .08299255 .6782532L.08099365 .6752472C.08869934 .6325836 .08999634 .5573425 .08999634 .4814148V.18025208C.08999634 .105667117 .08879089 .056121828 .08099365 .000061035159L.08299255-.0029296876C.09498596-.00093078616 .117996219 .000061035159 .12998963 .000061035159 .14199829 .000061035159 .16499329-.00093078616 .1769867-.0029296876L.1789856 .000061035159C.17149353 .05732727 .16999817 .10417175 .16999817 .18025208V.29736329C.22099304 .35742188 .27949525 .3794403 .31498719 .3794403 .3659973 .3794403 .3869934 .35942079 .3869934 .27835084V.18025208C.3869934 .105163577 .38598634 .05392456 .37799073 .000061035159L.37998963-.0029296876C.3919983-.00093078616 .4149933 .000061035159 .4269867 .000061035159 .43899537 .000061035159 .46199037-.00093078616 .47399903-.0029296876L.47599793 .000061035159C.46798707 .05732727 .46699525 .10417175 .46699525 .18025208 .46699525 .21228028 .46899415 .24931336 .46899415 .28134156 .46899415 .38545228 .43499757 .43945313 .34498597 .43945313 .30699159 .43945313 .23599243 .42443849 .17199707 .349411L.16999817 .352417Z"/>
<path id="font_1_83" d="M.16699219 .33441163V.42544557C.16699219 .43315126 .16569519 .43544007 .16099549 .43544007 .13848877 .43093873 .10269165 .43014527 .07998657 .43244935L.07798767 .42944337C.084991458 .38613893 .08699036 .31037904 .08699036 .23530579V.18025208C.08699036 .10517883 .08580017 .05392456 .07798767 .000061035159L.07998657-.0029296876C.09199524-.00093078616 .114990238 .000061035159 .1269989 .000061035159 .13899231 .000061035159 .1619873-.00093078616 .17399597-.0029296876L.17599488 .000061035159C.16848755 .057128908 .16699219 .10417175 .16699219 .18025208V.2322998C.16699219 .27435304 .17948914 .29837037 .20098877 .33140565 .21549988 .35372926 .23799134 .36643983 .25698854 .36643983 .2769928 .36643983 .29599 .36444093 .30899049 .35243226L.31698609 .35443116 .33699037 .42845155 .33299256 .43244935C.31599427 .43743897 .31498719 .43945313 .29699708 .43945313 .24299622 .43945313 .21398926 .40844728 .16999817 .33241273L.16699219 .33441163Z"/>
<path id="font_1_20" d="M.20899964 .029220581C.12998963 .029220581 .11898804 .059188844 .09199524 .117111209L.07699585 .116104129 .054992677 .04121399 .057998659 .038208009C.083999637 .016220093 .1269989-.009765625 .20698548-.009765625 .2919922-.009765625 .42599488 .048202516 .42599488 .1800232 .42599488 .25891114 .36499024 .3148651 .28799439 .32185365V.32685853C.33999635 .3388672 .4059906 .39698792 .4059906 .48014833 .4059906 .5523071 .34399415 .61035159 .24499512 .61035159 .16799927 .61035159 .11199951 .5763397 .08699036 .55430606L.083999637 .55130007 .10499573 .48716737 .11999512 .48616029C.14399719 .5422821 .17599488 .5713501 .23599243 .5713501 .2749939 .5713501 .31900025 .5302582 .31900025 .4651184 .31900025 .42103578 .3039856 .3889618 .2809906 .36691285 .26098634 .34788514 .23199463 .3388672 .19799805 .3388672 .18598938 .3388672 .1749878 .339859 .16099549 .34187318V.29786683C.17298889 .29986573 .19400025 .29986573 .20298767 .29986573 .23498535 .29986573 .272995 .2908783 .30099488 .26789857 .32699586 .2459259 .33999635 .21098328 .33999635 .17202759 .33999635 .051193239 .24499512 .029220581 .20899964 .029220581Z"/>
<path id="font_1_18" d="M.32598878 .18917847V.44332887C.32598878 .5513611 .33198548 .59135439 .33399964 .6053467 .33399964 .61035159 .33099366 .61035159 .32699586 .61035159 .2619934 .5893402 .18598938 .550354 .10798645 .5263672L.11399841 .49736024C.15899658 .5023651 .20799256 .5133667 .22799683 .5133667 .24598694 .5133667 .24598694 .4733429 .24598694 .43733216V.18917847C.24598694 .11112976 .24499512 .05709839 .23799134 .000061035159L.23899842-.0029296876C.23899842-.0029296876 .2669983 .000061035159 .2849884 .000061035159 .30499269 .000061035159 .33299256-.0029296876 .33299256-.0029296876L.33499146 .000061035159C.32798768 .06010437 .32598878 .11012268 .32598878 .18917847Z"/>
</defs>
<use data-text="o" xlink:href="#font_1_80" transform="matrix(10.909754,0,0,-10.909318,1.435463,79.717357)"/>
<use data-text="u" xlink:href="#font_1_86" transform="matrix(10.909754,0,0,-10.909318,6.8903429,79.717357)"/>
<use data-text="t" xlink:href="#font_1_85" transform="matrix(10.909754,0,0,-10.909318,12.7488789,79.717357)"/>
<use data-text="f" xlink:href="#font_1_71" transform="matrix(10.909754,0,0,-10.909318,16.458195,79.717357)"/>
<use data-text="i" xlink:href="#font_1_74" transform="matrix(10.909754,0,0,-10.909318,19.883854,79.717357)"/>
<use data-text="t" xlink:href="#font_1_85" transform="matrix(10.909754,0,0,-10.909318,22.720395,79.717357)"/>
<use data-text="s" xlink:href="#font_1_84" transform="matrix(10.909754,0,0,-10.909318,26.429707,79.717357)"/>
<use data-text="p" xlink:href="#font_1_81" transform="matrix(10.909754,0,0,-10.909318,56.00274,120.53117)"/>
<use data-text="a" xlink:href="#font_1_66" transform="matrix(10.909754,0,0,-10.909318,61.708539,120.53117)"/>
<use data-text="n" xlink:href="#font_1_79" transform="matrix(10.909754,0,0,-10.909318,66.95613,120.53117)"/>
<use data-text="t" xlink:href="#font_1_85" transform="matrix(10.909754,0,0,-10.909318,72.83649,120.53117)"/>
<use data-text="s" xlink:href="#font_1_84" transform="matrix(10.909754,0,0,-10.909318,76.5458,120.53117)"/>
<use data-text="2" xlink:href="#font_1_19" transform="matrix(10.909754,0,0,-10.909318,84.49901,120.53117)"/>
<path transform="matrix(1.00006,0,0,-1.00002,16.093342,75.96428)" stroke-width=".3985" stroke-linecap="butt" stroke-miterlimit="10" stroke-linejoin="miter" fill="none" stroke="#000000" d="M10.26323-7.6971 45.43861-34.0758"/>
<path transform="matrix(1.00006,0,0,-1.00002,16.093342,75.96428)" d="M128.0588-70.86697C128.0588-70.59187 127.83578-70.36884 127.56067-70.36884 127.28557-70.36884 127.06253-70.59187 127.06253-70.86697 127.06253-71.14209 127.28557-71.36511 127.56067-71.36511 127.83578-71.36511 128.0588-71.14209 128.0588-70.86697ZM127.56067-70.86697"/>
<use data-text="s" xlink:href="#font_1_84" transform="matrix(10.909754,0,0,-10.909318,148.19426,150.58579)"/>
<use data-text="h" xlink:href="#font_1_73" transform="matrix(10.909754,0,0,-10.909318,152.51453,150.58579)"/>
<use data-text="i" xlink:href="#font_1_74" transform="matrix(10.909754,0,0,-10.909318,158.50399,150.58579)"/>
<use data-text="r" xlink:href="#font_1_83" transform="matrix(10.909754,0,0,-10.909318,161.34052,150.58579)"/>
<use data-text="t" xlink:href="#font_1_85" transform="matrix(10.909754,0,0,-10.909318,165.21349,150.58579)"/>
<use data-text="3" xlink:href="#font_1_20" transform="matrix(10.909754,0,0,-10.909318,171.63933,150.58579)"/>
<path transform="matrix(1.00006,0,0,-1.00002,16.093342,75.96428)" stroke-width=".3985" stroke-linecap="butt" stroke-miterlimit="10" stroke-linejoin="miter" fill="none" stroke="#000000" d="M77.79944-50.9646 126.9132-70.608"/>
<path transform="matrix(1.00006,0,0,-1.00002,16.093342,75.96428)" d="M128.0588-42.52017C128.0588-42.24506 127.83578-42.02203 127.56067-42.02203 127.28557-42.02203 127.06253-42.24506 127.06253-42.52017 127.06253-42.79527 127.28557-43.01831 127.56067-43.01831 127.83578-43.01831 128.0588-42.79527 128.0588-42.52017ZM127.56067-42.52017"/>
<use data-text="s" xlink:href="#font_1_84" transform="matrix(10.909754,0,0,-10.909318,148.19426,122.238208)"/>
<use data-text="h" xlink:href="#font_1_73" transform="matrix(10.909754,0,0,-10.909318,152.51453,122.238208)"/>
<use data-text="i" xlink:href="#font_1_74" transform="matrix(10.909754,0,0,-10.909318,158.50399,122.238208)"/>
<use data-text="r" xlink:href="#font_1_83" transform="matrix(10.909754,0,0,-10.909318,161.34052,122.238208)"/>
<use data-text="t" xlink:href="#font_1_85" transform="matrix(10.909754,0,0,-10.909318,165.21349,122.238208)"/>
<use data-text="2" xlink:href="#font_1_19" transform="matrix(10.909754,0,0,-10.909318,171.63933,122.238208)"/>
<path transform="matrix(1.00006,0,0,-1.00002,16.093342,75.96428)" stroke-width=".3985" stroke-linecap="butt" stroke-miterlimit="10" stroke-linejoin="miter" fill="none" stroke="#000000" d="M82.34735-42.5202 126.86328-42.52017"/>
<path transform="matrix(1.00006,0,0,-1.00002,16.093342,75.96428)" d="M128.0588-14.17336C128.0588-13.89825 127.83578-13.67522 127.56067-13.67522 127.28557-13.67522 127.06253-13.89825 127.06253-14.17336 127.06253-14.44847 127.28557-14.6715 127.56067-14.6715 127.83578-14.6715 128.0588-14.44847 128.0588-14.17336ZM127.56067-14.17336"/>
<use data-text="s" xlink:href="#font_1_84" transform="matrix(10.909754,0,0,-10.909318,148.19426,93.89064)"/>
<use data-text="h" xlink:href="#font_1_73" transform="matrix(10.909754,0,0,-10.909318,152.51453,93.89064)"/>
<use data-text="i" xlink:href="#font_1_74" transform="matrix(10.909754,0,0,-10.909318,158.50399,93.89064)"/>
<use data-text="r" xlink:href="#font_1_83" transform="matrix(10.909754,0,0,-10.909318,161.34052,93.89064)"/>
<use data-text="t" xlink:href="#font_1_85" transform="matrix(10.909754,0,0,-10.909318,165.21349,93.89064)"/>
<use data-text="1" xlink:href="#font_1_18" transform="matrix(10.909754,0,0,-10.909318,171.63933,93.89064)"/>
<path transform="matrix(1.00006,0,0,-1.00002,16.093342,75.96428)" stroke-width=".3985" stroke-linecap="butt" stroke-miterlimit="10" stroke-linejoin="miter" fill="none" stroke="#000000" d="M77.79944-34.0758 126.9132-14.43234"/>
<use data-text="p" xlink:href="#font_1_81" transform="matrix(10.909754,0,0,-10.909318,56.00274,35.488473)"/>
<use data-text="a" xlink:href="#font_1_66" transform="matrix(10.909754,0,0,-10.909318,61.708539,35.488473)"/>
<use data-text="n" xlink:href="#font_1_79" transform="matrix(10.909754,0,0,-10.909318,66.95613,35.488473)"/>
<use data-text="t" xlink:href="#font_1_85" transform="matrix(10.909754,0,0,-10.909318,72.83649,35.488473)"/>
<use data-text="s" xlink:href="#font_1_84" transform="matrix(10.909754,0,0,-10.909318,76.5458,35.488473)"/>
<use data-text="1" xlink:href="#font_1_18" transform="matrix(10.909754,0,0,-10.909318,84.49901,35.488473)"/>
<path transform="matrix(1.00006,0,0,-1.00002,16.093342,75.96428)" stroke-width=".3985" stroke-linecap="butt" stroke-miterlimit="10" stroke-linejoin="miter" fill="none" stroke="#000000" d="M10.26323 7.6971 45.43861 34.07585"/>
<path transform="matrix(1.00006,0,0,-1.00002,16.093342,75.96428)" d="M128.0588 14.17346C128.0588 14.44858 127.83578 14.6716 127.56067 14.6716 127.28557 14.6716 127.06253 14.44858 127.06253 14.17346 127.06253 13.89836 127.28557 13.67532 127.56067 13.67532 127.83578 13.67532 128.0588 13.89836 128.0588 14.17346ZM127.56067 14.17346"/>
<use data-text="s" xlink:href="#font_1_84" transform="matrix(10.909754,0,0,-10.909318,148.19426,65.54307)"/>
<use data-text="h" xlink:href="#font_1_73" transform="matrix(10.909754,0,0,-10.909318,152.51453,65.54307)"/>
<use data-text="i" xlink:href="#font_1_74" transform="matrix(10.909754,0,0,-10.909318,158.50399,65.54307)"/>
<use data-text="r" xlink:href="#font_1_83" transform="matrix(10.909754,0,0,-10.909318,161.34052,65.54307)"/>
<use data-text="t" xlink:href="#font_1_85" transform="matrix(10.909754,0,0,-10.909318,165.21349,65.54307)"/>
<use data-text="3" xlink:href="#font_1_20" transform="matrix(10.909754,0,0,-10.909318,171.63933,65.54307)"/>
<path transform="matrix(1.00006,0,0,-1.00002,16.093342,75.96428)" stroke-width=".3985" stroke-linecap="butt" stroke-miterlimit="10" stroke-linejoin="miter" fill="none" stroke="#000000" d="M77.79944 34.07585 126.9132 14.43245"/>
<path transform="matrix(1.00006,0,0,-1.00002,16.093342,75.96428)" d="M128.0588 42.52028C128.0588 42.79538 127.83578 43.01842 127.56067 43.01842 127.28557 43.01842 127.06253 42.79538 127.06253 42.52028 127.06253 42.24516 127.28557 42.02214 127.56067 42.02214 127.83578 42.02214 128.0588 42.24516 128.0588 42.52028ZM127.56067 42.52028"/>
<use data-text="s" xlink:href="#font_1_84" transform="matrix(10.909754,0,0,-10.909318,148.19426,37.196504)"/>
<use data-text="h" xlink:href="#font_1_73" transform="matrix(10.909754,0,0,-10.909318,152.51453,37.196504)"/>
<use data-text="i" xlink:href="#font_1_74" transform="matrix(10.909754,0,0,-10.909318,158.50399,37.196504)"/>
<use data-text="r" xlink:href="#font_1_83" transform="matrix(10.909754,0,0,-10.909318,161.34052,37.196504)"/>
<use data-text="t" xlink:href="#font_1_85" transform="matrix(10.909754,0,0,-10.909318,165.21349,37.196504)"/>
<use data-text="2" xlink:href="#font_1_19" transform="matrix(10.909754,0,0,-10.909318,171.63933,37.196504)"/>
<path transform="matrix(1.00006,0,0,-1.00002,16.093342,75.96428)" stroke-width=".3985" stroke-linecap="butt" stroke-miterlimit="10" stroke-linejoin="miter" fill="none" stroke="#000000" d="M82.34735 42.52025 126.86328 42.52028"/>
<path transform="matrix(1.00006,0,0,-1.00002,16.093342,75.96428)" d="M128.0588 70.86708C128.0588 71.1422 127.83578 71.36522 127.56067 71.36522 127.28557 71.36522 127.06253 71.1422 127.06253 70.86708 127.06253 70.59198 127.28557 70.36894 127.56067 70.36894 127.83578 70.36894 128.0588 70.59198 128.0588 70.86708ZM127.56067 70.86708"/>
<use data-text="s" xlink:href="#font_1_84" transform="matrix(10.909754,0,0,-10.909318,148.19426,8.848938)"/>
<use data-text="h" xlink:href="#font_1_73" transform="matrix(10.909754,0,0,-10.909318,152.51453,8.848938)"/>
<use data-text="i" xlink:href="#font_1_74" transform="matrix(10.909754,0,0,-10.909318,158.50399,8.848938)"/>
<use data-text="r" xlink:href="#font_1_83" transform="matrix(10.909754,0,0,-10.909318,161.34052,8.848938)"/>
<use data-text="t" xlink:href="#font_1_85" transform="matrix(10.909754,0,0,-10.909318,165.21349,8.848938)"/>
<use data-text="1" xlink:href="#font_1_18" transform="matrix(10.909754,0,0,-10.909318,171.63933,8.848938)"/>
<path transform="matrix(1.00006,0,0,-1.00002,16.093342,75.96428)" stroke-width=".3985" stroke-linecap="butt" stroke-miterlimit="10" stroke-linejoin="miter" fill="none" stroke="#000000" d="M77.79944 50.96465 126.9132 70.60811"/>
</svg>
