<svg xmlns="http://www.w3.org/2000/svg" xmlns:xlink="http://www.w3.org/1999/xlink" xmlns:inkscape="http://www.inkscape.org/namespaces/inkscape" version="1.1" width="174" height="117" viewBox="0 0 174 117">
<defs>
<path id="font_1_54" d="M.5439911 .44535829V.27729798C.5439911 .16526795 .5269928 .04623413 .35798646 .04623413 .18998719 .04623413 .18998719 .21528626 .18998719 .26930238V.44535829C.18998719 .52038577 .19198609 .5924072 .19999695 .6454315L.19799805 .6484375C.18598938 .64642336 .15899658 .6454315 .14698792 .6454315 .1349945 .6454315 .10798645 .64642336 .09599304 .6484375L.09399414 .6454315C.101989749 .5884094 .10398865 .52038577 .10398865 .44535829V.23628235C.10398865 .032226564 .24699402-.009765625 .33699037-.009765625 .5419922-.009765625 .59799197 .117248538 .59799197 .29530335V.44535829C.59799197 .52038577 .59999087 .5924072 .60798647 .6454315L.60598757 .6484375C.59399417 .64642336 .58299258 .6454315 .57099917 .6454315 .5589905 .6454315 .5479889 .64642336 .5359955 .6484375L.5339966 .6454315C.5419922 .5884094 .5439911 .52038577 .5439911 .44535829Z"/>
<path id="font_1_30" d="M.46099855 .31835938H.06599426V.26934815H.46099855V.31835938M.46099855 .19335938H.06599426V.14434815H.46099855V.19335938Z"/>
<path id="font_1_34" d="M.4072876 .27592469C.3742981 .27442933 .33268739 .2734375 .30299378 .2734375 .27409364 .2734375 .22059632 .27513124 .19859314 .2763214L.3039856 .52207949H.30599977C.34709168 .42773438 .38038636 .34558106 .4072876 .27592469M.1789856 .22872925C.20399475 .23042298 .27349855 .23143006 .30799867 .23143006 .34599305 .23143006 .40098573 .23042298 .42529298 .22872925 .47428895 .09741211 .4968872 .019302369 .5029907-.0029296876 .519989 .000061035159 .5359955 .000061035159 .5529938 .000061035159 .56999209 .000061035159 .59599307 .000061035159 .61299136-.0029296876 .5629883 .098220828 .43099977 .43933106 .33898927 .6582031H.31098939C.21499634 .43632508 .116989139 .2184143 .015991211-.0029296876 .027999878 .000061035159 .039993287 .000061035159 .050994874 .000061035159 .06199646 .000061035159 .083999637 .000061035159 .09599304-.0029296876 .11239624 .05845642 .14329529 .14108277 .1789856 .22872925Z"/>
<path id="font_1_77" d="M.08999634 .20011902C.08999634 .1255951 .08848572 .05357361 .08099365 .000061035159L.08299255-.0029296876C.09498596-.00093078616 .117996219 .000061035159 .12998963 .000061035159 .14199829 .000061035159 .16499329-.00093078616 .1769867-.0029296876L.1789856 .000061035159C.17118836 .05708313 .16999817 .12489319 .16999817 .20011902V.5001831C.16999817 .5751953 .17428589 .62490847 .1789856 .6882324 .1789856 .6952362 .17630005 .6982422 .16999817 .6982422 .14489746 .6882324 .12348938 .68122866 .08299255 .67822268L.08099365 .67523196C.08869934 .6325226 .08999634 .558197 .08999634 .48217774V.20011902Z"/>
<path id="font_1_90" d="M.027999878 .43164063C.0677948 .34283448 .18659973 .08476257 .22200012-.0103302 .18998719-.08502197 .14918518-.16201782 .10398865-.23730469 .11399841-.23431397 .1289978-.23231507 .13899231-.23231507 .14898682-.23231507 .17799378-.23431397 .18798828-.23730469 .22599793-.11231995 .44499208 .36463929 .47799684 .43164063 .46798707 .42863465 .44499208 .42863465 .43499757 .42863465 .4249878 .42863465 .4059906 .42863465 .3959961 .43164063 .3600006 .31863404 .31329347 .19085694 .2646942 .087265018H.2626953C.21348572 .20614624 .1663971 .31744386 .1289978 .43164063 .115997318 .42863465 .09399414 .42863465 .07998657 .42863465 .066986087 .42863465 .041992189 .42863465 .027999878 .43164063Z"/>
<path id="font_1_80" d="M.037994386 .20533753C.037994386 .08526611 .116989139-.009765625 .25-.009765625 .38198854-.009765625 .46199037 .08325195 .46199037 .21434021 .46199037 .3504181 .3889923 .43945313 .2539978 .43945313 .12298584 .43945313 .037994386 .3474121 .037994386 .20533753M.24699402 .39944459C.35299684 .39944459 .37399293 .31739808 .37399293 .19631958 .37399293 .10116577 .32598878 .030227662 .25898744 .030227662 .15299988 .030227662 .12599182 .14529419 .12599182 .22233582 .12599182 .3093872 .15299988 .39944459 .24699402 .39944459Z"/>
<path id="font_1_86" d="M.36499024 .09196472 .36898805 .088974 .37399293 .000061035159C.37399293-.0019378662 .37519837-.0029296876 .37799073-.0029296876 .3912964-.0012359619 .40299989 .000061035159 .41749574 .000061035159 .4300995 .000061035159 .44898988-.0009460449 .46199037-.0029296876L.46398927 .000061035159C.45599366 .043014528 .44699098 .11694336 .44699098 .19186402V.24880982C.44699098 .32374574 .44799806 .37568666 .45599366 .42863465L.45399476 .43164063C.44198609 .42964173 .4189911 .42863465 .40699769 .42863465 .394989 .42863465 .37199403 .42964173 .3600006 .43164063L.35798646 .42863465C.36579896 .37149049 .36698915 .32473756 .36698915 .24880982V.15090943C.33648683 .09963989 .2789917 .04623413 .22999573 .04623413 .1954956 .04623413 .16299439 .0572052 .16299439 .15007019V.24891663C.16299439 .32380677 .1639862 .37571717 .17199707 .42863465L.16999817 .43164063C.1579895 .42964173 .1349945 .42863465 .12298584 .42863465 .11099243 .42863465 .08799744 .42964173 .07598877 .43164063L.07398987 .42863465C.08198547 .37173463 .08299255 .32479859 .08299255 .24891663V.12910462C.08299255 .06021118 .114990238-.009765625 .21398926-.009765625 .27598573-.009765625 .33198548 .041229249 .36499024 .092163089V.09196472Z"/>
<path id="font_1_83" d="M.16699219 .33441163V.42544557C.16699219 .43315126 .16569519 .43544007 .16099549 .43544007 .13848877 .43093873 .10269165 .43014527 .07998657 .43244935L.07798767 .42944337C.084991458 .38613893 .08699036 .31037904 .08699036 .23530579V.18025208C.08699036 .10517883 .08580017 .05392456 .07798767 .000061035159L.07998657-.0029296876C.09199524-.00093078616 .114990238 .000061035159 .1269989 .000061035159 .13899231 .000061035159 .1619873-.00093078616 .17399597-.0029296876L.17599488 .000061035159C.16848755 .057128908 .16699219 .10417175 .16699219 .18025208V.2322998C.16699219 .27435304 .17948914 .29837037 .20098877 .33140565 .21549988 .35372926 .23799134 .36643983 .25698854 .36643983 .2769928 .36643983 .29599 .36444093 .30899049 .35243226L.31698609 .35443116 .33699037 .42845155 .33299256 .43244935C.31599427 .43743897 .31498719 .43945313 .29699708 .43945313 .24299622 .43945313 .21398926 .40844728 .16999817 .33241273L.16699219 .33441163Z"/>
<path id="font_1_39" d="M.40699769 .64453127H.14698792C.11299133 .64453127 .09599304 .647522 .09599304 .647522L.09399414 .64453127C.101989749 .5875244 .10398865 .5194855 .10398865 .44444276V.199646C.10398865 .124801639 .101989749 .05393982 .09399414 .000061035159L.09498596-.0029296876C.09498596-.0029296876 .11199951 .000061035159 .14698792 .000061035159 .18099976 .000061035159 .19799805-.0029296876 .19799805-.0029296876L.19999695 .000061035159C.19198609 .0569458 .18998719 .124801639 .18998719 .199646V.31640626C.23799134 .31640626 .34399415 .31340028 .41299439 .306427L.41600038 .30941773C.4139862 .31840516 .41299439 .33239747 .41299439 .34140016 .41299439 .35040284 .4139862 .36439515 .41600038 .37339784L.41299439 .3764038C.35398866 .37139894 .30799867 .36639405 .18998719 .36639405V.44444276C.18998719 .4614563 .19099427 .56451418 .19799805 .58851626 .33198548 .58851626 .46998597 .5765228 .46998597 .5765228L.47200013 .58052065C.47099305 .58851626 .46998597 .6015167 .46998597 .6105194 .46998597 .6185303 .47099305 .6305237 .47200013 .64453127L.46998597 .647522C.45399476 .6455231 .43099977 .64453127 .40699769 .64453127Z"/>
<path id="font_1_66" d="M.30999757 .2253418 .30599977 .10626221C.30599977 .09326172 .2999878 .086257938 .2919922 .08024597 .2639923 .05923462 .22999573 .041229249 .19999695 .041229249 .15499878 .041229249 .12599182 .071243289 .12599182 .102264408 .12599182 .14729309 .14698792 .18132019 .22499085 .20233155L.30999757 .2253418M.3100891 .048233034C.32148744 .009124756 .35139466-.009765625 .3880005-.009765625 .41319276-.009765625 .44400025-.003768921 .46759034 .021224976L.46018983 .045928956C.44929505 .042129518 .4407959 .040725709 .43319703 .040725709 .42329408 .040725709 .4099884 .042633058 .40390016 .048233034 .39369203 .057540895 .38719178 .08175659 .38719178 .12628174 .38719178 .15530396 .3899994 .26635743 .3899994 .27737428 .3899994 .41244508 .30099488 .43943788 .22499085 .43943788 .14898682 .43943788 .102996829 .40245057 .07798767 .3814392L.07499695 .37742616 .09199524 .3103943 .10499573 .3093872C.1329956 .3544159 .16699219 .3944397 .21499634 .3944397 .25099183 .3944397 .31098939 .3894348 .31098939 .2763672 .31098939 .2693634 .30699159 .2653656 .3039856 .26435853L.21099854 .24334717C.10899353 .22033692 .04499817 .16630554 .04499817 .0982666 .04499817 .024230957 .09599304-.009780884 .16999817-.009780884 .22499085-.009780884 .25299073 .0032196046 .30599977 .048233034H.3100891Z"/>
<path id="font_1_68" d="M.25 .39944459C.28849793 .39944459 .32348634 .3709259 .34999085 .32540895L.36299134 .32640077 .38598634 .40844728 .38398744 .411438C.35299684 .42744447 .30099488 .43945313 .25099183 .43945313 .14698792 .43945313 .037994386 .3544159 .037994386 .21833802 .037994386 .07914734 .116989139-.009765625 .23899842-.009765625 .29899598-.009765625 .34599305 .010223389 .38598634 .06123352L.36698915 .08226013H.36299134C.32499696 .048233034 .29319764 .040222169 .2559967 .040222169 .18299866 .040222169 .12599182 .10626221 .12599182 .2233429 .12599182 .33340455 .18399048 .39944459 .25 .39944459Z"/>
<path id="font_1_70" d="M.125 .27339173C.14199829 .3774414 .20748902 .39944459 .23899842 .39944459 .27848817 .39944459 .32299806 .36242677 .32299806 .2873993 .32299806 .2783966 .31900025 .27339173 .30899049 .27339173H.125M.3919983 .104278568C.35699464 .0662384 .30999757 .049224855 .25498963 .049224855 .22079468 .049224855 .17349243 .0622406 .1459961 .106277469 .12838745 .13439942 .12199402 .17524719 .12199402 .23339844H.3939972C.40499879 .23339844 .4119873 .23939514 .4119873 .25039674 .4119873 .33441163 .37098695 .43945313 .23899842 .43945313 .13598633 .43945313 .033996583 .35643006 .033996583 .20936585 .033996583 .15261841 .04548645 .096466068 .07899475 .056228639 .11338806 .014923096 .17059326-.009765625 .23799134-.009765625 .30999757-.009765625 .37399293 .02722168 .4119873 .07925415L.3919983 .104278568Z"/>
<path id="font_1_67" d="M.1619873 .08125305V.34040834C.20098877 .38043214 .22599793 .39944459 .2669983 .39944459 .32809449 .39944459 .38198854 .3491211 .38198854 .22434998 .38198854 .1002655 .34498597 .030227662 .25 .030227662 .21899414 .030227662 .18199158 .056243898 .1619873 .08125305M.1619873 .5003967C.1619873 .5743408 .16329956 .6269989 .16799927 .6882477 .16799927 .6952362 .16529846 .6982422 .15899658 .6982422 .13389588 .6882477 .11248779 .6812439 .07199097 .6782532L.069992069 .6752472C.077697757 .6325836 .08198547 .5583496 .08198547 .48240663V.07325745C.08198547 .034225465 .08119202 .020019532 .07699585-.0017700195 .08299255-.0077667238 .09449768-.009765625 .10499573-.009765625 .115997318 .0022277833 .12748719 .019226075 .13798523 .039230348 .16699219 .014221191 .21299744-.009765625 .2559967-.009765625 .35798646-.009765625 .47099305 .0622406 .47099305 .23234558 .47099305 .3544159 .38398744 .43945313 .2869873 .43945313 .23899842 .43945313 .19599915 .42645265 .1619873 .3894348V.5003967Z"/>
<path id="font_1_76" d="M.08999634 .19995117C.08999634 .12550354 .08848572 .053527833 .08099365 .000061035159L.08299255-.0029296876C.09498596-.00093078616 .117996219 .000061035159 .12998963 .000061035159 .14199829 .000061035159 .16499329-.00093078616 .1769867-.0029296876L.1789856 .000061035159C.17118836 .057037355 .16999817 .124801639 .16999817 .19995117V.20996094C.17819214 .20974732 .20239258 .20664978 .21099854 .19895935 .27598573 .1309967 .2999878 .09501648 .36799623-.0029296876 .38328553-.0011444092 .4169922 .000061035159 .43399049 .000061035159 .45069886 .000061035159 .4850006-.0011444092 .49398805-.0029296876L.49598695 .000061035159C.42160035 .07861328 .36839295 .122802738 .272995 .23796082 .3123932 .27879334 .4099884 .3736267 .47499085 .42863465L.47299195 .43164063C.45399476 .42863465 .39898683 .42863465 .37199403 .42863465 .32888795 .36624146 .25358583 .28538514 .21398926 .2549286 .20129395 .24523926 .18299866 .2411499 .16999817 .24005127V.49978639C.16999817 .5749512 .17428589 .6247711 .1789856 .68821719 .1789856 .6952362 .17630005 .6982422 .16999817 .6982422 .14489746 .68821719 .12348938 .6811981 .08299255 .67819216L.08099365 .67518618C.08869934 .63238528 .08999634 .55792239 .08999634 .4817505V.19995117Z"/>
<path id="font_1_71" d="M.09899902 .42871095C.07728577 .42871095 .05419922 .4289093 .040985109 .43070985 .0342865 .4143982 .028686524 .40470887 .018997193 .38970948L.023986817 .3827057C.041992189 .3840027 .07499695 .3847046 .09799194 .3847046H.09899902V.19888306C.09899902 .12394714 .0974884 .053512575 .08898926 .000061035159L.09098816-.0029296876C.102996829-.0009460449 .1269989 .000061035159 .13899231 .000061035159 .15098572 .000061035159 .1749878-.0009460449 .18699646-.0029296876L.18899536 .000061035159C.18049622 .057006837 .1789856 .12394714 .1789856 .19888306V.3847046H.21299744C.23699951 .3847046 .271698 .3840027 .2849884 .3827057 .28799439 .3986969 .29100038 .40899659 .29699708 .42370606L.2919922 .43070985C.27519227 .42991639 .24499512 .42871095 .22200012 .42871095H.1789856V.43774415C.1789856 .47392274 .17399597 .5261688 .17399597 .5442505 .17399597 .5997162 .20968628 .63723757 .2669983 .63723757 .2926941 .63723757 .31399537 .6223602 .32499696 .60253909L.33599855 .6035156C.34298707 .6302948 .35369874 .6639404 .3639984 .6852417L.36299134 .6882324C.35499574 .6932373 .33699037 .6982422 .31799317 .6982422 .25498963 .6982422 .19169617 .66893008 .1539917 .6213684 .115997318 .5733948 .09899902 .5261688 .09899902 .4678955V.42871095Z"/>
<path id="font_1_74" d="M.07998657 .59742739C.07998657 .5704346 .10398865 .5464325 .1309967 .5464325 .1579895 .5464325 .18199158 .5704346 .18199158 .59742739 .18199158 .6244354 .1579895 .6484375 .1309967 .6484375 .10398865 .6484375 .07998657 .6244354 .07998657 .59742739M.08999634 .2348175V.1798706C.08999634 .10494995 .0881958 .054000856 .08099365 .000061035159L.08299255-.0029296876C.09498596-.0009460449 .117996219 .000061035159 .12998963 .000061035159 .14199829 .000061035159 .16499329-.0009460449 .1769867-.0029296876L.1789856 .000061035159C.1717987 .056793214 .16999817 .10395813 .16999817 .1798706V.25079347C.16999817 .3257141 .17248535 .36167909 .1789856 .42262269 .1789856 .4316101 .17779541 .4326172 .16999817 .4326172 .14729309 .4303131 .10418701 .42991639 .08299255 .4316101L.08099365 .42861939C.08729553 .38586427 .08999634 .30973817 .08999634 .2348175Z"/>
<path id="font_1_79" d="M.45999146 .18025208C.45999146 .21228028 .46199037 .24931336 .46199037 .28134156 .46199037 .38545228 .42799378 .43945313 .33799745 .43945313 .2999878 .43945313 .22898865 .42443849 .16499329 .349411L.16299439 .352417V.42544557C.16279602 .43315126 .16169739 .43544007 .15699768 .43544007 .13449097 .43093873 .09869385 .43014527 .07598877 .43244935L.07398987 .42944337C.08099365 .38613893 .08299255 .31037904 .08299255 .23530579V.18025208C.08299255 .105163577 .08198547 .054122926 .07398987 .000061035159L.07598877-.0029296876C.08799744-.00093078616 .11099243 .000061035159 .12298584 .000061035159 .1349945 .000061035159 .1579895-.00093078616 .16999817-.0029296876L.17199707 .000061035159C.1639862 .057128908 .16299439 .10417175 .16299439 .18025208V.29736329C.21398926 .35742188 .27198792 .3794403 .30799867 .3794403 .35899354 .3794403 .37998963 .35942079 .37998963 .27835084V.18025208C.37998963 .105163577 .3781891 .05392456 .37098695 .000061035159L.37298585-.0029296876C.3849945-.00093078616 .4079895 .000061035159 .41999818 .000061035159 .43199159 .000061035159 .45498658-.00093078616 .46699525-.0029296876L.46899415 .000061035159C.4611969 .057128908 .45999146 .10417175 .45999146 .18025208Z"/>
<path id="font_1_69" d="M.36099244 .11326599C.3244934 .06674194 .27848817 .04222107 .23799134 .04222107 .18399048 .04222107 .13798523 .09625244 .13798523 .221344 .13798523 .37142945 .21759033 .39944459 .2659912 .39944459 .31298829 .39944459 .33699037 .3794403 .36099244 .3414154V.11326599M.36099244 .058242799H.36299134L.36799623 .00022888184C.36799623-.0019378662 .37098695-.0029296876 .3769989-.0029296876 .3902893-.0012359619 .39698792 .000061035159 .41149903 .000061035159 .42408753 .000061035159 .44299317-.00093078616 .45599366-.0029296876L.45799256 .000061035159C.44999696 .04310608 .44099427 .11717224 .44099427 .19224549V.5003967C.44099427 .5743408 .44499208 .6265869 .44999696 .6882477 .44999696 .6952362 .44729615 .6982422 .44099427 .6982422 .41589356 .6882477 .39450074 .6812439 .35398866 .6782532L.35198976 .6752472C.35969544 .6325836 .36099244 .5583496 .36099244 .48240663V.41744996C.33799745 .43045045 .29699708 .43945313 .2769928 .43945313 .14678955 .43945313 .050994874 .34939576 .050994874 .2132721 .050994874 .09025574 .12399292-.009765625 .23199463-.009765625 .27999879-.009765625 .32499696 .011734009 .36099244 .058242799Z"/>
<path id="font_1_84" d="M.049987794 .10127258 .032989503 .017227173C.08999634-.0027770997 .1459961-.009765625 .18399048-.009765625 .32199098-.009765625 .35398866 .072250369 .35398866 .12728882 .35398866 .20933533 .2889862 .24134827 .21798706 .25836183 .18019104 .2674713 .125 .28637696 .125 .33641053 .125 .3774414 .1579895 .39944459 .20098877 .39944459 .25299073 .39944459 .2849884 .35842896 .30799867 .33140565L.32199098 .33241273 .34199525 .40644837 .33999635 .4094391C.31098939 .42443849 .2559967 .43945313 .20498657 .43945313 .1309967 .43945313 .053985597 .40045167 .053985597 .31739808 .053985597 .23735047 .11369324 .2109375 .17399597 .19432068 .23199463 .17831421 .2749939 .16230774 .2749939 .11328125 .2749939 .0602417 .23599243 .030227662 .18299866 .030227662 .1349945 .030227662 .09298706 .06324768 .06498718 .102264408L.049987794 .10127258Z"/>
<path id="font_1_36" d="M.37998963 .6582031C.21099854 .6582031 .051986696 .51220706 .051986696 .31521607 .051986696 .14222718 .15098572-.009765625 .3659973-.009765625 .45838929-.009765625 .5452881 .018920899 .61209109 .09971619 .611496 .11122131 .6094971 .13322449 .60598757 .14222718L.598999 .1452179C.5279999 .067230228 .46798707 .041229249 .375 .041229249 .24819947 .041229249 .15499878 .17822266 .15499878 .33421327 .15499878 .5372009 .28399659 .6111908 .3659973 .6111908 .45599366 .6111908 .5289917 .5751953 .56999209 .49319459L.58200076 .49420167C.58558657 .54519656 .58898928 .56269839 .59999087 .6051941L.59799197 .6082001C.59799197 .6082001 .5019989 .6582031 .37998963 .6582031Z"/>
<path id="font_1_88" d="M.20498657-.0040130617C.21499634-.0010070801 .22799683-.0010070801 .23799134-.0010070801 .24798584-.0010070801 .2649994-.0010070801 .27398683-.0040130617 .3013916 .072891239 .33039857 .15512085 .3625946 .23353577 .39259339 .15551758 .4244995 .07458496 .45298768-.0030059815 .46299745 0 .46899415 0 .47898866 0 .4889984 0 .5069885 0 .5159912-.0030059815 .5649872 .11495972 .644989 .3067627 .70199587 .43164063 .69299319 .42863465 .6689911 .42863465 .6589966 .42863465 .6489868 .42863465 .6339874 .42863465 .625 .43164063 .58799746 .31375123 .54299929 .18589783 .50180056 .09008789H.49378968C.45199586 .19987488 .42099 .32574464 .397995 .43164063 .3849945 .42863465 .3619995 .42863465 .34799195 .42863465 .33198548 .42863465 .30599977 .42863465 .2899933 .43164063 .30369569 .39067079 .31959535 .34672547 .336792 .30107118 .30999757 .22584534 .28279115 .15092469 .25379945 .08909607H.24778748C.19769287 .20347595 .16429138 .3160553 .12799073 .43063355 .114990238 .42764283 .09199524 .42764283 .07798767 .42764283 .06199646 .42764283 .035995485 .42764283 .019989014 .43063355 .08699036 .28378297 .14898682 .14193726 .20498657-.0040130617Z"/>
</defs>
<path transform="matrix(1.00002,0,0,-1,2.1260627,115.384)" stroke-width=".79701" stroke-linecap="butt" stroke-miterlimit="10" stroke-linejoin="miter" fill="none" stroke="#000000" d="M0 0V113.38724H170.08086V0ZM170.08086 113.38724"/>
<use data-text="U" xlink:href="#font_1_54" transform="matrix(10.909318,0,0,-10.9091,106.71116,48.895006)"/>
<use data-text="=" xlink:href="#font_1_30" transform="matrix(10.909318,0,0,-10.9091,116.97683,48.895006)"/>
<use data-text="A" xlink:href="#font_1_34" transform="matrix(10.909318,0,0,-10.9091,125.45337,48.895006)"/>
<use data-text="l" xlink:href="#font_1_77" transform="matrix(10.909318,0,0,-10.9091,132.31534,48.895006)"/>
<use data-text="l" xlink:href="#font_1_77" transform="matrix(10.909318,0,0,-10.9091,135.06449,48.895006)"/>
<use data-text="y" xlink:href="#font_1_90" transform="matrix(10.909318,0,0,-10.9091,140.54096,48.895006)"/>
<use data-text="o" xlink:href="#font_1_80" transform="matrix(10.909318,0,0,-10.9091,145.98471,48.895006)"/>
<use data-text="u" xlink:href="#font_1_86" transform="matrix(10.909318,0,0,-10.9091,151.43936,48.895006)"/>
<use data-text="r" xlink:href="#font_1_83" transform="matrix(10.909318,0,0,-10.9091,157.29767,48.895006)"/>
<use data-text="F" xlink:href="#font_1_39" transform="matrix(10.909318,0,0,-10.9091,112.71628,62.444009)"/>
<use data-text="a" xlink:href="#font_1_66" transform="matrix(10.909318,0,0,-10.9091,118.21458,62.444009)"/>
<use data-text="c" xlink:href="#font_1_68" transform="matrix(10.909318,0,0,-10.9091,123.46196,62.444009)"/>
<use data-text="e" xlink:href="#font_1_70" transform="matrix(10.909318,0,0,-10.9091,128.14206,62.444009)"/>
<use data-text="b" xlink:href="#font_1_67" transform="matrix(10.909318,0,0,-10.9091,133.08399,62.444009)"/>
<use data-text="o" xlink:href="#font_1_80" transform="matrix(10.909318,0,0,-10.9091,138.69138,62.444009)"/>
<use data-text="o" xlink:href="#font_1_80" transform="matrix(10.909318,0,0,-10.9091,144.2224,62.444009)"/>
<use data-text="k" xlink:href="#font_1_76" transform="matrix(10.909318,0,0,-10.9091,149.67707,62.444009)"/>
<use data-text="f" xlink:href="#font_1_71" transform="matrix(10.909318,0,0,-10.9091,118.41139,75.993007)"/>
<use data-text="r" xlink:href="#font_1_83" transform="matrix(10.909318,0,0,-10.9091,121.83692,75.993007)"/>
<use data-text="i" xlink:href="#font_1_74" transform="matrix(10.909318,0,0,-10.9091,125.70973,75.993007)"/>
<use data-text="e" xlink:href="#font_1_70" transform="matrix(10.909318,0,0,-10.9091,128.54616,75.993007)"/>
<use data-text="n" xlink:href="#font_1_79" transform="matrix(10.909318,0,0,-10.9091,133.48807,75.993007)"/>
<use data-text="d" xlink:href="#font_1_69" transform="matrix(10.909318,0,0,-10.9091,139.3682,75.993007)"/>
<use data-text="s" xlink:href="#font_1_84" transform="matrix(10.909318,0,0,-10.9091,145.15013,75.993007)"/>
<path transform="matrix(1.00002,0,0,-1,2.1260627,115.384)" d="M92.1271 56.69362C92.1271 80.17717 73.09047 99.21382 49.6069 99.21382 26.12335 99.21382 7.0867 80.17717 7.0867 56.69362 7.0867 33.21005 26.12335 14.1734 49.6069 14.1734 73.09047 14.1734 92.1271 33.21005 92.1271 56.69362ZM49.6069 56.69362" fill="#fff56d"/>
<path transform="matrix(1.00002,0,0,-1,2.1260627,115.384)" stroke-width=".79701" stroke-linecap="butt" stroke-miterlimit="10" stroke-linejoin="miter" fill="none" stroke="#000000" d="M92.1271 56.69362C92.1271 80.17717 73.09047 99.21382 49.6069 99.21382 26.12335 99.21382 7.0867 80.17717 7.0867 56.69362 7.0867 33.21005 26.12335 14.1734 49.6069 14.1734 73.09047 14.1734 92.1271 33.21005 92.1271 56.69362ZM49.6069 56.69362"/>
<use data-text="C" xlink:href="#font_1_36" transform="matrix(10.909318,0,0,-10.9091,27.48257,62.443)"/>
<use data-text="o" xlink:href="#font_1_80" transform="matrix(10.909318,0,0,-10.9091,34.86818,62.443)"/>
<use data-text="w" xlink:href="#font_1_88" transform="matrix(10.909318,0,0,-10.9091,40.246477,62.443)"/>
<use data-text="o" xlink:href="#font_1_80" transform="matrix(10.909318,0,0,-10.9091,48.03573,62.443)"/>
<use data-text="r" xlink:href="#font_1_83" transform="matrix(10.909318,0,0,-10.9091,53.490388,62.443)"/>
<use data-text="k" xlink:href="#font_1_76" transform="matrix(10.909318,0,0,-10.9091,57.363199,62.443)"/>
<use data-text="e" xlink:href="#font_1_70" transform="matrix(10.909318,0,0,-10.9091,62.850587,62.443)"/>
<use data-text="r" xlink:href="#font_1_83" transform="matrix(10.909318,0,0,-10.9091,67.7925,62.443)"/>
<use data-text="s" xlink:href="#font_1_84" transform="matrix(10.909318,0,0,-10.9091,71.66531,62.443)"/>
</svg>
