<svg xmlns="http://www.w3.org/2000/svg" xmlns:xlink="http://www.w3.org/1999/xlink" xmlns:inkscape="http://www.inkscape.org/namespaces/inkscape" version="1.1" width="244" height="143" viewBox="0 0 244 143">
<defs>
<path id="font_1_27" d="M.6769867 0 .4019928 .69433596H.30499269L.02999878 0H.11199951L.18998719 .19824219H.49398805L.57199099 0H.6769867M.46899415 .25723268H.21499634L.34298707 .61831668 .46899415 .25723268Z"/>
<path id="font_1_77" d="M.46499635 0V.29606629C.46499635 .37408448 .44198609 .45410157 .31900025 .45410157 .2619934 .45410157 .20698548 .4310913 .16299439 .37808229V.45109559H.08299255V0H.16999817V.24305725C.16999817 .30906678 .19799805 .38809205 .2749939 .38809205 .37799073 .38809205 .37799073 .31806947 .37799073 .2890625V0H.46499635Z"/>
<path id="font_1_43" d="M.44099427 .036224367 .43499757 .109191898C.3849945 .07720947 .33099366 .05921936 .2689972 .05921936 .1769867 .05921936 .12298584 .13316345 .12298584 .22309876 .12298584 .30004884 .16299439 .38998414 .27198792 .38998414 .33999635 .38998414 .37199403 .37599183 .4229889 .3440094L.43598939 .41596986C.37599183 .4459839 .34999085 .45898438 .27198792 .45898438 .12199402 .45898438 .035995485 .3380127 .035995485 .22210694 .035995485 .10018921 .13198853-.009765625 .2679901-.009765625 .33799745-.009765625 .397995 .011230469 .44099427 .036224367Z"/>
<path id="font_1_63" d="M.46499635 0V.29606629C.46499635 .37408448 .44198609 .45410157 .31900025 .45410157 .23298645 .45410157 .18699646 .4040985 .16699219 .38308717V.69433596H.08299255V0H.16999817V.24305725C.16999817 .30906678 .19799805 .38809205 .2749939 .38809205 .37799073 .38809205 .37799073 .31806947 .37799073 .2890625V0H.46499635Z"/>
<path id="font_1_81" d="M.5 .21910095C.5 .35101319 .394989 .45898438 .2649994 .45898438 .1349945 .45898438 .02999878 .3500061 .02999878 .21910095 .02999878 .09220886 .13598633-.009765625 .2649994-.009765625 .394989-.009765625 .5 .09220886 .5 .21910095M.41299439 .23010254C.41299439 .11618042 .34199525 .05921936 .2649994 .05921936 .18598938 .05921936 .116989139 .1171875 .116989139 .23010254 .116989139 .34301759 .19099427 .39297486 .2649994 .39297486 .33999635 .39297486 .41299439 .34101869 .41299439 .23010254Z"/>
<path id="font_1_112" d="M.47399903 .44433595H.3939972C.25698854 .109069827 .25099183 .08206177 .24699402 .059036256H.24598694C.23799134 .09806824 .20999146 .16812134 .1789856 .24517823L.09899902 .44433595H.01499939L.19799805 0H.29100038L.47399903 .44433595Z"/>
<path id="font_1_66" d="M.16799927 0V.44433595H.083999637V0H.16799927M.1769867 .5601196V.6611328H.07598877V.5601196H.1769867Z"/>
<path id="font_1_50" d="M.43998719 .21928406C.43998719 .2652893 .43499757 .33213807 .3959961 .3889923 .3600006 .43997193 .2999878 .45898438 .25099183 .45898438 .1289978 .45898438 .034988405 .35209657 .034988405 .22529602 .034988405 .09724426 .1349945-.009765625 .2669983-.009765625 .32499696-.009765625 .3849945 .007232666 .43598939 .038223268L.42999269 .10925293C.37399293 .069229129 .31098939 .056228639 .2679901 .056228639 .18099976 .056228639 .114990238 .1272583 .11199951 .21928406H.43998719M.3789978 .27929688H.11898804C.14199829 .35906983 .20098877 .39297486 .25099183 .39297486 .29499818 .39297486 .3600006 .3720398 .3789978 .27929688Z"/>
<path id="font_1_98" d="M.3829956 .1301117C.3829956 .14808655 .3809967 .18702698 .33898927 .22496033 .3019867 .25790406 .2659912 .26489259 .21798706 .27388 .15899658 .2848816 .11299133 .29388429 .11299133 .33789063 .11299133 .39497376 .18598938 .39497376 .20098877 .39497376 .2579956 .39497376 .3019867 .38294984 .35198976 .35691834L.36499024 .42797853C.29699708 .4559784 .24699402 .45898438 .21099854 .45898438 .18598938 .45898438 .034988405 .45898438 .034988405 .32588197 .034988405 .2788849 .06098938 .25291444 .07398987 .24093628 .10899353 .20599365 .15098572 .19799805 .20399475 .1880188 .25099183 .17903137 .30499269 .16905213 .30499269 .12112427 .30499269 .05822754 .22200012 .05822754 .20799256 .05822754 .14399719 .05822754 .083999637 .08119202 .04399109 .10914612L.02999878 .034225465C.06399536 .017227173 .125-.009765625 .20799256-.009765625 .25299073-.009765625 .29699708-.0027770997 .33399964 .024230957 .37098695 .052230836 .3829956 .09616089 .3829956 .1301117Z"/>
<path id="font_1_85" d="M.35299684-.25C.34999085-.2480011 .25299073-.16500855 .20698548-.009002686 .18299866 .069000247 .17098999 .15098572 .17098999 .25 .17098999 .59599307 .33299256 .7330017 .35299684 .75H.30499269C.28799439 .75 .28599549 .75 .27398683 .7389984 .147995 .6289978 .083999637 .45098878 .083999637 .25 .083999637 .06098938 .14099121-.1210022 .272995-.23701477 .28599549-.25 .28799439-.25 .30499269-.25H.35299684Z"/>
<path id="font_1_82" d="M.45399476 0V.06298828H.32099916V.6767578H.29899598C.23399353 .61683657 .1519928 .61283877 .09199524 .61083987V.54785159C.1309967 .5488434 .18099976 .5508423 .23098755 .57084658V.06298828H.09799194V0H.45399476Z"/>
<path id="font_1_87" d="M.35299684 .5482483C.35299684 .6642456 .2849884 .75024417 .20698548 .75024417 .13398743 .75024417 .05899048 .6702423 .05899048 .5482483 .05899048 .429245 .13198853 .34724427 .20698548 .34724427 .28599549 .34724427 .35299684 .4352417 .35299684 .5482483M.7029877 .72724917C.7029877 .74024966 .69299319 .75024417 .6799927 .75024417 .66799929 .75024417 .6639862 .74424746 .6559906 .73124697L.19400025-.011764526C.18798828-.021759034 .18499756-.025756836 .18499756-.03276062 .18499756-.04576111 .19499207-.055755617 .20799256-.055755617 .21998596-.055755617 .22399903-.04975891 .22999573-.039764406L.69400027 .7062378C.70098879 .7172394 .7029877 .72024539 .7029877 .72724917M.82499697 .14524842C.82499697 .26124574 .7569885 .34724427 .67900088 .34724427 .60398867 .34724427 .5309906 .26423646 .5309906 .14624024 .5309906 .024246216 .60598757-.055755617 .67900088-.055755617 .7579956-.055755617 .82499697 .03224182 .82499697 .14524842M.2789917 .5492401C.2789917 .47424317 .24798584 .41323854 .20698548 .41323854 .18499756 .41323854 .16499329 .4312439 .15299988 .4582367 .14199829 .48724366 .13999939 .5182495 .13999939 .5482483 .13999939 .6752472 .19198609 .6842499 .20698548 .6842499 .25 .6842499 .2789917 .62023928 .2789917 .5492401M.7509918 .14624024C.7509918 .071243289 .7200012 .010238647 .67900088 .010238647 .6569977 .010238647 .6369934 .028244019 .625 .055236818 .6139984 .084243778 .6119995 .115249637 .6119995 .14524842 .6119995 .2722473 .6639862 .28125 .67900088 .28125 .7220001 .28125 .7509918 .21723938 .7509918 .14624024Z"/>
<path id="font_1_86" d="M.32798768 .25C.32798768 .43899537 .2709961 .62098696 .13899231 .7369995 .12599182 .75 .12399292 .75 .10699463 .75H.05899048C.06199646 .7480011 .15899658 .6649933 .20498657 .5089874 .22898865 .43099977 .24099732 .34899903 .24099732 .25 .24099732-.0960083 .07899475-.23300171 .05899048-.25H.10699463C.12399292-.25 .12599182-.25 .13798523-.23901367 .2639923-.12901306 .32798768 .04899597 .32798768 .25Z"/>
<path id="font_1_34" d="M.647995 .18798828C.647995 .27598573 .5549927 .34700013 .44400025 .36299134 .5479889 .38812257 .6179962 .4481659 .6179962 .52023318 .6179962 .6123047 .5029907 .69433596 .35598756 .69433596H.099990848V0H.3849945C.5329895 0 .647995 .088012699 .647995 .18804932V.18798828M.5309906 .5192261C.5309906 .4521637 .43998719 .39411927 .32699586 .39411927H.19400025V.6353302H.32598878C.43798829 .6353302 .5309906 .5832825 .5309906 .5192261M.5569916 .1890564C.5569916 .11502075 .46398927 .05899048 .35398866 .05899048H.19400025V.328125H.33699037C.46299745 .328125 .5569916 .26408387 .5569916 .1890564Z"/>
<path id="font_1_28" d="M.43598939 .00022888184V.28799439C.43598939 .38998414 .35798646 .45898438 .25898744 .45898438 .19599915 .45898438 .147995 .4459839 .09199524 .41596986L.09799194 .34298707C.1309967 .36497499 .17999268 .39497376 .25898744 .39497376 .30299378 .39497376 .34899903 .36198426 .34899903 .2869873V.24699402C.20098877 .24198914 .054992677 .21099854 .054992677 .118118289 .054992677 .06820679 .08898926-.009765625 .1769867-.009765625 .21998596-.009765625 .29899598-.00077819827 .35198976 .038223268V.00022888184H.43598939M.34899903 .14207459C.34899903 .12211609 .34899903 .09616089 .31399537 .07519531 .28199769 .05722046 .24299622 .056228639 .23199463 .056228639 .1769867 .056228639 .1349945 .08117676 .1349945 .11911011 .1349945 .18299866 .3039856 .18899536 .34899903 .19099427V.14207459Z"/>
<path id="font_1_78" d="M.48599244 .33477784C.48599244 .60775759 .36499024 .6767578 .2689972 .6767578 .17999268 .6767578 .13899231 .63475039 .10998535 .60575869 .04598999 .5407562 .04399109 .47175599 .04399109 .43276979 .04399109 .30377198 .11399841 .19277954 .21199036 .19277954 .32499696 .19277954 .3869934 .2677765 .3919983 .2737732 .37799073 .11463928 .2999878 .044509889 .21798706 .044509889 .1659851 .044509889 .13398743 .0635376 .11099243 .08258057L.07699585 .024505616C.12599182-.011489868 .17098999-.021484375 .21798706-.021484375 .35798646-.021484375 .48599244 .119644168 .48599244 .33477784M.3899994 .41177369C.3899994 .33776856 .34498597 .25878907 .2579956 .25878907 .21998596 .25878907 .18998719 .2697754 .1639862 .31077577 .13798523 .34977723 .13598633 .3877716 .13598633 .43276979 .13598633 .47175599 .13598633 .51675418 .16699219 .5607605 .18798828 .5907593 .21798706 .6147461 .2679901 .6147461 .36499024 .6147461 .38598634 .49775697 .3889923 .4337616 .3899994 .4277649 .3899994 .4177704 .3899994 .41177369Z"/>
<path id="font_1_42" d="M.6230011 .04623413 .61698916 .12220764C.58599856 .10221863 .55400088 .082214359 .5189972 .07122803 .48399354 .06022644 .44799806 .05921936 .4119873 .05921936 .34498597 .05921936 .2829895 .09222412 .23899842 .14320374 .19099427 .20019531 .16799927 .27316285 .16799927 .3471527 .16799927 .4221344 .19099427 .4941101 .23899842 .5511017 .2829895 .6020813 .34498597 .6350708 .4119873 .6350708 .44400025 .6350708 .47599793 .6320801 .5069885 .6230774 .5389862 .6130829 .56799319 .5970764 .59599307 .5790863L.6119995 .67007449C.5799866 .68107607 .5469971 .69107058 .5130005 .69706729 .47999574 .70306399 .44599916 .7050781 .4119873 .7050781 .31999208 .7050781 .23199463 .66607668 .16799927 .6000824 .102996829 .5321045 .066986087 .4411316 .066986087 .3471527 .066986087 .25317384 .102996829 .16220093 .16799927 .09422302 .23199463 .02822876 .31999208-.009765625 .4119873-.009765625 .44898988-.009765625 .48599244-.008773804 .5219879 .00022888184 .55799868 .010223389 .59098818 .02722168 .6230011 .04623413Z"/>
<path id="font_1_51" d="M.48599244 .18174744C.48599244 .2587433 .42900086 .3267517 .34199525 .3537445 .4079895 .37475587 .47099305 .42774964 .47099305 .50175479 .47099305 .5927429 .38398744 .6767578 .2649994 .6767578 .1459961 .6767578 .05899048 .5927429 .05899048 .50175479 .05899048 .42671205 .12399292 .37371827 .18798828 .353714 .099990848 .32670594 .04399109 .258667 .04399109 .1816101 .04399109 .074523929 .13899231-.021484375 .2649994-.021484375 .3909912-.021484375 .48599244 .074523929 .48599244 .1816101V.18174744M.3939972 .5007324C.3939972 .42971803 .33799745 .38671876 .2649994 .38671876 .19400025 .38671876 .13598633 .42771913 .13598633 .5007324 .13598633 .56474307 .18099976 .6147461 .2649994 .6147461 .34799195 .6147461 .3939972 .56474307 .3939972 .5007324M.394989 .18260193C.394989 .08854675 .33299256 .044509889 .2649994 .044509889 .19599915 .044509889 .1349945 .08854675 .1349945 .18260193 .1349945 .27267457 .19299317 .32070924 .2649994 .32070924 .33699037 .32070924 .394989 .27166749 .394989 .18260193Z"/>
<path id="font_1_83" d="M.61898806 .49124146C.61898806 .5983124 .5130005 .69433596 .36799623 .69433596H.09799194V0H.19898987V.28515626H.375C.5039978 .28515626 .61898806 .37615968 .61898806 .49124146M.5279999 .49124146C.5279999 .40919496 .45999146 .3471527 .34298707 .3471527H.19599915V.6353302H.34298707C.45599366 .6353302 .5279999 .57528689 .5279999 .49124146Z"/>
<path id="font_1_84" d="M.5119934 .22315979C.5119934 .34310914 .44599916 .45410157 .34700013 .45410157 .3019867 .45410157 .22698975 .44110108 .16899109 .39608766V.4440918H.084991458V-.19335938H.17199707V.047225954C.22499085-.00077819827 .28199769-.009765625 .31599427-.009765625 .42199708-.009765625 .5119934 .09121704 .5119934 .22315979M.4249878 .22315979C.4249878 .12420654 .34999085 .056228639 .27198792 .056228639 .25698854 .056228639 .23199463 .05822754 .20599365 .07922363 .17599488 .10220337 .17199707 .11720276 .17199707 .13619995V.3321228C.19499207 .36010743 .23399353 .38510133 .28199769 .38510133 .3619995 .38510133 .4249878 .3111267 .4249878 .22315979Z"/>
<path id="font_1_96" d="M.34700013 .38008119V.45410157C.2630005 .45309449 .20199585 .41207887 .1619873 .35906983V.45109559H.084991458V0H.16899109V.21304322C.16899109 .32106019 .25898744 .3790741 .34700013 .38008119Z"/>
<path id="font_1_107" d="M.47698976 0V.07699585H.2829895C.2709961 .07699585 .25898744 .07598877 .24699402 .07598877H.1329956L.28799439 .21289063C.30599977 .22888184 .35499574 .2658844 .37399293 .2818756 .41799928 .3218689 .47698976 .37384034 .47698976 .46081544 .47698976 .573761 .3929901 .6767578 .25 .6767578 .14399719 .6767578 .07798767 .619751 .04399109 .51779177L.09098816 .45881654C.11399841 .5427704 .14898682 .60775759 .23599243 .60775759 .31999208 .60775759 .38398744 .5487671 .38398744 .45881654 .38398744 .37583924 .33499146 .32885743 .2749939 .2718811 .25498963 .25187684 .20098877 .20689392 .17999268 .1869049 .15098572 .16099549 .08198547 .09399414 .052993776 .068984989V0H.47698976Z"/>
<path id="font_1_74" d="M.82099917 0V.69433596H.69799807L.5569916 .3471527C.54499819 .31713868 .47299195 .1410675 .46299745 .0990448H.46199037C.45498658 .12805176 .40899659 .24310303 .39898683 .26911927L.22698975 .69433596H.10499573V0H.18899536V.61428835H.18998719C.19799805 .5792694 .25 .4472046 .25498963 .436203L.42199708 .020996094H.5009918L.6499939 .38917542C.6499939 .38917542 .71899417 .56025698 .73599246 .61528018H.7369995V0H.82099917Z"/>
<path id="font_1_109" d="M.46499635 .00022888184V.44433595H.37799073V.1542511C.37799073 .07423401 .30999757 .049224855 .2519989 .049224855 .17799378 .049224855 .16999817 .069229129 .16999817 .115249637V.44433595H.08299255V.10923767C.08299255 .020233155 .12199402-.009765625 .19198609-.009765625 .23298645-.009765625 .32099916-.0017700195 .3809967 .04623413V.00022888184H.46499635Z"/>
<path id="font_1_75" d="M.7599945 0V.29606629C.7599945 .37408448 .7369995 .45410157 .6139984 .45410157 .5299988 .45410157 .47799684 .40509034 .45399476 .37309266 .44400025 .4001007 .4189911 .45410157 .31900025 .45410157 .2619934 .45410157 .20698548 .4310913 .16299439 .37808229V.45109559H.08299255V0H.16999817V.24305725C.16999817 .30906678 .19799805 .38809205 .2749939 .38809205 .37799073 .38809205 .37799073 .31806947 .37799073 .2890625V0H.46499635V.24305725C.46499635 .30906678 .49299623 .38809205 .56999209 .38809205 .6729889 .38809205 .6729889 .31806947 .6729889 .2890625V0H.7599945Z"/>
<path id="font_1_57" d="M.5 .16699219V.23298645H.3959961V.65625H.29699708L.02999878 .23298645V.16699219H.30999757V0H.3959961V.16699219H.5M.31698609 .23298645H.114990238C.14498902 .28001405 .31599427 .5471802 .31698609 .60720828V.23298645Z"/>
<path id="font_1_80" d="M.72499087 .3436737C.72499087 .55078127 .57299807 .71484377 .3919983 .71484377 .21099854 .71484377 .05899048 .55078127 .05899048 .3436737 .05899048 .1365509 .21299744-.021484375 .3919983-.021484375 .57199099-.021484375 .72499087 .13755799 .72499087 .3436737M.6239929 .35968019C.6239929 .16957093 .5130005 .04951477 .3919983 .04951477 .2709961 .04951477 .1599884 .170578 .1599884 .35968019 .1599884 .5367737 .27198792 .6458435 .3919983 .6458435 .5119934 .6458435 .6239929 .5367737 .6239929 .35968019Z"/>
<path id="font_1_72" d="M.16799927 0V.69433596H.083999637V0H.16799927Z"/>
<path id="font_1_56" d="M.47698976 .20271302C.47698976 .32676698 .3849945 .42578126 .2749939 .42578126 .23199463 .42578126 .19400025 .4107666 .1639862 .3857727V.58724978H.44099427V.65625H.083999637V.28173829H.15699768C.18099976 .33576966 .22799683 .35977174 .272995 .35977174 .31399537 .35977174 .37599183 .3317566 .37599183 .20471192 .37599183 .07357788 .29299928 .044509889 .24198914 .044509889 .17599488 .044509889 .11199951 .079589847 .07798767 .13671875L.039993287 .07658386C.08898926 .01550293 .16299439-.021484375 .24198914-.021484375 .37399293-.02128601 .47698976 .080703739 .47698976 .20271302Z"/>
<path id="font_1_101" d="M.48599244 .2224884C.48599244 .3534851 .4149933 .46247865 .31799317 .46247865 .21998596 .46247865 .16699219 .41148377 .13798523 .3824768 .15098572 .519577 .22099304 .6147461 .32899476 .6147461 .34899903 .6147461 .3889923 .6127472 .43899537 .5937042V.65675356C.3849945 .6767578 .34700013 .6767578 .32798768 .6767578 .17599488 .6767578 .04399109 .53359988 .04399109 .32247926 .04399109 .051513673 .1659851-.021484375 .2669983-.021484375 .34799195-.021484375 .3899994 .01651001 .42099 .04850769 .4850006 .116500858 .48599244 .1875 .48599244 .2224884M.3939972 .2224884C.3939972 .18449402 .3939972 .14250183 .36698915 .10050964 .34298707 .0644989 .31298829 .044509889 .2669983 .044509889 .16099549 .044509889 .14399719 .17549134 .13899231 .21949768 .13899231 .22549439 .13899231 .24049378 .13999939 .2454834 .13999939 .31349183 .18299866 .39648438 .27198792 .39648438 .3939972 .39648438 .3939972 .256485 .3939972 .2224884Z"/>
<path id="font_1_97" d="M.5299988 .19158936C.5299988 .27262879 .48298646 .3186493 .46299745 .33966065 .42099 .38069154 .375 .39169313 .2979889 .4096985 .23699951 .42370606 .20498657 .43171693 .18099976 .45472718 .16799927 .46774293 .14498902 .49075318 .14498902 .5287781 .14498902 .58480837 .20098877 .6428375 .2979889 .6428375 .37399293 .6428375 .4269867 .6188202 .47799684 .5757904L.49398805 .6658325C.42999269 .6988373 .37298585 .71484377 .29899598 .71484377 .147995 .71484377 .05899048 .6128235 .05899048 .5167694 .05899048 .47573854 .07199097 .42771913 .12098694 .38168336 .16499329 .34066773 .21099854 .33065797 .272995 .31565858 .35699464 .29563905 .37998963 .29063417 .40899659 .26062013 .42799378 .24160767 .44400025 .21359253 .44400025 .17958069 .44400025 .11753845 .3880005 .053512575 .29100038 .053512575 .23399353 .053512575 .14199829 .070510867 .06298828 .13755799L.04699707 .04750061C.09700012 .018508912 .17999268-.021484375 .2919922-.021484375 .43099977-.021484375 .5299988 .07952881 .5299988 .19158936Z"/>
<path id="font_1_59" d="M.5149994 .38609315 .5029907 .45410157C.48098756 .45410157 .4139862 .45309449 .33799745 .42408753L.33599855 .4230957C.2999878 .44709779 .2649994 .45410157 .23599243 .45410157 .13798523 .45410157 .06498718 .37709046 .06498718 .29109193 .06498718 .25608827 .07699585 .22009278 .099990848 .1920929 .085998538 .1750946 .070999149 .14709473 .070999149 .10910034 .070999149 .07009888 .08699036 .04508972 .09599304 .033096315 .040985109 .0011291504 .02999878-.044921876 .02999878-.06896973 .02999878-.14508057 .1349945-.20507813 .2649994-.20507813 .3959961-.20507813 .5-.14508057 .5-.06896973 .5 .072128299 .32499696 .072128299 .28199769 .072128299H.18899536C.17298889 .072128299 .12998963 .072128299 .12998963 .1239624 .12998963 .14395142 .13699341 .15394593 .13798523 .15594483 .17298889 .13394165 .20799256 .12695313 .23498535 .12695313 .33299256 .12695313 .4059906 .20394898 .4059906 .2899475 .4059906 .3219452 .39698792 .35095216 .3789978 .37794496 .375 .38394166 .375 .38594056 .375 .38594056 .375 .3899536 .43499757 .3899536 .43998719 .3899536 .43998719 .3899536 .47898866 .3899536 .5149994 .38594056V.38609315M.32899476 .29093934C.32899476 .21295166 .2789917 .18894959 .23599243 .18894959 .18199158 .18902588 .14199829 .22303772 .14199829 .29005433 .14199829 .36808778 .19198609 .39208985 .23498535 .39208985 .2889862 .39208985 .32899476 .358078 .32899476 .2910614V.29093934M.42399598-.07006836C.42399598-.113082889 .34899903-.14308167 .2649994-.14308167 .18099976-.14286804 .10598755-.11286926 .10598755-.069869998 .10598755-.06486511 .10598755-.005859375 .18699646-.005859375H.2829895C.30599977-.005859375 .42399598-.005859375 .42399598-.069869998V-.07006836Z"/>
<path id="font_2_54" d="M.56399539 .63539126V.6434021C.56399539 .6753998 .5569916 .69140627 .5159912 .69140627H.13899231C.102996829 .69140627 .09098816 .68040469 .09098816 .6434021V.048080446C.09098816 .012008667 .101989749 0 .13899231 0H.18998719C.22799683 0 .23799134 .013015747 .23799134 .048080446V.2995453H.46998597C.5009918 .2995453 .5179901 .30654908 .5179901 .34654237 .5179901 .38354493 .5049896 .3935547 .46998597 .3935547H.23799134V.59039309H.2809906L.5069885 .58740237C.54100039 .58740237 .56399539 .58740237 .56399539 .63539126Z"/>
<path id="font_2_28" d="M.47399903 .04824829V.31578065C.47399903 .4736023 .32199098 .47460938 .27198792 .47460938 .22499085 .47460938 .1749878 .4705963 .10798645 .44259645 .08699036 .433609 .08198547 .43060304 .08198547 .41960145 .08198547 .41259767 .08799744 .3547058 .08898926 .34672547 .08999634 .34072877 .09498596 .33573915 .101989749 .33573915 .10699463 .33573915 .10998535 .33872987 .11299133 .34172059 .1559906 .38664247 .20599365 .40859986 .2679901 .40859986 .32199098 .40859986 .33799745 .3756714 .33799745 .31677247V.2818451C.30299378 .2818451 .040985109 .2798462 .040985109 .13311768 .040985109 .06324768 .09700012-.0107421879 .18499756-.0107421879 .21899414-.0107421879 .2939911-.00074768069 .34098817 .068237308V.04824829C.34098817 .01625061 .34799195 .00024414063 .3889923 .00024414063H.42599488C.46398927 .00024414063 .47399903 .013244629 .47399903 .04824829M.33799745 .15408325C.33799745 .06124878 .24299622 .06124878 .23999024 .06124878 .19799805 .06124878 .17098999 .09718323 .17098999 .13511658 .17098999 .23292542 .30999757 .23991394 .33799745 .24092102V.15408325Z"/>
<path id="font_2_112" d="M.47299195 .42999269C.47299195 .4580078 .44799806 .4580078 .43299867 .4580078H.4119873C.36999513 .4580078 .35899354 .44299317 .34999085 .4149933L.25099183 .11299133 .1519928 .4149933C.14498902 .43600465 .13798523 .4580078 .08999634 .4580078H.06599426C.050994874 .4580078 .025985718 .4580078 .025985718 .42999269 .025985718 .42700196 .025985718 .42500306 .0309906 .41099549L.1499939 .041992189C.1639862 0 .19499207 0 .21299744 0H.28599549C.3039856 0 .33499146 0 .34899903 .041992189L.46798707 .41099549C.47299195 .42500306 .47299195 .42700196 .47299195 .42999269Z"/>
<path id="font_2_81" d="M.5179901 .22494507C.5179901 .3886261 .43798829 .47460938 .2749939 .47460938 .10798645 .47460938 .0309906 .38563539 .0309906 .22494507 .0309906 .06225586 .116989139-.0107421879 .27398683-.0107421879 .43099977-.0107421879 .5179901 .06124878 .5179901 .22494507M.38198854 .23692322C.38198854 .15808106 .38198854 .06724548 .2749939 .06724548 .16699219 .06724548 .16699219 .15707398 .16699219 .23692322 .16699219 .31376649 .16699219 .40260316 .27398683 .40260316 .38198854 .40260316 .38198854 .31477357 .38198854 .23692322Z"/>
<path id="font_2_96" d="M.35598756 .39486695V.441864C.35598756 .46185304 .35598756 .4688568 .33799745 .4688568 .30999757 .4688568 .23699951 .4588623 .18998719 .3508606H.18899536V.41586305C.18899536 .44786073 .18199158 .4638672 .14099121 .4638672H.10899353C.07299805 .4638672 .06098938 .4528656 .06098938 .41586305V.047973634C.06098938 .011993408 .07199097 0 .10899353 0H.1459961C.18399048 0 .19400025 .0129852299 .19400025 .047973634V.22990418C.19400025 .32487489 .272995 .36386109 .33599855 .3678589 .35398866 .36886598 .35598756 .36886598 .35598756 .39486695Z"/>
<path id="font_2_66" d="M.19400025 .04798889V.41000367C.19400025 .44200135 .18699646 .4580078 .1459961 .4580078H.10899353C.07299805 .4580078 .06098938 .44700624 .06098938 .41000367V.04798889C.06098938 .011993408 .07199097 0 .10899353 0H.1459961C.18399048 0 .19400025 .0129852299 .19400025 .04798889M.20098877 .6058502V.6248474C.20098877 .6568451 .19400025 .67285159 .15299988 .67285159H.101989749C.06399536 .67285159 .053985597 .6598511 .053985597 .6248474V.6058502C.053985597 .57684329 .05899048 .55784609 .101989749 .55784609H.15299988C.19499207 .55784609 .20098877 .5758362 .20098877 .6058502Z"/>
<path id="font_2_105" d="M.37298585 .04725647C.37298585 .050247194 .37098695 .057250978 .36499024 .078125 .3600006 .09811401 .35798646 .10411072 .34899903 .10411072 .34399415 .10411072 .34298707 .1031189 .33699037 .09712219 .32598878 .08911133 .29899598 .06724548 .25698854 .06724548 .23298645 .06724548 .21798706 .084121707 .21798706 .15011597V.3860016H.30699159C.31900025 .3860016 .35499574 .3860016 .35499574 .42199708 .35499574 .4580078 .31900025 .4580078 .30699159 .4580078H.21798706V.5409088C.21798706 .572876 .21099854 .5888672 .16999817 .5888672H.13899231C.102996829 .5888672 .09098816 .5778656 .09098816 .5409088V.4580078H.067993167C.056991579 .4580078 .019989014 .4580078 .019989014 .42199708 .019989014 .3860016 .055999757 .3860016 .067993167 .3860016H.08799744V.13311768C.08799744 .03225708 .12399292-.0107421879 .19299317-.0107421879 .20199585-.0107421879 .24598694-.0107421879 .2979889 .0052490236 .31498719 .010253906 .37298585 .028244019 .37298585 .04725647Z"/>
<path id="font_2_50" d="M.47898866 .25959779C.47898866 .38859559 .4189911 .47460938 .269989 .47460938 .10998535 .47525025 .0309906 .3852539 .0309906 .23324585 .0309906 .069244388 .12599182-.0107421879 .2829895-.0107421879 .32099916-.0107421879 .37799073-.0057525637 .44400025 .027252198 .46598817 .038253786 .47299195 .041244508 .47299195 .053253175 .47299195 .060256959 .46998597 .08924866 .46899415 .09724426 .46499635 .12825012 .46398927 .1292572 .45498658 .1292572 .45098878 .1292572 .44898988 .1292572 .43798829 .11924744 .3789978 .06825256 .31900025 .06124878 .2869873 .06124878 .17399597 .06085205 .1619873 .14985657 .15899658 .21386719H.43099977C.45399476 .21386719 .47898866 .21485901 .47898866 .25985719V.25959779M.36799623 .26686097H.1599884C.16299439 .32774354 .18299866 .40260316 .269989 .40260316 .34999085 .40260316 .36499024 .3447113 .36799623 .26686097Z"/>
<path id="font_2_83" d="M.6409912 .47843934C.6409912 .6293335 .54299929 .69433596 .3889923 .69433596H.13899231C.102996829 .69433596 .09098816 .68333438 .09098816 .6463318V.048095704C.09098816 .012023926 .101989749 0 .13899231 0H.18998719C.22799683 0 .23799134 .013015747 .23799134 .048095704V.2685547H.3899994C.5469971 .2685547 .6409912 .33454896 .6409912 .47843934M.5019989 .47843934C.5019989 .41149903 .4909973 .34754945 .35699464 .34754945H.23498535V.60832217H.35798646C.4889984 .60832217 .5019989 .5483856 .5019989 .47843934Z"/>
<path id="font_2_120" d="M.44099427 .036987306C.44099427 .07499695 .4099884 .07499695 .3809967 .07499695L.22799683 .07299805H.18199158L.42599488 .38200379C.43598939 .39500428 .43798829 .3999939 .43798829 .41600038 .43798829 .4580078 .40699769 .4580078 .3899994 .4580078H.09399414C.08099365 .4580078 .04598999 .4580078 .04598999 .41999818 .04598999 .3829956 .07798767 .3829956 .10499573 .3829956L.25 .3849945H.2869873L.042999269 .07598877C.032989503 .06298828 .0309906 .057998659 .0309906 .041992189 .0309906 0 .06199646 0 .07899475 0H.3929901C.4059906 0 .44099427 0 .44099427 .036987306Z"/>
<path id="font_2_104" d="M.69200137 .63246157V.6404724C.69200137 .6724701 .68499758 .68847659 .6439972 .68847659H.08799744C.051986696 .68847659 .039993287 .677475 .039993287 .6404724V.63246157C.039993287 .58447268 .06399536 .58447268 .09199524 .58447268L.29299928 .5874634V.048034669C.29299928 .012008667 .3039856 0 .34098817 0H.3919983C.42999269 0 .43998719 .013000488 .43998719 .048034669V.5874634L.6399994 .58447268C.66799929 .58447268 .69200137 .58447268 .69200137 .63246157Z"/>
<path id="font_2_84" d="M.522995 .23098755C.522995 .27990724 .522995 .46875 .34199525 .46875 .2829895 .46875 .22999573 .44474793 .19400025 .41073609 .19400025 .44773866 .17999268 .4577484 .1459961 .4577484H.10899353C.07299805 .4577484 .06098938 .44674684 .06098938 .40974427V-.14546204C.06098938-.18139649 .07199097-.19335938 .10899353-.19335938H.14898682C.18699646-.19335938 .19699097-.1803894 .19699097-.14546204V.039245607C.24198914-.0107421879 .29699708-.0107421879 .31098939-.0107421879 .522995-.0107421879 .522995 .18106079 .522995 .23098755M.3869934 .22898865C.3869934 .1890564 .3869934 .06124878 .27398683 .06124878 .25099183 .06124878 .23298645 .069244388 .22099304 .07823181 .19699097 .095199588 .19699097 .10018921 .19699097 .11816406V.3577881C.20799256 .3677826 .24099732 .39074708 .28399659 .39074708 .38598634 .39074708 .3869934 .2729187 .3869934 .22898865Z"/>
<path id="font_2_77" d="M.5 .047470094V.32447816C.5 .42774964 .45599366 .46875 .35398866 .46875 .24899292 .46875 .20399475 .39274598 .19099427 .36576844H.18998719V.41574098C.18998719 .44773866 .18299866 .46374513 .14199829 .46374513H.10798645C.07199097 .46374513 .05999756 .45274354 .05999756 .41574098V.047958375C.05999756 .011978149 .070999149 0 .10798645 0H.147995C.18598938 0 .19599915 .0129852299 .19599915 .047958375V.26882936C.19599915 .35577394 .2539978 .39674378 .30599977 .39674378 .35398866 .39674378 .3639984 .37376405 .3639984 .32278443V.047958375C.3639984 .015975953 .37098695 0 .4119873 0H.45199586C.48999024 0 .5 .0129852299 .5 .047958375V.047470094Z"/>
<path id="font_2_59" d="M.5339966 .40473939C.5339966 .40873719 .5289917 .43273927 .5269928 .44274903 .522995 .46673585 .522995 .46875 .5049896 .46875 .47399903 .46875 .42399598 .45674134 .38598634 .43374635 .33898927 .46473695 .2869873 .46875 .24398804 .46875 .20199585 .46875 .042999269 .46875 .042999269 .30386354 .042999269 .26391603 .053985597 .21398926 .09199524 .18103028 .06498718 .14405823 .06498718 .10505676 .06498718 .10005188 .06498718 .08106995 .070999149 .048080446 .09199524 .021102906 .07699585 .015106201 .024993897-.0028839112 .024993897-.066833499 .024993897-.0978241 .039993287-.14979553 .102996829-.17880249 .1599884-.20480347 .22698975-.20579529 .27398683-.20579529 .33299256-.20579529 .5239868-.20579529 .5239868-.06384277 .5239868 .092056278 .3829956 .092056278 .24798584 .092056278H.19999695C.1639862 .092056278 .1499939 .092056278 .13598633 .10404968 .13198853 .108047489 .114990238 .123062137 .114990238 .14904785 .114990238 .15605164 .115997318 .15805054 .116989139 .1640625 .1639862 .13795471 .22299195 .13795471 .24398804 .13795471 .28599549 .13795471 .44499208 .13795471 .44499208 .3028412 .44499208 .3607788 .4229889 .3957367 .4139862 .40673829 .43099977 .40673829 .46598817 .40673829 .5069885 .3957367 .5109863 .3937378 .5179901 .39175416 .5209961 .39175416 .5289917 .39175416 .5339966 .3977356 .5339966 .40473939M.31698609 .30384828C.31698609 .24891663 .31399537 .20996094 .24398804 .20996094 .17399597 .20996094 .17098999 .24790955 .17098999 .3028412 .17098999 .3577881 .17399597 .39674378 .24398804 .39674378 .31399537 .39674378 .31698609 .3587799 .31698609 .30384828M.42099-.06669617C.42099-.13378906 .30699159-.13378906 .2749939-.13378906 .23498535-.13378906 .12799073-.13378906 .12799073-.063690189 .12799073-.016601563 .15899658-.016601563 .18199158-.016601563H.2979889C.3789978-.01701355 .42099-.03100586 .42099-.06700134V-.06669617Z"/>
<path id="font_2_98" d="M.3959961 .14111328C.3959961 .19700623 .3659973 .2319336 .34799195 .24790955 .30799867 .28382875 .272995 .28982545 .23098755 .2978058 .17599488 .30778504 .13598633 .31576539 .13598633 .35469056 .13598633 .39561463 .16899109 .40359498 .20799256 .40359498 .2749939 .40359498 .31098939 .37864686 .33699037 .35668946 .34700013 .3467102 .34899903 .3467102 .35299684 .3467102 .36299134 .3467102 .36499024 .35569764 .3659973 .35968019 .36799623 .36767579 .37799073 .42359925 .37799073 .42860414 .37799073 .44459535 .32499696 .4586029 .31399537 .4626007 .27398683 .4736023 .24198914 .47460938 .21598816 .47460938 .17098999 .47460938 .036987306 .47460938 .036987306 .33174134 .036987306 .2828369 .05899048 .25289918 .085998538 .22894287 .12098694 .19700623 .1599884 .1900177 .21699524 .17903137 .24598694 .17404175 .29699708 .16506958 .29699708 .12113953 .29699708 .07423401 .2579956 .06724548 .21899414 .06724548 .1749878 .06724548 .11898804 .08023071 .07199097 .13612366 .066986087 .14111328 .06399536 .144104 .057998659 .144104 .04798889 .144104 .04598999 .13511658 .04499817 .12913513 .042999269 .11515808 .0309906 .058242799 .0309906 .04824829 .0309906 .03024292 .10598755 .0062561037 .10598755 .0062561037 .16099549-.0107421879 .20199585-.0107421879 .21899414-.0107421879 .269989-.0107421879 .3959961-.0067443849 .3959961 .14111328Z"/>
</defs>
<path transform="matrix(1.00003,0,0,-1.00005,121.86423,84.77763)" d="M0 0V56.69362C1.186 56.69362 2.3755 56.65294 3.55891 56.57855Z" fill="#ff4d4d"/>
<path transform="matrix(1.00003,0,0,-1.00005,121.86423,84.77763)" stroke-width=".19925" stroke-linecap="butt" stroke-miterlimit="10" stroke-linejoin="miter" fill="none" stroke="#000000" d="M0 0V56.69362C1.186 56.69362 2.3755 56.65294 3.55891 56.57855Z"/>
<path transform="matrix(1.00003,0,0,-1.00005,121.86423,84.77763)" d="M0 0 3.55891 56.57855C14.29277 55.9038 24.62093 52.18742 33.32271 45.86546Z" fill="#ffa64d"/>
<path transform="matrix(1.00003,0,0,-1.00005,121.86423,84.77763)" stroke-width=".19925" stroke-linecap="butt" stroke-miterlimit="10" stroke-linejoin="miter" fill="none" stroke="#000000" d="M0 0 3.55891 56.57855C14.29277 55.9038 24.62093 52.18742 33.32271 45.86546Z"/>
<path transform="matrix(1.00003,0,0,-1.00005,121.86423,84.77763)" d="M0 0 33.32271 45.86546C51.08618 32.96025 59.8018 10.94406 55.68752-10.62312Z" fill="#fff56d"/>
<path transform="matrix(1.00003,0,0,-1.00005,121.86423,84.77763)" stroke-width=".19925" stroke-linecap="butt" stroke-miterlimit="10" stroke-linejoin="miter" fill="none" stroke="#000000" d="M0 0 33.32271 45.86546C51.08618 32.96025 59.8018 10.94406 55.68752-10.62312Z"/>
<path transform="matrix(1.00003,0,0,-1.00005,121.86423,84.77763)" d="M0 0 55.68752-10.62312C52.98676-24.78354 44.98566-37.3929 33.32271-45.8663Z" fill="#82ff4d"/>
<path transform="matrix(1.00003,0,0,-1.00005,121.86423,84.77763)" stroke-width=".19925" stroke-linecap="butt" stroke-miterlimit="10" stroke-linejoin="miter" fill="none" stroke="#000000" d="M0 0 55.68752-10.62312C52.98676-24.78354 44.98566-37.3929 33.32271-45.8663Z"/>
<path transform="matrix(1.00003,0,0,-1.00005,121.86423,84.77763)" d="M0 0 33.32271-45.8663C29.47746-48.65962 25.28702-50.96077 20.86823-52.70993Z" fill="#4dff4d"/>
<path transform="matrix(1.00003,0,0,-1.00005,121.86423,84.77763)" stroke-width=".19925" stroke-linecap="butt" stroke-miterlimit="10" stroke-linejoin="miter" fill="none" stroke="#000000" d="M0 0 33.32271-45.8663C29.47746-48.65962 25.28702-50.96077 20.86823-52.70993Z"/>
<path transform="matrix(1.00003,0,0,-1.00005,121.86423,84.77763)" d="M0 0 20.86823-52.70993C3.99925-59.38832-15.05838-57.58548-30.37627-47.86464Z" fill="#00c0f3"/>
<path transform="matrix(1.00003,0,0,-1.00005,121.86423,84.77763)" stroke-width=".19925" stroke-linecap="butt" stroke-miterlimit="10" stroke-linejoin="miter" fill="none" stroke="#000000" d="M0 0 20.86823-52.70993C3.99925-59.38832-15.05838-57.58548-30.37627-47.86464Z"/>
<path transform="matrix(1.00003,0,0,-1.00005,121.86423,84.77763)" d="M0 0-30.37627-47.86464C-36.40671-44.03755-41.66725-39.10054-45.86546-33.32185Z" fill="#4d4dff"/>
<path transform="matrix(1.00003,0,0,-1.00005,121.86423,84.77763)" stroke-width=".19925" stroke-linecap="butt" stroke-miterlimit="10" stroke-linejoin="miter" fill="none" stroke="#000000" d="M0 0-30.37627-47.86464C-36.40671-44.03755-41.66725-39.10054-45.86546-33.32185Z"/>
<path transform="matrix(1.00003,0,0,-1.00005,121.86423,84.77763)" d="M0 0-45.86546-33.32185C-58.77066-15.55838-60.25598 8.07117-49.67871 27.31131Z" fill="#824dff"/>
<path transform="matrix(1.00003,0,0,-1.00005,121.86423,84.77763)" stroke-width=".19925" stroke-linecap="butt" stroke-miterlimit="10" stroke-linejoin="miter" fill="none" stroke="#000000" d="M0 0-45.86546-33.32185C-58.77066-15.55838-60.25598 8.07117-49.67871 27.31131Z"/>
<path transform="matrix(1.00003,0,0,-1.00005,121.86423,84.77763)" d="M0 0-49.67871 27.31131C-46.23743 33.571-41.63869 39.12825-36.13509 43.68112Z" fill="#f172ac"/>
<path transform="matrix(1.00003,0,0,-1.00005,121.86423,84.77763)" stroke-width=".19925" stroke-linecap="butt" stroke-miterlimit="10" stroke-linejoin="miter" fill="none" stroke="#000000" d="M0 0-49.67871 27.31131C-46.23743 33.571-41.63869 39.12825-36.13509 43.68112Z"/>
<path transform="matrix(1.00003,0,0,-1.00005,121.86423,84.77763)" d="M0 0-36.13509 43.68112C-25.97131 52.08879-13.19066 56.69275 0 56.69275Z" fill="#ff4d82"/>
<path transform="matrix(1.00003,0,0,-1.00005,121.86423,84.77763)" stroke-width=".19925" stroke-linecap="butt" stroke-miterlimit="10" stroke-linejoin="miter" fill="none" stroke="#000000" d="M0 0-36.13509 43.68112C-25.97131 52.08879-13.19066 56.69275 0 56.69275Z"/>
<path transform="matrix(1.00003,0,0,-1.00005,121.86423,84.77763)" d="M2.9741 49.5801C2.9741 50.36292 2.33952 50.99751 1.55669 50.99751 .77386 50.99751 .13927 50.36292 .13927 49.5801 .13927 48.79726 .77386 48.16267 1.55669 48.16267 2.33952 48.16267 2.9741 48.79726 2.9741 49.5801ZM1.55669 49.5801H120.47392" fill="#999999"/>
<path transform="matrix(1.00003,0,0,-1.00005,121.86423,84.77763)" stroke-width=".79701" stroke-linecap="butt" stroke-miterlimit="10" stroke-linejoin="miter" fill="none" stroke="#999999" d="M2.9741 49.5801C2.9741 50.36292 2.33952 50.99751 1.55669 50.99751 .77386 50.99751 .13927 50.36292 .13927 49.5801 .13927 48.79726 .77386 48.16267 1.55669 48.16267 2.33952 48.16267 2.9741 48.79726 2.9741 49.5801ZM1.55669 49.5801H120.47392"/>
<use data-text="A" xlink:href="#font_1_27" transform="matrix(7.9703395,0,0,-7.970498,185.13913,32.008)" fill="#999999"/>
<use data-text="n" xlink:href="#font_1_77" transform="matrix(7.9703395,0,0,-7.970498,190.78214,32.008)" fill="#999999"/>
<use data-text="c" xlink:href="#font_1_43" transform="matrix(7.9703395,0,0,-7.970498,195.15785,32.008)" fill="#999999"/>
<use data-text="h" xlink:href="#font_1_63" transform="matrix(7.9703395,0,0,-7.970498,198.91985,32.008)" fill="#999999"/>
<use data-text="o" xlink:href="#font_1_81" transform="matrix(7.9703395,0,0,-7.970498,203.29557,32.008)" fill="#999999"/>
<use data-text="v" xlink:href="#font_1_112" transform="matrix(7.9703395,0,0,-7.970498,207.5278,32.008)" fill="#999999"/>
<use data-text="i" xlink:href="#font_1_66" transform="matrix(7.9703395,0,0,-7.970498,211.43328,32.008)" fill="#999999"/>
<use data-text="e" xlink:href="#font_1_50" transform="matrix(7.9703395,0,0,-7.970498,213.44977,32.008)" fill="#999999"/>
<use data-text="s" xlink:href="#font_1_98" transform="matrix(7.9703395,0,0,-7.970498,217.21176,32.008)" fill="#999999"/>
<use data-text="(" xlink:href="#font_1_85" transform="matrix(7.9703395,0,0,-7.970498,223.26923,32.008)" fill="#999999"/>
<use data-text="1" xlink:href="#font_1_82" transform="matrix(7.9703395,0,0,-7.970498,226.56099,32.008)" fill="#999999"/>
<use data-text="%" xlink:href="#font_1_87" transform="matrix(7.9703395,0,0,-7.970498,230.79323,32.008)" fill="#999999"/>
<use data-text=")" xlink:href="#font_1_86" transform="matrix(7.9703395,0,0,-7.970498,237.85495,32.008)" fill="#999999"/>
<path transform="matrix(1.00003,0,0,-1.00005,121.86423,84.77763)" d="M11.01932 26.67029C11.01932 27.45311 10.38472 28.08769 9.6019 28.08769 8.81908 28.08769 8.18448 27.45311 8.18448 26.67029 8.18448 25.88745 8.81908 25.25287 9.6019 25.25287 10.38472 25.25287 11.01932 25.88745 11.01932 26.67029ZM9.6019 26.67029H120.47392" fill="#999999"/>
<path transform="matrix(1.00003,0,0,-1.00005,121.86423,84.77763)" stroke-width=".79701" stroke-linecap="butt" stroke-miterlimit="10" stroke-linejoin="miter" fill="none" stroke="#999999" d="M11.01932 26.67029C11.01932 27.45311 10.38472 28.08769 9.6019 28.08769 8.81908 28.08769 8.18448 27.45311 8.18448 26.67029 8.18448 25.88745 8.81908 25.25287 9.6019 25.25287 10.38472 25.25287 11.01932 25.88745 11.01932 26.67029ZM9.6019 26.67029H120.47392"/>
<use data-text="B" xlink:href="#font_1_34" transform="matrix(7.9703395,0,0,-7.970498,198.37754,54.919145)" fill="#999999"/>
<use data-text="a" xlink:href="#font_1_28" transform="matrix(7.9703395,0,0,-7.970498,204.02054,54.919145)" fill="#999999"/>
<use data-text="c" xlink:href="#font_1_43" transform="matrix(7.9703395,0,0,-7.970498,208.08542,54.919145)" fill="#999999"/>
<use data-text="o" xlink:href="#font_1_81" transform="matrix(7.9703395,0,0,-7.970498,211.84741,54.919145)" fill="#999999"/>
<use data-text="n" xlink:href="#font_1_77" transform="matrix(7.9703395,0,0,-7.970498,216.07965,54.919145)" fill="#999999"/>
<use data-text="(" xlink:href="#font_1_85" transform="matrix(7.9703395,0,0,-7.970498,223.26889,54.919145)" fill="#999999"/>
<use data-text="9" xlink:href="#font_1_78" transform="matrix(7.9703395,0,0,-7.970498,226.56067,54.919145)" fill="#999999"/>
<use data-text="%" xlink:href="#font_1_87" transform="matrix(7.9703395,0,0,-7.970498,230.79291,54.919145)" fill="#999999"/>
<use data-text=")" xlink:href="#font_1_86" transform="matrix(7.9703395,0,0,-7.970498,237.84665,54.919145)" fill="#999999"/>
<path transform="matrix(1.00003,0,0,-1.00005,121.86423,84.77763)" d="M37.0127 9.53745C37.0127 10.32027 36.3781 10.95486 35.59528 10.95486 34.81245 10.95486 34.17786 10.32027 34.17786 9.53745 34.17786 8.75461 34.81245 8.12003 35.59528 8.12003 36.3781 8.12003 37.0127 8.75461 37.0127 9.53745ZM35.59528 9.53745H120.47392" fill="#999999"/>
<path transform="matrix(1.00003,0,0,-1.00005,121.86423,84.77763)" stroke-width=".79701" stroke-linecap="butt" stroke-miterlimit="10" stroke-linejoin="miter" fill="none" stroke="#999999" d="M37.0127 9.53745C37.0127 10.32027 36.3781 10.95486 35.59528 10.95486 34.81245 10.95486 34.17786 10.32027 34.17786 9.53745 34.17786 8.75461 34.81245 8.12003 35.59528 8.12003 36.3781 8.12003 37.0127 8.75461 37.0127 9.53745ZM35.59528 9.53745H120.47392"/>
<use data-text="C" xlink:href="#font_1_42" transform="matrix(7.9703395,0,0,-7.970498,191.90534,72.052)" fill="#999999"/>
<use data-text="h" xlink:href="#font_1_63" transform="matrix(7.9703395,0,0,-7.970498,197.3172,72.052)" fill="#999999"/>
<use data-text="e" xlink:href="#font_1_50" transform="matrix(7.9703395,0,0,-7.970498,201.69292,72.052)" fill="#999999"/>
<use data-text="e" xlink:href="#font_1_50" transform="matrix(7.9703395,0,0,-7.970498,205.45491,72.052)" fill="#999999"/>
<use data-text="s" xlink:href="#font_1_98" transform="matrix(7.9703395,0,0,-7.970498,209.2169,72.052)" fill="#999999"/>
<use data-text="e" xlink:href="#font_1_50" transform="matrix(7.9703395,0,0,-7.970498,212.46085,72.052)" fill="#999999"/>
<use data-text="(" xlink:href="#font_1_85" transform="matrix(7.9703395,0,0,-7.970498,219.03638,72.052)" fill="#999999"/>
<use data-text="1" xlink:href="#font_1_82" transform="matrix(7.9703395,0,0,-7.970498,222.32813,72.052)" fill="#999999"/>
<use data-text="8" xlink:href="#font_1_51" transform="matrix(7.9703395,0,0,-7.970498,226.56038,72.052)" fill="#999999"/>
<use data-text="%" xlink:href="#font_1_87" transform="matrix(7.9703395,0,0,-7.970498,230.79262,72.052)" fill="#999999"/>
<use data-text=")" xlink:href="#font_1_86" transform="matrix(7.9703395,0,0,-7.970498,237.85434,72.052)" fill="#999999"/>
<path transform="matrix(1.00003,0,0,-1.00005,121.86423,84.77763)" d="M30.10463-18.276C30.10463-17.49318 29.47003-16.8586 28.68721-16.8586 27.90437-16.8586 27.26979-17.49318 27.26979-18.276 27.26979-19.05884 27.90437-19.69342 28.68721-19.69342 29.47003-19.69342 30.10463-19.05884 30.10463-18.276ZM28.68721-18.276H120.47392" fill="#999999"/>
<path transform="matrix(1.00003,0,0,-1.00005,121.86423,84.77763)" stroke-width=".79701" stroke-linecap="butt" stroke-miterlimit="10" stroke-linejoin="miter" fill="none" stroke="#999999" d="M30.10463-18.276C30.10463-17.49318 29.47003-16.8586 28.68721-16.8586 27.90437-16.8586 27.26979-17.49318 27.26979-18.276 27.26979-19.05884 27.90437-19.69342 28.68721-19.69342 29.47003-19.69342 30.10463-19.05884 30.10463-18.276ZM28.68721-18.276H120.47392"/>
<use data-text="P" xlink:href="#font_1_83" transform="matrix(7.9703395,0,0,-7.970498,191.64234,99.867389)" fill="#999999"/>
<use data-text="e" xlink:href="#font_1_50" transform="matrix(7.9703395,0,0,-7.970498,196.8151,99.867389)" fill="#999999"/>
<use data-text="p" xlink:href="#font_1_84" transform="matrix(7.9703395,0,0,-7.970498,200.57709,99.867389)" fill="#999999"/>
<use data-text="p" xlink:href="#font_1_84" transform="matrix(7.9703395,0,0,-7.970498,204.95279,99.867389)" fill="#999999"/>
<use data-text="e" xlink:href="#font_1_50" transform="matrix(7.9703395,0,0,-7.970498,209.55966,99.867389)" fill="#999999"/>
<use data-text="r" xlink:href="#font_1_96" transform="matrix(7.9703395,0,0,-7.970498,213.32166,99.867389)" fill="#999999"/>
<use data-text="(" xlink:href="#font_1_85" transform="matrix(7.9703395,0,0,-7.970498,219.03638,99.867389)" fill="#999999"/>
<use data-text="1" xlink:href="#font_1_82" transform="matrix(7.9703395,0,0,-7.970498,222.32813,99.867389)" fill="#999999"/>
<use data-text="2" xlink:href="#font_1_107" transform="matrix(7.9703395,0,0,-7.970498,226.56037,99.867389)" fill="#999999"/>
<use data-text="%" xlink:href="#font_1_87" transform="matrix(7.9703395,0,0,-7.970498,230.7926,99.867389)" fill="#999999"/>
<use data-text=")" xlink:href="#font_1_86" transform="matrix(7.9703395,0,0,-7.970498,237.84638,99.867389)" fill="#999999"/>
<path transform="matrix(1.00003,0,0,-1.00005,121.86423,84.77763)" d="M22.03174-37.18874C22.03174-36.4059 21.39714-35.77132 20.61432-35.77132 19.8315-35.77132 19.1969-36.4059 19.1969-37.18874 19.1969-37.97156 19.8315-38.60614 20.61432-38.60614 21.39714-38.60614 22.03174-37.97156 22.03174-37.18874ZM20.61432-37.18874H120.47392" fill="#999999"/>
<path transform="matrix(1.00003,0,0,-1.00005,121.86423,84.77763)" stroke-width=".79701" stroke-linecap="butt" stroke-miterlimit="10" stroke-linejoin="miter" fill="none" stroke="#999999" d="M22.03174-37.18874C22.03174-36.4059 21.39714-35.77132 20.61432-35.77132 19.8315-35.77132 19.1969-36.4059 19.1969-37.18874 19.1969-37.97156 19.8315-38.60614 20.61432-38.60614 21.39714-38.60614 22.03174-37.97156 22.03174-37.18874ZM20.61432-37.18874H120.47392"/>
<use data-text="M" xlink:href="#font_1_74" transform="matrix(7.9703395,0,0,-7.970498,182.74805,118.78133)" fill="#999999"/>
<use data-text="u" xlink:href="#font_1_109" transform="matrix(7.9703395,0,0,-7.970498,190.13657,118.78133)" fill="#999999"/>
<use data-text="s" xlink:href="#font_1_98" transform="matrix(7.9703395,0,0,-7.970498,194.51227,118.78133)" fill="#999999"/>
<use data-text="h" xlink:href="#font_1_63" transform="matrix(7.9703395,0,0,-7.970498,197.75623,118.78133)" fill="#999999"/>
<use data-text="r" xlink:href="#font_1_96" transform="matrix(7.9703395,0,0,-7.970498,202.13193,118.78133)" fill="#999999"/>
<use data-text="o" xlink:href="#font_1_81" transform="matrix(7.9703395,0,0,-7.970498,205.02515,118.78133)" fill="#999999"/>
<use data-text="o" xlink:href="#font_1_81" transform="matrix(7.9703395,0,0,-7.970498,209.48856,118.78133)" fill="#999999"/>
<use data-text="m" xlink:href="#font_1_75" transform="matrix(7.9703395,0,0,-7.970498,213.7208,118.78133)" fill="#999999"/>
<use data-text="(" xlink:href="#font_1_85" transform="matrix(7.9703395,0,0,-7.970498,223.26926,118.78133)" fill="#999999"/>
<use data-text="4" xlink:href="#font_1_57" transform="matrix(7.9703395,0,0,-7.970498,226.561,118.78133)" fill="#999999"/>
<use data-text="%" xlink:href="#font_1_87" transform="matrix(7.9703395,0,0,-7.970498,230.79325,118.78133)" fill="#999999"/>
<use data-text=")" xlink:href="#font_1_86" transform="matrix(7.9703395,0,0,-7.970498,237.85498,118.78133)" fill="#999999"/>
<path transform="matrix(1.00003,0,0,-1.00005,121.86423,84.77763)" d="M-3.42223-49.3677C-3.42223-48.58487-4.05682-47.95029-4.83965-47.95029-5.62247-47.95029-6.25706-48.58487-6.25706-49.3677-6.25706-50.15053-5.62247-50.78513-4.83965-50.78513-4.05682-50.78513-3.42223-50.15053-3.42223-49.3677ZM-4.83965-49.3677H-120.47392" fill="#999999"/>
<path transform="matrix(1.00003,0,0,-1.00005,121.86423,84.77763)" stroke-width=".79701" stroke-linecap="butt" stroke-miterlimit="10" stroke-linejoin="miter" fill="none" stroke="#999999" d="M-3.42223-49.3677C-3.42223-48.58487-4.05682-47.95029-4.83965-47.95029-5.62247-47.95029-6.25706-48.58487-6.25706-49.3677-6.25706-50.15053-5.62247-50.78513-4.83965-50.78513-4.05682-50.78513-3.42223-50.15053-3.42223-49.3677ZM-4.83965-49.3677H-120.47392"/>
<use data-text="O" xlink:href="#font_1_80" transform="matrix(7.9703395,0,0,-7.970498,2.5816346,130.96094)" fill="#999999"/>
<use data-text="l" xlink:href="#font_1_72" transform="matrix(7.9703395,0,0,-7.970498,8.838364,130.96094)" fill="#999999"/>
<use data-text="i" xlink:href="#font_1_66" transform="matrix(7.9703395,0,0,-7.970498,10.854858,130.96094)" fill="#999999"/>
<use data-text="v" xlink:href="#font_1_112" transform="matrix(7.9703395,0,0,-7.970498,12.871353,130.96094)" fill="#999999"/>
<use data-text="e" xlink:href="#font_1_50" transform="matrix(7.9703395,0,0,-7.970498,16.77681,130.96094)" fill="#999999"/>
<use data-text="(" xlink:href="#font_1_85" transform="matrix(7.9703395,0,0,-7.970498,23.35234,130.96094)" fill="#999999"/>
<use data-text="1" xlink:href="#font_1_82" transform="matrix(7.9703395,0,0,-7.970498,26.644104,130.96094)" fill="#999999"/>
<use data-text="5" xlink:href="#font_1_56" transform="matrix(7.9703395,0,0,-7.970498,30.876343,130.96094)" fill="#999999"/>
<use data-text="%" xlink:href="#font_1_87" transform="matrix(7.9703395,0,0,-7.970498,35.10858,130.96094)" fill="#999999"/>
<use data-text=")" xlink:href="#font_1_86" transform="matrix(7.9703395,0,0,-7.970498,42.16234,130.96094)" fill="#999999"/>
<path transform="matrix(1.00003,0,0,-1.00005,121.86423,84.77763)" d="M-27.79575-30.89229C-27.79575-30.10945-28.43034-29.47487-29.21317-29.47487-29.99599-29.47487-30.63058-30.10945-30.63058-30.89229-30.63058-31.67511-29.99599-32.3097-29.21317-32.3097-28.43034-32.3097-27.79575-31.67511-27.79575-30.89229ZM-29.21317-30.89229H-120.47392" fill="#999999"/>
<path transform="matrix(1.00003,0,0,-1.00005,121.86423,84.77763)" stroke-width=".79701" stroke-linecap="butt" stroke-miterlimit="10" stroke-linejoin="miter" fill="none" stroke="#999999" d="M-27.79575-30.89229C-27.79575-30.10945-28.43034-29.47487-29.21317-29.47487-29.99599-29.47487-30.63058-30.10945-30.63058-30.89229-30.63058-31.67511-29.99599-32.3097-29.21317-32.3097-28.43034-32.3097-27.79575-31.67511-27.79575-30.89229ZM-29.21317-30.89229H-120.47392"/>
<use data-text="O" xlink:href="#font_1_80" transform="matrix(7.9703395,0,0,-7.970498,2.5816346,112.48402)" fill="#999999"/>
<use data-text="n" xlink:href="#font_1_77" transform="matrix(7.9703395,0,0,-7.970498,8.838364,112.48402)" fill="#999999"/>
<use data-text="i" xlink:href="#font_1_66" transform="matrix(7.9703395,0,0,-7.970498,13.214066,112.48402)" fill="#999999"/>
<use data-text="o" xlink:href="#font_1_81" transform="matrix(7.9703395,0,0,-7.970498,15.23056,112.48402)" fill="#999999"/>
<use data-text="n" xlink:href="#font_1_77" transform="matrix(7.9703395,0,0,-7.970498,19.462815,112.48402)" fill="#999999"/>
<use data-text="(" xlink:href="#font_1_85" transform="matrix(7.9703395,0,0,-7.970498,26.652054,112.48402)" fill="#999999"/>
<use data-text="6" xlink:href="#font_1_101" transform="matrix(7.9703395,0,0,-7.970498,29.943802,112.48402)" fill="#999999"/>
<use data-text="%" xlink:href="#font_1_87" transform="matrix(7.9703395,0,0,-7.970498,34.176057,112.48402)" fill="#999999"/>
<use data-text=")" xlink:href="#font_1_86" transform="matrix(7.9703395,0,0,-7.970498,41.229799,112.48402)" fill="#999999"/>
<path transform="matrix(1.00003,0,0,-1.00005,121.86423,84.77763)" d="M-48.09908-2.94124C-48.09908-2.15842-48.73367-1.52382-49.5165-1.52382-50.29933-1.52382-50.93391-2.15842-50.93391-2.94124-50.93391-3.72406-50.29933-4.35866-49.5165-4.35866-48.73367-4.35866-48.09908-3.72406-48.09908-2.94124ZM-49.5165-2.94124H-120.47392" fill="#999999"/>
<path transform="matrix(1.00003,0,0,-1.00005,121.86423,84.77763)" stroke-width=".79701" stroke-linecap="butt" stroke-miterlimit="10" stroke-linejoin="miter" fill="none" stroke="#999999" d="M-48.09908-2.94124C-48.09908-2.15842-48.73367-1.52382-49.5165-1.52382-50.29933-1.52382-50.93391-2.15842-50.93391-2.94124-50.93391-3.72406-50.29933-4.35866-49.5165-4.35866-48.73367-4.35866-48.09908-3.72406-48.09908-2.94124ZM-49.5165-2.94124H-120.47392"/>
<use data-text="P" xlink:href="#font_1_83" transform="matrix(7.9703395,0,0,-7.970498,2.5816346,84.531627)" fill="#999999"/>
<use data-text="e" xlink:href="#font_1_50" transform="matrix(7.9703395,0,0,-7.970498,7.7543947,84.531627)" fill="#999999"/>
<use data-text="p" xlink:href="#font_1_84" transform="matrix(7.9703395,0,0,-7.970498,11.516388,84.531627)" fill="#999999"/>
<use data-text="p" xlink:href="#font_1_84" transform="matrix(7.9703395,0,0,-7.970498,15.892105,84.531627)" fill="#999999"/>
<use data-text="e" xlink:href="#font_1_50" transform="matrix(7.9703395,0,0,-7.970498,20.498963,84.531627)" fill="#999999"/>
<use data-text="r" xlink:href="#font_1_96" transform="matrix(7.9703395,0,0,-7.970498,24.260956,84.531627)" fill="#999999"/>
<use data-text="o" xlink:href="#font_1_81" transform="matrix(7.9703395,0,0,-7.970498,27.15419,84.531627)" fill="#999999"/>
<use data-text="n" xlink:href="#font_1_77" transform="matrix(7.9703395,0,0,-7.970498,31.386429,84.531627)" fill="#999999"/>
<use data-text="i" xlink:href="#font_1_66" transform="matrix(7.9703395,0,0,-7.970498,35.762147,84.531627)" fill="#999999"/>
<use data-text="(" xlink:href="#font_1_85" transform="matrix(7.9703395,0,0,-7.970498,40.60013,84.531627)" fill="#999999"/>
<use data-text="1" xlink:href="#font_1_82" transform="matrix(7.9703395,0,0,-7.970498,43.89189,84.531627)" fill="#999999"/>
<use data-text="8" xlink:href="#font_1_51" transform="matrix(7.9703395,0,0,-7.970498,48.12413,84.531627)" fill="#999999"/>
<use data-text="%" xlink:href="#font_1_87" transform="matrix(7.9703395,0,0,-7.970498,52.364336,84.531627)" fill="#999999"/>
<use data-text=")" xlink:href="#font_1_86" transform="matrix(7.9703395,0,0,-7.970498,59.41809,84.531627)" fill="#999999"/>
<path transform="matrix(1.00003,0,0,-1.00005,121.86423,84.77763)" d="M-31.2487 27.21614C-31.2487 27.99896-31.8833 28.63356-32.66612 28.63356-33.44894 28.63356-34.08354 27.99896-34.08354 27.21614-34.08354 26.43332-33.44894 25.79872-32.66612 25.79872-31.8833 25.79872-31.2487 26.43332-31.2487 27.21614ZM-32.66612 27.21614H-120.47392" fill="#999999"/>
<path transform="matrix(1.00003,0,0,-1.00005,121.86423,84.77763)" stroke-width=".79701" stroke-linecap="butt" stroke-miterlimit="10" stroke-linejoin="miter" fill="none" stroke="#999999" d="M-31.2487 27.21614C-31.2487 27.99896-31.8833 28.63356-32.66612 28.63356-33.44894 28.63356-34.08354 27.99896-34.08354 27.21614-34.08354 26.43332-33.44894 25.79872-32.66612 25.79872-31.8833 25.79872-31.2487 26.43332-31.2487 27.21614ZM-32.66612 27.21614H-120.47392"/>
<use data-text="P" xlink:href="#font_1_83" transform="matrix(7.9703395,0,0,-7.970498,2.5816346,54.373117)" fill="#999999"/>
<use data-text="i" xlink:href="#font_1_66" transform="matrix(7.9703395,0,0,-7.970498,7.9934999,54.373117)" fill="#999999"/>
<use data-text="n" xlink:href="#font_1_77" transform="matrix(7.9703395,0,0,-7.970498,10.0099949,54.373117)" fill="#999999"/>
<use data-text="e" xlink:href="#font_1_50" transform="matrix(7.9703395,0,0,-7.970498,14.385712,54.373117)" fill="#999999"/>
<use data-text="a" xlink:href="#font_1_28" transform="matrix(7.9703395,0,0,-7.970498,18.147706,54.373117)" fill="#999999"/>
<use data-text="p" xlink:href="#font_1_84" transform="matrix(7.9703395,0,0,-7.970498,22.212586,54.373117)" fill="#999999"/>
<use data-text="p" xlink:href="#font_1_84" transform="matrix(7.9703395,0,0,-7.970498,26.588303,54.373117)" fill="#999999"/>
<use data-text="l" xlink:href="#font_1_72" transform="matrix(7.9703395,0,0,-7.970498,30.964005,54.373117)" fill="#999999"/>
<use data-text="e" xlink:href="#font_1_50" transform="matrix(7.9703395,0,0,-7.970498,32.9805,54.373117)" fill="#999999"/>
<use data-text="(" xlink:href="#font_1_85" transform="matrix(7.9703395,0,0,-7.970498,39.55603,54.373117)" fill="#999999"/>
<use data-text="6" xlink:href="#font_1_101" transform="matrix(7.9703395,0,0,-7.970498,42.847795,54.373117)" fill="#999999"/>
<use data-text="%" xlink:href="#font_1_87" transform="matrix(7.9703395,0,0,-7.970498,47.080034,54.373117)" fill="#999999"/>
<use data-text=")" xlink:href="#font_1_86" transform="matrix(7.9703395,0,0,-7.970498,54.141756,54.373117)" fill="#999999"/>
<path transform="matrix(1.00003,0,0,-1.00005,121.86423,84.77763)" d="M-15.30405 46.70068C-15.30405 47.4835-15.93864 48.1181-16.72147 48.1181-17.50429 48.1181-18.13889 47.4835-18.13889 46.70068-18.13889 45.91786-17.50429 45.28326-16.72147 45.28326-15.93864 45.28326-15.30405 45.91786-15.30405 46.70068ZM-16.72147 46.70068H-120.47392" fill="#999999"/>
<path transform="matrix(1.00003,0,0,-1.00005,121.86423,84.77763)" stroke-width=".79701" stroke-linecap="butt" stroke-miterlimit="10" stroke-linejoin="miter" fill="none" stroke="#999999" d="M-15.30405 46.70068C-15.30405 47.4835-15.93864 48.1181-16.72147 48.1181-17.50429 48.1181-18.13889 47.4835-18.13889 46.70068-18.13889 45.91786-17.50429 45.28326-16.72147 45.28326-15.93864 45.28326-15.30405 45.91786-15.30405 46.70068ZM-16.72147 46.70068H-120.47392"/>
<use data-text="S" xlink:href="#font_1_97" transform="matrix(7.9703395,0,0,-7.970498,2.5816346,34.887144)" fill="#999999"/>
<use data-text="a" xlink:href="#font_1_28" transform="matrix(7.9703395,0,0,-7.970498,7.284149,34.887144)" fill="#999999"/>
<use data-text="u" xlink:href="#font_1_109" transform="matrix(7.9703395,0,0,-7.970498,11.34903,34.887144)" fill="#999999"/>
<use data-text="s" xlink:href="#font_1_98" transform="matrix(7.9703395,0,0,-7.970498,15.724731,34.887144)" fill="#999999"/>
<use data-text="a" xlink:href="#font_1_28" transform="matrix(7.9703395,0,0,-7.970498,18.968674,34.887144)" fill="#999999"/>
<use data-text="g" xlink:href="#font_1_59" transform="matrix(7.9703395,0,0,-7.970498,23.033555,34.887144)" fill="#999999"/>
<use data-text="e" xlink:href="#font_1_50" transform="matrix(7.9703395,0,0,-7.970498,27.265793,34.887144)" fill="#999999"/>
<use data-text="(" xlink:href="#font_1_85" transform="matrix(7.9703395,0,0,-7.970498,33.841325,34.887144)" fill="#999999"/>
<use data-text="1" xlink:href="#font_1_82" transform="matrix(7.9703395,0,0,-7.970498,37.13307,34.887144)" fill="#999999"/>
<use data-text="1" xlink:href="#font_1_82" transform="matrix(7.9703395,0,0,-7.970498,41.365327,34.887144)" fill="#999999"/>
<use data-text="%" xlink:href="#font_1_87" transform="matrix(7.9703395,0,0,-7.970498,45.60553,34.887144)" fill="#999999"/>
<use data-text=")" xlink:href="#font_1_86" transform="matrix(7.9703395,0,0,-7.970498,52.659288,34.887144)" fill="#999999"/>
<use data-text="F" xlink:href="#font_2_54" transform="matrix(9.962899,0,0,-9.963098,67.37159,7.833786)" fill="#333333"/>
<use data-text="a" xlink:href="#font_2_28" transform="matrix(9.962899,0,0,-9.963098,73.15008,7.833786)" fill="#333333"/>
<use data-text="v" xlink:href="#font_2_112" transform="matrix(9.962899,0,0,-9.963098,78.38059,7.833786)" fill="#333333"/>
<use data-text="o" xlink:href="#font_2_81" transform="matrix(9.962899,0,0,-9.963098,83.36204,7.833786)" fill="#333333"/>
<use data-text="r" xlink:href="#font_2_96" transform="matrix(9.962899,0,0,-9.963098,88.53278,7.833786)" fill="#333333"/>
<use data-text="i" xlink:href="#font_2_66" transform="matrix(9.962899,0,0,-9.963098,92.238979,7.833786)" fill="#333333"/>
<use data-text="t" xlink:href="#font_2_105" transform="matrix(9.962899,0,0,-9.963098,94.78948,7.833786)" fill="#333333"/>
<use data-text="e" xlink:href="#font_2_50" transform="matrix(9.962899,0,0,-9.963098,98.81449,7.833786)" fill="#333333"/>
<use data-text="P" xlink:href="#font_2_83" transform="matrix(9.962899,0,0,-9.963098,107.55196,7.833786)" fill="#333333"/>
<use data-text="i" xlink:href="#font_2_66" transform="matrix(9.962899,0,0,-9.963098,114.555889,7.833786)" fill="#333333"/>
<use data-text="z" xlink:href="#font_2_120" transform="matrix(9.962899,0,0,-9.963098,117.10639,7.833786)" fill="#333333"/>
<use data-text="z" xlink:href="#font_2_120" transform="matrix(9.962899,0,0,-9.963098,121.84875,7.833786)" fill="#333333"/>
<use data-text="a" xlink:href="#font_2_28" transform="matrix(9.962899,0,0,-9.963098,126.59109,7.833786)" fill="#333333"/>
<use data-text="T" xlink:href="#font_2_104" transform="matrix(9.962899,0,0,-9.963098,135.478,7.833786)" fill="#333333"/>
<use data-text="o" xlink:href="#font_2_81" transform="matrix(9.962899,0,0,-9.963098,141.87418,7.833786)" fill="#333333"/>
<use data-text="p" xlink:href="#font_2_84" transform="matrix(9.962899,0,0,-9.963098,147.35376,7.833786)" fill="#333333"/>
<use data-text="p" xlink:href="#font_2_84" transform="matrix(9.962899,0,0,-9.963098,152.94297,7.833786)" fill="#333333"/>
<use data-text="i" xlink:href="#font_2_66" transform="matrix(9.962899,0,0,-9.963098,158.53214,7.833786)" fill="#333333"/>
<use data-text="n" xlink:href="#font_2_77" transform="matrix(9.962899,0,0,-9.963098,161.08264,7.833786)" fill="#333333"/>
<use data-text="g" xlink:href="#font_2_59" transform="matrix(9.962899,0,0,-9.963098,166.67185,7.833786)" fill="#333333"/>
<use data-text="s" xlink:href="#font_2_98" transform="matrix(9.962899,0,0,-9.963098,172.15143,7.833786)" fill="#333333"/>
</svg>
