<svg xmlns="http://www.w3.org/2000/svg" xmlns:xlink="http://www.w3.org/1999/xlink" xmlns:inkscape="http://www.inkscape.org/namespaces/inkscape" version="1.1" width="174" height="117" viewBox="0 0 174 117">
<defs>
<path id="font_1_108" d="M.6719971 .2287445V.64627078C.6719971 .6783142 .6649933 .69433596 .6239929 .69433596H.58399966C.54599 .69433596 .5359955 .6813202 .5359955 .64627078V.2267456C.5359955 .12861634 .5069885 .0635376 .3849945 .0635376 .2689972 .0635376 .23799134 .12260437 .23799134 .22573853V.64627078C.23799134 .6783142 .23098755 .69433596 .18998719 .69433596H.13899231C.102996829 .6935272 .09098816 .68252566 .09098816 .64553835V.22953797C.09098816 .01852417 .25698854-.022460938 .38398744-.022460938 .49798585-.022460938 .6719971 .0115356449 .6719971 .22853089V.2287445Z"/>
<path id="font_1_52" d="M.7939911 .36521913C.7939911 .40722657 .7509918 .40722657 .7409973 .40722657H.11399841C.10398865 .40722657 .06098938 .40722657 .06098938 .36521913 .06098938 .32321168 .10398865 .32321168 .114990238 .32321168H.73999026C.7519989 .32321168 .7939911 .32321168 .7939911 .36521913M.7939911 .13476563C.7939911 .17677307 .7509918 .17677307 .73999026 .17677307H.114990238C.102996829 .17677307 .06098938 .17677307 .06098938 .13476563 .06098938 .09277344 .10398865 .09277344 .11399841 .09277344H.7409973C.7509918 .09277344 .7939911 .09277344 .7939911 .13476563Z"/>
<path id="font_1_27" d="M.6899872 .027053833C.6899872 .032058717 .6899872 .034057619 .68499758 .047088624L.47399903 .6513214C.45899964 .69433596 .42999269 .69433596 .4099884 .69433596H.32199098C.3019867 .69433596 .272995 .69433596 .2579956 .6513214L.04699707 .047088624C.041992189 .034057619 .041992189 .032058717 .041992189 .027053833 .041992189 0 .066986087 0 .08099365 0H.116989139C.1349945 0 .1659851 0 .17999268 .04006958L.21899414 .1512909H.49598695L.5299988 .055099489C.5419922 .02003479 .548996 0 .5970001 0H.651001C.6649933 0 .6899872 0 .6899872 .027053833M.46598817 .23730469H.24899292L.32099916 .4493103C.33599855 .49331666 .34899903 .53131106 .35699464 .5673218H.35798646C.36299134 .5433197 .36299134 .5413208 .37098695 .51831057L.46598817 .23730469Z"/>
<path id="font_1_72" d="M.19400025 .04801941V.64630129C.19400025 .6783142 .18699646 .69433596 .1459961 .69433596H.10899353C.07299805 .69433596 .06098938 .6833191 .06098938 .64630129V.04801941C.06098938 .011993408 .07199097 0 .10899353 0H.1459961C.18399048 0 .19400025 .013000488 .19400025 .04801941Z"/>
<path id="font_1_35" d="M.522995 .23098755C.522995 .2789154 .522995 .46875 .33499146 .46875 .25299073 .46875 .20298767 .42274476 .19400025 .412735V.6462097C.19400025 .6782837 .18699646 .69433596 .1459961 .69433596H.10899353C.07299805 .69433596 .06098938 .68330386 .06098938 .6462097V.04824829C.06098938 .012252808 .07199097 .00024414063 .10899353 .00024414063H.14898682C.1659851 .00024414063 .19599915 .00024414063 .19699097 .039245607 .24299622-.0107421879 .2939911-.0107421879 .30999757-.0107421879 .522995-.0107421879 .522995 .18106079 .522995 .23098755M.3869934 .22999573C.3869934 .15611267 .3869934 .06124878 .2749939 .06124878 .23298645 .06124878 .20799256 .08621216 .19699097 .10018921V.3617859C.20999146 .3737793 .23999024 .39674378 .28599549 .39674378 .3869934 .39674378 .3869934 .30488587 .3869934 .22999573Z"/>
<path id="font_1_81" d="M.5179901 .22494507C.5179901 .3886261 .43798829 .47460938 .2749939 .47460938 .10798645 .47460938 .0309906 .38563539 .0309906 .22494507 .0309906 .06225586 .116989139-.0107421879 .27398683-.0107421879 .43099977-.0107421879 .5179901 .06124878 .5179901 .22494507M.38198854 .23692322C.38198854 .15808106 .38198854 .06724548 .2749939 .06724548 .16699219 .06724548 .16699219 .15707398 .16699219 .23692322 .16699219 .31376649 .16699219 .40260316 .27398683 .40260316 .38198854 .40260316 .38198854 .31477357 .38198854 .23692322Z"/>
<path id="font_1_70" d="M.49699403 .022003174C.49699403 .022003174 .49699403 .03100586 .4869995 .044006349L.31298829 .27212525 .46699525 .41519166C.47898866 .42619325 .48199464 .42919923 .48199464 .43719483 .48199464 .45820619 .46199037 .45820619 .44799806 .45820619H.3899994C.37199403 .45820619 .35299684 .45820619 .32998658 .43719483L.18598938 .3031311V.64630129C.18598938 .6783142 .1789856 .69433596 .13798523 .69433596H.116989139C.08099365 .69433596 .068984989 .6833191 .068984989 .64630129V.04801941C.068984989 .011993408 .07998657 0 .116989139 0H.1349945C.17298889 0 .18299866 .013000488 .18299866 .04801941V.15206909C.19898987 .16607666 .21398926 .18107605 .22999573 .19508362L.3600006 .025009156C.3769989 .0029907227 .38398744 0 .41299439 0H.46099855C.47499085 0 .49699403 0 .49699403 .022003174Z"/>
<path id="font_1_98" d="M.3959961 .14111328C.3959961 .19700623 .3659973 .2319336 .34799195 .24790955 .30799867 .28382875 .272995 .28982545 .23098755 .2978058 .17599488 .30778504 .13598633 .31576539 .13598633 .35469056 .13598633 .39561463 .16899109 .40359498 .20799256 .40359498 .2749939 .40359498 .31098939 .37864686 .33699037 .35668946 .34700013 .3467102 .34899903 .3467102 .35299684 .3467102 .36299134 .3467102 .36499024 .35569764 .3659973 .35968019 .36799623 .36767579 .37799073 .42359925 .37799073 .42860414 .37799073 .44459535 .32499696 .4586029 .31399537 .4626007 .27398683 .4736023 .24198914 .47460938 .21598816 .47460938 .17098999 .47460938 .036987306 .47460938 .036987306 .33174134 .036987306 .2828369 .05899048 .25289918 .085998538 .22894287 .12098694 .19700623 .1599884 .1900177 .21699524 .17903137 .24598694 .17404175 .29699708 .16506958 .29699708 .12113953 .29699708 .07423401 .2579956 .06724548 .21899414 .06724548 .1749878 .06724548 .11898804 .08023071 .07199097 .13612366 .066986087 .14111328 .06399536 .144104 .057998659 .144104 .04798889 .144104 .04598999 .13511658 .04499817 .12913513 .042999269 .11515808 .0309906 .058242799 .0309906 .04824829 .0309906 .03024292 .10598755 .0062561037 .10598755 .0062561037 .16099549-.0107421879 .20199585-.0107421879 .21899414-.0107421879 .269989-.0107421879 .3959961-.0067443849 .3959961 .14111328Z"/>
<path id="font_1_66" d="M.19400025 .04798889V.41000367C.19400025 .44200135 .18699646 .4580078 .1459961 .4580078H.10899353C.07299805 .4580078 .06098938 .44700624 .06098938 .41000367V.04798889C.06098938 .011993408 .07199097 0 .10899353 0H.1459961C.18399048 0 .19400025 .0129852299 .19400025 .04798889M.20098877 .6058502V.6248474C.20098877 .6568451 .19400025 .67285159 .15299988 .67285159H.101989749C.06399536 .67285159 .053985597 .6598511 .053985597 .6248474V.6058502C.053985597 .57684329 .05899048 .55784609 .101989749 .55784609H.15299988C.19499207 .55784609 .20098877 .5758362 .20098877 .6058502Z"/>
<path id="font_1_77" d="M.5 .047470094V.32447816C.5 .42774964 .45599366 .46875 .35398866 .46875 .24899292 .46875 .20399475 .39274598 .19099427 .36576844H.18998719V.41574098C.18998719 .44773866 .18299866 .46374513 .14199829 .46374513H.10798645C.07199097 .46374513 .05999756 .45274354 .05999756 .41574098V.047958375C.05999756 .011978149 .070999149 0 .10798645 0H.147995C.18598938 0 .19599915 .0129852299 .19599915 .047958375V.26882936C.19599915 .35577394 .2539978 .39674378 .30599977 .39674378 .35398866 .39674378 .3639984 .37376405 .3639984 .32278443V.047958375C.3639984 .015975953 .37098695 0 .4119873 0H.45199586C.48999024 0 .5 .0129852299 .5 .047958375V.047470094Z"/>
<path id="font_1_105" d="M.37298585 .04725647C.37298585 .050247194 .37098695 .057250978 .36499024 .078125 .3600006 .09811401 .35798646 .10411072 .34899903 .10411072 .34399415 .10411072 .34298707 .1031189 .33699037 .09712219 .32598878 .08911133 .29899598 .06724548 .25698854 .06724548 .23298645 .06724548 .21798706 .084121707 .21798706 .15011597V.3860016H.30699159C.31900025 .3860016 .35499574 .3860016 .35499574 .42199708 .35499574 .4580078 .31900025 .4580078 .30699159 .4580078H.21798706V.5409088C.21798706 .572876 .21099854 .5888672 .16999817 .5888672H.13899231C.102996829 .5888672 .09098816 .5778656 .09098816 .5409088V.4580078H.067993167C.056991579 .4580078 .019989014 .4580078 .019989014 .42199708 .019989014 .3860016 .055999757 .3860016 .067993167 .3860016H.08799744V.13311768C.08799744 .03225708 .12399292-.0107421879 .19299317-.0107421879 .20199585-.0107421879 .24598694-.0107421879 .2979889 .0052490236 .31498719 .010253906 .37298585 .028244019 .37298585 .04725647Z"/>
<path id="font_1_63" d="M.5 .047470094V.32447816C.5 .42774964 .45599366 .46875 .35398866 .46875 .2539978 .46875 .20799256 .39974977 .19400025 .37176515H.19299317V.6462097C.19299317 .6782837 .18598938 .69433596 .14498902 .69433596H.10798645C.07199097 .69433596 .05999756 .68330386 .05999756 .6462097V.047958375C.05999756 .011978149 .070999149 0 .10798645 0H.147995C.18598938 0 .19599915 .0129852299 .19599915 .047958375V.26882936C.19599915 .35577394 .2539978 .39674378 .30599977 .39674378 .35398866 .39674378 .3639984 .37376405 .3639984 .32278443V.047958375C.3639984 .015975953 .37098695 0 .4119873 0H.45199586C.48999024 0 .5 .0129852299 .5 .047958375V.047470094Z"/>
<path id="font_1_50" d="M.47898866 .25959779C.47898866 .38859559 .4189911 .47460938 .269989 .47460938 .10998535 .47525025 .0309906 .3852539 .0309906 .23324585 .0309906 .069244388 .12599182-.0107421879 .2829895-.0107421879 .32099916-.0107421879 .37799073-.0057525637 .44400025 .027252198 .46598817 .038253786 .47299195 .041244508 .47299195 .053253175 .47299195 .060256959 .46998597 .08924866 .46899415 .09724426 .46499635 .12825012 .46398927 .1292572 .45498658 .1292572 .45098878 .1292572 .44898988 .1292572 .43798829 .11924744 .3789978 .06825256 .31900025 .06124878 .2869873 .06124878 .17399597 .06085205 .1619873 .14985657 .15899658 .21386719H.43099977C.45399476 .21386719 .47898866 .21485901 .47898866 .25985719V.25959779M.36799623 .26686097H.1599884C.16299439 .32774354 .18299866 .40260316 .269989 .40260316 .34999085 .40260316 .36499024 .3447113 .36799623 .26686097Z"/>
<path id="font_1_96" d="M.35598756 .39486695V.441864C.35598756 .46185304 .35598756 .4688568 .33799745 .4688568 .30999757 .4688568 .23699951 .4588623 .18998719 .3508606H.18899536V.41586305C.18899536 .44786073 .18199158 .4638672 .14099121 .4638672H.10899353C.07299805 .4638672 .06098938 .4528656 .06098938 .41586305V.047973634C.06098938 .011993408 .07199097 0 .10899353 0H.1459961C.18399048 0 .19400025 .0129852299 .19400025 .047973634V.22990418C.19400025 .32487489 .272995 .36386109 .33599855 .3678589 .35398866 .36886598 .35598756 .36886598 .35598756 .39486695Z"/>
<path id="font_1_28" d="M.47399903 .04824829V.31578065C.47399903 .4736023 .32199098 .47460938 .27198792 .47460938 .22499085 .47460938 .1749878 .4705963 .10798645 .44259645 .08699036 .433609 .08198547 .43060304 .08198547 .41960145 .08198547 .41259767 .08799744 .3547058 .08898926 .34672547 .08999634 .34072877 .09498596 .33573915 .101989749 .33573915 .10699463 .33573915 .10998535 .33872987 .11299133 .34172059 .1559906 .38664247 .20599365 .40859986 .2679901 .40859986 .32199098 .40859986 .33799745 .3756714 .33799745 .31677247V.2818451C.30299378 .2818451 .040985109 .2798462 .040985109 .13311768 .040985109 .06324768 .09700012-.0107421879 .18499756-.0107421879 .21899414-.0107421879 .2939911-.00074768069 .34098817 .068237308V.04824829C.34098817 .01625061 .34799195 .00024414063 .3889923 .00024414063H.42599488C.46398927 .00024414063 .47399903 .013244629 .47399903 .04824829M.33799745 .15408325C.33799745 .06124878 .24299622 .06124878 .23999024 .06124878 .19799805 .06124878 .17098999 .09718323 .17098999 .13511658 .17098999 .23292542 .30999757 .23991394 .33799745 .24092102V.15408325Z"/>
<path id="font_1_118" d="M.47299195 .43099977C.47299195 .4580078 .44599916 .4580078 .43299867 .4580078H.41099549C.394989 .4580078 .37298585 .4580078 .35798646 .43499757 .35499574 .42999269 .27398683 .20896912 .2689972 .14195252H.2679901C.2630005 .19096375 .22200012 .28398133 .1789856 .37998963 .15098572 .44299317 .14399719 .4580078 .09399414 .4580078H.067993167C.053985597 .4580078 .0289917 .4580078 .0289917 .43199159 .0289917 .42799378 .03199768 .42099 .033996583 .41600038L.22299195-.000061035159C.21499634-.021072388 .21199036-.032073976 .20899964-.04206848 .19699097-.07507324 .17999268-.12008667 .12599182-.12008667 .09298706-.12008667 .069992069-.1060791 .05899048-.09907532 .053985597-.096084598 .051986696-.095077518 .04899597-.095077518 .04399109-.095077518 .035995485-.098083499 .035995485-.110076908 .035995485-.11808777 .041992189-.18708802 .04499817-.19108582 .053985597-.20307923 .10798645-.20507813 .12399292-.20507813 .24798584-.20507813 .29699708-.08708191 .30499269-.063079837L.46798707 .41099549C.47299195 .42399598 .47299195 .42599488 .47299195 .43099977Z"/>
<path id="font_1_34" d="M.67099 .19406128C.67099 .3351593 .5319977 .35716249 .49499513 .36317445 .58699038 .3841858 .6399994 .43621827 .6399994 .51426699 .6399994 .69433596 .4269867 .69433596 .3849945 .69433596H.13899231C.102996829 .69433596 .09098816 .68333438 .09098816 .6463318V.04798889C.09098816 .011993408 .101989749 0 .13899231 0H.41299439C.4869995 .00018310547 .67099 .013183594 .67099 .19418335V.19406128M.5039978 .511261C.5039978 .39718629 .37298585 .39718629 .34799195 .39718629H.23199463V.60832217H.34899903C.3880005 .6081848 .5039978 .6051941 .5039978 .5111847V.511261M.5319977 .19607544C.5319977 .09300232 .4249878 .085998538 .3769989 .085998538H.23199463V.3251953H.35798646C.3929901 .32499696 .5319977 .32499696 .5319977 .19599915V.19607544Z"/>
<path id="font_1_112" d="M.47299195 .42999269C.47299195 .4580078 .44799806 .4580078 .43299867 .4580078H.4119873C.36999513 .4580078 .35899354 .44299317 .34999085 .4149933L.25099183 .11299133 .1519928 .4149933C.14498902 .43600465 .13798523 .4580078 .08999634 .4580078H.06599426C.050994874 .4580078 .025985718 .4580078 .025985718 .42999269 .025985718 .42700196 .025985718 .42500306 .0309906 .41099549L.1499939 .041992189C.1639862 0 .19499207 0 .21299744 0H.28599549C.3039856 0 .33499146 0 .34899903 .041992189L.46798707 .41099549C.47299195 .42500306 .47299195 .42700196 .47299195 .42999269Z"/>
<path id="font_1_109" d="M.5 .04824829V.41003419C.5 .4420166 .49299623 .4580078 .45199586 .4580078H.4119873C.37399293 .4580078 .3639984 .44500733 .3639984 .41003419V.173172C.3639984 .10720825 .32899476 .050247194 .2579956 .050247194 .20199585 .050247194 .19599915 .0642395 .19599915 .11720276V.41003419C.19599915 .4420166 .18899536 .4580078 .147995 .4580078H.10798645C.07199097 .4580078 .05999756 .44700624 .05999756 .41003419V.12620545C.05999756 .019256592 .117996219-.0107421879 .22200012-.0107421879 .24899292-.0107421879 .31999208-.0107421879 .36698915 .07423401V.04824829C.36698915 .01625061 .37399293 .00024414063 .4149933 .00024414063H.45199586C.48999024 .00024414063 .5 .013244629 .5 .04824829Z"/>
<path id="font_1_43" d="M.45700074 .050247194C.45700074 .06124878 .45298768 .107177738 .45098878 .120147708 .45098878 .12313843 .44898988 .13311768 .43899537 .13311768 .43499757 .13311768 .43299867 .13311768 .4229889 .12313843 .4059906 .108169559 .35899354 .06724548 .2769928 .06724548 .17298889 .06724548 .17298889 .16804505 .17298889 .2319336 .17298889 .3127594 .17799378 .39660646 .27999879 .39660646 .34498597 .39660646 .37199403 .3806305 .4079895 .35069276 .41999818 .33970643 .42199708 .33970643 .42599488 .33970643 .43598939 .33970643 .43798829 .34869386 .43899537 .35269166 .44099427 .360672 .45098878 .41659547 .45098878 .42160035 .45098878 .43060304 .44400025 .43460084 .4269867 .44259645 .3789978 .4645996 .34899903 .47460938 .2789917 .47460938 .12998963 .47460938 .036987306 .40460206 .036987306 .22993469 .036987306 .06425476 .12298584-.0107421879 .27398683-.0107421879 .30099488-.0107421879 .36099244-.009750366 .42799378 .024246216 .45599366 .039245607 .45700074 .040252687 .45700074 .050247194Z"/>
<path id="font_1_84" d="M.522995 .23098755C.522995 .27990724 .522995 .46875 .34199525 .46875 .2829895 .46875 .22999573 .44474793 .19400025 .41073609 .19400025 .44773866 .17999268 .4577484 .1459961 .4577484H.10899353C.07299805 .4577484 .06098938 .44674684 .06098938 .40974427V-.14546204C.06098938-.18139649 .07199097-.19335938 .10899353-.19335938H.14898682C.18699646-.19335938 .19699097-.1803894 .19699097-.14546204V.039245607C.24198914-.0107421879 .29699708-.0107421879 .31098939-.0107421879 .522995-.0107421879 .522995 .18106079 .522995 .23098755M.3869934 .22898865C.3869934 .1890564 .3869934 .06124878 .27398683 .06124878 .25099183 .06124878 .23298645 .069244388 .22099304 .07823181 .19699097 .095199588 .19699097 .10018921 .19699097 .11816406V.3577881C.20799256 .3677826 .24099732 .39074708 .28399659 .39074708 .38598634 .39074708 .3869934 .2729187 .3869934 .22898865Z"/>
<path id="font_1_68" d="M.22399903-.032073976V.4099884C.22399903 .44200135 .21699524 .4580078 .17599488 .4580078H.13899231C.100997928 .4580078 .09098816 .44500733 .09098816 .4099884V-.05607605C.09098816-.081085208 .09098816-.12107849 .0309906-.12107849 .0129852299-.12107849-.010009766-.11708069-.03201294-.10308838-.03401184-.1020813-.038009645-.099090579-.042007448-.099090579-.05000305-.099090579-.05101013-.1000824-.060012819-.12608338-.06401062-.13609314-.071014408-.15509033-.071014408-.15808106-.071014408-.17707825 .011993408-.20507813 .07499695-.20507813 .18499756-.20500183 .22399903-.13101197 .22399903-.03201294V-.032073976M.22399903 .6058502V.6248474C.22399903 .6568451 .21699524 .67285159 .17599488 .67285159H.125C.08699036 .67285159 .07699585 .6598511 .07699585 .6248474V.6058502C.07699585 .57684329 .08198547 .55784609 .125 .55784609H.17599488C.21798706 .55784609 .22399903 .5758362 .22399903 .6058502Z"/>
</defs>
<path transform="matrix(1.00002,0,0,-1,1.6603737,115.384)" stroke-width=".79701" stroke-linecap="butt" stroke-miterlimit="10" stroke-linejoin="miter" fill="none" stroke="#000000" d="M0 0V113.38724H170.08086V0ZM170.08086 113.38724"/>
<use data-text="U" xlink:href="#font_1_108" transform="matrix(9.962799,0,0,-9.9626,100.38835,55.149003)"/>
<use data-text="=" xlink:href="#font_1_52" transform="matrix(9.962799,0,0,-9.9626,111.65627,55.149003)"/>
<use data-text="A" xlink:href="#font_1_27" transform="matrix(9.962799,0,0,-9.9626,123.840778,55.149003)"/>
<use data-text="l" xlink:href="#font_1_72" transform="matrix(9.962799,0,0,-9.9626,131.14351,55.149003)"/>
<use data-text="l" xlink:href="#font_1_72" transform="matrix(9.962799,0,0,-9.9626,133.69399,55.149003)"/>
<use data-text="b" xlink:href="#font_1_35" transform="matrix(9.962799,0,0,-9.9626,139.90082,55.149003)"/>
<use data-text="o" xlink:href="#font_1_81" transform="matrix(9.962799,0,0,-9.9626,145.7988,55.149003)"/>
<use data-text="o" xlink:href="#font_1_81" transform="matrix(9.962799,0,0,-9.9626,151.58718,55.149003)"/>
<use data-text="k" xlink:href="#font_1_70" transform="matrix(9.962799,0,0,-9.9626,157.06671,55.149003)"/>
<use data-text="s" xlink:href="#font_1_98" transform="matrix(9.962799,0,0,-9.9626,162.35697,55.149003)"/>
<use data-text="i" xlink:href="#font_1_66" transform="matrix(9.962799,0,0,-9.9626,104.54743,67.104007)"/>
<use data-text="n" xlink:href="#font_1_77" transform="matrix(9.962799,0,0,-9.9626,107.09791,67.104007)"/>
<use data-text="t" xlink:href="#font_1_105" transform="matrix(9.962799,0,0,-9.9626,116.34338,67.104007)"/>
<use data-text="h" xlink:href="#font_1_63" transform="matrix(9.962799,0,0,-9.9626,120.36836,67.104007)"/>
<use data-text="e" xlink:href="#font_1_50" transform="matrix(9.962799,0,0,-9.9626,125.95749,67.104007)"/>
<use data-text="l" xlink:href="#font_1_72" transform="matrix(9.962799,0,0,-9.9626,134.70484,67.104007)"/>
<use data-text="i" xlink:href="#font_1_66" transform="matrix(9.962799,0,0,-9.9626,137.25531,67.104007)"/>
<use data-text="b" xlink:href="#font_1_35" transform="matrix(9.962799,0,0,-9.9626,139.80579,67.104007)"/>
<use data-text="r" xlink:href="#font_1_96" transform="matrix(9.962799,0,0,-9.9626,145.09604,67.104007)"/>
<use data-text="a" xlink:href="#font_1_28" transform="matrix(9.962799,0,0,-9.9626,148.80219,67.104007)"/>
<use data-text="r" xlink:href="#font_1_96" transform="matrix(9.962799,0,0,-9.9626,153.72382,67.104007)"/>
<use data-text="y" xlink:href="#font_1_118" transform="matrix(9.962799,0,0,-9.9626,157.42998,67.104007)"/>
<path transform="matrix(1.00002,0,0,-1,1.6603737,115.384)" d="M92.1271 56.69362C92.1271 80.17717 73.09047 99.21382 49.6069 99.21382 26.12335 99.21382 7.0867 80.17717 7.0867 56.69362 7.0867 33.21005 26.12335 14.1734 49.6069 14.1734 73.09047 14.1734 92.1271 33.21005 92.1271 56.69362ZM49.6069 56.69362" fill="#fff56d"/>
<path transform="matrix(1.00002,0,0,-1,1.6603737,115.384)" stroke-width=".79701" stroke-linecap="butt" stroke-miterlimit="10" stroke-linejoin="miter" fill="none" stroke="#000000" d="M92.1271 56.69362C92.1271 80.17717 73.09047 99.21382 49.6069 99.21382 26.12335 99.21382 7.0867 80.17717 7.0867 56.69362 7.0867 33.21005 26.12335 14.1734 49.6069 14.1734 73.09047 14.1734 92.1271 33.21005 92.1271 56.69362ZM49.6069 56.69362"/>
<use data-text="B" xlink:href="#font_1_34" transform="matrix(9.962799,0,0,-9.9626,17.274687,49.172)"/>
<use data-text="o" xlink:href="#font_1_81" transform="matrix(9.962799,0,0,-9.9626,24.577418,49.172)"/>
<use data-text="o" xlink:href="#font_1_81" transform="matrix(9.962799,0,0,-9.9626,30.355843,49.172)"/>
<use data-text="k" xlink:href="#font_1_70" transform="matrix(9.962799,0,0,-9.9626,35.835386,49.172)"/>
<use data-text="s" xlink:href="#font_1_98" transform="matrix(9.962799,0,0,-9.9626,41.125635,49.172)"/>
<use data-text="r" xlink:href="#font_1_96" transform="matrix(9.962799,0,0,-9.9626,48.98628,49.172)"/>
<use data-text="e" xlink:href="#font_1_50" transform="matrix(9.962799,0,0,-9.9626,52.69244,49.172)"/>
<use data-text="l" xlink:href="#font_1_72" transform="matrix(9.962799,0,0,-9.9626,57.783433,49.172)"/>
<use data-text="e" xlink:href="#font_1_50" transform="matrix(9.962799,0,0,-9.9626,60.333906,49.172)"/>
<use data-text="v" xlink:href="#font_1_112" transform="matrix(9.962799,0,0,-9.9626,65.4249,49.172)"/>
<use data-text="a" xlink:href="#font_1_28" transform="matrix(9.962799,0,0,-9.9626,70.406299,49.172)"/>
<use data-text="n" xlink:href="#font_1_77" transform="matrix(9.962799,0,0,-9.9626,75.636768,49.172)"/>
<use data-text="t" xlink:href="#font_1_105" transform="matrix(9.962799,0,0,-9.9626,81.22589,49.172)"/>
<use data-text="t" xlink:href="#font_1_105" transform="matrix(9.962799,0,0,-9.9626,14.544632,61.127004)"/>
<use data-text="o" xlink:href="#font_1_81" transform="matrix(9.962799,0,0,-9.9626,18.569603,61.127004)"/>
<use data-text="y" xlink:href="#font_1_118" transform="matrix(9.962799,0,0,-9.9626,27.705492,61.127004)"/>
<use data-text="o" xlink:href="#font_1_81" transform="matrix(9.962799,0,0,-9.9626,32.38801,61.127004)"/>
<use data-text="u" xlink:href="#font_1_109" transform="matrix(9.962799,0,0,-9.9626,37.867547,61.127004)"/>
<use data-text="r" xlink:href="#font_1_96" transform="matrix(9.962799,0,0,-9.9626,43.45668,61.127004)"/>
<use data-text="r" xlink:href="#font_1_96" transform="matrix(9.962799,0,0,-9.9626,50.809228,61.127004)"/>
<use data-text="e" xlink:href="#font_1_50" transform="matrix(9.962799,0,0,-9.9626,54.515394,61.127004)"/>
<use data-text="s" xlink:href="#font_1_98" transform="matrix(9.962799,0,0,-9.9626,59.606386,61.127004)"/>
<use data-text="e" xlink:href="#font_1_50" transform="matrix(9.962799,0,0,-9.9626,63.81068,61.127004)"/>
<use data-text="a" xlink:href="#font_1_28" transform="matrix(9.962799,0,0,-9.9626,68.90167,61.127004)"/>
<use data-text="r" xlink:href="#font_1_96" transform="matrix(9.962799,0,0,-9.9626,73.83325,61.127004)"/>
<use data-text="c" xlink:href="#font_1_43" transform="matrix(9.962799,0,0,-9.9626,77.53941,61.127004)"/>
<use data-text="h" xlink:href="#font_1_63" transform="matrix(9.962799,0,0,-9.9626,82.411228,61.127004)"/>
<use data-text="p" xlink:href="#font_1_84" transform="matrix(9.962799,0,0,-9.9626,35.616056,73.082)"/>
<use data-text="r" xlink:href="#font_1_96" transform="matrix(9.962799,0,0,-9.9626,40.9063,73.082)"/>
<use data-text="o" xlink:href="#font_1_81" transform="matrix(9.962799,0,0,-9.9626,44.61246,73.082)"/>
<use data-text="j" xlink:href="#font_1_68" transform="matrix(9.962799,0,0,-9.9626,50.092004,73.082)"/>
<use data-text="e" xlink:href="#font_1_50" transform="matrix(9.962799,0,0,-9.9626,52.941366,73.082)"/>
<use data-text="c" xlink:href="#font_1_43" transform="matrix(9.962799,0,0,-9.9626,58.032354,73.082)"/>
<use data-text="t" xlink:href="#font_1_105" transform="matrix(9.962799,0,0,-9.9626,62.904165,73.082)"/>
</svg>
