<svg xmlns="http://www.w3.org/2000/svg" xmlns:xlink="http://www.w3.org/1999/xlink" xmlns:inkscape="http://www.inkscape.org/namespaces/inkscape" version="1.1" width="146" height="221" viewBox="0 0 146 221">
<defs>
<path id="font_1_113" d="M.92900088 .69433596H.8569946L.7659912 .38017274C.73999026 .2911377 .69200137 .123046878 .68699648 .072021488H.6859894C.6859894 .072021488 .6799927 .12504578 .6139984 .35316468L.5159912 .69433596H.43499757L.34498597 .38217164C.32299806 .30514527 .272995 .13005066 .2679901 .074020389H.2669983C.2630005 .11404419 .23599243 .21209717 .22799683 .24511719L.18099976 .41218568 .099990848 .69433596H.01399231L.21699524 0H.2979889L.397995 .3471527C.4189911 .42019654 .46199037 .56925967 .46798707 .6212921H.46899415C.47299195 .5912781 .49699403 .49623109 .5239868 .40118409L.6389923 0H.7259979L.92900088 .69433596Z"/>
<path id="font_1_95" d="M.61698916 0 .4189911 .32637025C.5219879 .35636903 .58898928 .42736817 .58898928 .50834658 .58898928 .6073303 .47999574 .69433596 .33699037 .69433596H.09599304V0H.18199158V.3173828H.33999635L.5279999 0H.61698916M.5079956 .50834658C.5079956 .43736268 .44400025 .3783722 .32598878 .3783722H.18199158V.6383209H.32598878C.44198609 .6383209 .5079956 .5793457 .5079956 .50834658Z"/>
<path id="font_2_2" d="M.28199769 .20405579C.2979889 .21907044 .33999635 .2520752 .35598756 .26608277 .41799928 .32312013 .47698976 .3781433 .47698976 .46917726 .47698976 .588089 .3769989 .66503909 .2519989 .66503909 .13198853 .66503909 .052993776 .57411196 .052993776 .48516847 .052993776 .4361725 .09199524 .4291687 .10598755 .4291687 .1269989 .4291687 .1579895 .4441681 .1579895 .48217774 .1579895 .5341797 .10798645 .5341797 .09599304 .5341797 .125 .6070709 .19198609 .6320343 .24099732 .6320343 .33399964 .6320343 .38198854 .55314639 .38198854 .46917726 .38198854 .36514283 .30899049 .28910829 .19099427 .16804505L.06498718 .037994386C.052993776 .026992798 .052993776 .024993897 .052993776 0H.44799806L.47698976 .17904663H.44599916C.44299317 .1590271 .43499757 .10900879 .4229889 .08999634 .4169922 .08198547 .34098817 .08198547 .32499696 .08198547H.14698792L.28199769 .20405579Z"/>
<path id="font_3_1" d="M.46499635 .70799258C.47099305 .7220001 .47099305 .723999 .47099305 .72698977 .47099305 .73999026 .46099855 .75 .44799806 .75 .43199159 .75 .42799378 .73799136 .42399598 .7279968L.06498718-.20800781C.05899048-.22200012 .05899048-.22401428 .05899048-.227005 .05899048-.2400055 .068984989-.25 .08198547-.25 .09799194-.25 .101989749-.23800659 .10598755-.22801209L.46499635 .70799258Z"/>
<path id="font_2_4" d="M.13999939 .5618439C.15299988 .55784609 .19299317 .54785159 .23498535 .54785159 .3600006 .54785159 .43598939 .6358948 .43598939 .6510315 .43598939 .6620331 .42900086 .66503909 .42399598 .66503909 .42199708 .66503909 .41999818 .66503909 .41099549 .6600342 .37199403 .6450348 .32598878 .632843 .27198792 .632843 .21299744 .632843 .1639862 .6480255 .1329956 .6600342 .12298584 .66503909 .12098694 .66503909 .11999512 .66503909 .10699463 .66503909 .10699463 .6540375 .10699463 .6358948V.34292604C.10699463 .32492066 .10699463 .312912 .12298584 .312912 .1309967 .312912 .13398743 .3169098 .13899231 .32492066 .15098572 .33992005 .18899536 .39093019 .27398683 .39093019 .32998658 .39093019 .35699464 .34492494 .3659973 .32591249 .3829956 .28990174 .3849945 .24389649 .3849945 .20487976 .3849945 .1678772 .38398744 .11387634 .35598756 .069732669 .33699037 .039611818 .29699708 .008514404 .24398804 .008514404 .1789856 .008514404 .114990238 .0496521 .09199524 .11488342 .09498596 .11387634 .100997928 .11387634 .101989749 .11387634 .12998963 .11387634 .1519928 .13188172 .1519928 .16288758 .1519928 .19989014 .12298584 .21289063 .102996829 .21289063 .084991458 .21289063 .052993776 .20288086 .052993776 .15988159 .052993776 .069732669 .1309967-.021484375 .24598694-.021484375 .37098695-.021484375 .47698976 .07574463 .47698976 .19989014 .47698976 .31591798 .3929901 .4189453 .2749939 .4189453 .22499085 .4189453 .17799378 .40293885 .13999939 .368927V.5618439Z"/>
<path id="font_1_34" d="M.6100006 .18806458C.6100006 .27511598 .522995 .3461609 .4169922 .36317445 .5079956 .3861847 .58299258 .44421388 .58299258 .5202637 .58299258 .61231997 .47599793 .69433596 .33399964 .69433596H.09700012V0H.36099244C.5049896 .000076293948 .6100006 .09007263 .6100006 .18806458M.5049896 .5192108C.5049896 .45913697 .43399049 .3910675 .29599 .3910675H.17999268V.6383209H.30599977C.4169922 .6380768 .5049896 .58506777 .5049896 .5190735V.5192108M.5289917 .18902588C.5289917 .11401367 .44099427 .055999757 .33299256 .055999757H.17999268V.33007813H.32499696C.43099977 .32998658 .5289917 .2689972 .5289917 .18899536V.18902588Z"/>
<path id="font_2_3" d="M.25299073 .33370973C.33198548 .33370973 .38198854 .27557374 .38198854 .17037964 .38198854 .045440675 .31098939 .008514404 .2579956 .008514404 .20298767 .008514404 .12799073 .0284729 .09298706 .08137512 .1289978 .08137512 .1539917 .10437012 .1539917 .13737488 .1539917 .16937256 .1309967 .19238281 .09899902 .19238281 .07199097 .19238281 .04399109 .17536927 .04399109 .13537598 .04399109 .04045105 .1459961-.021484375 .2599945-.021484375 .3929901-.021484375 .48599244 .070388797 .48599244 .17037964 .48599244 .25352479 .41999818 .32969667 .31799317 .3517456 .39698792 .37982179 .45599366 .4479828 .45599366 .52804568 .45599366 .6080475 .3659973 .66503909 .2619934 .66503909 .15499878 .66503909 .07398987 .6070404 .07398987 .53105166 .07398987 .49404908 .09899902 .4780426 .125 .4780426 .1559906 .4780426 .17599488 .5000458 .17599488 .52905276 .17599488 .56604006 .14399719 .5800476 .12199402 .5810547 .1639862 .6360321 .24099732 .6390381 .25898744 .6390381 .2849884 .6390381 .36099244 .6310272 .36099244 .52804568 .36099244 .45799256 .33198548 .41589356 .31799317 .39985658 .28799439 .36878968 .2649994 .36679078 .20399475 .3627777 .18499756 .36177064 .1769867 .36076356 .1769867 .3477478 .1769867 .33370973 .18598938 .33370973 .20298767 .33370973H.25299073Z"/>
<path id="font_2_1" d="M.31399537 .63708499C.31399537 .664032 .31199647 .66503909 .2849884 .66503909 .24398804 .6251831 .19099427 .6013489 .09599304 .6013489V.5683594C.12298584 .5683594 .1769867 .5683594 .23498535 .5953522V.08203125C.23498535 .04499817 .23199463 .032989503 .13699341 .032989503H.101989749V0C.14299011 .0029907227 .22898865 .0029907227 .27398683 .0029907227 .31900025 .0029907227 .4059906 .0029907227 .44699098 0V.032989503H.4119873C.31698609 .032989503 .31399537 .04499817 .31399537 .08203125V.63708499Z"/>
<path id="font_2_5" d="M.13798523 .33073426C.13798523 .41377259 .14498902 .4868164 .18099976 .54782107 .21099854 .5978241 .2619934 .6390381 .32499696 .6390381 .34498597 .6390381 .3909912 .63601687 .4139862 .60084536 .36898805 .5988312 .36499024 .5648346 .36499024 .553833 .36499024 .5238342 .3880005 .50683596 .4119873 .50683596 .42999269 .50683596 .45899964 .51782229 .45899964 .5558319 .45899964 .615921 .4139862 .66503909 .32398988 .66503909 .18499756 .66503909 .04399109 .53282168 .04399109 .31672669 .04399109 .045532228 .16999817-.021484375 .2669983-.021484375 .31498719-.021484375 .36698915-.0084991459 .4119873 .03453064 .45199586 .07354736 .48599244 .11558533 .48599244 .20263672 .48599244 .33372499 .3869934 .42578126 .27598573 .42578126 .20399475 .42578126 .16099549 .37976075 .13798523 .33073426M.2669983 .008514404C.21398926 .008514404 .18099976 .045532228 .1659851 .07354736 .14299011 .11859131 .14099121 .18663025 .14099121 .22465515 .14099121 .32373048 .19499207 .3977661 .27198792 .3977661 .32199098 .3977661 .35198976 .37176515 .37098695 .33673097 .3919983 .29971314 .3919983 .25468446 .3919983 .2036438 .3919983 .15260315 .3919983 .10858154 .37199403 .07255554 .34599305 .026519776 .31098939 .008514404 .2669983 .008514404Z"/>
</defs>
<use data-text="W" xlink:href="#font_1_113" transform="matrix(9.963197,0,0,-9.9626,64.75127,203.427)"/>
<path transform="matrix(1.00006,0,0,-1,-1.4177055,119.181)" stroke-width=".3985" stroke-linecap="butt" stroke-miterlimit="10" stroke-linejoin="miter" fill="none" stroke="#000000" d="M3.5198 0 62.64479-80.78859"/>
<use data-text="R" xlink:href="#font_1_95" transform="matrix(9.963197,0,0,-9.9626,137.1066,220.435)"/>
<path transform="matrix(1.00006,0,0,-1,-1.4177055,119.181)" stroke-width=".3985" stroke-linecap="butt" stroke-miterlimit="10" stroke-linejoin="miter" fill="none" stroke="#000000" d="M79.0893-80.78859 134.99629-97.79665"/>
<use data-text="2" xlink:href="#font_2_2" transform="matrix(7.9705779,0,0,-7.9701,99.27933,202.961)"/>
<use data-text="/" xlink:href="#font_3_1" transform="matrix(7.9705779,0,0,-7.9701,103.51359,202.961)"/>
<use data-text="5" xlink:href="#font_2_4" transform="matrix(7.9705779,0,0,-7.9701,107.74784,202.961)"/>
<use data-text="B" xlink:href="#font_1_34" transform="matrix(9.963197,0,0,-9.9626,137.0026,186.419)"/>
<path transform="matrix(1.00006,0,0,-1,-1.4177055,119.181)" stroke-width=".3985" stroke-linecap="butt" stroke-miterlimit="10" stroke-linejoin="miter" fill="none" stroke="#000000" d="M79.0893-80.78859 134.8917-63.78055"/>
<use data-text="3" xlink:href="#font_2_3" transform="matrix(7.9705779,0,0,-7.9701,99.227329,185.953)"/>
<use data-text="/" xlink:href="#font_3_1" transform="matrix(7.9705779,0,0,-7.9701,103.461589,185.953)"/>
<use data-text="5" xlink:href="#font_2_4" transform="matrix(7.9705779,0,0,-7.9701,107.69584,185.953)"/>
<use data-text="1" xlink:href="#font_2_1" transform="matrix(7.9705779,0,0,-7.9701,15.443306,161.568)"/>
<use data-text="/" xlink:href="#font_3_1" transform="matrix(7.9705779,0,0,-7.9701,19.677563,161.568)"/>
<use data-text="6" xlink:href="#font_2_5" transform="matrix(7.9705779,0,0,-7.9701,23.911818,161.568)"/>
<use data-text="R" xlink:href="#font_1_95" transform="matrix(9.963197,0,0,-9.9626,66.23535,122.638)"/>
<path transform="matrix(1.00006,0,0,-1,-1.4177055,119.181)" stroke-width=".3985" stroke-linecap="butt" stroke-miterlimit="10" stroke-linejoin="miter" fill="none" stroke="#000000" d="M3.5198 0H64.12924"/>
<use data-text="W" xlink:href="#font_1_113" transform="matrix(9.963197,0,0,-9.9626,135.6225,156.65399)"/>
<path transform="matrix(1.00006,0,0,-1,-1.4177055,119.181)" stroke-width=".3985" stroke-linecap="butt" stroke-miterlimit="10" stroke-linejoin="miter" fill="none" stroke="#000000" d="M77.60483 0 133.51184-34.0161"/>
<use data-text="1" xlink:href="#font_2_1" transform="matrix(7.9705779,0,0,-7.9701,97.79524,130.677)"/>
<use data-text="/" xlink:href="#font_3_1" transform="matrix(7.9705779,0,0,-7.9701,102.0295,130.677)"/>
<use data-text="5" xlink:href="#font_2_4" transform="matrix(7.9705779,0,0,-7.9701,106.263759,130.677)"/>
<use data-text="R" xlink:href="#font_1_95" transform="matrix(9.963197,0,0,-9.9626,137.1066,122.638)"/>
<path transform="matrix(1.00006,0,0,-1,-1.4177055,119.181)" stroke-width=".3985" stroke-linecap="butt" stroke-miterlimit="10" stroke-linejoin="miter" fill="none" stroke="#000000" d="M77.60483 0H134.99629"/>
<use data-text="1" xlink:href="#font_2_1" transform="matrix(7.9705779,0,0,-7.9701,98.53729,113.669)"/>
<use data-text="/" xlink:href="#font_3_1" transform="matrix(7.9705779,0,0,-7.9701,102.771549,113.669)"/>
<use data-text="5" xlink:href="#font_2_4" transform="matrix(7.9705779,0,0,-7.9701,107.0058,113.669)"/>
<use data-text="B" xlink:href="#font_1_34" transform="matrix(9.963197,0,0,-9.9626,137.0026,88.622)"/>
<path transform="matrix(1.00006,0,0,-1,-1.4177055,119.181)" stroke-width=".3985" stroke-linecap="butt" stroke-miterlimit="10" stroke-linejoin="miter" fill="none" stroke="#000000" d="M77.60483 0 134.8917 34.0161"/>
<use data-text="3" xlink:href="#font_2_3" transform="matrix(7.9705779,0,0,-7.9701,98.48529,96.660999)"/>
<use data-text="/" xlink:href="#font_3_1" transform="matrix(7.9705779,0,0,-7.9701,102.71954,96.660999)"/>
<use data-text="5" xlink:href="#font_2_4" transform="matrix(7.9705779,0,0,-7.9701,106.9538,96.660999)"/>
<use data-text="2" xlink:href="#font_2_2" transform="matrix(7.9705779,0,0,-7.9701,26.056942,113.669)"/>
<use data-text="/" xlink:href="#font_3_1" transform="matrix(7.9705779,0,0,-7.9701,30.291199,113.669)"/>
<use data-text="6" xlink:href="#font_2_5" transform="matrix(7.9705779,0,0,-7.9701,34.52545,113.669)"/>
<use data-text="B" xlink:href="#font_1_34" transform="matrix(9.963197,0,0,-9.9626,66.13034,41.849)"/>
<path transform="matrix(1.00006,0,0,-1,-1.4177055,119.181)" stroke-width=".3985" stroke-linecap="butt" stroke-miterlimit="10" stroke-linejoin="miter" fill="none" stroke="#000000" d="M3.5198 0 64.02464 80.78859"/>
<use data-text="W" xlink:href="#font_1_113" transform="matrix(9.963197,0,0,-9.9626,135.6225,75.866)"/>
<path transform="matrix(1.00006,0,0,-1,-1.4177055,119.181)" stroke-width=".3985" stroke-linecap="butt" stroke-miterlimit="10" stroke-linejoin="miter" fill="none" stroke="#000000" d="M77.70944 80.78859 133.51184 46.77249"/>
<use data-text="1" xlink:href="#font_2_1" transform="matrix(7.9705779,0,0,-7.9701,97.847248,49.888)"/>
<use data-text="/" xlink:href="#font_3_1" transform="matrix(7.9705779,0,0,-7.9701,102.081508,49.888)"/>
<use data-text="5" xlink:href="#font_2_4" transform="matrix(7.9705779,0,0,-7.9701,106.31576,49.888)"/>
<use data-text="R" xlink:href="#font_1_95" transform="matrix(9.963197,0,0,-9.9626,137.1066,41.849)"/>
<path transform="matrix(1.00006,0,0,-1,-1.4177055,119.181)" stroke-width=".3985" stroke-linecap="butt" stroke-miterlimit="10" stroke-linejoin="miter" fill="none" stroke="#000000" d="M77.70944 80.78859H134.99629"/>
<use data-text="2" xlink:href="#font_2_2" transform="matrix(7.9705779,0,0,-7.9701,98.59029,32.879999)"/>
<use data-text="/" xlink:href="#font_3_1" transform="matrix(7.9705779,0,0,-7.9701,102.82455,32.879999)"/>
<use data-text="5" xlink:href="#font_2_4" transform="matrix(7.9705779,0,0,-7.9701,107.0588,32.879999)"/>
<use data-text="B" xlink:href="#font_1_34" transform="matrix(9.963197,0,0,-9.9626,137.0026,7.833)"/>
<path transform="matrix(1.00006,0,0,-1,-1.4177055,119.181)" stroke-width=".3985" stroke-linecap="butt" stroke-miterlimit="10" stroke-linejoin="miter" fill="none" stroke="#000000" d="M77.70944 80.78859 134.8917 114.80469"/>
<use data-text="2" xlink:href="#font_2_2" transform="matrix(7.9705779,0,0,-7.9701,98.53729,15.872002)"/>
<use data-text="/" xlink:href="#font_3_1" transform="matrix(7.9705779,0,0,-7.9701,102.771549,15.872002)"/>
<use data-text="5" xlink:href="#font_2_4" transform="matrix(7.9705779,0,0,-7.9701,107.0058,15.872002)"/>
<use data-text="3" xlink:href="#font_2_3" transform="matrix(7.9705779,0,0,-7.9701,16.133347,80.779)"/>
<use data-text="/" xlink:href="#font_3_1" transform="matrix(7.9705779,0,0,-7.9701,20.367604,80.779)"/>
<use data-text="6" xlink:href="#font_2_5" transform="matrix(7.9705779,0,0,-7.9701,24.601859,80.779)"/>
</svg>
