<svg xmlns="http://www.w3.org/2000/svg" xmlns:xlink="http://www.w3.org/1999/xlink" xmlns:inkscape="http://www.inkscape.org/namespaces/inkscape" version="1.1" width="174" height="117" viewBox="0 0 174 117">
<defs>
<path id="font_1_108" d="M.59298709 .23277283V.69433596H.5149994V.23176575C.5149994 .099609378 .43099977 .03353882 .34700013 .03353882 .2649994 .03353882 .18299866 .09660339 .18299866 .23176575V.69433596H.09399414V.23277283C.09399414 .08659363 .21099854-.022460938 .34599305-.022460938 .47999574-.022460938 .59298709 .08760071 .59298709 .23277283Z"/>
<path id="font_1_52" d="M.72099307 .35006715C.72099307 .3700714 .70199587 .3700714 .6879883 .3700714H.08898926C.07499695 .3700714 .055999757 .3700714 .055999757 .35006715 .055999757 .33007813 .07499695 .33007813 .08999634 .33007813H.68699648C.70199587 .33007813 .72099307 .33007813 .72099307 .35006715M.72099307 .1499176C.72099307 .16992188 .70199587 .16992188 .68699648 .16992188H.08999634C.07499695 .16992188 .055999757 .16992188 .055999757 .1499176 .055999757 .12991333 .07499695 .12991333 .08898926 .12991333H.6879883C.70199587 .12991333 .72099307 .12991333 .72099307 .1499176Z"/>
<path id="font_1_27" d="M.6380005 0 .3769989 .69433596H.2889862L.027999878 0H.101989749L.1789856 .20410156H.46998597L.54599 0H.6380005M.44799806 .26010133H.19999695C.25099183 .40316773 .21398926 .29811097 .2649994 .44119264 .28599549 .5002289 .31698609 .5852661 .32398988 .62228396H.32499696C.32699586 .60827639 .33399964 .5832672 .35699464 .5172272L.44799806 .26010133Z"/>
<path id="font_1_72" d="M.1559906 0V.69433596H.08099365V0H.1559906Z"/>
<path id="font_1_114" d="M.66799929 .44433595H.59498599L.5309906 .23216248C.519989 .19613648 .48999024 .09706116 .4850006 .054031373H.48399354C.47999574 .08505249 .45498658 .17411804 .43798829 .23117066L.37298585 .44433595H.30299378L.24598694 .25619508C.23498535 .22116089 .20098877 .1060791 .19699097 .055038454H.19599915C.19099427 .10307312 .1579895 .216156 .14199829 .27119447L.08999634 .44433595H.01399231L.15098572 0H.22999573L.2919922 .20614624C.30599977 .252182 .33399964 .35125733 .33699037 .3882904H.33799745C.33999635 .36026 .35699464 .291214 .36999513 .2481842L.44299317 0H.5309906L.66799929 .44433595Z"/>
<path id="font_1_63" d="M.43499757 0V.29804994C.43499757 .36405946 .41999818 .45507813 .2979889 .45507813 .23599243 .45507813 .18798828 .42407228 .1559906 .3830719V.69433596H.08099365V0H.15899658V.2450409C.15899658 .31105042 .18399048 .3940735 .2599945 .3940735 .35598756 .3940735 .35699464 .32305909 .35699464 .29104615V0H.43499757Z"/>
<path id="font_1_81" d="M.46899415 .22009278C.46899415 .3539734 .36898805 .4609375 .25 .4609375 .1269989 .4609375 .02999878 .35098268 .02999878 .22009278 .02999878 .08821106 .13198853-.0107421879 .24899292-.0107421879 .36898805-.0107421879 .46899415 .09020996 .46899415 .22009278M.3909912 .23008728C.3909912 .112197879 .32299806 .053253175 .24899292 .053253175 .17999268 .053253175 .10798645 .109191898 .10798645 .23008728 .10798645 .35098268 .18399048 .39993287 .24899292 .39993287 .31900025 .39993287 .3909912 .34797669 .3909912 .23008728Z"/>
<path id="font_1_50" d="M.4139862 .21875C.4139862 .25274659 .41299439 .32781983 .37399293 .38790895 .33299256 .4499359 .27198792 .4609375 .23599243 .4609375 .125 .4609375 .034988405 .3548584 .034988405 .22573853 .034988405 .09411621 .1309967-.0107421879 .25099183-.0107421879 .31399537-.0107421879 .37098695 .013244629 .4099884 .041244508L.4039917 .1060791C.34098817 .054244996 .2749939 .050247194 .2519989 .050247194 .17199707 .050247194 .10798645 .121032718 .10499573 .21875H.4139862M.35699464 .27374269H.10998535C.12599182 .34985353 .1789856 .39993287 .23599243 .39993287 .28799439 .39993287 .34399415 .36587525 .35699464 .27374269Z"/>
<path id="font_1_77" d="M.43499757 0V.29804994C.43499757 .36405946 .41999818 .45507813 .2979889 .45507813 .20799256 .45507813 .15899658 .3870697 .15299988 .3790741V.45007325H.08099365V0H.15899658V.2450409C.15899658 .31105042 .18399048 .3940735 .2599945 .3940735 .35598756 .3940735 .35699464 .32305909 .35699464 .29104615V0H.43499757Z"/>
<path id="font_1_109" d="M.43499757 .00024414063V.44433595H.35699464V.15426636C.35699464 .07925415 .30099488 .04425049 .23699951 .04425049 .1659851 .04425049 .15899658 .070251468 .15899658 .11326599V.44433595H.08099365V.10926819C.08099365 .037246705 .10398865-.0107421879 .18699646-.0107421879 .23999024-.0107421879 .31098939 .0052490236 .3600006 .04824829V.00024414063H.43499757Z"/>
<path id="font_1_75" d="M.71299746 0V.29804994C.71299746 .36506654 .69699099 .45507813 .57598879 .45507813 .5159912 .45507813 .46398927 .427063 .4269867 .37306214 .40098573 .44906617 .33099366 .45507813 .29899598 .45507813 .22698975 .45507813 .17999268 .41407777 .15299988 .37806703V.45007325H.08099365V0H.15899658V.2450409C.15899658 .31304933 .18598938 .3940735 .2599945 .3940735 .35299684 .3940735 .35798646 .3290558 .35798646 .29104615V0H.43598939V.2450409C.43598939 .31304933 .46299745 .3940735 .5369873 .3940735 .6299896 .3940735 .6349945 .3290558 .6349945 .29104615V0H.71299746Z"/>
<path id="font_1_35" d="M.47999574 .22306824C.47999574 .34707643 .4119873 .45507813 .31799317 .45507813 .2789917 .45503236 .21699524 .44500733 .15699768 .39595033V.69433596H.08198547V-.000045776369L.1599884 .00024414063V.04624939C.18399048 .024246216 .22698975-.0107421879 .2939911-.0107421879 .3939972-.0107421879 .47999574 .08920288 .47999574 .22306824M.4019928 .22306824C.4019928 .09320068 .31799317 .050247194 .25698854 .050247194 .21798706 .050247194 .18499756 .068237308 .1599884 .11418152V.33496095C.17599488 .35906983 .21199036 .3940735 .2669983 .3940735 .32598878 .3940735 .4019928 .35107423 .4019928 .22306824Z"/>
<path id="font_1_96" d="M.32699586 .38806153V.45507813C.23799134 .45407105 .18299866 .4050598 .1519928 .35905458V.45007325H.08198547V0H.15699768V.21403504C.15699768 .31404115 .22898865 .38606263 .32699586 .38806153Z"/>
<path id="font_1_98" d="M.3600006 .12817383C.3600006 .18313599 .32299806 .21710205 .32099916 .22009278 .28199769 .25506593 .25498963 .26106263 .20498657 .27005006 .1499939 .28103639 .10398865 .29103089 .10398865 .33998109 .10398865 .40193177 .17599488 .40193177 .18899536 .40193177 .22099304 .40193177 .27398683 .39793397 .33099366 .3639679L.34298707 .42892457C.29100038 .45292665 .25 .4609375 .19898987 .4609375 .17399597 .4609375 .032989503 .4609375 .032989503 .32998658 .032989503 .28103639 .06199646 .24906922 .08699036 .23008728 .117996219 .20809937 .13999939 .20411682 .19499207 .19311524 .23098755 .18612671 .2889862 .1741333 .2889862 .1211853 .2889862 .052246095 .20999146 .052246095 .19499207 .052246095 .11399841 .052246095 .057998659 .08921814 .039993287 .10121155L.027999878 .0332489C.05999756 .01725769 .114990238-.0107421879 .19599915-.0107421879 .21398926-.0107421879 .2689972-.0107421879 .31199647 .021255494 .34298707 .04525757 .3600006 .08522034 .3600006 .12817383Z"/>
<path id="font_1_84" d="M.47999574 .22315979C.47999574 .34309388 .4169922 .45507813 .32099916 .45507813 .26098634 .45507813 .20298767 .43406678 .15699768 .3950653V.44407655H.08198547V-.19335938H.1599884V.04624939C.19099427 .01725769 .23498535-.0107421879 .29499818-.0107421879 .3919983-.0107421879 .47999574 .0872345 .47999574 .22315979M.4019928 .22315979C.4019928 .12020874 .33099366 .050247194 .2559967 .050247194 .21699524 .050247194 .18998719 .070236209 .16999817 .097229007 .1599884 .112213138 .1599884 .114212039 .1599884 .13220215V.33309938C.18399048 .36808778 .22299195 .3910675 .2659912 .3910675 .34199525 .3910675 .4019928 .31510926 .4019928 .22315979Z"/>
<path id="font_1_66" d="M.1559906 0V.44433595H.08099365V0H.1559906M.1639862 .5662689V.65527346H.07499695V.5662689H.1639862Z"/>
</defs>
<path transform="matrix(1.00002,0,0,-1,1.6603737,115.384)" stroke-width=".79701" stroke-linecap="butt" stroke-miterlimit="10" stroke-linejoin="miter" fill="none" stroke="#000000" d="M0 0V113.38724H170.08086V0ZM170.08086 113.38724"/>
<use data-text="U" xlink:href="#font_1_108" transform="matrix(9.962799,0,0,-9.9626,103.621417,56.115)"/>
<use data-text="=" xlink:href="#font_1_52" transform="matrix(9.962799,0,0,-9.9626,113.793437,56.115)"/>
<use data-text="A" xlink:href="#font_1_27" transform="matrix(9.962799,0,0,-9.9626,124.86211,56.115)"/>
<use data-text="l" xlink:href="#font_1_72" transform="matrix(9.962799,0,0,-9.9626,131.5073,56.115)"/>
<use data-text="l" xlink:href="#font_1_72" transform="matrix(9.962799,0,0,-9.9626,133.8884,56.115)"/>
<use data-text="w" xlink:href="#font_1_114" transform="matrix(9.962799,0,0,-9.9626,139.58713,56.115)"/>
<use data-text="h" xlink:href="#font_1_63" transform="matrix(9.962799,0,0,-9.9626,146.39173,56.115)"/>
<use data-text="o" xlink:href="#font_1_81" transform="matrix(9.962799,0,0,-9.9626,151.54248,56.115)"/>
<use data-text="l" xlink:href="#font_1_72" transform="matrix(9.962799,0,0,-9.9626,156.5239,56.115)"/>
<use data-text="e" xlink:href="#font_1_50" transform="matrix(9.962799,0,0,-9.9626,158.905,56.115)"/>
<use data-text="n" xlink:href="#font_1_77" transform="matrix(9.962799,0,0,-9.9626,115.83066,68.07001)"/>
<use data-text="u" xlink:href="#font_1_109" transform="matrix(9.962799,0,0,-9.9626,120.98143,68.07001)"/>
<use data-text="m" xlink:href="#font_1_75" transform="matrix(9.962799,0,0,-9.9626,126.1322,68.07001)"/>
<use data-text="b" xlink:href="#font_1_35" transform="matrix(9.962799,0,0,-9.9626,134.04267,68.07001)"/>
<use data-text="e" xlink:href="#font_1_50" transform="matrix(9.962799,0,0,-9.9626,139.47238,68.07001)"/>
<use data-text="r" xlink:href="#font_1_96" transform="matrix(9.962799,0,0,-9.9626,143.89588,68.07001)"/>
<use data-text="s" xlink:href="#font_1_98" transform="matrix(9.962799,0,0,-9.9626,147.30315,68.07001)"/>
<path transform="matrix(1.00002,0,0,-1,1.6603737,115.384)" d="M92.1271 56.69362C92.1271 80.17717 73.09047 99.21382 49.6069 99.21382 26.12335 99.21382 7.0867 80.17717 7.0867 56.69362 7.0867 33.21005 26.12335 14.1734 49.6069 14.1734 73.09047 14.1734 92.1271 33.21005 92.1271 56.69362ZM49.6069 56.69362" fill="#fff56d"/>
<path transform="matrix(1.00002,0,0,-1,1.6603737,115.384)" stroke-width=".79701" stroke-linecap="butt" stroke-miterlimit="10" stroke-linejoin="miter" fill="none" stroke="#000000" d="M92.1271 56.69362C92.1271 80.17717 73.09047 99.21382 49.6069 99.21382 26.12335 99.21382 7.0867 80.17717 7.0867 56.69362 7.0867 33.21005 26.12335 14.1734 49.6069 14.1734 73.09047 14.1734 92.1271 33.21005 92.1271 56.69362ZM49.6069 56.69362"/>
<use data-text="A" xlink:href="#font_1_27" transform="matrix(9.962799,0,0,-9.9626,32.40799,56.115)"/>
<use data-text="l" xlink:href="#font_1_72" transform="matrix(9.962799,0,0,-9.9626,39.053178,56.115)"/>
<use data-text="l" xlink:href="#font_1_72" transform="matrix(9.962799,0,0,-9.9626,41.434289,56.115)"/>
<use data-text="p" xlink:href="#font_1_84" transform="matrix(9.962799,0,0,-9.9626,47.133008,56.115)"/>
<use data-text="r" xlink:href="#font_1_96" transform="matrix(9.962799,0,0,-9.9626,52.014783,56.115)"/>
<use data-text="i" xlink:href="#font_1_66" transform="matrix(9.962799,0,0,-9.9626,55.42206,56.115)"/>
<use data-text="m" xlink:href="#font_1_75" transform="matrix(9.962799,0,0,-9.9626,57.803167,56.115)"/>
<use data-text="e" xlink:href="#font_1_50" transform="matrix(9.962799,0,0,-9.9626,65.71363,56.115)"/>
<use data-text="n" xlink:href="#font_1_77" transform="matrix(9.962799,0,0,-9.9626,33.623018,68.07001)"/>
<use data-text="u" xlink:href="#font_1_109" transform="matrix(9.962799,0,0,-9.9626,38.77378,68.07001)"/>
<use data-text="m" xlink:href="#font_1_75" transform="matrix(9.962799,0,0,-9.9626,43.924554,68.07001)"/>
<use data-text="b" xlink:href="#font_1_35" transform="matrix(9.962799,0,0,-9.9626,51.835016,68.07001)"/>
<use data-text="e" xlink:href="#font_1_50" transform="matrix(9.962799,0,0,-9.9626,57.26474,68.07001)"/>
<use data-text="r" xlink:href="#font_1_96" transform="matrix(9.962799,0,0,-9.9626,61.688226,68.07001)"/>
<use data-text="s" xlink:href="#font_1_98" transform="matrix(9.962799,0,0,-9.9626,65.095508,68.07001)"/>
</svg>
