<svg xmlns="http://www.w3.org/2000/svg" xmlns:xlink="http://www.w3.org/1999/xlink" xmlns:inkscape="http://www.inkscape.org/namespaces/inkscape" version="1.1" width="174" height="117" viewBox="0 0 174 117">
<defs>
<path id="font_1_36" d="M.37998963 .6582031C.21099854 .6582031 .051986696 .51220706 .051986696 .31521607 .051986696 .14222718 .15098572-.009765625 .3659973-.009765625 .45838929-.009765625 .5452881 .018920899 .61209109 .09971619 .611496 .11122131 .6094971 .13322449 .60598757 .14222718L.598999 .1452179C.5279999 .067230228 .46798707 .041229249 .375 .041229249 .24819947 .041229249 .15499878 .17822266 .15499878 .33421327 .15499878 .5372009 .28399659 .6111908 .3659973 .6111908 .45599366 .6111908 .5289917 .5751953 .56999209 .49319459L.58200076 .49420167C.58558657 .54519656 .58898928 .56269839 .59999087 .6051941L.59799197 .6082001C.59799197 .6082001 .5019989 .6582031 .37998963 .6582031Z"/>
<path id="font_1_80" d="M.037994386 .20533753C.037994386 .08526611 .116989139-.009765625 .25-.009765625 .38198854-.009765625 .46199037 .08325195 .46199037 .21434021 .46199037 .3504181 .3889923 .43945313 .2539978 .43945313 .12298584 .43945313 .037994386 .3474121 .037994386 .20533753M.24699402 .39944459C.35299684 .39944459 .37399293 .31739808 .37399293 .19631958 .37399293 .10116577 .32598878 .030227662 .25898744 .030227662 .15299988 .030227662 .12599182 .14529419 .12599182 .22233582 .12599182 .3093872 .15299988 .39944459 .24699402 .39944459Z"/>
<path id="font_1_2393" d="M.09899902 .3847046V.19987488C.09899902 .1254425 .0974884 .053512575 .08898926 .000061035159L.08999634-.0029296876C.08999634-.0029296876 .10398865 .000061035159 .13899231 .000061035159 .17329407 .000061035159 .18699646-.0029296876 .18699646-.0029296876L.18899536 .000061035159C.18049622 .057006837 .1789856 .1247406 .1789856 .19987488V.3847046H.3769989V.19987488C.3769989 .1254425 .37548829 .053512575 .36698915 .000061035159L.36799623-.0029296876C.36799623-.0029296876 .38198854 .000061035159 .4169922 .000061035159 .45129396 .000061035159 .46499635-.0029296876 .46499635-.0029296876L.46699525 .000061035159C.4584961 .057006837 .45700074 .1247406 .45700074 .19987488V.3847046H.4909973C.5149994 .3847046 .5496979 .3840027 .5629883 .3827057 .56599429 .3986969 .56900027 .40899659 .57499697 .42370606L.56999209 .43070985C.55319216 .42990113 .522995 .42871095 .5 .42871095H.45700074V.43873597C.45700074 .46432496 .45199586 .5270233 .45199586 .5450897 .45199586 .6004791 .47769166 .6484375 .5349884 .6484375 .56399539 .6484375 .58200076 .6333771 .59298709 .61331179L.60398867 .61431887C.61099246 .6414032 .62098696 .6774292 .6319885 .6964264L.6309967 .6994324C.6230011 .70443728 .6049957 .70843508 .58599856 .70843508 .522995 .70843508 .46798707 .681427 .43199159 .63238528 .3959961 .58322146 .3769989 .5571289 .3769989 .47886659V.42871095H.1789856V.43873597C.1789856 .46432496 .17399597 .506958 .17399597 .5250244 .17399597 .5804901 .19969177 .62846377 .25698854 .62846377 .28599549 .62846377 .3039856 .6134186 .31498719 .593338L.32598878 .5943451C.33299256 .6214447 .34298707 .6574707 .35398866 .6764679L.35299684 .6794739C.34498597 .6844635 .32699586 .68847659 .30799867 .68847659 .24499512 .68847659 .18998719 .6614685 .1539917 .6124115 .117996219 .56321719 .09899902 .53712466 .09899902 .45881654V.42871095C.07728577 .42871095 .05419922 .4289093 .040985109 .43070985 .0342865 .4143982 .028686524 .40470887 .018997193 .38970948L.023986817 .3827057C.041992189 .3840027 .07499695 .3847046 .09799194 .3847046H.09899902Z"/>
<path id="font_1_70" d="M.125 .27339173C.14199829 .3774414 .20748902 .39944459 .23899842 .39944459 .27848817 .39944459 .32299806 .36242677 .32299806 .2873993 .32299806 .2783966 .31900025 .27339173 .30899049 .27339173H.125M.3919983 .104278568C.35699464 .0662384 .30999757 .049224855 .25498963 .049224855 .22079468 .049224855 .17349243 .0622406 .1459961 .106277469 .12838745 .13439942 .12199402 .17524719 .12199402 .23339844H.3939972C.40499879 .23339844 .4119873 .23939514 .4119873 .25039674 .4119873 .33441163 .37098695 .43945313 .23899842 .43945313 .13598633 .43945313 .033996583 .35643006 .033996583 .20936585 .033996583 .15261841 .04548645 .096466068 .07899475 .056228639 .11338806 .014923096 .17059326-.009765625 .23799134-.009765625 .30999757-.009765625 .37399293 .02722168 .4119873 .07925415L.3919983 .104278568Z"/>
<path id="font_1_53" d="M.22698975 .44465638V.19987488C.22698975 .12495422 .22499085 .054016115 .21699524 .000061035159L.21899414-.0029296876C.23098755-.0009460449 .2579956 .000061035159 .269989 .000061035159 .28199769 .000061035159 .30899049-.0009460449 .32099916-.0029296876L.32299806 .000061035159C.31498719 .057006837 .31298829 .12495422 .31298829 .19987488V.44465638C.31298829 .4616394 .31399537 .5645447 .32099916 .58851626 .45498658 .58851626 .522995 .5745392 .522995 .5745392L.5249939 .578537C.522995 .5935211 .522995 .6165161 .5249939 .64453127L.522995 .647522C.5069885 .6455231 .48399354 .64453127 .46299745 .64453127H.07699585C.055999757 .64453127 .032989503 .6455231 .016998291 .647522L.01499939 .64453127C.016998291 .6165161 .016998291 .5935211 .01499939 .578537L.016998291 .5745392C.016998291 .5745392 .084991458 .58851626 .21899414 .58851626 .22599793 .5645447 .22698975 .4616394 .22698975 .44465638Z"/>
<path id="font_1_66" d="M.30999757 .2253418 .30599977 .10626221C.30599977 .09326172 .2999878 .086257938 .2919922 .08024597 .2639923 .05923462 .22999573 .041229249 .19999695 .041229249 .15499878 .041229249 .12599182 .071243289 .12599182 .102264408 .12599182 .14729309 .14698792 .18132019 .22499085 .20233155L.30999757 .2253418M.3100891 .048233034C.32148744 .009124756 .35139466-.009765625 .3880005-.009765625 .41319276-.009765625 .44400025-.003768921 .46759034 .021224976L.46018983 .045928956C.44929505 .042129518 .4407959 .040725709 .43319703 .040725709 .42329408 .040725709 .4099884 .042633058 .40390016 .048233034 .39369203 .057540895 .38719178 .08175659 .38719178 .12628174 .38719178 .15530396 .3899994 .26635743 .3899994 .27737428 .3899994 .41244508 .30099488 .43943788 .22499085 .43943788 .14898682 .43943788 .102996829 .40245057 .07798767 .3814392L.07499695 .37742616 .09199524 .3103943 .10499573 .3093872C.1329956 .3544159 .16699219 .3944397 .21499634 .3944397 .25099183 .3944397 .31098939 .3894348 .31098939 .2763672 .31098939 .2693634 .30699159 .2653656 .3039856 .26435853L.21099854 .24334717C.10899353 .22033692 .04499817 .16630554 .04499817 .0982666 .04499817 .024230957 .09599304-.009780884 .16999817-.009780884 .22499085-.009780884 .25299073 .0032196046 .30599977 .048233034H.3100891Z"/>
<path id="font_1_25" d="M.23498535 .5773468C.2999878 .5773468 .32398988 .53334048 .32398988 .48632813 .32398988 .432312 .2709961 .3842926 .24299622 .36428834L.21199036 .3822937C.14898682 .42330934 .14199829 .4603119 .14199829 .49131776 .14199829 .5383301 .1749878 .5773468 .23498535 .5773468M.397995 .48532105C.397995 .5573425 .33999635 .61035159 .24099732 .61035159 .13899231 .61035159 .066986087 .55033877 .066986087 .47331239 .066986087 .41729737 .09799194 .3672943 .15499878 .33428956L.1749878 .3232727C.1499939 .3042755 .12998963 .28826905 .10499573 .26626588 .06399536 .23025513 .038986207 .1852417 .038986207 .14624024 .038986207 .044204713 .11999512-.0087890629 .22599793-.0087890629 .35699464-.0087890629 .42799378 .08621216 .42799378 .16223145 .42799378 .22026062 .3959961 .26426698 .34098817 .3002777L.27999879 .34028626C.32499696 .37028504 .397995 .42131043 .397995 .48532105M.22799683 .02420044C.18199158 .02420044 .116989139 .05621338 .116989139 .14624024 .116989139 .17623902 .125 .24325562 .21099854 .3002777L.25698854 .27127076C.31900025 .23225403 .34498597 .18824768 .34498597 .14123535 .34498597 .044204713 .27398683 .02420044 .22799683 .02420044Z"/>
<path id="font_1_17" d="M.23298645 .5713501C.25 .5713501 .2659912 .56533816 .2769928 .5553436 .30799867 .5293274 .33499146 .4513092 .33499146 .31729127 .33499146 .2252655 .33198548 .17326355 .31799317 .12225342 .29599 .039230348 .24699402 .029220581 .22898865 .029220581 .13598633 .029220581 .125 .20025635 .125 .28727723 .125 .5343323 .18699646 .5713501 .23298645 .5713501M.22799683-.009765625C.30499269-.009765625 .42099 .07524109 .42099 .3092804 .42099 .46531678 .3639984 .5423279 .32798768 .5753479 .30099488 .6003418 .2689972 .61035159 .23298645 .61035159 .1329956 .61035159 .038986207 .48632813 .038986207 .28927613 .038986207 .12724304 .10398865-.009765625 .22799683-.009765625Z"/>
<path id="font_1_21" d="M.28599549 .14823914C.28599549 .07115173 .28399659 .051116945 .27799989 .000061035159L.2789917-.0029296876C.2789917-.0029296876 .30999757 .000061035159 .32598878 .000061035159 .34199525 .000061035159 .35899354-.0029296876 .36799623-.0029296876 .36898805-.0029296876 .36999513-.00093078616 .36999513 .000061035159 .3659973 .058135988 .3639984 .090164188 .3639984 .14823914H.4139862C.42799378 .14823914 .44299317 .17123413 .44299317 .18223572 .44299317 .1912384 .43798829 .19824219 .42799378 .19824219H.3639984V.45178224C.3639984 .48472596 .36499024 .5536041 .36999513 .5995178 .36999513 .6015167 .36898805 .6035156 .36799623 .6035156 .35899354 .6035156 .34399415 .5995178 .32899476 .5995178 .31298829 .5995178 .29499818 .6035156 .29499818 .6035156 .29499818 .6035156 .29100038 .60050967 .29100038 .5995178 .22999573 .5156708 .085998538 .29606629 .033996583 .20721436 .023986817 .1892395 .020996094 .17823792 .020996094 .16822815 .020996094 .15322876 .04399109 .14823914 .07998657 .14823914H.28599549M.28599549 .511673V.19824219H.08299255L.28599549 .511673Z"/>
<path id="font_1_19" d="M.22200012 .5533447C.2743988 .5533447 .3277893 .5051575 .3277893 .4348755 .3277893 .39317323 .3157959 .33998109 .2896881 .3009796 .21798706 .19398499 .10348511 .093688968 .054397584 .04699707 .05319214 .043289186 .052597047 .038986207 .052597047 .03439331 .052597047 .01928711 .057495119 .0035858155 .062698367-.005004883 .13648987-.0030059815 .1789856 0 .2519989 0 .32398988 0 .35429383-.0020141602 .4256897-.005004883 .42419435 .0053863527 .42259217 .017089844 .42259217 .027999878 .42259217 .044189454 .4237976 .059799196 .42749024 .07499695 .37120057 .069992069 .34059144 .066986087 .24459839 .066986087 .20948792 .066986087 .19029236 .066986087 .16288758 .06498718 .16209412 .066589359 .16169739 .067993167 .16169739 .069992069 .16169739 .07928467 .17199707 .08988953 .17939759 .09698486 .22799683 .14398194 .2749939 .1889801 .34109498 .27798463 .37799073 .3276825 .4136963 .39187623 .4136963 .44847108 .4136963 .5439148 .3498993 .61035159 .23829651 .61035159 .14729309 .61035159 .088897708 .55934146 .066085819 .5292511L.08779907 .4599762 .10089111 .45898438C.11468506 .48908998 .11959839 .50987246 .14498902 .5302582 .16499329 .5463104 .19400025 .5533447 .22200012 .5533447Z"/>
</defs>
<path transform="matrix(1,0,0,-1,2.026,115.281)" stroke-width=".59776" stroke-linecap="butt" stroke-miterlimit="10" stroke-linejoin="miter" fill="none" stroke="#000000" d="M0 0V113.38376H170.07566V0ZM170.07566 113.38376"/>
<path transform="matrix(1,0,0,-1,2.026,115.281)" d="M97.18607 56.69188C97.18607 79.05649 79.05649 97.18607 56.69188 97.18607 34.32727 97.18607 16.19768 79.05649 16.19768 56.69188 16.19768 34.32727 34.32727 16.19768 56.69188 16.19768 79.05649 16.19768 97.18607 34.32727 97.18607 56.69188ZM56.69188 56.69188" fill="#ffffff"/>
<path transform="matrix(1,0,0,-1,2.026,115.281)" d="M153.87796 56.69188C153.87796 79.05649 135.74837 97.18607 113.38376 97.18607 91.01917 97.18607 72.88957 79.05649 72.88957 56.69188 72.88957 34.32727 91.01917 16.19768 113.38376 16.19768 135.74837 16.19768 153.87796 34.32727 153.87796 56.69188ZM113.38376 56.69188" fill="#fff799"/>
<path transform="matrix(1,0,0,-1,2.026,115.281)" stroke-width=".59776" stroke-linecap="butt" stroke-miterlimit="10" stroke-linejoin="miter" fill="none" stroke="#000000" d="M97.18607 56.69188C97.18607 79.05649 79.05649 97.18607 56.69188 97.18607 34.32727 97.18607 16.19768 79.05649 16.19768 56.69188 16.19768 34.32727 34.32727 16.19768 56.69188 16.19768 79.05649 16.19768 97.18607 34.32727 97.18607 56.69188ZM56.69188 56.69188"/>
<path transform="matrix(1,0,0,-1,2.026,115.281)" stroke-width=".59776" stroke-linecap="butt" stroke-miterlimit="10" stroke-linejoin="miter" fill="none" stroke="#000000" d="M153.87796 56.69188C153.87796 79.05649 135.74837 97.18607 113.38376 97.18607 91.01917 97.18607 72.88957 79.05649 72.88957 56.69188 72.88957 34.32727 91.01917 16.19768 113.38376 16.19768 135.74837 16.19768 153.87796 34.32727 153.87796 56.69188ZM113.38376 56.69188"/>
<use data-text="C" xlink:href="#font_1_36" transform="matrix(10.9091,0,0,-10.9091,44.089,110.99)"/>
<use data-text="o" xlink:href="#font_1_80" transform="matrix(10.9091,0,0,-10.9091,51.47446,110.99)"/>
<use data-text="f" xlink:href="#font_1_2393" transform="matrix(10.9091,0,0,-10.9091,56.92901,110.99)"/>
<use data-text="e" xlink:href="#font_1_70" transform="matrix(10.9091,0,0,-10.9091,63.3872,110.99)"/>
<use data-text="e" xlink:href="#font_1_70" transform="matrix(10.9091,0,0,-10.9091,68.40538,110.99)"/>
<use data-text="T" xlink:href="#font_1_53" transform="matrix(10.9091,0,0,-10.9091,107.713,110.662)"/>
<use data-text="e" xlink:href="#font_1_70" transform="matrix(10.9091,0,0,-10.9091,112.92754,110.662)"/>
<use data-text="a" xlink:href="#font_1_66" transform="matrix(10.9091,0,0,-10.9091,117.86937,110.662)"/>
<use data-text="8" xlink:href="#font_1_25" transform="matrix(10.9091,0,0,-10.9091,45.546,61.862)"/>
<use data-text="0" xlink:href="#font_1_17" transform="matrix(10.9091,0,0,-10.9091,50.618734,61.862)"/>
<use data-text="4" xlink:href="#font_1_21" transform="matrix(10.9091,0,0,-10.9091,81.991,61.862)"/>
<use data-text="0" xlink:href="#font_1_17" transform="matrix(10.9091,0,0,-10.9091,87.06373,61.862)"/>
<use data-text="2" xlink:href="#font_1_19" transform="matrix(10.9091,0,0,-10.9091,118.436008,61.862)"/>
<use data-text="0" xlink:href="#font_1_17" transform="matrix(10.9091,0,0,-10.9091,123.508739,61.862)"/>
</svg>
