<svg xmlns="http://www.w3.org/2000/svg" xmlns:xlink="http://www.w3.org/1999/xlink" xmlns:inkscape="http://www.inkscape.org/namespaces/inkscape" version="1.1" width="331" height="234" viewBox="0 0 331 234">
<defs>
<path id="font_1_1" d="M.47299195 .31976319C.47299195 .38682557 .46998597 .47288514 .43499757 .5479431 .3909912 .64201357 .31498719 .6660156 .25698854 .6660156 .19699097 .6660156 .12098694 .64201357 .07699585 .5459442 .04499817 .47688294 .039993287 .39582826 .039993287 .31976319 .039993287 .25471498 .041992189 .15765381 .084991458 .07858276 .13198853-.0064697267 .20999146-.022460938 .2559967-.022460938 .32099916-.022460938 .394989 .0055389406 .43699647 .097595218 .46699525 .1646576 .47299195 .23971558 .47299195 .31976319M.25698854 .002532959C.22698975 .002532959 .15499878 .016540528 .13598633 .12962342 .12599182 .18867493 .12599182 .2747345 .12599182 .33177186 .12599182 .39982606 .12599182 .47888185 .13798523 .53393557 .1579895 .6230011 .22200012 .64100649 .2559967 .64100649 .2939911 .64100649 .35699464 .62098696 .37599183 .5279236 .3869934 .47288514 .3869934 .39482118 .3869934 .33177186 .3869934 .2697296 .3869934 .18566895 .3769989 .12661743 .35598756 .012542725 .28199769 .002532959 .25698854 .002532959Z"/>
<path id="font_1_5" d="M.10398865 .3444519C.10398865 .32641603 .10398865 .31539918 .117996219 .31539918 .12599182 .31539918 .1289978 .31941224 .1349945 .32843019 .16499329 .3704834 .21299744 .39453126 .2649994 .39453126 .37199403 .39453126 .37199403 .24029541 .37199403 .20425415 .37199403 .17324829 .37199403 .11125183 .34399415 .06637573 .31698609 .024475098 .2749939 .0055389406 .23599243 .0055389406 .1769867 .0055389406 .10998535 .042434694 .085998538 .116256717 .08699036 .116256717 .09298706 .11425781 .099990848 .11425781 .11999512 .11425781 .14898682 .12724304 .14898682 .16325379 .14898682 .19424439 .1269989 .21224976 .099990848 .21224976 .07899475 .21224976 .050994874 .20025635 .050994874 .1602478 .050994874 .069366458 .1269989-.022460938 .23799134-.022460938 .35899354-.022460938 .46199037 .0753479 .46199037 .19924927 .46199037 .3204193 .37599183 .41952516 .2669983 .41952516 .21899414 .41952516 .16999817 .40351869 .1349945 .36747743V.56477358C.16499329 .5557709 .19599915 .55078127 .22698975 .55078127 .34999085 .55078127 .42199708 .6397705 .42199708 .652771 .42199708 .6617737 .41600038 .6657715 .41099549 .6657715 .40899659 .6657715 .40699769 .6657715 .397995 .6607666 .35099793 .6417694 .30499269 .6337738 .2630005 .6337738 .21998596 .6337738 .1749878 .6417694 .1289978 .6607666 .11898804 .6657715 .116989139 .6657715 .115997318 .6657715 .10398865 .6657715 .10398865 .655777 .10398865 .6387787V.3444519Z"/>
<path id="font_1_2" d="M.3039856 .6392822C.3039856 .6642761 .30299378 .666275 .27799989 .666275 .21598816 .60227969 .12399292 .60227969 .09298706 .60227969V.57128909C.11199951 .57128909 .17298889 .57128909 .22698975 .5972748V.08001709C.22698975 .042999269 .22399903 .0309906 .1309967 .0309906H.09899902V0C.1349945 .0029907227 .22399903 .0029907227 .2649994 .0029907227 .30599977 .0029907227 .3959961 .0029907227 .43199159 0V.0309906H.3999939C.30699159 .0309906 .3039856 .042999269 .3039856 .08001709V.6392822Z"/>
<path id="font_1_3" d="M.46199037 .17704773H.43399049C.43199159 .16404724 .42399598 .10501099 .41099549 .08900452 .40499879 .07998657 .33599855 .07998657 .31599427 .07998657H.13798523L.23699951 .17404175C.40098573 .3161316 .46199037 .36915589 .46199037 .4711914 .46199037 .5860901 .36698915 .6660156 .24398804 .6660156 .1289978 .6660156 .050994874 .575119 .050994874 .4841919 .050994874 .43418885 .09399414 .42919923 .102996829 .42919923 .125 .42919923 .15499878 .44519044 .15499878 .48120118 .15499878 .51119998 .13398743 .5332031 .102996829 .5332031 .09799194 .5332031 .09498596 .5332031 .09098816 .53219607 .114990238 .6030731 .1789856 .63500979 .23298645 .63500979 .33499146 .63500979 .36999513 .5401764 .36999513 .4711914 .36999513 .36915589 .29299928 .28611756 .24499512 .23408509L.06199646 .035995485C.050994874 .024993897 .050994874 .022994996 .050994874 0H.43399049L.46199037 .17704773Z"/>
<path id="font_1_4" d="M.0289917 .19602967V.16503906H.3019867V.07901001C.3019867 .041992189 .29899598 .0309906 .22399903 .0309906H.20199585V0C.2649994 .0029907227 .33499146 .0029907227 .34199525 .0029907227 .34700013 .0029907227 .4189911 .0029907227 .48199464 0V.0309906H.45999146C.3849945 .0309906 .38198854 .041992189 .38198854 .07901001V.16503906H.48399354V.19602967H.38198854V.64974978C.38198854 .669754 .38198854 .6767578 .36299134 .6767578 .35099793 .6767578 .34999085 .67575076 .34098817 .66174319L.0289917 .19602967M.06098938 .19602967 .30799867 .56581118V.19602967H.06098938Z"/>
<path id="font_1_6" d="M.13398743 .33073426C.13398743 .43276979 .14498902 .4897766 .17199707 .54177859 .19198609 .58277896 .24099732 .64100649 .31498719 .64100649 .33499146 .64100649 .3809967 .63697817 .4039917 .6007843 .36698915 .6007843 .35099793 .5817871 .35099793 .55477908 .35099793 .5287781 .36898805 .50878909 .39698792 .50878909 .4249878 .50878909 .44400025 .5267792 .44400025 .55677798 .44400025 .612854 .4039917 .6660156 .31298829 .6660156 .18399048 .6660156 .042999269 .53878787 .042999269 .3157196 .042999269 .044555665 .16499329-.022460938 .25898744-.022460938 .36999513-.022460938 .46998597 .0705719 .46998597 .20265198 .46998597 .32972718 .37799073 .42578126 .2649994 .42578126 .20498657 .42578126 .1619873 .39076234 .13398743 .33073426M.2579956 .0055389406C.20098877 .0055389406 .16799927 .05256653 .1559906 .08157349 .13699341 .12660218 .13598633 .20965576 .13598633 .22566223 .13598633 .29270936 .16699219 .4007721 .2630005 .4007721 .2789917 .4007721 .32798768 .4007721 .3600006 .33872987 .3789978 .30070497 .3789978 .25167848 .3789978 .20365906 .3789978 .15562439 .3789978 .1065979 .3600006 .06956482 .32899476 .012542725 .2849884 .0055389406 .2579956 .0055389406Z"/>
<path id="font_1_7" d="M.17199707 .45387269C.14199829 .47288514 .11898804 .4998932 .11898804 .53692629 .11898804 .6019745 .18899536 .64100649 .25498963 .64100649 .33198548 .64100649 .3939972 .58695986 .3939972 .51690676 .3939972 .44685365 .33399964 .40083314 .2939911 .37780763L.17199707 .45387269M.31900025 .36180116C.36898805 .38581849 .44198609 .43585206 .44198609 .51690676 .44198609 .6109772 .34799195 .6660156 .2579956 .6660156 .15299988 .6660156 .070999149 .5909729 .070999149 .49890138 .070999149 .46087647 .084991458 .42485047 .10899353 .39582826 .12599182 .3768158 .13198853 .37280274 .18998719 .3357849 .101989749 .29374696 .042999269 .23269654 .042999269 .15063477 .042999269 .044555665 .147995-.022460938 .2559967-.022460938 .37199403-.022460938 .46998597 .059570314 .46998597 .16764832 .46998597 .26472474 .3959961 .3127594 .37098695 .32876588 .3600006 .33677674 .33099366 .35479737 .31900025 .36180116M.21699524 .31877137 .34298707 .2407074C.3659973 .22569275 .41600038 .19366455 .41600038 .1326294 .41600038 .05357361 .33599855 .0055389406 .25698854 .0055389406 .16999817 .0055389406 .09700012 .06758118 .09700012 .15063477 .09700012 .22268677 .14698792 .28274537 .21699524 .31877137Z"/>
<path id="font_2_42" d="M.58699038 .04525757 .58099368 .114227298C.5519867 .09423828 .522995 .07524109 .4889984 .06524658 .45700074 .054244996 .42199708 .053253175 .3880005 .053253175 .32299806 .053253175 .2639923 .08824158 .22299195 .13922119 .1769867 .19819641 .15499878 .27217103 .15499878 .3471527 .15499878 .42211915 .1769867 .49710084 .22299195 .55607607 .2639923 .60705569 .32299806 .64204409 .3880005 .64204409 .41799928 .64204409 .44898988 .63905337 .47799684 .63005068 .5079956 .62106326 .5359955 .60606387 .56199648 .58807376L.57598879 .67004397C.54599 .6820526 .5149994 .6920471 .48298646 .6980438 .45199586 .7040405 .41999818 .7060547 .3880005 .7060547 .2999878 .7060547 .21899414 .66604617 .1599884 .60105898 .09799194 .53108218 .06599426 .4401245 .06599426 .3471527 .06599426 .2541809 .09799194 .16320801 .1599884 .09423828 .21899414 .029251099 .2999878-.0107421879 .3880005-.0107421879 .4229889-.0107421879 .45799256-.009750366 .49198915 .00024414063 .526001 .009246826 .5569916 .027252198 .58699038 .04525757Z"/>
<path id="font_2_72" d="M.1559906 0V.69433596H.08099365V0H.1559906Z"/>
<path id="font_2_28" d="M.40899659 .00024414063V.28903199C.40899659 .39094544 .33599855 .4609375 .24398804 .4609375 .1789856 .4609375 .13398743 .44493104 .08699036 .41792298L.09298706 .3519745C.14498902 .38894654 .19499207 .40193177 .24398804 .40193177 .29100038 .40193177 .33099366 .361969 .33099366 .2880249V.24505615C.18099976 .24305725 .053985597 .20106507 .053985597 .11317444 .053985597 .07022095 .08099365-.0107421879 .16799927-.0107421879 .18199158-.0107421879 .27598573-.008743286 .33399964 .036254884V.00024414063H.40899659M.33099366 .13214112C.33099366 .11317444 .33099366 .0881958 .29699708 .069229129 .2679901 .051254274 .22999573 .050247194 .21899414 .050247194 .17098999 .050247194 .12599182 .07322693 .12599182 .11515808 .12599182 .18507385 .28799439 .19206238 .33099366 .19406128V.13214112Z"/>
<path id="font_2_98" d="M.3600006 .12817383C.3600006 .18313599 .32299806 .21710205 .32099916 .22009278 .28199769 .25506593 .25498963 .26106263 .20498657 .27005006 .1499939 .28103639 .10398865 .29103089 .10398865 .33998109 .10398865 .40193177 .17599488 .40193177 .18899536 .40193177 .22099304 .40193177 .27398683 .39793397 .33099366 .3639679L.34298707 .42892457C.29100038 .45292665 .25 .4609375 .19898987 .4609375 .17399597 .4609375 .032989503 .4609375 .032989503 .32998658 .032989503 .28103639 .06199646 .24906922 .08699036 .23008728 .117996219 .20809937 .13999939 .20411682 .19499207 .19311524 .23098755 .18612671 .2889862 .1741333 .2889862 .1211853 .2889862 .052246095 .20999146 .052246095 .19499207 .052246095 .11399841 .052246095 .057998659 .08921814 .039993287 .10121155L.027999878 .0332489C.05999756 .01725769 .114990238-.0107421879 .19599915-.0107421879 .21398926-.0107421879 .2689972-.0107421879 .31199647 .021255494 .34298707 .04525757 .3600006 .08522034 .3600006 .12817383Z"/>
<path id="font_2_54" d="M.526001 .6263275V.69132998H.09399414V0H.18299866V.31497193H.4850006V.37597657H.18299866V.6273346H.31399537C.32598878 .6273346 .33799745 .6263275 .34999085 .6263275H.526001Z"/>
<path id="font_2_96" d="M.32699586 .38806153V.45507813C.23799134 .45407105 .18299866 .4050598 .1519928 .35905458V.45007325H.08198547V0H.15699768V.21403504C.15699768 .31404115 .22898865 .38606263 .32699586 .38806153Z"/>
<path id="font_2_50" d="M.4139862 .21875C.4139862 .25274659 .41299439 .32781983 .37399293 .38790895 .33299256 .4499359 .27198792 .4609375 .23599243 .4609375 .125 .4609375 .034988405 .3548584 .034988405 .22573853 .034988405 .09411621 .1309967-.0107421879 .25099183-.0107421879 .31399537-.0107421879 .37098695 .013244629 .4099884 .041244508L.4039917 .1060791C.34098817 .054244996 .2749939 .050247194 .2519989 .050247194 .17199707 .050247194 .10798645 .121032718 .10499573 .21875H.4139862M.35699464 .27374269H.10998535C.12599182 .34985353 .1789856 .39993287 .23599243 .39993287 .28799439 .39993287 .34399415 .36587525 .35699464 .27374269Z"/>
<path id="font_2_91" d="M.43399049-.19335938V.45507813H.35899354V.3870697C.34899903 .4000702 .2999878 .45507813 .22200012 .45507813 .12199402 .45507813 .035995485 .35609437 .035995485 .22116089 .035995485 .09422302 .10899353-.0107421879 .20498657-.0107421879 .26098634-.0107421879 .31399537 .012252808 .35598756 .050247194V-.19335938H.43399049M.35899354 .14019776C.35899354 .12220764 .35899354 .12020874 .34899903 .10722351 .32299806 .06724548 .28599549 .050247194 .25 .050247194 .17399597 .050247194 .11399841 .12820435 .11399841 .22116089 .11399841 .32310487 .18598938 .3910675 .25898744 .3910675 .32798768 .3910675 .35899354 .32009889 .35899354 .28012086V.14019776Z"/>
<path id="font_2_109" d="M.43499757 .00024414063V.44433595H.35699464V.15426636C.35699464 .07925415 .30099488 .04425049 .23699951 .04425049 .1659851 .04425049 .15899658 .070251468 .15899658 .11326599V.44433595H.08099365V.10926819C.08099365 .037246705 .10398865-.0107421879 .18699646-.0107421879 .23999024-.0107421879 .31098939 .0052490236 .3600006 .04824829V.00024414063H.43499757Z"/>
<path id="font_2_77" d="M.43499757 0V.29804994C.43499757 .36405946 .41999818 .45507813 .2979889 .45507813 .20799256 .45507813 .15899658 .3870697 .15299988 .3790741V.45007325H.08099365V0H.15899658V.2450409C.15899658 .31105042 .18399048 .3940735 .2599945 .3940735 .35598756 .3940735 .35699464 .32305909 .35699464 .29104615V0H.43499757Z"/>
<path id="font_2_43" d="M.4149933 .040252687 .40899659 .10719299C.35798646 .067230228 .3039856 .053253175 .25299073 .053253175 .16999817 .053253175 .11399841 .1251831 .11399841 .2230835 .11399841 .3010254 .15098572 .39692689 .25698854 .39692689 .30899049 .39692689 .34298707 .38893128 .397995 .3529663L.4099884 .41792298C.35099793 .4519348 .31698609 .4609375 .2559967 .4609375 .116989139 .4609375 .035995485 .33998109 .035995485 .22209168 .035995485 .09820557 .1269989-.0107421879 .2519989-.0107421879 .30599977-.0107421879 .36099244 .003250122 .4149933 .040252687Z"/>
<path id="font_2_118" d="M.44599916 .44433595H.37098695C.24099732 .12605286 .23899842 .08001709 .23799134 .056991579H.23699951C.23098755 .124053958 .15098572 .31021119 .14698792 .31921388L.09298706 .44433595H.01399231L.20799256 0 .17199707-.09005737C.1459961-.14808655 .1289978-.14808655 .114990238-.14808655 .09899902-.14808655 .066986087-.14408875 .036987306-.13208008L.042999269-.19708252C.06498718-.2020874 .09298706-.20507813 .114990238-.20507813 .1499939-.20483399 .18699646-.19282532 .22799683-.09082031L.44599916 .44433595Z"/>
<path id="font_3_62" d="M.70199587 .04801941V.64630129C.70199587 .6783142 .69499209 .69433596 .6539917 .69433596H.6029968C.5649872 .69433596 .5549927 .6813202 .5549927 .64630129V.40820313H.23799134V.64630129C.23799134 .6783142 .23098755 .69433596 .18998719 .69433596H.13899231C.102996829 .69433596 .09098816 .6833191 .09098816 .64630129V.04801941C.09098816 .011993408 .101989749 0 .13899231 0H.18998719C.22799683 0 .23799134 .013000488 .23799134 .04801941V.31419374H.5549927V.04801941C.5549927 .01600647 .56199648 0 .6029968 0H.6539917C.69200137 0 .70199587 .013000488 .70199587 .04801941Z"/>
<path id="font_3_66" d="M.19400025 .04798889V.41000367C.19400025 .44200135 .18699646 .4580078 .1459961 .4580078H.10899353C.07299805 .4580078 .06098938 .44700624 .06098938 .41000367V.04798889C.06098938 .011993408 .07199097 0 .10899353 0H.1459961C.18399048 0 .19400025 .0129852299 .19400025 .04798889M.20098877 .6058502V.6248474C.20098877 .6568451 .19400025 .67285159 .15299988 .67285159H.101989749C.06399536 .67285159 .053985597 .6598511 .053985597 .6248474V.6058502C.053985597 .57684329 .05899048 .55784609 .101989749 .55784609H.15299988C.19499207 .55784609 .20098877 .5758362 .20098877 .6058502Z"/>
<path id="font_3_98" d="M.3959961 .14111328C.3959961 .19700623 .3659973 .2319336 .34799195 .24790955 .30799867 .28382875 .272995 .28982545 .23098755 .2978058 .17599488 .30778504 .13598633 .31576539 .13598633 .35469056 .13598633 .39561463 .16899109 .40359498 .20799256 .40359498 .2749939 .40359498 .31098939 .37864686 .33699037 .35668946 .34700013 .3467102 .34899903 .3467102 .35299684 .3467102 .36299134 .3467102 .36499024 .35569764 .3659973 .35968019 .36799623 .36767579 .37799073 .42359925 .37799073 .42860414 .37799073 .44459535 .32499696 .4586029 .31399537 .4626007 .27398683 .4736023 .24198914 .47460938 .21598816 .47460938 .17098999 .47460938 .036987306 .47460938 .036987306 .33174134 .036987306 .2828369 .05899048 .25289918 .085998538 .22894287 .12098694 .19700623 .1599884 .1900177 .21699524 .17903137 .24598694 .17404175 .29699708 .16506958 .29699708 .12113953 .29699708 .07423401 .2579956 .06724548 .21899414 .06724548 .1749878 .06724548 .11898804 .08023071 .07199097 .13612366 .066986087 .14111328 .06399536 .144104 .057998659 .144104 .04798889 .144104 .04598999 .13511658 .04499817 .12913513 .042999269 .11515808 .0309906 .058242799 .0309906 .04824829 .0309906 .03024292 .10598755 .0062561037 .10598755 .0062561037 .16099549-.0107421879 .20199585-.0107421879 .21899414-.0107421879 .269989-.0107421879 .3959961-.0067443849 .3959961 .14111328Z"/>
<path id="font_3_105" d="M.37298585 .04725647C.37298585 .050247194 .37098695 .057250978 .36499024 .078125 .3600006 .09811401 .35798646 .10411072 .34899903 .10411072 .34399415 .10411072 .34298707 .1031189 .33699037 .09712219 .32598878 .08911133 .29899598 .06724548 .25698854 .06724548 .23298645 .06724548 .21798706 .084121707 .21798706 .15011597V.3860016H.30699159C.31900025 .3860016 .35499574 .3860016 .35499574 .42199708 .35499574 .4580078 .31900025 .4580078 .30699159 .4580078H.21798706V.5409088C.21798706 .572876 .21099854 .5888672 .16999817 .5888672H.13899231C.102996829 .5888672 .09098816 .5778656 .09098816 .5409088V.4580078H.067993167C.056991579 .4580078 .019989014 .4580078 .019989014 .42199708 .019989014 .3860016 .055999757 .3860016 .067993167 .3860016H.08799744V.13311768C.08799744 .03225708 .12399292-.0107421879 .19299317-.0107421879 .20199585-.0107421879 .24598694-.0107421879 .2979889 .0052490236 .31498719 .010253906 .37298585 .028244019 .37298585 .04725647Z"/>
<path id="font_3_81" d="M.5179901 .22494507C.5179901 .3886261 .43798829 .47460938 .2749939 .47460938 .10798645 .47460938 .0309906 .38563539 .0309906 .22494507 .0309906 .06225586 .116989139-.0107421879 .27398683-.0107421879 .43099977-.0107421879 .5179901 .06124878 .5179901 .22494507M.38198854 .23692322C.38198854 .15808106 .38198854 .06724548 .2749939 .06724548 .16699219 .06724548 .16699219 .15707398 .16699219 .23692322 .16699219 .31376649 .16699219 .40260316 .27398683 .40260316 .38198854 .40260316 .38198854 .31477357 .38198854 .23692322Z"/>
<path id="font_3_59" d="M.5339966 .40473939C.5339966 .40873719 .5289917 .43273927 .5269928 .44274903 .522995 .46673585 .522995 .46875 .5049896 .46875 .47399903 .46875 .42399598 .45674134 .38598634 .43374635 .33898927 .46473695 .2869873 .46875 .24398804 .46875 .20199585 .46875 .042999269 .46875 .042999269 .30386354 .042999269 .26391603 .053985597 .21398926 .09199524 .18103028 .06498718 .14405823 .06498718 .10505676 .06498718 .10005188 .06498718 .08106995 .070999149 .048080446 .09199524 .021102906 .07699585 .015106201 .024993897-.0028839112 .024993897-.066833499 .024993897-.0978241 .039993287-.14979553 .102996829-.17880249 .1599884-.20480347 .22698975-.20579529 .27398683-.20579529 .33299256-.20579529 .5239868-.20579529 .5239868-.06384277 .5239868 .092056278 .3829956 .092056278 .24798584 .092056278H.19999695C.1639862 .092056278 .1499939 .092056278 .13598633 .10404968 .13198853 .108047489 .114990238 .123062137 .114990238 .14904785 .114990238 .15605164 .115997318 .15805054 .116989139 .1640625 .1639862 .13795471 .22299195 .13795471 .24398804 .13795471 .28599549 .13795471 .44499208 .13795471 .44499208 .3028412 .44499208 .3607788 .4229889 .3957367 .4139862 .40673829 .43099977 .40673829 .46598817 .40673829 .5069885 .3957367 .5109863 .3937378 .5179901 .39175416 .5209961 .39175416 .5289917 .39175416 .5339966 .3977356 .5339966 .40473939M.31698609 .30384828C.31698609 .24891663 .31399537 .20996094 .24398804 .20996094 .17399597 .20996094 .17098999 .24790955 .17098999 .3028412 .17098999 .3577881 .17399597 .39674378 .24398804 .39674378 .31399537 .39674378 .31698609 .3587799 .31698609 .30384828M.42099-.06669617C.42099-.13378906 .30699159-.13378906 .2749939-.13378906 .23498535-.13378906 .12799073-.13378906 .12799073-.063690189 .12799073-.016601563 .15899658-.016601563 .18199158-.016601563H.2979889C.3789978-.01701355 .42099-.03100586 .42099-.06700134V-.06669617Z"/>
<path id="font_3_96" d="M.35598756 .39486695V.441864C.35598756 .46185304 .35598756 .4688568 .33799745 .4688568 .30999757 .4688568 .23699951 .4588623 .18998719 .3508606H.18899536V.41586305C.18899536 .44786073 .18199158 .4638672 .14099121 .4638672H.10899353C.07299805 .4638672 .06098938 .4528656 .06098938 .41586305V.047973634C.06098938 .011993408 .07199097 0 .10899353 0H.1459961C.18399048 0 .19400025 .0129852299 .19400025 .047973634V.22990418C.19400025 .32487489 .272995 .36386109 .33599855 .3678589 .35398866 .36886598 .35598756 .36886598 .35598756 .39486695Z"/>
<path id="font_3_28" d="M.47399903 .04824829V.31578065C.47399903 .4736023 .32199098 .47460938 .27198792 .47460938 .22499085 .47460938 .1749878 .4705963 .10798645 .44259645 .08699036 .433609 .08198547 .43060304 .08198547 .41960145 .08198547 .41259767 .08799744 .3547058 .08898926 .34672547 .08999634 .34072877 .09498596 .33573915 .101989749 .33573915 .10699463 .33573915 .10998535 .33872987 .11299133 .34172059 .1559906 .38664247 .20599365 .40859986 .2679901 .40859986 .32199098 .40859986 .33799745 .3756714 .33799745 .31677247V.2818451C.30299378 .2818451 .040985109 .2798462 .040985109 .13311768 .040985109 .06324768 .09700012-.0107421879 .18499756-.0107421879 .21899414-.0107421879 .2939911-.00074768069 .34098817 .068237308V.04824829C.34098817 .01625061 .34799195 .00024414063 .3889923 .00024414063H.42599488C.46398927 .00024414063 .47399903 .013244629 .47399903 .04824829M.33799745 .15408325C.33799745 .06124878 .24299622 .06124878 .23999024 .06124878 .19799805 .06124878 .17098999 .09718323 .17098999 .13511658 .17098999 .23292542 .30999757 .23991394 .33799745 .24092102V.15408325Z"/>
<path id="font_3_75" d="M.80599978 .047973634V.32487489C.80599978 .42785646 .7619934 .4688568 .6599884 .4688568 .58898928 .4688568 .5339966 .43585206 .49798585 .36987306 .48199464 .4658661 .39698792 .4688568 .35499574 .4688568 .33599855 .4688568 .2939911 .4688568 .24899292 .43585206 .21798706 .41285707 .19799805 .38085938 .19099427 .36587525H.18998719V.41586305C.18998719 .44786073 .18299866 .4638672 .14199829 .4638672H.10798645C.07199097 .4638672 .05999756 .4528656 .05999756 .41586305V.047973634C.05999756 .011993408 .070999149 0 .10798645 0H.147995C.18598938 0 .19599915 .0129852299 .19599915 .047973634V.26890565C.19599915 .35887147 .25698854 .39686585 .30599977 .39686585 .35398866 .39686585 .36499024 .37586976 .36499024 .32287599V.047973634C.36499024 .011993408 .37599183 0 .41299439 0H.45298768C.4909973 0 .5009918 .0129852299 .5009918 .047973634V.26890565C.5009918 .35887147 .56199648 .39686585 .61099246 .39686585 .6589966 .39686585 .66999819 .37586976 .66999819 .32287599V.047973634C.66999819 .011993408 .68099978 0 .71798709 0H.7579956C.79599 0 .80599978 .0129852299 .80599978 .047973634Z"/>
<path id="font_3_54" d="M.56399539 .63539126V.6434021C.56399539 .6753998 .5569916 .69140627 .5159912 .69140627H.13899231C.102996829 .69140627 .09098816 .68040469 .09098816 .6434021V.048080446C.09098816 .012008667 .101989749 0 .13899231 0H.18998719C.22799683 0 .23799134 .013015747 .23799134 .048080446V.2995453H.46998597C.5009918 .2995453 .5179901 .30654908 .5179901 .34654237 .5179901 .38354493 .5049896 .3935547 .46998597 .3935547H.23799134V.59039309H.2809906L.5069885 .58740237C.54100039 .58740237 .56399539 .58740237 .56399539 .63539126Z"/>
</defs>
<path transform="matrix(1.00002,0,0,-1.00003,30.085,204.12375)" stroke-width=".3985" stroke-linecap="butt" stroke-miterlimit="10" stroke-linejoin="miter" fill="none" stroke="#bfbfbf" d="M0 0H295.32884M0 30.32368H295.32884M0 60.64737H295.32884M0 90.97107H295.32884M0 121.29475H295.32884M0 151.61844H295.32884M0 181.94214H295.32884"/>
<path transform="matrix(1.00002,0,0,-1.00003,30.085,204.12375)" stroke-width=".19925" stroke-linecap="butt" stroke-miterlimit="10" stroke-linejoin="miter" fill="none" stroke="#7f807f" d="M0-4.25218V0M59.06577-4.25218V0M118.13153-4.25218V0M177.1973-4.25218V0M236.26306-4.25218V0M295.32884-4.25218V0"/>
<path transform="matrix(1.00002,0,0,-1.00003,30.085,204.12375)" stroke-width=".19925" stroke-linecap="butt" stroke-miterlimit="10" stroke-linejoin="miter" fill="none" stroke="#7f807f" d="M0 0H4.25246M0 30.32368H4.25246M0 60.64737H4.25246M0 90.97107H4.25246M0 121.29475H4.25246M0 151.61844H4.25246M0 181.94214H4.25246"/>
<path transform="matrix(1.00002,0,0,-1.00003,30.085,204.12375)" stroke-width=".3985" stroke-linecap="butt" stroke-miterlimit="10" stroke-linejoin="miter" fill="none" stroke="#000000" d="M0 0H295.32884"/>
<path transform="matrix(1.00002,0,0,-1.00003,30.085,204.12375)" stroke-width=".3985" stroke-linecap="butt" stroke-miterlimit="10" stroke-linejoin="miter" fill="none" stroke="#000000" d="M0 0V181.94214"/>
<use data-text="0" xlink:href="#font_1_1" transform="matrix(8.966579,0,0,-8.966669,27.780953,217.67417)"/>
<use data-text="5" xlink:href="#font_1_5" transform="matrix(8.966579,0,0,-8.966669,86.84814,217.67417)"/>
<use data-text="1" xlink:href="#font_1_2" transform="matrix(8.966579,0,0,-8.966669,143.61127,217.67417)"/>
<use data-text="0" xlink:href="#font_1_1" transform="matrix(8.966579,0,0,-8.966669,148.21112,217.67417)"/>
<use data-text="1" xlink:href="#font_1_2" transform="matrix(8.966579,0,0,-8.966669,202.67847,217.67417)"/>
<use data-text="5" xlink:href="#font_1_5" transform="matrix(8.966579,0,0,-8.966669,207.27832,217.67417)"/>
<use data-text="2" xlink:href="#font_1_3" transform="matrix(8.966579,0,0,-8.966669,261.74464,217.67417)"/>
<use data-text="0" xlink:href="#font_1_1" transform="matrix(8.966579,0,0,-8.966669,266.34449,217.67417)"/>
<use data-text="2" xlink:href="#font_1_3" transform="matrix(8.966579,0,0,-8.966669,320.81184,217.67417)"/>
<use data-text="5" xlink:href="#font_1_5" transform="matrix(8.966579,0,0,-8.966669,325.41169,217.67417)"/>
<use data-text="0" xlink:href="#font_1_1" transform="matrix(8.966579,0,0,-8.966669,21.956837,207.01284)"/>
<use data-text="2" xlink:href="#font_1_3" transform="matrix(8.966579,0,0,-8.966669,21.956837,176.68892)"/>
<use data-text="4" xlink:href="#font_1_4" transform="matrix(8.966579,0,0,-8.966669,21.956837,146.36402)"/>
<use data-text="6" xlink:href="#font_1_6" transform="matrix(8.966579,0,0,-8.966669,21.956837,116.0391)"/>
<use data-text="8" xlink:href="#font_1_7" transform="matrix(8.966579,0,0,-8.966669,21.956837,85.714199)"/>
<use data-text="1" xlink:href="#font_1_2" transform="matrix(8.966579,0,0,-8.966669,17.349747,55.390275)"/>
<use data-text="0" xlink:href="#font_1_1" transform="matrix(8.966579,0,0,-8.966669,21.9496,55.390275)"/>
<use data-text="1" xlink:href="#font_1_2" transform="matrix(8.966579,0,0,-8.966669,17.349747,25.065369)"/>
<use data-text="2" xlink:href="#font_1_3" transform="matrix(8.966579,0,0,-8.966669,21.9496,25.065369)"/>
<path transform="matrix(1.00002,0,0,-1.00003,30.085,204.12375)" d="M0 0H59.06577V136.4566H0ZM59.06577 0H118.13154V45.48553H59.06577ZM118.13153 0H177.1973V166.78029H118.13153ZM177.1973 0H236.26306V30.32368H177.1973ZM236.26306 0H295.32884V121.29475H236.26306Z" fill="#1175a7"/>
<path transform="matrix(1.00002,0,0,-1.00003,30.085,204.12375)" stroke-width=".3985" stroke-linecap="butt" stroke-miterlimit="10" stroke-linejoin="miter" fill="none" stroke="#bfbfbf" d="M0 0H59.06577V136.4566H0ZM59.06577 0H118.13154V45.48553H59.06577ZM118.13153 0H177.1973V166.78029H118.13153ZM177.1973 0H236.26306V30.32368H177.1973ZM236.26306 0H295.32884V121.29475H236.26306Z"/>
<use data-text="C" xlink:href="#font_2_42" transform="matrix(9.962799,0,0,-9.962899,167.16675,231.54857)"/>
<use data-text="l" xlink:href="#font_2_72" transform="matrix(9.962799,0,0,-9.962899,173.53298,231.54857)"/>
<use data-text="a" xlink:href="#font_2_28" transform="matrix(9.962799,0,0,-9.962899,175.91408,231.54857)"/>
<use data-text="s" xlink:href="#font_2_98" transform="matrix(9.962799,0,0,-9.962899,180.70618,231.54857)"/>
<use data-text="s" xlink:href="#font_2_98" transform="matrix(9.962799,0,0,-9.962899,184.52194,231.54857)"/>
<use data-text="F" xlink:href="#font_2_54" transform="matrix(0,-9.962899,-9.962799,-0,8.466553,134.20563)"/>
<use data-text="r" xlink:href="#font_2_96" transform="matrix(0,-9.962899,-9.962799,-0,8.466553,128.8157)"/>
<use data-text="e" xlink:href="#font_2_50" transform="matrix(0,-9.962899,-9.962799,-0,8.466553,125.4084)"/>
<use data-text="q" xlink:href="#font_2_91" transform="matrix(0,-9.962899,-9.962799,-0,8.466553,120.98487)"/>
<use data-text="u" xlink:href="#font_2_109" transform="matrix(0,-9.962899,-9.962799,-0,8.466553,115.83405)"/>
<use data-text="e" xlink:href="#font_2_50" transform="matrix(0,-9.962899,-9.962799,-0,8.466553,110.683238)"/>
<use data-text="n" xlink:href="#font_2_77" transform="matrix(0,-9.962899,-9.962799,-0,8.466553,106.259708)"/>
<use data-text="c" xlink:href="#font_2_43" transform="matrix(0,-9.962899,-9.962799,-0,8.466553,101.10889)"/>
<use data-text="y" xlink:href="#font_2_118" transform="matrix(0,-9.962899,-9.962799,-0,8.466553,96.68536)"/>
<use data-text="H" xlink:href="#font_3_62" transform="matrix(11.95544,0,0,-11.95556,143.57128,10.215927)"/>
<use data-text="i" xlink:href="#font_3_66" transform="matrix(11.95544,0,0,-11.95556,153.0639,10.215927)"/>
<use data-text="s" xlink:href="#font_3_98" transform="matrix(11.95544,0,0,-11.95556,156.12448,10.215927)"/>
<use data-text="t" xlink:href="#font_3_105" transform="matrix(11.95544,0,0,-11.95556,161.16968,10.215927)"/>
<use data-text="o" xlink:href="#font_3_81" transform="matrix(11.95544,0,0,-11.95556,165.9997,10.215927)"/>
<use data-text="g" xlink:href="#font_3_59" transform="matrix(11.95544,0,0,-11.95556,172.57518,10.215927)"/>
<use data-text="r" xlink:href="#font_3_96" transform="matrix(11.95544,0,0,-11.95556,179.15067,10.215927)"/>
<use data-text="a" xlink:href="#font_3_28" transform="matrix(11.95544,0,0,-11.95556,183.5981,10.215927)"/>
<use data-text="m" xlink:href="#font_3_75" transform="matrix(11.95544,0,0,-11.95556,189.8747,10.215927)"/>
<use data-text="F" xlink:href="#font_3_54" transform="matrix(11.95544,0,0,-11.95556,204.61579,10.215927)"/>
</svg>
