<svg xmlns="http://www.w3.org/2000/svg" xmlns:xlink="http://www.w3.org/1999/xlink" xmlns:inkscape="http://www.inkscape.org/namespaces/inkscape" version="1.1" width="116" height="88" viewBox="0 0 116 88">
<defs>
<path id="font_1_1" d="M.1789856 .114868167C.13899231 .047973634 .099990848 .033981325 .055999757 .0309906 .04399109 .02999878 .034988405 .02999878 .034988405 .010986328 .034988405 .004989624 .039993287 0 .04798889 0 .07499695 0 .10598755 .0029907227 .13398743 .0029907227 .16699219 .0029907227 .20199585 0 .23399353 0 .23999024 0 .25299073 0 .25299073 .018997193 .25299073 .02999878 .24398804 .0309906 .23699951 .0309906 .21398926 .032989503 .18998719 .04096985 .18998719 .06593323 .18998719 .077926639 .19599915 .088897708 .20399475 .102890018L.27999879 .23068238H.5309906C.5329895 .2097168 .5469971 .07392883 .5469971 .063949588 .5469971 .033981325 .49499513 .0309906 .47499085 .0309906 .46099855 .0309906 .45098878 .0309906 .45098878 .010986328 .45098878 0 .46299745 0 .46499635 0 .5059967 0 .548996 .0029907227 .58999636 .0029907227 .61499026 .0029907227 .6779938 0 .7029877 0 .70899966 0 .72099307 0 .72099307 .019989014 .72099307 .0309906 .71099856 .0309906 .69799807 .0309906 .6359863 .0309906 .6359863 .037979127 .6329956 .06694031L.57199099 .691803C.56999209 .71180728 .56999209 .7158203 .5529938 .7158203 .5369873 .7158203 .5329895 .7088165 .5269928 .69880679L.1789856 .114868167M.29899598 .26168824 .49598695 .5917816 .5279999 .26168824H.29899598Z"/>
<path id="font_1_2" d="M.1599884 .07795715C.1499939 .038986207 .147995 .0309906 .068984989 .0309906 .051986696 .0309906 .041992189 .0309906 .041992189 .010986328 .041992189 0 .050994874 0 .068984989 0H.42599488C.58399966 0 .70199587 .11791992 .70199587 .21585083 .70199587 .28778077 .6439972 .3457489 .5469971 .35673524 .651001 .37573243 .7559967 .44970704 .7559967 .5446625 .7559967 .6186218 .6899872 .6826172 .56999209 .6826172H.23399353C.21499634 .6826172 .20498657 .6826172 .20498657 .6626129 .20498657 .6516113 .21398926 .6516113 .23298645 .6516113 .23498535 .6516113 .2539978 .6516113 .2709961 .6496124 .2889862 .6476135 .2979889 .64660647 .2979889 .6336212 .2979889 .6296234 .29699708 .62661746 .2939911 .614624L.1599884 .07795715M.31098939 .36573792 .37298585 .6136322C.38198854 .64860537 .38398744 .6516113 .4269867 .6516113H.55599978C.6439972 .6516113 .6649933 .5926361 .6649933 .5486603 .6649933 .46069337 .57899478 .36573792 .45700074 .36573792H.31098939M.2659912 .0309906C.2519989 .0309906 .25 .0309906 .24398804 .03199768 .23399353 .032989503 .23098755 .033996583 .23098755 .04197693 .23098755 .04498291 .23098755 .04698181 .23599243 .064971927L.30499269 .34375H.49398805C.58999636 .34375 .60899356 .2698059 .60899356 .22683716 .60899356 .12791443 .519989 .0309906 .4019928 .0309906H.2659912Z"/>
<path id="font_2_4" d="M.5239868 .6603241C.5279999 .67433169 .5279999 .67633059 .5279999 .68032839 .5279999 .68933108 .5219879 .69433596 .5130005 .69433596 .49899293 .69433596 .41099549 .6863251 .3909912 .6843262 .3809967 .68333438 .36999513 .6823273 .36999513 .665329 .36999513 .6523285 .3809967 .6523285 .39698792 .6523285 .44400025 .6523285 .44400025 .6453247 .44400025 .6363373 .44400025 .6293335 .43499757 .5943451 .42999269 .573349L.41099549 .4963684C.40098573 .45837403 .3909912 .41937257 .38198854 .3803711 .36299134 .41638185 .33198548 .4423828 .2869873 .4423828 .17098999 .4423828 .041992189 .30433656 .041992189 .1512909 .041992189 .041259767 .11199951-.0107421879 .1789856-.0107421879 .24398804-.0107421879 .29699708 .043258668 .31298829 .06227112 .32398988 .007247925 .37399293-.0107421879 .4059906-.0107421879 .43499757-.0107421879 .45999146 .002243042 .48199464 .044265748 .5 .07727051 .5139923 .13928223 .5139923 .14329529 .5139923 .14828491 .5109863 .1552887 .5009918 .1552887 .4889984 .1552887 .48799134 .15029907 .48399354 .13128662 .46199037 .044265748 .43998719 .014251709 .40899659 .014251709 .38398744 .014251709 .37799073 .038253786 .37799073 .060272218 .37799073 .073272708 .3829956 .10127258 .38398744 .104278568L.5239868 .6603241M.31698609 .121276859C.31298829 .105285648 .31199647 .103271488 .29599 .08326721 .2599945 .040252687 .21899414 .014251709 .18199158 .014251709 .1329956 .014251709 .115997318 .06526184 .115997318 .10827637 .115997318 .15730286 .14498902 .27233888 .16899109 .32034303 .20098877 .3803711 .24699402 .41737367 .2869873 .41737367 .35398866 .41737367 .36898805 .3363495 .36898805 .3313446 .36898805 .32635499 .36698915 .32034303 .3659973 .3163452L.31698609 .121276859Z"/>
<path id="font_2_5" d="M.13699341 .22949219C.19799805 .22949219 .2630005 .22949219 .31599427 .24247742 .4099884 .2654724 .4269867 .32144166 .4269867 .35542298 .4269867 .41238404 .37399293 .4423828 .31498719 .4423828 .19898987 .4423828 .04699707 .3444214 .04699707 .17242432 .04699707 .077316287 .102996829-.0107421879 .21099854-.0107421879 .36099244-.0107421879 .44499208 .09333801 .44499208 .10635376 .44499208 .112350467 .43798829 .12036133 .43099977 .12036133 .42599488 .12036133 .4249878 .11936951 .41600038 .10835266 .35598756 .03427124 .2649994 .014251709 .21299744 .014251709 .14199829 .014251709 .12298584 .081329349 .12298584 .13137818 .12298584 .13337708 .12298584 .16841126 .13699341 .22949219M.14399719 .25448609C.18798828 .41238404 .29899598 .41737367 .31498719 .41737367 .34899903 .41737367 .3899994 .40138246 .3899994 .35542298 .3899994 .25448609 .23899842 .25448609 .14399719 .25448609Z"/>
<path id="font_2_1" d="M.38198854 .3803711C.36299134 .41638185 .33198548 .4423828 .2869873 .4423828 .17098999 .4423828 .041992189 .30433656 .041992189 .1512909 .041992189 .041259767 .11199951-.0107421879 .1789856-.0107421879 .24398804-.0107421879 .29699708 .043258668 .31298829 .06227112 .32398988 .007247925 .37399293-.0107421879 .4059906-.0107421879 .43499757-.0107421879 .45999146 .002243042 .48199464 .044265748 .5 .07727051 .5139923 .13928223 .5139923 .14329529 .5139923 .14828491 .5109863 .1552887 .5009918 .1552887 .4889984 .1552887 .48799134 .15029907 .48399354 .13128662 .46199037 .044265748 .43998719 .014251709 .40899659 .014251709 .38398744 .014251709 .37799073 .038253786 .37799073 .060272218 .37799073 .07926941 .3829956 .09927368 .3919983 .1342926L.4169922 .23731995C.42399598 .2623291 .44198609 .33735658 .44599916 .35235597 .44999696 .36636354 .45599366 .3903656 .45599366 .39337159 .45599366 .40937806 .44299317 .42237855 .4249878 .42237855 .4119873 .42237855 .3869934 .41438294 .38198854 .3803711M.31698609 .122283939C.31199647 .103271488 .31199647 .10227966 .29599 .08326721 .2599945 .040252687 .21899414 .014251709 .18199158 .014251709 .1329956 .014251709 .115997318 .06526184 .115997318 .10827637 .115997318 .15730286 .14498902 .27233888 .16899109 .32034303 .20098877 .3803711 .24699402 .41737367 .2869873 .41737367 .35398866 .41737367 .36898805 .33735658 .36898805 .33035279 .36898805 .3253479 .36698915 .3193512 .3659973 .31533814L.31698609 .122283939Z"/>
<path id="font_2_3" d="M.4019928 .38200379C.3639984 .38101197 .34399415 .352005 .34399415 .3270111 .34399415 .29800416 .36999513 .29101563 .38198854 .29101563 .4019928 .29101563 .43798829 .30801393 .43798829 .355011 .43798829 .40827943 .3849945 .4423828 .31599427 .4423828 .17999268 .4423828 .042999269 .30400086 .042999269 .16012573 .042999269 .06021118 .10998535-.0107421879 .21099854-.0107421879 .36099244-.0107421879 .44499208 .093185428 .44499208 .106170658 .44499208 .11216736 .43798829 .120162967 .43099977 .120162967 .42599488 .120162967 .4249878 .119155887 .41600038 .108169559 .35598756 .034225465 .2649994 .014251709 .21299744 .014251709 .15699768 .014251709 .11999512 .051223756 .11999512 .12315369 .11999512 .16612244 .13899231 .2650299 .1789856 .32901 .20199585 .3650055 .2539978 .41737367 .31698609 .41737367 .33599855 .41737367 .37799073 .41333009 .4019928 .38200379Z"/>
<path id="font_2_6" d="M.37399293 .3996582H.46398927C.48399354 .3996582 .49398805 .3996582 .49398805 .41766358 .49398805 .43066407 .48399354 .43066407 .46499635 .43066407H.37998963C.3909912 .49082948 .40499879 .5730438 .41799928 .62705996 .4269867 .6660614 .45098878 .68006899 .47099305 .68006899 .47698976 .68006899 .5 .67807009 .5169983 .6660614 .49699403 .66204836 .46798707 .6440582 .46798707 .61105349 .46798707 .5860596 .4869995 .575058 .5059967 .575058 .5329895 .575058 .5609894 .59706118 .5609894 .63505557 .5609894 .68006899 .5169983 .7050781 .46998597 .7050781 .4249878 .7050781 .37998963 .6730652 .35899354 .63204959 .33699037 .5890503 .32998658 .5499878 .30899049 .43066407H.23699951C.21798706 .43066407 .20599365 .43066407 .20599365 .4126587 .20599365 .3996582 .21699524 .3996582 .23498535 .3996582H.30299378C.2749939 .25474549 .23999024 .054855348 .21798706-.049087526 .20599365-.10406494 .18998719-.18008423 .14199829-.18008423 .1269989-.18008423 .10699463-.17407227 .09700012-.16607666 .12199402-.1620636 .14698792-.1410675 .14698792-.111068729 .14698792-.08607483 .12799073-.07507324 .10899353-.07507324 .08198547-.07507324 .053985597-.097076419 .053985597-.1350708 .053985597-.18109131 .099990848-.20507813 .14199829-.20507813 .24398804-.20507813 .29100038-.039093019 .30699159 .04685974L.37399293 .3996582Z"/>
<path id="font_2_2" d="M.23899842 .6603241C.24299622 .67433169 .24299622 .67633059 .24299622 .68032839 .24299622 .68933108 .23699951 .69433596 .22799683 .69433596 .21398926 .69433596 .12599182 .6863251 .10598755 .6843262 .09599304 .68333438 .084991458 .6823273 .084991458 .665329 .084991458 .6523285 .09599304 .6523285 .11199951 .6523285 .15899658 .6523285 .15899658 .6453247 .15899658 .6363373 .15899658 .6303406 .15899658 .6283264 .1519928 .6013336L.09899902 .3903656C.084991458 .3343506 .07199097 .28334046 .06098938 .23631287 .053985597 .21131897 .04699707 .18130493 .04699707 .14929199 .04699707 .06326294 .09498596-.0107421879 .18099976-.0107421879 .2979889-.0107421879 .42599488 .13027954 .42599488 .28033448 .42599488 .38237 .36299134 .4423828 .28799439 .4423828 .23699951 .4423828 .19299317 .40737916 .16999817 .38536073L.23899842 .6603241M.1559906 .32835389C.18399048 .36836244 .23498535 .41737367 .28599549 .41737367 .33299256 .41737367 .35198976 .37036134 .35198976 .323349 .35198976 .27833558 .32398988 .15429688 .29299928 .10127258 .2559967 .037261964 .21199036 .014251709 .18099976 .014251709 .1309967 .014251709 .11099243 .06427002 .11099243 .11528015 .11099243 .15029907 .117996219 .17730713 .14099121 .2683258L.1559906 .32835389Z"/>
</defs>
<path transform="matrix(1.00002,0,0,-1,43.98122,44.319)" stroke-width=".3985" stroke-linecap="butt" stroke-miterlimit="10" stroke-linejoin="miter" fill="none" stroke="#000000" d="M-42.5202-42.5202V42.5202H70.867V-42.5202ZM70.867 42.5202"/>
<path transform="matrix(1.00002,0,0,-1,43.98122,44.319)" stroke-width=".3985" stroke-linecap="butt" stroke-miterlimit="10" stroke-linejoin="miter" fill="none" stroke="#000000" d="M28.3468 0C28.3468 15.6557 15.6557 28.3468 0 28.3468-15.6557 28.3468-28.3468 15.6557-28.3468 0-28.3468-15.6557-15.6557-28.3468 0-28.3468 15.6557-28.3468 28.3468-15.6557 28.3468 0ZM0 0"/>
<path transform="matrix(1.00002,0,0,-1,43.98122,44.319)" stroke-width=".3985" stroke-linecap="butt" stroke-miterlimit="10" stroke-linejoin="miter" fill="none" stroke="#000000" d="M56.69362 0C56.69362 15.6557 44.00252 28.3468 28.3468 28.3468 12.69109 28.3468 0 15.6557 0 0 0-15.6557 12.69109-28.3468 28.3468-28.3468 44.00252-28.3468 56.69362-15.6557 56.69362 0ZM28.3468 0"/>
<use data-text="A" xlink:href="#font_1_1" transform="matrix(9.962799,0,0,-9.9626,11.897579,19.376)"/>
<use data-text="B" xlink:href="#font_1_2" transform="matrix(9.962799,0,0,-9.9626,96.64728,19.376)"/>
<use data-text="d" xlink:href="#font_2_4" transform="matrix(8.966579,0,0,-8.9664,55.767457,37.511)"/>
<use data-text="e" xlink:href="#font_2_5" transform="matrix(8.966579,0,0,-8.9664,56.012464,56.171)"/>
<use data-text="a" xlink:href="#font_2_1" transform="matrix(8.966579,0,0,-8.9664,27.366887,43.414)"/>
<use data-text="c" xlink:href="#font_2_3" transform="matrix(8.966579,0,0,-8.9664,33.48201,54.753)"/>
<use data-text="f" xlink:href="#font_2_6" transform="matrix(8.966579,0,0,-8.9664,80.94296,46.561)"/>
<use data-text="b" xlink:href="#font_2_2" transform="matrix(8.966579,0,0,-8.9664,98.70132,81.448)"/>
</svg>
