<svg xmlns="http://www.w3.org/2000/svg" xmlns:xlink="http://www.w3.org/1999/xlink" xmlns:inkscape="http://www.inkscape.org/namespaces/inkscape" version="1.1" width="225" height="168" viewBox="0 0 225 168">
<defs>
<path id="font_1_82" d="M.42399598 0V.057998659H.29899598V.6777344H.2789917C.21998596 .6166992 .13699341 .6137085 .08898926 .6117096V.55371096C.12199402 .55470278 .16999817 .55670168 .21998596 .57769778V.057998659H.09498596V0H.42399598Z"/>
<path id="font_1_107" d="M.44898988 0V.070999149H.2669983C.25498963 .070999149 .24299622 .069992069 .23098755 .069992069H.12199402C.1539917 .09794617 .22999573 .17280579 .26098634 .20178223 .27999879 .2197876 .33099366 .2617798 .34999085 .27978517 .394989 .32476808 .44898988 .37776185 .44898988 .4627533 .44898988 .5777283 .36799623 .6777344 .23599243 .6777344 .12199402 .6777344 .06599426 .59973147 .041992189 .51374819 .053985597 .49674989 .05899048 .49075318 .06098938 .4877472 .06298828 .4857483 .07299805 .4727478 .08299255 .4587555 .102996829 .5357361 .1309967 .61372378 .22200012 .61372378 .31599427 .61372378 .36698915 .53874209 .36698915 .4607544 .36698915 .37576295 .30999757 .31877137 .25099183 .25878907L.17399597 .18777466 .049987794 .06399536V0H.44898988Z"/>
<path id="font_1_106" d="M.45700074 .17964173C.45700074 .27072145 .3869934 .33276368 .31900025 .35375978 .394989 .39476014 .42999269 .4627533 .42999269 .5257416 .42999269 .61172488 .34700013 .6777344 .24798584 .6777344 .17098999 .6777344 .09799194 .63772585 .055999757 .56773379L.09199524 .51374819C.12098694 .583725 .18598938 .61972048 .24699402 .61972048 .29899598 .61972048 .34799195 .58973696 .34799195 .5257416 .34799195 .4647522 .30699159 .40576173 .24598694 .39175416 .23999024 .39076234 .23799134 .39076234 .16699219 .38476563V.323761H.23799134C.34599305 .323761 .36799623 .23068238 .36799623 .1806488 .36799623 .10258484 .32199098 .038528444 .24499512 .038528444 .17599488 .038528444 .09700012 .07356262 .052993776 .14161682L.041992189 .08155823C.114990238-.012466431 .20698548-.022460938 .24699402-.022460938 .36898805-.022460938 .45700074 .07455444 .45700074 .17964173Z"/>
<path id="font_1_57" d="M.47099305 .17089844V.23188782H.37199403V.65625H.2809906L.027999878 .23188782V.17089844H.29299928V0H.37199403V.17089844H.47099305M.29899598 .23188782H.10598755C.1579895 .31796266 .2979889 .5551605 .29899598 .6121979V.23188782Z"/>
<path id="font_1_56" d="M.44898988 .2028656C.44898988 .328125 .36299134 .42720033 .2599945 .42720033 .21998596 .42720033 .18199158 .41220094 .15299988 .38619996V.5922394H.41600038V.65625H.08099365V.28704835H.14698792C.1639862 .32711793 .20098877 .36621095 .25898744 .36621095 .30599977 .36621095 .3600006 .32511903 .3600006 .20487976 .3600006 .038528444 .23799134 .038528444 .22898865 .038528444 .1619873 .038528444 .100997928 .0776062 .07199097 .13172913L.038986207 .0756073C.07998657 .01852417 .14898682-.022460938 .22999573-.022460938 .34899903-.022460938 .44898988 .07661438 .44898988 .2028656Z"/>
<path id="font_1_101" d="M.45700074 .22172547C.45700074 .34985353 .3909912 .46191407 .29499818 .46191407 .2630005 .46191407 .18699646 .4539032 .12599182 .37887574 .13899231 .5398102 .21798706 .61972048 .30999757 .61972048 .34799195 .61972048 .37998963 .61273196 .4149933 .5987549V.6577301C.3639984 .6777344 .32299806 .6777344 .30899049 .6777344 .16799927 .6777344 .041992189 .53681948 .041992189 .32182313 .041992189 .038528444 .1659851-.022460938 .25099183-.022460938 .31098939-.022460938 .35398866 .0005340576 .3929901 .045532228 .43798829 .096588138 .45700074 .14263916 .45700074 .22172547M.375 .22172547C.375 .1876831 .375 .14163208 .35099793 .1006012 .33399964 .0725708 .30799867 .038528444 .25099183 .038528444 .14498902 .038528444 .12998963 .1856842 .1269989 .21871948 .1269989 .23272705 .1269989 .23472595 .12799073 .24674988 .12799073 .32081605 .17298889 .40090943 .2559967 .40090943 .3039856 .40090943 .33198548 .375885 .35198976 .33883668 .37298585 .3018036 .375 .2667694 .375 .22172547Z"/>
<path id="font_1_100" d="M.45700074 .59124758V.65625H.041992189V.5852356H.23199463C.24398804 .5852356 .2559967 .5862427 .2679901 .5862427H.3889923C.24099732 .4232483 .1519928 .22325135 .1519928-.0107421879H.23599243C.23599243 .2892456 .3789978 .5032501 .45700074 .59124758Z"/>
<path id="font_1_51" d="M.45700074 .17964173C.45700074 .27072145 .3869934 .3317566 .31999208 .3547516 .40899659 .38375855 .44299317 .4497528 .44299317 .5027466 .44299317 .59672549 .35798646 .6777344 .25 .6777344 .13798523 .6777344 .055999757 .59472659 .055999757 .5027466 .055999757 .4497528 .08999634 .38375855 .1789856 .3547516 .10699463 .3297577 .041992189 .26670838 .041992189 .17964173 .041992189 .07055664 .13398743-.022460938 .24899292-.022460938 .36799623-.022460938 .45700074 .07356262 .45700074 .17964173M.37298585 .5027466C.37298585 .43075563 .32199098 .38476563 .25 .38476563 .17298889 .38476563 .12599182 .43374635 .12599182 .5027466 .12599182 .57173159 .1749878 .61972048 .24899292 .61972048 .32798768 .61972048 .37298585 .56773379 .37298585 .5027466M.37599183 .1806488C.37599183 .08357239 .31399537 .038528444 .25 .038528444 .18099976 .038528444 .12298584 .08656311 .12298584 .1806488 .12298584 .28572084 .19499207 .323761 .24899292 .323761 .30699159 .323761 .37599183 .28372193 .37599183 .1806488Z"/>
<path id="font_1_78" d="M.45700074 .33436585C.45700074 .6147156 .33799745 .6777344 .25299073 .6777344 .18299866 .6777344 .14199829 .64772036 .10699463 .6107178 .04399109 .54263308 .041992189 .47654725 .041992189 .43348695 .041992189 .3053589 .10798645 .19335938 .20399475 .19335938 .2659912 .19335938 .32998658 .22235108 .37298585 .2763672 .3619995 .115448 .2849884 .038528444 .20599365 .038528444 .17199707 .038528444 .13899231 .046524049 .102996829 .07649231L.07199097 .023529053C.10598755-.0014648438 .14299011-.022460938 .20498657-.022460938 .33599855-.022460938 .45700074 .11643982 .45700074 .33436585M.37098695 .41046144C.37098695 .32835389 .32199098 .25434876 .24299622 .25434876 .19599915 .25434876 .16799927 .277359 .14698792 .31436158 .125 .3533783 .12399292 .39042665 .12399292 .43348695 .12399292 .47753907 .125 .51860049 .15299988 .5626526 .17298889 .59169009 .20098877 .61972048 .25299073 .61972048 .35099793 .61972048 .36799623 .48355104 .36999513 .43449403 .37098695 .42747499 .37098695 .4174652 .37098695 .41046144Z"/>
<path id="font_1_121" d="M.45700074 .32554627C.45700074 .4045868 .45298768 .49765016 .41099549 .57870486 .36999513 .6537323 .30099488 .6777344 .25 .6777344 .19099427 .6777344 .12098694 .6507263 .07998657 .5616913 .04699707 .48864747 .041992189 .40559388 .041992189 .32554627 .041992189 .24649048 .04598999 .17344666 .07598877 .10043335 .115997318 .0045318605 .19198609-.022460938 .24899292-.022460938 .32199098-.022460938 .3849945 .01852417 .4169922 .08743286 .44699098 .1524353 .45700074 .21847534 .45700074 .32554627M.3789978 .33755494C.3789978 .27149964 .3789978 .20846558 .36099244 .14543152 .33499146 .054504396 .28199769 .038528444 .25 .038528444 .19799805 .038528444 .15699768 .07644653 .13699341 .1484375 .12098694 .20599365 .11999512 .2599945 .11999512 .33799745 .11999512 .40072633 .11999512 .46072389 .13699341 .5157318 .14299011 .534729 .16799927 .61672976 .24899292 .61672976 .32699586 .61672976 .35299684 .5407257 .3600006 .52272036 .3789978 .46672059 .3789978 .39971925 .3789978 .33772279V.33755494Z"/>
</defs>
<path transform="matrix(1.00006,0,0,-1.00008,-15.348901,155.08113)" d="M36.85092 0C36.85092 4.69675 33.04356 8.50412 28.3468 8.50412 23.65004 8.50412 19.84268 4.69675 19.84268 0 19.84268-4.69675 23.65004-8.50412 28.3468-8.50412 33.04356-8.50412 36.85092-4.69675 36.85092 0ZM28.3468 0" fill="#bfbfbf"/>
<path transform="matrix(1.00006,0,0,-1.00008,-15.348901,155.08113)" stroke-width=".3985" stroke-linecap="butt" stroke-miterlimit="10" stroke-linejoin="miter" fill="none" stroke="#000000" d="M36.85092 0C36.85092 4.69675 33.04356 8.50412 28.3468 8.50412 23.65004 8.50412 19.84268 4.69675 19.84268 0 19.84268-4.69675 23.65004-8.50412 28.3468-8.50412 33.04356-8.50412 36.85092-4.69675 36.85092 0ZM28.3468 0"/>
<use data-text="1" xlink:href="#font_1_82" transform="matrix(9.963197,0,0,-9.963397,10.508651,158.4584)" fill="#ffffff"/>
<path transform="matrix(1.00006,0,0,-1.00008,-15.348901,155.08113)" d="M65.19774 0C65.19774 4.69675 61.39037 8.50412 56.69362 8.50412 51.99686 8.50412 48.18948 4.69675 48.18948 0 48.18948-4.69675 51.99686-8.50412 56.69362-8.50412 61.39037-8.50412 65.19774-4.69675 65.19774 0ZM56.69362 0" fill="#bfbfbf"/>
<path transform="matrix(1.00006,0,0,-1.00008,-15.348901,155.08113)" stroke-width=".3985" stroke-linecap="butt" stroke-miterlimit="10" stroke-linejoin="miter" fill="none" stroke="#000000" d="M65.19774 0C65.19774 4.69675 61.39037 8.50412 56.69362 8.50412 51.99686 8.50412 48.18948 4.69675 48.18948 0 48.18948-4.69675 51.99686-8.50412 56.69362-8.50412 61.39037-8.50412 65.19774-4.69675 65.19774 0ZM56.69362 0"/>
<use data-text="2" xlink:href="#font_1_107" transform="matrix(9.963197,0,0,-9.963397,38.85735,158.4584)" fill="#ffffff"/>
<path transform="matrix(1.00006,0,0,-1.00008,-15.348901,155.08113)" d="M93.54454 0C93.54454 4.69675 89.73718 8.50412 85.04042 8.50412 80.34366 8.50412 76.5363 4.69675 76.5363 0 76.5363-4.69675 80.34366-8.50412 85.04042-8.50412 89.73718-8.50412 93.54454-4.69675 93.54454 0ZM85.04042 0" fill="#bfbfbf"/>
<path transform="matrix(1.00006,0,0,-1.00008,-15.348901,155.08113)" stroke-width=".3985" stroke-linecap="butt" stroke-miterlimit="10" stroke-linejoin="miter" fill="none" stroke="#000000" d="M93.54454 0C93.54454 4.69675 89.73718 8.50412 85.04042 8.50412 80.34366 8.50412 76.5363 4.69675 76.5363 0 76.5363-4.69675 80.34366-8.50412 85.04042-8.50412 89.73718-8.50412 93.54454-4.69675 93.54454 0ZM85.04042 0"/>
<use data-text="3" xlink:href="#font_1_106" transform="matrix(9.963197,0,0,-9.963397,67.206058,158.3494)" fill="#ffffff"/>
<path transform="matrix(1.00006,0,0,-1.00008,-15.348901,155.08113)" d="M121.89136 0C121.89136 4.69675 118.08398 8.50412 113.38724 8.50412 108.69048 8.50412 104.8831 4.69675 104.8831 0 104.8831-4.69675 108.69048-8.50412 113.38724-8.50412 118.08398-8.50412 121.89136-4.69675 121.89136 0ZM113.38724 0" fill="#bfbfbf"/>
<path transform="matrix(1.00006,0,0,-1.00008,-15.348901,155.08113)" stroke-width=".3985" stroke-linecap="butt" stroke-miterlimit="10" stroke-linejoin="miter" fill="none" stroke="#000000" d="M121.89136 0C121.89136 4.69675 118.08398 8.50412 113.38724 8.50412 108.69048 8.50412 104.8831 4.69675 104.8831 0 104.8831-4.69675 108.69048-8.50412 113.38724-8.50412 118.08398-8.50412 121.89136-4.69675 121.89136 0ZM113.38724 0"/>
<use data-text="4" xlink:href="#font_1_57" transform="matrix(9.963197,0,0,-9.963397,95.554759,158.3494)" fill="#ffffff"/>
<path transform="matrix(1.00006,0,0,-1.00008,-15.348901,155.08113)" d="M150.23816 0C150.23816 4.69675 146.4308 8.50412 141.73404 8.50412 137.03728 8.50412 133.22992 4.69675 133.22992 0 133.22992-4.69675 137.03728-8.50412 141.73404-8.50412 146.4308-8.50412 150.23816-4.69675 150.23816 0ZM141.73404 0" fill="#bfbfbf"/>
<path transform="matrix(1.00006,0,0,-1.00008,-15.348901,155.08113)" stroke-width=".3985" stroke-linecap="butt" stroke-miterlimit="10" stroke-linejoin="miter" fill="none" stroke="#000000" d="M150.23816 0C150.23816 4.69675 146.4308 8.50412 141.73404 8.50412 137.03728 8.50412 133.22992 4.69675 133.22992 0 133.22992-4.69675 137.03728-8.50412 141.73404-8.50412 146.4308-8.50412 150.23816-4.69675 150.23816 0ZM141.73404 0"/>
<use data-text="5" xlink:href="#font_1_56" transform="matrix(9.963197,0,0,-9.963397,123.90244,158.23938)" fill="#ffffff"/>
<path transform="matrix(1.00006,0,0,-1.00008,-15.348901,155.08113)" d="M178.58498 0C178.58498 4.69675 174.7776 8.50412 170.08086 8.50412 165.3841 8.50412 161.57672 4.69675 161.57672 0 161.57672-4.69675 165.3841-8.50412 170.08086-8.50412 174.7776-8.50412 178.58498-4.69675 178.58498 0ZM170.08086 0" fill="#bfbfbf"/>
<path transform="matrix(1.00006,0,0,-1.00008,-15.348901,155.08113)" stroke-width=".3985" stroke-linecap="butt" stroke-miterlimit="10" stroke-linejoin="miter" fill="none" stroke="#000000" d="M178.58498 0C178.58498 4.69675 174.7776 8.50412 170.08086 8.50412 165.3841 8.50412 161.57672 4.69675 161.57672 0 161.57672-4.69675 165.3841-8.50412 170.08086-8.50412 174.7776-8.50412 178.58498-4.69675 178.58498 0ZM170.08086 0"/>
<use data-text="6" xlink:href="#font_1_101" transform="matrix(9.963197,0,0,-9.963397,152.25116,158.3494)" fill="#ffffff"/>
<path transform="matrix(1.00006,0,0,-1.00008,-15.348901,155.08113)" d="M206.93178 0C206.93178 4.69675 203.12442 8.50412 198.42766 8.50412 193.73091 8.50412 189.92354 4.69675 189.92354 0 189.92354-4.69675 193.73091-8.50412 198.42766-8.50412 203.12442-8.50412 206.93178-4.69675 206.93178 0ZM198.42766 0" fill="#bfbfbf"/>
<path transform="matrix(1.00006,0,0,-1.00008,-15.348901,155.08113)" stroke-width=".3985" stroke-linecap="butt" stroke-miterlimit="10" stroke-linejoin="miter" fill="none" stroke="#000000" d="M206.93178 0C206.93178 4.69675 203.12442 8.50412 198.42766 8.50412 193.73091 8.50412 189.92354 4.69675 189.92354 0 189.92354-4.69675 193.73091-8.50412 198.42766-8.50412 203.12442-8.50412 206.93178-4.69675 206.93178 0ZM198.42766 0"/>
<use data-text="7" xlink:href="#font_1_100" transform="matrix(9.963197,0,0,-9.963397,180.59986,158.29439)" fill="#ffffff"/>
<path transform="matrix(1.00006,0,0,-1.00008,-15.348901,155.08113)" d="M235.2786 0C235.2786 4.69675 231.47122 8.50412 226.77448 8.50412 222.07772 8.50412 218.27036 4.69675 218.27036 0 218.27036-4.69675 222.07772-8.50412 226.77448-8.50412 231.47122-8.50412 235.2786-4.69675 235.2786 0ZM226.77448 0" fill="#bfbfbf"/>
<path transform="matrix(1.00006,0,0,-1.00008,-15.348901,155.08113)" stroke-width=".3985" stroke-linecap="butt" stroke-miterlimit="10" stroke-linejoin="miter" fill="none" stroke="#000000" d="M235.2786 0C235.2786 4.69675 231.47122 8.50412 226.77448 8.50412 222.07772 8.50412 218.27036 4.69675 218.27036 0 218.27036-4.69675 222.07772-8.50412 226.77448-8.50412 231.47122-8.50412 235.2786-4.69675 235.2786 0ZM226.77448 0"/>
<use data-text="8" xlink:href="#font_1_51" transform="matrix(9.963197,0,0,-9.963397,208.94855,158.3494)" fill="#ffffff"/>
<path transform="matrix(1.00006,0,0,-1.00008,-15.348901,155.08113)" d="M36.85092 28.3468C36.85092 33.04356 33.04356 36.85092 28.3468 36.85092 23.65004 36.85092 19.84268 33.04356 19.84268 28.3468 19.84268 23.65004 23.65004 19.84268 28.3468 19.84268 33.04356 19.84268 36.85092 23.65004 36.85092 28.3468ZM28.3468 28.3468" fill="#bfbfbf"/>
<path transform="matrix(1.00006,0,0,-1.00008,-15.348901,155.08113)" stroke-width=".3985" stroke-linecap="butt" stroke-miterlimit="10" stroke-linejoin="miter" fill="none" stroke="#000000" d="M36.85092 28.3468C36.85092 33.04356 33.04356 36.85092 28.3468 36.85092 23.65004 36.85092 19.84268 33.04356 19.84268 28.3468 19.84268 23.65004 23.65004 19.84268 28.3468 19.84268 33.04356 19.84268 36.85092 23.65004 36.85092 28.3468ZM28.3468 28.3468"/>
<use data-text="9" xlink:href="#font_1_78" transform="matrix(9.963197,0,0,-9.963397,10.508651,130.00012)" fill="#ffffff"/>
<path transform="matrix(1.00006,0,0,-1.00008,-15.348901,155.08113)" d="M65.19774 28.3468C65.19774 33.04356 61.39037 36.85092 56.69362 36.85092 51.99686 36.85092 48.18948 33.04356 48.18948 28.3468 48.18948 23.65004 51.99686 19.84268 56.69362 19.84268 61.39037 19.84268 65.19774 23.65004 65.19774 28.3468ZM56.69362 28.3468" fill="#bfbfbf"/>
<path transform="matrix(1.00006,0,0,-1.00008,-15.348901,155.08113)" stroke-width=".3985" stroke-linecap="butt" stroke-miterlimit="10" stroke-linejoin="miter" fill="none" stroke="#000000" d="M65.19774 28.3468C65.19774 33.04356 61.39037 36.85092 56.69362 36.85092 51.99686 36.85092 48.18948 33.04356 48.18948 28.3468 48.18948 23.65004 51.99686 19.84268 56.69362 19.84268 61.39037 19.84268 65.19774 23.65004 65.19774 28.3468ZM56.69362 28.3468"/>
<use data-text="1" xlink:href="#font_1_82" transform="matrix(9.963197,0,0,-9.963397,36.366205,130.00012)" fill="#ffffff"/>
<use data-text="0" xlink:href="#font_1_121" transform="matrix(9.963197,0,0,-9.963397,41.3478,130.00012)" fill="#ffffff"/>
<path transform="matrix(1.00006,0,0,-1.00008,-15.348901,155.08113)" d="M93.54454 28.3468C93.54454 33.04356 89.73718 36.85092 85.04042 36.85092 80.34366 36.85092 76.5363 33.04356 76.5363 28.3468 76.5363 23.65004 80.34366 19.84268 85.04042 19.84268 89.73718 19.84268 93.54454 23.65004 93.54454 28.3468ZM85.04042 28.3468" fill="#bfbfbf"/>
<path transform="matrix(1.00006,0,0,-1.00008,-15.348901,155.08113)" stroke-width=".3985" stroke-linecap="butt" stroke-miterlimit="10" stroke-linejoin="miter" fill="none" stroke="#000000" d="M93.54454 28.3468C93.54454 33.04356 89.73718 36.85092 85.04042 36.85092 80.34366 36.85092 76.5363 33.04356 76.5363 28.3468 76.5363 23.65004 80.34366 19.84268 85.04042 19.84268 89.73718 19.84268 93.54454 23.65004 93.54454 28.3468ZM85.04042 28.3468"/>
<use data-text="1" xlink:href="#font_1_82" transform="matrix(9.963197,0,0,-9.963397,64.7149,130.11014)" fill="#ffffff"/>
<use data-text="1" xlink:href="#font_1_82" transform="matrix(9.963197,0,0,-9.963397,69.696498,130.11014)" fill="#ffffff"/>
<path transform="matrix(1.00006,0,0,-1.00008,-15.348901,155.08113)" d="M121.89136 28.3468C121.89136 33.04356 118.08398 36.85092 113.38724 36.85092 108.69048 36.85092 104.8831 33.04356 104.8831 28.3468 104.8831 23.65004 108.69048 19.84268 113.38724 19.84268 118.08398 19.84268 121.89136 23.65004 121.89136 28.3468ZM113.38724 28.3468" fill="#bfbfbf"/>
<path transform="matrix(1.00006,0,0,-1.00008,-15.348901,155.08113)" stroke-width=".3985" stroke-linecap="butt" stroke-miterlimit="10" stroke-linejoin="miter" fill="none" stroke="#000000" d="M121.89136 28.3468C121.89136 33.04356 118.08398 36.85092 113.38724 36.85092 108.69048 36.85092 104.8831 33.04356 104.8831 28.3468 104.8831 23.65004 108.69048 19.84268 113.38724 19.84268 118.08398 19.84268 121.89136 23.65004 121.89136 28.3468ZM113.38724 28.3468"/>
<use data-text="1" xlink:href="#font_1_82" transform="matrix(9.963197,0,0,-9.963397,93.0636,130.11014)" fill="#ffffff"/>
<use data-text="2" xlink:href="#font_1_107" transform="matrix(9.963197,0,0,-9.963397,98.0452,130.11014)" fill="#ffffff"/>
<path transform="matrix(1.00006,0,0,-1.00008,-15.348901,155.08113)" d="M150.23816 28.3468C150.23816 33.04356 146.4308 36.85092 141.73404 36.85092 137.03728 36.85092 133.22992 33.04356 133.22992 28.3468 133.22992 23.65004 137.03728 19.84268 141.73404 19.84268 146.4308 19.84268 150.23816 23.65004 150.23816 28.3468ZM141.73404 28.3468" fill="#bfbfbf"/>
<path transform="matrix(1.00006,0,0,-1.00008,-15.348901,155.08113)" stroke-width=".3985" stroke-linecap="butt" stroke-miterlimit="10" stroke-linejoin="miter" fill="none" stroke="#000000" d="M150.23816 28.3468C150.23816 33.04356 146.4308 36.85092 141.73404 36.85092 137.03728 36.85092 133.22992 33.04356 133.22992 28.3468 133.22992 23.65004 137.03728 19.84268 141.73404 19.84268 146.4308 19.84268 150.23816 23.65004 150.23816 28.3468ZM141.73404 28.3468"/>
<use data-text="1" xlink:href="#font_1_82" transform="matrix(9.963197,0,0,-9.963397,121.4123,130.00012)" fill="#ffffff"/>
<use data-text="3" xlink:href="#font_1_106" transform="matrix(9.963197,0,0,-9.963397,126.3939,130.00012)" fill="#ffffff"/>
<path transform="matrix(1.00006,0,0,-1.00008,-15.348901,155.08113)" d="M178.58498 28.3468C178.58498 33.04356 174.7776 36.85092 170.08086 36.85092 165.3841 36.85092 161.57672 33.04356 161.57672 28.3468 161.57672 23.65004 165.3841 19.84268 170.08086 19.84268 174.7776 19.84268 178.58498 23.65004 178.58498 28.3468ZM170.08086 28.3468" fill="#bfbfbf"/>
<path transform="matrix(1.00006,0,0,-1.00008,-15.348901,155.08113)" stroke-width=".3985" stroke-linecap="butt" stroke-miterlimit="10" stroke-linejoin="miter" fill="none" stroke="#000000" d="M178.58498 28.3468C178.58498 33.04356 174.7776 36.85092 170.08086 36.85092 165.3841 36.85092 161.57672 33.04356 161.57672 28.3468 161.57672 23.65004 165.3841 19.84268 170.08086 19.84268 174.7776 19.84268 178.58498 23.65004 178.58498 28.3468ZM170.08086 28.3468"/>
<use data-text="1" xlink:href="#font_1_82" transform="matrix(9.963197,0,0,-9.963397,149.76001,130.11014)" fill="#ffffff"/>
<use data-text="4" xlink:href="#font_1_57" transform="matrix(9.963197,0,0,-9.963397,154.74161,130.11014)" fill="#ffffff"/>
<path transform="matrix(1.00006,0,0,-1.00008,-15.348901,155.08113)" d="M206.93178 28.3468C206.93178 33.04356 203.12442 36.85092 198.42766 36.85092 193.73091 36.85092 189.92354 33.04356 189.92354 28.3468 189.92354 23.65004 193.73091 19.84268 198.42766 19.84268 203.12442 19.84268 206.93178 23.65004 206.93178 28.3468ZM198.42766 28.3468" fill="#bfbfbf"/>
<path transform="matrix(1.00006,0,0,-1.00008,-15.348901,155.08113)" stroke-width=".3985" stroke-linecap="butt" stroke-miterlimit="10" stroke-linejoin="miter" fill="none" stroke="#000000" d="M206.93178 28.3468C206.93178 33.04356 203.12442 36.85092 198.42766 36.85092 193.73091 36.85092 189.92354 33.04356 189.92354 28.3468 189.92354 23.65004 193.73091 19.84268 198.42766 19.84268 203.12442 19.84268 206.93178 23.65004 206.93178 28.3468ZM198.42766 28.3468"/>
<use data-text="1" xlink:href="#font_1_82" transform="matrix(9.963197,0,0,-9.963397,178.1087,130.00012)" fill="#ffffff"/>
<use data-text="5" xlink:href="#font_1_56" transform="matrix(9.963197,0,0,-9.963397,183.0903,130.00012)" fill="#ffffff"/>
<path transform="matrix(1.00006,0,0,-1.00008,-15.348901,155.08113)" d="M235.2786 28.3468C235.2786 33.04356 231.47122 36.85092 226.77448 36.85092 222.07772 36.85092 218.27036 33.04356 218.27036 28.3468 218.27036 23.65004 222.07772 19.84268 226.77448 19.84268 231.47122 19.84268 235.2786 23.65004 235.2786 28.3468ZM226.77448 28.3468" fill="#bfbfbf"/>
<path transform="matrix(1.00006,0,0,-1.00008,-15.348901,155.08113)" stroke-width=".3985" stroke-linecap="butt" stroke-miterlimit="10" stroke-linejoin="miter" fill="none" stroke="#000000" d="M235.2786 28.3468C235.2786 33.04356 231.47122 36.85092 226.77448 36.85092 222.07772 36.85092 218.27036 33.04356 218.27036 28.3468 218.27036 23.65004 222.07772 19.84268 226.77448 19.84268 231.47122 19.84268 235.2786 23.65004 235.2786 28.3468ZM226.77448 28.3468"/>
<use data-text="1" xlink:href="#font_1_82" transform="matrix(9.963197,0,0,-9.963397,206.4574,130.00012)" fill="#ffffff"/>
<use data-text="6" xlink:href="#font_1_101" transform="matrix(9.963197,0,0,-9.963397,211.439,130.00012)" fill="#ffffff"/>
<path transform="matrix(1.00006,0,0,-1.00008,-15.348901,155.08113)" d="M36.85092 56.69362C36.85092 61.39037 33.04356 65.19774 28.3468 65.19774 23.65004 65.19774 19.84268 61.39037 19.84268 56.69362 19.84268 51.99686 23.65004 48.18948 28.3468 48.18948 33.04356 48.18948 36.85092 51.99686 36.85092 56.69362ZM28.3468 56.69362" fill="#bfbfbf"/>
<path transform="matrix(1.00006,0,0,-1.00008,-15.348901,155.08113)" stroke-width=".3985" stroke-linecap="butt" stroke-miterlimit="10" stroke-linejoin="miter" fill="none" stroke="#000000" d="M36.85092 56.69362C36.85092 61.39037 33.04356 65.19774 28.3468 65.19774 23.65004 65.19774 19.84268 61.39037 19.84268 56.69362 19.84268 51.99686 23.65004 48.18948 28.3468 48.18948 33.04356 48.18948 36.85092 51.99686 36.85092 56.69362ZM28.3468 56.69362"/>
<use data-text="1" xlink:href="#font_1_82" transform="matrix(9.963197,0,0,-9.963397,8.017501,101.705867)" fill="#ffffff"/>
<use data-text="7" xlink:href="#font_1_100" transform="matrix(9.963197,0,0,-9.963397,12.9991,101.705867)" fill="#ffffff"/>
<path transform="matrix(1.00006,0,0,-1.00008,-15.348901,155.08113)" d="M65.19774 56.69362C65.19774 61.39037 61.39037 65.19774 56.69362 65.19774 51.99686 65.19774 48.18948 61.39037 48.18948 56.69362 48.18948 51.99686 51.99686 48.18948 56.69362 48.18948 61.39037 48.18948 65.19774 51.99686 65.19774 56.69362ZM56.69362 56.69362" fill="#bfbfbf"/>
<path transform="matrix(1.00006,0,0,-1.00008,-15.348901,155.08113)" stroke-width=".3985" stroke-linecap="butt" stroke-miterlimit="10" stroke-linejoin="miter" fill="none" stroke="#000000" d="M65.19774 56.69362C65.19774 61.39037 61.39037 65.19774 56.69362 65.19774 51.99686 65.19774 48.18948 61.39037 48.18948 56.69362 48.18948 51.99686 51.99686 48.18948 56.69362 48.18948 61.39037 48.18948 65.19774 51.99686 65.19774 56.69362ZM56.69362 56.69362"/>
<use data-text="1" xlink:href="#font_1_82" transform="matrix(9.963197,0,0,-9.963397,36.366205,101.65086)" fill="#ffffff"/>
<use data-text="8" xlink:href="#font_1_51" transform="matrix(9.963197,0,0,-9.963397,41.3478,101.65086)" fill="#ffffff"/>
<path transform="matrix(1.00006,0,0,-1.00008,-15.348901,155.08113)" d="M93.54454 56.69362C93.54454 61.39037 89.73718 65.19774 85.04042 65.19774 80.34366 65.19774 76.5363 61.39037 76.5363 56.69362 76.5363 51.99686 80.34366 48.18948 85.04042 48.18948 89.73718 48.18948 93.54454 51.99686 93.54454 56.69362ZM85.04042 56.69362" fill="#bfbfbf"/>
<path transform="matrix(1.00006,0,0,-1.00008,-15.348901,155.08113)" stroke-width=".3985" stroke-linecap="butt" stroke-miterlimit="10" stroke-linejoin="miter" fill="none" stroke="#000000" d="M93.54454 56.69362C93.54454 61.39037 89.73718 65.19774 85.04042 65.19774 80.34366 65.19774 76.5363 61.39037 76.5363 56.69362 76.5363 51.99686 80.34366 48.18948 85.04042 48.18948 89.73718 48.18948 93.54454 51.99686 93.54454 56.69362ZM85.04042 56.69362"/>
<use data-text="1" xlink:href="#font_1_82" transform="matrix(9.963197,0,0,-9.963397,64.7149,101.65086)" fill="#ffffff"/>
<use data-text="9" xlink:href="#font_1_78" transform="matrix(9.963197,0,0,-9.963397,69.696498,101.65086)" fill="#ffffff"/>
<path transform="matrix(1.00006,0,0,-1.00008,-15.348901,155.08113)" d="M121.89136 56.69362C121.89136 61.39037 118.08398 65.19774 113.38724 65.19774 108.69048 65.19774 104.8831 61.39037 104.8831 56.69362 104.8831 51.99686 108.69048 48.18948 113.38724 48.18948 118.08398 48.18948 121.89136 51.99686 121.89136 56.69362ZM113.38724 56.69362" fill="#bfbfbf"/>
<path transform="matrix(1.00006,0,0,-1.00008,-15.348901,155.08113)" stroke-width=".3985" stroke-linecap="butt" stroke-miterlimit="10" stroke-linejoin="miter" fill="none" stroke="#000000" d="M121.89136 56.69362C121.89136 61.39037 118.08398 65.19774 113.38724 65.19774 108.69048 65.19774 104.8831 61.39037 104.8831 56.69362 104.8831 51.99686 108.69048 48.18948 113.38724 48.18948 118.08398 48.18948 121.89136 51.99686 121.89136 56.69362ZM113.38724 56.69362"/>
<use data-text="2" xlink:href="#font_1_107" transform="matrix(9.963197,0,0,-9.963397,93.0636,101.65086)" fill="#ffffff"/>
<use data-text="0" xlink:href="#font_1_121" transform="matrix(9.963197,0,0,-9.963397,98.0452,101.65086)" fill="#ffffff"/>
<path transform="matrix(1.00006,0,0,-1.00008,-15.348901,155.08113)" d="M150.23816 56.69362C150.23816 61.39037 146.4308 65.19774 141.73404 65.19774 137.03728 65.19774 133.22992 61.39037 133.22992 56.69362 133.22992 51.99686 137.03728 48.18948 141.73404 48.18948 146.4308 48.18948 150.23816 51.99686 150.23816 56.69362ZM141.73404 56.69362" fill="#bfbfbf"/>
<path transform="matrix(1.00006,0,0,-1.00008,-15.348901,155.08113)" stroke-width=".3985" stroke-linecap="butt" stroke-miterlimit="10" stroke-linejoin="miter" fill="none" stroke="#000000" d="M150.23816 56.69362C150.23816 61.39037 146.4308 65.19774 141.73404 65.19774 137.03728 65.19774 133.22992 61.39037 133.22992 56.69362 133.22992 51.99686 137.03728 48.18948 141.73404 48.18948 146.4308 48.18948 150.23816 51.99686 150.23816 56.69362ZM141.73404 56.69362"/>
<use data-text="2" xlink:href="#font_1_107" transform="matrix(9.963197,0,0,-9.963397,121.4123,101.760868)" fill="#ffffff"/>
<use data-text="1" xlink:href="#font_1_82" transform="matrix(9.963197,0,0,-9.963397,126.3939,101.760868)" fill="#ffffff"/>
<path transform="matrix(1.00006,0,0,-1.00008,-15.348901,155.08113)" d="M178.58498 56.69362C178.58498 61.39037 174.7776 65.19774 170.08086 65.19774 165.3841 65.19774 161.57672 61.39037 161.57672 56.69362 161.57672 51.99686 165.3841 48.18948 170.08086 48.18948 174.7776 48.18948 178.58498 51.99686 178.58498 56.69362ZM170.08086 56.69362" fill="#bfbfbf"/>
<path transform="matrix(1.00006,0,0,-1.00008,-15.348901,155.08113)" stroke-width=".3985" stroke-linecap="butt" stroke-miterlimit="10" stroke-linejoin="miter" fill="none" stroke="#000000" d="M178.58498 56.69362C178.58498 61.39037 174.7776 65.19774 170.08086 65.19774 165.3841 65.19774 161.57672 61.39037 161.57672 56.69362 161.57672 51.99686 165.3841 48.18948 170.08086 48.18948 174.7776 48.18948 178.58498 51.99686 178.58498 56.69362ZM170.08086 56.69362"/>
<use data-text="2" xlink:href="#font_1_107" transform="matrix(9.963197,0,0,-9.963397,149.76001,101.760868)" fill="#ffffff"/>
<use data-text="2" xlink:href="#font_1_107" transform="matrix(9.963197,0,0,-9.963397,154.74161,101.760868)" fill="#ffffff"/>
<path transform="matrix(1.00006,0,0,-1.00008,-15.348901,155.08113)" d="M206.93178 56.69362C206.93178 61.39037 203.12442 65.19774 198.42766 65.19774 193.73091 65.19774 189.92354 61.39037 189.92354 56.69362 189.92354 51.99686 193.73091 48.18948 198.42766 48.18948 203.12442 48.18948 206.93178 51.99686 206.93178 56.69362ZM198.42766 56.69362" fill="#bfbfbf"/>
<path transform="matrix(1.00006,0,0,-1.00008,-15.348901,155.08113)" stroke-width=".3985" stroke-linecap="butt" stroke-miterlimit="10" stroke-linejoin="miter" fill="none" stroke="#000000" d="M206.93178 56.69362C206.93178 61.39037 203.12442 65.19774 198.42766 65.19774 193.73091 65.19774 189.92354 61.39037 189.92354 56.69362 189.92354 51.99686 193.73091 48.18948 198.42766 48.18948 203.12442 48.18948 206.93178 51.99686 206.93178 56.69362ZM198.42766 56.69362"/>
<use data-text="2" xlink:href="#font_1_107" transform="matrix(9.963197,0,0,-9.963397,178.1087,101.65086)" fill="#ffffff"/>
<use data-text="3" xlink:href="#font_1_106" transform="matrix(9.963197,0,0,-9.963397,183.0903,101.65086)" fill="#ffffff"/>
<path transform="matrix(1.00006,0,0,-1.00008,-15.348901,155.08113)" d="M235.2786 56.69362C235.2786 61.39037 231.47122 65.19774 226.77448 65.19774 222.07772 65.19774 218.27036 61.39037 218.27036 56.69362 218.27036 51.99686 222.07772 48.18948 226.77448 48.18948 231.47122 48.18948 235.2786 51.99686 235.2786 56.69362ZM226.77448 56.69362" fill="#bfbfbf"/>
<path transform="matrix(1.00006,0,0,-1.00008,-15.348901,155.08113)" stroke-width=".3985" stroke-linecap="butt" stroke-miterlimit="10" stroke-linejoin="miter" fill="none" stroke="#000000" d="M235.2786 56.69362C235.2786 61.39037 231.47122 65.19774 226.77448 65.19774 222.07772 65.19774 218.27036 61.39037 218.27036 56.69362 218.27036 51.99686 222.07772 48.18948 226.77448 48.18948 231.47122 48.18948 235.2786 51.99686 235.2786 56.69362ZM226.77448 56.69362"/>
<use data-text="2" xlink:href="#font_1_107" transform="matrix(9.963197,0,0,-9.963397,206.4574,101.760868)" fill="#ffffff"/>
<use data-text="4" xlink:href="#font_1_57" transform="matrix(9.963197,0,0,-9.963397,211.439,101.760868)" fill="#ffffff"/>
<path transform="matrix(1.00006,0,0,-1.00008,-15.348901,155.08113)" d="M36.85092 85.04042C36.85092 89.73718 33.04356 93.54454 28.3468 93.54454 23.65004 93.54454 19.84268 89.73718 19.84268 85.04042 19.84268 80.34366 23.65004 76.5363 28.3468 76.5363 33.04356 76.5363 36.85092 80.34366 36.85092 85.04042ZM28.3468 85.04042" fill="#bfbfbf"/>
<path transform="matrix(1.00006,0,0,-1.00008,-15.348901,155.08113)" stroke-width=".3985" stroke-linecap="butt" stroke-miterlimit="10" stroke-linejoin="miter" fill="none" stroke="#000000" d="M36.85092 85.04042C36.85092 89.73718 33.04356 93.54454 28.3468 93.54454 23.65004 93.54454 19.84268 89.73718 19.84268 85.04042 19.84268 80.34366 23.65004 76.5363 28.3468 76.5363 33.04356 76.5363 36.85092 80.34366 36.85092 85.04042ZM28.3468 85.04042"/>
<use data-text="2" xlink:href="#font_1_107" transform="matrix(9.963197,0,0,-9.963397,8.017501,73.30159)" fill="#ffffff"/>
<use data-text="5" xlink:href="#font_1_56" transform="matrix(9.963197,0,0,-9.963397,12.9991,73.30159)" fill="#ffffff"/>
<path transform="matrix(1.00006,0,0,-1.00008,-15.348901,155.08113)" d="M65.19774 85.04042C65.19774 89.73718 61.39037 93.54454 56.69362 93.54454 51.99686 93.54454 48.18948 89.73718 48.18948 85.04042 48.18948 80.34366 51.99686 76.5363 56.69362 76.5363 61.39037 76.5363 65.19774 80.34366 65.19774 85.04042ZM56.69362 85.04042" fill="#bfbfbf"/>
<path transform="matrix(1.00006,0,0,-1.00008,-15.348901,155.08113)" stroke-width=".3985" stroke-linecap="butt" stroke-miterlimit="10" stroke-linejoin="miter" fill="none" stroke="#000000" d="M65.19774 85.04042C65.19774 89.73718 61.39037 93.54454 56.69362 93.54454 51.99686 93.54454 48.18948 89.73718 48.18948 85.04042 48.18948 80.34366 51.99686 76.5363 56.69362 76.5363 61.39037 76.5363 65.19774 80.34366 65.19774 85.04042ZM56.69362 85.04042"/>
<use data-text="2" xlink:href="#font_1_107" transform="matrix(9.963197,0,0,-9.963397,36.366205,73.30159)" fill="#ffffff"/>
<use data-text="6" xlink:href="#font_1_101" transform="matrix(9.963197,0,0,-9.963397,41.3478,73.30159)" fill="#ffffff"/>
<path transform="matrix(1.00006,0,0,-1.00008,-15.348901,155.08113)" d="M93.54454 85.04042C93.54454 89.73718 89.73718 93.54454 85.04042 93.54454 80.34366 93.54454 76.5363 89.73718 76.5363 85.04042 76.5363 80.34366 80.34366 76.5363 85.04042 76.5363 89.73718 76.5363 93.54454 80.34366 93.54454 85.04042ZM85.04042 85.04042" fill="#bfbfbf"/>
<path transform="matrix(1.00006,0,0,-1.00008,-15.348901,155.08113)" stroke-width=".3985" stroke-linecap="butt" stroke-miterlimit="10" stroke-linejoin="miter" fill="none" stroke="#000000" d="M93.54454 85.04042C93.54454 89.73718 89.73718 93.54454 85.04042 93.54454 80.34366 93.54454 76.5363 89.73718 76.5363 85.04042 76.5363 80.34366 80.34366 76.5363 85.04042 76.5363 89.73718 76.5363 93.54454 80.34366 93.54454 85.04042ZM85.04042 85.04042"/>
<use data-text="2" xlink:href="#font_1_107" transform="matrix(9.963197,0,0,-9.963397,64.7149,73.35659)" fill="#ffffff"/>
<use data-text="7" xlink:href="#font_1_100" transform="matrix(9.963197,0,0,-9.963397,69.696498,73.35659)" fill="#ffffff"/>
<path transform="matrix(1.00006,0,0,-1.00008,-15.348901,155.08113)" d="M121.89136 85.04042C121.89136 89.73718 118.08398 93.54454 113.38724 93.54454 108.69048 93.54454 104.8831 89.73718 104.8831 85.04042 104.8831 80.34366 108.69048 76.5363 113.38724 76.5363 118.08398 76.5363 121.89136 80.34366 121.89136 85.04042ZM113.38724 85.04042" fill="#bfbfbf"/>
<path transform="matrix(1.00006,0,0,-1.00008,-15.348901,155.08113)" stroke-width=".3985" stroke-linecap="butt" stroke-miterlimit="10" stroke-linejoin="miter" fill="none" stroke="#000000" d="M121.89136 85.04042C121.89136 89.73718 118.08398 93.54454 113.38724 93.54454 108.69048 93.54454 104.8831 89.73718 104.8831 85.04042 104.8831 80.34366 108.69048 76.5363 113.38724 76.5363 118.08398 76.5363 121.89136 80.34366 121.89136 85.04042ZM113.38724 85.04042"/>
<use data-text="2" xlink:href="#font_1_107" transform="matrix(9.963197,0,0,-9.963397,93.0636,73.30159)" fill="#ffffff"/>
<use data-text="8" xlink:href="#font_1_51" transform="matrix(9.963197,0,0,-9.963397,98.0452,73.30159)" fill="#ffffff"/>
<path transform="matrix(1.00006,0,0,-1.00008,-15.348901,155.08113)" d="M150.23816 85.04042C150.23816 89.73718 146.4308 93.54454 141.73404 93.54454 137.03728 93.54454 133.22992 89.73718 133.22992 85.04042 133.22992 80.34366 137.03728 76.5363 141.73404 76.5363 146.4308 76.5363 150.23816 80.34366 150.23816 85.04042ZM141.73404 85.04042" fill="#bfbfbf"/>
<path transform="matrix(1.00006,0,0,-1.00008,-15.348901,155.08113)" stroke-width=".3985" stroke-linecap="butt" stroke-miterlimit="10" stroke-linejoin="miter" fill="none" stroke="#000000" d="M150.23816 85.04042C150.23816 89.73718 146.4308 93.54454 141.73404 93.54454 137.03728 93.54454 133.22992 89.73718 133.22992 85.04042 133.22992 80.34366 137.03728 76.5363 141.73404 76.5363 146.4308 76.5363 150.23816 80.34366 150.23816 85.04042ZM141.73404 85.04042"/>
<use data-text="2" xlink:href="#font_1_107" transform="matrix(9.963197,0,0,-9.963397,121.4123,73.30159)" fill="#ffffff"/>
<use data-text="9" xlink:href="#font_1_78" transform="matrix(9.963197,0,0,-9.963397,126.3939,73.30159)" fill="#ffffff"/>
<path transform="matrix(1.00006,0,0,-1.00008,-15.348901,155.08113)" d="M178.58498 85.04042C178.58498 89.73718 174.7776 93.54454 170.08086 93.54454 165.3841 93.54454 161.57672 89.73718 161.57672 85.04042 161.57672 80.34366 165.3841 76.5363 170.08086 76.5363 174.7776 76.5363 178.58498 80.34366 178.58498 85.04042ZM170.08086 85.04042" fill="#bfbfbf"/>
<path transform="matrix(1.00006,0,0,-1.00008,-15.348901,155.08113)" stroke-width=".3985" stroke-linecap="butt" stroke-miterlimit="10" stroke-linejoin="miter" fill="none" stroke="#000000" d="M178.58498 85.04042C178.58498 89.73718 174.7776 93.54454 170.08086 93.54454 165.3841 93.54454 161.57672 89.73718 161.57672 85.04042 161.57672 80.34366 165.3841 76.5363 170.08086 76.5363 174.7776 76.5363 178.58498 80.34366 178.58498 85.04042ZM170.08086 85.04042"/>
<use data-text="3" xlink:href="#font_1_106" transform="matrix(9.963197,0,0,-9.963397,149.76001,73.30159)" fill="#ffffff"/>
<use data-text="0" xlink:href="#font_1_121" transform="matrix(9.963197,0,0,-9.963397,154.74161,73.30159)" fill="#ffffff"/>
<path transform="matrix(1.00006,0,0,-1.00008,-15.348901,155.08113)" d="M206.93178 85.04042C206.93178 89.73718 203.12442 93.54454 198.42766 93.54454 193.73091 93.54454 189.92354 89.73718 189.92354 85.04042 189.92354 80.34366 193.73091 76.5363 198.42766 76.5363 203.12442 76.5363 206.93178 80.34366 206.93178 85.04042ZM198.42766 85.04042" fill="#bfbfbf"/>
<path transform="matrix(1.00006,0,0,-1.00008,-15.348901,155.08113)" stroke-width=".3985" stroke-linecap="butt" stroke-miterlimit="10" stroke-linejoin="miter" fill="none" stroke="#000000" d="M206.93178 85.04042C206.93178 89.73718 203.12442 93.54454 198.42766 93.54454 193.73091 93.54454 189.92354 89.73718 189.92354 85.04042 189.92354 80.34366 193.73091 76.5363 198.42766 76.5363 203.12442 76.5363 206.93178 80.34366 206.93178 85.04042ZM198.42766 85.04042"/>
<use data-text="3" xlink:href="#font_1_106" transform="matrix(9.963197,0,0,-9.963397,178.1087,73.30159)" fill="#ffffff"/>
<use data-text="1" xlink:href="#font_1_82" transform="matrix(9.963197,0,0,-9.963397,183.0903,73.30159)" fill="#ffffff"/>
<path transform="matrix(1.00006,0,0,-1.00008,-15.348901,155.08113)" d="M235.2786 85.04042C235.2786 89.73718 231.47122 93.54454 226.77448 93.54454 222.07772 93.54454 218.27036 89.73718 218.27036 85.04042 218.27036 80.34366 222.07772 76.5363 226.77448 76.5363 231.47122 76.5363 235.2786 80.34366 235.2786 85.04042ZM226.77448 85.04042" fill="#bfbfbf"/>
<path transform="matrix(1.00006,0,0,-1.00008,-15.348901,155.08113)" stroke-width=".3985" stroke-linecap="butt" stroke-miterlimit="10" stroke-linejoin="miter" fill="none" stroke="#000000" d="M235.2786 85.04042C235.2786 89.73718 231.47122 93.54454 226.77448 93.54454 222.07772 93.54454 218.27036 89.73718 218.27036 85.04042 218.27036 80.34366 222.07772 76.5363 226.77448 76.5363 231.47122 76.5363 235.2786 80.34366 235.2786 85.04042ZM226.77448 85.04042"/>
<use data-text="3" xlink:href="#font_1_106" transform="matrix(9.963197,0,0,-9.963397,206.4574,73.30159)" fill="#ffffff"/>
<use data-text="2" xlink:href="#font_1_107" transform="matrix(9.963197,0,0,-9.963397,211.439,73.30159)" fill="#ffffff"/>
<path transform="matrix(1.00006,0,0,-1.00008,-15.348901,155.08113)" d="M36.85092 113.38724C36.85092 118.08398 33.04356 121.89136 28.3468 121.89136 23.65004 121.89136 19.84268 118.08398 19.84268 113.38724 19.84268 108.69048 23.65004 104.8831 28.3468 104.8831 33.04356 104.8831 36.85092 108.69048 36.85092 113.38724ZM28.3468 113.38724" fill="#bfbfbf"/>
<path transform="matrix(1.00006,0,0,-1.00008,-15.348901,155.08113)" stroke-width=".3985" stroke-linecap="butt" stroke-miterlimit="10" stroke-linejoin="miter" fill="none" stroke="#000000" d="M36.85092 113.38724C36.85092 118.08398 33.04356 121.89136 28.3468 121.89136 23.65004 121.89136 19.84268 118.08398 19.84268 113.38724 19.84268 108.69048 23.65004 104.8831 28.3468 104.8831 33.04356 104.8831 36.85092 108.69048 36.85092 113.38724ZM28.3468 113.38724"/>
<use data-text="3" xlink:href="#font_1_106" transform="matrix(9.963197,0,0,-9.963397,8.017501,44.953317)" fill="#ffffff"/>
<use data-text="3" xlink:href="#font_1_106" transform="matrix(9.963197,0,0,-9.963397,12.9991,44.953317)" fill="#ffffff"/>
<path transform="matrix(1.00006,0,0,-1.00008,-15.348901,155.08113)" d="M65.19774 113.38724C65.19774 118.08398 61.39037 121.89136 56.69362 121.89136 51.99686 121.89136 48.18948 118.08398 48.18948 113.38724 48.18948 108.69048 51.99686 104.8831 56.69362 104.8831 61.39037 104.8831 65.19774 108.69048 65.19774 113.38724ZM56.69362 113.38724" fill="#bfbfbf"/>
<path transform="matrix(1.00006,0,0,-1.00008,-15.348901,155.08113)" stroke-width=".3985" stroke-linecap="butt" stroke-miterlimit="10" stroke-linejoin="miter" fill="none" stroke="#000000" d="M65.19774 113.38724C65.19774 118.08398 61.39037 121.89136 56.69362 121.89136 51.99686 121.89136 48.18948 118.08398 48.18948 113.38724 48.18948 108.69048 51.99686 104.8831 56.69362 104.8831 61.39037 104.8831 65.19774 108.69048 65.19774 113.38724ZM56.69362 113.38724"/>
<use data-text="3" xlink:href="#font_1_106" transform="matrix(9.963197,0,0,-9.963397,36.366205,44.953317)" fill="#ffffff"/>
<use data-text="4" xlink:href="#font_1_57" transform="matrix(9.963197,0,0,-9.963397,41.3478,44.953317)" fill="#ffffff"/>
<path transform="matrix(1.00006,0,0,-1.00008,-15.348901,155.08113)" d="M93.54454 113.38724C93.54454 118.08398 89.73718 121.89136 85.04042 121.89136 80.34366 121.89136 76.5363 118.08398 76.5363 113.38724 76.5363 108.69048 80.34366 104.8831 85.04042 104.8831 89.73718 104.8831 93.54454 108.69048 93.54454 113.38724ZM85.04042 113.38724" fill="#bfbfbf"/>
<path transform="matrix(1.00006,0,0,-1.00008,-15.348901,155.08113)" stroke-width=".3985" stroke-linecap="butt" stroke-miterlimit="10" stroke-linejoin="miter" fill="none" stroke="#000000" d="M93.54454 113.38724C93.54454 118.08398 89.73718 121.89136 85.04042 121.89136 80.34366 121.89136 76.5363 118.08398 76.5363 113.38724 76.5363 108.69048 80.34366 104.8831 85.04042 104.8831 89.73718 104.8831 93.54454 108.69048 93.54454 113.38724ZM85.04042 113.38724"/>
<use data-text="3" xlink:href="#font_1_106" transform="matrix(9.963197,0,0,-9.963397,64.7149,44.953317)" fill="#ffffff"/>
<use data-text="5" xlink:href="#font_1_56" transform="matrix(9.963197,0,0,-9.963397,69.696498,44.953317)" fill="#ffffff"/>
<path transform="matrix(1.00006,0,0,-1.00008,-15.348901,155.08113)" d="M121.89136 113.38724C121.89136 118.08398 118.08398 121.89136 113.38724 121.89136 108.69048 121.89136 104.8831 118.08398 104.8831 113.38724 104.8831 108.69048 108.69048 104.8831 113.38724 104.8831 118.08398 104.8831 121.89136 108.69048 121.89136 113.38724ZM113.38724 113.38724" fill="#bfbfbf"/>
<path transform="matrix(1.00006,0,0,-1.00008,-15.348901,155.08113)" stroke-width=".3985" stroke-linecap="butt" stroke-miterlimit="10" stroke-linejoin="miter" fill="none" stroke="#000000" d="M121.89136 113.38724C121.89136 118.08398 118.08398 121.89136 113.38724 121.89136 108.69048 121.89136 104.8831 118.08398 104.8831 113.38724 104.8831 108.69048 108.69048 104.8831 113.38724 104.8831 118.08398 104.8831 121.89136 108.69048 121.89136 113.38724ZM113.38724 113.38724"/>
<use data-text="3" xlink:href="#font_1_106" transform="matrix(9.963197,0,0,-9.963397,93.0636,44.953317)" fill="#ffffff"/>
<use data-text="6" xlink:href="#font_1_101" transform="matrix(9.963197,0,0,-9.963397,98.0452,44.953317)" fill="#ffffff"/>
<path transform="matrix(1.00006,0,0,-1.00008,-15.348901,155.08113)" d="M150.23816 113.38724C150.23816 118.08398 146.4308 121.89136 141.73404 121.89136 137.03728 121.89136 133.22992 118.08398 133.22992 113.38724 133.22992 108.69048 137.03728 104.8831 141.73404 104.8831 146.4308 104.8831 150.23816 108.69048 150.23816 113.38724ZM141.73404 113.38724" fill="#bfbfbf"/>
<path transform="matrix(1.00006,0,0,-1.00008,-15.348901,155.08113)" stroke-width=".3985" stroke-linecap="butt" stroke-miterlimit="10" stroke-linejoin="miter" fill="none" stroke="#000000" d="M150.23816 113.38724C150.23816 118.08398 146.4308 121.89136 141.73404 121.89136 137.03728 121.89136 133.22992 118.08398 133.22992 113.38724 133.22992 108.69048 137.03728 104.8831 141.73404 104.8831 146.4308 104.8831 150.23816 108.69048 150.23816 113.38724ZM141.73404 113.38724"/>
<use data-text="3" xlink:href="#font_1_106" transform="matrix(9.963197,0,0,-9.963397,121.4123,44.953317)" fill="#ffffff"/>
<use data-text="7" xlink:href="#font_1_100" transform="matrix(9.963197,0,0,-9.963397,126.3939,44.953317)" fill="#ffffff"/>
<path transform="matrix(1.00006,0,0,-1.00008,-15.348901,155.08113)" d="M178.58498 113.38724C178.58498 118.08398 174.7776 121.89136 170.08086 121.89136 165.3841 121.89136 161.57672 118.08398 161.57672 113.38724 161.57672 108.69048 165.3841 104.8831 170.08086 104.8831 174.7776 104.8831 178.58498 108.69048 178.58498 113.38724ZM170.08086 113.38724" fill="#bfbfbf"/>
<path transform="matrix(1.00006,0,0,-1.00008,-15.348901,155.08113)" stroke-width=".3985" stroke-linecap="butt" stroke-miterlimit="10" stroke-linejoin="miter" fill="none" stroke="#000000" d="M178.58498 113.38724C178.58498 118.08398 174.7776 121.89136 170.08086 121.89136 165.3841 121.89136 161.57672 118.08398 161.57672 113.38724 161.57672 108.69048 165.3841 104.8831 170.08086 104.8831 174.7776 104.8831 178.58498 108.69048 178.58498 113.38724ZM170.08086 113.38724"/>
<use data-text="3" xlink:href="#font_1_106" transform="matrix(9.963197,0,0,-9.963397,149.76001,44.953317)" fill="#ffffff"/>
<use data-text="8" xlink:href="#font_1_51" transform="matrix(9.963197,0,0,-9.963397,154.74161,44.953317)" fill="#ffffff"/>
<path transform="matrix(1.00006,0,0,-1.00008,-15.348901,155.08113)" d="M206.93178 113.38724C206.93178 118.08398 203.12442 121.89136 198.42766 121.89136 193.73091 121.89136 189.92354 118.08398 189.92354 113.38724 189.92354 108.69048 193.73091 104.8831 198.42766 104.8831 203.12442 104.8831 206.93178 108.69048 206.93178 113.38724ZM198.42766 113.38724" fill="#bfbfbf"/>
<path transform="matrix(1.00006,0,0,-1.00008,-15.348901,155.08113)" stroke-width=".3985" stroke-linecap="butt" stroke-miterlimit="10" stroke-linejoin="miter" fill="none" stroke="#000000" d="M206.93178 113.38724C206.93178 118.08398 203.12442 121.89136 198.42766 121.89136 193.73091 121.89136 189.92354 118.08398 189.92354 113.38724 189.92354 108.69048 193.73091 104.8831 198.42766 104.8831 203.12442 104.8831 206.93178 108.69048 206.93178 113.38724ZM198.42766 113.38724"/>
<use data-text="3" xlink:href="#font_1_106" transform="matrix(9.963197,0,0,-9.963397,178.1087,44.953317)" fill="#ffffff"/>
<use data-text="9" xlink:href="#font_1_78" transform="matrix(9.963197,0,0,-9.963397,183.0903,44.953317)" fill="#ffffff"/>
<path transform="matrix(1.00006,0,0,-1.00008,-15.348901,155.08113)" d="M235.2786 113.38724C235.2786 118.08398 231.47122 121.89136 226.77448 121.89136 222.07772 121.89136 218.27036 118.08398 218.27036 113.38724 218.27036 108.69048 222.07772 104.8831 226.77448 104.8831 231.47122 104.8831 235.2786 108.69048 235.2786 113.38724ZM226.77448 113.38724" fill="#bfbfbf"/>
<path transform="matrix(1.00006,0,0,-1.00008,-15.348901,155.08113)" stroke-width=".3985" stroke-linecap="butt" stroke-miterlimit="10" stroke-linejoin="miter" fill="none" stroke="#000000" d="M235.2786 113.38724C235.2786 118.08398 231.47122 121.89136 226.77448 121.89136 222.07772 121.89136 218.27036 118.08398 218.27036 113.38724 218.27036 108.69048 222.07772 104.8831 226.77448 104.8831 231.47122 104.8831 235.2786 108.69048 235.2786 113.38724ZM226.77448 113.38724"/>
<use data-text="4" xlink:href="#font_1_57" transform="matrix(9.963197,0,0,-9.963397,206.4574,44.953317)" fill="#ffffff"/>
<use data-text="0" xlink:href="#font_1_121" transform="matrix(9.963197,0,0,-9.963397,211.439,44.953317)" fill="#ffffff"/>
<path transform="matrix(1.00006,0,0,-1.00008,-15.348901,155.08113)" d="M36.85092 141.73404C36.85092 146.4308 33.04356 150.23816 28.3468 150.23816 23.65004 150.23816 19.84268 146.4308 19.84268 141.73404 19.84268 137.03728 23.65004 133.22992 28.3468 133.22992 33.04356 133.22992 36.85092 137.03728 36.85092 141.73404ZM28.3468 141.73404" fill="#bfbfbf"/>
<path transform="matrix(1.00006,0,0,-1.00008,-15.348901,155.08113)" stroke-width=".3985" stroke-linecap="butt" stroke-miterlimit="10" stroke-linejoin="miter" fill="none" stroke="#000000" d="M36.85092 141.73404C36.85092 146.4308 33.04356 150.23816 28.3468 150.23816 23.65004 150.23816 19.84268 146.4308 19.84268 141.73404 19.84268 137.03728 23.65004 133.22992 28.3468 133.22992 33.04356 133.22992 36.85092 137.03728 36.85092 141.73404ZM28.3468 141.73404"/>
<use data-text="4" xlink:href="#font_1_57" transform="matrix(9.963197,0,0,-9.963397,8.017501,16.713074)" fill="#ffffff"/>
<use data-text="1" xlink:href="#font_1_82" transform="matrix(9.963197,0,0,-9.963397,12.9991,16.713074)" fill="#ffffff"/>
<path transform="matrix(1.00006,0,0,-1.00008,-15.348901,155.08113)" d="M65.19774 141.73404C65.19774 146.4308 61.39037 150.23816 56.69362 150.23816 51.99686 150.23816 48.18948 146.4308 48.18948 141.73404 48.18948 137.03728 51.99686 133.22992 56.69362 133.22992 61.39037 133.22992 65.19774 137.03728 65.19774 141.73404ZM56.69362 141.73404" fill="#bfbfbf"/>
<path transform="matrix(1.00006,0,0,-1.00008,-15.348901,155.08113)" stroke-width=".3985" stroke-linecap="butt" stroke-miterlimit="10" stroke-linejoin="miter" fill="none" stroke="#000000" d="M65.19774 141.73404C65.19774 146.4308 61.39037 150.23816 56.69362 150.23816 51.99686 150.23816 48.18948 146.4308 48.18948 141.73404 48.18948 137.03728 51.99686 133.22992 56.69362 133.22992 61.39037 133.22992 65.19774 137.03728 65.19774 141.73404ZM56.69362 141.73404"/>
<use data-text="4" xlink:href="#font_1_57" transform="matrix(9.963197,0,0,-9.963397,36.366205,16.713074)" fill="#ffffff"/>
<use data-text="2" xlink:href="#font_1_107" transform="matrix(9.963197,0,0,-9.963397,41.3478,16.713074)" fill="#ffffff"/>
<path transform="matrix(1.00006,0,0,-1.00008,-15.348901,155.08113)" d="M93.54454 141.73404C93.54454 146.4308 89.73718 150.23816 85.04042 150.23816 80.34366 150.23816 76.5363 146.4308 76.5363 141.73404 76.5363 137.03728 80.34366 133.22992 85.04042 133.22992 89.73718 133.22992 93.54454 137.03728 93.54454 141.73404ZM85.04042 141.73404" fill="#bfbfbf"/>
<path transform="matrix(1.00006,0,0,-1.00008,-15.348901,155.08113)" stroke-width=".3985" stroke-linecap="butt" stroke-miterlimit="10" stroke-linejoin="miter" fill="none" stroke="#000000" d="M93.54454 141.73404C93.54454 146.4308 89.73718 150.23816 85.04042 150.23816 80.34366 150.23816 76.5363 146.4308 76.5363 141.73404 76.5363 137.03728 80.34366 133.22992 85.04042 133.22992 89.73718 133.22992 93.54454 137.03728 93.54454 141.73404ZM85.04042 141.73404"/>
<use data-text="4" xlink:href="#font_1_57" transform="matrix(9.963197,0,0,-9.963397,64.7149,16.60405)" fill="#ffffff"/>
<use data-text="3" xlink:href="#font_1_106" transform="matrix(9.963197,0,0,-9.963397,69.696498,16.60405)" fill="#ffffff"/>
<path transform="matrix(1.00006,0,0,-1.00008,-15.348901,155.08113)" d="M121.89136 141.73404C121.89136 146.4308 118.08398 150.23816 113.38724 150.23816 108.69048 150.23816 104.8831 146.4308 104.8831 141.73404 104.8831 137.03728 108.69048 133.22992 113.38724 133.22992 118.08398 133.22992 121.89136 137.03728 121.89136 141.73404ZM113.38724 141.73404" fill="#bfbfbf"/>
<path transform="matrix(1.00006,0,0,-1.00008,-15.348901,155.08113)" stroke-width=".3985" stroke-linecap="butt" stroke-miterlimit="10" stroke-linejoin="miter" fill="none" stroke="#000000" d="M121.89136 141.73404C121.89136 146.4308 118.08398 150.23816 113.38724 150.23816 108.69048 150.23816 104.8831 146.4308 104.8831 141.73404 104.8831 137.03728 108.69048 133.22992 113.38724 133.22992 118.08398 133.22992 121.89136 137.03728 121.89136 141.73404ZM113.38724 141.73404"/>
<use data-text="4" xlink:href="#font_1_57" transform="matrix(9.963197,0,0,-9.963397,93.0636,16.60405)" fill="#ffffff"/>
<use data-text="4" xlink:href="#font_1_57" transform="matrix(9.963197,0,0,-9.963397,98.0452,16.60405)" fill="#ffffff"/>
<path transform="matrix(1.00006,0,0,-1.00008,-15.348901,155.08113)" d="M150.23816 141.73404C150.23816 146.4308 146.4308 150.23816 141.73404 150.23816 137.03728 150.23816 133.22992 146.4308 133.22992 141.73404 133.22992 137.03728 137.03728 133.22992 141.73404 133.22992 146.4308 133.22992 150.23816 137.03728 150.23816 141.73404ZM141.73404 141.73404" fill="#bfbfbf"/>
<path transform="matrix(1.00006,0,0,-1.00008,-15.348901,155.08113)" stroke-width=".3985" stroke-linecap="butt" stroke-miterlimit="10" stroke-linejoin="miter" fill="none" stroke="#000000" d="M150.23816 141.73404C150.23816 146.4308 146.4308 150.23816 141.73404 150.23816 137.03728 150.23816 133.22992 146.4308 133.22992 141.73404 133.22992 137.03728 137.03728 133.22992 141.73404 133.22992 146.4308 133.22992 150.23816 137.03728 150.23816 141.73404ZM141.73404 141.73404"/>
<use data-text="4" xlink:href="#font_1_57" transform="matrix(9.963197,0,0,-9.963397,121.4123,16.49405)" fill="#ffffff"/>
<use data-text="5" xlink:href="#font_1_56" transform="matrix(9.963197,0,0,-9.963397,126.3939,16.49405)" fill="#ffffff"/>
<path transform="matrix(1.00006,0,0,-1.00008,-15.348901,155.08113)" d="M178.58498 141.73404C178.58498 146.4308 174.7776 150.23816 170.08086 150.23816 165.3841 150.23816 161.57672 146.4308 161.57672 141.73404 161.57672 137.03728 165.3841 133.22992 170.08086 133.22992 174.7776 133.22992 178.58498 137.03728 178.58498 141.73404ZM170.08086 141.73404" fill="#bfbfbf"/>
<path transform="matrix(1.00006,0,0,-1.00008,-15.348901,155.08113)" stroke-width=".3985" stroke-linecap="butt" stroke-miterlimit="10" stroke-linejoin="miter" fill="none" stroke="#000000" d="M178.58498 141.73404C178.58498 146.4308 174.7776 150.23816 170.08086 150.23816 165.3841 150.23816 161.57672 146.4308 161.57672 141.73404 161.57672 137.03728 165.3841 133.22992 170.08086 133.22992 174.7776 133.22992 178.58498 137.03728 178.58498 141.73404ZM170.08086 141.73404"/>
<use data-text="4" xlink:href="#font_1_57" transform="matrix(9.963197,0,0,-9.963397,149.76001,16.60405)" fill="#ffffff"/>
<use data-text="6" xlink:href="#font_1_101" transform="matrix(9.963197,0,0,-9.963397,154.74161,16.60405)" fill="#ffffff"/>
<path transform="matrix(1.00006,0,0,-1.00008,-15.348901,155.08113)" d="M206.93178 141.73404C206.93178 146.4308 203.12442 150.23816 198.42766 150.23816 193.73091 150.23816 189.92354 146.4308 189.92354 141.73404 189.92354 137.03728 193.73091 133.22992 198.42766 133.22992 203.12442 133.22992 206.93178 137.03728 206.93178 141.73404ZM198.42766 141.73404" fill="#bfbfbf"/>
<path transform="matrix(1.00006,0,0,-1.00008,-15.348901,155.08113)" stroke-width=".3985" stroke-linecap="butt" stroke-miterlimit="10" stroke-linejoin="miter" fill="none" stroke="#000000" d="M206.93178 141.73404C206.93178 146.4308 203.12442 150.23816 198.42766 150.23816 193.73091 150.23816 189.92354 146.4308 189.92354 141.73404 189.92354 137.03728 193.73091 133.22992 198.42766 133.22992 203.12442 133.22992 206.93178 137.03728 206.93178 141.73404ZM198.42766 141.73404"/>
<use data-text="4" xlink:href="#font_1_57" transform="matrix(9.963197,0,0,-9.963397,178.1087,16.549057)" fill="#ffffff"/>
<use data-text="7" xlink:href="#font_1_100" transform="matrix(9.963197,0,0,-9.963397,183.0903,16.549057)" fill="#ffffff"/>
<path transform="matrix(1.00006,0,0,-1.00008,-15.348901,155.08113)" d="M235.2786 141.73404C235.2786 146.4308 231.47122 150.23816 226.77448 150.23816 222.07772 150.23816 218.27036 146.4308 218.27036 141.73404 218.27036 137.03728 222.07772 133.22992 226.77448 133.22992 231.47122 133.22992 235.2786 137.03728 235.2786 141.73404ZM226.77448 141.73404" fill="#bfbfbf"/>
<path transform="matrix(1.00006,0,0,-1.00008,-15.348901,155.08113)" stroke-width=".3985" stroke-linecap="butt" stroke-miterlimit="10" stroke-linejoin="miter" fill="none" stroke="#000000" d="M235.2786 141.73404C235.2786 146.4308 231.47122 150.23816 226.77448 150.23816 222.07772 150.23816 218.27036 146.4308 218.27036 141.73404 218.27036 137.03728 222.07772 133.22992 226.77448 133.22992 231.47122 133.22992 235.2786 137.03728 235.2786 141.73404ZM226.77448 141.73404"/>
<use data-text="4" xlink:href="#font_1_57" transform="matrix(9.963197,0,0,-9.963397,206.4574,16.60405)" fill="#ffffff"/>
<use data-text="8" xlink:href="#font_1_51" transform="matrix(9.963197,0,0,-9.963397,211.439,16.60405)" fill="#ffffff"/>
<path transform="matrix(1.00006,0,0,-1.00008,-15.348901,155.08113)" stroke-width=".79701" stroke-linecap="butt" stroke-miterlimit="10" stroke-linejoin="miter" fill="none" stroke="#ff0000" d="M68.03217 0C68.03217 6.26218 62.9558 11.33855 56.69362 11.33855 50.43143 11.33855 45.35507 6.26218 45.35507 0 45.35507-6.26218 50.43143-11.33855 56.69362-11.33855 62.9558-11.33855 68.03217-6.26218 68.03217 0ZM56.69362 0"/>
<use data-text="2" xlink:href="#font_1_107" transform="matrix(9.963197,0,0,-9.963397,38.85735,158.4584)" fill="#fff200"/>
<path transform="matrix(1.00006,0,0,-1.00008,-15.348901,155.08113)" stroke-width=".79701" stroke-linecap="butt" stroke-miterlimit="10" stroke-linejoin="miter" fill="none" stroke="#ff0000" d="M209.7662 0C209.7662 6.26218 204.68985 11.33855 198.42766 11.33855 192.16548 11.33855 187.08911 6.26218 187.08911 0 187.08911-6.26218 192.16548-11.33855 198.42766-11.33855 204.68985-11.33855 209.7662-6.26218 209.7662 0ZM198.42766 0"/>
<use data-text="7" xlink:href="#font_1_100" transform="matrix(9.963197,0,0,-9.963397,180.59986,158.29439)" fill="#fff200"/>
<path transform="matrix(1.00006,0,0,-1.00008,-15.348901,155.08113)" stroke-width=".79701" stroke-linecap="butt" stroke-miterlimit="10" stroke-linejoin="miter" fill="none" stroke="#ff0000" d="M124.72578 28.3468C124.72578 34.60898 119.64941 39.68535 113.38724 39.68535 107.12505 39.68535 102.04869 34.60898 102.04869 28.3468 102.04869 22.08463 107.12505 17.00826 113.38724 17.00826 119.64941 17.00826 124.72578 22.08463 124.72578 28.3468ZM113.38724 28.3468"/>
<use data-text="1" xlink:href="#font_1_82" transform="matrix(9.963197,0,0,-9.963397,93.0636,130.11014)" fill="#fff200"/>
<use data-text="2" xlink:href="#font_1_107" transform="matrix(9.963197,0,0,-9.963397,98.0452,130.11014)" fill="#fff200"/>
<path transform="matrix(1.00006,0,0,-1.00008,-15.348901,155.08113)" stroke-width=".79701" stroke-linecap="butt" stroke-miterlimit="10" stroke-linejoin="miter" fill="none" stroke="#ff0000" d="M39.68535 56.69362C39.68535 62.9558 34.60898 68.03217 28.3468 68.03217 22.08463 68.03217 17.00826 62.9558 17.00826 56.69362 17.00826 50.43143 22.08463 45.35507 28.3468 45.35507 34.60898 45.35507 39.68535 50.43143 39.68535 56.69362ZM28.3468 56.69362"/>
<use data-text="1" xlink:href="#font_1_82" transform="matrix(9.963197,0,0,-9.963397,8.017501,101.705867)" fill="#fff200"/>
<use data-text="7" xlink:href="#font_1_100" transform="matrix(9.963197,0,0,-9.963397,12.9991,101.705867)" fill="#fff200"/>
<path transform="matrix(1.00006,0,0,-1.00008,-15.348901,155.08113)" stroke-width=".79701" stroke-linecap="butt" stroke-miterlimit="10" stroke-linejoin="miter" fill="none" stroke="#ff0000" d="M181.4194 56.69362C181.4194 62.9558 176.34304 68.03217 170.08086 68.03217 163.81867 68.03217 158.74231 62.9558 158.74231 56.69362 158.74231 50.43143 163.81867 45.35507 170.08086 45.35507 176.34304 45.35507 181.4194 50.43143 181.4194 56.69362ZM170.08086 56.69362"/>
<use data-text="2" xlink:href="#font_1_107" transform="matrix(9.963197,0,0,-9.963397,149.76001,101.760868)" fill="#fff200"/>
<use data-text="2" xlink:href="#font_1_107" transform="matrix(9.963197,0,0,-9.963397,154.74161,101.760868)" fill="#fff200"/>
<path transform="matrix(1.00006,0,0,-1.00008,-15.348901,155.08113)" stroke-width=".79701" stroke-linecap="butt" stroke-miterlimit="10" stroke-linejoin="miter" fill="none" stroke="#ff0000" d="M96.37897 85.04042C96.37897 91.3026 91.3026 96.37897 85.04042 96.37897 78.77824 96.37897 73.70187 91.3026 73.70187 85.04042 73.70187 78.77824 78.77824 73.70187 85.04042 73.70187 91.3026 73.70187 96.37897 78.77824 96.37897 85.04042ZM85.04042 85.04042"/>
<use data-text="2" xlink:href="#font_1_107" transform="matrix(9.963197,0,0,-9.963397,64.7149,73.35659)" fill="#fff200"/>
<use data-text="7" xlink:href="#font_1_100" transform="matrix(9.963197,0,0,-9.963397,69.696498,73.35659)" fill="#fff200"/>
<path transform="matrix(1.00006,0,0,-1.00008,-15.348901,155.08113)" stroke-width=".79701" stroke-linecap="butt" stroke-miterlimit="10" stroke-linejoin="miter" fill="none" stroke="#ff0000" d="M238.11302 85.04042C238.11302 91.3026 233.03665 96.37897 226.77448 96.37897 220.51229 96.37897 215.43593 91.3026 215.43593 85.04042 215.43593 78.77824 220.51229 73.70187 226.77448 73.70187 233.03665 73.70187 238.11302 78.77824 238.11302 85.04042ZM226.77448 85.04042"/>
<use data-text="3" xlink:href="#font_1_106" transform="matrix(9.963197,0,0,-9.963397,206.4574,73.30159)" fill="#fff200"/>
<use data-text="2" xlink:href="#font_1_107" transform="matrix(9.963197,0,0,-9.963397,211.439,73.30159)" fill="#fff200"/>
<path transform="matrix(1.00006,0,0,-1.00008,-15.348901,155.08113)" stroke-width=".79701" stroke-linecap="butt" stroke-miterlimit="10" stroke-linejoin="miter" fill="none" stroke="#ff0000" d="M153.07259 113.38724C153.07259 119.64941 147.99622 124.72578 141.73404 124.72578 135.47187 124.72578 130.3955 119.64941 130.3955 113.38724 130.3955 107.12505 135.47187 102.04869 141.73404 102.04869 147.99622 102.04869 153.07259 107.12505 153.07259 113.38724ZM141.73404 113.38724"/>
<use data-text="3" xlink:href="#font_1_106" transform="matrix(9.963197,0,0,-9.963397,121.4123,44.953317)" fill="#fff200"/>
<use data-text="7" xlink:href="#font_1_100" transform="matrix(9.963197,0,0,-9.963397,126.3939,44.953317)" fill="#fff200"/>
<path transform="matrix(1.00006,0,0,-1.00008,-15.348901,155.08113)" stroke-width=".79701" stroke-linecap="butt" stroke-miterlimit="10" stroke-linejoin="miter" fill="none" stroke="#ff0000" d="M68.03217 141.73404C68.03217 147.99622 62.9558 153.07259 56.69362 153.07259 50.43143 153.07259 45.35507 147.99622 45.35507 141.73404 45.35507 135.47187 50.43143 130.3955 56.69362 130.3955 62.9558 130.3955 68.03217 135.47187 68.03217 141.73404ZM56.69362 141.73404"/>
<use data-text="4" xlink:href="#font_1_57" transform="matrix(9.963197,0,0,-9.963397,36.366205,16.713074)" fill="#fff200"/>
<use data-text="2" xlink:href="#font_1_107" transform="matrix(9.963197,0,0,-9.963397,41.3478,16.713074)" fill="#fff200"/>
</svg>
