<svg xmlns="http://www.w3.org/2000/svg" xmlns:xlink="http://www.w3.org/1999/xlink" xmlns:inkscape="http://www.inkscape.org/namespaces/inkscape" version="1.1" width="244" height="144" viewBox="0 0 244 144">
<defs>
<path id="font_1_34" d="M.4072876 .27592469C.3742981 .27442933 .33268739 .2734375 .30299378 .2734375 .27409364 .2734375 .22059632 .27513124 .19859314 .2763214L.3039856 .52207949H.30599977C.34709168 .42773438 .38038636 .34558106 .4072876 .27592469M.1789856 .22872925C.20399475 .23042298 .27349855 .23143006 .30799867 .23143006 .34599305 .23143006 .40098573 .23042298 .42529298 .22872925 .47428895 .09741211 .4968872 .019302369 .5029907-.0029296876 .519989 .000061035159 .5359955 .000061035159 .5529938 .000061035159 .56999209 .000061035159 .59599307 .000061035159 .61299136-.0029296876 .5629883 .098220828 .43099977 .43933106 .33898927 .6582031H.31098939C.21499634 .43632508 .116989139 .2184143 .015991211-.0029296876 .027999878 .000061035159 .039993287 .000061035159 .050994874 .000061035159 .06199646 .000061035159 .083999637 .000061035159 .09599304-.0029296876 .11239624 .05845642 .14329529 .14108277 .1789856 .22872925Z"/>
<path id="font_1_79" d="M.45999146 .18025208C.45999146 .21228028 .46199037 .24931336 .46199037 .28134156 .46199037 .38545228 .42799378 .43945313 .33799745 .43945313 .2999878 .43945313 .22898865 .42443849 .16499329 .349411L.16299439 .352417V.42544557C.16279602 .43315126 .16169739 .43544007 .15699768 .43544007 .13449097 .43093873 .09869385 .43014527 .07598877 .43244935L.07398987 .42944337C.08099365 .38613893 .08299255 .31037904 .08299255 .23530579V.18025208C.08299255 .105163577 .08198547 .054122926 .07398987 .000061035159L.07598877-.0029296876C.08799744-.00093078616 .11099243 .000061035159 .12298584 .000061035159 .1349945 .000061035159 .1579895-.00093078616 .16999817-.0029296876L.17199707 .000061035159C.1639862 .057128908 .16299439 .10417175 .16299439 .18025208V.29736329C.21398926 .35742188 .27198792 .3794403 .30799867 .3794403 .35899354 .3794403 .37998963 .35942079 .37998963 .27835084V.18025208C.37998963 .105163577 .3781891 .05392456 .37098695 .000061035159L.37298585-.0029296876C.3849945-.00093078616 .4079895 .000061035159 .41999818 .000061035159 .43199159 .000061035159 .45498658-.00093078616 .46699525-.0029296876L.46899415 .000061035159C.4611969 .057128908 .45999146 .10417175 .45999146 .18025208Z"/>
<path id="font_1_68" d="M.25 .39944459C.28849793 .39944459 .32348634 .3709259 .34999085 .32540895L.36299134 .32640077 .38598634 .40844728 .38398744 .411438C.35299684 .42744447 .30099488 .43945313 .25099183 .43945313 .14698792 .43945313 .037994386 .3544159 .037994386 .21833802 .037994386 .07914734 .116989139-.009765625 .23899842-.009765625 .29899598-.009765625 .34599305 .010223389 .38598634 .06123352L.36698915 .08226013H.36299134C.32499696 .048233034 .29319764 .040222169 .2559967 .040222169 .18299866 .040222169 .12599182 .10626221 .12599182 .2233429 .12599182 .33340455 .18399048 .39944459 .25 .39944459Z"/>
<path id="font_1_73" d="M.16999817 .352417V.50138857C.16999817 .57533267 .17419434 .6267853 .1789856 .6882477 .1789856 .6952362 .17630005 .6982422 .16999817 .6982422 .14489746 .6882477 .12348938 .6812439 .08299255 .6782532L.08099365 .6752472C.08869934 .6325836 .08999634 .5573425 .08999634 .4814148V.18025208C.08999634 .105667117 .08879089 .056121828 .08099365 .000061035159L.08299255-.0029296876C.09498596-.00093078616 .117996219 .000061035159 .12998963 .000061035159 .14199829 .000061035159 .16499329-.00093078616 .1769867-.0029296876L.1789856 .000061035159C.17149353 .05732727 .16999817 .10417175 .16999817 .18025208V.29736329C.22099304 .35742188 .27949525 .3794403 .31498719 .3794403 .3659973 .3794403 .3869934 .35942079 .3869934 .27835084V.18025208C.3869934 .105163577 .38598634 .05392456 .37799073 .000061035159L.37998963-.0029296876C.3919983-.00093078616 .4149933 .000061035159 .4269867 .000061035159 .43899537 .000061035159 .46199037-.00093078616 .47399903-.0029296876L.47599793 .000061035159C.46798707 .05732727 .46699525 .10417175 .46699525 .18025208 .46699525 .21228028 .46899415 .24931336 .46899415 .28134156 .46899415 .38545228 .43499757 .43945313 .34498597 .43945313 .30699159 .43945313 .23599243 .42443849 .17199707 .349411L.16999817 .352417Z"/>
<path id="font_1_80" d="M.037994386 .20533753C.037994386 .08526611 .116989139-.009765625 .25-.009765625 .38198854-.009765625 .46199037 .08325195 .46199037 .21434021 .46199037 .3504181 .3889923 .43945313 .2539978 .43945313 .12298584 .43945313 .037994386 .3474121 .037994386 .20533753M.24699402 .39944459C.35299684 .39944459 .37399293 .31739808 .37399293 .19631958 .37399293 .10116577 .32598878 .030227662 .25898744 .030227662 .15299988 .030227662 .12599182 .14529419 .12599182 .22233582 .12599182 .3093872 .15299988 .39944459 .24699402 .39944459Z"/>
<path id="font_1_87" d="M.20199585-.0029296876C.21199036 .000061035159 .22299195 .000061035159 .23298645 .000061035159 .24299622 .000061035159 .2539978 .000061035159 .2630005-.0029296876 .31498719 .14291382 .3769989 .28477479 .44198609 .43164063 .43299867 .42863465 .4139862 .42863465 .4039917 .42863465 .3939972 .42863465 .3789978 .42863465 .36999513 .43164063 .3294983 .3186493 .294693 .18797302 .24879456 .09007263H.24679566C.19668579 .20445252 .16429138 .31704713 .12799073 .43164063 .114990238 .42863465 .09199524 .42863465 .07798767 .42863465 .06199646 .42863465 .035995485 .42863465 .019989014 .43164063 .08699036 .28477479 .1459961 .14291382 .20199585-.0029296876Z"/>
<path id="font_1_74" d="M.07998657 .59742739C.07998657 .5704346 .10398865 .5464325 .1309967 .5464325 .1579895 .5464325 .18199158 .5704346 .18199158 .59742739 .18199158 .6244354 .1579895 .6484375 .1309967 .6484375 .10398865 .6484375 .07998657 .6244354 .07998657 .59742739M.08999634 .2348175V.1798706C.08999634 .10494995 .0881958 .054000856 .08099365 .000061035159L.08299255-.0029296876C.09498596-.0009460449 .117996219 .000061035159 .12998963 .000061035159 .14199829 .000061035159 .16499329-.0009460449 .1769867-.0029296876L.1789856 .000061035159C.1717987 .056793214 .16999817 .10395813 .16999817 .1798706V.25079347C.16999817 .3257141 .17248535 .36167909 .1789856 .42262269 .1789856 .4316101 .17779541 .4326172 .16999817 .4326172 .14729309 .4303131 .10418701 .42991639 .08299255 .4316101L.08099365 .42861939C.08729553 .38586427 .08999634 .30973817 .08999634 .2348175Z"/>
<path id="font_1_70" d="M.125 .27339173C.14199829 .3774414 .20748902 .39944459 .23899842 .39944459 .27848817 .39944459 .32299806 .36242677 .32299806 .2873993 .32299806 .2783966 .31900025 .27339173 .30899049 .27339173H.125M.3919983 .104278568C.35699464 .0662384 .30999757 .049224855 .25498963 .049224855 .22079468 .049224855 .17349243 .0622406 .1459961 .106277469 .12838745 .13439942 .12199402 .17524719 .12199402 .23339844H.3939972C.40499879 .23339844 .4119873 .23939514 .4119873 .25039674 .4119873 .33441163 .37098695 .43945313 .23899842 .43945313 .13598633 .43945313 .033996583 .35643006 .033996583 .20936585 .033996583 .15261841 .04548645 .096466068 .07899475 .056228639 .11338806 .014923096 .17059326-.009765625 .23799134-.009765625 .30999757-.009765625 .37399293 .02722168 .4119873 .07925415L.3919983 .104278568Z"/>
<path id="font_1_84" d="M.049987794 .10127258 .032989503 .017227173C.08999634-.0027770997 .1459961-.009765625 .18399048-.009765625 .32199098-.009765625 .35398866 .072250369 .35398866 .12728882 .35398866 .20933533 .2889862 .24134827 .21798706 .25836183 .18019104 .2674713 .125 .28637696 .125 .33641053 .125 .3774414 .1579895 .39944459 .20098877 .39944459 .25299073 .39944459 .2849884 .35842896 .30799867 .33140565L.32199098 .33241273 .34199525 .40644837 .33999635 .4094391C.31098939 .42443849 .2559967 .43945313 .20498657 .43945313 .1309967 .43945313 .053985597 .40045167 .053985597 .31739808 .053985597 .23735047 .11369324 .2109375 .17399597 .19432068 .23199463 .17831421 .2749939 .16230774 .2749939 .11328125 .2749939 .0602417 .23599243 .030227662 .18299866 .030227662 .1349945 .030227662 .09298706 .06324768 .06498718 .102264408L.049987794 .10127258Z"/>
<path id="font_1_9" d="M.04399109 .2519989C.04399109 .20698548 .04798889-.024002076 .2559967-.20401001L.2789917-.18701172C.24598694-.14900208 .1269989-.011001587 .1269989 .2519989 .1269989 .5149994 .24699402 .6529999 .2789917 .68899539L.2559967 .70700076C.13699341 .6049957 .04399109 .43798829 .04399109 .2519989Z"/>
<path id="font_1_18" d="M.32598878 .18917847V.44332887C.32598878 .5513611 .33198548 .59135439 .33399964 .6053467 .33399964 .61035159 .33099366 .61035159 .32699586 .61035159 .2619934 .5893402 .18598938 .550354 .10798645 .5263672L.11399841 .49736024C.15899658 .5023651 .20799256 .5133667 .22799683 .5133667 .24598694 .5133667 .24598694 .4733429 .24598694 .43733216V.18917847C.24598694 .11112976 .24499512 .05709839 .23799134 .000061035159L.23899842-.0029296876C.23899842-.0029296876 .2669983 .000061035159 .2849884 .000061035159 .30499269 .000061035159 .33299256-.0029296876 .33299256-.0029296876L.33499146 .000061035159C.32798768 .06010437 .32598878 .11012268 .32598878 .18917847Z"/>
<path id="font_1_6" d="M.46199037 .089279178C.46199037 .15126038 .5069885 .24023438 .5589905 .24023438 .57398989 .24023438 .6069946 .23123169 .6069946 .17524719 .6069946 .11526489 .56900027 .018295289 .5099945 .018295289 .48999024 .018295289 .46199037 .033294679 .46199037 .089279178M.4059906 .105270389C.4059906 .048294069 .43798829-.0126953129 .5029907-.0126953129 .59199526-.0126953129 .6389923 .104263309 .6389923 .17625427 .6389923 .25422669 .58999636 .27322389 .5469971 .27322389 .46798707 .27322389 .4059906 .1852417 .4059906 .105270389M.3889923 .5575714C.36999513 .5575714 .33299256 .55656436 .2749939 .5833435 .2639923 .596344 .23298645 .61035159 .20298767 .61035159 .12599182 .61035159 .06298828 .52256777 .06298828 .44039918 .06298828 .38627626 .09298706 .32421876 .15899658 .32421876 .24899292 .32421876 .29599 .44540406 .29599 .51356509 .29599 .5235748 .29499818 .5325775 .29299928 .53956606 .31298829 .52757266 .35299684 .5175781 .37799073 .5175781 .4099884 .5175781 .45098878 .5215759 .49198915 .53756716L.10899353 .0032958985 .14498902-.0126953129 .58299258 .5973511 .548996 .61434939C.5159912 .5694275 .43399049 .5575714 .3889923 .5575714M.117996219 .42536927C.117996219 .48750306 .16299439 .5773468 .21499634 .5773468 .23399353 .5773468 .2630005 .56547549 .2630005 .512558 .2630005 .4504242 .22499085 .35520936 .1659851 .35520936 .14698792 .35520936 .117996219 .36924745 .117996219 .42536927Z"/>
<path id="font_1_10" d="M.2559967 .2519989C.2559967 .29699708 .2519989 .5279999 .04399109 .70799258L.020996094 .69099429C.053985597 .6529999 .17298889 .5149994 .17298889 .2519989 .17298889-.011001587 .052993776-.14900208 .020996094-.18501282L.04399109-.20300293C.16299439-.10101318 .2559967 .06599426 .2559967 .2519989Z"/>
<path id="font_1_35" d="M.18998719 .55937197C.18998719 .5927124 .19999695 .605423 .2809906 .605423 .33699037 .605423 .4079895 .58340457 .4079895 .4812622 .4079895 .39614869 .35099793 .37112428 .2679901 .37112428H.18998719V.55937197M.18998719 .328125H.2829895C.3999939 .328125 .45498658 .2551117 .45498658 .16508484 .45498658 .09597778 .43119813 .04006958 .2869873 .04006958 .21699524 .04006958 .18998719 .05506897 .18998719 .08807373V.328125M.14698792 .6454315C.11299133 .6454315 .09599304 .6484375 .09599304 .6484375L.09399414 .6454315C.101989749 .5884094 .10398865 .52030947 .10398865 .44522096V.2000885C.10398865 .1250763 .101989749 .05406189 .09399414 .000061035159L.09498596-.0029296876C.09498596-.0029296876 .11199951 .000061035159 .14698792 .000061035159 .20899964 .000061035159 .21699524-.0029296876 .30599977-.0029296876 .5049896-.0029296876 .55400088 .09806824 .55400088 .18409729 .55400088 .2801056 .4889984 .33511354 .4019928 .36012269 .45298768 .38513185 .49499513 .4382019 .49499513 .49328614 .49499513 .56036379 .45999146 .6484375 .27398683 .6484375 .23899842 .6484375 .19699097 .6454315 .14698792 .6454315Z"/>
<path id="font_1_66" d="M.30999757 .2253418 .30599977 .10626221C.30599977 .09326172 .2999878 .086257938 .2919922 .08024597 .2639923 .05923462 .22999573 .041229249 .19999695 .041229249 .15499878 .041229249 .12599182 .071243289 .12599182 .102264408 .12599182 .14729309 .14698792 .18132019 .22499085 .20233155L.30999757 .2253418M.3100891 .048233034C.32148744 .009124756 .35139466-.009765625 .3880005-.009765625 .41319276-.009765625 .44400025-.003768921 .46759034 .021224976L.46018983 .045928956C.44929505 .042129518 .4407959 .040725709 .43319703 .040725709 .42329408 .040725709 .4099884 .042633058 .40390016 .048233034 .39369203 .057540895 .38719178 .08175659 .38719178 .12628174 .38719178 .15530396 .3899994 .26635743 .3899994 .27737428 .3899994 .41244508 .30099488 .43943788 .22499085 .43943788 .14898682 .43943788 .102996829 .40245057 .07798767 .3814392L.07499695 .37742616 .09199524 .3103943 .10499573 .3093872C.1329956 .3544159 .16699219 .3944397 .21499634 .3944397 .25099183 .3944397 .31098939 .3894348 .31098939 .2763672 .31098939 .2693634 .30699159 .2653656 .3039856 .26435853L.21099854 .24334717C.10899353 .22033692 .04499817 .16630554 .04499817 .0982666 .04499817 .024230957 .09599304-.009780884 .16999817-.009780884 .22499085-.009780884 .25299073 .0032196046 .30599977 .048233034H.3100891Z"/>
<path id="font_1_26" d="M.33299256 .3232422C.2939911 .28321839 .2539978 .28222657 .23199463 .28222657 .1309967 .28222657 .115997318 .37826539 .115997318 .42729188 .115997318 .5373535 .15699768 .57336428 .20498657 .57336428 .2579956 .57336428 .33399964 .53834536 .33399964 .36026 .33399964 .35025025 .33399964 .33325196 .33299256 .3232422M.05999756 .01725769 .06298828-.0107421879C.1659851-.0047454836 .23899842 .023254395 .30699159 .09223938 .37998963 .16523743 .4139862 .2602234 .4139862 .35725404 .4139862 .56736758 .29299928 .609375 .21598816 .609375 .069992069 .609375 .027999878 .49232484 .027999878 .4202881 .027999878 .37226869 .054992677 .24221802 .21099854 .24221802 .25099183 .24221802 .30699159 .2642212 .33099366 .29421998 .31999208 .20922852 .28399659 .13822937 .23599243 .09124756 .18499756 .042251588 .1289978 .024246216 .05999756 .01725769Z"/>
<path id="font_1_36" d="M.37998963 .6582031C.21099854 .6582031 .051986696 .51220706 .051986696 .31521607 .051986696 .14222718 .15098572-.009765625 .3659973-.009765625 .45838929-.009765625 .5452881 .018920899 .61209109 .09971619 .611496 .11122131 .6094971 .13322449 .60598757 .14222718L.598999 .1452179C.5279999 .067230228 .46798707 .041229249 .375 .041229249 .24819947 .041229249 .15499878 .17822266 .15499878 .33421327 .15499878 .5372009 .28399659 .6111908 .3659973 .6111908 .45599366 .6111908 .5289917 .5751953 .56999209 .49319459L.58200076 .49420167C.58558657 .54519656 .58898928 .56269839 .59999087 .6051941L.59799197 .6082001C.59799197 .6082001 .5019989 .6582031 .37998963 .6582031Z"/>
<path id="font_1_25" d="M.23498535 .5773468C.2999878 .5773468 .32398988 .53334048 .32398988 .48632813 .32398988 .432312 .2709961 .3842926 .24299622 .36428834L.21199036 .3822937C.14898682 .42330934 .14199829 .4603119 .14199829 .49131776 .14199829 .5383301 .1749878 .5773468 .23498535 .5773468M.397995 .48532105C.397995 .5573425 .33999635 .61035159 .24099732 .61035159 .13899231 .61035159 .066986087 .55033877 .066986087 .47331239 .066986087 .41729737 .09799194 .3672943 .15499878 .33428956L.1749878 .3232727C.1499939 .3042755 .12998963 .28826905 .10499573 .26626588 .06399536 .23025513 .038986207 .1852417 .038986207 .14624024 .038986207 .044204713 .11999512-.0087890629 .22599793-.0087890629 .35699464-.0087890629 .42799378 .08621216 .42799378 .16223145 .42799378 .22026062 .3959961 .26426698 .34098817 .3002777L.27999879 .34028626C.32499696 .37028504 .397995 .42131043 .397995 .48532105M.22799683 .02420044C.18199158 .02420044 .116989139 .05621338 .116989139 .14624024 .116989139 .17623902 .125 .24325562 .21099854 .3002777L.25698854 .27127076C.31900025 .23225403 .34498597 .18824768 .34498597 .14123535 .34498597 .044204713 .27398683 .02420044 .22799683 .02420044Z"/>
<path id="font_1_49" d="M.18998719 .56533816C.18998719 .59432986 .20799256 .6093292 .27999879 .6093292 .34899903 .6093292 .42199708 .59033206 .42199708 .47132875 .42199708 .35632325 .3659973 .31933595 .2689972 .31933595 .24398804 .31933595 .20298767 .32232667 .18998719 .32933045V.56533816M.10398865 .44532777V.20025635C.10398865 .1251831 .101989749 .054122926 .09399414 .000061035159L.09599304-.0029296876C.10798645-.00093078616 .1349945 .000061035159 .14698792 .000061035159 .15899658 .000061035159 .18598938-.00093078616 .19799805-.0029296876L.19999695 .000061035159C.19198609 .057113649 .18998719 .1251831 .18998719 .20025635V.28633119C.21199036 .2793274 .23899842 .2763214 .27398683 .2763214 .45599366 .2763214 .5189972 .3913269 .5189972 .47633363 .5189972 .55033877 .47200013 .65234377 .2869873 .65234377 .26098634 .65234377 .1769867 .64533999 .14698792 .64533999 .1349945 .64533999 .10798645 .6463318 .09599304 .6483307L.09399414 .64533999C.101989749 .58833315 .10398865 .52033999 .10398865 .44532777Z"/>
<path id="font_1_81" d="M.1619873 .29438783C.18399048 .3474121 .24299622 .39344789 .28199769 .39344789 .34999085 .39344789 .3849945 .33140565 .3849945 .21833802 .3849945 .1362915 .3619995 .030227662 .25498963 .030227662 .23899842 .030227662 .19699097 .034225465 .1619873 .07525635V.29438783M.1619873 .352417V.42544557C.1619873 .43315126 .16069031 .43544007 .1559906 .43544007 .13349915 .43093873 .09768677 .43014527 .07499695 .43244935L.07299805 .42944337C.07998657 .38613893 .08198547 .3103943 .08198547 .23535156V-.031829835C.08198547-.10652161 .08018494-.17840576 .07299805-.23234558L.07499695-.23535156C.08699036-.23335266 .10998535-.23234558 .12199402-.23234558 .13398743-.23234558 .15699768-.23335266 .16899109-.23535156L.17098999-.23234558C.16378784-.17520142 .1619873-.10722351 .1619873-.031829835V.01222229C.18798828-.0017700195 .22499085-.009765625 .26098634-.009765625 .3929901-.009765625 .47299195 .09036255 .47299195 .23135376 .47299195 .3374176 .41099549 .43945313 .29899598 .43945313 .2599945 .43945313 .20999146 .41944886 .1639862 .349411L.1619873 .352417Z"/>
<path id="font_1_83" d="M.16699219 .33441163V.42544557C.16699219 .43315126 .16569519 .43544007 .16099549 .43544007 .13848877 .43093873 .10269165 .43014527 .07998657 .43244935L.07798767 .42944337C.084991458 .38613893 .08699036 .31037904 .08699036 .23530579V.18025208C.08699036 .10517883 .08580017 .05392456 .07798767 .000061035159L.07998657-.0029296876C.09199524-.00093078616 .114990238 .000061035159 .1269989 .000061035159 .13899231 .000061035159 .1619873-.00093078616 .17399597-.0029296876L.17599488 .000061035159C.16848755 .057128908 .16699219 .10417175 .16699219 .18025208V.2322998C.16699219 .27435304 .17948914 .29837037 .20098877 .33140565 .21549988 .35372926 .23799134 .36643983 .25698854 .36643983 .2769928 .36643983 .29599 .36444093 .30899049 .35243226L.31698609 .35443116 .33699037 .42845155 .33299256 .43244935C.31599427 .43743897 .31498719 .43945313 .29699708 .43945313 .24299622 .43945313 .21398926 .40844728 .16999817 .33241273L.16699219 .33441163Z"/>
<path id="font_1_19" d="M.22200012 .5533447C.2743988 .5533447 .3277893 .5051575 .3277893 .4348755 .3277893 .39317323 .3157959 .33998109 .2896881 .3009796 .21798706 .19398499 .10348511 .093688968 .054397584 .04699707 .05319214 .043289186 .052597047 .038986207 .052597047 .03439331 .052597047 .01928711 .057495119 .0035858155 .062698367-.005004883 .13648987-.0030059815 .1789856 0 .2519989 0 .32398988 0 .35429383-.0020141602 .4256897-.005004883 .42419435 .0053863527 .42259217 .017089844 .42259217 .027999878 .42259217 .044189454 .4237976 .059799196 .42749024 .07499695 .37120057 .069992069 .34059144 .066986087 .24459839 .066986087 .20948792 .066986087 .19029236 .066986087 .16288758 .06498718 .16209412 .066589359 .16169739 .067993167 .16169739 .069992069 .16169739 .07928467 .17199707 .08988953 .17939759 .09698486 .22799683 .14398194 .2749939 .1889801 .34109498 .27798463 .37799073 .3276825 .4136963 .39187623 .4136963 .44847108 .4136963 .5439148 .3498993 .61035159 .23829651 .61035159 .14729309 .61035159 .088897708 .55934146 .066085819 .5292511L.08779907 .4599762 .10089111 .45898438C.11468506 .48908998 .11959839 .50987246 .14498902 .5302582 .16499329 .5463104 .19400025 .5533447 .22200012 .5533447Z"/>
<path id="font_1_46" d="M.19299317 .6620636C.1579895 .46006776 .102996829 .18406677 .06399536-.0029296876 .07499695 .000061035159 .084991458 .000061035159 .09700012 .000061035159 .10798645 .000061035159 .115997318 .000061035159 .1269989-.0029296876 .14199829 .10206604 .17630005 .3251648 .2007904 .47625733H.2052002C.28079225 .31706239 .35099793 .15505982 .4149933 .000061035159H.43399049C.5059967 .16426087 .57699587 .31607057 .6559906 .47306825L.6595001 .47296144C.6806946 .31526185 .70028689 .16285706 .71499636-.0029296876 .7299957 .000061035159 .7489929 .000061035159 .7639923 .000061035159 .7789917 .000061035159 .8049927 .000061035159 .81999209-.0029296876 .7839966 .21105957 .7539978 .41906739 .7259979 .6620636H.70098879L.45838929 .1660614 .44999696 .16636658C.3712921 .33006288 .29978944 .4902649 .22599793 .6620636H.19299317Z"/>
<path id="font_1_86" d="M.36499024 .09196472 .36898805 .088974 .37399293 .000061035159C.37399293-.0019378662 .37519837-.0029296876 .37799073-.0029296876 .3912964-.0012359619 .40299989 .000061035159 .41749574 .000061035159 .4300995 .000061035159 .44898988-.0009460449 .46199037-.0029296876L.46398927 .000061035159C.45599366 .043014528 .44699098 .11694336 .44699098 .19186402V.24880982C.44699098 .32374574 .44799806 .37568666 .45599366 .42863465L.45399476 .43164063C.44198609 .42964173 .4189911 .42863465 .40699769 .42863465 .394989 .42863465 .37199403 .42964173 .3600006 .43164063L.35798646 .42863465C.36579896 .37149049 .36698915 .32473756 .36698915 .24880982V.15090943C.33648683 .09963989 .2789917 .04623413 .22999573 .04623413 .1954956 .04623413 .16299439 .0572052 .16299439 .15007019V.24891663C.16299439 .32380677 .1639862 .37571717 .17199707 .42863465L.16999817 .43164063C.1579895 .42964173 .1349945 .42863465 .12298584 .42863465 .11099243 .42863465 .08799744 .42964173 .07598877 .43164063L.07398987 .42863465C.08198547 .37173463 .08299255 .32479859 .08299255 .24891663V.12910462C.08299255 .06021118 .114990238-.009765625 .21398926-.009765625 .27598573-.009765625 .33198548 .041229249 .36499024 .092163089V.09196472Z"/>
<path id="font_1_78" d="M.1619873 .352417V.42544557C.1619873 .43315126 .16069031 .43544007 .1559906 .43544007 .13349915 .43093873 .09768677 .43014527 .07499695 .43244935L.07299805 .42944337C.07998657 .38613893 .08198547 .31037904 .08198547 .23530579V.18025208C.08198547 .105163577 .08099365 .054122926 .07299805 .000061035159L.07499695-.0029296876C.08699036-.00093078616 .10998535 .000061035159 .12199402 .000061035159 .13398743 .000061035159 .15699768-.00093078616 .16899109-.0029296876L.17098999 .000061035159C.16299439 .057128908 .1619873 .10417175 .1619873 .18025208V.30136109C.20899964 .349411 .2649994 .3794403 .2999878 .3794403 .33799745 .3794403 .3659973 .35742188 .3659973 .2903595V.18025208C.3659973 .105163577 .36499024 .054122926 .35699464 .000061035159L.35899354-.0029296876C.37098695-.00093078616 .3939972 .000061035159 .4059906 .000061035159 .41799928 .000061035159 .44099427-.00093078616 .45298768-.0029296876L.45498658 .000061035159C.44699098 .057128908 .44599916 .10417175 .44599916 .18025208V.28134156C.44599916 .29536439 .44599916 .30737306 .44499208 .3193817 .49299623 .37243653 .5329895 .3794403 .57199099 .3794403 .6259918 .3794403 .6519928 .35742188 .6519928 .2903595V.18025208C.6519928 .105163577 .651001 .054122926 .6429901 .000061035159L.644989-.0029296876C.6569977-.00093078616 .6799927 .000061035159 .69200137 .000061035159 .70399478 .000061035159 .72698977-.00093078616 .7389984-.0029296876L.7409973 .000061035159C.73298647 .057128908 .7319946 .10417175 .7319946 .18025208V.28034974C.7319946 .36943055 .71598818 .43945313 .60798647 .43945313 .55400088 .43945313 .49598695 .42044068 .43899537 .36042787 .42999269 .40844728 .3889923 .43945313 .33299256 .43945313 .2709961 .43945313 .21199036 .39944459 .16499329 .349411L.1619873 .352417Z"/>
<path id="font_1_21" d="M.28599549 .14823914C.28599549 .07115173 .28399659 .051116945 .27799989 .000061035159L.2789917-.0029296876C.2789917-.0029296876 .30999757 .000061035159 .32598878 .000061035159 .34199525 .000061035159 .35899354-.0029296876 .36799623-.0029296876 .36898805-.0029296876 .36999513-.00093078616 .36999513 .000061035159 .3659973 .058135988 .3639984 .090164188 .3639984 .14823914H.4139862C.42799378 .14823914 .44299317 .17123413 .44299317 .18223572 .44299317 .1912384 .43798829 .19824219 .42799378 .19824219H.3639984V.45178224C.3639984 .48472596 .36499024 .5536041 .36999513 .5995178 .36999513 .6015167 .36898805 .6035156 .36799623 .6035156 .35899354 .6035156 .34399415 .5995178 .32899476 .5995178 .31298829 .5995178 .29499818 .6035156 .29499818 .6035156 .29499818 .6035156 .29100038 .60050967 .29100038 .5995178 .22999573 .5156708 .085998538 .29606629 .033996583 .20721436 .023986817 .1892395 .020996094 .17823792 .020996094 .16822815 .020996094 .15322876 .04399109 .14823914 .07998657 .14823914H.28599549M.28599549 .511673V.19824219H.08299255L.28599549 .511673Z"/>
<path id="font_1_48" d="M.35499574 .6141968C.49598695 .6141968 .58599856 .51820376 .58599856 .31021119 .58599856 .13122559 .5029907 .034225465 .3889923 .034225465 .2689972 .034225465 .15499878 .13522339 .15499878 .32720948 .15499878 .5372009 .25898744 .6141968 .35499574 .6141968M.68899539 .32920838C.68899539 .52719119 .5479889 .6582031 .36799623 .6582031 .18899536 .6582031 .051986696 .50619509 .051986696 .31021119 .051986696 .113220218 .19699097-.009765625 .36898805-.009765625 .55999758-.009765625 .68899539 .12922669 .68899539 .32920838Z"/>
<path id="font_1_77" d="M.08999634 .20011902C.08999634 .1255951 .08848572 .05357361 .08099365 .000061035159L.08299255-.0029296876C.09498596-.00093078616 .117996219 .000061035159 .12998963 .000061035159 .14199829 .000061035159 .16499329-.00093078616 .1769867-.0029296876L.1789856 .000061035159C.17118836 .05708313 .16999817 .12489319 .16999817 .20011902V.5001831C.16999817 .5751953 .17428589 .62490847 .1789856 .6882324 .1789856 .6952362 .17630005 .6982422 .16999817 .6982422 .14489746 .6882324 .12348938 .68122866 .08299255 .67822268L.08099365 .67523196C.08869934 .6325226 .08999634 .558197 .08999634 .48217774V.20011902Z"/>
<path id="font_1_22" d="M.20199585-.009765625C.32099916-.009765625 .4059906 .07817078 .4059906 .1960144 .4059906 .29289247 .34098817 .37983705 .22898865 .37983705 .18798828 .37983705 .14199829 .37283326 .11999512 .36483766L.14099121 .54159548C.17799378 .53660586 .22099304 .53260806 .2679901 .53260806 .2979889 .5333252 .33198548 .5343323 .37298585 .53933718L.3889923 .6073456 .38198854 .61035159C.32499696 .6026001 .2709961 .5996094 .21798706 .5996094 .18099976 .5996094 .13798523 .6026001 .10398865 .6056061L.07199097 .31137086 .07899475 .3088684C.118896488 .32485963 .15638733 .33984376 .20298767 .33984376 .2679901 .33984376 .31799317 .28790284 .31799317 .17903137 .31799317 .0871582 .27198792 .030227662 .20399475 .030227662 .1289978 .030227662 .115997318 .07017517 .08299255 .13009644L.068984989 .12910462 .04699707 .049209596 .050994874 .046203615C.07598877 .024230957 .12599182-.009765625 .20199585-.009765625Z"/>
<path id="font_1_23" d="M.1269989 .2773285C.1659851 .3173523 .20599365 .31835938 .22799683 .31835938 .32899476 .31835938 .34399415 .2223053 .34399415 .17327881 .34399415 .06321716 .30299378 .02720642 .25498963 .02720642 .20199585 .02720642 .12599182 .06222534 .12599182 .24031067 .12599182 .25032044 .12599182 .26731874 .1269989 .2773285M.3999939 .583313 .39698792 .6113281C.2939911 .60531619 .22099304 .5773163 .15299988 .5083313 .07998657 .4353485 .04598999 .3403473 .04598999 .24331665 .04598999 .033203126 .16699219-.0087890629 .24398804-.0087890629 .3899994-.0087890629 .43199159 .10824585 .43199159 .1802826 .43199159 .228302 .40499879 .35835267 .24899292 .35835267 .20899964 .35835267 .15299988 .3363495 .1289978 .3063507 .13999939 .39134217 .17599488 .4623413 .22399903 .5093384 .2749939 .5583191 .33099366 .57632449 .3999939 .583313Z"/>
<path id="font_1_52" d="M.24198914 .034225465C.18598938 .034225465 .11399841 .083221439 .08299255 .14222718L.07299805 .1412201C.068984989 .10522461 .057998659 .068222049 .049987794 .038223268L.051986696 .035232545C.051986696 .035232545 .116989139-.009765625 .23399353-.009765625 .35699464-.009765625 .45199586 .06523132 .45199586 .18121338 .45199586 .2972107 .3538971 .35101319 .272995 .38121034 .22200012 .40020753 .15098572 .42919923 .15098572 .5121918 .15098572 .5482025 .17098999 .5881958 .19699097 .6021881 .21398926 .6111908 .23498535 .6141968 .2579956 .6141968 .31298829 .6141968 .36698915 .5711975 .3939972 .50920107L.4039917 .5101929C.4079895 .5462036 .41799928 .5802002 .4269867 .610199L.4249878 .6131897C.4249878 .6131897 .3829956 .6582031 .2659912 .6582031 .23899842 .6582031 .20899964 .65319827 .17999268 .6411896 .12098694 .6161957 .069992069 .558197 .069992069 .48519898 .069992069 .38020326 .15899658 .33120729 .24198914 .29621888 .30699159 .26921083 .35899354 .23622132 .35899354 .1512146 .35899354 .07621765 .30099488 .034225465 .24198914 .034225465Z"/>
<path id="font_1_72" d="M.100997928-.10398865C.100997928-.070755008 .1309967-.033721925 .1659851-.0146484379 .1954956-.01473999 .24119568-.01171875 .25498963-.01171875 .30299378-.01171875 .33358766-.012634277 .36099244-.028778077 .3899994-.045837404 .3999939-.07493591 .3999939-.10101318 .3999939-.16221619 .31799317-.19430542 .23199463-.19430542 .16699219-.19430542 .100997928-.17224121 .100997928-.104019168V-.10398865M.3899994 .2855835C.3899994 .35450746 .36299134 .38645936 .3395996 .4018402 .36968995 .39944459 .40278626 .3956604 .44400025 .39146424L.44699098 .39445497C.44499208 .40344239 .44400025 .411438 .44400025 .42044068 .44400025 .42944337 .44499208 .43743897 .44699098 .44644166L.44400025 .44944764C.39619447 .44534303 .36088563 .43473817 .2862854 .43084718 .26838685 .43644715 .24649048 .43945313 .22499085 .43945313 .1459961 .43945313 .054992677 .38656617 .054992677 .2875824 .054992677 .21266175 .09799194 .17871094 .12599182 .16270447 .09700012 .14271546 .06199646 .113586429 .06199646 .07940674 .06199646 .038269044 .085998538 .0022735596 .13989258-.007019043 .11199951-.018447876 .08088684-.03781128 .054992677-.057876588 .042495729-.076934818 .03199768-.10533142 .03199768-.12408447 .03199768-.20301819 .117996219-.23730469 .22399903-.23730469 .38009645-.23730469 .47299195-.17193604 .47299195-.077941898 .47299195-.033691408 .45899964-.0026245118 .43099977 .021270752 .39349366 .053268434 .32499696 .054275514 .2899933 .054275514 .272995 .054275514 .23298645 .05227661 .20999146 .04927063 .19599915 .048355104 .18598938 .047348024 .18099976 .047348024 .15299988 .047348024 .12298584 .051361085 .12298584 .09454346 .12298584 .11462402 .12799073 .13168335 .1499939 .15071106 .16299439 .14370728 .19389344 .13671875 .22399903 .13671875 .32798768 .13671875 .3899994 .20687866 .3899994 .2855835M.31199647 .28459168C.31199647 .22395325 .2869873 .17671204 .22698975 .17671204 .15499878 .17671204 .1329956 .22366333 .1329956 .29257203 .1329956 .35849 .16299439 .40144349 .22099304 .40144349 .28599549 .40144349 .31199647 .35549928 .31199647 .28459168Z"/>
<path id="font_2_39" d="M.46798707 .64453127H.17199707C.13798523 .64453127 .08799744 .647522 .08799744 .647522L.085998538 .64453127C.09399414 .5875244 .09799194 .5195923 .09799194 .44467164V.19987488C.09799194 .124938968 .09399414 .054000856 .085998538 .000061035159L.08699036-.0029296876C.08699036-.0029296876 .13699341 .000061035159 .17199707 .000061035159 .20599365 .000061035159 .25-.0029296876 .25-.0029296876L.2519989 .000061035159C.24398804 .057006837 .24198914 .124938968 .24198914 .19987488V.30078126C.2899933 .30078126 .4099884 .29777528 .47898866 .29078675L.48199464 .29377748C.47999574 .30278016 .47898866 .32276917 .47898866 .33177186 .47898866 .34077455 .47999574 .35977174 .48199464 .36875917L.47898866 .37176515C.41999818 .3667755 .3600006 .36177064 .24198914 .36177064V.44467164C.24198914 .46165467 .24299622 .55255129 .25 .5765228 .38398744 .5765228 .5309906 .5545502 .5309906 .5545502L.5329895 .558548C.5319977 .5665283 .5309906 .6005249 .5309906 .6095276 .5309906 .6175232 .5319977 .6305237 .5329895 .64453127L.5309906 .647522C.5149994 .6455231 .49198915 .64453127 .46798707 .64453127Z"/>
<path id="font_2_66" d="M.31098939 .22233582 .30899049 .12927246C.30899049 .11627197 .30108644 .09135437 .2939911 .084243778 .2709961 .06123352 .24798584 .050231935 .21998596 .050231935 .18998719 .050231935 .16799927 .08024597 .16799927 .10726929 .16799927 .14338684 .18078614 .18811035 .23098755 .20132447L.31098939 .22233582M.43699647 .08024597C.43699647 .10926819 .44099427 .26637269 .44099427 .27737428 .44099427 .33750917 .42858888 .3747406 .40098573 .3995514 .3692932 .427948 .3090973 .43945313 .26098634 .43945313 .18899536 .43945313 .09298706 .4074402 .068984989 .3864441L.06599426 .3824463 .085998538 .3073883 .11898804 .30639649C.15299988 .35643006 .19699097 .38545228 .24198914 .38545228 .28599549 .38545228 .31098939 .36053468 .31098939 .28338624 .31098939 .27638246 .30799867 .27236939 .30499269 .27137757L.18798828 .24035645C.09199524 .21733094 .033996583 .16630554 .033996583 .09825134 .033996583 .029220581 .100997928-.009765625 .17098999-.009765625 .21009827-.009765625 .2630005 .0032196046 .30799867 .048233034H.30999757C.32398988 .007232666 .34599305-.009765625 .3889923-.009765625 .42808534-.009765625 .47799684 .00022888184 .5079956 .023223877 .5066986 .031921388 .5039978 .039230348 .49798585 .04421997 .45799256 .04421997 .43699647 .047225954 .43699647 .08024597Z"/>
<path id="font_2_87" d="M.21398926-.0029296876C.22499085-.0009460449 .25898744 .000061035159 .2689972 .000061035159 .2789917 .000061035159 .30249024-.0009460449 .31098939-.0029296876 .37348939 .13243103 .4544983 .28826905 .5299988 .43164063 .5209961 .42863465 .48298646 .42863465 .47299195 .42863465 .46299745 .42863465 .43899537 .42863465 .42999269 .43164063 .3985901 .3405304 .34649659 .2048645 .30029298 .12243652L.2939911 .12294006C.25439454 .21734619 .21089173 .33732606 .18099976 .43164063 .16799927 .42863465 .12098694 .42863465 .10699463 .42863465 .09098816 .42863465 .035995485 .42863465 .019989014 .43164063 .09098816 .28477479 .1579895 .14291382 .21398926-.0029296876Z"/>
<path id="font_2_80" d="M.040985109 .20533753C.040985109 .072250369 .13398743-.009765625 .2829895-.009765625 .43598939-.009765625 .5249939 .076049808 .5249939 .21434021 .5249939 .34040834 .45399476 .43945313 .2849884 .43945313 .14199829 .43945313 .040985109 .36042787 .040985109 .20533753M.27799989 .38945008C.36299134 .38945008 .3829956 .32640077 .3829956 .1873169 .3829956 .072250369 .34199525 .040222169 .29699708 .040222169 .19299317 .040222169 .18299866 .1512909 .18299866 .22834778 .18299866 .31539918 .19198609 .38945008 .27799989 .38945008Z"/>
<path id="font_2_83" d="M.22499085 .34944154 .22079468 .3524475C.22079468 .37524415 .21949768 .4169464 .21798706 .42544557 .21679688 .43234254 .21528626 .43544007 .20899964 .43544007 .17999268 .43074037 .114990238 .43074037 .07998657 .43244935L.07798767 .42944337C.08569336 .38674928 .08898926 .31010438 .08898926 .23532105V.18026734C.08898926 .10517883 .08699036 .054122926 .07899475 .000061035159L.07998657-.0029296876C.07998657-.0029296876 .11199951 .000061035159 .14698792 .000061035159 .18099976 .000061035159 .22898865-.0029296876 .22898865-.0029296876L.23098755 .000061035159C.22299195 .057128908 .22099304 .10418701 .22099304 .18026734V.25334168C.22099304 .3308258 .28988648 .34243775 .30499269 .34243775 .32398988 .34243775 .34498597 .33743287 .36299134 .3234253L.3809967 .3254242 .40098573 .42845155 .39698792 .43244935C.37998963 .43743897 .3639984 .43945313 .34599305 .43945313 .29899598 .43945313 .25099183 .388443 .22499085 .34944154Z"/>
<path id="font_2_74" d="M.084991458 .606781C.084991458 .56877139 .115997318 .53778079 .1559906 .53778079 .19599915 .53778079 .22698975 .56877139 .22698975 .606781 .22698975 .6447754 .19599915 .67578127 .1559906 .67578127 .115997318 .67578127 .084991458 .6447754 .084991458 .606781M.08999634 .23483277V.17988587C.08999634 .10494995 .08799744 .054000856 .07998657 .000061035159L.08198547-.0029296876C.10269165-.00064086916 .12098694 .000061035159 .1559906 .000061035159 .18998719 .000061035159 .21128845-.0009460449 .22999573-.0029296876L.23199463 .000061035159C.22399903 .057006837 .22200012 .10395813 .22200012 .17988587V.24581909C.22200012 .32073976 .22569275 .3637085 .23199463 .42364503 .23199463 .43063355 .22898865 .43363954 .22299195 .43363954 .20928955 .43164063 .18199158 .42863465 .1539917 .42863465 .12799073 .42863465 .10069275 .43034364 .08299255 .43164063L.07998657 .42764283C.08799744 .38468934 .08999634 .30975343 .08999634 .23483277Z"/>
<path id="font_2_85" d="M.08999634 .42871095C.069488529 .4288025 .04838562 .4300995 .035995485 .43170167 .03048706 .41470338 .0236969 .3986969 .01399231 .3836975L.018997193 .37670899C.036193849 .37800599 .06719971 .37860108 .08999634 .3787079L.08699036 .2609558C.085494998 .20103455 .083999637 .118133548 .083999637 .08818054 .083999637 .041229249 .116989139-.009780884 .18099976-.009780884 .23298645-.009780884 .2849884-.00077819827 .32798768 .025222779 .32798768 .041229249 .32199098 .05621338 .31098939 .063201908 .2889862 .052230836 .2789917 .051223756 .25299073 .051223756 .22599793 .051223756 .21598816 .09017944 .21598816 .13111878 .21598816 .16108704 .2158966 .21202088 .21699524 .27194215L.21899414 .3787079H.25698854C.2809906 .3787079 .3156891 .37800599 .32899476 .37670899 .3304901 .39170838 .33499146 .40899659 .34098817 .42370606L.33599855 .43170167C.31739808 .4300995 .2889862 .42869569 .2659912 .42869569H.21899414C.21899414 .48469544 .21949768 .5146942 .22399903 .56770327 .22399903 .57470706 .22099304 .57769778 .21499634 .57769778 .18998719 .56770327 .13598633 .5417023 .09599304 .5326996L.09399414 .52970889C.09069824 .503006 .08999634 .46839906 .08999634 .42871095Z"/>
<path id="font_2_70" d="M.17298889 .2549591C.17649842 .30413819 .18869019 .33906556 .20349121 .35932923 .21618653 .37669374 .23568726 .38945008 .2639923 .38945008 .30488587 .38945008 .32899476 .34277345 .32899476 .2549591H.17298889M.44799806 .10714722C.40148927 .06971741 .35299684 .066223148 .31098939 .066223148 .26239015 .066223148 .22599793 .07929993 .20219422 .105148319 .18019104 .12910462 .16899109 .1641388 .16899109 .20996094H.26849366C.36849977 .20996094 .45399476 .20796204 .45399476 .20796204L.45999146 .21395874C.45999146 .33926393 .4249878 .43945313 .2709961 .43945313 .21598816 .43945313 .15618897 .42214967 .116485599 .38945008 .067993167 .3493042 .034988405 .28897096 .034988405 .20596314 .034988405 .14707947 .0566864 .08509827 .09799194 .04222107 .13218689 .006729126 .19099427-.009765625 .2659912-.009765625 .33799745-.009765625 .40950013 .01322937 .46398927 .07620239 .46398927 .08918762 .45799256 .10714722 .44799806 .10714722Z"/>
<path id="font_2_49" d="M.23498535 .560318C.23498535 .58932498 .24299622 .6043396 .31498719 .6043396 .37399293 .6043396 .42199708 .58732607 .42199708 .46826173 .42199708 .36720277 .37208558 .3251953 .31399537 .3251953 .2889862 .3251953 .24798584 .32818605 .23498535 .33518983V.560318M.09298706 .44525147V.20014954C.09298706 .12512207 .08898926 .054092409 .08099365 .000061035159L.08198547-.0029296876C.08198547-.0029296876 .12998963 .000061035159 .16499329 .000061035159 .19898987 .000061035159 .24499512-.0029296876 .24499512-.0029296876L.24699402 .000061035159C.23899842 .05708313 .23498535 .12512207 .23498535 .20014954V.28419496C.25698854 .27719117 .2899933 .27418519 .32499696 .27418519 .5069885 .27418519 .57299807 .3832245 .57299807 .4862671 .57299807 .52259829 .5589905 .57933047 .5029907 .6183319 .46769715 .6429291 .4131012 .65234377 .34199525 .65234377 .31599427 .65234377 .19499207 .64533999 .16499329 .64533999 .1309967 .64533999 .08299255 .6483307 .08299255 .6483307L.08099365 .64533999C.08898926 .58833315 .09298706 .5202942 .09298706 .44525147Z"/>
<path id="font_2_91" d="M.2709961 .3697052 .041992189 .03199768C.033996583 .019989014 .02999878 .015991211 .020996094 .0069885256L.022994996-.0030059815C.022994996-.0030059815 .13398743 0 .1619873 0H.3880005C.4079895 0 .42900086-.0010070801 .44400025-.0030059815L.44599916 0C.44499208 .0129852299 .44400025 .022994996 .44400025 .03199768 .44400025 .040985109 .44499208 .05899048 .44599916 .066986087L.44400025 .06997681C.44400025 .06997681 .31999208 .05999756 .19999695 .05899048L.4229889 .3867035C.43998719 .4116974 .44699098 .42170716 .45298768 .42871095 .45298768 .43270875 .45199586 .43470765 .44799806 .43470765 .44299317 .43470765 .3959961 .42871095 .36698915 .42871095H.114990238C.09498596 .42871095 .07398987 .42970277 .05899048 .43170167L.056991579 .42871095C.057998659 .41571046 .05899048 .40570069 .05899048 .396698 .05899048 .38771058 .057998659 .3697052 .056991579 .3617096L.05899048 .35871888C.05899048 .35871888 .15899658 .3677063 .2709961 .3697052Z"/>
<path id="font_2_53" d="M.22898865 .43563844V.19987488C.22898865 .124938968 .22698975 .054000856 .21899414 .000061035159L.21998596-.0029296876C.21998596-.0029296876 .2659912 .000061035159 .30099488 .000061035159 .33499146 .000061035159 .3809967-.0029296876 .3809967-.0029296876L.3829956 .000061035159C.375 .057006837 .37298585 .124938968 .37298585 .19987488V.43563844C.37298585 .45262147 .37399293 .5425415 .3809967 .5665283 .5149994 .5665283 .58499148 .5445404 .58499148 .5445404L.58699038 .5485382C.58499148 .56352236 .58499148 .6165161 .58699038 .64453127L.58499148 .647522C.56900027 .6455231 .54599 .64453127 .5249939 .64453127H.07699585C.055999757 .64453127 .032989503 .6455231 .016998291 .647522L.01499939 .64453127C.016998291 .6165161 .016998291 .56352236 .01499939 .5485382L.016998291 .5445404C.016998291 .5445404 .08699036 .5665283 .22099304 .5665283 .22799683 .5425415 .22898865 .45262147 .22898865 .43563844Z"/>
<path id="font_2_81" d="M.21199036 .28237916C.23399353 .3354187 .2899933 .3694458 .32398988 .3694458 .3849945 .3694458 .40098573 .30490113 .40098573 .2083435 .40098573 .101760867 .35699464 .040222169 .30099488 .040222169 .27598573 .040222169 .24899292 .04522705 .21199036 .07624817V.28237916M.21598816 .35842896 .21179199 .36143495C.21179199 .38424684 .210495 .4169464 .20899964 .42544557 .20779419 .43234254 .20629883 .43544007 .19999695 .43544007 .17098999 .43074037 .10598755 .43074037 .070999149 .43244935L.068984989 .42944337C.076690677 .38674928 .07998657 .31010438 .07998657 .23535156V-.031829835C.07998657-.10652161 .07849121-.17871094 .069992069-.23234558L.070999149-.23535156C.070999149-.23535156 .10998535-.23234558 .14498902-.23234558 .17929077-.23234558 .21998596-.23535156 .21998596-.23535156L.22200012-.23234558C.21348572-.17520142 .21199036-.10702515 .21199036-.031829835V.018234253C.24499512-.0027770997 .28199769-.009765625 .31900025-.009765625 .44509889-.009765625 .54299929 .09436035 .54299929 .23535156 .54299929 .309906 .519989 .36593629 .4724884 .4069519 .44909669 .42713929 .41448976 .43945313 .37098695 .43945313 .32798768 .43945313 .2649994 .42544557 .21598816 .35842896Z"/>
<path id="font_2_79" d="M.5119934 .18025208V.29136659C.5119934 .3964386 .46299745 .43945313 .37298585 .43945313 .32199098 .43945313 .2619934 .40844728 .21598816 .34942628L.21179199 .35243226C.21179199 .37524415 .210495 .4169464 .20899964 .42544557 .20779419 .43234254 .20629883 .43544007 .19999695 .43544007 .17098999 .43074037 .10598755 .43074037 .070999149 .43244935L.068984989 .42944337C.076690677 .38674928 .07998657 .3100891 .07998657 .23530579V.18025208C.07998657 .10517883 .07749939 .053619386 .068984989 .000061035159L.070999149-.0029296876C.070999149-.0029296876 .117996219 .000061035159 .15299988 .000061035159 .18728638 .000061035159 .21499634-.0029296876 .21499634-.0029296876L.21798706 .000061035159C.21299744 .057128908 .21199036 .10417175 .21199036 .18025208V.2823639C.25 .33241273 .2919922 .36244203 .32798768 .36244203 .35499574 .36244203 .37998963 .3424225 .37998963 .26934815V.18025208C.37998963 .10517883 .37998963 .053115846 .37399293 .000061035159L.37599183-.0029296876C.37599183-.0029296876 .4079895 .000061035159 .44299317 .000061035159 .47698976 .000061035159 .5209961-.0029296876 .5209961-.0029296876L.522995 .000061035159C.5139923 .057128908 .5119934 .10417175 .5119934 .18025208Z"/>
<path id="font_2_72" d="M.45899964 .28952027C.45899964 .32398988 .43899537 .36506654 .40789796 .38604737 .43769837 .38555909 .4741974 .3798523 .5089874 .37745667L.5119934 .38046266C.5099945 .38945008 .5089874 .3984375 .5089874 .4074402 .5089874 .41644288 .5099945 .42744447 .5119934 .43644715L.5089874 .43943788C.4611969 .4353485 .39788819 .43473817 .32328797 .43084718 .3053894 .43644715 .27249146 .43943788 .25099183 .43943788 .14299011 .43943788 .053985597 .38145448 .053985597 .28552247 .053985597 .22955323 .08279419 .20158386 .10848999 .18359375 .123291019 .17318726 .147995 .16558838 .147995 .16558838L.1459961 .16059876C.101486209 .14559937 .05899048 .107299808 .05899048 .074417117 .05899048 .03239441 .08248901 .0048828127 .13798523-.003616333 .11639404-.017211914 .07798767-.031661989 .053985597-.045715333 .036987306-.06781006 .03199768-.099121097 .03199768-.12402344 .03199768-.21128845 .13578797-.23829651 .22499085-.23829651 .29029847-.23829651 .36608888-.23048401 .4264984-.2007904 .4854889-.17170716 .5299988-.121414188 .5299988-.06781006 .5299988 .04638672 .40299989 .06639099 .31098939 .06639099 .2939911 .06639099 .2709961 .06439209 .24798584 .06138611 .23399353 .05960083 .23399353 .05857849 .22898865 .05857849 .20098877 .05857849 .17098999 .06364441 .17098999 .107177738 .17098999 .12347412 .17149353 .1355133 .18249512 .15258789 .1967926 .14659119 .22389221 .1415863 .2579956 .1415863 .37399293 .1415863 .45899964 .19648743 .45899964 .28952027M.32598878 .28851319C.32598878 .21757508 .3059845 .18159485 .2579956 .18159485 .19699097 .18159485 .18699646 .21757508 .18699646 .29051209 .18699646 .35647584 .20298767 .39944459 .25498963 .39944459 .31498719 .39944459 .32598878 .36346437 .32598878 .28851319M.18299866-.015823365C.18939209-.017211914 .19699097-.018417359 .20599365-.018417359 .23548889-.017608643 .26219178-.016616822 .27598573-.016616822 .33198548-.016616822 .3999939-.02142334 .3999939-.09089661 .3999939-.15213013 .33898927-.19328308 .25299073-.19328308 .21899414-.19328308 .15098572-.1722107 .15098572-.10394287 .15098572-.07072449 .15699768-.04270935 .18299866-.015609741V-.015823365Z"/>
<path id="font_2_84" d="M.053985597 .11328125 .037994386 .01727295C.09199524-.0027770997 .1579895-.009765625 .19400025-.009765625 .32398988-.009765625 .3789978 .053237916 .3789978 .122283939 .3789978 .21243286 .30799867 .24035645 .23699951 .27838136 .20439148 .29588319 .1769867 .31340028 .1769867 .3454132 .1769867 .37342835 .18699646 .3944397 .22599793 .3944397 .2749939 .3944397 .3039856 .3474121 .31698609 .31939698L.34399415 .32040406 .36299134 .41044618 .36099244 .41345216C.33399964 .42845155 .27598573 .43945313 .22799683 .43945313 .13798523 .43945313 .05899048 .39544679 .05899048 .31840516 .05899048 .24835205 .10809326 .21253968 .16499329 .18132019 .23799134 .14129639 .2599945 .12327576 .2599945 .08325195 .2599945 .036224367 .22898865 .034225465 .19099427 .034225465 .15589905 .034225465 .11399841 .056243898 .083999637 .11427307L.053985597 .11328125Z"/>
</defs>
<path transform="matrix(1.00003,0,0,-1.00003,122.32976,85.59921)" d="M0 0V56.69362C1.186 56.69362 2.3755 56.65294 3.55891 56.57855Z" fill="#ff4d4d"/>
<path transform="matrix(1.00003,0,0,-1.00003,122.32976,85.59921)" stroke-width=".19925" stroke-linecap="butt" stroke-miterlimit="10" stroke-linejoin="miter" fill="none" stroke="#000000" d="M0 0V56.69362C1.186 56.69362 2.3755 56.65294 3.55891 56.57855Z"/>
<path transform="matrix(1.00003,0,0,-1.00003,122.32976,85.59921)" d="M0 0 3.55891 56.57855C14.29277 55.9038 24.62093 52.18742 33.32271 45.86546Z" fill="#ffa64d"/>
<path transform="matrix(1.00003,0,0,-1.00003,122.32976,85.59921)" stroke-width=".19925" stroke-linecap="butt" stroke-miterlimit="10" stroke-linejoin="miter" fill="none" stroke="#000000" d="M0 0 3.55891 56.57855C14.29277 55.9038 24.62093 52.18742 33.32271 45.86546Z"/>
<path transform="matrix(1.00003,0,0,-1.00003,122.32976,85.59921)" d="M0 0 33.32271 45.86546C51.08618 32.96025 59.8018 10.94406 55.68752-10.62312Z" fill="#fff56d"/>
<path transform="matrix(1.00003,0,0,-1.00003,122.32976,85.59921)" stroke-width=".19925" stroke-linecap="butt" stroke-miterlimit="10" stroke-linejoin="miter" fill="none" stroke="#000000" d="M0 0 33.32271 45.86546C51.08618 32.96025 59.8018 10.94406 55.68752-10.62312Z"/>
<path transform="matrix(1.00003,0,0,-1.00003,122.32976,85.59921)" d="M0 0 55.68752-10.62312C52.98676-24.78354 44.98566-37.3929 33.32271-45.8663Z" fill="#82ff4d"/>
<path transform="matrix(1.00003,0,0,-1.00003,122.32976,85.59921)" stroke-width=".19925" stroke-linecap="butt" stroke-miterlimit="10" stroke-linejoin="miter" fill="none" stroke="#000000" d="M0 0 55.68752-10.62312C52.98676-24.78354 44.98566-37.3929 33.32271-45.8663Z"/>
<path transform="matrix(1.00003,0,0,-1.00003,122.32976,85.59921)" d="M0 0 33.32271-45.8663C29.47746-48.65962 25.28702-50.96077 20.86823-52.70993Z" fill="#4dff4d"/>
<path transform="matrix(1.00003,0,0,-1.00003,122.32976,85.59921)" stroke-width=".19925" stroke-linecap="butt" stroke-miterlimit="10" stroke-linejoin="miter" fill="none" stroke="#000000" d="M0 0 33.32271-45.8663C29.47746-48.65962 25.28702-50.96077 20.86823-52.70993Z"/>
<path transform="matrix(1.00003,0,0,-1.00003,122.32976,85.59921)" d="M0 0 20.86823-52.70993C3.99925-59.38832-15.05838-57.58548-30.37627-47.86464Z" fill="#00c0f3"/>
<path transform="matrix(1.00003,0,0,-1.00003,122.32976,85.59921)" stroke-width=".19925" stroke-linecap="butt" stroke-miterlimit="10" stroke-linejoin="miter" fill="none" stroke="#000000" d="M0 0 20.86823-52.70993C3.99925-59.38832-15.05838-57.58548-30.37627-47.86464Z"/>
<path transform="matrix(1.00003,0,0,-1.00003,122.32976,85.59921)" d="M0 0-30.37627-47.86464C-36.40671-44.03755-41.66725-39.10054-45.86546-33.32185Z" fill="#4d4dff"/>
<path transform="matrix(1.00003,0,0,-1.00003,122.32976,85.59921)" stroke-width=".19925" stroke-linecap="butt" stroke-miterlimit="10" stroke-linejoin="miter" fill="none" stroke="#000000" d="M0 0-30.37627-47.86464C-36.40671-44.03755-41.66725-39.10054-45.86546-33.32185Z"/>
<path transform="matrix(1.00003,0,0,-1.00003,122.32976,85.59921)" d="M0 0-45.86546-33.32185C-58.77066-15.55838-60.25598 8.07117-49.67871 27.31131Z" fill="#824dff"/>
<path transform="matrix(1.00003,0,0,-1.00003,122.32976,85.59921)" stroke-width=".19925" stroke-linecap="butt" stroke-miterlimit="10" stroke-linejoin="miter" fill="none" stroke="#000000" d="M0 0-45.86546-33.32185C-58.77066-15.55838-60.25598 8.07117-49.67871 27.31131Z"/>
<path transform="matrix(1.00003,0,0,-1.00003,122.32976,85.59921)" d="M0 0-49.67871 27.31131C-46.23743 33.571-41.63869 39.12825-36.13509 43.68112Z" fill="#f172ac"/>
<path transform="matrix(1.00003,0,0,-1.00003,122.32976,85.59921)" stroke-width=".19925" stroke-linecap="butt" stroke-miterlimit="10" stroke-linejoin="miter" fill="none" stroke="#000000" d="M0 0-49.67871 27.31131C-46.23743 33.571-41.63869 39.12825-36.13509 43.68112Z"/>
<path transform="matrix(1.00003,0,0,-1.00003,122.32976,85.59921)" d="M0 0-36.13509 43.68112C-25.97131 52.08879-13.19066 56.69275 0 56.69275Z" fill="#ff4d82"/>
<path transform="matrix(1.00003,0,0,-1.00003,122.32976,85.59921)" stroke-width=".19925" stroke-linecap="butt" stroke-miterlimit="10" stroke-linejoin="miter" fill="none" stroke="#000000" d="M0 0-36.13509 43.68112C-25.97131 52.08879-13.19066 56.69275 0 56.69275Z"/>
<path transform="matrix(1.00003,0,0,-1.00003,122.32976,85.59921)" d="M2.9741 49.5801C2.9741 50.36292 2.33952 50.99751 1.55669 50.99751 .77386 50.99751 .13927 50.36292 .13927 49.5801 .13927 48.79726 .77386 48.16267 1.55669 48.16267 2.33952 48.16267 2.9741 48.79726 2.9741 49.5801ZM1.55669 49.5801H120.47392" fill="#999999"/>
<path transform="matrix(1.00003,0,0,-1.00003,122.32976,85.59921)" stroke-width=".79701" stroke-linecap="butt" stroke-miterlimit="10" stroke-linejoin="miter" fill="none" stroke="#999999" d="M2.9741 49.5801C2.9741 50.36292 2.33952 50.99751 1.55669 50.99751 .77386 50.99751 .13927 50.36292 .13927 49.5801 .13927 48.79726 .77386 48.16267 1.55669 48.16267 2.33952 48.16267 2.9741 48.79726 2.9741 49.5801ZM1.55669 49.5801H120.47392"/>
<use data-text="A" xlink:href="#font_1_34" transform="matrix(8.966669,0,0,-8.966669,185.65866,32.678625)" fill="#999999"/>
<use data-text="n" xlink:href="#font_1_79" transform="matrix(8.966669,0,0,-8.966669,191.2987,32.678625)" fill="#999999"/>
<use data-text="c" xlink:href="#font_1_68" transform="matrix(8.966669,0,0,-8.966669,196.13173,32.678625)" fill="#999999"/>
<use data-text="h" xlink:href="#font_1_73" transform="matrix(8.966669,0,0,-8.966669,199.97844,32.678625)" fill="#999999"/>
<use data-text="o" xlink:href="#font_1_80" transform="matrix(8.966669,0,0,-8.966669,204.90116,32.678625)" fill="#999999"/>
<use data-text="v" xlink:href="#font_1_87" transform="matrix(8.966669,0,0,-8.966669,209.32172,32.678625)" fill="#999999"/>
<use data-text="i" xlink:href="#font_1_74" transform="matrix(8.966669,0,0,-8.966669,213.46431,32.678625)" fill="#999999"/>
<use data-text="e" xlink:href="#font_1_70" transform="matrix(8.966669,0,0,-8.966669,215.79566,32.678625)" fill="#999999"/>
<use data-text="s" xlink:href="#font_1_84" transform="matrix(8.966669,0,0,-8.966669,219.85756,32.678625)" fill="#999999"/>
<use data-text="(" xlink:href="#font_1_9" transform="matrix(8.966669,0,0,-8.966669,225.64105,32.678625)" fill="#999999"/>
<use data-text="1" xlink:href="#font_1_18" transform="matrix(8.966669,0,0,-8.966669,228.33107,32.678625)" fill="#999999"/>
<use data-text="%" xlink:href="#font_1_6" transform="matrix(8.966669,0,0,-8.966669,232.50057,32.678625)" fill="#999999"/>
<use data-text=")" xlink:href="#font_1_10" transform="matrix(8.966669,0,0,-8.966669,238.5979,32.678625)" fill="#999999"/>
<path transform="matrix(1.00003,0,0,-1.00003,122.32976,85.59921)" d="M11.01932 26.67029C11.01932 27.45311 10.38472 28.08769 9.6019 28.08769 8.81908 28.08769 8.18448 27.45311 8.18448 26.67029 8.18448 25.88745 8.81908 25.25287 9.6019 25.25287 10.38472 25.25287 11.01932 25.88745 11.01932 26.67029ZM9.6019 26.67029H120.47392" fill="#999999"/>
<path transform="matrix(1.00003,0,0,-1.00003,122.32976,85.59921)" stroke-width=".79701" stroke-linecap="butt" stroke-miterlimit="10" stroke-linejoin="miter" fill="none" stroke="#999999" d="M11.01932 26.67029C11.01932 27.45311 10.38472 28.08769 9.6019 28.08769 8.81908 28.08769 8.18448 27.45311 8.18448 26.67029 8.18448 25.88745 8.81908 25.25287 9.6019 25.25287 10.38472 25.25287 11.01932 25.88745 11.01932 26.67029ZM9.6019 26.67029H120.47392"/>
<use data-text="B" xlink:href="#font_1_35" transform="matrix(8.966669,0,0,-8.966669,200.4091,55.58931)" fill="#999999"/>
<use data-text="a" xlink:href="#font_1_66" transform="matrix(8.966669,0,0,-8.966669,205.93259,55.58931)" fill="#999999"/>
<use data-text="c" xlink:href="#font_1_68" transform="matrix(8.966669,0,0,-8.966669,210.24555,55.58931)" fill="#999999"/>
<use data-text="o" xlink:href="#font_1_80" transform="matrix(8.966669,0,0,-8.966669,214.09226,55.58931)" fill="#999999"/>
<use data-text="n" xlink:href="#font_1_79" transform="matrix(8.966669,0,0,-8.966669,218.57558,55.58931)" fill="#999999"/>
<use data-text="(" xlink:href="#font_1_9" transform="matrix(8.966669,0,0,-8.966669,225.64131,55.58931)" fill="#999999"/>
<use data-text="9" xlink:href="#font_1_26" transform="matrix(8.966669,0,0,-8.966669,228.33133,55.58931)" fill="#999999"/>
<use data-text="%" xlink:href="#font_1_6" transform="matrix(8.966669,0,0,-8.966669,232.50083,55.58931)" fill="#999999"/>
<use data-text=")" xlink:href="#font_1_10" transform="matrix(8.966669,0,0,-8.966669,238.59816,55.58931)" fill="#999999"/>
<path transform="matrix(1.00003,0,0,-1.00003,122.32976,85.59921)" d="M37.0127 9.53745C37.0127 10.32027 36.3781 10.95486 35.59528 10.95486 34.81245 10.95486 34.17786 10.32027 34.17786 9.53745 34.17786 8.75461 34.81245 8.12003 35.59528 8.12003 36.3781 8.12003 37.0127 8.75461 37.0127 9.53745ZM35.59528 9.53745H120.47392" fill="#999999"/>
<path transform="matrix(1.00003,0,0,-1.00003,122.32976,85.59921)" stroke-width=".79701" stroke-linecap="butt" stroke-miterlimit="10" stroke-linejoin="miter" fill="none" stroke="#999999" d="M37.0127 9.53745C37.0127 10.32027 36.3781 10.95486 35.59528 10.95486 34.81245 10.95486 34.17786 10.32027 34.17786 9.53745 34.17786 8.75461 34.81245 8.12003 35.59528 8.12003 36.3781 8.12003 37.0127 8.75461 37.0127 9.53745ZM35.59528 9.53745H120.47392"/>
<use data-text="C" xlink:href="#font_1_36" transform="matrix(8.966669,0,0,-8.966669,192.44586,72.721828)" fill="#999999"/>
<use data-text="h" xlink:href="#font_1_73" transform="matrix(8.966669,0,0,-8.966669,198.51631,72.721828)" fill="#999999"/>
<use data-text="e" xlink:href="#font_1_70" transform="matrix(8.966669,0,0,-8.966669,203.43901,72.721828)" fill="#999999"/>
<use data-text="e" xlink:href="#font_1_70" transform="matrix(8.966669,0,0,-8.966669,207.55472,72.721828)" fill="#999999"/>
<use data-text="s" xlink:href="#font_1_84" transform="matrix(8.966669,0,0,-8.966669,211.61663,72.721828)" fill="#999999"/>
<use data-text="e" xlink:href="#font_1_70" transform="matrix(8.966669,0,0,-8.966669,215.16742,72.721828)" fill="#999999"/>
<use data-text="(" xlink:href="#font_1_9" transform="matrix(8.966669,0,0,-8.966669,221.47101,72.721828)" fill="#999999"/>
<use data-text="1" xlink:href="#font_1_18" transform="matrix(8.966669,0,0,-8.966669,224.16101,72.721828)" fill="#999999"/>
<use data-text="8" xlink:href="#font_1_25" transform="matrix(8.966669,0,0,-8.966669,228.3305,72.721828)" fill="#999999"/>
<use data-text="%" xlink:href="#font_1_6" transform="matrix(8.966669,0,0,-8.966669,232.50002,72.721828)" fill="#999999"/>
<use data-text=")" xlink:href="#font_1_10" transform="matrix(8.966669,0,0,-8.966669,238.59735,72.721828)" fill="#999999"/>
<path transform="matrix(1.00003,0,0,-1.00003,122.32976,85.59921)" d="M30.10463-18.276C30.10463-17.49318 29.47003-16.8586 28.68721-16.8586 27.90437-16.8586 27.26979-17.49318 27.26979-18.276 27.26979-19.05884 27.90437-19.69342 28.68721-19.69342 29.47003-19.69342 30.10463-19.05884 30.10463-18.276ZM28.68721-18.276H120.47392" fill="#999999"/>
<path transform="matrix(1.00003,0,0,-1.00003,122.32976,85.59921)" stroke-width=".79701" stroke-linecap="butt" stroke-miterlimit="10" stroke-linejoin="miter" fill="none" stroke="#999999" d="M30.10463-18.276C30.10463-17.49318 29.47003-16.8586 28.68721-16.8586 27.90437-16.8586 27.26979-17.49318 27.26979-18.276 27.26979-19.05884 27.90437-19.69342 28.68721-19.69342 29.47003-19.69342 30.10463-19.05884 30.10463-18.276ZM28.68721-18.276H120.47392"/>
<use data-text="P" xlink:href="#font_1_49" transform="matrix(8.966669,0,0,-8.966669,193.4779,100.25865)" fill="#999999"/>
<use data-text="e" xlink:href="#font_1_70" transform="matrix(8.966669,0,0,-8.966669,198.49027,100.25865)" fill="#999999"/>
<use data-text="p" xlink:href="#font_1_81" transform="matrix(8.966669,0,0,-8.966669,202.55219,100.25865)" fill="#999999"/>
<use data-text="p" xlink:href="#font_1_81" transform="matrix(8.966669,0,0,-8.966669,207.24173,100.25865)" fill="#999999"/>
<use data-text="e" xlink:href="#font_1_70" transform="matrix(8.966669,0,0,-8.966669,211.9851,100.25865)" fill="#999999"/>
<use data-text="r" xlink:href="#font_1_83" transform="matrix(8.966669,0,0,-8.966669,216.047,100.25865)" fill="#999999"/>
<use data-text="(" xlink:href="#font_1_9" transform="matrix(8.966669,0,0,-8.966669,221.47187,100.25865)" fill="#999999"/>
<use data-text="1" xlink:href="#font_1_18" transform="matrix(8.966669,0,0,-8.966669,224.16187,100.25865)" fill="#999999"/>
<use data-text="2" xlink:href="#font_1_19" transform="matrix(8.966669,0,0,-8.966669,228.33136,100.25865)" fill="#999999"/>
<use data-text="%" xlink:href="#font_1_6" transform="matrix(8.966669,0,0,-8.966669,232.50086,100.25865)" fill="#999999"/>
<use data-text=")" xlink:href="#font_1_10" transform="matrix(8.966669,0,0,-8.966669,238.5982,100.25865)" fill="#999999"/>
<path transform="matrix(1.00003,0,0,-1.00003,122.32976,85.59921)" d="M22.03174-37.18874C22.03174-36.4059 21.39714-35.77132 20.61432-35.77132 19.8315-35.77132 19.1969-36.4059 19.1969-37.18874 19.1969-37.97156 19.8315-38.60614 20.61432-38.60614 21.39714-38.60614 22.03174-37.97156 22.03174-37.18874ZM20.61432-37.18874H120.47392" fill="#999999"/>
<path transform="matrix(1.00003,0,0,-1.00003,122.32976,85.59921)" stroke-width=".79701" stroke-linecap="butt" stroke-miterlimit="10" stroke-linejoin="miter" fill="none" stroke="#999999" d="M22.03174-37.18874C22.03174-36.4059 21.39714-35.77132 20.61432-35.77132 19.8315-35.77132 19.1969-36.4059 19.1969-37.18874 19.1969-37.97156 19.8315-38.60614 20.61432-38.60614 21.39714-38.60614 22.03174-37.97156 22.03174-37.18874ZM20.61432-37.18874H120.47392"/>
<use data-text="M" xlink:href="#font_1_46" transform="matrix(8.966669,0,0,-8.966669,182.79857,119.450229)" fill="#999999"/>
<use data-text="u" xlink:href="#font_1_86" transform="matrix(8.966669,0,0,-8.966669,190.74304,119.450229)" fill="#999999"/>
<use data-text="s" xlink:href="#font_1_84" transform="matrix(8.966669,0,0,-8.966669,195.55815,119.450229)" fill="#999999"/>
<use data-text="h" xlink:href="#font_1_73" transform="matrix(8.966669,0,0,-8.966669,199.10895,119.450229)" fill="#999999"/>
<use data-text="r" xlink:href="#font_1_83" transform="matrix(8.966669,0,0,-8.966669,204.03166,119.450229)" fill="#999999"/>
<use data-text="o" xlink:href="#font_1_80" transform="matrix(8.966669,0,0,-8.966669,207.1431,119.450229)" fill="#999999"/>
<use data-text="o" xlink:href="#font_1_80" transform="matrix(8.966669,0,0,-8.966669,211.68024,119.450229)" fill="#999999"/>
<use data-text="m" xlink:href="#font_1_78" transform="matrix(8.966669,0,0,-8.966669,216.16356,119.450229)" fill="#999999"/>
<use data-text="(" xlink:href="#font_1_9" transform="matrix(8.966669,0,0,-8.966669,225.64134,119.450229)" fill="#999999"/>
<use data-text="4" xlink:href="#font_1_21" transform="matrix(8.966669,0,0,-8.966669,228.33135,119.450229)" fill="#999999"/>
<use data-text="%" xlink:href="#font_1_6" transform="matrix(8.966669,0,0,-8.966669,232.50086,119.450229)" fill="#999999"/>
<use data-text=")" xlink:href="#font_1_10" transform="matrix(8.966669,0,0,-8.966669,238.59819,119.450229)" fill="#999999"/>
<path transform="matrix(1.00003,0,0,-1.00003,122.32976,85.59921)" d="M-3.42223-49.3677C-3.42223-48.58487-4.05682-47.95029-4.83965-47.95029-5.62247-47.95029-6.25706-48.58487-6.25706-49.3677-6.25706-50.15053-5.62247-50.78513-4.83965-50.78513-4.05682-50.78513-3.42223-50.15053-3.42223-49.3677ZM-4.83965-49.3677H-120.47392" fill="#999999"/>
<path transform="matrix(1.00003,0,0,-1.00003,122.32976,85.59921)" stroke-width=".79701" stroke-linecap="butt" stroke-miterlimit="10" stroke-linejoin="miter" fill="none" stroke="#999999" d="M-3.42223-49.3677C-3.42223-48.58487-4.05682-47.95029-4.83965-47.95029-5.62247-47.95029-6.25706-48.58487-6.25706-49.3677-6.25706-50.15053-5.62247-50.78513-4.83965-50.78513-4.05682-50.78513-3.42223-50.15053-3.42223-49.3677ZM-4.83965-49.3677H-120.47392"/>
<use data-text="O" xlink:href="#font_1_48" transform="matrix(8.966669,0,0,-8.966669,3.3621903,131.6296)" fill="#999999"/>
<use data-text="l" xlink:href="#font_1_77" transform="matrix(8.966669,0,0,-8.966669,10.006493,131.6296)" fill="#999999"/>
<use data-text="i" xlink:href="#font_1_74" transform="matrix(8.966669,0,0,-8.966669,12.26609,131.6296)" fill="#999999"/>
<use data-text="v" xlink:href="#font_1_87" transform="matrix(8.966669,0,0,-8.966669,14.597435,131.6296)" fill="#999999"/>
<use data-text="e" xlink:href="#font_1_70" transform="matrix(8.966669,0,0,-8.966669,18.668297,131.6296)" fill="#999999"/>
<use data-text="(" xlink:href="#font_1_9" transform="matrix(8.966669,0,0,-8.966669,24.962899,131.6296)" fill="#999999"/>
<use data-text="1" xlink:href="#font_1_18" transform="matrix(8.966669,0,0,-8.966669,27.652916,131.6296)" fill="#999999"/>
<use data-text="5" xlink:href="#font_1_22" transform="matrix(8.966669,0,0,-8.966669,31.82241,131.6296)" fill="#999999"/>
<use data-text="%" xlink:href="#font_1_6" transform="matrix(8.966669,0,0,-8.966669,35.991907,131.6296)" fill="#999999"/>
<use data-text=")" xlink:href="#font_1_10" transform="matrix(8.966669,0,0,-8.966669,42.08924,131.6296)" fill="#999999"/>
<path transform="matrix(1.00003,0,0,-1.00003,122.32976,85.59921)" d="M-27.79575-30.89229C-27.79575-30.10945-28.43034-29.47487-29.21317-29.47487-29.99599-29.47487-30.63058-30.10945-30.63058-30.89229-30.63058-31.67511-29.99599-32.3097-29.21317-32.3097-28.43034-32.3097-27.79575-31.67511-27.79575-30.89229ZM-29.21317-30.89229H-120.47392" fill="#999999"/>
<path transform="matrix(1.00003,0,0,-1.00003,122.32976,85.59921)" stroke-width=".79701" stroke-linecap="butt" stroke-miterlimit="10" stroke-linejoin="miter" fill="none" stroke="#999999" d="M-27.79575-30.89229C-27.79575-30.10945-28.43034-29.47487-29.21317-29.47487-29.99599-29.47487-30.63058-30.10945-30.63058-30.89229-30.63058-31.67511-29.99599-32.3097-29.21317-32.3097-28.43034-32.3097-27.79575-31.67511-27.79575-30.89229ZM-29.21317-30.89229H-120.47392"/>
<use data-text="O" xlink:href="#font_1_48" transform="matrix(8.966669,0,0,-8.966669,3.3621903,113.15304)" fill="#999999"/>
<use data-text="n" xlink:href="#font_1_79" transform="matrix(8.966669,0,0,-8.966669,10.006493,113.15304)" fill="#999999"/>
<use data-text="i" xlink:href="#font_1_74" transform="matrix(8.966669,0,0,-8.966669,14.839516,113.15304)" fill="#999999"/>
<use data-text="o" xlink:href="#font_1_80" transform="matrix(8.966669,0,0,-8.966669,17.17086,113.15304)" fill="#999999"/>
<use data-text="n" xlink:href="#font_1_79" transform="matrix(8.966669,0,0,-8.966669,21.654198,113.15304)" fill="#999999"/>
<use data-text="(" xlink:href="#font_1_9" transform="matrix(8.966669,0,0,-8.966669,28.719933,113.15304)" fill="#999999"/>
<use data-text="6" xlink:href="#font_1_23" transform="matrix(8.966669,0,0,-8.966669,31.409935,113.15304)" fill="#999999"/>
<use data-text="%" xlink:href="#font_1_6" transform="matrix(8.966669,0,0,-8.966669,35.57943,113.15304)" fill="#999999"/>
<use data-text=")" xlink:href="#font_1_10" transform="matrix(8.966669,0,0,-8.966669,41.676767,113.15304)" fill="#999999"/>
<path transform="matrix(1.00003,0,0,-1.00003,122.32976,85.59921)" d="M-48.09908-2.94124C-48.09908-2.15842-48.73367-1.52382-49.5165-1.52382-50.29933-1.52382-50.93391-2.15842-50.93391-2.94124-50.93391-3.72406-50.29933-4.35866-49.5165-4.35866-48.73367-4.35866-48.09908-3.72406-48.09908-2.94124ZM-49.5165-2.94124H-120.47392" fill="#999999"/>
<path transform="matrix(1.00003,0,0,-1.00003,122.32976,85.59921)" stroke-width=".79701" stroke-linecap="butt" stroke-miterlimit="10" stroke-linejoin="miter" fill="none" stroke="#999999" d="M-48.09908-2.94124C-48.09908-2.15842-48.73367-1.52382-49.5165-1.52382-50.29933-1.52382-50.93391-2.15842-50.93391-2.94124-50.93391-3.72406-50.29933-4.35866-49.5165-4.35866-48.73367-4.35866-48.09908-3.72406-48.09908-2.94124ZM-49.5165-2.94124H-120.47392"/>
<use data-text="P" xlink:href="#font_1_49" transform="matrix(8.966669,0,0,-8.966669,3.3621903,84.923198)" fill="#999999"/>
<use data-text="e" xlink:href="#font_1_70" transform="matrix(8.966669,0,0,-8.966669,8.374565,84.923198)" fill="#999999"/>
<use data-text="p" xlink:href="#font_1_81" transform="matrix(8.966669,0,0,-8.966669,12.43647,84.923198)" fill="#999999"/>
<use data-text="p" xlink:href="#font_1_81" transform="matrix(8.966669,0,0,-8.966669,17.12603,84.923198)" fill="#999999"/>
<use data-text="e" xlink:href="#font_1_70" transform="matrix(8.966669,0,0,-8.966669,21.869393,84.923198)" fill="#999999"/>
<use data-text="r" xlink:href="#font_1_83" transform="matrix(8.966669,0,0,-8.966669,25.931298,84.923198)" fill="#999999"/>
<use data-text="o" xlink:href="#font_1_80" transform="matrix(8.966669,0,0,-8.966669,29.051705,84.923198)" fill="#999999"/>
<use data-text="n" xlink:href="#font_1_79" transform="matrix(8.966669,0,0,-8.966669,33.53504,84.923198)" fill="#999999"/>
<use data-text="i" xlink:href="#font_1_74" transform="matrix(8.966669,0,0,-8.966669,38.36808,84.923198)" fill="#999999"/>
<use data-text="(" xlink:href="#font_1_9" transform="matrix(8.966669,0,0,-8.966669,42.93212,84.923198)" fill="#999999"/>
<use data-text="1" xlink:href="#font_1_18" transform="matrix(8.966669,0,0,-8.966669,45.622125,84.923198)" fill="#999999"/>
<use data-text="8" xlink:href="#font_1_25" transform="matrix(8.966669,0,0,-8.966669,49.79162,84.923198)" fill="#999999"/>
<use data-text="%" xlink:href="#font_1_6" transform="matrix(8.966669,0,0,-8.966669,53.961114,84.923198)" fill="#999999"/>
<use data-text=")" xlink:href="#font_1_10" transform="matrix(8.966669,0,0,-8.966669,60.05845,84.923198)" fill="#999999"/>
<path transform="matrix(1.00003,0,0,-1.00003,122.32976,85.59921)" d="M-31.2487 27.21614C-31.2487 27.99896-31.8833 28.63356-32.66612 28.63356-33.44894 28.63356-34.08354 27.99896-34.08354 27.21614-34.08354 26.43332-33.44894 25.79872-32.66612 25.79872-31.8833 25.79872-31.2487 26.43332-31.2487 27.21614ZM-32.66612 27.21614H-120.47392" fill="#999999"/>
<path transform="matrix(1.00003,0,0,-1.00003,122.32976,85.59921)" stroke-width=".79701" stroke-linecap="butt" stroke-miterlimit="10" stroke-linejoin="miter" fill="none" stroke="#999999" d="M-31.2487 27.21614C-31.2487 27.99896-31.8833 28.63356-32.66612 28.63356-33.44894 28.63356-34.08354 27.99896-34.08354 27.21614-34.08354 26.43332-33.44894 25.79872-32.66612 25.79872-31.8833 25.79872-31.2487 26.43332-31.2487 27.21614ZM-32.66612 27.21614H-120.47392"/>
<use data-text="P" xlink:href="#font_1_49" transform="matrix(8.966669,0,0,-8.966669,3.3621903,54.765287)" fill="#999999"/>
<use data-text="i" xlink:href="#font_1_74" transform="matrix(8.966669,0,0,-8.966669,8.374565,54.765287)" fill="#999999"/>
<use data-text="n" xlink:href="#font_1_79" transform="matrix(8.966669,0,0,-8.966669,10.705894,54.765287)" fill="#999999"/>
<use data-text="e" xlink:href="#font_1_70" transform="matrix(8.966669,0,0,-8.966669,15.538933,54.765287)" fill="#999999"/>
<use data-text="a" xlink:href="#font_1_66" transform="matrix(8.966669,0,0,-8.966669,19.600838,54.765287)" fill="#999999"/>
<use data-text="p" xlink:href="#font_1_81" transform="matrix(8.966669,0,0,-8.966669,23.913796,54.765287)" fill="#999999"/>
<use data-text="p" xlink:href="#font_1_81" transform="matrix(8.966669,0,0,-8.966669,28.603356,54.765287)" fill="#999999"/>
<use data-text="l" xlink:href="#font_1_77" transform="matrix(8.966669,0,0,-8.966669,33.29293,54.765287)" fill="#999999"/>
<use data-text="e" xlink:href="#font_1_70" transform="matrix(8.966669,0,0,-8.966669,35.55253,54.765287)" fill="#999999"/>
<use data-text="(" xlink:href="#font_1_9" transform="matrix(8.966669,0,0,-8.966669,41.847146,54.765287)" fill="#999999"/>
<use data-text="6" xlink:href="#font_1_23" transform="matrix(8.966669,0,0,-8.966669,44.537149,54.765287)" fill="#999999"/>
<use data-text="%" xlink:href="#font_1_6" transform="matrix(8.966669,0,0,-8.966669,48.706644,54.765287)" fill="#999999"/>
<use data-text=")" xlink:href="#font_1_10" transform="matrix(8.966669,0,0,-8.966669,54.803979,54.765287)" fill="#999999"/>
<path transform="matrix(1.00003,0,0,-1.00003,122.32976,85.59921)" d="M-15.30405 46.70068C-15.30405 47.4835-15.93864 48.1181-16.72147 48.1181-17.50429 48.1181-18.13889 47.4835-18.13889 46.70068-18.13889 45.91786-17.50429 45.28326-16.72147 45.28326-15.93864 45.28326-15.30405 45.91786-15.30405 46.70068ZM-16.72147 46.70068H-120.47392" fill="#999999"/>
<path transform="matrix(1.00003,0,0,-1.00003,122.32976,85.59921)" stroke-width=".79701" stroke-linecap="butt" stroke-miterlimit="10" stroke-linejoin="miter" fill="none" stroke="#999999" d="M-15.30405 46.70068C-15.30405 47.4835-15.93864 48.1181-16.72147 48.1181-17.50429 48.1181-18.13889 47.4835-18.13889 46.70068-18.13889 45.91786-17.50429 45.28326-16.72147 45.28326-15.93864 45.28326-15.30405 45.91786-15.30405 46.70068ZM-16.72147 46.70068H-120.47392"/>
<use data-text="S" xlink:href="#font_1_52" transform="matrix(8.966669,0,0,-8.966669,3.3621903,35.261705)" fill="#999999"/>
<use data-text="a" xlink:href="#font_1_66" transform="matrix(8.966669,0,0,-8.966669,7.89933,35.261705)" fill="#999999"/>
<use data-text="u" xlink:href="#font_1_86" transform="matrix(8.966669,0,0,-8.966669,12.212288,35.261705)" fill="#999999"/>
<use data-text="s" xlink:href="#font_1_84" transform="matrix(8.966669,0,0,-8.966669,17.027398,35.261705)" fill="#999999"/>
<use data-text="a" xlink:href="#font_1_66" transform="matrix(8.966669,0,0,-8.966669,20.578194,35.261705)" fill="#999999"/>
<use data-text="g" xlink:href="#font_1_72" transform="matrix(8.966669,0,0,-8.966669,24.891152,35.261705)" fill="#999999"/>
<use data-text="e" xlink:href="#font_1_70" transform="matrix(8.966669,0,0,-8.966669,29.365517,35.261705)" fill="#999999"/>
<use data-text="(" xlink:href="#font_1_9" transform="matrix(8.966669,0,0,-8.966669,35.66012,35.261705)" fill="#999999"/>
<use data-text="1" xlink:href="#font_1_18" transform="matrix(8.966669,0,0,-8.966669,38.350137,35.261705)" fill="#999999"/>
<use data-text="1" xlink:href="#font_1_18" transform="matrix(8.966669,0,0,-8.966669,42.51963,35.261705)" fill="#999999"/>
<use data-text="%" xlink:href="#font_1_6" transform="matrix(8.966669,0,0,-8.966669,46.689126,35.261705)" fill="#999999"/>
<use data-text=")" xlink:href="#font_1_10" transform="matrix(8.966669,0,0,-8.966669,52.78646,35.261705)" fill="#999999"/>
<use data-text="F" xlink:href="#font_2_39" transform="matrix(10.909428,0,0,-10.909428,63.232984,8.609901)" fill="#333333"/>
<use data-text="a" xlink:href="#font_2_66" transform="matrix(10.909428,0,0,-10.909428,69.276828,8.609901)" fill="#333333"/>
<use data-text="v" xlink:href="#font_2_87" transform="matrix(10.909428,0,0,-10.909428,74.90608,8.609901)" fill="#333333"/>
<use data-text="o" xlink:href="#font_2_80" transform="matrix(10.909428,0,0,-10.909428,80.81897,8.609901)" fill="#333333"/>
<use data-text="r" xlink:href="#font_2_83" transform="matrix(10.909428,0,0,-10.909428,86.99371,8.609901)" fill="#333333"/>
<use data-text="i" xlink:href="#font_2_74" transform="matrix(10.909428,0,0,-10.909428,91.58658,8.609901)" fill="#333333"/>
<use data-text="t" xlink:href="#font_2_85" transform="matrix(10.909428,0,0,-10.909428,94.99031,8.609901)" fill="#333333"/>
<use data-text="e" xlink:href="#font_2_70" transform="matrix(10.909428,0,0,-10.909428,98.85225,8.609901)" fill="#333333"/>
<use data-text="P" xlink:href="#font_2_49" transform="matrix(10.909428,0,0,-10.909428,107.11069,8.609901)" fill="#333333"/>
<use data-text="i" xlink:href="#font_2_74" transform="matrix(10.909428,0,0,-10.909428,113.63452,8.609901)" fill="#333333"/>
<use data-text="z" xlink:href="#font_2_91" transform="matrix(10.909428,0,0,-10.909428,117.03827,8.609901)" fill="#333333"/>
<use data-text="z" xlink:href="#font_2_91" transform="matrix(10.909428,0,0,-10.909428,122.31842,8.609901)" fill="#333333"/>
<use data-text="a" xlink:href="#font_2_66" transform="matrix(10.909428,0,0,-10.909428,127.59857,8.609901)" fill="#333333"/>
<use data-text="T" xlink:href="#font_2_53" transform="matrix(10.909428,0,0,-10.909428,135.9552,8.609901)" fill="#333333"/>
<use data-text="o" xlink:href="#font_2_80" transform="matrix(10.909428,0,0,-10.909428,141.8463,8.609901)" fill="#333333"/>
<use data-text="p" xlink:href="#font_2_81" transform="matrix(10.909428,0,0,-10.909428,148.02103,8.609901)" fill="#333333"/>
<use data-text="p" xlink:href="#font_2_81" transform="matrix(10.909428,0,0,-10.909428,154.40303,8.609901)" fill="#333333"/>
<use data-text="i" xlink:href="#font_2_74" transform="matrix(10.909428,0,0,-10.909428,160.78505,8.609901)" fill="#333333"/>
<use data-text="n" xlink:href="#font_2_79" transform="matrix(10.909428,0,0,-10.909428,164.18878,8.609901)" fill="#333333"/>
<use data-text="g" xlink:href="#font_2_72" transform="matrix(10.909428,0,0,-10.909428,170.73444,8.609901)" fill="#333333"/>
<use data-text="s" xlink:href="#font_2_84" transform="matrix(10.909428,0,0,-10.909428,176.85463,8.609901)" fill="#333333"/>
</svg>
