<svg xmlns="http://www.w3.org/2000/svg" xmlns:xlink="http://www.w3.org/1999/xlink" xmlns:inkscape="http://www.inkscape.org/namespaces/inkscape" version="1.1" width="309" height="50" viewBox="0 0 309 50">
<defs>
<path id="font_1_121" d="M.45700074 .32554627C.45700074 .4045868 .45298768 .49765016 .41099549 .57870486 .36999513 .6537323 .30099488 .6777344 .25 .6777344 .19099427 .6777344 .12098694 .6507263 .07998657 .5616913 .04699707 .48864747 .041992189 .40559388 .041992189 .32554627 .041992189 .24649048 .04598999 .17344666 .07598877 .10043335 .115997318 .0045318605 .19198609-.022460938 .24899292-.022460938 .32199098-.022460938 .3849945 .01852417 .4169922 .08743286 .44699098 .1524353 .45700074 .21847534 .45700074 .32554627M.3789978 .33755494C.3789978 .27149964 .3789978 .20846558 .36099244 .14543152 .33499146 .054504396 .28199769 .038528444 .25 .038528444 .19799805 .038528444 .15699768 .07644653 .13699341 .1484375 .12098694 .20599365 .11999512 .2599945 .11999512 .33799745 .11999512 .40072633 .11999512 .46072389 .13699341 .5157318 .14299011 .534729 .16799927 .61672976 .24899292 .61672976 .32699586 .61672976 .35299684 .5407257 .3600006 .52272036 .3789978 .46672059 .3789978 .39971925 .3789978 .33772279V.33755494Z"/>
<path id="font_1_82" d="M.42399598 0V.057998659H.29899598V.6777344H.2789917C.21998596 .6166992 .13699341 .6137085 .08898926 .6117096V.55371096C.12199402 .55470278 .16999817 .55670168 .21998596 .57769778V.057998659H.09498596V0H.42399598Z"/>
<path id="font_1_107" d="M.44898988 0V.070999149H.2669983C.25498963 .070999149 .24299622 .069992069 .23098755 .069992069H.12199402C.1539917 .09794617 .22999573 .17280579 .26098634 .20178223 .27999879 .2197876 .33099366 .2617798 .34999085 .27978517 .394989 .32476808 .44898988 .37776185 .44898988 .4627533 .44898988 .5777283 .36799623 .6777344 .23599243 .6777344 .12199402 .6777344 .06599426 .59973147 .041992189 .51374819 .053985597 .49674989 .05899048 .49075318 .06098938 .4877472 .06298828 .4857483 .07299805 .4727478 .08299255 .4587555 .102996829 .5357361 .1309967 .61372378 .22200012 .61372378 .31599427 .61372378 .36698915 .53874209 .36698915 .4607544 .36698915 .37576295 .30999757 .31877137 .25099183 .25878907L.17399597 .18777466 .049987794 .06399536V0H.44898988Z"/>
<path id="font_1_48" d="M.44299317 .19520569C.44299317 .27816773 .3929901 .3761444 .2789917 .39912416V.64004519C.34098817 .63404849 .3809967 .6100464 .4149933 .58306887L.4269867 .64904788C.3659973 .69104006 .32199098 .7010498 .2789917 .7040405V.75H.22099304V.7030487C.10899353 .68304446 .055999757 .59306338 .055999757 .51309207 .055999757 .46910096 .07499695 .35614015 .22099304 .3221588V.054244996C.17199707 .059249879 .10798645 .08024597 .055999757 .1262207L.04399109 .058242799C.068984989 .040252687 .12799073-.00074768069 .22099304-.009750366V-.055664064H.2789917V-.007751465C.3789978 .009246826 .44299317 .099227908 .44299317 .19520569M.22099304 .41412355C.15299988 .43112184 .1289978 .48509217 .1289978 .5260773 .1289978 .57606509 .16299439 .62405398 .22099304 .63804629V.41412355M.36999513 .1822052C.36999513 .13122559 .34098817 .07524109 .2789917 .057250978V.3081665C.33299256 .2931671 .36999513 .24118042 .36999513 .1822052Z"/>
<path id="font_1_104" d="M.6439972 .6230469V.68803408H.035995485V.6230469H.16999817C.18199158 .6230469 .19400025 .6240387 .20599365 .6240387H.29599V0H.3849945V.6240387H.47399903C.48599244 .6240387 .49798585 .6230469 .5099945 .6230469H.6439972Z"/>
<path id="font_1_66" d="M.1559906 0V.44433595H.08099365V0H.1559906M.1639862 .5662689V.65527346H.07499695V.5662689H.1639862Z"/>
<path id="font_1_75" d="M.71299746 0V.29804994C.71299746 .36506654 .69699099 .45507813 .57598879 .45507813 .5159912 .45507813 .46398927 .427063 .4269867 .37306214 .40098573 .44906617 .33099366 .45507813 .29899598 .45507813 .22698975 .45507813 .17999268 .41407777 .15299988 .37806703V.45007325H.08099365V0H.15899658V.2450409C.15899658 .31304933 .18598938 .3940735 .2599945 .3940735 .35299684 .3940735 .35798646 .3290558 .35798646 .29104615V0H.43598939V.2450409C.43598939 .31304933 .46299745 .3940735 .5369873 .3940735 .6299896 .3940735 .6349945 .3290558 .6349945 .29104615V0H.71299746Z"/>
<path id="font_1_50" d="M.4139862 .21875C.4139862 .25274659 .41299439 .32781983 .37399293 .38790895 .33299256 .4499359 .27198792 .4609375 .23599243 .4609375 .125 .4609375 .034988405 .3548584 .034988405 .22573853 .034988405 .09411621 .1309967-.0107421879 .25099183-.0107421879 .31399537-.0107421879 .37098695 .013244629 .4099884 .041244508L.4039917 .1060791C.34098817 .054244996 .2749939 .050247194 .2519989 .050247194 .17199707 .050247194 .10798645 .121032718 .10499573 .21875H.4139862M.35699464 .27374269H.10998535C.12599182 .34985353 .1789856 .39993287 .23599243 .39993287 .28799439 .39993287 .34399415 .36587525 .35699464 .27374269Z"/>
<path id="font_1_85" d="M.33198548-.25C.28399659-.20201111 .15699768-.073013309 .15699768 .25 .15699768 .30599977 .1599884 .4229889 .20098877 .54100039 .24198914 .6569977 .29899598 .71699526 .33198548 .75H.2709961C.23899842 .7200012 .17199707 .6589966 .12599182 .5359955 .085998538 .42900086 .07899475 .32299806 .07899475 .25 .07899475-.073013309 .22299195-.20600891 .2709961-.25H.33198548Z"/>
<path id="font_1_118" d="M.44599916 .44433595H.37098695C.24099732 .12605286 .23899842 .08001709 .23799134 .056991579H.23699951C.23098755 .124053958 .15098572 .31021119 .14698792 .31921388L.09298706 .44433595H.01399231L.20799256 0 .17199707-.09005737C.1459961-.14808655 .1289978-.14808655 .114990238-.14808655 .09899902-.14808655 .066986087-.14408875 .036987306-.13208008L.042999269-.19708252C.06498718-.2020874 .09298706-.20507813 .114990238-.20507813 .1499939-.20483399 .18699646-.19282532 .22799683-.09082031L.44599916 .44433595Z"/>
<path id="font_1_28" d="M.40899659 .00024414063V.28903199C.40899659 .39094544 .33599855 .4609375 .24398804 .4609375 .1789856 .4609375 .13398743 .44493104 .08699036 .41792298L.09298706 .3519745C.14498902 .38894654 .19499207 .40193177 .24398804 .40193177 .29100038 .40193177 .33099366 .361969 .33099366 .2880249V.24505615C.18099976 .24305725 .053985597 .20106507 .053985597 .11317444 .053985597 .07022095 .08099365-.0107421879 .16799927-.0107421879 .18199158-.0107421879 .27598573-.008743286 .33399964 .036254884V.00024414063H.40899659M.33099366 .13214112C.33099366 .11317444 .33099366 .0881958 .29699708 .069229129 .2679901 .051254274 .22999573 .050247194 .21899414 .050247194 .17098999 .050247194 .12599182 .07322693 .12599182 .11515808 .12599182 .18507385 .28799439 .19206238 .33099366 .19406128V.13214112Z"/>
<path id="font_1_96" d="M.32699586 .38806153V.45507813C.23799134 .45407105 .18299866 .4050598 .1519928 .35905458V.45007325H.08198547V0H.15699768V.21403504C.15699768 .31404115 .22898865 .38606263 .32699586 .38806153Z"/>
<path id="font_1_98" d="M.3600006 .12817383C.3600006 .18313599 .32299806 .21710205 .32099916 .22009278 .28199769 .25506593 .25498963 .26106263 .20498657 .27005006 .1499939 .28103639 .10398865 .29103089 .10398865 .33998109 .10398865 .40193177 .17599488 .40193177 .18899536 .40193177 .22099304 .40193177 .27398683 .39793397 .33099366 .3639679L.34298707 .42892457C.29100038 .45292665 .25 .4609375 .19898987 .4609375 .17399597 .4609375 .032989503 .4609375 .032989503 .32998658 .032989503 .28103639 .06199646 .24906922 .08699036 .23008728 .117996219 .20809937 .13999939 .20411682 .19499207 .19311524 .23098755 .18612671 .2889862 .1741333 .2889862 .1211853 .2889862 .052246095 .20999146 .052246095 .19499207 .052246095 .11399841 .052246095 .057998659 .08921814 .039993287 .10121155L.027999878 .0332489C.05999756 .01725769 .114990238-.0107421879 .19599915-.0107421879 .21398926-.0107421879 .2689972-.0107421879 .31199647 .021255494 .34298707 .04525757 .3600006 .08522034 .3600006 .12817383Z"/>
<path id="font_1_86" d="M.30899049 .25C.30899049 .57299807 .16499329 .70599368 .116989139 .75H.055999757C.10398865 .70199587 .23098755 .57299807 .23098755 .25 .23098755 .19400025 .22799683 .07699585 .18699646-.041000368 .1459961-.15701294 .08898926-.2170105 .055999757-.25H.116989139C.14898682-.22000122 .21598816-.15901184 .2619934-.036010744 .3019867 .070999149 .30899049 .1769867 .30899049 .25Z"/>
<path id="font_1_46" d="M.6649933 .341156C.6649933 .5352783 .5299988 .69433596 .35798646 .69433596H.09599304V0H.35899354C.5289917 0 .6649933 .15205384 .6649933 .341156M.57899478 .341156C.57899478 .17106629 .47499085 .055999757 .33499146 .055999757H.18199158V.6383209H.33499146C.47499085 .6383209 .57899478 .5172577 .57899478 .341156Z"/>
<path id="font_1_84" d="M.47999574 .22315979C.47999574 .34309388 .4169922 .45507813 .32099916 .45507813 .26098634 .45507813 .20298767 .43406678 .15699768 .3950653V.44407655H.08198547V-.19335938H.1599884V.04624939C.19099427 .01725769 .23498535-.0107421879 .29499818-.0107421879 .3919983-.0107421879 .47999574 .0872345 .47999574 .22315979M.4019928 .22315979C.4019928 .12020874 .33099366 .050247194 .2559967 .050247194 .21699524 .050247194 .18998719 .070236209 .16999817 .097229007 .1599884 .112213138 .1599884 .114212039 .1599884 .13220215V.33309938C.18399048 .36808778 .22299195 .3910675 .2659912 .3910675 .34199525 .3910675 .4019928 .31510926 .4019928 .22315979Z"/>
<path id="font_1_81" d="M.46899415 .22009278C.46899415 .3539734 .36898805 .4609375 .25 .4609375 .1269989 .4609375 .02999878 .35098268 .02999878 .22009278 .02999878 .08821106 .13198853-.0107421879 .24899292-.0107421879 .36898805-.0107421879 .46899415 .09020996 .46899415 .22009278M.3909912 .23008728C.3909912 .112197879 .32299806 .053253175 .24899292 .053253175 .17999268 .053253175 .10798645 .109191898 .10798645 .23008728 .10798645 .35098268 .18399048 .39993287 .24899292 .39993287 .31900025 .39993287 .3909912 .34797669 .3909912 .23008728Z"/>
<path id="font_1_105" d="M.33198548 .027252198 .31599427 .086257938C.2899933 .06524658 .2579956 .053253175 .22599793 .053253175 .18899536 .053253175 .1749878 .08325195 .1749878 .13627625V.38632203H.31599427V.44433595H.1749878V.57128909H.10598755V.44433595H.018997193V.38632203H.102996829V.119262699C.102996829 .059249879 .116989139-.0107421879 .18598938-.0107421879 .2559967-.0107421879 .30699159 .014251709 .33198548 .027252198Z"/>
<path id="font_1_55" d="M.34700013 .62709048V.69407656C.33499146 .69706729 .3039856 .7050781 .2669983 .7050781 .17298889 .7050781 .100997928 .634079 .100997928 .5342102V.44433595H.026992798V.38632203H.100997928V0H.17599488V.38632203H.28599549V.44433595H.17298889V.5631714C.17298889 .63708499 .23999024 .6440735 .2659912 .6440735 .28599549 .6440735 .31298829 .6420746 .34700013 .62709048Z"/>
<path id="font_1_83" d="M.58200076 .4921875C.58200076 .59928897 .48298646 .69433596 .34498597 .69433596H.09599304V0H.18499756V.2890625H.35198976C.47599793 .2890625 .58200076 .38008119 .58200076 .4921875M.5009918 .4921875C.5009918 .41311646 .43798829 .34706117 .32299806 .34706117H.18199158V.6383209H.32299806C.43299867 .6383209 .5009918 .5772705 .5009918 .4921875Z"/>
<path id="font_1_77" d="M.43499757 0V.29804994C.43499757 .36405946 .41999818 .45507813 .2979889 .45507813 .20799256 .45507813 .15899658 .3870697 .15299988 .3790741V.45007325H.08099365V0H.15899658V.2450409C.15899658 .31105042 .18399048 .3940735 .2599945 .3940735 .35598756 .3940735 .35699464 .32305909 .35699464 .29104615V0H.43499757Z"/>
<path id="font_1_111" d="M.6519928 .69433596H.57398989L.44099427 .3521576C.4249878 .31114198 .34999085 .11804199 .34098817 .072021488H.33999635C.33198548 .11204529 .2889862 .22209168 .27999879 .24610901L.10699463 .69433596H.01399231L.2869873 0H.3789978L.6519928 .69433596Z"/>
<path id="font_1_72" d="M.1559906 0V.69433596H.08099365V0H.1559906Z"/>
<path id="font_1_109" d="M.43499757 .00024414063V.44433595H.35699464V.15426636C.35699464 .07925415 .30099488 .04425049 .23699951 .04425049 .1659851 .04425049 .15899658 .070251468 .15899658 .11326599V.44433595H.08099365V.10926819C.08099365 .037246705 .10398865-.0107421879 .18699646-.0107421879 .23999024-.0107421879 .31098939 .0052490236 .3600006 .04824829V.00024414063H.43499757Z"/>
<path id="font_1_44" d="M.17999268 .36132813V.44433595H.09700012V.36132813H.17999268M.17999268 0V.08299255H.09700012V0H.17999268Z"/>
<path id="font_1_113" d="M.92900088 .69433596H.8569946L.7659912 .38017274C.73999026 .2911377 .69200137 .123046878 .68699648 .072021488H.6859894C.6859894 .072021488 .6799927 .12504578 .6139984 .35316468L.5159912 .69433596H.43499757L.34498597 .38217164C.32299806 .30514527 .272995 .13005066 .2679901 .074020389H.2669983C.2630005 .11404419 .23599243 .21209717 .22799683 .24511719L.18099976 .41218568 .099990848 .69433596H.01399231L.21699524 0H.2979889L.397995 .3471527C.4189911 .42019654 .46199037 .56925967 .46798707 .6212921H.46899415C.47299195 .5912781 .49699403 .49623109 .5239868 .40118409L.6389923 0H.7259979L.92900088 .69433596Z"/>
<path id="font_1_63" d="M.43499757 0V.29804994C.43499757 .36405946 .41999818 .45507813 .2979889 .45507813 .23599243 .45507813 .18798828 .42407228 .1559906 .3830719V.69433596H.08099365V0H.15899658V.2450409C.15899658 .31105042 .18399048 .3940735 .2599945 .3940735 .35598756 .3940735 .35699464 .32305909 .35699464 .29104615V0H.43499757Z"/>
<path id="font_1_47" d="M.43399049-.0001373291V.69433596H.35899354V.39985658C.30599977 .44407655 .25 .45507813 .21299744 .45507813 .11399841 .45507813 .035995485 .35107423 .035995485 .22210694 .035995485 .09111023 .11299133-.0107421879 .20799256-.0107421879 .24099732-.0107421879 .2999878-.0017547608 .35598756 .052246095V.00024414063L.43399049-.0001373291M.35598756 .13911438C.35598756 .12512207 .35499574 .1071167 .32299806 .078125 .2999878 .05821228 .2749939 .050247194 .24899292 .050247194 .18699646 .050247194 .11399841 .09712219 .11399841 .22109986 .11399841 .35307313 .19999695 .3940735 .25898744 .3940735 .3039856 .39385987 .33399964 .37086488 .35598756 .3388672V.13911438Z"/>
<path id="font_1_114" d="M.66799929 .44433595H.59498599L.5309906 .23216248C.519989 .19613648 .48999024 .09706116 .4850006 .054031373H.48399354C.47999574 .08505249 .45498658 .17411804 .43798829 .23117066L.37298585 .44433595H.30299378L.24598694 .25619508C.23498535 .22116089 .20098877 .1060791 .19699097 .055038454H.19599915C.19099427 .10307312 .1579895 .216156 .14199829 .27119447L.08999634 .44433595H.01399231L.15098572 0H.22999573L.2919922 .20614624C.30599977 .252182 .33399964 .35125733 .33699037 .3882904H.33799745C.33999635 .36026 .35699464 .291214 .36999513 .2481842L.44299317 0H.5309906L.66799929 .44433595Z"/>
</defs>
<path transform="matrix(1,0,0,-1,125.377,17.083)" stroke-width=".79701" stroke-linecap="butt" stroke-miterlimit="10" stroke-linejoin="miter" fill="none" stroke="#000000" d="M0 0H170.08086"/>
<path transform="matrix(1,0,0,-1,125.377,17.083)" stroke-width=".3985" stroke-linecap="butt" stroke-miterlimit="10" stroke-linejoin="miter" fill="none" stroke="#000000" d="M0 0V5.66927"/>
<use data-text="0" xlink:href="#font_1_121" transform="matrix(9.9626,0,0,-9.9626,122.886,7.675)"/>
<path transform="matrix(1,0,0,-1,125.377,17.083)" stroke-width=".3985" stroke-linecap="butt" stroke-miterlimit="10" stroke-linejoin="miter" fill="none" stroke="#000000" d="M85.04042 0V5.66927"/>
<use data-text="1" xlink:href="#font_1_82" transform="matrix(9.9626,0,0,-9.9626,207.927,7.894)"/>
<path transform="matrix(1,0,0,-1,125.377,17.083)" stroke-width=".3985" stroke-linecap="butt" stroke-miterlimit="10" stroke-linejoin="miter" fill="none" stroke="#000000" d="M170.08086 0V5.66927"/>
<use data-text="2" xlink:href="#font_1_107" transform="matrix(9.9626,0,0,-9.9626,292.96699,7.894)"/>
<use data-text="$" xlink:href="#font_1_48" transform="matrix(9.9626,0,0,-9.9626,197.96399,47.918)"/>
<use data-text="1" xlink:href="#font_1_82" transform="matrix(9.9626,0,0,-9.9626,202.94528,47.918)"/>
<use data-text="0" xlink:href="#font_1_121" transform="matrix(9.9626,0,0,-9.9626,207.92658,47.918)"/>
<use data-text="0" xlink:href="#font_1_121" transform="matrix(9.9626,0,0,-9.9626,212.90787,47.918)"/>
<use data-text="0" xlink:href="#font_1_121" transform="matrix(9.9626,0,0,-9.9626,217.88916,47.918)"/>
<use data-text="$" xlink:href="#font_1_48" transform="matrix(9.9626,0,0,-9.9626,283.004,47.918)"/>
<use data-text="1" xlink:href="#font_1_82" transform="matrix(9.9626,0,0,-9.9626,287.9853,47.918)"/>
<use data-text="0" xlink:href="#font_1_121" transform="matrix(9.9626,0,0,-9.9626,292.96659,47.918)"/>
<use data-text="0" xlink:href="#font_1_121" transform="matrix(9.9626,0,0,-9.9626,297.94789,47.918)"/>
<use data-text="0" xlink:href="#font_1_121" transform="matrix(9.9626,0,0,-9.9626,302.92918,47.918)"/>
<use data-text="T" xlink:href="#font_1_104" transform="matrix(9.9626,0,0,-9.9626,60.310998,19.574002)"/>
<use data-text="i" xlink:href="#font_1_66" transform="matrix(9.9626,0,0,-9.9626,67.09553,19.574002)"/>
<use data-text="m" xlink:href="#font_1_75" transform="matrix(9.9626,0,0,-9.9626,69.476589,19.574002)"/>
<use data-text="e" xlink:href="#font_1_50" transform="matrix(9.9626,0,0,-9.9626,77.386898,19.574002)"/>
<use data-text="(" xlink:href="#font_1_85" transform="matrix(9.9626,0,0,-9.9626,85.11788,19.574002)"/>
<use data-text="y" xlink:href="#font_1_118" transform="matrix(9.9626,0,0,-9.9626,88.99334,19.574002)"/>
<use data-text="e" xlink:href="#font_1_50" transform="matrix(9.9626,0,0,-9.9626,93.3171,19.574002)"/>
<use data-text="a" xlink:href="#font_1_28" transform="matrix(9.9626,0,0,-9.9626,97.7405,19.574002)"/>
<use data-text="r" xlink:href="#font_1_96" transform="matrix(9.9626,0,0,-9.9626,102.25356,19.574002)"/>
<use data-text="s" xlink:href="#font_1_98" transform="matrix(9.9626,0,0,-9.9626,105.660778,19.574002)"/>
<use data-text=")" xlink:href="#font_1_86" transform="matrix(9.9626,0,0,-9.9626,109.47645,19.574002)"/>
<use data-text="D" xlink:href="#font_1_46" transform="matrix(9.9626,0,0,-9.9626,7.720001,19.853)"/>
<use data-text="e" xlink:href="#font_1_50" transform="matrix(9.9626,0,0,-9.9626,14.912994,19.853)"/>
<use data-text="p" xlink:href="#font_1_84" transform="matrix(9.9626,0,0,-9.9626,19.336396,19.853)"/>
<use data-text="o" xlink:href="#font_1_81" transform="matrix(9.9626,0,0,-9.9626,24.756058,19.853)"/>
<use data-text="s" xlink:href="#font_1_98" transform="matrix(9.9626,0,0,-9.9626,29.73735,19.853)"/>
<use data-text="i" xlink:href="#font_1_66" transform="matrix(9.9626,0,0,-9.9626,33.553026,19.853)"/>
<use data-text="t" xlink:href="#font_1_105" transform="matrix(9.9626,0,0,-9.9626,35.934083,19.853)"/>
<use data-text="o" xlink:href="#font_1_81" transform="matrix(9.9626,0,0,-9.9626,42.84813,19.853)"/>
<use data-text="f" xlink:href="#font_1_55" transform="matrix(9.9626,0,0,-9.9626,47.829423,19.853)"/>
<use data-text="P" xlink:href="#font_1_83" transform="matrix(9.9626,0,0,-9.9626,54.195528,19.853)"/>
<use data-text="r" xlink:href="#font_1_96" transform="matrix(9.9626,0,0,-9.9626,60.56163,19.853)"/>
<use data-text="e" xlink:href="#font_1_50" transform="matrix(9.9626,0,0,-9.9626,63.96884,19.853)"/>
<use data-text="s" xlink:href="#font_1_98" transform="matrix(9.9626,0,0,-9.9626,68.39224,19.853)"/>
<use data-text="e" xlink:href="#font_1_50" transform="matrix(9.9626,0,0,-9.9626,72.20792,19.853)"/>
<use data-text="n" xlink:href="#font_1_77" transform="matrix(9.9626,0,0,-9.9626,76.63132,19.853)"/>
<use data-text="t" xlink:href="#font_1_105" transform="matrix(9.9626,0,0,-9.9626,81.78198,19.853)"/>
<use data-text="V" xlink:href="#font_1_111" transform="matrix(9.9626,0,0,-9.9626,88.69603,19.853)"/>
<use data-text="a" xlink:href="#font_1_28" transform="matrix(9.9626,0,0,-9.9626,95.07208,19.853)"/>
<use data-text="l" xlink:href="#font_1_72" transform="matrix(9.9626,0,0,-9.9626,99.86409,19.853)"/>
<use data-text="u" xlink:href="#font_1_109" transform="matrix(9.9626,0,0,-9.9626,102.24515,19.853)"/>
<use data-text="e" xlink:href="#font_1_50" transform="matrix(9.9626,0,0,-9.9626,107.39581,19.853)"/>
<use data-text=":" xlink:href="#font_1_44" transform="matrix(9.9626,0,0,-9.9626,111.819217,19.853)"/>
<use data-text="$" xlink:href="#font_1_48" transform="matrix(9.9626,0,0,-9.9626,119.00224,19.853)"/>
<use data-text="P" xlink:href="#font_1_83" transform="matrix(9.9626,0,0,-9.9626,123.983539,19.853)"/>
<use data-text="W" xlink:href="#font_1_113" transform="matrix(9.9626,0,0,-9.9626,1.5810089,19.574002)"/>
<use data-text="i" xlink:href="#font_1_66" transform="matrix(9.9626,0,0,-9.9626,10.9857029,19.574002)"/>
<use data-text="t" xlink:href="#font_1_105" transform="matrix(9.9626,0,0,-9.9626,13.36676,19.574002)"/>
<use data-text="h" xlink:href="#font_1_63" transform="matrix(9.9626,0,0,-9.9626,16.963257,19.574002)"/>
<use data-text="d" xlink:href="#font_1_47" transform="matrix(9.9626,0,0,-9.9626,22.113923,19.574002)"/>
<use data-text="r" xlink:href="#font_1_96" transform="matrix(9.9626,0,0,-9.9626,27.264588,19.574002)"/>
<use data-text="a" xlink:href="#font_1_28" transform="matrix(9.9626,0,0,-9.9626,30.671799,19.574002)"/>
<use data-text="w" xlink:href="#font_1_114" transform="matrix(9.9626,0,0,-9.9626,35.18486,19.574002)"/>
<use data-text="a" xlink:href="#font_1_28" transform="matrix(9.9626,0,0,-9.9626,41.710374,19.574002)"/>
<use data-text="l" xlink:href="#font_1_72" transform="matrix(9.9626,0,0,-9.9626,46.50238,19.574002)"/>
<use data-text="s" xlink:href="#font_1_98" transform="matrix(9.9626,0,0,-9.9626,48.88344,19.574002)"/>
<use data-text="f" xlink:href="#font_1_55" transform="matrix(9.9626,0,0,-9.9626,56.0067,19.574002)"/>
<use data-text="o" xlink:href="#font_1_81" transform="matrix(9.9626,0,0,-9.9626,59.055253,19.574002)"/>
<use data-text="r" xlink:href="#font_1_96" transform="matrix(9.9626,0,0,-9.9626,63.767549,19.574002)"/>
<use data-text="P" xlink:href="#font_1_83" transform="matrix(9.9626,0,0,-9.9626,70.482349,19.574002)"/>
<use data-text="a" xlink:href="#font_1_28" transform="matrix(9.9626,0,0,-9.9626,76.57945,19.574002)"/>
<use data-text="y" xlink:href="#font_1_118" transform="matrix(9.9626,0,0,-9.9626,81.092517,19.574002)"/>
<use data-text="m" xlink:href="#font_1_75" transform="matrix(9.9626,0,0,-9.9626,85.68527,19.574002)"/>
<use data-text="e" xlink:href="#font_1_50" transform="matrix(9.9626,0,0,-9.9626,93.59558,19.574002)"/>
<use data-text="n" xlink:href="#font_1_77" transform="matrix(9.9626,0,0,-9.9626,98.01898,19.574002)"/>
<use data-text="t" xlink:href="#font_1_105" transform="matrix(9.9626,0,0,-9.9626,103.16965,19.574002)"/>
<use data-text="s" xlink:href="#font_1_98" transform="matrix(9.9626,0,0,-9.9626,106.76614,19.574002)"/>
<use data-text=":" xlink:href="#font_1_44" transform="matrix(9.9626,0,0,-9.9626,110.58182,19.574002)"/>
</svg>
