<svg xmlns="http://www.w3.org/2000/svg" xmlns:xlink="http://www.w3.org/1999/xlink" xmlns:inkscape="http://www.inkscape.org/namespaces/inkscape" version="1.1" width="93" height="92" viewBox="0 0 93 92">
<defs>
<path id="font_1_62" d="M.6519928 0V.69433596H.5509949V.39411927H.19799805V.69433596H.09700012V0H.19799805V.328125H.5509949V0H.6519928Z"/>
<path id="font_1_28" d="M.43598939 .00022888184V.28799439C.43598939 .38998414 .35798646 .45898438 .25898744 .45898438 .19599915 .45898438 .147995 .4459839 .09199524 .41596986L.09799194 .34298707C.1309967 .36497499 .17999268 .39497376 .25898744 .39497376 .30299378 .39497376 .34899903 .36198426 .34899903 .2869873V.24699402C.20098877 .24198914 .054992677 .21099854 .054992677 .118118289 .054992677 .06820679 .08898926-.009765625 .1769867-.009765625 .21998596-.009765625 .29899598-.00077819827 .35198976 .038223268V.00022888184H.43598939M.34899903 .14207459C.34899903 .12211609 .34899903 .09616089 .31399537 .07519531 .28199769 .05722046 .24299622 .056228639 .23199463 .056228639 .1769867 .056228639 .1349945 .08117676 .1349945 .11911011 .1349945 .18299866 .3039856 .18899536 .34899903 .19099427V.14207459Z"/>
<path id="font_1_114" d="M.70999148 .44433595H.6319885L.5359955 .14309693C.5279999 .11407471 .5179901 .08206177 .5149994 .059036256H.5139923C.5079956 .10006714 .47299195 .20814514 .47099305 .21514893L.39698792 .44433595H.32099916C.2919922 .3582611 .21699524 .13409424 .20899964 .061035158H.20799256C.19999695 .13209534 .12599182 .35325624 .10998535 .4012909 .101989749 .4253235 .101989749 .4273224 .09700012 .44433595H.01499939L.16099549 0H.24499512L.30799867 .19413758C.32299806 .24317932 .35299684 .33924867 .35798646 .38328553L.35899354 .3842926C.36099244 .363266 .36698915 .34124757 .37399293 .3162384L.394989 .24118042 .47200013 0H.56399539L.70999148 .44433595Z"/>
<path id="font_1_66" d="M.16799927 0V.44433595H.083999637V0H.16799927M.1769867 .5601196V.6611328H.07598877V.5601196H.1769867Z"/>
<path id="font_1_96" d="M.34700013 .38008119V.45410157C.2630005 .45309449 .20199585 .41207887 .1619873 .35906983V.45109559H.084991458V0H.16899109V.21304322C.16899109 .32106019 .25898744 .3790741 .34700013 .38008119Z"/>
<path id="font_1_50" d="M.43998719 .21928406C.43998719 .2652893 .43499757 .33213807 .3959961 .3889923 .3600006 .43997193 .2999878 .45898438 .25099183 .45898438 .1289978 .45898438 .034988405 .35209657 .034988405 .22529602 .034988405 .09724426 .1349945-.009765625 .2669983-.009765625 .32499696-.009765625 .3849945 .007232666 .43598939 .038223268L.42999269 .10925293C.37399293 .069229129 .31098939 .056228639 .2679901 .056228639 .18099976 .056228639 .114990238 .1272583 .11199951 .21928406H.43998719M.3789978 .27929688H.11898804C.14199829 .35906983 .20098877 .39297486 .25099183 .39297486 .29499818 .39297486 .3600006 .3720398 .3789978 .27929688Z"/>
<path id="font_1_98" d="M.3829956 .1301117C.3829956 .14808655 .3809967 .18702698 .33898927 .22496033 .3019867 .25790406 .2659912 .26489259 .21798706 .27388 .15899658 .2848816 .11299133 .29388429 .11299133 .33789063 .11299133 .39497376 .18598938 .39497376 .20098877 .39497376 .2579956 .39497376 .3019867 .38294984 .35198976 .35691834L.36499024 .42797853C.29699708 .4559784 .24699402 .45898438 .21099854 .45898438 .18598938 .45898438 .034988405 .45898438 .034988405 .32588197 .034988405 .2788849 .06098938 .25291444 .07398987 .24093628 .10899353 .20599365 .15098572 .19799805 .20399475 .1880188 .25099183 .17903137 .30499269 .16905213 .30499269 .12112427 .30499269 .05822754 .22200012 .05822754 .20799256 .05822754 .14399719 .05822754 .083999637 .08119202 .04399109 .10914612L.02999878 .034225465C.06399536 .017227173 .125-.009765625 .20799256-.009765625 .25299073-.009765625 .29699708-.0027770997 .33399964 .024230957 .37098695 .052230836 .3829956 .09616089 .3829956 .1301117Z"/>
<path id="font_1_81" d="M.5 .21910095C.5 .35101319 .394989 .45898438 .2649994 .45898438 .1349945 .45898438 .02999878 .3500061 .02999878 .21910095 .02999878 .09220886 .13598633-.009765625 .2649994-.009765625 .394989-.009765625 .5 .09220886 .5 .21910095M.41299439 .23010254C.41299439 .11618042 .34199525 .05921936 .2649994 .05921936 .18598938 .05921936 .116989139 .1171875 .116989139 .23010254 .116989139 .34301759 .19099427 .39297486 .2649994 .39297486 .33999635 .39297486 .41299439 .34101869 .41299439 .23010254Z"/>
<path id="font_1_105" d="M.35398866 .026916504 .33699037 .090927127C.3039856 .06692505 .2689972 .058929445 .24099732 .058929445 .19898987 .058929445 .18798828 .09991455 .18798828 .14595032V.3813324H.33599855V.44433595H.18798828V.57128909H.11099243V.44433595H.019989014V.3813324H.10798645V.12792969C.10798645 .06123352 .125-.009765625 .19699097-.009765625 .2689972-.009765625 .32398988 .01322937 .35398866 .02722168V.026916504Z"/>
<path id="font_1_82" d="M.45399476 0V.06298828H.32099916V.6767578H.29899598C.23399353 .61683657 .1519928 .61283877 .09199524 .61083987V.54785159C.1309967 .5488434 .18099976 .5508423 .23098755 .57084658V.06298828H.09799194V0H.45399476Z"/>
<path id="font_1_107" d="M.47698976 0V.07699585H.2829895C.2709961 .07699585 .25898744 .07598877 .24699402 .07598877H.1329956L.28799439 .21289063C.30599977 .22888184 .35499574 .2658844 .37399293 .2818756 .41799928 .3218689 .47698976 .37384034 .47698976 .46081544 .47698976 .573761 .3929901 .6767578 .25 .6767578 .14399719 .6767578 .07798767 .619751 .04399109 .51779177L.09098816 .45881654C.11399841 .5427704 .14898682 .60775759 .23599243 .60775759 .31999208 .60775759 .38398744 .5487671 .38398744 .45881654 .38398744 .37583924 .33499146 .32885743 .2749939 .2718811 .25498963 .25187684 .20098877 .20689392 .17999268 .1869049 .15098572 .16099549 .08198547 .09399414 .052993776 .068984989V0H.47698976Z"/>
<path id="font_1_54" d="M.5629883 .62109377V.6910858H.09700012V0H.19799805V.31289674H.5179901V.37890626H.19799805V.6220856H.33699037C.34899903 .6220856 .36099244 .62109377 .37298585 .62109377H.5629883Z"/>
<path id="font_1_72" d="M.16799927 0V.69433596H.083999637V0H.16799927Z"/>
<path id="font_1_47" d="M.46299745 .00022888184V.69433596H.3789978V.40109254C.31498719 .4480896 .25 .45410157 .22099304 .45410157 .115997318 .45410157 .035995485 .34910584 .035995485 .22216797 .035995485 .095214847 .114990238-.009765625 .21798706-.009765625 .27999879-.009765625 .33799745 .018234253 .37599183 .052230836V.00022888184H.46299745M.37599183 .12420654C.35099793 .083221439 .31298829 .056228639 .2649994 .056228639 .19499207 .056228639 .12298584 .10520935 .12298584 .22116089 .12298584 .3461151 .20799256 .38809205 .27598573 .38809205 .31599427 .38809205 .34999085 .37109376 .37599183 .33711244V.12420654Z"/>
<path id="font_1_106" d="M.48599244 .1816101C.48599244 .26367188 .41999818 .3297119 .34098817 .3527069 .4169922 .39170838 .45599366 .45872499 .45599366 .5237274 .45599366 .6087494 .36898805 .6767578 .2619934 .6767578 .17399597 .6767578 .100997928 .63075259 .05899048 .57073977L.099990848 .51272585C.14099121 .5927429 .21299744 .6147461 .26098634 .6147461 .31999208 .6147461 .3639984 .5807495 .3639984 .5237274 .3639984 .47071839 .32798768 .40571595 .2519989 .39271546 .24699402 .39170838 .24299622 .39170838 .1769867 .38671876V.32070924H.25498963C.34999085 .32070924 .3849945 .24565125 .3849945 .18260193 .3849945 .10455322 .33699037 .044509889 .25898744 .044509889 .18798828 .044509889 .10699463 .07853699 .056991579 .14257813L.04399109 .07752991C.101989749 .012512207 .18299866-.021484375 .26098634-.021484375 .3919983-.021484375 .48599244 .076538089 .48599244 .1816101Z"/>
<path id="font_1_27" d="M.6769867 0 .4019928 .69433596H.30499269L.02999878 0H.11199951L.18998719 .19824219H.49398805L.57199099 0H.6769867M.46899415 .25723268H.21499634L.34298707 .61831668 .46899415 .25723268Z"/>
<path id="font_1_70" d="M.5 0 .29899598 .27212525 .47698976 .4441986H.37998963L.1659851 .23710633V.69433596H.08799744V0H.1619873V.14006043L.24699402 .22209168 .4119873 0H.5Z"/>
</defs>
<use data-text="H" xlink:href="#font_1_62" transform="matrix(4.9813997,0,0,-4.9813,30.450074,15.277)"/>
<use data-text="a" xlink:href="#font_1_28" transform="matrix(4.9813997,0,0,-4.9813,34.186124,15.277)"/>
<use data-text="w" xlink:href="#font_1_114" transform="matrix(4.9813997,0,0,-4.9813,36.582178,15.277)"/>
<use data-text="a" xlink:href="#font_1_28" transform="matrix(4.9813997,0,0,-4.9813,40.049234,15.277)"/>
<use data-text="i" xlink:href="#font_1_66" transform="matrix(4.9813997,0,0,-4.9813,42.589746,15.277)"/>
<use data-text="i" xlink:href="#font_1_66" transform="matrix(4.9813997,0,0,-4.9813,43.850046,15.277)"/>
<use data-text="r" xlink:href="#font_1_96" transform="matrix(4.9813997,0,0,-4.9813,75.21797,4.292)"/>
<use data-text="e" xlink:href="#font_1_50" transform="matrix(4.9813997,0,0,-4.9813,77.026218,4.292)"/>
<use data-text="s" xlink:href="#font_1_98" transform="matrix(4.9813997,0,0,-4.9813,79.37744,4.292)"/>
<use data-text="o" xlink:href="#font_1_81" transform="matrix(4.9813997,0,0,-4.9813,81.40487,4.292)"/>
<use data-text="r" xlink:href="#font_1_96" transform="matrix(4.9813997,0,0,-4.9813,83.90553,4.292)"/>
<use data-text="t" xlink:href="#font_1_105" transform="matrix(4.9813997,0,0,-4.9813,85.713779,4.292)"/>
<use data-text="1" xlink:href="#font_1_82" transform="matrix(4.9813997,0,0,-4.9813,89.38507,4.292)"/>
<use data-text="r" xlink:href="#font_1_96" transform="matrix(4.9813997,0,0,-4.9813,75.21797,24.133999)"/>
<use data-text="e" xlink:href="#font_1_50" transform="matrix(4.9813997,0,0,-4.9813,77.026218,24.133999)"/>
<use data-text="s" xlink:href="#font_1_98" transform="matrix(4.9813997,0,0,-4.9813,79.37744,24.133999)"/>
<use data-text="o" xlink:href="#font_1_81" transform="matrix(4.9813997,0,0,-4.9813,81.40487,24.133999)"/>
<use data-text="r" xlink:href="#font_1_96" transform="matrix(4.9813997,0,0,-4.9813,83.90553,24.133999)"/>
<use data-text="t" xlink:href="#font_1_105" transform="matrix(4.9813997,0,0,-4.9813,85.713779,24.133999)"/>
<use data-text="2" xlink:href="#font_1_107" transform="matrix(4.9813997,0,0,-4.9813,89.38507,24.133999)"/>
<use data-text="F" xlink:href="#font_1_54" transform="matrix(4.9813997,0,0,-4.9813,30.450074,52.524003)"/>
<use data-text="l" xlink:href="#font_1_72" transform="matrix(4.9813997,0,0,-4.9813,33.478765,52.524003)"/>
<use data-text="o" xlink:href="#font_1_81" transform="matrix(4.9813997,0,0,-4.9813,34.73906,52.524003)"/>
<use data-text="r" xlink:href="#font_1_96" transform="matrix(4.9813997,0,0,-4.9813,37.239725,52.524003)"/>
<use data-text="i" xlink:href="#font_1_66" transform="matrix(4.9813997,0,0,-4.9813,39.047975,52.524003)"/>
<use data-text="d" xlink:href="#font_1_47" transform="matrix(4.9813997,0,0,-4.9813,40.308267,52.524003)"/>
<use data-text="a" xlink:href="#font_1_28" transform="matrix(4.9813997,0,0,-4.9813,43.043054,52.524003)"/>
<use data-text="r" xlink:href="#font_1_96" transform="matrix(4.9813997,0,0,-4.9813,75.21797,41.142999)"/>
<use data-text="e" xlink:href="#font_1_50" transform="matrix(4.9813997,0,0,-4.9813,77.026218,41.142999)"/>
<use data-text="s" xlink:href="#font_1_98" transform="matrix(4.9813997,0,0,-4.9813,79.37744,41.142999)"/>
<use data-text="o" xlink:href="#font_1_81" transform="matrix(4.9813997,0,0,-4.9813,81.40487,41.142999)"/>
<use data-text="r" xlink:href="#font_1_96" transform="matrix(4.9813997,0,0,-4.9813,83.90553,41.142999)"/>
<use data-text="t" xlink:href="#font_1_105" transform="matrix(4.9813997,0,0,-4.9813,85.713779,41.142999)"/>
<use data-text="1" xlink:href="#font_1_82" transform="matrix(4.9813997,0,0,-4.9813,89.38507,41.142999)"/>
<use data-text="r" xlink:href="#font_1_96" transform="matrix(4.9813997,0,0,-4.9813,75.21797,52.481)"/>
<use data-text="e" xlink:href="#font_1_50" transform="matrix(4.9813997,0,0,-4.9813,77.026218,52.481)"/>
<use data-text="s" xlink:href="#font_1_98" transform="matrix(4.9813997,0,0,-4.9813,79.37744,52.481)"/>
<use data-text="o" xlink:href="#font_1_81" transform="matrix(4.9813997,0,0,-4.9813,81.40487,52.481)"/>
<use data-text="r" xlink:href="#font_1_96" transform="matrix(4.9813997,0,0,-4.9813,83.90553,52.481)"/>
<use data-text="t" xlink:href="#font_1_105" transform="matrix(4.9813997,0,0,-4.9813,85.713779,52.481)"/>
<use data-text="2" xlink:href="#font_1_107" transform="matrix(4.9813997,0,0,-4.9813,89.38507,52.481)"/>
<use data-text="r" xlink:href="#font_1_96" transform="matrix(4.9813997,0,0,-4.9813,75.21797,63.792)"/>
<use data-text="e" xlink:href="#font_1_50" transform="matrix(4.9813997,0,0,-4.9813,77.026218,63.792)"/>
<use data-text="s" xlink:href="#font_1_98" transform="matrix(4.9813997,0,0,-4.9813,79.37744,63.792)"/>
<use data-text="o" xlink:href="#font_1_81" transform="matrix(4.9813997,0,0,-4.9813,81.40487,63.792)"/>
<use data-text="r" xlink:href="#font_1_96" transform="matrix(4.9813997,0,0,-4.9813,83.90553,63.792)"/>
<use data-text="t" xlink:href="#font_1_105" transform="matrix(4.9813997,0,0,-4.9813,85.713779,63.792)"/>
<use data-text="3" xlink:href="#font_1_106" transform="matrix(4.9813997,0,0,-4.9813,89.38507,63.792)"/>
<use data-text="A" xlink:href="#font_1_27" transform="matrix(4.9813997,0,0,-4.9813,30.450074,89.770999)"/>
<use data-text="l" xlink:href="#font_1_72" transform="matrix(4.9813997,0,0,-4.9813,33.976907,89.770999)"/>
<use data-text="a" xlink:href="#font_1_28" transform="matrix(4.9813997,0,0,-4.9813,35.237199,89.770999)"/>
<use data-text="s" xlink:href="#font_1_98" transform="matrix(4.9813997,0,0,-4.9813,37.77771,89.770999)"/>
<use data-text="k" xlink:href="#font_1_70" transform="matrix(4.9813997,0,0,-4.9813,39.80514,89.770999)"/>
<use data-text="a" xlink:href="#font_1_28" transform="matrix(4.9813997,0,0,-4.9813,42.390489,89.770999)"/>
<use data-text="r" xlink:href="#font_1_96" transform="matrix(4.9813997,0,0,-4.9813,75.21797,89.332)"/>
<use data-text="e" xlink:href="#font_1_50" transform="matrix(4.9813997,0,0,-4.9813,77.026218,89.332)"/>
<use data-text="s" xlink:href="#font_1_98" transform="matrix(4.9813997,0,0,-4.9813,79.37744,89.332)"/>
<use data-text="o" xlink:href="#font_1_81" transform="matrix(4.9813997,0,0,-4.9813,81.40487,89.332)"/>
<use data-text="r" xlink:href="#font_1_96" transform="matrix(4.9813997,0,0,-4.9813,83.90553,89.332)"/>
<use data-text="t" xlink:href="#font_1_105" transform="matrix(4.9813997,0,0,-4.9813,85.713779,89.332)"/>
<use data-text="1" xlink:href="#font_1_82" transform="matrix(4.9813997,0,0,-4.9813,89.38507,89.332)"/>
<path transform="matrix(1.00002,0,0,-1,-1.4175663,50.82)" stroke-width=".42517" stroke-linecap="butt" stroke-miterlimit="10" stroke-linejoin="miter" fill="none" stroke="#000000" d="M3.5198 0 28.3468 37.24693M50.04167 39.83481 73.11452 45.34338M50.04167 35.14204 73.11452 30.6617M3.5198 0H28.3468M50.51491 2.75528 73.11452 8.3749M50.51491 0H73.11452M50.51491-2.75528 73.11452-8.3749M3.5198 0 28.3468-37.24693M49.86732-37.15417 73.11452-36.95355"/>
</svg>
