<svg xmlns="http://www.w3.org/2000/svg" xmlns:xlink="http://www.w3.org/1999/xlink" xmlns:inkscape="http://www.inkscape.org/namespaces/inkscape" version="1.1" width="146" height="147" viewBox="0 0 146 147">
<defs>
<clipPath id="clip_1">
<path transform="matrix(1.00008,0,0,-1.00005,1.4614773,144.95545)" d="M82.20558 88.69543C82.20558 107.48224 66.97629 122.71153 48.18948 122.71153 29.40268 122.71153 14.17339 107.48224 14.17339 88.69543 14.17339 69.90863 29.40268 54.67934 48.18948 54.67934 66.97629 54.67934 82.20558 69.90863 82.20558 88.69543ZM48.18948 88.69543"/>
</clipPath>
<clipPath id="clip_2">
<path transform="matrix(1.00008,0,0,-1.00005,1.4614773,144.95545)" d="M128.97768 88.69543C128.97768 107.48224 113.74838 122.71153 94.96158 122.71153 76.17477 122.71153 60.94548 107.48224 60.94548 88.69543 60.94548 69.90863 76.17477 54.67934 94.96158 54.67934 113.74838 54.67934 128.97768 69.90863 128.97768 88.69543ZM94.96158 88.69543"/>
</clipPath>
<clipPath id="clip_3">
<path transform="matrix(1.00008,0,0,-1.00005,1.4614773,144.95545)" d="M82.20558 88.69543C82.20558 107.48224 66.97629 122.71153 48.18948 122.71153 29.40268 122.71153 14.17339 107.48224 14.17339 88.69543 14.17339 69.90863 29.40268 54.67934 48.18948 54.67934 66.97629 54.67934 82.20558 69.90863 82.20558 88.69543ZM48.18948 88.69543"/>
</clipPath>
<clipPath id="clip_4">
<path transform="matrix(1.00008,0,0,-1.00005,1.4614773,144.95545)" d="M105.59164 48.18948C105.59164 66.97629 90.36235 82.20558 71.57555 82.20558 52.78874 82.20558 37.55945 66.97629 37.55945 48.18948 37.55945 29.40268 52.78874 14.17339 71.57555 14.17339 90.36235 14.17339 105.59164 29.40268 105.59164 48.18948ZM71.57555 48.18948"/>
</clipPath>
<clipPath id="clip_5">
<path transform="matrix(1.00008,0,0,-1.00005,1.4614773,144.95545)" d="M128.97768 88.69543C128.97768 107.48224 113.74838 122.71153 94.96158 122.71153 76.17477 122.71153 60.94548 107.48224 60.94548 88.69543 60.94548 69.90863 76.17477 54.67934 94.96158 54.67934 113.74838 54.67934 128.97768 69.90863 128.97768 88.69543ZM94.96158 88.69543"/>
</clipPath>
<clipPath id="clip_6">
<path transform="matrix(1.00008,0,0,-1.00005,1.4614773,144.95545)" d="M105.59164 48.18948C105.59164 66.97629 90.36235 82.20558 71.57555 82.20558 52.78874 82.20558 37.55945 66.97629 37.55945 48.18948 37.55945 29.40268 52.78874 14.17339 71.57555 14.17339 90.36235 14.17339 105.59164 29.40268 105.59164 48.18948ZM71.57555 48.18948"/>
</clipPath>
<clipPath id="clip_7">
<path transform="matrix(1.00008,0,0,-1.00005,1.4614773,144.95545)" d="M82.20558 88.69543C82.20558 107.48224 66.97629 122.71153 48.18948 122.71153 29.40268 122.71153 14.17339 107.48224 14.17339 88.69543 14.17339 69.90863 29.40268 54.67934 48.18948 54.67934 66.97629 54.67934 82.20558 69.90863 82.20558 88.69543ZM48.18948 88.69543"/>
</clipPath>
<clipPath id="clip_8">
<path transform="matrix(1.00008,0,0,-1.00005,1.4614773,144.95545)" d="M105.59164 48.18948C105.59164 66.97629 90.36235 82.20558 71.57555 82.20558 52.78874 82.20558 37.55945 66.97629 37.55945 48.18948 37.55945 29.40268 52.78874 14.17339 71.57555 14.17339 90.36235 14.17339 105.59164 29.40268 105.59164 48.18948ZM71.57555 48.18948"/>
</clipPath>
<path id="font_9_3" d="M.644989 .69506838C.644989 .69807437 .6429901 .7050781 .6339874 .7050781 .6289978 .7050781 .6279907 .70407107 .6159973 .6900635L.56799319 .6330414C.5419922 .68006899 .48999024 .7050781 .4249878 .7050781 .2979889 .7050781 .17799378 .58999636 .17799378 .4689026 .17799378 .38783265 .23098755 .34179688 .28199769 .32678224L.3889923 .2987671C.42599488 .2897644 .48098756 .27474977 .48098756 .19267273 .48098756 .1026001 .39898683 .008529663 .30099488 .008529663 .23699951 .008529663 .12599182 .030548096 .12599182 .15464783 .12599182 .17866516 .1309967 .2026825 .13198853 .20869446 .1329956 .21269226 .13398743 .21369934 .13398743 .21569824 .13398743 .22570801 .1269989 .22669983 .12199402 .22669983 .116989139 .22669983 .114990238 .22570801 .11199951 .22270203 .10798645 .21870423 .051986696-.009475708 .051986696-.012466431 .051986696-.018463135 .056991579-.022460938 .06298828-.022460938 .067993167-.022460938 .068984989-.021469117 .08099365-.007461548L.12998963 .049560548C.17298889-.008468628 .24099732-.022460938 .29899598-.022460938 .43499757-.022460938 .5529938 .11061096 .5529938 .2347107 .5529938 .30377198 .5189972 .33779908 .5039978 .35180665 .48098756 .37483216 .46598817 .37882997 .3769989 .40185548 .35499574 .40785218 .31900025 .41786195 .30999757 .41986085 .2829895 .42886354 .24899292 .457901 .24899292 .51094058 .24899292 .59199526 .32899476 .677063 .42399598 .677063 .5069885 .677063 .56799319 .6340332 .56799319 .52194216 .56799319 .48991395 .56399539 .47190858 .56399539 .4658966 .56399539 .4649048 .56399539 .45588685 .57598879 .45588685 .58599856 .45588685 .58699038 .45889283 .59098818 .47590638L.644989 .69506838Z"/>
<path id="font_9_1" d="M.7630005 .60565188C.7719879 .6416168 .7739868 .6516113 .8470001 .6516113 .8730011 .6516113 .8809967 .6516113 .8809967 .6716156 .8809967 .6826172 .8699951 .6826172 .86698916 .6826172 .83898928 .6826172 .7669983 .6796112 .7389984 .6796112 .70999148 .6796112 .6389923 .6826172 .6100006 .6826172 .60198977 .6826172 .59098818 .6826172 .59098818 .6626129 .59098818 .6516113 .59999087 .6516113 .61898806 .6516113 .62098696 .6516113 .6399994 .6516113 .6569977 .6496124 .6749878 .6476135 .6839905 .6466217 .6839905 .6336212 .6839905 .6296234 .68299868 .6276245 .6799927 .6146393L.6199951 .37083436H.31498719L.37399293 .60565188C.3829956 .6416168 .38598634 .6516113 .45799256 .6516113 .48399354 .6516113 .49198915 .6516113 .49198915 .6716156 .49198915 .6826172 .48098756 .6826172 .47799684 .6826172 .44999696 .6826172 .37799073 .6796112 .34999085 .6796112 .32099916 .6796112 .25 .6826172 .22099304 .6826172 .21299744 .6826172 .20199585 .6826172 .20199585 .6626129 .20199585 .6516113 .21099854 .6516113 .22999573 .6516113 .23199463 .6516113 .25099183 .6516113 .2679901 .6496124 .28599549 .6476135 .29499818 .6466217 .29499818 .6336212 .29499818 .6296234 .2939911 .6266327 .29100038 .6146393L.15699768 .07797241C.14698792 .038986207 .14498902 .0309906 .06599426 .0309906 .04798889 .0309906 .038986207 .0309906 .038986207 .010986328 .038986207 0 .050994874 0 .052993776 0 .08099365 0 .1519928 .0029907227 .17999268 .0029907227 .20098877 .0029907227 .22299195 .0019989014 .24398804 .0019989014 .2659912 .0019989014 .28799439 0 .30899049 0 .31698609 0 .32899476 0 .32899476 .019989014 .32899476 .0309906 .31999208 .0309906 .30099488 .0309906 .2639923 .0309906 .23599243 .0309906 .23599243 .048980714 .23599243 .054977418 .23799134 .0599823 .23899842 .065979007L.30699159 .33984376H.6119995C.56999209 .17391968 .5469971 .07896423 .54299929 .0639801 .5329895 .03199768 .5139923 .0309906 .45199586 .0309906 .43699647 .0309906 .42799378 .0309906 .42799378 .010986328 .42799378 0 .43998719 0 .44198609 0 .46998597 0 .54100039 .0029907227 .56900027 .0029907227 .58999636 .0029907227 .6119995 .0019989014 .6329956 .0019989014 .6549988 .0019989014 .6769867 0 .69799807 0 .70599368 0 .71798709 0 .71798709 .019989014 .71798709 .0309906 .70899966 .0309906 .6899872 .0309906 .6529999 .0309906 .625 .0309906 .625 .048980714 .625 .054977418 .6269989 .0599823 .6279907 .065979007L.7630005 .60565188Z"/>
<path id="font_9_2" d="M.375 .6136017C.3809967 .63760378 .38398744 .6476135 .40299989 .65060427 .4119873 .6516113 .44400025 .6516113 .46398927 .6516113 .5349884 .6516113 .6459961 .6516113 .6459961 .5525818 .6459961 .51856997 .6299896 .44955445 .59098818 .41055299 .5649872 .38453675 .5119934 .35253907 .42199708 .35253907H.30999757L.375 .6136017M.5189972 .33953858C.6199951 .3615265 .7389984 .43154908 .7389984 .5325775 .7389984 .61860659 .6489868 .6826172 .5179901 .6826172H.23298645C.21299744 .6826172 .20399475 .6826172 .20399475 .6626129 .20399475 .6516113 .21299744 .6516113 .23199463 .6516113 .23399353 .6516113 .25299073 .6516113 .269989 .6496124 .28799439 .6476135 .29699708 .64660647 .29699708 .63360598 .29699708 .62960818 .29599 .6266022 .29299928 .6145935L.15899658 .07752991C.14898682 .038528444 .14698792 .030532837 .067993167 .030532837 .049987794 .030532837 .040985109 .030532837 .040985109 .010528564 .040985109-.00047302247 .052993776-.00047302247 .054992677-.00047302247 .08299255-.00047302247 .15299988 .002532959 .18099976 .002532959 .20899964 .002532959 .27999879-.00047302247 .30799867-.00047302247 .31599427-.00047302247 .32798768-.00047302247 .32798768 .01953125 .32798768 .030532837 .31900025 .030532837 .2999878 .030532837 .2630005 .030532837 .23498535 .030532837 .23498535 .048538209 .23498535 .054534913 .23699951 .059524537 .23799134 .0655365L.3039856 .3305359H.4229889C.5139923 .3305359 .5319977 .27453614 .5319977 .23953247 .5319977 .22453308 .5239868 .19352722 .5179901 .17053223 .5109863 .14253235 .5019989 .105529788 .5019989 .08552551 .5019989-.022460938 .621994-.022460938 .6349945-.022460938 .7200012-.022460938 .7549896 .07853699 .7549896 .0925293 .7549896 .104537967 .74398806 .104537967 .7429962 .104537967 .73399356 .104537967 .7319946 .09753418 .7299957 .090530399 .7049866 .016525269 .6619873-.00047302247 .6389923-.00047302247 .60598757-.00047302247 .598999 .021530152 .598999 .060531618 .598999 .091537479 .6049957 .14253235 .60899356 .17453003 .61099246 .1885376 .61299136 .20753479 .61299136 .2215271 .61299136 .2985382 .54599 .3295288 .5189972 .33953858Z"/>
<path id="font_10_51" d="M.45700074 .16764832C.45700074 .20367432 .44599916 .24871826 .4079895 .29074098 .3889923 .31176759 .37298585 .32176209 .30899049 .36180116 .3809967 .39881898 .42999269 .4508667 .42999269 .51690676 .42999269 .6089783 .34098817 .6660156 .25 .6660156 .1499939 .6660156 .068984989 .5919647 .068984989 .49890138 .068984989 .48088075 .070999149 .43585206 .11299133 .38882447 .12399292 .3768158 .16099549 .35179139 .18598938 .33477784 .12799073 .30575563 .041992189 .24971009 .041992189 .15063477 .041992189 .044555665 .14399719-.022460938 .24899292-.022460938 .3619995-.022460938 .45700074 .060577394 .45700074 .16764832M.38598634 .51690676C.38598634 .45986939 .34700013 .41183473 .2869873 .3768158L.16299439 .4568634C.116989139 .4868927 .11299133 .5209198 .11299133 .53793337 .11299133 .5989685 .17799378 .64100649 .24899292 .64100649 .32199098 .64100649 .38598634 .588974 .38598634 .51690676M.40699769 .13162232C.40699769 .05757141 .33198548 .0055389406 .25 .0055389406 .1639862 .0055389406 .09199524 .06758118 .09199524 .15063477 .09199524 .2086792 .12399292 .2727356 .20899964 .31976319L.33198548 .24171448C.3600006 .22268677 .40699769 .19267273 .40699769 .13162232Z"/>
<path id="font_10_82" d="M.4189911 0V.0309906H.3869934C.29699708 .0309906 .2939911 .041992189 .2939911 .07902527V.64012148C.2939911 .6640167 .2939911 .6660156 .2709961 .6660156 .20899964 .60227969 .12098694 .60227969 .08898926 .60227969V.57128909C.10899353 .57128909 .16799927 .57128909 .21998596 .5972748V.07902527C.21998596 .042999269 .21699524 .0309906 .1269989 .0309906H.09498596V0C.12998963 .0029907227 .21699524 .0029907227 .25698854 .0029907227 .29699708 .0029907227 .38398744 .0029907227 .4189911 0Z"/>
<path id="font_10_121" d="M.45999146 .31976319C.45999146 .39982606 .45498658 .47988893 .41999818 .5539398 .37399293 .65000918 .2919922 .6660156 .25 .6660156 .18998719 .6660156 .116989139 .64001467 .07598877 .54693606 .04399109 .47789 .038986207 .39982606 .038986207 .31976319 .038986207 .24472046 .042999269 .15464783 .083999637 .07859802 .1269989-.0024719239 .19999695-.022460938 .24899292-.022460938 .30299378-.022460938 .3789978-.0014648438 .4229889 .09359741 .45498658 .16265869 .45999146 .2407074 .45999146 .31976319M.3769989 .3317871C.3769989 .25672914 .3769989 .18867493 .3659973 .12461853 .35099793 .029556275 .2939911-.00047302247 .24899292-.00047302247 .20999146-.00047302247 .15098572 .024551392 .1329956 .12062073 .12199402 .18066406 .12199402 .2727356 .12199402 .3317871 .12199402 .39582826 .12199402 .46188355 .12998963 .5159149 .14898682 .63500979 .22399903 .64401248 .24899292 .64401248 .28199769 .64401248 .34799195 .6259918 .36698915 .52693179 .3769989 .47088624 .3769989 .39482118 .3769989 .3317871Z"/>
<path id="font_10_56" d="M.44898988 .20091248C.44898988 .31991578 .36698915 .41992188 .25898744 .41992188 .21099854 .41992188 .16799927 .4039154 .13198853 .36891175V.5641022C.1519928 .55778506 .18499756 .55078127 .21699524 .55078127 .33999635 .55078127 .4099884 .6418457 .4099884 .65493777 .4099884 .6609802 .40699769 .6660156 .3999939 .6660156 .3999939 .66607668 .39698792 .66607668 .3919983 .66308596 .37199403 .65408328 .32299806 .63378909 .2559967 .63378909 .21598816 .63409426 .16999817 .641098 .12298584 .6621094 .114990238 .6651001 .11099243 .6651001 .11099243 .6651001 .100997928 .66508486 .100997928 .657074 .100997928 .64108279V.3447113C.100997928 .3266449 .100997928 .31861878 .114990238 .31861878 .12199402 .31861878 .12399292 .32164 .12799073 .32765199 .13899231 .34371949 .17599488 .3979187 .25698854 .3979187 .30899049 .3979187 .33399964 .3517456 .34199525 .3336792 .35798646 .2965393 .3600006 .2574005 .3600006 .20721436 .3600006 .17218018 .3600006 .112197879 .33599855 .07032776 .31199647 .031448366 .2749939 .0055389406 .22898865 .0055389406 .1559906 .0055389406 .09899902 .05836487 .08198547 .1171875 .084991458 .11685181 .08799744 .115859989 .09899902 .115859989 .13198853 .115859989 .14898682 .14085388 .14898682 .16485596 .14898682 .18885803 .13198853 .21386719 .09899902 .21386719 .084991458 .21386719 .049987794 .2068634 .049987794 .16085816 .049987794 .07432556 .11898804-.022460938 .23098755-.022460938 .34700013-.022460938 .44898988 .07331848 .44898988 .20019531V.20091248Z"/>
<path id="font_10_100" d="M.4850006 .6435547H.24198914C.11999512 .6435547 .117996219 .6566467 .11399841 .67578127H.08898926L.055999757 .46954347H.08099365C.083999637 .48554994 .09298706 .54855349 .10598755 .5605469 .11299133 .5665436 .19099427 .5665436 .20399475 .5665436H.41099549L.29899598 .40853883C.20899964 .2735443 .17599488 .13453675 .17599488 .03253174 .17599488 .022537232 .17599488-.022460938 .22200012-.022460938 .2679901-.022460938 .2679901 .022537232 .2679901 .03253174V.08354187C.2679901 .13853455 .2709961 .19354248 .2789917 .24754334 .2829895 .27053834 .29699708 .35653688 .34098817 .41854859L.47599793 .608551C.4850006 .62054446 .4850006 .62254336 .4850006 .6435547Z"/>
<path id="font_10_106" d="M.45700074 .17037964C.45700074 .252594 .3939972 .33088685 .2899933 .35191346 .37199403 .37893678 .42999269 .4490509 .42999269 .52809146 .42999269 .6100464 .34199525 .6660156 .24598694 .6660156 .14498902 .6660156 .068984989 .60606387 .068984989 .53009036 .068984989 .49710084 .09098816 .47808839 .11999512 .47808839 .15098572 .47808839 .17098999 .50009158 .17098999 .5290985 .17098999 .57910159 .12399292 .57910159 .10899353 .57910159 .13999939 .62802127 .20599365 .64100649 .24198914 .64100649 .2829895 .64100649 .33799745 .6190338 .33799745 .5290985 .33799745 .51708987 .33599855 .45906068 .30999757 .4149933 .27999879 .36691285 .24598694 .36390687 .22099304 .36291505 .21299744 .36190797 .18899536 .35990907 .18199158 .35990907 .17399597 .35890199 .16699219 .35791017 .16699219 .3479004 .16699219 .33691407 .17399597 .33691407 .19099427 .33691407H.23498535C.31698609 .33691407 .35398866 .2686615 .35398866 .17037964 .35398866 .034469606 .2849884 .0055389406 .24099732 .0055389406 .19799805 .0055389406 .12298584 .022491456 .08799744 .08137512 .12298584 .07637024 .1539917 .09837341 .1539917 .1363678 .1539917 .17237854 .1269989 .19238281 .09799194 .19238281 .07398987 .19238281 .041992189 .17837525 .041992189 .1343689 .041992189 .043441774 .1349945-.022460938 .24398804-.022460938 .3659973-.022460938 .45700074 .06838989 .45700074 .17037964Z"/>
<path id="font_10_101" d="M.45700074 .2036438C.45700074 .33070375 .36799623 .4267578 .25698854 .4267578 .18899536 .4267578 .1519928 .37573243 .13198853 .327713V.35173036C.13198853 .6047821 .2559967 .64100649 .30699159 .64100649 .33099366 .64100649 .37298585 .634964 .394989 .6007538 .37998963 .6007538 .33999635 .6007538 .33999635 .5557556 .33999635 .524765 .3639984 .5097656 .38598634 .5097656 .4019928 .5097656 .43199159 .51875308 .43199159 .5577545 .43199159 .6178589 .3880005 .6660156 .30499269 .6660156 .1769867 .6660156 .041992189 .5367584 .041992189 .31570436 .041992189 .048553468 .1579895-.022460938 .25099183-.022460938 .3619995-.022460938 .45700074 .07156372 .45700074 .2036438M.36698915 .20463562C.36698915 .15661621 .36698915 .10658264 .34999085 .0705719 .31999208 .010528564 .27398683 .0055389406 .25099183 .0055389406 .18798828 .0055389406 .1579895 .06556702 .1519928 .080566409 .13398743 .127594 .13398743 .2076416 .13398743 .22564698 .13398743 .30369569 .1659851 .40374757 .2559967 .40374757 .27198792 .40374757 .31799317 .40374757 .34899903 .34172059 .36698915 .30470277 .36698915 .2536621 .36698915 .20463562Z"/>
<path id="font_10_57" d="M.47099305 .16503906V.19602967H.37098695V.6507721C.37098695 .6707611 .37098695 .6767578 .35499574 .6767578 .34599305 .6767578 .34298707 .6767578 .33499146 .6647644L.027999878 .19602967V.16503906H.2939911V.07800293C.2939911 .041992189 .2919922 .0309906 .21798706 .0309906H.19699097V0C.23799134 .0029907227 .2899933 .0029907227 .33198548 .0029907227 .37399293 .0029907227 .4269867 .0029907227 .46798707 0V.0309906H.44699098C.37298585 .0309906 .37098695 .041992189 .37098695 .07800293V.16503906H.47099305M.2999878 .19602967H.055999757L.2999878 .56881716V.19602967Z"/>
</defs>
<path transform="matrix(1.00008,0,0,-1.00005,1.4614773,144.95545)" d="M71.57553 113.39742C57.93349 126.31276 36.40504 125.72368 23.48972 112.08163 10.57437 98.43959 11.16344 76.91116 24.80548 63.99582 28.68118 60.32658 33.37227 57.61841 38.48749 56.09596 41.30887 67.91669 50.22824 77.33784 61.87668 80.80197 59.05547 92.61966 62.75365 105.04811 71.5766 113.40106Z" fill="#fffbcc"/>
<path transform="matrix(1.00008,0,0,-1.00005,1.4614773,144.95545)" d="M71.57553 113.39742C85.21758 126.31276 106.746 125.72368 119.66135 112.08163 132.57669 98.43959 131.98761 76.91116 118.34557 63.99582 114.46875 60.3255 109.77682 57.61725 104.65993 56.09492 101.83632 67.91188 92.92015 77.32811 81.27489 80.7921 84.09665 92.6094 80.39897 105.03978 71.57603 113.39273Z" fill="#b9e5fa"/>
<path transform="matrix(1.00008,0,0,-1.00005,1.4614773,144.95545)" d="M104.65381 56.09909C109.02226 37.8283 97.7525 19.47603 79.48169 15.10756 61.21089 10.7391 42.85863 22.00887 38.49017 40.27968 37.24825 45.47392 37.24718 50.89137 38.48706 56.0861 50.13376 52.61967 62.75063 55.63159 71.57509 63.98598 80.3969 55.63408 93.01013 52.62126 104.65428 56.08351Z" fill="#f9cbdf"/>
<g clip-path="url(#clip_1)">
<g clip-path="url(#clip_2)">
<path transform="matrix(1.00008,0,0,-1.00005,1.4614773,144.95545)" d="M128.97768 88.69543C128.97768 107.48224 113.74838 122.71153 94.96158 122.71153 76.17477 122.71153 60.94548 107.48224 60.94548 88.69543 60.94548 69.90863 76.17477 54.67934 94.96158 54.67934 113.74838 54.67934 128.97768 69.90863 128.97768 88.69543ZM105.59164 48.18948C105.59164 66.97629 90.36235 82.20558 71.57555 82.20558 52.78874 82.20558 37.55945 66.97629 37.55945 48.18948 37.55945 29.40268 52.78874 14.17339 71.57555 14.17339 90.36235 14.17339 105.59164 29.40268 105.59164 48.18948ZM71.57555 48.18948" fill="#d9ffd9" fill-rule="evenodd"/>
</g>
</g>
<g clip-path="url(#clip_3)">
<g clip-path="url(#clip_4)">
<path transform="matrix(1.00008,0,0,-1.00005,1.4614773,144.95545)" d="M105.59164 48.18948C105.59164 66.97629 90.36235 82.20558 71.57555 82.20558 52.78874 82.20558 37.55945 66.97629 37.55945 48.18948 37.55945 29.40268 52.78874 14.17339 71.57555 14.17339 90.36235 14.17339 105.59164 29.40268 105.59164 48.18948ZM128.97768 88.69543C128.97768 107.48224 113.74838 122.71153 94.96158 122.71153 76.17477 122.71153 60.94548 107.48224 60.94548 88.69543 60.94548 69.90863 76.17477 54.67934 94.96158 54.67934 113.74838 54.67934 128.97768 69.90863 128.97768 88.69543ZM94.96158 88.69543" fill="#ffecd9" fill-rule="evenodd"/>
</g>
</g>
<g clip-path="url(#clip_5)">
<g clip-path="url(#clip_6)">
<path transform="matrix(1.00008,0,0,-1.00005,1.4614773,144.95545)" d="M105.59164 48.18948C105.59164 66.97629 90.36235 82.20558 71.57555 82.20558 52.78874 82.20558 37.55945 66.97629 37.55945 48.18948 37.55945 29.40268 52.78874 14.17339 71.57555 14.17339 90.36235 14.17339 105.59164 29.40268 105.59164 48.18948ZM82.20558 88.69543C82.20558 107.48224 66.97629 122.71153 48.18948 122.71153 29.40268 122.71153 14.17339 107.48224 14.17339 88.69543 14.17339 69.90863 29.40268 54.67934 48.18948 54.67934 66.97629 54.67934 82.20558 69.90863 82.20558 88.69543ZM48.18948 88.69543" fill="#dfbfdf" fill-rule="evenodd"/>
</g>
</g>
<g clip-path="url(#clip_7)">
<g clip-path="url(#clip_8)">
<path transform="matrix(1.00008,0,0,-1.00005,1.4614773,144.95545)" d="M128.97768 88.69543C128.97768 107.48224 113.74838 122.71153 94.96158 122.71153 76.17477 122.71153 60.94548 107.48224 60.94548 88.69543 60.94548 69.90863 76.17477 54.67934 94.96158 54.67934 113.74838 54.67934 128.97768 69.90863 128.97768 88.69543ZM94.96158 88.69543" fill="#ffffff"/>
</g>
</g>
<path transform="matrix(1.00008,0,0,-1.00005,1.4614773,144.95545)" d="M0 0V143.15108H143.15108V0ZM71.57553 113.39742C57.93349 126.31276 36.40504 125.72368 23.48972 112.08163 10.57437 98.43959 11.16344 76.91116 24.80548 63.99582 28.68118 60.32658 33.37227 57.61841 38.48749 56.09596 34.1262 37.82344 45.40318 19.4756 63.6757 15.1143 81.94821 10.753 100.29607 22.02998 104.65736 40.3025 105.89723 45.49725 105.89616 50.91469 104.65424 56.10895 122.66074 61.46295 132.91733 80.39989 127.56332 98.40639 122.2093 116.41289 103.27238 126.66948 85.26588 121.31546 80.14677 119.79337 75.45337 117.08473 71.57504 113.413Z" fill="#ffffff" fill-rule="evenodd"/>
<use data-text="S" xlink:href="#font_9_3" transform="matrix(9.963397,0,0,-9.963098,12.294344,27.8796)"/>
<use data-text="H" xlink:href="#font_9_1" transform="matrix(9.963397,0,0,-9.963098,124.48632,27.8796)"/>
<use data-text="R" xlink:href="#font_9_2" transform="matrix(9.963397,0,0,-9.963098,47.251138,139.00415)"/>
<path transform="matrix(1.00008,0,0,-1.00005,1.4614773,144.95545)" stroke-width=".3985" stroke-linecap="butt" stroke-miterlimit="10" stroke-linejoin="miter" fill="none" stroke="#000000" d="M0 0V143.15108H143.15108V0ZM143.15108 143.15108"/>
<path transform="matrix(1.00008,0,0,-1.00005,1.4614773,144.95545)" stroke-width=".3985" stroke-linecap="butt" stroke-miterlimit="10" stroke-linejoin="miter" fill="none" stroke="#000000" d="M82.20558 88.69543C82.20558 107.48224 66.97629 122.71153 48.18948 122.71153 29.40268 122.71153 14.17339 107.48224 14.17339 88.69543 14.17339 69.90863 29.40268 54.67934 48.18948 54.67934 66.97629 54.67934 82.20558 69.90863 82.20558 88.69543ZM48.18948 88.69543"/>
<path transform="matrix(1.00008,0,0,-1.00005,1.4614773,144.95545)" stroke-width=".3985" stroke-linecap="butt" stroke-miterlimit="10" stroke-linejoin="miter" fill="none" stroke="#000000" d="M128.97768 88.69543C128.97768 107.48224 113.74838 122.71153 94.96158 122.71153 76.17477 122.71153 60.94548 107.48224 60.94548 88.69543 60.94548 69.90863 76.17477 54.67934 94.96158 54.67934 113.74838 54.67934 128.97768 69.90863 128.97768 88.69543ZM94.96158 88.69543"/>
<path transform="matrix(1.00008,0,0,-1.00005,1.4614773,144.95545)" stroke-width=".3985" stroke-linecap="butt" stroke-miterlimit="10" stroke-linejoin="miter" fill="none" stroke="#000000" d="M105.59164 48.18948C105.59164 66.97629 90.36235 82.20558 71.57555 82.20558 52.78874 82.20558 37.55945 66.97629 37.55945 48.18948 37.55945 29.40268 52.78874 14.17339 71.57555 14.17339 90.36235 14.17339 105.59164 29.40268 105.59164 48.18948ZM71.57555 48.18948"/>
<path transform="matrix(1.00008,0,0,-1.00005,1.4614773,144.95545)" stroke-width=".3985" stroke-linecap="butt" stroke-miterlimit="10" stroke-linejoin="miter" fill="none" stroke="#000000" d="M48.18948 88.69543"/>
<use data-text="8" xlink:href="#font_10_51" transform="matrix(9.963397,0,0,-9.963098,41.15265,59.464174)"/>
<path transform="matrix(1.00008,0,0,-1.00005,1.4614773,144.95545)" stroke-width=".3985" stroke-linecap="butt" stroke-miterlimit="10" stroke-linejoin="miter" fill="none" stroke="#000000" d="M94.96158 88.69543"/>
<use data-text="1" xlink:href="#font_10_82" transform="matrix(9.963397,0,0,-9.963098,99.95036,59.464174)"/>
<use data-text="0" xlink:href="#font_10_121" transform="matrix(9.963397,0,0,-9.963098,104.93206,59.464174)"/>
<path transform="matrix(1.00008,0,0,-1.00005,1.4614773,144.95545)" stroke-width=".3985" stroke-linecap="butt" stroke-miterlimit="10" stroke-linejoin="miter" fill="none" stroke="#000000" d="M71.57555 48.18948"/>
<use data-text="5" xlink:href="#font_10_56" transform="matrix(9.963397,0,0,-9.963098,70.552,106.91954)"/>
<path transform="matrix(1.00008,0,0,-1.00005,1.4614773,144.95545)" stroke-width=".3985" stroke-linecap="butt" stroke-miterlimit="10" stroke-linejoin="miter" fill="none" stroke="#000000" d="M14.17339 14.17339"/>
<use data-text="7" xlink:href="#font_10_100" transform="matrix(9.963397,0,0,-9.963098,13.1454119,134.0389)"/>
<path transform="matrix(1.00008,0,0,-1.00005,1.4614773,144.95545)" stroke-width=".3985" stroke-linecap="butt" stroke-miterlimit="10" stroke-linejoin="miter" fill="none" stroke="#000000" d="M48.18948 122.71153"/>
<path transform="matrix(1.00008,0,0,-1.00005,1.4614773,144.95545)" stroke-width=".3985" stroke-linecap="butt" stroke-miterlimit="10" stroke-linejoin="miter" fill="none" stroke="#000000" d="M94.96158 122.71153"/>
<path transform="matrix(1.00008,0,0,-1.00005,1.4614773,144.95545)" stroke-width=".3985" stroke-linecap="butt" stroke-miterlimit="10" stroke-linejoin="miter" fill="none" stroke="#000000" d="M71.57555 14.17339"/>
<path transform="matrix(1.00008,0,0,-1.00005,1.4614773,144.95545)" stroke-width=".3985" stroke-linecap="butt" stroke-miterlimit="10" stroke-linejoin="miter" fill="none" stroke="#000000" d="M71.57555 71.57553"/>
<use data-text="3" xlink:href="#font_10_106" transform="matrix(9.963397,0,0,-9.963098,70.552,76.58403)"/>
<path transform="matrix(1.00008,0,0,-1.00005,1.4614773,144.95545)" stroke-width=".3985" stroke-linecap="butt" stroke-miterlimit="10" stroke-linejoin="miter" fill="none" stroke="#000000" d="M71.57555 88.69543"/>
<use data-text="6" xlink:href="#font_10_101" transform="matrix(9.963397,0,0,-9.963098,70.552,52.51683)"/>
<path transform="matrix(1.00008,0,0,-1.00005,1.4614773,144.95545)" stroke-width=".3985" stroke-linecap="butt" stroke-miterlimit="10" stroke-linejoin="miter" fill="none" stroke="#000000" d="M59.88252 68.44246"/>
<use data-text="4" xlink:href="#font_10_57" transform="matrix(9.963397,0,0,-9.963098,52.84659,86.774539)"/>
<path transform="matrix(1.00008,0,0,-1.00005,1.4614773,144.95545)" stroke-width=".3985" stroke-linecap="butt" stroke-miterlimit="10" stroke-linejoin="miter" fill="none" stroke="#000000" d="M83.26855 68.44246"/>
<use data-text="7" xlink:href="#font_10_100" transform="matrix(9.963397,0,0,-9.963098,88.256427,86.76454)"/>
</svg>
