<svg xmlns="http://www.w3.org/2000/svg" xmlns:xlink="http://www.w3.org/1999/xlink" xmlns:inkscape="http://www.inkscape.org/namespaces/inkscape" version="1.1" width="78" height="60" viewBox="0 0 78 60">
<defs>
<path id="font_1_1" d="M.1789856 .114868167C.13899231 .047973634 .099990848 .033981325 .055999757 .0309906 .04399109 .02999878 .034988405 .02999878 .034988405 .010986328 .034988405 .004989624 .039993287 0 .04798889 0 .07499695 0 .10598755 .0029907227 .13398743 .0029907227 .16699219 .0029907227 .20199585 0 .23399353 0 .23999024 0 .25299073 0 .25299073 .018997193 .25299073 .02999878 .24398804 .0309906 .23699951 .0309906 .21398926 .032989503 .18998719 .04096985 .18998719 .06593323 .18998719 .077926639 .19599915 .088897708 .20399475 .102890018L.27999879 .23068238H.5309906C.5329895 .2097168 .5469971 .07392883 .5469971 .063949588 .5469971 .033981325 .49499513 .0309906 .47499085 .0309906 .46099855 .0309906 .45098878 .0309906 .45098878 .010986328 .45098878 0 .46299745 0 .46499635 0 .5059967 0 .548996 .0029907227 .58999636 .0029907227 .61499026 .0029907227 .6779938 0 .7029877 0 .70899966 0 .72099307 0 .72099307 .019989014 .72099307 .0309906 .71099856 .0309906 .69799807 .0309906 .6359863 .0309906 .6359863 .037979127 .6329956 .06694031L.57199099 .691803C.56999209 .71180728 .56999209 .7158203 .5529938 .7158203 .5369873 .7158203 .5329895 .7088165 .5269928 .69880679L.1789856 .114868167M.29899598 .26168824 .49598695 .5917816 .5279999 .26168824H.29899598Z"/>
<path id="font_2_1" d="M.79599 .6770935C.7969971 .6810913 .798996 .687088 .798996 .6920929 .798996 .6990967 .79299929 .70410159 .7859955 .70410159 .7789917 .70410159 .776001 .7010956 .7679901 .6920929L.69799807 .61505129C.68899539 .628067 .6359863 .70410159 .5189972 .70410159 .2869873 .70410159 .052993776 .48893739 .052993776 .25872804 .052993776 .08457947 .18499756-.021484375 .34399415-.021484375 .47499085-.021484375 .58599856 .058547975 .6399994 .1366272 .6729889 .18566895 .6859894 .23370362 .6859894 .23971558 .6859894 .24871826 .6799927 .25273133 .67099 .25273133 .6589966 .25273133 .6569977 .24772644 .6539917 .2367096 .6119995 .098587039 .47698976 .011505127 .35699464 .011505127 .25498963 .011505127 .147995 .07156372 .147995 .22470093 .147995 .25672914 .15899658 .4238739 .269989 .548996 .34498597 .6330719 .44699098 .6710968 .526001 .6710968 .6519928 .6710968 .70399478 .5700073 .70399478 .4749298 .70399478 .46090699 .69999697 .44189454 .69999697 .42988587 .69999697 .41687013 .71299746 .41687013 .71699526 .41687013 .7299957 .41687013 .7319946 .42086793 .73599246 .43888856L.79599 .6770935Z"/>
<path id="font_1_2" d="M.6349945 .5776062C.644989 .61860659 .6629944 .64860537 .7429962 .6516113 .7480011 .6516113 .7599945 .65260317 .7599945 .6716156 .7599945 .6726074 .7599945 .6826172 .746994 .6826172 .71398928 .6826172 .67900088 .6796112 .644989 .6796112 .61099246 .6796112 .57398989 .6826172 .54100039 .6826172 .5349884 .6826172 .522995 .6826172 .522995 .6626129 .522995 .6516113 .5329895 .6516113 .54100039 .6516113 .59799197 .65060427 .60899356 .62960818 .60899356 .607605 .60899356 .604599 .6069946 .5895996 .60598757 .5866089L.5159912 .22955323C.48199464 .09553528 .36698915 .008529663 .2669983 .008529663 .19898987 .008529663 .14498902 .05253601 .14498902 .1385498 .14498902 .1405487 .14498902 .17254639 .1559906 .21655274L.25299073 .6056061C.2619934 .64160159 .2639923 .6516113 .33699037 .6516113 .36299134 .6516113 .37098695 .6516113 .37098695 .6716156 .37098695 .6826172 .3600006 .6826172 .35699464 .6826172 .32899476 .6826172 .25698854 .6796112 .22898865 .6796112 .19999695 .6796112 .1289978 .6826172 .099990848 .6826172 .09199524 .6826172 .08099365 .6826172 .08099365 .6626129 .08099365 .6516113 .08999634 .6516113 .10899353 .6516113 .11099243 .6516113 .12998963 .6516113 .14698792 .6496124 .16499329 .6476135 .17399597 .64660647 .17399597 .63360598 .17399597 .62760928 .16299439 .5856018 .15699768 .56259158L.1349945 .47459413C.12599182 .4355774 .07798767 .24656677 .07398987 .22755432 .066986087 .19955445 .066986087 .18455506 .066986087 .16955567 .066986087 .047531129 .1579895-.022460938 .2630005-.022460938 .3889923-.022460938 .5130005 .090545658 .54599 .2225647L.6349945 .5776062Z"/>
</defs>
<path transform="matrix(1.00006,0,0,-1,1.9271755,58.492)" d="M0 0V56.69362H74.41037V0ZM74.41037 56.69362" fill="#fff56d"/>
<path transform="matrix(1.00006,0,0,-1,1.9271755,58.492)" stroke-width=".3985" stroke-linecap="butt" stroke-miterlimit="10" stroke-linejoin="miter" fill="none" stroke="#000000" d="M0 0V56.69362H74.41037V0ZM74.41037 56.69362"/>
<path transform="matrix(1.00006,0,0,-1,1.9271755,58.492)" d="M46.06355 28.3468C46.06355 40.08858 36.54523 49.6069 24.80345 49.6069 13.06168 49.6069 3.54335 40.08858 3.54335 28.3468 3.54335 16.60503 13.06168 7.0867 24.80345 7.0867 36.54523 7.0867 46.06355 16.60503 46.06355 28.3468ZM24.80345 28.3468" fill="#ffffff"/>
<path transform="matrix(1.00006,0,0,-1,1.9271755,58.492)" stroke-width=".3985" stroke-linecap="butt" stroke-miterlimit="10" stroke-linejoin="miter" fill="none" stroke="#000000" d="M46.06355 28.3468C46.06355 40.08858 36.54523 49.6069 24.80345 49.6069 13.06168 49.6069 3.54335 40.08858 3.54335 28.3468 3.54335 16.60503 13.06168 7.0867 24.80345 7.0867 36.54523 7.0867 46.06355 16.60503 46.06355 28.3468ZM24.80345 28.3468"/>
<use data-text="A" xlink:href="#font_1_1" transform="matrix(10.909754,0,0,-10.9091,22.640418,33.873)"/>
<use data-text="A" xlink:href="#font_1_1" transform="matrix(10.909754,0,0,-10.9091,54.528329,34.848)"/>
<use data-text="C" xlink:href="#font_2_1" transform="matrix(7.9705779,0,0,-7.9701,62.70982,30.889002)"/>
<use data-text="U" xlink:href="#font_1_2" transform="matrix(10.909754,0,0,-10.9091,64.22691,55.133)"/>
</svg>
