<svg xmlns="http://www.w3.org/2000/svg" xmlns:xlink="http://www.w3.org/1999/xlink" xmlns:inkscape="http://www.inkscape.org/namespaces/inkscape" version="1.1" width="332" height="237" viewBox="0 0 332 237">
<defs>
<path id="font_1_5" d="M.13198853 .327713V.35173036C.13198853 .6047821 .2559967 .64100649 .30699159 .64100649 .33099366 .64100649 .37298585 .634964 .394989 .6007538 .37998963 .6007538 .33999635 .6007538 .33999635 .5557556 .33999635 .524765 .3639984 .5097656 .38598634 .5097656 .4019928 .5097656 .43199159 .51875308 .43199159 .5577545 .43199159 .6178589 .3880005 .6660156 .30499269 .6660156 .1769867 .6660156 .041992189 .5367584 .041992189 .31570436 .041992189 .048553468 .1579895-.022460938 .25099183-.022460938 .3619995-.022460938 .45700074 .07156372 .45700074 .2036438 .45700074 .33070375 .36799623 .4267578 .25698854 .4267578 .18899536 .4267578 .1519928 .37573243 .13198853 .327713M.25099183 .0055389406C.18798828 .0055389406 .1579895 .06556702 .1519928 .080566409 .13398743 .127594 .13398743 .2076416 .13398743 .22564698 .13398743 .30369569 .1659851 .40374757 .2559967 .40374757 .27198792 .40374757 .31799317 .40374757 .34899903 .34172059 .36698915 .30470277 .36698915 .2536621 .36698915 .20463562 .36698915 .15661621 .36698915 .10658264 .34999085 .0705719 .31999208 .010528564 .27398683 .0055389406 .25099183 .0055389406Z"/>
<path id="font_1_6" d="M.16299439 .4569702C.116989139 .486969 .11299133 .52098086 .11299133 .5379791 .11299133 .598999 .17799378 .64100649 .24899292 .64100649 .32199098 .64100649 .38598634 .58898928 .38598634 .51698306 .38598634 .45996095 .34700013 .4119568 .2869873 .37695313L.16299439 .4569702M.30899049 .36193849C.3809967 .3989563 .42999269 .45095826 .42999269 .51698306 .42999269 .6090088 .34098817 .6660156 .25 .6660156 .1499939 .6660156 .068984989 .59199526 .068984989 .49897767 .068984989 .4809723 .070999149 .43595887 .11299133 .38894654 .12399292 .37695313 .16099549 .35194398 .18598938 .33494569 .12799073 .30592347 .041992189 .24984741 .041992189 .15072632 .041992189 .04458618 .14399719-.022460938 .24899292-.022460938 .3619995-.022460938 .45700074 .06060791 .45700074 .16773987 .45700074 .20379639 .44599916 .24885559 .4079895 .2909088 .3889923 .31193543 .37298585 .3219452 .30899049 .36193849M.20899964 .3199463 .33198548 .24183655C.3600006 .2228241 .40699769 .19277954 .40699769 .13169861 .40699769 .05760193 .33198548 .0055389406 .25 .0055389406 .1639862 .0055389406 .09199524 .067611698 .09199524 .15072632 .09199524 .20880127 .12399292 .27288819 .20899964 .3199463Z"/>
<path id="font_1_2" d="M.2939911 .64004519C.2939911 .66400149 .2939911 .6660156 .2709961 .6660156 .20899964 .60227969 .12098694 .60227969 .08898926 .60227969V.57128909C.10899353 .57128909 .16799927 .57128909 .21998596 .5972748V.07902527C.21998596 .042999269 .21699524 .0309906 .1269989 .0309906H.09498596V0C.12998963 .0029907227 .21699524 .0029907227 .25698854 .0029907227 .29699708 .0029907227 .38398744 .0029907227 .4189911 0V.0309906H.3869934C.29699708 .0309906 .2939911 .041992189 .2939911 .07902527V.64004519Z"/>
<path id="font_1_1" d="M.45999146 .31976319C.45999146 .39982606 .45498658 .47988893 .41999818 .5539398 .37399293 .65000918 .2919922 .6660156 .25 .6660156 .18998719 .6660156 .116989139 .64001467 .07598877 .54693606 .04399109 .47789 .038986207 .39982606 .038986207 .31976319 .038986207 .24472046 .042999269 .15464783 .083999637 .07859802 .1269989-.0024719239 .19999695-.022460938 .24899292-.022460938 .30299378-.022460938 .3789978-.0014648438 .4229889 .09359741 .45498658 .16265869 .45999146 .2407074 .45999146 .31976319M.24899292-.00047302247C.20999146-.00047302247 .15098572 .024551392 .1329956 .12062073 .12199402 .18066406 .12199402 .2727356 .12199402 .3317871 .12199402 .39582826 .12199402 .46188355 .12998963 .5159149 .14898682 .63500979 .22399903 .64401248 .24899292 .64401248 .28199769 .64401248 .34799195 .6259918 .36698915 .52693179 .3769989 .47088624 .3769989 .39482118 .3769989 .3317871 .3769989 .25672914 .3769989 .18867493 .3659973 .12461853 .35099793 .029556275 .2939911-.00047302247 .24899292-.00047302247Z"/>
<path id="font_1_3" d="M.1269989 .07699585 .23298645 .18003845C.3889923 .31811524 .44898988 .3721466 .44898988 .47216798 .44898988 .5860901 .35899354 .6660156 .23699951 .6660156 .12399292 .6660156 .049987794 .57411196 .049987794 .48516847 .049987794 .4291687 .099990848 .4291687 .102996829 .4291687 .11999512 .4291687 .15499878 .44117738 .15499878 .48217774 .15499878 .5081787 .13699341 .5341797 .101989749 .5341797 .09399414 .5341797 .09199524 .5341797 .08898926 .5331726 .11199951 .59806826 .1659851 .63500979 .22399903 .63500979 .31498719 .63500979 .35798646 .5541382 .35798646 .47216798 .35798646 .39215089 .30799867 .31311036 .25299073 .25108338L.06098938 .036987306C.049987794 .025985718 .049987794 .023986817 .049987794 0H.42099L.44898988 .17404175H.42399598C.4189911 .14402771 .4119873 .1000061 .4019928 .084991458 .394989 .07699585 .32899476 .07699585 .30699159 .07699585H.1269989Z"/>
<path id="font_1_4" d="M.2939911 .16503906V.07800293C.2939911 .041992189 .2919922 .0309906 .21798706 .0309906H.19699097V0C.23799134 .0029907227 .2899933 .0029907227 .33198548 .0029907227 .37399293 .0029907227 .4269867 .0029907227 .46798707 0V.0309906H.44699098C.37298585 .0309906 .37098695 .041992189 .37098695 .07800293V.16503906H.47099305V.19602967H.37098695V.65075686C.37098695 .67074587 .37098695 .6767578 .35499574 .6767578 .34599305 .6767578 .34298707 .6767578 .33499146 .66474917L.027999878 .19602967V.16503906H.2939911M.2999878 .19602967H.055999757L.2999878 .5688019V.19602967Z"/>
<path id="font_2_83" d="M.58200076 .4921875C.58200076 .59928897 .48298646 .69433596 .34498597 .69433596H.09599304V0H.18499756V.2890625H.35198976C.47599793 .2890625 .58200076 .38008119 .58200076 .4921875M.5009918 .4921875C.5009918 .41311646 .43798829 .34706117 .32299806 .34706117H.18199158V.6383209H.32299806C.43299867 .6383209 .5009918 .5772705 .5009918 .4921875Z"/>
<path id="font_2_72" d="M.1559906 0V.69433596H.08099365V0H.1559906Z"/>
<path id="font_2_28" d="M.40899659 .00024414063V.28903199C.40899659 .39094544 .33599855 .4609375 .24398804 .4609375 .1789856 .4609375 .13398743 .44493104 .08699036 .41792298L.09298706 .3519745C.14498902 .38894654 .19499207 .40193177 .24398804 .40193177 .29100038 .40193177 .33099366 .361969 .33099366 .2880249V.24505615C.18099976 .24305725 .053985597 .20106507 .053985597 .11317444 .053985597 .07022095 .08099365-.0107421879 .16799927-.0107421879 .18199158-.0107421879 .27598573-.008743286 .33399964 .036254884V.00024414063H.40899659M.33099366 .13214112C.33099366 .11317444 .33099366 .0881958 .29699708 .069229129 .2679901 .051254274 .22999573 .050247194 .21899414 .050247194 .17098999 .050247194 .12599182 .07322693 .12599182 .11515808 .12599182 .18507385 .28799439 .19206238 .33099366 .19406128V.13214112Z"/>
<path id="font_2_77" d="M.43499757 0V.29804994C.43499757 .36405946 .41999818 .45507813 .2979889 .45507813 .20799256 .45507813 .15899658 .3870697 .15299988 .3790741V.45007325H.08099365V0H.15899658V.2450409C.15899658 .31105042 .18399048 .3940735 .2599945 .3940735 .35598756 .3940735 .35699464 .32305909 .35699464 .29104615V0H.43499757Z"/>
<path id="font_2_105" d="M.33198548 .027252198 .31599427 .086257938C.2899933 .06524658 .2579956 .053253175 .22599793 .053253175 .18899536 .053253175 .1749878 .08325195 .1749878 .13627625V.38632203H.31599427V.44433595H.1749878V.57128909H.10598755V.44433595H.018997193V.38632203H.102996829V.119262699C.102996829 .059249879 .116989139-.0107421879 .18598938-.0107421879 .2559967-.0107421879 .30699159 .014251709 .33198548 .027252198Z"/>
<path id="font_2_62" d="M.61299136 0V.69433596H.5239868V.3910675H.18299866V.69433596H.09399414V0H.18299866V.33007813H.5239868V0H.61299136Z"/>
<path id="font_2_50" d="M.4139862 .21875C.4139862 .25274659 .41299439 .32781983 .37399293 .38790895 .33299256 .4499359 .27198792 .4609375 .23599243 .4609375 .125 .4609375 .034988405 .3548584 .034988405 .22573853 .034988405 .09411621 .1309967-.0107421879 .25099183-.0107421879 .31399537-.0107421879 .37098695 .013244629 .4099884 .041244508L.4039917 .1060791C.34098817 .054244996 .2749939 .050247194 .2519989 .050247194 .17199707 .050247194 .10798645 .121032718 .10499573 .21875H.4139862M.35699464 .27374269H.10998535C.12599182 .34985353 .1789856 .39993287 .23599243 .39993287 .28799439 .39993287 .34399415 .36587525 .35699464 .27374269Z"/>
<path id="font_2_66" d="M.1559906 0V.44433595H.08099365V0H.1559906M.1639862 .5662689V.65527346H.07499695V.5662689H.1639862Z"/>
<path id="font_2_59" d="M.4850006 .39207459 .47399903 .45507813C.4039917 .45507813 .34599305 .43606568 .31599427 .4230652 .29499818 .44006349 .26098634 .45507813 .22099304 .45507813 .1349945 .45507813 .06199646 .3830719 .06199646 .29206849 .06199646 .25506593 .07499695 .21907044 .09498596 .19306946 .06599426 .15206909 .06599426 .11306763 .06599426 .108062747 .06599426 .08207703 .07499695 .05307007 .09199524 .032073976 .039993287 .0010681152 .027999878-.04496765 .027999878-.070999149 .027999878-.14605713 .1269989-.20605469 .24899292-.20605469 .37199403-.20605469 .47099305-.14706421 .47099305-.069992069 .47099305 .06906128 .3039856 .06906128 .2649994 .06906128H.1769867C.1639862 .06906128 .11898804 .06906128 .11898804 .121917728 .11898804 .13290406 .12298584 .14889527 .12998963 .15789795 .15098572 .14289856 .18399048 .12890625 .22099304 .12890625 .31098939 .12890625 .3809967 .20289612 .3809967 .29190064 .3809967 .3399048 .35899354 .3768921 .34799195 .39190675L.35198976 .39089967C.37399293 .39089967 .4019928 .39489747 .42599488 .39489747 .44400025 .39489747 .4850006 .39190675 .4850006 .39190675V.39207459M.31098939 .29190064C.31098939 .2138977 .2639923 .18589783 .22099304 .18589783 .18399048 .1860199 .13198853 .20903015 .13198853 .29203797 .13198853 .37506105 .18399048 .3980713 .22099304 .3980713 .2639923 .3980713 .31098939 .37005616 .31098939 .29203797V.29190064M.40098573-.07203674C.40098573-.11605835 .33198548-.14906311 .25-.14906311 .16899109-.14894104 .09799194-.11793518 .09799194-.07093811 .09799194-.06793213 .09799194-.0029296876 .17599488-.0029296876H.2659912C.28799439-.0029296876 .40098573-.0029296876 .40098573-.07192993V-.07203674Z"/>
<path id="font_2_63" d="M.43499757 0V.29804994C.43499757 .36405946 .41999818 .45507813 .2979889 .45507813 .23599243 .45507813 .18798828 .42407228 .1559906 .3830719V.69433596H.08099365V0H.15899658V.2450409C.15899658 .31105042 .18399048 .3940735 .2599945 .3940735 .35598756 .3940735 .35699464 .32305909 .35699464 .29104615V0H.43499757Z"/>
<path id="font_2_85" d="M.33198548-.25C.28399659-.20201111 .15699768-.073013309 .15699768 .25 .15699768 .30599977 .1599884 .4229889 .20098877 .54100039 .24198914 .6569977 .29899598 .71699526 .33198548 .75H.2709961C.23899842 .7200012 .17199707 .6589966 .12599182 .5359955 .085998538 .42900086 .07899475 .32299806 .07899475 .25 .07899475-.073013309 .22299195-.20600891 .2709961-.25H.33198548Z"/>
<path id="font_2_43" d="M.4149933 .040252687 .40899659 .10719299C.35798646 .067230228 .3039856 .053253175 .25299073 .053253175 .16999817 .053253175 .11399841 .1251831 .11399841 .2230835 .11399841 .3010254 .15098572 .39692689 .25698854 .39692689 .30899049 .39692689 .34298707 .38893128 .397995 .3529663L.4099884 .41792298C.35099793 .4519348 .31698609 .4609375 .2559967 .4609375 .116989139 .4609375 .035995485 .33998109 .035995485 .22209168 .035995485 .09820557 .1269989-.0107421879 .2519989-.0107421879 .30599977-.0107421879 .36099244 .003250122 .4149933 .040252687Z"/>
<path id="font_2_98" d="M.3600006 .12817383C.3600006 .18313599 .32299806 .21710205 .32099916 .22009278 .28199769 .25506593 .25498963 .26106263 .20498657 .27005006 .1499939 .28103639 .10398865 .29103089 .10398865 .33998109 .10398865 .40193177 .17599488 .40193177 .18899536 .40193177 .22099304 .40193177 .27398683 .39793397 .33099366 .3639679L.34298707 .42892457C.29100038 .45292665 .25 .4609375 .19898987 .4609375 .17399597 .4609375 .032989503 .4609375 .032989503 .32998658 .032989503 .28103639 .06199646 .24906922 .08699036 .23008728 .117996219 .20809937 .13999939 .20411682 .19499207 .19311524 .23098755 .18612671 .2889862 .1741333 .2889862 .1211853 .2889862 .052246095 .20999146 .052246095 .19499207 .052246095 .11399841 .052246095 .057998659 .08921814 .039993287 .10121155L.027999878 .0332489C.05999756 .01725769 .114990238-.0107421879 .19599915-.0107421879 .21398926-.0107421879 .2689972-.0107421879 .31199647 .021255494 .34298707 .04525757 .3600006 .08522034 .3600006 .12817383Z"/>
<path id="font_2_86" d="M.30899049 .25C.30899049 .57299807 .16499329 .70599368 .116989139 .75H.055999757C.10398865 .70199587 .23098755 .57299807 .23098755 .25 .23098755 .19400025 .22799683 .07699585 .18699646-.041000368 .1459961-.15701294 .08898926-.2170105 .055999757-.25H.116989139C.14898682-.22000122 .21598816-.15901184 .2619934-.036010744 .3019867 .070999149 .30899049 .1769867 .30899049 .25Z"/>
<path id="font_2_54" d="M.526001 .6263275V.69132998H.09399414V0H.18299866V.31497193H.4850006V.37597657H.18299866V.6273346H.31399537C.32598878 .6273346 .33799745 .6263275 .34999085 .6263275H.526001Z"/>
<path id="font_2_96" d="M.32699586 .38806153V.45507813C.23799134 .45407105 .18299866 .4050598 .1519928 .35905458V.45007325H.08198547V0H.15699768V.21403504C.15699768 .31404115 .22898865 .38606263 .32699586 .38806153Z"/>
<path id="font_2_91" d="M.43399049-.19335938V.45507813H.35899354V.3870697C.34899903 .4000702 .2999878 .45507813 .22200012 .45507813 .12199402 .45507813 .035995485 .35609437 .035995485 .22116089 .035995485 .09422302 .10899353-.0107421879 .20498657-.0107421879 .26098634-.0107421879 .31399537 .012252808 .35598756 .050247194V-.19335938H.43399049M.35899354 .14019776C.35899354 .12220764 .35899354 .12020874 .34899903 .10722351 .32299806 .06724548 .28599549 .050247194 .25 .050247194 .17399597 .050247194 .11399841 .12820435 .11399841 .22116089 .11399841 .32310487 .18598938 .3910675 .25898744 .3910675 .32798768 .3910675 .35899354 .32009889 .35899354 .28012086V.14019776Z"/>
<path id="font_2_109" d="M.43499757 .00024414063V.44433595H.35699464V.15426636C.35699464 .07925415 .30099488 .04425049 .23699951 .04425049 .1659851 .04425049 .15899658 .070251468 .15899658 .11326599V.44433595H.08099365V.10926819C.08099365 .037246705 .10398865-.0107421879 .18699646-.0107421879 .23999024-.0107421879 .31098939 .0052490236 .3600006 .04824829V.00024414063H.43499757Z"/>
<path id="font_2_118" d="M.44599916 .44433595H.37098695C.24099732 .12605286 .23899842 .08001709 .23799134 .056991579H.23699951C.23098755 .124053958 .15098572 .31021119 .14698792 .31921388L.09298706 .44433595H.01399231L.20799256 0 .17199707-.09005737C.1459961-.14808655 .1289978-.14808655 .114990238-.14808655 .09899902-.14808655 .066986087-.14408875 .036987306-.13208008L.042999269-.19708252C.06498718-.2020874 .09298706-.20507813 .114990238-.20507813 .1499939-.20483399 .18699646-.19282532 .22799683-.09082031L.44599916 .44433595Z"/>
<path id="font_3_62" d="M.70199587 .04801941V.64630129C.70199587 .6783142 .69499209 .69433596 .6539917 .69433596H.6029968C.5649872 .69433596 .5549927 .6813202 .5549927 .64630129V.40820313H.23799134V.64630129C.23799134 .6783142 .23098755 .69433596 .18998719 .69433596H.13899231C.102996829 .69433596 .09098816 .6833191 .09098816 .64630129V.04801941C.09098816 .011993408 .101989749 0 .13899231 0H.18998719C.22799683 0 .23799134 .013000488 .23799134 .04801941V.31419374H.5549927V.04801941C.5549927 .01600647 .56199648 0 .6029968 0H.6539917C.69200137 0 .70199587 .013000488 .70199587 .04801941Z"/>
<path id="font_3_50" d="M.47898866 .25959779C.47898866 .38859559 .4189911 .47460938 .269989 .47460938 .10998535 .47525025 .0309906 .3852539 .0309906 .23324585 .0309906 .069244388 .12599182-.0107421879 .2829895-.0107421879 .32099916-.0107421879 .37799073-.0057525637 .44400025 .027252198 .46598817 .038253786 .47299195 .041244508 .47299195 .053253175 .47299195 .060256959 .46998597 .08924866 .46899415 .09724426 .46499635 .12825012 .46398927 .1292572 .45498658 .1292572 .45098878 .1292572 .44898988 .1292572 .43798829 .11924744 .3789978 .06825256 .31900025 .06124878 .2869873 .06124878 .17399597 .06085205 .1619873 .14985657 .15899658 .21386719H.43099977C.45399476 .21386719 .47898866 .21485901 .47898866 .25985719V.25959779M.36799623 .26686097H.1599884C.16299439 .32774354 .18299866 .40260316 .269989 .40260316 .34999085 .40260316 .36499024 .3447113 .36799623 .26686097Z"/>
<path id="font_3_66" d="M.19400025 .04798889V.41000367C.19400025 .44200135 .18699646 .4580078 .1459961 .4580078H.10899353C.07299805 .4580078 .06098938 .44700624 .06098938 .41000367V.04798889C.06098938 .011993408 .07199097 0 .10899353 0H.1459961C.18399048 0 .19400025 .0129852299 .19400025 .04798889M.20098877 .6058502V.6248474C.20098877 .6568451 .19400025 .67285159 .15299988 .67285159H.101989749C.06399536 .67285159 .053985597 .6598511 .053985597 .6248474V.6058502C.053985597 .57684329 .05899048 .55784609 .101989749 .55784609H.15299988C.19499207 .55784609 .20098877 .5758362 .20098877 .6058502Z"/>
<path id="font_3_59" d="M.5339966 .40473939C.5339966 .40873719 .5289917 .43273927 .5269928 .44274903 .522995 .46673585 .522995 .46875 .5049896 .46875 .47399903 .46875 .42399598 .45674134 .38598634 .43374635 .33898927 .46473695 .2869873 .46875 .24398804 .46875 .20199585 .46875 .042999269 .46875 .042999269 .30386354 .042999269 .26391603 .053985597 .21398926 .09199524 .18103028 .06498718 .14405823 .06498718 .10505676 .06498718 .10005188 .06498718 .08106995 .070999149 .048080446 .09199524 .021102906 .07699585 .015106201 .024993897-.0028839112 .024993897-.066833499 .024993897-.0978241 .039993287-.14979553 .102996829-.17880249 .1599884-.20480347 .22698975-.20579529 .27398683-.20579529 .33299256-.20579529 .5239868-.20579529 .5239868-.06384277 .5239868 .092056278 .3829956 .092056278 .24798584 .092056278H.19999695C.1639862 .092056278 .1499939 .092056278 .13598633 .10404968 .13198853 .108047489 .114990238 .123062137 .114990238 .14904785 .114990238 .15605164 .115997318 .15805054 .116989139 .1640625 .1639862 .13795471 .22299195 .13795471 .24398804 .13795471 .28599549 .13795471 .44499208 .13795471 .44499208 .3028412 .44499208 .3607788 .4229889 .3957367 .4139862 .40673829 .43099977 .40673829 .46598817 .40673829 .5069885 .3957367 .5109863 .3937378 .5179901 .39175416 .5209961 .39175416 .5289917 .39175416 .5339966 .3977356 .5339966 .40473939M.31698609 .30384828C.31698609 .24891663 .31399537 .20996094 .24398804 .20996094 .17399597 .20996094 .17098999 .24790955 .17098999 .3028412 .17098999 .3577881 .17399597 .39674378 .24398804 .39674378 .31399537 .39674378 .31698609 .3587799 .31698609 .30384828M.42099-.06669617C.42099-.13378906 .30699159-.13378906 .2749939-.13378906 .23498535-.13378906 .12799073-.13378906 .12799073-.063690189 .12799073-.016601563 .15899658-.016601563 .18199158-.016601563H.2979889C.3789978-.01701355 .42099-.03100586 .42099-.06700134V-.06669617Z"/>
<path id="font_3_63" d="M.5 .047470094V.32447816C.5 .42774964 .45599366 .46875 .35398866 .46875 .2539978 .46875 .20799256 .39974977 .19400025 .37176515H.19299317V.6462097C.19299317 .6782837 .18598938 .69433596 .14498902 .69433596H.10798645C.07199097 .69433596 .05999756 .68330386 .05999756 .6462097V.047958375C.05999756 .011978149 .070999149 0 .10798645 0H.147995C.18598938 0 .19599915 .0129852299 .19599915 .047958375V.26882936C.19599915 .35577394 .2539978 .39674378 .30599977 .39674378 .35398866 .39674378 .3639984 .37376405 .3639984 .32278443V.047958375C.3639984 .015975953 .37098695 0 .4119873 0H.45199586C.48999024 0 .5 .0129852299 .5 .047958375V.047470094Z"/>
<path id="font_3_105" d="M.37298585 .04725647C.37298585 .050247194 .37098695 .057250978 .36499024 .078125 .3600006 .09811401 .35798646 .10411072 .34899903 .10411072 .34399415 .10411072 .34298707 .1031189 .33699037 .09712219 .32598878 .08911133 .29899598 .06724548 .25698854 .06724548 .23298645 .06724548 .21798706 .084121707 .21798706 .15011597V.3860016H.30699159C.31900025 .3860016 .35499574 .3860016 .35499574 .42199708 .35499574 .4580078 .31900025 .4580078 .30699159 .4580078H.21798706V.5409088C.21798706 .572876 .21099854 .5888672 .16999817 .5888672H.13899231C.102996829 .5888672 .09098816 .5778656 .09098816 .5409088V.4580078H.067993167C.056991579 .4580078 .019989014 .4580078 .019989014 .42199708 .019989014 .3860016 .055999757 .3860016 .067993167 .3860016H.08799744V.13311768C.08799744 .03225708 .12399292-.0107421879 .19299317-.0107421879 .20199585-.0107421879 .24598694-.0107421879 .2979889 .0052490236 .31498719 .010253906 .37298585 .028244019 .37298585 .04725647Z"/>
<path id="font_3_98" d="M.3959961 .14111328C.3959961 .19700623 .3659973 .2319336 .34799195 .24790955 .30799867 .28382875 .272995 .28982545 .23098755 .2978058 .17599488 .30778504 .13598633 .31576539 .13598633 .35469056 .13598633 .39561463 .16899109 .40359498 .20799256 .40359498 .2749939 .40359498 .31098939 .37864686 .33699037 .35668946 .34700013 .3467102 .34899903 .3467102 .35299684 .3467102 .36299134 .3467102 .36499024 .35569764 .3659973 .35968019 .36799623 .36767579 .37799073 .42359925 .37799073 .42860414 .37799073 .44459535 .32499696 .4586029 .31399537 .4626007 .27398683 .4736023 .24198914 .47460938 .21598816 .47460938 .17098999 .47460938 .036987306 .47460938 .036987306 .33174134 .036987306 .2828369 .05899048 .25289918 .085998538 .22894287 .12098694 .19700623 .1599884 .1900177 .21699524 .17903137 .24598694 .17404175 .29699708 .16506958 .29699708 .12113953 .29699708 .07423401 .2579956 .06724548 .21899414 .06724548 .1749878 .06724548 .11898804 .08023071 .07199097 .13612366 .066986087 .14111328 .06399536 .144104 .057998659 .144104 .04798889 .144104 .04598999 .13511658 .04499817 .12913513 .042999269 .11515808 .0309906 .058242799 .0309906 .04824829 .0309906 .03024292 .10598755 .0062561037 .10598755 .0062561037 .16099549-.0107421879 .20199585-.0107421879 .21899414-.0107421879 .269989-.0107421879 .3959961-.0067443849 .3959961 .14111328Z"/>
<path id="font_3_81" d="M.5179901 .22494507C.5179901 .3886261 .43798829 .47460938 .2749939 .47460938 .10798645 .47460938 .0309906 .38563539 .0309906 .22494507 .0309906 .06225586 .116989139-.0107421879 .27398683-.0107421879 .43099977-.0107421879 .5179901 .06124878 .5179901 .22494507M.38198854 .23692322C.38198854 .15808106 .38198854 .06724548 .2749939 .06724548 .16699219 .06724548 .16699219 .15707398 .16699219 .23692322 .16699219 .31376649 .16699219 .40260316 .27398683 .40260316 .38198854 .40260316 .38198854 .31477357 .38198854 .23692322Z"/>
<path id="font_3_55" d="M.3809967 .62098696V.6669922C.3809967 .690979 .37998963 .6919861 .34599305 .69898989 .31698609 .7050781 .29599 .7050781 .2809906 .7050781 .20599365 .7050781 .085998538 .6880646 .085998538 .53804019V.4580078C.06498718 .4580078 .02999878 .4580078 .02999878 .42199708 .02999878 .3860016 .06399536 .3860016 .085998538 .3860016V.04800415C.085998538 .011993408 .09700012 0 .13398743 0H.17098999C.20899964 0 .21899414 .013000488 .21899414 .04800415V.3860016H.2669983C.2789917 .3860016 .31498719 .3860016 .31498719 .42199708 .31498719 .4580078 .2789917 .4580078 .2669983 .4580078H.21598816V.5670471C.21598816 .5930481 .21598816 .6330719 .2809906 .6330719 .31298829 .6330719 .33299256 .6240692 .35299684 .60505679 .3600006 .59698489 .36299134 .59498599 .36799623 .59498599 .3809967 .59498599 .3809967 .60498049 .3809967 .62098696Z"/>
<path id="font_3_104" d="M.69200137 .63246157V.6404724C.69200137 .6724701 .68499758 .68847659 .6439972 .68847659H.08799744C.051986696 .68847659 .039993287 .677475 .039993287 .6404724V.63246157C.039993287 .58447268 .06399536 .58447268 .09199524 .58447268L.29299928 .5874634V.048034669C.29299928 .012008667 .3039856 0 .34098817 0H.3919983C.42999269 0 .43998719 .013000488 .43998719 .048034669V.5874634L.6399994 .58447268C.66799929 .58447268 .69200137 .58447268 .69200137 .63246157Z"/>
<path id="font_3_75" d="M.80599978 .047973634V.32487489C.80599978 .42785646 .7619934 .4688568 .6599884 .4688568 .58898928 .4688568 .5339966 .43585206 .49798585 .36987306 .48199464 .4658661 .39698792 .4688568 .35499574 .4688568 .33599855 .4688568 .2939911 .4688568 .24899292 .43585206 .21798706 .41285707 .19799805 .38085938 .19099427 .36587525H.18998719V.41586305C.18998719 .44786073 .18299866 .4638672 .14199829 .4638672H.10798645C.07199097 .4638672 .05999756 .4528656 .05999756 .41586305V.047973634C.05999756 .011993408 .070999149 0 .10798645 0H.147995C.18598938 0 .19599915 .0129852299 .19599915 .047973634V.26890565C.19599915 .35887147 .25698854 .39686585 .30599977 .39686585 .35398866 .39686585 .36499024 .37586976 .36499024 .32287599V.047973634C.36499024 .011993408 .37599183 0 .41299439 0H.45298768C.4909973 0 .5009918 .0129852299 .5009918 .047973634V.26890565C.5009918 .35887147 .56199648 .39686585 .61099246 .39686585 .6589966 .39686585 .66999819 .37586976 .66999819 .32287599V.047973634C.66999819 .011993408 .68099978 0 .71798709 0H.7579956C.79599 0 .80599978 .0129852299 .80599978 .047973634Z"/>
<path id="font_3_28" d="M.47399903 .04824829V.31578065C.47399903 .4736023 .32199098 .47460938 .27198792 .47460938 .22499085 .47460938 .1749878 .4705963 .10798645 .44259645 .08699036 .433609 .08198547 .43060304 .08198547 .41960145 .08198547 .41259767 .08799744 .3547058 .08898926 .34672547 .08999634 .34072877 .09498596 .33573915 .101989749 .33573915 .10699463 .33573915 .10998535 .33872987 .11299133 .34172059 .1559906 .38664247 .20599365 .40859986 .2679901 .40859986 .32199098 .40859986 .33799745 .3756714 .33799745 .31677247V.2818451C.30299378 .2818451 .040985109 .2798462 .040985109 .13311768 .040985109 .06324768 .09700012-.0107421879 .18499756-.0107421879 .21899414-.0107421879 .2939911-.00074768069 .34098817 .068237308V.04824829C.34098817 .01625061 .34799195 .00024414063 .3889923 .00024414063H.42599488C.46398927 .00024414063 .47399903 .013244629 .47399903 .04824829M.33799745 .15408325C.33799745 .06124878 .24299622 .06124878 .23999024 .06124878 .19799805 .06124878 .17098999 .09718323 .17098999 .13511658 .17098999 .23292542 .30999757 .23991394 .33799745 .24092102V.15408325Z"/>
<path id="font_3_83" d="M.6409912 .47843934C.6409912 .6293335 .54299929 .69433596 .3889923 .69433596H.13899231C.102996829 .69433596 .09098816 .68333438 .09098816 .6463318V.048095704C.09098816 .012023926 .101989749 0 .13899231 0H.18998719C.22799683 0 .23799134 .013015747 .23799134 .048095704V.2685547H.3899994C.5469971 .2685547 .6409912 .33454896 .6409912 .47843934M.5019989 .47843934C.5019989 .41149903 .4909973 .34754945 .35699464 .34754945H.23498535V.60832217H.35798646C.4889984 .60832217 .5019989 .5483856 .5019989 .47843934Z"/>
<path id="font_3_72" d="M.19400025 .04801941V.64630129C.19400025 .6783142 .18699646 .69433596 .1459961 .69433596H.10899353C.07299805 .69433596 .06098938 .6833191 .06098938 .64630129V.04801941C.06098938 .011993408 .07199097 0 .10899353 0H.1459961C.18399048 0 .19400025 .013000488 .19400025 .04801941Z"/>
<path id="font_3_77" d="M.5 .047470094V.32447816C.5 .42774964 .45599366 .46875 .35398866 .46875 .24899292 .46875 .20399475 .39274598 .19099427 .36576844H.18998719V.41574098C.18998719 .44773866 .18299866 .46374513 .14199829 .46374513H.10798645C.07199097 .46374513 .05999756 .45274354 .05999756 .41574098V.047958375C.05999756 .011978149 .070999149 0 .10798645 0H.147995C.18598938 0 .19599915 .0129852299 .19599915 .047958375V.26882936C.19599915 .35577394 .2539978 .39674378 .30599977 .39674378 .35398866 .39674378 .3639984 .37376405 .3639984 .32278443V.047958375C.3639984 .015975953 .37098695 0 .4119873 0H.45199586C.48999024 0 .5 .0129852299 .5 .047958375V.047470094Z"/>
</defs>
<path transform="matrix(1.00002,0,0,-1,30.83202,204.24802)" stroke-width=".3985" stroke-linecap="butt" stroke-miterlimit="10" stroke-linejoin="miter" fill="none" stroke="#bfbfbf" d="M0 0H295.32823M0 20.21558H295.32823M0 40.43117H295.32823M0 60.64676H295.32823M0 80.86235H295.32823M0 101.07794H295.32823M0 121.29353H295.32823M0 141.50913H295.32823M0 161.72472H295.32823M0 181.9403H295.32823"/>
<path transform="matrix(1.00002,0,0,-1,30.83202,204.24802)" stroke-width=".19925" stroke-linecap="butt" stroke-miterlimit="10" stroke-linejoin="miter" fill="none" stroke="#7f807f" d="M0-4.25262V0M42.18974-4.25262V0M84.37949-4.25262V0M126.56923-4.25262V0M168.75897-4.25262V0M210.94873-4.25262V0M253.13848-4.25262V0M295.32823-4.25262V0"/>
<path transform="matrix(1.00002,0,0,-1,30.83202,204.24802)" stroke-width=".19925" stroke-linecap="butt" stroke-miterlimit="10" stroke-linejoin="miter" fill="none" stroke="#7f807f" d="M0 0H4.25201M0 20.21558H4.25201M0 40.43117H4.25201M0 60.64676H4.25201M0 80.86235H4.25201M0 101.07794H4.25201M0 121.29353H4.25201M0 141.50913H4.25201M0 161.72472H4.25201M0 181.9403H4.25201"/>
<path transform="matrix(1.00002,0,0,-1,30.83202,204.24802)" stroke-width=".3985" stroke-linecap="butt" stroke-miterlimit="10" stroke-linejoin="miter" fill="none" stroke="#000000" d="M0 0H295.32823"/>
<path transform="matrix(1.00002,0,0,-1,30.83202,204.24802)" stroke-width=".3985" stroke-linecap="butt" stroke-miterlimit="10" stroke-linejoin="miter" fill="none" stroke="#000000" d="M0 0V181.9403"/>
<use data-text="6" xlink:href="#font_1_5" transform="matrix(9.962799,0,0,-9.9626,28.34097,218.44101)"/>
<use data-text="8" xlink:href="#font_1_6" transform="matrix(9.962799,0,0,-9.9626,70.531818,218.44101)"/>
<use data-text="1" xlink:href="#font_1_2" transform="matrix(9.962799,0,0,-9.9626,110.23161,218.44101)"/>
<use data-text="0" xlink:href="#font_1_1" transform="matrix(9.962799,0,0,-9.9626,115.21301,218.44101)"/>
<use data-text="1" xlink:href="#font_1_2" transform="matrix(9.962799,0,0,-9.9626,152.42246,218.44101)"/>
<use data-text="2" xlink:href="#font_1_3" transform="matrix(9.962799,0,0,-9.9626,157.40384,218.44101)"/>
<use data-text="1" xlink:href="#font_1_2" transform="matrix(9.962799,0,0,-9.9626,194.61331,218.44101)"/>
<use data-text="4" xlink:href="#font_1_4" transform="matrix(9.962799,0,0,-9.9626,199.5947,218.44101)"/>
<use data-text="1" xlink:href="#font_1_2" transform="matrix(9.962799,0,0,-9.9626,236.80313,218.44101)"/>
<use data-text="6" xlink:href="#font_1_5" transform="matrix(9.962799,0,0,-9.9626,241.78455,218.44101)"/>
<use data-text="1" xlink:href="#font_1_2" transform="matrix(9.962799,0,0,-9.9626,278.994,218.44101)"/>
<use data-text="8" xlink:href="#font_1_6" transform="matrix(9.962799,0,0,-9.9626,283.9754,218.44101)"/>
<use data-text="2" xlink:href="#font_1_3" transform="matrix(9.962799,0,0,-9.9626,321.18486,218.44101)"/>
<use data-text="0" xlink:href="#font_1_1" transform="matrix(9.962799,0,0,-9.9626,326.16624,218.44101)"/>
<use data-text="0" xlink:href="#font_1_1" transform="matrix(9.962799,0,0,-9.9626,22.330849,207.45801)"/>
<use data-text="2" xlink:href="#font_1_3" transform="matrix(9.962799,0,0,-9.9626,22.330849,187.24301)"/>
<use data-text="4" xlink:href="#font_1_4" transform="matrix(9.962799,0,0,-9.9626,22.330849,167.02701)"/>
<use data-text="6" xlink:href="#font_1_5" transform="matrix(9.962799,0,0,-9.9626,22.330849,146.81102)"/>
<use data-text="8" xlink:href="#font_1_6" transform="matrix(9.962799,0,0,-9.9626,22.330849,126.596019)"/>
<use data-text="1" xlink:href="#font_1_2" transform="matrix(9.962799,0,0,-9.9626,17.348748,106.38002)"/>
<use data-text="0" xlink:href="#font_1_1" transform="matrix(9.962799,0,0,-9.9626,22.330147,106.38002)"/>
<use data-text="1" xlink:href="#font_1_2" transform="matrix(9.962799,0,0,-9.9626,17.348748,86.165019)"/>
<use data-text="2" xlink:href="#font_1_3" transform="matrix(9.962799,0,0,-9.9626,22.330147,86.165019)"/>
<use data-text="1" xlink:href="#font_1_2" transform="matrix(9.962799,0,0,-9.9626,17.348748,65.94902)"/>
<use data-text="4" xlink:href="#font_1_4" transform="matrix(9.962799,0,0,-9.9626,22.330147,65.94902)"/>
<use data-text="1" xlink:href="#font_1_2" transform="matrix(9.962799,0,0,-9.9626,17.348748,45.73401)"/>
<use data-text="6" xlink:href="#font_1_5" transform="matrix(9.962799,0,0,-9.9626,22.330147,45.73401)"/>
<use data-text="1" xlink:href="#font_1_2" transform="matrix(9.962799,0,0,-9.9626,17.348748,25.51802)"/>
<use data-text="8" xlink:href="#font_1_6" transform="matrix(9.962799,0,0,-9.9626,22.330147,25.51802)"/>
<path transform="matrix(1.00002,0,0,-1,30.83202,204.24802)" d="M42.18974 0H84.37948V171.83252H42.18974ZM84.37949 0H126.56923V70.75456H84.37949ZM126.56923 0H168.75897V141.50913H126.56923ZM168.75897 0H210.94872V101.07794H168.75897ZM210.94873 0H253.13848V161.72472H210.94873Z" fill="#1175a7"/>
<path transform="matrix(1.00002,0,0,-1,30.83202,204.24802)" stroke-width=".3985" stroke-linecap="butt" stroke-miterlimit="10" stroke-linejoin="miter" fill="none" stroke="#bfbfbf" d="M42.18974 0H84.37948V171.83252H42.18974ZM84.37949 0H126.56923V70.75456H84.37949ZM126.56923 0H168.75897V141.50913H126.56923ZM168.75897 0H210.94872V101.07794H168.75897ZM210.94873 0H253.13848V161.72472H210.94873Z"/>
<use data-text="P" xlink:href="#font_2_83" transform="matrix(9.962799,0,0,-9.9626,133.69608,232.75302)"/>
<use data-text="l" xlink:href="#font_2_72" transform="matrix(9.962799,0,0,-9.9626,140.06232,232.75302)"/>
<use data-text="a" xlink:href="#font_2_28" transform="matrix(9.962799,0,0,-9.9626,142.44342,232.75302)"/>
<use data-text="n" xlink:href="#font_2_77" transform="matrix(9.962799,0,0,-9.9626,147.23552,232.75302)"/>
<use data-text="t" xlink:href="#font_2_105" transform="matrix(9.962799,0,0,-9.9626,152.38629,232.75302)"/>
<use data-text="H" xlink:href="#font_2_62" transform="matrix(9.962799,0,0,-9.9626,159.30046,232.75302)"/>
<use data-text="e" xlink:href="#font_2_50" transform="matrix(9.962799,0,0,-9.9626,166.35413,232.75302)"/>
<use data-text="i" xlink:href="#font_2_66" transform="matrix(9.962799,0,0,-9.9626,170.7776,232.75302)"/>
<use data-text="g" xlink:href="#font_2_59" transform="matrix(9.962799,0,0,-9.9626,173.15872,232.75302)"/>
<use data-text="h" xlink:href="#font_2_63" transform="matrix(9.962799,0,0,-9.9626,178.14012,232.75302)"/>
<use data-text="t" xlink:href="#font_2_105" transform="matrix(9.962799,0,0,-9.9626,183.2909,232.75302)"/>
<use data-text="(" xlink:href="#font_2_85" transform="matrix(9.962799,0,0,-9.9626,190.20508,232.75302)"/>
<use data-text="i" xlink:href="#font_2_66" transform="matrix(9.962799,0,0,-9.9626,194.08061,232.75302)"/>
<use data-text="n" xlink:href="#font_2_77" transform="matrix(9.962799,0,0,-9.9626,196.46172,232.75302)"/>
<use data-text="c" xlink:href="#font_2_43" transform="matrix(9.962799,0,0,-9.9626,201.61249,232.75302)"/>
<use data-text="h" xlink:href="#font_2_63" transform="matrix(9.962799,0,0,-9.9626,206.03597,232.75302)"/>
<use data-text="e" xlink:href="#font_2_50" transform="matrix(9.962799,0,0,-9.9626,211.18674,232.75302)"/>
<use data-text="s" xlink:href="#font_2_98" transform="matrix(9.962799,0,0,-9.9626,215.61023,232.75302)"/>
<use data-text=")" xlink:href="#font_2_86" transform="matrix(9.962799,0,0,-9.9626,219.42598,232.75302)"/>
<use data-text="F" xlink:href="#font_2_54" transform="matrix(0,-9.9626,-9.962799,-0,8.466568,134.33402)"/>
<use data-text="r" xlink:href="#font_2_96" transform="matrix(0,-9.9626,-9.962799,-0,8.466568,128.9343)"/>
<use data-text="e" xlink:href="#font_2_50" transform="matrix(0,-9.9626,-9.962799,-0,8.466568,125.52708)"/>
<use data-text="q" xlink:href="#font_2_91" transform="matrix(0,-9.9626,-9.962799,-0,8.466568,121.10368)"/>
<use data-text="u" xlink:href="#font_2_109" transform="matrix(0,-9.9626,-9.962799,-0,8.466568,115.95302)"/>
<use data-text="e" xlink:href="#font_2_50" transform="matrix(0,-9.9626,-9.962799,-0,8.466568,110.80235)"/>
<use data-text="n" xlink:href="#font_2_77" transform="matrix(0,-9.9626,-9.962799,-0,8.466568,106.37896)"/>
<use data-text="c" xlink:href="#font_2_43" transform="matrix(0,-9.9626,-9.962799,-0,8.466568,101.228298)"/>
<use data-text="y" xlink:href="#font_2_118" transform="matrix(0,-9.9626,-9.962799,-0,8.466568,96.8049)"/>
<use data-text="H" xlink:href="#font_3_62" transform="matrix(11.95544,0,0,-11.9552,107.40555,10.347015)"/>
<use data-text="e" xlink:href="#font_3_50" transform="matrix(11.95544,0,0,-11.9552,116.89818,10.347015)"/>
<use data-text="i" xlink:href="#font_3_66" transform="matrix(11.95544,0,0,-11.9552,123.0074,10.347015)"/>
<use data-text="g" xlink:href="#font_3_59" transform="matrix(11.95544,0,0,-11.9552,126.06799,10.347015)"/>
<use data-text="h" xlink:href="#font_3_63" transform="matrix(11.95544,0,0,-11.9552,132.6435,10.347015)"/>
<use data-text="t" xlink:href="#font_3_105" transform="matrix(11.95544,0,0,-11.9552,139.3505,10.347015)"/>
<use data-text="s" xlink:href="#font_3_98" transform="matrix(11.95544,0,0,-11.9552,144.1805,10.347015)"/>
<use data-text="o" xlink:href="#font_3_81" transform="matrix(11.95544,0,0,-11.9552,153.61334,10.347015)"/>
<use data-text="f" xlink:href="#font_3_55" transform="matrix(11.95544,0,0,-11.9552,160.18885,10.347015)"/>
<use data-text="T" xlink:href="#font_3_104" transform="matrix(11.95544,0,0,-11.9552,168.59352,10.347015)"/>
<use data-text="o" xlink:href="#font_3_81" transform="matrix(11.95544,0,0,-11.9552,176.26892,10.347015)"/>
<use data-text="m" xlink:href="#font_3_75" transform="matrix(11.95544,0,0,-11.9552,182.8444,10.347015)"/>
<use data-text="a" xlink:href="#font_3_28" transform="matrix(11.95544,0,0,-11.9552,193.20978,10.347015)"/>
<use data-text="t" xlink:href="#font_3_105" transform="matrix(11.95544,0,0,-11.9552,199.48638,10.347015)"/>
<use data-text="o" xlink:href="#font_3_81" transform="matrix(11.95544,0,0,-11.9552,204.31638,10.347015)"/>
<use data-text="P" xlink:href="#font_3_83" transform="matrix(11.95544,0,0,-11.9552,215.26757,10.347015)"/>
<use data-text="l" xlink:href="#font_3_72" transform="matrix(11.95544,0,0,-11.9552,223.67224,10.347015)"/>
<use data-text="a" xlink:href="#font_3_28" transform="matrix(11.95544,0,0,-11.9552,226.73284,10.347015)"/>
<use data-text="n" xlink:href="#font_3_77" transform="matrix(11.95544,0,0,-11.9552,233.00943,10.347015)"/>
<use data-text="t" xlink:href="#font_3_105" transform="matrix(11.95544,0,0,-11.9552,239.71643,10.347015)"/>
<use data-text="s" xlink:href="#font_3_98" transform="matrix(11.95544,0,0,-11.9552,244.54642,10.347015)"/>
</svg>
