<svg xmlns="http://www.w3.org/2000/svg" xmlns:xlink="http://www.w3.org/1999/xlink" xmlns:inkscape="http://www.inkscape.org/namespaces/inkscape" version="1.1" width="330" height="288" viewBox="0 0 330 288">
<defs>
<path id="font_1_27" d="M.6380005 0 .3769989 .69433596H.2889862L.027999878 0H.101989749L.1789856 .20410156H.46998597L.54599 0H.6380005M.44799806 .26010133H.19999695C.25099183 .40316773 .21398926 .29811097 .2649994 .44119264 .28599549 .5002289 .31698609 .5852661 .32398988 .62228396H.32499696C.32699586 .60827639 .33399964 .5832672 .35699464 .5172272L.44799806 .26010133Z"/>
<path id="font_1_77" d="M.43499757 0V.29804994C.43499757 .36405946 .41999818 .45507813 .2979889 .45507813 .20799256 .45507813 .15899658 .3870697 .15299988 .3790741V.45007325H.08099365V0H.15899658V.2450409C.15899658 .31105042 .18399048 .3940735 .2599945 .3940735 .35598756 .3940735 .35699464 .32305909 .35699464 .29104615V0H.43499757Z"/>
<path id="font_1_43" d="M.4149933 .040252687 .40899659 .10719299C.35798646 .067230228 .3039856 .053253175 .25299073 .053253175 .16999817 .053253175 .11399841 .1251831 .11399841 .2230835 .11399841 .3010254 .15098572 .39692689 .25698854 .39692689 .30899049 .39692689 .34298707 .38893128 .397995 .3529663L.4099884 .41792298C.35099793 .4519348 .31698609 .4609375 .2559967 .4609375 .116989139 .4609375 .035995485 .33998109 .035995485 .22209168 .035995485 .09820557 .1269989-.0107421879 .2519989-.0107421879 .30599977-.0107421879 .36099244 .003250122 .4149933 .040252687Z"/>
<path id="font_1_63" d="M.43499757 0V.29804994C.43499757 .36405946 .41999818 .45507813 .2979889 .45507813 .23599243 .45507813 .18798828 .42407228 .1559906 .3830719V.69433596H.08099365V0H.15899658V.2450409C.15899658 .31105042 .18399048 .3940735 .2599945 .3940735 .35598756 .3940735 .35699464 .32305909 .35699464 .29104615V0H.43499757Z"/>
<path id="font_1_81" d="M.46899415 .22009278C.46899415 .3539734 .36898805 .4609375 .25 .4609375 .1269989 .4609375 .02999878 .35098268 .02999878 .22009278 .02999878 .08821106 .13198853-.0107421879 .24899292-.0107421879 .36898805-.0107421879 .46899415 .09020996 .46899415 .22009278M.3909912 .23008728C.3909912 .112197879 .32299806 .053253175 .24899292 .053253175 .17999268 .053253175 .10798645 .109191898 .10798645 .23008728 .10798645 .35098268 .18399048 .39993287 .24899292 .39993287 .31900025 .39993287 .3909912 .34797669 .3909912 .23008728Z"/>
<path id="font_1_112" d="M.44599916 .44433595H.37098695L.2919922 .23617554C.2709961 .18113709 .23999024 .10006714 .23199463 .05303955H.23098755C.22499085 .08906555 .19898987 .15811157 .18899536 .18513489L.09199524 .44433595H.01399231L.18598938 0H.27398683L.44599916 .44433595Z"/>
<path id="font_1_66" d="M.1559906 0V.44433595H.08099365V0H.1559906M.1639862 .5662689V.65527346H.07499695V.5662689H.1639862Z"/>
<path id="font_1_50" d="M.4139862 .21875C.4139862 .25274659 .41299439 .32781983 .37399293 .38790895 .33299256 .4499359 .27198792 .4609375 .23599243 .4609375 .125 .4609375 .034988405 .3548584 .034988405 .22573853 .034988405 .09411621 .1309967-.0107421879 .25099183-.0107421879 .31399537-.0107421879 .37098695 .013244629 .4099884 .041244508L.4039917 .1060791C.34098817 .054244996 .2749939 .050247194 .2519989 .050247194 .17199707 .050247194 .10798645 .121032718 .10499573 .21875H.4139862M.35699464 .27374269H.10998535C.12599182 .34985353 .1789856 .39993287 .23599243 .39993287 .28799439 .39993287 .34399415 .36587525 .35699464 .27374269Z"/>
<path id="font_1_98" d="M.3600006 .12817383C.3600006 .18313599 .32299806 .21710205 .32099916 .22009278 .28199769 .25506593 .25498963 .26106263 .20498657 .27005006 .1499939 .28103639 .10398865 .29103089 .10398865 .33998109 .10398865 .40193177 .17599488 .40193177 .18899536 .40193177 .22099304 .40193177 .27398683 .39793397 .33099366 .3639679L.34298707 .42892457C.29100038 .45292665 .25 .4609375 .19898987 .4609375 .17399597 .4609375 .032989503 .4609375 .032989503 .32998658 .032989503 .28103639 .06199646 .24906922 .08699036 .23008728 .117996219 .20809937 .13999939 .20411682 .19499207 .19311524 .23098755 .18612671 .2889862 .1741333 .2889862 .1211853 .2889862 .052246095 .20999146 .052246095 .19499207 .052246095 .11399841 .052246095 .057998659 .08921814 .039993287 .10121155L.027999878 .0332489C.05999756 .01725769 .114990238-.0107421879 .19599915-.0107421879 .21398926-.0107421879 .2689972-.0107421879 .31199647 .021255494 .34298707 .04525757 .3600006 .08522034 .3600006 .12817383Z"/>
<path id="font_1_34" d="M.6100006 .18806458C.6100006 .27511598 .522995 .3461609 .4169922 .36317445 .5079956 .3861847 .58299258 .44421388 .58299258 .5202637 .58299258 .61231997 .47599793 .69433596 .33399964 .69433596H.09700012V0H.36099244C.5049896 .000076293948 .6100006 .09007263 .6100006 .18806458M.5049896 .5192108C.5049896 .45913697 .43399049 .3910675 .29599 .3910675H.17999268V.6383209H.30599977C.4169922 .6380768 .5049896 .58506777 .5049896 .5190735V.5192108M.5289917 .18902588C.5289917 .11401367 .44099427 .055999757 .33299256 .055999757H.17999268V.33007813H.32499696C.43099977 .32998658 .5289917 .2689972 .5289917 .18899536V.18902588Z"/>
<path id="font_1_28" d="M.40899659 .00024414063V.28903199C.40899659 .39094544 .33599855 .4609375 .24398804 .4609375 .1789856 .4609375 .13398743 .44493104 .08699036 .41792298L.09298706 .3519745C.14498902 .38894654 .19499207 .40193177 .24398804 .40193177 .29100038 .40193177 .33099366 .361969 .33099366 .2880249V.24505615C.18099976 .24305725 .053985597 .20106507 .053985597 .11317444 .053985597 .07022095 .08099365-.0107421879 .16799927-.0107421879 .18199158-.0107421879 .27598573-.008743286 .33399964 .036254884V.00024414063H.40899659M.33099366 .13214112C.33099366 .11317444 .33099366 .0881958 .29699708 .069229129 .2679901 .051254274 .22999573 .050247194 .21899414 .050247194 .17098999 .050247194 .12599182 .07322693 .12599182 .11515808 .12599182 .18507385 .28799439 .19206238 .33099366 .19406128V.13214112Z"/>
<path id="font_1_42" d="M.58699038 .04525757 .58099368 .114227298C.5519867 .09423828 .522995 .07524109 .4889984 .06524658 .45700074 .054244996 .42199708 .053253175 .3880005 .053253175 .32299806 .053253175 .2639923 .08824158 .22299195 .13922119 .1769867 .19819641 .15499878 .27217103 .15499878 .3471527 .15499878 .42211915 .1769867 .49710084 .22299195 .55607607 .2639923 .60705569 .32299806 .64204409 .3880005 .64204409 .41799928 .64204409 .44898988 .63905337 .47799684 .63005068 .5079956 .62106326 .5359955 .60606387 .56199648 .58807376L.57598879 .67004397C.54599 .6820526 .5149994 .6920471 .48298646 .6980438 .45199586 .7040405 .41999818 .7060547 .3880005 .7060547 .2999878 .7060547 .21899414 .66604617 .1599884 .60105898 .09799194 .53108218 .06599426 .4401245 .06599426 .3471527 .06599426 .2541809 .09799194 .16320801 .1599884 .09423828 .21899414 .029251099 .2999878-.0107421879 .3880005-.0107421879 .4229889-.0107421879 .45799256-.009750366 .49198915 .00024414063 .526001 .009246826 .5569916 .027252198 .58699038 .04525757Z"/>
<path id="font_1_83" d="M.58200076 .4921875C.58200076 .59928897 .48298646 .69433596 .34498597 .69433596H.09599304V0H.18499756V.2890625H.35198976C.47599793 .2890625 .58200076 .38008119 .58200076 .4921875M.5009918 .4921875C.5009918 .41311646 .43798829 .34706117 .32299806 .34706117H.18199158V.6383209H.32299806C.43299867 .6383209 .5009918 .5772705 .5009918 .4921875Z"/>
<path id="font_1_84" d="M.47999574 .22315979C.47999574 .34309388 .4169922 .45507813 .32099916 .45507813 .26098634 .45507813 .20298767 .43406678 .15699768 .3950653V.44407655H.08198547V-.19335938H.1599884V.04624939C.19099427 .01725769 .23498535-.0107421879 .29499818-.0107421879 .3919983-.0107421879 .47999574 .0872345 .47999574 .22315979M.4019928 .22315979C.4019928 .12020874 .33099366 .050247194 .2559967 .050247194 .21699524 .050247194 .18998719 .070236209 .16999817 .097229007 .1599884 .112213138 .1599884 .114212039 .1599884 .13220215V.33309938C.18399048 .36808778 .22299195 .3910675 .2659912 .3910675 .34199525 .3910675 .4019928 .31510926 .4019928 .22315979Z"/>
<path id="font_1_96" d="M.32699586 .38806153V.45507813C.23799134 .45407105 .18299866 .4050598 .1519928 .35905458V.45007325H.08198547V0H.15699768V.21403504C.15699768 .31404115 .22898865 .38606263 .32699586 .38806153Z"/>
<path id="font_1_74" d="M.7739868 0V.69433596H.6599884L.5299988 .35516358C.49499513 .26411439 .44799806 .14006043 .43699647 .09303284H.43598939C.43099977 .11404419 .4189911 .15106201 .4039917 .19308472L.24699402 .60728457 .21299744 .69433596H.099990848V0H.17799378V.62028506H.1789856C.18499756 .5882721 .22499085 .47921754 .25099183 .41119386L.39898683 .022003174H.47200013L.6049957 .37016297 .6529999 .4972229C.6629944 .5262451 .6899872 .59828189 .69499209 .6212921L.69599917 .62028506V0H.7739868Z"/>
<path id="font_1_109" d="M.43499757 .00024414063V.44433595H.35699464V.15426636C.35699464 .07925415 .30099488 .04425049 .23699951 .04425049 .1659851 .04425049 .15899658 .070251468 .15899658 .11326599V.44433595H.08099365V.10926819C.08099365 .037246705 .10398865-.0107421879 .18699646-.0107421879 .23999024-.0107421879 .31098939 .0052490236 .3600006 .04824829V.00024414063H.43499757Z"/>
<path id="font_1_75" d="M.71299746 0V.29804994C.71299746 .36506654 .69699099 .45507813 .57598879 .45507813 .5159912 .45507813 .46398927 .427063 .4269867 .37306214 .40098573 .44906617 .33099366 .45507813 .29899598 .45507813 .22698975 .45507813 .17999268 .41407777 .15299988 .37806703V.45007325H.08099365V0H.15899658V.2450409C.15899658 .31304933 .18598938 .3940735 .2599945 .3940735 .35299684 .3940735 .35798646 .3290558 .35798646 .29104615V0H.43598939V.2450409C.43598939 .31304933 .46299745 .3940735 .5369873 .3940735 .6299896 .3940735 .6349945 .3290558 .6349945 .29104615V0H.71299746Z"/>
<path id="font_1_80" d="M.67900088 .34466554C.67900088 .5547638 .5339966 .7158203 .36799623 .7158203 .19799805 .7158203 .055999757 .5527649 .055999757 .34466554 .055999757 .13256836 .20399475-.022460938 .36698915-.022460938 .5339966-.022460938 .67900088 .13456726 .67900088 .34466554M.58999636 .35968019C.58999636 .1645813 .48199464 .042526246 .36799623 .042526246 .25 .042526246 .14498902 .16758728 .14498902 .35968019 .14498902 .5427704 .25498963 .6518097 .36698915 .6518097 .48298646 .6518097 .58999636 .5387573 .58999636 .35968019Z"/>
<path id="font_1_72" d="M.1559906 0V.69433596H.08099365V0H.1559906Z"/>
<path id="font_1_97" d="M.49899293 .18856812C.49899293 .25358583 .46798707 .30158998 .44599916 .32559205 .39898683 .3755951 .3659973 .38459779 .27398683 .40760804 .21598816 .4216156 .19999695 .42562867 .16999817 .4516449 .16299439 .45765687 .1349945 .48667909 .1349945 .53071597 .1349945 .58976748 .18899536 .6498108 .2809906 .6498108 .36499024 .6498108 .41299439 .6167908 .44999696 .5857544L.46499635 .66581729C.4099884 .69880679 .35499574 .7158203 .28199769 .7158203 .14299011 .7158203 .055999757 .6177826 .055999757 .5187073 .055999757 .47566224 .069992069 .43362428 .10998535 .39160157 .1519928 .34658814 .19599915 .33459474 .25498963 .32058717 .33999635 .29959107 .34999085 .29658509 .37799073 .27157594 .397995 .25457765 .41999818 .22157288 .41999818 .17855835 .41999818 .11254883 .36499024 .046524049 .27398683 .046524049 .23298645 .046524049 .14299011 .056533815 .05899048 .12754822L.04399109 .046524049C.13198853-.008468628 .21199036-.022460938 .2749939-.022460938 .40699769-.022460938 .49899293 .07853699 .49899293 .18856812Z"/>
<path id="font_1_59" d="M.4850006 .39207459 .47399903 .45507813C.4039917 .45507813 .34599305 .43606568 .31599427 .4230652 .29499818 .44006349 .26098634 .45507813 .22099304 .45507813 .1349945 .45507813 .06199646 .3830719 .06199646 .29206849 .06199646 .25506593 .07499695 .21907044 .09498596 .19306946 .06599426 .15206909 .06599426 .11306763 .06599426 .108062747 .06599426 .08207703 .07499695 .05307007 .09199524 .032073976 .039993287 .0010681152 .027999878-.04496765 .027999878-.070999149 .027999878-.14605713 .1269989-.20605469 .24899292-.20605469 .37199403-.20605469 .47099305-.14706421 .47099305-.069992069 .47099305 .06906128 .3039856 .06906128 .2649994 .06906128H.1769867C.1639862 .06906128 .11898804 .06906128 .11898804 .121917728 .11898804 .13290406 .12298584 .14889527 .12998963 .15789795 .15098572 .14289856 .18399048 .12890625 .22099304 .12890625 .31098939 .12890625 .3809967 .20289612 .3809967 .29190064 .3809967 .3399048 .35899354 .3768921 .34799195 .39190675L.35198976 .39089967C.37399293 .39089967 .4019928 .39489747 .42599488 .39489747 .44400025 .39489747 .4850006 .39190675 .4850006 .39190675V.39207459M.31098939 .29190064C.31098939 .2138977 .2639923 .18589783 .22099304 .18589783 .18399048 .1860199 .13198853 .20903015 .13198853 .29203797 .13198853 .37506105 .18399048 .3980713 .22099304 .3980713 .2639923 .3980713 .31098939 .37005616 .31098939 .29203797V.29190064M.40098573-.07203674C.40098573-.11605835 .33198548-.14906311 .25-.14906311 .16899109-.14894104 .09799194-.11793518 .09799194-.07093811 .09799194-.06793213 .09799194-.0029296876 .17599488-.0029296876H.2659912C.28799439-.0029296876 .40098573-.0029296876 .40098573-.07192993V-.07203674Z"/>
<path id="font_2_1" d="M.45999146 .31976319C.45999146 .39982606 .45498658 .47988893 .41999818 .5539398 .37399293 .65000918 .2919922 .6660156 .25 .6660156 .18998719 .6660156 .116989139 .64001467 .07598877 .54693606 .04399109 .47789 .038986207 .39982606 .038986207 .31976319 .038986207 .24472046 .042999269 .15464783 .083999637 .07859802 .1269989-.0024719239 .19999695-.022460938 .24899292-.022460938 .30299378-.022460938 .3789978-.0014648438 .4229889 .09359741 .45498658 .16265869 .45999146 .2407074 .45999146 .31976319M.24899292-.00047302247C.20999146-.00047302247 .15098572 .024551392 .1329956 .12062073 .12199402 .18066406 .12199402 .2727356 .12199402 .3317871 .12199402 .39582826 .12199402 .46188355 .12998963 .5159149 .14898682 .63500979 .22399903 .64401248 .24899292 .64401248 .28199769 .64401248 .34799195 .6259918 .36698915 .52693179 .3769989 .47088624 .3769989 .39482118 .3769989 .3317871 .3769989 .25672914 .3769989 .18867493 .3659973 .12461853 .35099793 .029556275 .2939911-.00047302247 .24899292-.00047302247Z"/>
<path id="font_2_5" d="M.44898988 .20022583C.44898988 .3193512 .36698915 .41944886 .25898744 .41944886 .21099854 .41944886 .16799927 .40345765 .13198853 .36842347V.5637665C.1519928 .5577698 .18499756 .55078127 .21699524 .55078127 .33999635 .55078127 .4099884 .6417694 .4099884 .6547699 .4099884 .6607666 .40699769 .6657715 .3999939 .6657715 .39898683 .6657715 .39698792 .6657715 .3919983 .66278079 .37199403 .6537781 .32299806 .6337738 .2559967 .6337738 .21598816 .6337738 .16999817 .6407776 .12298584 .6617737 .114990238 .66477969 .11299133 .66477969 .11099243 .66477969 .100997928 .66477969 .100997928 .6567688 .100997928 .6407776V.34439088C.100997928 .32637025 .100997928 .31835938 .114990238 .31835938 .12199402 .31835938 .12399292 .32136537 .12799073 .32736207 .13899231 .3433838 .17599488 .39746095 .25698854 .39746095 .30899049 .39746095 .33399964 .35139466 .34199525 .33337403 .35798646 .29632569 .3600006 .25727845 .3600006 .20722962 .3600006 .17222595 .3600006 .11222839 .33599855 .07035828 .31199647 .031463624 .2749939 .0055389406 .22898865 .0055389406 .1559906 .0055389406 .09899902 .058380128 .08198547 .11723328 .084991458 .1162262 .08799744 .115234378 .09899902 .115234378 .13198853 .115234378 .14898682 .14022827 .14898682 .16423035 .14898682 .18823242 .13198853 .21322632 .09899902 .21322632 .084991458 .21322632 .049987794 .20622254 .049987794 .16023255 .049987794 .07434082 .11898804-.022460938 .23098755-.022460938 .34700013-.022460938 .44898988 .073349 .44898988 .20022583Z"/>
<path id="font_2_2" d="M.2939911 .64004519C.2939911 .66400149 .2939911 .6660156 .2709961 .6660156 .20899964 .60227969 .12098694 .60227969 .08898926 .60227969V.57128909C.10899353 .57128909 .16799927 .57128909 .21998596 .5972748V.07902527C.21998596 .042999269 .21699524 .0309906 .1269989 .0309906H.09498596V0C.12998963 .0029907227 .21699524 .0029907227 .25698854 .0029907227 .29699708 .0029907227 .38398744 .0029907227 .4189911 0V.0309906H.3869934C.29699708 .0309906 .2939911 .041992189 .2939911 .07902527V.64004519Z"/>
<path id="font_2_3" d="M.1269989 .07699585 .23298645 .18003845C.3889923 .31811524 .44898988 .3721466 .44898988 .47216798 .44898988 .5860901 .35899354 .6660156 .23699951 .6660156 .12399292 .6660156 .049987794 .57411196 .049987794 .48516847 .049987794 .4291687 .099990848 .4291687 .102996829 .4291687 .11999512 .4291687 .15499878 .44117738 .15499878 .48217774 .15499878 .5081787 .13699341 .5341797 .101989749 .5341797 .09399414 .5341797 .09199524 .5341797 .08898926 .5331726 .11199951 .59806826 .1659851 .63500979 .22399903 .63500979 .31498719 .63500979 .35798646 .5541382 .35798646 .47216798 .35798646 .39215089 .30799867 .31311036 .25299073 .25108338L.06098938 .036987306C.049987794 .025985718 .049987794 .023986817 .049987794 0H.42099L.44898988 .17404175H.42399598C.4189911 .14402771 .4119873 .1000061 .4019928 .084991458 .394989 .07699585 .32899476 .07699585 .30699159 .07699585H.1269989Z"/>
<path id="font_2_7" d="M.47599793 .609375C.4850006 .6213684 .4850006 .62338259 .4850006 .64437869H.24198914C.11999512 .64437869 .117996219 .65737918 .11399841 .67637637H.08898926L.055999757 .4702301H.08099365C.083999637 .48625184 .09298706 .5493469 .10598755 .56137087 .11299133 .5673828 .19099427 .5673828 .20399475 .5673828H.41099549C.3999939 .5513611 .32099916 .4421997 .29899598 .40914918 .20899964 .27394105 .17599488 .1347351 .17599488 .032577516 .17599488 .022567749 .17599488-.022460938 .22200012-.022460938 .2679901-.022460938 .2679901 .022567749 .2679901 .032577516V.08366394C.2679901 .13873291 .2709961 .19381714 .2789917 .24790955 .2829895 .27093507 .29699708 .35707093 .34098817 .41915895L.47599793 .609375Z"/>
<path id="font_2_4" d="M.2939911 .16503906V.07800293C.2939911 .041992189 .2919922 .0309906 .21798706 .0309906H.19699097V0C.23799134 .0029907227 .2899933 .0029907227 .33198548 .0029907227 .37399293 .0029907227 .4269867 .0029907227 .46798707 0V.0309906H.44699098C.37298585 .0309906 .37098695 .041992189 .37098695 .07800293V.16503906H.47099305V.19602967H.37098695V.65075686C.37098695 .67074587 .37098695 .6767578 .35499574 .6767578 .34599305 .6767578 .34298707 .6767578 .33499146 .66474917L.027999878 .19602967V.16503906H.2939911M.2999878 .19602967H.055999757L.2999878 .5688019V.19602967Z"/>
<path id="font_2_6" d="M.13198853 .327713V.35173036C.13198853 .6047821 .2559967 .64100649 .30699159 .64100649 .33099366 .64100649 .37298585 .634964 .394989 .6007538 .37998963 .6007538 .33999635 .6007538 .33999635 .5557556 .33999635 .524765 .3639984 .5097656 .38598634 .5097656 .4019928 .5097656 .43199159 .51875308 .43199159 .5577545 .43199159 .6178589 .3880005 .6660156 .30499269 .6660156 .1769867 .6660156 .041992189 .5367584 .041992189 .31570436 .041992189 .048553468 .1579895-.022460938 .25099183-.022460938 .3619995-.022460938 .45700074 .07156372 .45700074 .2036438 .45700074 .33070375 .36799623 .4267578 .25698854 .4267578 .18899536 .4267578 .1519928 .37573243 .13198853 .327713M.25099183 .0055389406C.18798828 .0055389406 .1579895 .06556702 .1519928 .080566409 .13398743 .127594 .13398743 .2076416 .13398743 .22564698 .13398743 .30369569 .1659851 .40374757 .2559967 .40374757 .27198792 .40374757 .31799317 .40374757 .34899903 .34172059 .36698915 .30470277 .36698915 .2536621 .36698915 .20463562 .36698915 .15661621 .36698915 .10658264 .34999085 .0705719 .31999208 .010528564 .27398683 .0055389406 .25099183 .0055389406Z"/>
<path id="font_1_120" d="M.4019928 0V.06199646H.25498963C.24299622 .06199646 .23098755 .06098938 .21899414 .06098938H.13398743L.3999939 .40533448V.44433595H.041992189V.3853302H.18099976C.19299317 .3853302 .20498657 .38632203 .21699524 .38632203H.29499818L.027999878 .040985109V0H.4019928Z"/>
<path id="font_1_104" d="M.6439972 .6230469V.68803408H.035995485V.6230469H.16999817C.18199158 .6230469 .19400025 .6240387 .20599365 .6240387H.29599V0H.3849945V.6240387H.47399903C.48599244 .6240387 .49798585 .6230469 .5099945 .6230469H.6439972Z"/>
<path id="font_1_54" d="M.526001 .6263275V.69132998H.09399414V0H.18299866V.31497193H.4850006V.37597657H.18299866V.6273346H.31399537C.32598878 .6273346 .33799745 .6263275 .34999085 .6263275H.526001Z"/>
<path id="font_1_91" d="M.43399049-.19335938V.45507813H.35899354V.3870697C.34899903 .4000702 .2999878 .45507813 .22200012 .45507813 .12199402 .45507813 .035995485 .35609437 .035995485 .22116089 .035995485 .09422302 .10899353-.0107421879 .20498657-.0107421879 .26098634-.0107421879 .31399537 .012252808 .35598756 .050247194V-.19335938H.43399049M.35899354 .14019776C.35899354 .12220764 .35899354 .12020874 .34899903 .10722351 .32299806 .06724548 .28599549 .050247194 .25 .050247194 .17399597 .050247194 .11399841 .12820435 .11399841 .22116089 .11399841 .32310487 .18598938 .3910675 .25898744 .3910675 .32798768 .3910675 .35899354 .32009889 .35899354 .28012086V.14019776Z"/>
<path id="font_1_118" d="M.44599916 .44433595H.37098695C.24099732 .12605286 .23899842 .08001709 .23799134 .056991579H.23699951C.23098755 .124053958 .15098572 .31021119 .14698792 .31921388L.09298706 .44433595H.01399231L.20799256 0 .17199707-.09005737C.1459961-.14808655 .1289978-.14808655 .114990238-.14808655 .09899902-.14808655 .066986087-.14408875 .036987306-.13208008L.042999269-.19708252C.06498718-.2020874 .09298706-.20507813 .114990238-.20507813 .1499939-.20483399 .18699646-.19282532 .22799683-.09082031L.44599916 .44433595Z"/>
<path id="font_3_54" d="M.56399539 .63539126V.6434021C.56399539 .6753998 .5569916 .69140627 .5159912 .69140627H.13899231C.102996829 .69140627 .09098816 .68040469 .09098816 .6434021V.048080446C.09098816 .012008667 .101989749 0 .13899231 0H.18998719C.22799683 0 .23799134 .013015747 .23799134 .048080446V.2995453H.46998597C.5009918 .2995453 .5179901 .30654908 .5179901 .34654237 .5179901 .38354493 .5049896 .3935547 .46998597 .3935547H.23799134V.59039309H.2809906L.5069885 .58740237C.54100039 .58740237 .56399539 .58740237 .56399539 .63539126Z"/>
<path id="font_3_28" d="M.47399903 .04824829V.31578065C.47399903 .4736023 .32199098 .47460938 .27198792 .47460938 .22499085 .47460938 .1749878 .4705963 .10798645 .44259645 .08699036 .433609 .08198547 .43060304 .08198547 .41960145 .08198547 .41259767 .08799744 .3547058 .08898926 .34672547 .08999634 .34072877 .09498596 .33573915 .101989749 .33573915 .10699463 .33573915 .10998535 .33872987 .11299133 .34172059 .1559906 .38664247 .20599365 .40859986 .2679901 .40859986 .32199098 .40859986 .33799745 .3756714 .33799745 .31677247V.2818451C.30299378 .2818451 .040985109 .2798462 .040985109 .13311768 .040985109 .06324768 .09700012-.0107421879 .18499756-.0107421879 .21899414-.0107421879 .2939911-.00074768069 .34098817 .068237308V.04824829C.34098817 .01625061 .34799195 .00024414063 .3889923 .00024414063H.42599488C.46398927 .00024414063 .47399903 .013244629 .47399903 .04824829M.33799745 .15408325C.33799745 .06124878 .24299622 .06124878 .23999024 .06124878 .19799805 .06124878 .17098999 .09718323 .17098999 .13511658 .17098999 .23292542 .30999757 .23991394 .33799745 .24092102V.15408325Z"/>
<path id="font_3_112" d="M.47299195 .42999269C.47299195 .4580078 .44799806 .4580078 .43299867 .4580078H.4119873C.36999513 .4580078 .35899354 .44299317 .34999085 .4149933L.25099183 .11299133 .1519928 .4149933C.14498902 .43600465 .13798523 .4580078 .08999634 .4580078H.06599426C.050994874 .4580078 .025985718 .4580078 .025985718 .42999269 .025985718 .42700196 .025985718 .42500306 .0309906 .41099549L.1499939 .041992189C.1639862 0 .19499207 0 .21299744 0H.28599549C.3039856 0 .33499146 0 .34899903 .041992189L.46798707 .41099549C.47299195 .42500306 .47299195 .42700196 .47299195 .42999269Z"/>
<path id="font_3_81" d="M.5179901 .22494507C.5179901 .3886261 .43798829 .47460938 .2749939 .47460938 .10798645 .47460938 .0309906 .38563539 .0309906 .22494507 .0309906 .06225586 .116989139-.0107421879 .27398683-.0107421879 .43099977-.0107421879 .5179901 .06124878 .5179901 .22494507M.38198854 .23692322C.38198854 .15808106 .38198854 .06724548 .2749939 .06724548 .16699219 .06724548 .16699219 .15707398 .16699219 .23692322 .16699219 .31376649 .16699219 .40260316 .27398683 .40260316 .38198854 .40260316 .38198854 .31477357 .38198854 .23692322Z"/>
<path id="font_3_96" d="M.35598756 .39486695V.441864C.35598756 .46185304 .35598756 .4688568 .33799745 .4688568 .30999757 .4688568 .23699951 .4588623 .18998719 .3508606H.18899536V.41586305C.18899536 .44786073 .18199158 .4638672 .14099121 .4638672H.10899353C.07299805 .4638672 .06098938 .4528656 .06098938 .41586305V.047973634C.06098938 .011993408 .07199097 0 .10899353 0H.1459961C.18399048 0 .19400025 .0129852299 .19400025 .047973634V.22990418C.19400025 .32487489 .272995 .36386109 .33599855 .3678589 .35398866 .36886598 .35598756 .36886598 .35598756 .39486695Z"/>
<path id="font_3_66" d="M.19400025 .04798889V.41000367C.19400025 .44200135 .18699646 .4580078 .1459961 .4580078H.10899353C.07299805 .4580078 .06098938 .44700624 .06098938 .41000367V.04798889C.06098938 .011993408 .07199097 0 .10899353 0H.1459961C.18399048 0 .19400025 .0129852299 .19400025 .04798889M.20098877 .6058502V.6248474C.20098877 .6568451 .19400025 .67285159 .15299988 .67285159H.101989749C.06399536 .67285159 .053985597 .6598511 .053985597 .6248474V.6058502C.053985597 .57684329 .05899048 .55784609 .101989749 .55784609H.15299988C.19499207 .55784609 .20098877 .5758362 .20098877 .6058502Z"/>
<path id="font_3_105" d="M.37298585 .04725647C.37298585 .050247194 .37098695 .057250978 .36499024 .078125 .3600006 .09811401 .35798646 .10411072 .34899903 .10411072 .34399415 .10411072 .34298707 .1031189 .33699037 .09712219 .32598878 .08911133 .29899598 .06724548 .25698854 .06724548 .23298645 .06724548 .21798706 .084121707 .21798706 .15011597V.3860016H.30699159C.31900025 .3860016 .35499574 .3860016 .35499574 .42199708 .35499574 .4580078 .31900025 .4580078 .30699159 .4580078H.21798706V.5409088C.21798706 .572876 .21099854 .5888672 .16999817 .5888672H.13899231C.102996829 .5888672 .09098816 .5778656 .09098816 .5409088V.4580078H.067993167C.056991579 .4580078 .019989014 .4580078 .019989014 .42199708 .019989014 .3860016 .055999757 .3860016 .067993167 .3860016H.08799744V.13311768C.08799744 .03225708 .12399292-.0107421879 .19299317-.0107421879 .20199585-.0107421879 .24598694-.0107421879 .2979889 .0052490236 .31498719 .010253906 .37298585 .028244019 .37298585 .04725647Z"/>
<path id="font_3_50" d="M.47898866 .25959779C.47898866 .38859559 .4189911 .47460938 .269989 .47460938 .10998535 .47525025 .0309906 .3852539 .0309906 .23324585 .0309906 .069244388 .12599182-.0107421879 .2829895-.0107421879 .32099916-.0107421879 .37799073-.0057525637 .44400025 .027252198 .46598817 .038253786 .47299195 .041244508 .47299195 .053253175 .47299195 .060256959 .46998597 .08924866 .46899415 .09724426 .46499635 .12825012 .46398927 .1292572 .45498658 .1292572 .45098878 .1292572 .44898988 .1292572 .43798829 .11924744 .3789978 .06825256 .31900025 .06124878 .2869873 .06124878 .17399597 .06085205 .1619873 .14985657 .15899658 .21386719H.43099977C.45399476 .21386719 .47898866 .21485901 .47898866 .25985719V.25959779M.36799623 .26686097H.1599884C.16299439 .32774354 .18299866 .40260316 .269989 .40260316 .34999085 .40260316 .36499024 .3447113 .36799623 .26686097Z"/>
<path id="font_3_83" d="M.6409912 .47843934C.6409912 .6293335 .54299929 .69433596 .3889923 .69433596H.13899231C.102996829 .69433596 .09098816 .68333438 .09098816 .6463318V.048095704C.09098816 .012023926 .101989749 0 .13899231 0H.18998719C.22799683 0 .23799134 .013015747 .23799134 .048095704V.2685547H.3899994C.5469971 .2685547 .6409912 .33454896 .6409912 .47843934M.5019989 .47843934C.5019989 .41149903 .4909973 .34754945 .35699464 .34754945H.23498535V.60832217H.35798646C.4889984 .60832217 .5019989 .5483856 .5019989 .47843934Z"/>
<path id="font_3_120" d="M.44099427 .036987306C.44099427 .07499695 .4099884 .07499695 .3809967 .07499695L.22799683 .07299805H.18199158L.42599488 .38200379C.43598939 .39500428 .43798829 .3999939 .43798829 .41600038 .43798829 .4580078 .40699769 .4580078 .3899994 .4580078H.09399414C.08099365 .4580078 .04598999 .4580078 .04598999 .41999818 .04598999 .3829956 .07798767 .3829956 .10499573 .3829956L.25 .3849945H.2869873L.042999269 .07598877C.032989503 .06298828 .0309906 .057998659 .0309906 .041992189 .0309906 0 .06199646 0 .07899475 0H.3929901C.4059906 0 .44099427 0 .44099427 .036987306Z"/>
<path id="font_3_104" d="M.69200137 .63246157V.6404724C.69200137 .6724701 .68499758 .68847659 .6439972 .68847659H.08799744C.051986696 .68847659 .039993287 .677475 .039993287 .6404724V.63246157C.039993287 .58447268 .06399536 .58447268 .09199524 .58447268L.29299928 .5874634V.048034669C.29299928 .012008667 .3039856 0 .34098817 0H.3919983C.42999269 0 .43998719 .013000488 .43998719 .048034669V.5874634L.6399994 .58447268C.66799929 .58447268 .69200137 .58447268 .69200137 .63246157Z"/>
<path id="font_3_84" d="M.522995 .23098755C.522995 .27990724 .522995 .46875 .34199525 .46875 .2829895 .46875 .22999573 .44474793 .19400025 .41073609 .19400025 .44773866 .17999268 .4577484 .1459961 .4577484H.10899353C.07299805 .4577484 .06098938 .44674684 .06098938 .40974427V-.14546204C.06098938-.18139649 .07199097-.19335938 .10899353-.19335938H.14898682C.18699646-.19335938 .19699097-.1803894 .19699097-.14546204V.039245607C.24198914-.0107421879 .29699708-.0107421879 .31098939-.0107421879 .522995-.0107421879 .522995 .18106079 .522995 .23098755M.3869934 .22898865C.3869934 .1890564 .3869934 .06124878 .27398683 .06124878 .25099183 .06124878 .23298645 .069244388 .22099304 .07823181 .19699097 .095199588 .19699097 .10018921 .19699097 .11816406V.3577881C.20799256 .3677826 .24099732 .39074708 .28399659 .39074708 .38598634 .39074708 .3869934 .2729187 .3869934 .22898865Z"/>
<path id="font_3_77" d="M.5 .047470094V.32447816C.5 .42774964 .45599366 .46875 .35398866 .46875 .24899292 .46875 .20399475 .39274598 .19099427 .36576844H.18998719V.41574098C.18998719 .44773866 .18299866 .46374513 .14199829 .46374513H.10798645C.07199097 .46374513 .05999756 .45274354 .05999756 .41574098V.047958375C.05999756 .011978149 .070999149 0 .10798645 0H.147995C.18598938 0 .19599915 .0129852299 .19599915 .047958375V.26882936C.19599915 .35577394 .2539978 .39674378 .30599977 .39674378 .35398866 .39674378 .3639984 .37376405 .3639984 .32278443V.047958375C.3639984 .015975953 .37098695 0 .4119873 0H.45199586C.48999024 0 .5 .0129852299 .5 .047958375V.047470094Z"/>
<path id="font_3_59" d="M.5339966 .40473939C.5339966 .40873719 .5289917 .43273927 .5269928 .44274903 .522995 .46673585 .522995 .46875 .5049896 .46875 .47399903 .46875 .42399598 .45674134 .38598634 .43374635 .33898927 .46473695 .2869873 .46875 .24398804 .46875 .20199585 .46875 .042999269 .46875 .042999269 .30386354 .042999269 .26391603 .053985597 .21398926 .09199524 .18103028 .06498718 .14405823 .06498718 .10505676 .06498718 .10005188 .06498718 .08106995 .070999149 .048080446 .09199524 .021102906 .07699585 .015106201 .024993897-.0028839112 .024993897-.066833499 .024993897-.0978241 .039993287-.14979553 .102996829-.17880249 .1599884-.20480347 .22698975-.20579529 .27398683-.20579529 .33299256-.20579529 .5239868-.20579529 .5239868-.06384277 .5239868 .092056278 .3829956 .092056278 .24798584 .092056278H.19999695C.1639862 .092056278 .1499939 .092056278 .13598633 .10404968 .13198853 .108047489 .114990238 .123062137 .114990238 .14904785 .114990238 .15605164 .115997318 .15805054 .116989139 .1640625 .1639862 .13795471 .22299195 .13795471 .24398804 .13795471 .28599549 .13795471 .44499208 .13795471 .44499208 .3028412 .44499208 .3607788 .4229889 .3957367 .4139862 .40673829 .43099977 .40673829 .46598817 .40673829 .5069885 .3957367 .5109863 .3937378 .5179901 .39175416 .5209961 .39175416 .5289917 .39175416 .5339966 .3977356 .5339966 .40473939M.31698609 .30384828C.31698609 .24891663 .31399537 .20996094 .24398804 .20996094 .17399597 .20996094 .17098999 .24790955 .17098999 .3028412 .17098999 .3577881 .17399597 .39674378 .24398804 .39674378 .31399537 .39674378 .31698609 .3587799 .31698609 .30384828M.42099-.06669617C.42099-.13378906 .30699159-.13378906 .2749939-.13378906 .23498535-.13378906 .12799073-.13378906 .12799073-.063690189 .12799073-.016601563 .15899658-.016601563 .18199158-.016601563H.2979889C.3789978-.01701355 .42099-.03100586 .42099-.06700134V-.06669617Z"/>
<path id="font_3_98" d="M.3959961 .14111328C.3959961 .19700623 .3659973 .2319336 .34799195 .24790955 .30799867 .28382875 .272995 .28982545 .23098755 .2978058 .17599488 .30778504 .13598633 .31576539 .13598633 .35469056 .13598633 .39561463 .16899109 .40359498 .20799256 .40359498 .2749939 .40359498 .31098939 .37864686 .33699037 .35668946 .34700013 .3467102 .34899903 .3467102 .35299684 .3467102 .36299134 .3467102 .36499024 .35569764 .3659973 .35968019 .36799623 .36767579 .37799073 .42359925 .37799073 .42860414 .37799073 .44459535 .32499696 .4586029 .31399537 .4626007 .27398683 .4736023 .24198914 .47460938 .21598816 .47460938 .17098999 .47460938 .036987306 .47460938 .036987306 .33174134 .036987306 .2828369 .05899048 .25289918 .085998538 .22894287 .12098694 .19700623 .1599884 .1900177 .21699524 .17903137 .24598694 .17404175 .29699708 .16506958 .29699708 .12113953 .29699708 .07423401 .2579956 .06724548 .21899414 .06724548 .1749878 .06724548 .11898804 .08023071 .07199097 .13612366 .066986087 .14111328 .06399536 .144104 .057998659 .144104 .04798889 .144104 .04598999 .13511658 .04499817 .12913513 .042999269 .11515808 .0309906 .058242799 .0309906 .04824829 .0309906 .03024292 .10598755 .0062561037 .10598755 .0062561037 .16099549-.0107421879 .20199585-.0107421879 .21899414-.0107421879 .269989-.0107421879 .3959961-.0067443849 .3959961 .14111328Z"/>
</defs>
<path transform="matrix(1.00005,0,0,-1.00003,32.95865,204.12375)" stroke-width=".3985" stroke-linecap="butt" stroke-miterlimit="10" stroke-linejoin="miter" fill="none" stroke="#bfbfbf" d="M0 0H295.32884M0 45.48508H295.32884M0 90.97015H295.32884M0 136.45523H295.32884M0 181.9403H295.32884"/>
<path transform="matrix(1.00005,0,0,-1.00003,32.95865,204.12375)" stroke-width=".79701" stroke-linecap="butt" stroke-miterlimit="10" stroke-linejoin="miter" fill="none" stroke="#7f807f" d="M14.76643-4.25157V0M44.29932-4.25157V0M73.8322-4.25157V0M103.36508-4.25157V0M132.89797-4.25157V0M162.43085-4.25157V0M191.96373-4.25157V0M221.49662-4.25157V0M251.0295-4.25157V0M280.56239-4.25157V0"/>
<path transform="matrix(1.00005,0,0,-1.00003,32.95865,204.12375)" stroke-width=".79701" stroke-linecap="butt" stroke-miterlimit="10" stroke-linejoin="miter" fill="none" stroke="#7f807f" d="M-2.12604 0H2.12604M-2.12604 45.48508H2.12604M-2.12604 90.97015H2.12604M-2.12604 136.45523H2.12604M-2.12604 181.9403H2.12604"/>
<path transform="matrix(1.00005,0,0,-1.00003,32.95865,204.12375)" stroke-width=".79701" stroke-linecap="butt" stroke-miterlimit="10" stroke-linejoin="miter" fill="none" stroke="#000000" d="M0 0H292.73857"/>
<path transform="matrix(1.00005,0,0,-1.00003,325.71183,204.12375)" d="M2.59026 0-1.55415 2.0722 0 0-1.55415-2.0722"/>
<path transform="matrix(1.00005,0,0,-1.00003,32.95865,204.12375)" stroke-width=".79701" stroke-linecap="butt" stroke-miterlimit="10" stroke-linejoin="miter" fill="none" stroke="#000000" d="M0 0V179.35005"/>
<path transform="matrix(0,-1.00003,-1.00005,-0,32.95865,24.76831)" d="M2.59026 0-1.55415 2.0722 0 0-1.55415-2.0722"/>
<use data-text="A" xlink:href="#font_1_27" transform="matrix(0,-9.962899,-9.963098,-0,51.128557,253.46125)"/>
<use data-text="n" xlink:href="#font_1_77" transform="matrix(0,-9.962899,-9.963098,-0,51.128557,246.816)"/>
<use data-text="c" xlink:href="#font_1_43" transform="matrix(0,-9.962899,-9.963098,-0,51.128557,241.66516)"/>
<use data-text="h" xlink:href="#font_1_63" transform="matrix(0,-9.962899,-9.963098,-0,51.128557,237.24164)"/>
<use data-text="o" xlink:href="#font_1_81" transform="matrix(0,-9.962899,-9.963098,-0,51.128557,232.09082)"/>
<use data-text="v" xlink:href="#font_1_112" transform="matrix(0,-9.962899,-9.963098,-0,51.128557,227.10938)"/>
<use data-text="i" xlink:href="#font_1_66" transform="matrix(0,-9.962899,-9.963098,-0,51.128557,222.51648)"/>
<use data-text="e" xlink:href="#font_1_50" transform="matrix(0,-9.962899,-9.963098,-0,51.128557,220.13535)"/>
<use data-text="s" xlink:href="#font_1_98" transform="matrix(0,-9.962899,-9.963098,-0,51.128557,215.71183)"/>
<use data-text="B" xlink:href="#font_1_34" transform="matrix(0,-9.962899,-9.963098,-0,80.663028,237.88877)"/>
<use data-text="a" xlink:href="#font_1_28" transform="matrix(0,-9.962899,-9.963098,-0,80.663028,231.24352)"/>
<use data-text="c" xlink:href="#font_1_43" transform="matrix(0,-9.962899,-9.963098,-0,80.663028,226.45136)"/>
<use data-text="o" xlink:href="#font_1_81" transform="matrix(0,-9.962899,-9.963098,-0,80.663028,222.02783)"/>
<use data-text="n" xlink:href="#font_1_77" transform="matrix(0,-9.962899,-9.963098,-0,80.663028,217.04639)"/>
<use data-text="C" xlink:href="#font_1_42" transform="matrix(0,-9.962899,-9.963098,-0,110.2565,240.49884)"/>
<use data-text="h" xlink:href="#font_1_63" transform="matrix(0,-9.962899,-9.963098,-0,110.2565,234.13256)"/>
<use data-text="e" xlink:href="#font_1_50" transform="matrix(0,-9.962899,-9.963098,-0,110.2565,228.98174)"/>
<use data-text="e" xlink:href="#font_1_50" transform="matrix(0,-9.962899,-9.963098,-0,110.2565,224.5582)"/>
<use data-text="s" xlink:href="#font_1_98" transform="matrix(0,-9.962899,-9.963098,-0,110.2565,220.13468)"/>
<use data-text="e" xlink:href="#font_1_50" transform="matrix(0,-9.962899,-9.963098,-0,110.2565,216.3189)"/>
<use data-text="P" xlink:href="#font_1_83" transform="matrix(0,-9.962899,-9.963098,-0,138.81993,240.81787)"/>
<use data-text="e" xlink:href="#font_1_50" transform="matrix(0,-9.962899,-9.963098,-0,138.81993,234.73055)"/>
<use data-text="p" xlink:href="#font_1_84" transform="matrix(0,-9.962899,-9.963098,-0,138.81993,230.307)"/>
<use data-text="p" xlink:href="#font_1_84" transform="matrix(0,-9.962899,-9.963098,-0,138.81993,225.15619)"/>
<use data-text="e" xlink:href="#font_1_50" transform="matrix(0,-9.962899,-9.963098,-0,138.81993,219.73639)"/>
<use data-text="r" xlink:href="#font_1_96" transform="matrix(0,-9.962899,-9.963098,-0,138.81993,215.31285)"/>
<use data-text="M" xlink:href="#font_1_74" transform="matrix(0,-9.962899,-9.963098,-0,169.26544,256.2903)"/>
<use data-text="u" xlink:href="#font_1_109" transform="matrix(0,-9.962899,-9.963098,-0,169.26544,247.57279)"/>
<use data-text="s" xlink:href="#font_1_98" transform="matrix(0,-9.962899,-9.963098,-0,169.26544,242.42197)"/>
<use data-text="h" xlink:href="#font_1_63" transform="matrix(0,-9.962899,-9.963098,-0,169.26544,238.60617)"/>
<use data-text="r" xlink:href="#font_1_96" transform="matrix(0,-9.962899,-9.963098,-0,169.26544,233.45536)"/>
<use data-text="o" xlink:href="#font_1_81" transform="matrix(0,-9.962899,-9.963098,-0,169.26544,230.04804)"/>
<use data-text="o" xlink:href="#font_1_81" transform="matrix(0,-9.962899,-9.963098,-0,169.26544,224.79759)"/>
<use data-text="m" xlink:href="#font_1_75" transform="matrix(0,-9.962899,-9.963098,-0,169.26544,219.81613)"/>
<use data-text="O" xlink:href="#font_1_80" transform="matrix(0,-9.962899,-9.963098,-0,198.85494,233.00659)"/>
<use data-text="l" xlink:href="#font_1_72" transform="matrix(0,-9.962899,-9.963098,-0,198.85494,225.6739)"/>
<use data-text="i" xlink:href="#font_1_66" transform="matrix(0,-9.962899,-9.963098,-0,198.85494,223.29279)"/>
<use data-text="v" xlink:href="#font_1_112" transform="matrix(0,-9.962899,-9.963098,-0,198.85494,220.91165)"/>
<use data-text="e" xlink:href="#font_1_50" transform="matrix(0,-9.962899,-9.963098,-0,198.85494,216.31876)"/>
<use data-text="O" xlink:href="#font_1_80" transform="matrix(0,-9.962899,-9.963098,-0,228.3894,236.89273)"/>
<use data-text="n" xlink:href="#font_1_77" transform="matrix(0,-9.962899,-9.963098,-0,228.3894,229.56005)"/>
<use data-text="i" xlink:href="#font_1_66" transform="matrix(0,-9.962899,-9.963098,-0,228.3894,224.40923)"/>
<use data-text="o" xlink:href="#font_1_81" transform="matrix(0,-9.962899,-9.963098,-0,228.3894,222.02809)"/>
<use data-text="n" xlink:href="#font_1_77" transform="matrix(0,-9.962899,-9.963098,-0,228.3894,217.04665)"/>
<use data-text="P" xlink:href="#font_1_83" transform="matrix(0,-9.962899,-9.963098,-0,256.95686,253.33124)"/>
<use data-text="e" xlink:href="#font_1_50" transform="matrix(0,-9.962899,-9.963098,-0,256.95686,247.24391)"/>
<use data-text="p" xlink:href="#font_1_84" transform="matrix(0,-9.962899,-9.963098,-0,256.95686,242.82038)"/>
<use data-text="p" xlink:href="#font_1_84" transform="matrix(0,-9.962899,-9.963098,-0,256.95686,237.66956)"/>
<use data-text="e" xlink:href="#font_1_50" transform="matrix(0,-9.962899,-9.963098,-0,256.95686,232.24976)"/>
<use data-text="r" xlink:href="#font_1_96" transform="matrix(0,-9.962899,-9.963098,-0,256.95686,227.82622)"/>
<use data-text="o" xlink:href="#font_1_81" transform="matrix(0,-9.962899,-9.963098,-0,256.95686,224.41892)"/>
<use data-text="n" xlink:href="#font_1_77" transform="matrix(0,-9.962899,-9.963098,-0,256.95686,219.43746)"/>
<use data-text="i" xlink:href="#font_1_66" transform="matrix(0,-9.962899,-9.963098,-0,256.95686,214.28664)"/>
<use data-text="P" xlink:href="#font_1_83" transform="matrix(0,-9.962899,-9.963098,-0,286.49134,252.11618)"/>
<use data-text="i" xlink:href="#font_1_66" transform="matrix(0,-9.962899,-9.963098,-0,286.49134,245.7499)"/>
<use data-text="n" xlink:href="#font_1_77" transform="matrix(0,-9.962899,-9.963098,-0,286.49134,243.36876)"/>
<use data-text="e" xlink:href="#font_1_50" transform="matrix(0,-9.962899,-9.963098,-0,286.49134,238.21794)"/>
<use data-text="a" xlink:href="#font_1_28" transform="matrix(0,-9.962899,-9.963098,-0,286.49134,233.79442)"/>
<use data-text="p" xlink:href="#font_1_84" transform="matrix(0,-9.962899,-9.963098,-0,286.49134,229.00226)"/>
<use data-text="p" xlink:href="#font_1_84" transform="matrix(0,-9.962899,-9.963098,-0,286.49134,223.85144)"/>
<use data-text="l" xlink:href="#font_1_72" transform="matrix(0,-9.962899,-9.963098,-0,286.49134,218.70063)"/>
<use data-text="e" xlink:href="#font_1_50" transform="matrix(0,-9.962899,-9.963098,-0,286.49134,216.31949)"/>
<use data-text="S" xlink:href="#font_1_97" transform="matrix(0,-9.962899,-9.963098,-0,316.07579,245.39099)"/>
<use data-text="a" xlink:href="#font_1_28" transform="matrix(0,-9.962899,-9.963098,-0,316.07579,239.85163)"/>
<use data-text="u" xlink:href="#font_1_109" transform="matrix(0,-9.962899,-9.963098,-0,316.07579,235.05948)"/>
<use data-text="s" xlink:href="#font_1_98" transform="matrix(0,-9.962899,-9.963098,-0,316.07579,229.90866)"/>
<use data-text="a" xlink:href="#font_1_28" transform="matrix(0,-9.962899,-9.963098,-0,316.07579,226.09287)"/>
<use data-text="g" xlink:href="#font_1_59" transform="matrix(0,-9.962899,-9.963098,-0,316.07579,221.30072)"/>
<use data-text="e" xlink:href="#font_1_50" transform="matrix(0,-9.962899,-9.963098,-0,316.07579,216.31926)"/>
<use data-text="0" xlink:href="#font_2_1" transform="matrix(9.963098,0,0,-9.962899,22.331116,207.33385)"/>
<use data-text="5" xlink:href="#font_2_5" transform="matrix(9.963098,0,0,-9.962899,22.331116,161.84748)"/>
<use data-text="1" xlink:href="#font_2_2" transform="matrix(9.963098,0,0,-9.962899,17.34887,116.36111)"/>
<use data-text="0" xlink:href="#font_2_1" transform="matrix(9.963098,0,0,-9.962899,22.330414,116.36111)"/>
<use data-text="1" xlink:href="#font_2_2" transform="matrix(9.963098,0,0,-9.962899,17.34887,70.874759)"/>
<use data-text="5" xlink:href="#font_2_5" transform="matrix(9.963098,0,0,-9.962899,22.330414,70.874759)"/>
<use data-text="2" xlink:href="#font_2_3" transform="matrix(9.963098,0,0,-9.962899,17.34887,25.388382)"/>
<use data-text="0" xlink:href="#font_2_1" transform="matrix(9.963098,0,0,-9.962899,22.330414,25.388382)"/>
<path transform="matrix(1.00005,0,0,-1.00003,32.95865,204.12375)" d="M7.67975 0H21.85314V9.09702H7.67975ZM37.21263 0H51.38602V90.97015H37.21263ZM66.74551 0H80.9189V154.64926H66.74551ZM96.2784 0H110.45179V100.06717H96.2784ZM125.81128 0H139.98467V36.38806H125.81128ZM155.34416 0H169.51755V136.45523H155.34416ZM184.87705 0H199.05043V45.48508H184.87705ZM214.40993 0H228.58332V154.64926H214.40993ZM243.94281 0H258.1162V54.58209H243.94281ZM273.4757 0H287.6491V90.97015H273.4757Z" fill="#3c546f"/>
<path transform="matrix(1.00005,0,0,-1.00003,32.95865,204.12375)" stroke-width=".3985" stroke-linecap="butt" stroke-miterlimit="10" stroke-linejoin="miter" fill="none" stroke="#000000" d="M7.67975 0H21.85314V9.09702H7.67975ZM37.21263 0H51.38602V90.97015H37.21263ZM66.74551 0H80.9189V154.64926H66.74551ZM96.2784 0H110.45179V100.06717H96.2784ZM125.81128 0H139.98467V36.38806H125.81128ZM155.34416 0H169.51755V136.45523H155.34416ZM184.87705 0H199.05043V45.48508H184.87705ZM214.40993 0H228.58332V154.64926H214.40993ZM243.94281 0H258.1162V54.58209H243.94281ZM273.4757 0H287.6491V90.97015H273.4757Z"/>
<path transform="matrix(1.00005,0,0,-1.00003,32.95865,204.12375)" stroke-width=".3985" stroke-linecap="butt" stroke-miterlimit="10" stroke-linejoin="miter" fill="none" stroke="#000000" d=""/>
<use data-text="1" xlink:href="#font_2_2" transform="matrix(9.963098,0,0,-9.962899,45.23526,191.50638)"/>
<path transform="matrix(1.00005,0,0,-1.00003,32.95865,204.12375)" stroke-width=".3985" stroke-linecap="butt" stroke-miterlimit="10" stroke-linejoin="miter" fill="none" stroke="#000000" d=""/>
<use data-text="1" xlink:href="#font_2_2" transform="matrix(9.963098,0,0,-9.962899,72.27861,109.63091)"/>
<use data-text="0" xlink:href="#font_2_1" transform="matrix(9.963098,0,0,-9.962899,77.26016,109.63091)"/>
<path transform="matrix(1.00005,0,0,-1.00003,32.95865,204.12375)" stroke-width=".3985" stroke-linecap="butt" stroke-miterlimit="10" stroke-linejoin="miter" fill="none" stroke="#000000" d=""/>
<use data-text="1" xlink:href="#font_2_2" transform="matrix(9.963098,0,0,-9.962899,101.81309,45.949998)"/>
<use data-text="7" xlink:href="#font_2_7" transform="matrix(9.963098,0,0,-9.962899,106.79463,45.949998)"/>
<path transform="matrix(1.00005,0,0,-1.00003,32.95865,204.12375)" stroke-width=".3985" stroke-linecap="butt" stroke-miterlimit="10" stroke-linejoin="miter" fill="none" stroke="#000000" d=""/>
<use data-text="1" xlink:href="#font_2_2" transform="matrix(9.963098,0,0,-9.962899,131.34757,100.53364)"/>
<use data-text="1" xlink:href="#font_2_2" transform="matrix(9.963098,0,0,-9.962899,136.3291,100.53364)"/>
<path transform="matrix(1.00005,0,0,-1.00003,32.95865,204.12375)" stroke-width=".3985" stroke-linecap="butt" stroke-miterlimit="10" stroke-linejoin="miter" fill="none" stroke="#000000" d=""/>
<use data-text="4" xlink:href="#font_2_4" transform="matrix(9.963098,0,0,-9.962899,163.37216,164.21456)"/>
<path transform="matrix(1.00005,0,0,-1.00003,32.95865,204.12375)" stroke-width=".3985" stroke-linecap="butt" stroke-miterlimit="10" stroke-linejoin="miter" fill="none" stroke="#000000" d=""/>
<use data-text="1" xlink:href="#font_2_2" transform="matrix(9.963098,0,0,-9.962899,190.41551,64.14453)"/>
<use data-text="5" xlink:href="#font_2_5" transform="matrix(9.963098,0,0,-9.962899,195.39707,64.14453)"/>
<path transform="matrix(1.00005,0,0,-1.00003,32.95865,204.12375)" stroke-width=".3985" stroke-linecap="butt" stroke-miterlimit="10" stroke-linejoin="miter" fill="none" stroke="#000000" d=""/>
<use data-text="5" xlink:href="#font_2_5" transform="matrix(9.963098,0,0,-9.962899,222.44112,155.11728)"/>
<path transform="matrix(1.00005,0,0,-1.00003,32.95865,204.12375)" stroke-width=".3985" stroke-linecap="butt" stroke-miterlimit="10" stroke-linejoin="miter" fill="none" stroke="#000000" d=""/>
<use data-text="1" xlink:href="#font_2_2" transform="matrix(9.963098,0,0,-9.962899,249.48447,45.949998)"/>
<use data-text="7" xlink:href="#font_2_7" transform="matrix(9.963098,0,0,-9.962899,254.466,45.949998)"/>
<path transform="matrix(1.00005,0,0,-1.00003,32.95865,204.12375)" stroke-width=".3985" stroke-linecap="butt" stroke-miterlimit="10" stroke-linejoin="miter" fill="none" stroke="#000000" d=""/>
<use data-text="6" xlink:href="#font_2_6" transform="matrix(9.963098,0,0,-9.962899,281.51008,146.02)"/>
<path transform="matrix(1.00005,0,0,-1.00003,32.95865,204.12375)" stroke-width=".3985" stroke-linecap="butt" stroke-miterlimit="10" stroke-linejoin="miter" fill="none" stroke="#000000" d=""/>
<use data-text="1" xlink:href="#font_2_2" transform="matrix(9.963098,0,0,-9.962899,308.5534,109.63091)"/>
<use data-text="0" xlink:href="#font_2_1" transform="matrix(9.963098,0,0,-9.962899,313.53495,109.63091)"/>
<path transform="matrix(1.00005,0,0,-1.00003,32.95865,204.12375)" stroke-width=".3985" stroke-linecap="butt" stroke-miterlimit="10" stroke-linejoin="miter" fill="none" stroke="#000000" d=""/>
<use data-text="P" xlink:href="#font_1_83" transform="matrix(9.963098,0,0,-9.962899,150.98955,284.22016)"/>
<use data-text="i" xlink:href="#font_1_66" transform="matrix(9.963098,0,0,-9.962899,157.35597,284.22016)"/>
<use data-text="z" xlink:href="#font_1_120" transform="matrix(9.963098,0,0,-9.962899,159.73715,284.22016)"/>
<use data-text="z" xlink:href="#font_1_120" transform="matrix(9.963098,0,0,-9.962899,164.07109,284.22016)"/>
<use data-text="a" xlink:href="#font_1_28" transform="matrix(9.963098,0,0,-9.962899,168.40505,284.22016)"/>
<use data-text="T" xlink:href="#font_1_104" transform="matrix(9.963098,0,0,-9.962899,176.50504,284.22016)"/>
<use data-text="o" xlink:href="#font_1_81" transform="matrix(9.963098,0,0,-9.962899,182.47293,284.22016)"/>
<use data-text="p" xlink:href="#font_1_84" transform="matrix(9.963098,0,0,-9.962899,187.4545,284.22016)"/>
<use data-text="p" xlink:href="#font_1_84" transform="matrix(9.963098,0,0,-9.962899,192.60541,284.22016)"/>
<use data-text="i" xlink:href="#font_1_66" transform="matrix(9.963098,0,0,-9.962899,197.75634,284.22016)"/>
<use data-text="n" xlink:href="#font_1_77" transform="matrix(9.963098,0,0,-9.962899,200.13751,284.22016)"/>
<use data-text="g" xlink:href="#font_1_59" transform="matrix(9.963098,0,0,-9.962899,205.28844,284.22016)"/>
<use data-text="F" xlink:href="#font_1_54" transform="matrix(0,-9.962899,-9.963098,-0,8.466423,134.20764)"/>
<use data-text="r" xlink:href="#font_1_96" transform="matrix(0,-9.962899,-9.963098,-0,8.466423,128.81772)"/>
<use data-text="e" xlink:href="#font_1_50" transform="matrix(0,-9.962899,-9.963098,-0,8.466423,125.41041)"/>
<use data-text="q" xlink:href="#font_1_91" transform="matrix(0,-9.962899,-9.963098,-0,8.466423,120.986888)"/>
<use data-text="u" xlink:href="#font_1_109" transform="matrix(0,-9.962899,-9.963098,-0,8.466423,115.83607)"/>
<use data-text="e" xlink:href="#font_1_50" transform="matrix(0,-9.962899,-9.963098,-0,8.466423,110.68524)"/>
<use data-text="n" xlink:href="#font_1_77" transform="matrix(0,-9.962899,-9.963098,-0,8.466423,106.26172)"/>
<use data-text="c" xlink:href="#font_1_43" transform="matrix(0,-9.962899,-9.963098,-0,8.466423,101.1109)"/>
<use data-text="y" xlink:href="#font_1_118" transform="matrix(0,-9.962899,-9.963098,-0,8.466423,96.68737)"/>
<use data-text="F" xlink:href="#font_3_54" transform="matrix(11.955797,0,0,-11.95556,115.23776,10.216919)"/>
<use data-text="a" xlink:href="#font_3_28" transform="matrix(11.955797,0,0,-11.95556,122.17212,10.216919)"/>
<use data-text="v" xlink:href="#font_3_112" transform="matrix(11.955797,0,0,-11.95556,128.44892,10.216919)"/>
<use data-text="o" xlink:href="#font_3_81" transform="matrix(11.955797,0,0,-11.95556,134.42682,10.216919)"/>
<use data-text="r" xlink:href="#font_3_96" transform="matrix(11.955797,0,0,-11.95556,140.63187,10.216919)"/>
<use data-text="i" xlink:href="#font_3_66" transform="matrix(11.955797,0,0,-11.95556,145.07944,10.216919)"/>
<use data-text="t" xlink:href="#font_3_105" transform="matrix(11.955797,0,0,-11.95556,148.1401,10.216919)"/>
<use data-text="e" xlink:href="#font_3_50" transform="matrix(11.955797,0,0,-11.95556,152.97026,10.216919)"/>
<use data-text="P" xlink:href="#font_3_83" transform="matrix(11.955797,0,0,-11.95556,163.4555,10.216919)"/>
<use data-text="i" xlink:href="#font_3_66" transform="matrix(11.955797,0,0,-11.95556,171.86043,10.216919)"/>
<use data-text="z" xlink:href="#font_3_120" transform="matrix(11.955797,0,0,-11.95556,174.92111,10.216919)"/>
<use data-text="z" xlink:href="#font_3_120" transform="matrix(11.955797,0,0,-11.95556,180.61208,10.216919)"/>
<use data-text="a" xlink:href="#font_3_28" transform="matrix(11.955797,0,0,-11.95556,186.31499,10.216919)"/>
<use data-text="T" xlink:href="#font_3_104" transform="matrix(11.955797,0,0,-11.95556,196.97954,10.216919)"/>
<use data-text="o" xlink:href="#font_3_81" transform="matrix(11.955797,0,0,-11.95556,204.65518,10.216919)"/>
<use data-text="p" xlink:href="#font_3_84" transform="matrix(11.955797,0,0,-11.95556,211.23087,10.216919)"/>
<use data-text="p" xlink:href="#font_3_84" transform="matrix(11.955797,0,0,-11.95556,217.93807,10.216919)"/>
<use data-text="i" xlink:href="#font_3_66" transform="matrix(11.955797,0,0,-11.95556,224.64527,10.216919)"/>
<use data-text="n" xlink:href="#font_3_77" transform="matrix(11.955797,0,0,-11.95556,227.70595,10.216919)"/>
<use data-text="g" xlink:href="#font_3_59" transform="matrix(11.955797,0,0,-11.95556,234.41315,10.216919)"/>
<use data-text="s" xlink:href="#font_3_98" transform="matrix(11.955797,0,0,-11.95556,240.98885,10.216919)"/>
</svg>
