<svg xmlns="http://www.w3.org/2000/svg" xmlns:xlink="http://www.w3.org/1999/xlink" xmlns:inkscape="http://www.inkscape.org/namespaces/inkscape" version="1.1" width="336" height="239" viewBox="0 0 336 239">
<defs>
<path id="font_1_5" d="M.13198853 .327713V.35173036C.13198853 .6047821 .2559967 .64100649 .30699159 .64100649 .33099366 .64100649 .37298585 .634964 .394989 .6007538 .37998963 .6007538 .33999635 .6007538 .33999635 .5557556 .33999635 .524765 .3639984 .5097656 .38598634 .5097656 .4019928 .5097656 .43199159 .51875308 .43199159 .5577545 .43199159 .6178589 .3880005 .6660156 .30499269 .6660156 .1769867 .6660156 .041992189 .5367584 .041992189 .31570436 .041992189 .048553468 .1579895-.022460938 .25099183-.022460938 .3619995-.022460938 .45700074 .07156372 .45700074 .2036438 .45700074 .33070375 .36799623 .4267578 .25698854 .4267578 .18899536 .4267578 .1519928 .37573243 .13198853 .327713M.25099183 .0055389406C.18798828 .0055389406 .1579895 .06556702 .1519928 .080566409 .13398743 .127594 .13398743 .2076416 .13398743 .22564698 .13398743 .30369569 .1659851 .40374757 .2559967 .40374757 .27198792 .40374757 .31799317 .40374757 .34899903 .34172059 .36698915 .30470277 .36698915 .2536621 .36698915 .20463562 .36698915 .15661621 .36698915 .10658264 .34999085 .0705719 .31999208 .010528564 .27398683 .0055389406 .25099183 .0055389406Z"/>
<path id="font_1_6" d="M.16299439 .4569702C.116989139 .486969 .11299133 .52098086 .11299133 .5379791 .11299133 .598999 .17799378 .64100649 .24899292 .64100649 .32199098 .64100649 .38598634 .58898928 .38598634 .51698306 .38598634 .45996095 .34700013 .4119568 .2869873 .37695313L.16299439 .4569702M.30899049 .36193849C.3809967 .3989563 .42999269 .45095826 .42999269 .51698306 .42999269 .6090088 .34098817 .6660156 .25 .6660156 .1499939 .6660156 .068984989 .59199526 .068984989 .49897767 .068984989 .4809723 .070999149 .43595887 .11299133 .38894654 .12399292 .37695313 .16099549 .35194398 .18598938 .33494569 .12799073 .30592347 .041992189 .24984741 .041992189 .15072632 .041992189 .04458618 .14399719-.022460938 .24899292-.022460938 .3619995-.022460938 .45700074 .06060791 .45700074 .16773987 .45700074 .20379639 .44599916 .24885559 .4079895 .2909088 .3889923 .31193543 .37298585 .3219452 .30899049 .36193849M.20899964 .3199463 .33198548 .24183655C.3600006 .2228241 .40699769 .19277954 .40699769 .13169861 .40699769 .05760193 .33198548 .0055389406 .25 .0055389406 .1639862 .0055389406 .09199524 .067611698 .09199524 .15072632 .09199524 .20880127 .12399292 .27288819 .20899964 .3199463Z"/>
<path id="font_1_2" d="M.2939911 .64004519C.2939911 .66400149 .2939911 .6660156 .2709961 .6660156 .20899964 .60227969 .12098694 .60227969 .08898926 .60227969V.57128909C.10899353 .57128909 .16799927 .57128909 .21998596 .5972748V.07902527C.21998596 .042999269 .21699524 .0309906 .1269989 .0309906H.09498596V0C.12998963 .0029907227 .21699524 .0029907227 .25698854 .0029907227 .29699708 .0029907227 .38398744 .0029907227 .4189911 0V.0309906H.3869934C.29699708 .0309906 .2939911 .041992189 .2939911 .07902527V.64004519Z"/>
<path id="font_1_1" d="M.45999146 .31976319C.45999146 .39982606 .45498658 .47988893 .41999818 .5539398 .37399293 .65000918 .2919922 .6660156 .25 .6660156 .18998719 .6660156 .116989139 .64001467 .07598877 .54693606 .04399109 .47789 .038986207 .39982606 .038986207 .31976319 .038986207 .24472046 .042999269 .15464783 .083999637 .07859802 .1269989-.0024719239 .19999695-.022460938 .24899292-.022460938 .30299378-.022460938 .3789978-.0014648438 .4229889 .09359741 .45498658 .16265869 .45999146 .2407074 .45999146 .31976319M.24899292-.00047302247C.20999146-.00047302247 .15098572 .024551392 .1329956 .12062073 .12199402 .18066406 .12199402 .2727356 .12199402 .3317871 .12199402 .39582826 .12199402 .46188355 .12998963 .5159149 .14898682 .63500979 .22399903 .64401248 .24899292 .64401248 .28199769 .64401248 .34799195 .6259918 .36698915 .52693179 .3769989 .47088624 .3769989 .39482118 .3769989 .3317871 .3769989 .25672914 .3769989 .18867493 .3659973 .12461853 .35099793 .029556275 .2939911-.00047302247 .24899292-.00047302247Z"/>
<path id="font_1_3" d="M.1269989 .07699585 .23298645 .18003845C.3889923 .31811524 .44898988 .3721466 .44898988 .47216798 .44898988 .5860901 .35899354 .6660156 .23699951 .6660156 .12399292 .6660156 .049987794 .57411196 .049987794 .48516847 .049987794 .4291687 .099990848 .4291687 .102996829 .4291687 .11999512 .4291687 .15499878 .44117738 .15499878 .48217774 .15499878 .5081787 .13699341 .5341797 .101989749 .5341797 .09399414 .5341797 .09199524 .5341797 .08898926 .5331726 .11199951 .59806826 .1659851 .63500979 .22399903 .63500979 .31498719 .63500979 .35798646 .5541382 .35798646 .47216798 .35798646 .39215089 .30799867 .31311036 .25299073 .25108338L.06098938 .036987306C.049987794 .025985718 .049987794 .023986817 .049987794 0H.42099L.44898988 .17404175H.42399598C.4189911 .14402771 .4119873 .1000061 .4019928 .084991458 .394989 .07699585 .32899476 .07699585 .30699159 .07699585H.1269989Z"/>
<path id="font_1_4" d="M.2939911 .16503906V.07800293C.2939911 .041992189 .2919922 .0309906 .21798706 .0309906H.19699097V0C.23799134 .0029907227 .2899933 .0029907227 .33198548 .0029907227 .37399293 .0029907227 .4269867 .0029907227 .46798707 0V.0309906H.44699098C.37298585 .0309906 .37098695 .041992189 .37098695 .07800293V.16503906H.47099305V.19602967H.37098695V.65075686C.37098695 .67074587 .37098695 .6767578 .35499574 .6767578 .34599305 .6767578 .34298707 .6767578 .33499146 .66474917L.027999878 .19602967V.16503906H.2939911M.2999878 .19602967H.055999757L.2999878 .5688019V.19602967Z"/>
<path id="font_2_49" d="M.18998719 .56533816C.18998719 .59432986 .20799256 .6093292 .27999879 .6093292 .34899903 .6093292 .42199708 .59033206 .42199708 .47132875 .42199708 .35632325 .3659973 .31933595 .2689972 .31933595 .24398804 .31933595 .20298767 .32232667 .18998719 .32933045V.56533816M.10398865 .44532777V.20025635C.10398865 .1251831 .101989749 .054122926 .09399414 .000061035159L.09599304-.0029296876C.10798645-.00093078616 .1349945 .000061035159 .14698792 .000061035159 .15899658 .000061035159 .18598938-.00093078616 .19799805-.0029296876L.19999695 .000061035159C.19198609 .057113649 .18998719 .1251831 .18998719 .20025635V.28633119C.21199036 .2793274 .23899842 .2763214 .27398683 .2763214 .45599366 .2763214 .5189972 .3913269 .5189972 .47633363 .5189972 .55033877 .47200013 .65234377 .2869873 .65234377 .26098634 .65234377 .1769867 .64533999 .14698792 .64533999 .1349945 .64533999 .10798645 .6463318 .09599304 .6483307L.09399414 .64533999C.101989749 .58833315 .10398865 .52033999 .10398865 .44532777Z"/>
<path id="font_2_77" d="M.08999634 .20011902C.08999634 .1255951 .08848572 .05357361 .08099365 .000061035159L.08299255-.0029296876C.09498596-.00093078616 .117996219 .000061035159 .12998963 .000061035159 .14199829 .000061035159 .16499329-.00093078616 .1769867-.0029296876L.1789856 .000061035159C.17118836 .05708313 .16999817 .12489319 .16999817 .20011902V.5001831C.16999817 .5751953 .17428589 .62490847 .1789856 .6882324 .1789856 .6952362 .17630005 .6982422 .16999817 .6982422 .14489746 .6882324 .12348938 .68122866 .08299255 .67822268L.08099365 .67523196C.08869934 .6325226 .08999634 .558197 .08999634 .48217774V.20011902Z"/>
<path id="font_2_66" d="M.30999757 .2253418 .30599977 .10626221C.30599977 .09326172 .2999878 .086257938 .2919922 .08024597 .2639923 .05923462 .22999573 .041229249 .19999695 .041229249 .15499878 .041229249 .12599182 .071243289 .12599182 .102264408 .12599182 .14729309 .14698792 .18132019 .22499085 .20233155L.30999757 .2253418M.3100891 .048233034C.32148744 .009124756 .35139466-.009765625 .3880005-.009765625 .41319276-.009765625 .44400025-.003768921 .46759034 .021224976L.46018983 .045928956C.44929505 .042129518 .4407959 .040725709 .43319703 .040725709 .42329408 .040725709 .4099884 .042633058 .40390016 .048233034 .39369203 .057540895 .38719178 .08175659 .38719178 .12628174 .38719178 .15530396 .3899994 .26635743 .3899994 .27737428 .3899994 .41244508 .30099488 .43943788 .22499085 .43943788 .14898682 .43943788 .102996829 .40245057 .07798767 .3814392L.07499695 .37742616 .09199524 .3103943 .10499573 .3093872C.1329956 .3544159 .16699219 .3944397 .21499634 .3944397 .25099183 .3944397 .31098939 .3894348 .31098939 .2763672 .31098939 .2693634 .30699159 .2653656 .3039856 .26435853L.21099854 .24334717C.10899353 .22033692 .04499817 .16630554 .04499817 .0982666 .04499817 .024230957 .09599304-.009780884 .16999817-.009780884 .22499085-.009780884 .25299073 .0032196046 .30599977 .048233034H.3100891Z"/>
<path id="font_2_79" d="M.45999146 .18025208C.45999146 .21228028 .46199037 .24931336 .46199037 .28134156 .46199037 .38545228 .42799378 .43945313 .33799745 .43945313 .2999878 .43945313 .22898865 .42443849 .16499329 .349411L.16299439 .352417V.42544557C.16279602 .43315126 .16169739 .43544007 .15699768 .43544007 .13449097 .43093873 .09869385 .43014527 .07598877 .43244935L.07398987 .42944337C.08099365 .38613893 .08299255 .31037904 .08299255 .23530579V.18025208C.08299255 .105163577 .08198547 .054122926 .07398987 .000061035159L.07598877-.0029296876C.08799744-.00093078616 .11099243 .000061035159 .12298584 .000061035159 .1349945 .000061035159 .1579895-.00093078616 .16999817-.0029296876L.17199707 .000061035159C.1639862 .057128908 .16299439 .10417175 .16299439 .18025208V.29736329C.21398926 .35742188 .27198792 .3794403 .30799867 .3794403 .35899354 .3794403 .37998963 .35942079 .37998963 .27835084V.18025208C.37998963 .105163577 .3781891 .05392456 .37098695 .000061035159L.37298585-.0029296876C.3849945-.00093078616 .4079895 .000061035159 .41999818 .000061035159 .43199159 .000061035159 .45498658-.00093078616 .46699525-.0029296876L.46899415 .000061035159C.4611969 .057128908 .45999146 .10417175 .45999146 .18025208Z"/>
<path id="font_2_85" d="M.09498596 .42871095C.07449341 .4288025 .053390504 .42910768 .040985109 .43070985 .0342865 .4143982 .028686524 .40470887 .018997193 .38970948L.023986817 .3827057C.04119873 .3840027 .07218933 .38459779 .09498596 .3847046V.24784851C.09498596 .18791199 .09199524 .115982059 .09199524 .086013797 .09199524 .021072388 .13398743-.009765625 .17999268-.009765625 .22200012-.009765625 .2539978 .00018310547 .29599 .027053833L.2836914 .051757814C.25299073 .041046144 .22999573 .04005432 .20498657 .044052125 .18128968 .047851564 .17199707 .07192993 .17199707 .12597656 .17199707 .15594483 .1749878 .19889832 .1749878 .25883485V.3847046H.21299744C.23699951 .3847046 .271698 .3840027 .2849884 .3827057 .28799439 .3986969 .29100038 .40899659 .29699708 .42370606L.2919922 .43070985C.27398683 .43000794 .24499512 .42871095 .22200012 .42871095H.1749878C.1749878 .5035095 .17549134 .5167084 .17999268 .57470706 .17999268 .58200076 .17729187 .58470156 .17098999 .58470156 .14588928 .57470706 .13349915 .564209 .100997928 .55970767L.09899902 .55670168C.09700012 .5220032 .09498596 .4867096 .09498596 .42871095Z"/>
<path id="font_2_41" d="M.5359955 .44532777V.36528016H.18998719V.44532777C.18998719 .5203552 .19198609 .5924072 .19999695 .6454315L.19898987 .6484375C.18699646 .64642336 .15899658 .6454315 .14698792 .6454315 .1349945 .6454315 .10798645 .64642336 .09599304 .6484375L.09399414 .6454315C.101989749 .58839419 .10398865 .5203552 .10398865 .44532777V.20019531C.10398865 .12515259 .101989749 .054107667 .09399414 .000061035159L.09498596-.0029296876C.10699463-.00093078616 .1349945 .000061035159 .14698792 .000061035159 .15899658 .000061035159 .18598938-.00093078616 .19799805-.0029296876L.19999695 .000061035159C.19198609 .05709839 .18998719 .12515259 .18998719 .20019531V.32128907H.5359955V.20019531C.5359955 .12515259 .5339966 .054107667 .526001 .000061035159L.5269928-.0029296876C.5389862-.00093078616 .5669861 .000061035159 .57899478 .000061035159 .59098818 .000061035159 .6179962-.00093078616 .6299896-.0029296876L.6319885 .000061035159C.6239929 .05709839 .621994 .12515259 .621994 .20019531V.44532777C.621994 .5203552 .6239929 .5924072 .6319885 .6454315L.6309967 .6484375C.61898806 .64642336 .59098818 .6454315 .57899478 .6454315 .5669861 .6454315 .5399933 .64642336 .5279999 .6484375L.526001 .6454315C.5339966 .58839419 .5359955 .5203552 .5359955 .44532777Z"/>
<path id="font_2_70" d="M.125 .27339173C.14199829 .3774414 .20748902 .39944459 .23899842 .39944459 .27848817 .39944459 .32299806 .36242677 .32299806 .2873993 .32299806 .2783966 .31900025 .27339173 .30899049 .27339173H.125M.3919983 .104278568C.35699464 .0662384 .30999757 .049224855 .25498963 .049224855 .22079468 .049224855 .17349243 .0622406 .1459961 .106277469 .12838745 .13439942 .12199402 .17524719 .12199402 .23339844H.3939972C.40499879 .23339844 .4119873 .23939514 .4119873 .25039674 .4119873 .33441163 .37098695 .43945313 .23899842 .43945313 .13598633 .43945313 .033996583 .35643006 .033996583 .20936585 .033996583 .15261841 .04548645 .096466068 .07899475 .056228639 .11338806 .014923096 .17059326-.009765625 .23799134-.009765625 .30999757-.009765625 .37399293 .02722168 .4119873 .07925415L.3919983 .104278568Z"/>
<path id="font_2_74" d="M.07998657 .59742739C.07998657 .5704346 .10398865 .5464325 .1309967 .5464325 .1579895 .5464325 .18199158 .5704346 .18199158 .59742739 .18199158 .6244354 .1579895 .6484375 .1309967 .6484375 .10398865 .6484375 .07998657 .6244354 .07998657 .59742739M.08999634 .2348175V.1798706C.08999634 .10494995 .0881958 .054000856 .08099365 .000061035159L.08299255-.0029296876C.09498596-.0009460449 .117996219 .000061035159 .12998963 .000061035159 .14199829 .000061035159 .16499329-.0009460449 .1769867-.0029296876L.1789856 .000061035159C.1717987 .056793214 .16999817 .10395813 .16999817 .1798706V.25079347C.16999817 .3257141 .17248535 .36167909 .1789856 .42262269 .1789856 .4316101 .17779541 .4326172 .16999817 .4326172 .14729309 .4303131 .10418701 .42991639 .08299255 .4316101L.08099365 .42861939C.08729553 .38586427 .08999634 .30973817 .08999634 .2348175Z"/>
<path id="font_2_72" d="M.100997928-.10398865C.100997928-.070755008 .1309967-.033721925 .1659851-.0146484379 .1954956-.01473999 .24119568-.01171875 .25498963-.01171875 .30299378-.01171875 .33358766-.012634277 .36099244-.028778077 .3899994-.045837404 .3999939-.07493591 .3999939-.10101318 .3999939-.16221619 .31799317-.19430542 .23199463-.19430542 .16699219-.19430542 .100997928-.17224121 .100997928-.104019168V-.10398865M.3899994 .2855835C.3899994 .35450746 .36299134 .38645936 .3395996 .4018402 .36968995 .39944459 .40278626 .3956604 .44400025 .39146424L.44699098 .39445497C.44499208 .40344239 .44400025 .411438 .44400025 .42044068 .44400025 .42944337 .44499208 .43743897 .44699098 .44644166L.44400025 .44944764C.39619447 .44534303 .36088563 .43473817 .2862854 .43084718 .26838685 .43644715 .24649048 .43945313 .22499085 .43945313 .1459961 .43945313 .054992677 .38656617 .054992677 .2875824 .054992677 .21266175 .09799194 .17871094 .12599182 .16270447 .09700012 .14271546 .06199646 .113586429 .06199646 .07940674 .06199646 .038269044 .085998538 .0022735596 .13989258-.007019043 .11199951-.018447876 .08088684-.03781128 .054992677-.057876588 .042495729-.076934818 .03199768-.10533142 .03199768-.12408447 .03199768-.20301819 .117996219-.23730469 .22399903-.23730469 .38009645-.23730469 .47299195-.17193604 .47299195-.077941898 .47299195-.033691408 .45899964-.0026245118 .43099977 .021270752 .39349366 .053268434 .32499696 .054275514 .2899933 .054275514 .272995 .054275514 .23298645 .05227661 .20999146 .04927063 .19599915 .048355104 .18598938 .047348024 .18099976 .047348024 .15299988 .047348024 .12298584 .051361085 .12298584 .09454346 .12298584 .11462402 .12799073 .13168335 .1499939 .15071106 .16299439 .14370728 .19389344 .13671875 .22399903 .13671875 .32798768 .13671875 .3899994 .20687866 .3899994 .2855835M.31199647 .28459168C.31199647 .22395325 .2869873 .17671204 .22698975 .17671204 .15499878 .17671204 .1329956 .22366333 .1329956 .29257203 .1329956 .35849 .16299439 .40144349 .22099304 .40144349 .28599549 .40144349 .31199647 .35549928 .31199647 .28459168Z"/>
<path id="font_2_73" d="M.16999817 .352417V.50138857C.16999817 .57533267 .17419434 .6267853 .1789856 .6882477 .1789856 .6952362 .17630005 .6982422 .16999817 .6982422 .14489746 .6882477 .12348938 .6812439 .08299255 .6782532L.08099365 .6752472C.08869934 .6325836 .08999634 .5573425 .08999634 .4814148V.18025208C.08999634 .105667117 .08879089 .056121828 .08099365 .000061035159L.08299255-.0029296876C.09498596-.00093078616 .117996219 .000061035159 .12998963 .000061035159 .14199829 .000061035159 .16499329-.00093078616 .1769867-.0029296876L.1789856 .000061035159C.17149353 .05732727 .16999817 .10417175 .16999817 .18025208V.29736329C.22099304 .35742188 .27949525 .3794403 .31498719 .3794403 .3659973 .3794403 .3869934 .35942079 .3869934 .27835084V.18025208C.3869934 .105163577 .38598634 .05392456 .37799073 .000061035159L.37998963-.0029296876C.3919983-.00093078616 .4149933 .000061035159 .4269867 .000061035159 .43899537 .000061035159 .46199037-.00093078616 .47399903-.0029296876L.47599793 .000061035159C.46798707 .05732727 .46699525 .10417175 .46699525 .18025208 .46699525 .21228028 .46899415 .24931336 .46899415 .28134156 .46899415 .38545228 .43499757 .43945313 .34498597 .43945313 .30699159 .43945313 .23599243 .42443849 .17199707 .349411L.16999817 .352417Z"/>
<path id="font_2_9" d="M.04399109 .2519989C.04399109 .20698548 .04798889-.024002076 .2559967-.20401001L.2789917-.18701172C.24598694-.14900208 .1269989-.011001587 .1269989 .2519989 .1269989 .5149994 .24699402 .6529999 .2789917 .68899539L.2559967 .70700076C.13699341 .6049957 .04399109 .43798829 .04399109 .2519989Z"/>
<path id="font_2_68" d="M.25 .39944459C.28849793 .39944459 .32348634 .3709259 .34999085 .32540895L.36299134 .32640077 .38598634 .40844728 .38398744 .411438C.35299684 .42744447 .30099488 .43945313 .25099183 .43945313 .14698792 .43945313 .037994386 .3544159 .037994386 .21833802 .037994386 .07914734 .116989139-.009765625 .23899842-.009765625 .29899598-.009765625 .34599305 .010223389 .38598634 .06123352L.36698915 .08226013H.36299134C.32499696 .048233034 .29319764 .040222169 .2559967 .040222169 .18299866 .040222169 .12599182 .10626221 .12599182 .2233429 .12599182 .33340455 .18399048 .39944459 .25 .39944459Z"/>
<path id="font_2_84" d="M.049987794 .10127258 .032989503 .017227173C.08999634-.0027770997 .1459961-.009765625 .18399048-.009765625 .32199098-.009765625 .35398866 .072250369 .35398866 .12728882 .35398866 .20933533 .2889862 .24134827 .21798706 .25836183 .18019104 .2674713 .125 .28637696 .125 .33641053 .125 .3774414 .1579895 .39944459 .20098877 .39944459 .25299073 .39944459 .2849884 .35842896 .30799867 .33140565L.32199098 .33241273 .34199525 .40644837 .33999635 .4094391C.31098939 .42443849 .2559967 .43945313 .20498657 .43945313 .1309967 .43945313 .053985597 .40045167 .053985597 .31739808 .053985597 .23735047 .11369324 .2109375 .17399597 .19432068 .23199463 .17831421 .2749939 .16230774 .2749939 .11328125 .2749939 .0602417 .23599243 .030227662 .18299866 .030227662 .1349945 .030227662 .09298706 .06324768 .06498718 .102264408L.049987794 .10127258Z"/>
<path id="font_2_10" d="M.2559967 .2519989C.2559967 .29699708 .2519989 .5279999 .04399109 .70799258L.020996094 .69099429C.053985597 .6529999 .17298889 .5149994 .17298889 .2519989 .17298889-.011001587 .052993776-.14900208 .020996094-.18501282L.04399109-.20300293C.16299439-.10101318 .2559967 .06599426 .2559967 .2519989Z"/>
<path id="font_2_39" d="M.40699769 .64453127H.14698792C.11299133 .64453127 .09599304 .647522 .09599304 .647522L.09399414 .64453127C.101989749 .5875244 .10398865 .5194855 .10398865 .44444276V.199646C.10398865 .124801639 .101989749 .05393982 .09399414 .000061035159L.09498596-.0029296876C.09498596-.0029296876 .11199951 .000061035159 .14698792 .000061035159 .18099976 .000061035159 .19799805-.0029296876 .19799805-.0029296876L.19999695 .000061035159C.19198609 .0569458 .18998719 .124801639 .18998719 .199646V.31640626C.23799134 .31640626 .34399415 .31340028 .41299439 .306427L.41600038 .30941773C.4139862 .31840516 .41299439 .33239747 .41299439 .34140016 .41299439 .35040284 .4139862 .36439515 .41600038 .37339784L.41299439 .3764038C.35398866 .37139894 .30799867 .36639405 .18998719 .36639405V.44444276C.18998719 .4614563 .19099427 .56451418 .19799805 .58851626 .33198548 .58851626 .46998597 .5765228 .46998597 .5765228L.47200013 .58052065C.47099305 .58851626 .46998597 .6015167 .46998597 .6105194 .46998597 .6185303 .47099305 .6305237 .47200013 .64453127L.46998597 .647522C.45399476 .6455231 .43099977 .64453127 .40699769 .64453127Z"/>
<path id="font_2_83" d="M.16699219 .33441163V.42544557C.16699219 .43315126 .16569519 .43544007 .16099549 .43544007 .13848877 .43093873 .10269165 .43014527 .07998657 .43244935L.07798767 .42944337C.084991458 .38613893 .08699036 .31037904 .08699036 .23530579V.18025208C.08699036 .10517883 .08580017 .05392456 .07798767 .000061035159L.07998657-.0029296876C.09199524-.00093078616 .114990238 .000061035159 .1269989 .000061035159 .13899231 .000061035159 .1619873-.00093078616 .17399597-.0029296876L.17599488 .000061035159C.16848755 .057128908 .16699219 .10417175 .16699219 .18025208V.2322998C.16699219 .27435304 .17948914 .29837037 .20098877 .33140565 .21549988 .35372926 .23799134 .36643983 .25698854 .36643983 .2769928 .36643983 .29599 .36444093 .30899049 .35243226L.31698609 .35443116 .33699037 .42845155 .33299256 .43244935C.31599427 .43743897 .31498719 .43945313 .29699708 .43945313 .24299622 .43945313 .21398926 .40844728 .16999817 .33241273L.16699219 .33441163Z"/>
<path id="font_2_82" d="M.35699464 .37643434C.35699464 .37643434 .3600006 .33441163 .3600006 .23434448V.0662384C.33399964 .04623413 .2849884 .034225465 .2659912 .034225465 .20799256 .034225465 .13699341 .07624817 .13699341 .2273407 .13699341 .33140565 .18899536 .39944459 .2630005 .39944459 .3066864 .39944459 .33529664 .3944397 .35699464 .37643434M.3659973 .43244935C.3479004 .43544007 .29100038 .43945313 .25698854 .43945313 .14099121 .43945313 .04899597 .3484192 .04899597 .21633911 .04899597 .111968997 .10398865-.009765625 .24198914-.009765625 .29899598-.009765625 .34498597 .010223389 .3600006 .023223877V-.031829835C.3600006-.10601807 .35949708-.17871094 .35099793-.23234558L.35299684-.23535156C.35299684-.23535156 .36499024-.23234558 .3999939-.23234558 .43429566-.23234558 .44699098-.23535156 .44699098-.23535156L.44898988-.23234558C.44049073-.17520142 .43998719-.10722351 .43998719-.031829835V.23535156C.43998719 .3103943 .44198609 .38613893 .44898988 .42944337L.44699098 .43244935C.4242859 .43014527 .3842926 .42944337 .3659973 .43244935Z"/>
<path id="font_2_86" d="M.36499024 .09196472 .36898805 .088974 .37399293 .000061035159C.37399293-.0019378662 .37519837-.0029296876 .37799073-.0029296876 .3912964-.0012359619 .40299989 .000061035159 .41749574 .000061035159 .4300995 .000061035159 .44898988-.0009460449 .46199037-.0029296876L.46398927 .000061035159C.45599366 .043014528 .44699098 .11694336 .44699098 .19186402V.24880982C.44699098 .32374574 .44799806 .37568666 .45599366 .42863465L.45399476 .43164063C.44198609 .42964173 .4189911 .42863465 .40699769 .42863465 .394989 .42863465 .37199403 .42964173 .3600006 .43164063L.35798646 .42863465C.36579896 .37149049 .36698915 .32473756 .36698915 .24880982V.15090943C.33648683 .09963989 .2789917 .04623413 .22999573 .04623413 .1954956 .04623413 .16299439 .0572052 .16299439 .15007019V.24891663C.16299439 .32380677 .1639862 .37571717 .17199707 .42863465L.16999817 .43164063C.1579895 .42964173 .1349945 .42863465 .12298584 .42863465 .11099243 .42863465 .08799744 .42964173 .07598877 .43164063L.07398987 .42863465C.08198547 .37173463 .08299255 .32479859 .08299255 .24891663V.12910462C.08299255 .06021118 .114990238-.009765625 .21398926-.009765625 .27598573-.009765625 .33198548 .041229249 .36499024 .092163089V.09196472Z"/>
<path id="font_2_90" d="M.027999878 .43164063C.0677948 .34283448 .18659973 .08476257 .22200012-.0103302 .18998719-.08502197 .14918518-.16201782 .10398865-.23730469 .11399841-.23431397 .1289978-.23231507 .13899231-.23231507 .14898682-.23231507 .17799378-.23431397 .18798828-.23730469 .22599793-.11231995 .44499208 .36463929 .47799684 .43164063 .46798707 .42863465 .44499208 .42863465 .43499757 .42863465 .4249878 .42863465 .4059906 .42863465 .3959961 .43164063 .3600006 .31863404 .31329347 .19085694 .2646942 .087265018H.2626953C.21348572 .20614624 .1663971 .31744386 .1289978 .43164063 .115997318 .42863465 .09399414 .42863465 .07998657 .42863465 .066986087 .42863465 .041992189 .42863465 .027999878 .43164063Z"/>
<path id="font_3_41" d="M.5269928 .4453125V.36328126H.23699951V.4453125C.23699951 .5203552 .24099732 .5924072 .24899292 .6454315L.24798584 .6484375C.24798584 .6484375 .19999695 .6454315 .16499329 .6454315 .1309967 .6454315 .08299255 .6484375 .08299255 .6484375L.08099365 .6454315C.08898926 .58839419 .09298706 .5203552 .09298706 .4453125V.20019531C.09298706 .12515259 .08898926 .054107667 .08099365 .000061035159L.08198547-.0029296876C.08198547-.0029296876 .12998963 .000061035159 .16499329 .000061035159 .19898987 .000061035159 .24699402-.0029296876 .24699402-.0029296876L.24899292 .000061035159C.24099732 .05709839 .23699951 .12515259 .23699951 .20019531V.3112793H.5269928V.20019531C.5269928 .12515259 .522995 .054107667 .5149994 .000061035159L.5159912-.0029296876C.5159912-.0029296876 .56399539 .000061035159 .598999 .000061035159 .6329956 .000061035159 .68099978-.0029296876 .68099978-.0029296876L.68299868 .000061035159C.6749878 .05709839 .67099 .12515259 .67099 .20019531V.4453125C.67099 .5203552 .6749878 .5924072 .68299868 .6454315L.6819916 .6484375C.6819916 .6484375 .6339874 .6454315 .598999 .6454315 .5649872 .6454315 .5169983 .6484375 .5169983 .6484375L.5149994 .6454315C.522995 .58839419 .5269928 .5203552 .5269928 .4453125Z"/>
<path id="font_3_70" d="M.17298889 .2549591C.17649842 .30413819 .18869019 .33906556 .20349121 .35932923 .21618653 .37669374 .23568726 .38945008 .2639923 .38945008 .30488587 .38945008 .32899476 .34277345 .32899476 .2549591H.17298889M.44799806 .10714722C.40148927 .06971741 .35299684 .066223148 .31098939 .066223148 .26239015 .066223148 .22599793 .07929993 .20219422 .105148319 .18019104 .12910462 .16899109 .1641388 .16899109 .20996094H.26849366C.36849977 .20996094 .45399476 .20796204 .45399476 .20796204L.45999146 .21395874C.45999146 .33926393 .4249878 .43945313 .2709961 .43945313 .21598816 .43945313 .15618897 .42214967 .116485599 .38945008 .067993167 .3493042 .034988405 .28897096 .034988405 .20596314 .034988405 .14707947 .0566864 .08509827 .09799194 .04222107 .13218689 .006729126 .19099427-.009765625 .2659912-.009765625 .33799745-.009765625 .40950013 .01322937 .46398927 .07620239 .46398927 .08918762 .45799256 .10714722 .44799806 .10714722Z"/>
<path id="font_3_74" d="M.084991458 .606781C.084991458 .56877139 .115997318 .53778079 .1559906 .53778079 .19599915 .53778079 .22698975 .56877139 .22698975 .606781 .22698975 .6447754 .19599915 .67578127 .1559906 .67578127 .115997318 .67578127 .084991458 .6447754 .084991458 .606781M.08999634 .23483277V.17988587C.08999634 .10494995 .08799744 .054000856 .07998657 .000061035159L.08198547-.0029296876C.10269165-.00064086916 .12098694 .000061035159 .1559906 .000061035159 .18998719 .000061035159 .21128845-.0009460449 .22999573-.0029296876L.23199463 .000061035159C.22399903 .057006837 .22200012 .10395813 .22200012 .17988587V.24581909C.22200012 .32073976 .22569275 .3637085 .23199463 .42364503 .23199463 .43063355 .22898865 .43363954 .22299195 .43363954 .20928955 .43164063 .18199158 .42863465 .1539917 .42863465 .12799073 .42863465 .10069275 .43034364 .08299255 .43164063L.07998657 .42764283C.08799744 .38468934 .08999634 .30975343 .08999634 .23483277Z"/>
<path id="font_3_72" d="M.45899964 .28952027C.45899964 .32398988 .43899537 .36506654 .40789796 .38604737 .43769837 .38555909 .4741974 .3798523 .5089874 .37745667L.5119934 .38046266C.5099945 .38945008 .5089874 .3984375 .5089874 .4074402 .5089874 .41644288 .5099945 .42744447 .5119934 .43644715L.5089874 .43943788C.4611969 .4353485 .39788819 .43473817 .32328797 .43084718 .3053894 .43644715 .27249146 .43943788 .25099183 .43943788 .14299011 .43943788 .053985597 .38145448 .053985597 .28552247 .053985597 .22955323 .08279419 .20158386 .10848999 .18359375 .123291019 .17318726 .147995 .16558838 .147995 .16558838L.1459961 .16059876C.101486209 .14559937 .05899048 .107299808 .05899048 .074417117 .05899048 .03239441 .08248901 .0048828127 .13798523-.003616333 .11639404-.017211914 .07798767-.031661989 .053985597-.045715333 .036987306-.06781006 .03199768-.099121097 .03199768-.12402344 .03199768-.21128845 .13578797-.23829651 .22499085-.23829651 .29029847-.23829651 .36608888-.23048401 .4264984-.2007904 .4854889-.17170716 .5299988-.121414188 .5299988-.06781006 .5299988 .04638672 .40299989 .06639099 .31098939 .06639099 .2939911 .06639099 .2709961 .06439209 .24798584 .06138611 .23399353 .05960083 .23399353 .05857849 .22898865 .05857849 .20098877 .05857849 .17098999 .06364441 .17098999 .107177738 .17098999 .12347412 .17149353 .1355133 .18249512 .15258789 .1967926 .14659119 .22389221 .1415863 .2579956 .1415863 .37399293 .1415863 .45899964 .19648743 .45899964 .28952027M.32598878 .28851319C.32598878 .21757508 .3059845 .18159485 .2579956 .18159485 .19699097 .18159485 .18699646 .21757508 .18699646 .29051209 .18699646 .35647584 .20298767 .39944459 .25498963 .39944459 .31498719 .39944459 .32598878 .36346437 .32598878 .28851319M.18299866-.015823365C.18939209-.017211914 .19699097-.018417359 .20599365-.018417359 .23548889-.017608643 .26219178-.016616822 .27598573-.016616822 .33198548-.016616822 .3999939-.02142334 .3999939-.09089661 .3999939-.15213013 .33898927-.19328308 .25299073-.19328308 .21899414-.19328308 .15098572-.1722107 .15098572-.10394287 .15098572-.07072449 .15699768-.04270935 .18299866-.015609741V-.015823365Z"/>
<path id="font_3_73" d="M.085998538 .474411V.18025208C.085998538 .10517883 .08248901 .053619386 .07398987 .000061035159L.07499695-.0029296876C.07499695-.0029296876 .11999512 .000061035159 .15499878 .000061035159 .18928528 .000061035159 .22200012-.0029296876 .22200012-.0029296876L.22399903 .000061035159C.21899414 .057128908 .21798706 .10417175 .21798706 .18025208V.2823639C.2559967 .33241273 .2979889 .36244203 .33399964 .36244203 .36099244 .36244203 .38598634 .3424225 .38598634 .26934815V.18025208C.38598634 .10517883 .38598634 .053115846 .37998963 .000061035159L.3809967-.0029296876C.3809967-.0029296876 .42999269 .000061035159 .46499635 .000061035159 .49899293 .000061035159 .526001-.0029296876 .526001-.0029296876L.5279999 .000061035159C.5189972 .057128908 .5179901 .10417175 .5179901 .18025208V.29136659C.5179901 .3814392 .47898866 .43945313 .3889923 .43945313 .33799745 .43945313 .2639923 .40844728 .21798706 .34942628L.21398926 .35142518 .21798706 .43844605V.5003967C.21798706 .57533267 .22029114 .6269989 .22799683 .6882477 .22799683 .6952362 .22529602 .6982422 .21899414 .6982422 .19389344 .6882477 .116485599 .66825869 .07598877 .66526797L.07398987 .66226199C.08169556 .6195984 .085998538 .550354 .085998538 .474411Z"/>
<path id="font_3_85" d="M.08999634 .42871095C.069488529 .4288025 .04838562 .4300995 .035995485 .43170167 .03048706 .41470338 .0236969 .3986969 .01399231 .3836975L.018997193 .37670899C.036193849 .37800599 .06719971 .37860108 .08999634 .3787079L.08699036 .2609558C.085494998 .20103455 .083999637 .118133548 .083999637 .08818054 .083999637 .041229249 .116989139-.009780884 .18099976-.009780884 .23298645-.009780884 .2849884-.00077819827 .32798768 .025222779 .32798768 .041229249 .32199098 .05621338 .31098939 .063201908 .2889862 .052230836 .2789917 .051223756 .25299073 .051223756 .22599793 .051223756 .21598816 .09017944 .21598816 .13111878 .21598816 .16108704 .2158966 .21202088 .21699524 .27194215L.21899414 .3787079H.25698854C.2809906 .3787079 .3156891 .37800599 .32899476 .37670899 .3304901 .39170838 .33499146 .40899659 .34098817 .42370606L.33599855 .43170167C.31739808 .4300995 .2889862 .42869569 .2659912 .42869569H.21899414C.21899414 .48469544 .21949768 .5146942 .22399903 .56770327 .22399903 .57470706 .22099304 .57769778 .21499634 .57769778 .18998719 .56770327 .13598633 .5417023 .09599304 .5326996L.09399414 .52970889C.09069824 .503006 .08999634 .46839906 .08999634 .42871095Z"/>
<path id="font_3_84" d="M.053985597 .11328125 .037994386 .01727295C.09199524-.0027770997 .1579895-.009765625 .19400025-.009765625 .32398988-.009765625 .3789978 .053237916 .3789978 .122283939 .3789978 .21243286 .30799867 .24035645 .23699951 .27838136 .20439148 .29588319 .1769867 .31340028 .1769867 .3454132 .1769867 .37342835 .18699646 .3944397 .22599793 .3944397 .2749939 .3944397 .3039856 .3474121 .31698609 .31939698L.34399415 .32040406 .36299134 .41044618 .36099244 .41345216C.33399964 .42845155 .27598573 .43945313 .22799683 .43945313 .13798523 .43945313 .05899048 .39544679 .05899048 .31840516 .05899048 .24835205 .10809326 .21253968 .16499329 .18132019 .23799134 .14129639 .2599945 .12327576 .2599945 .08325195 .2599945 .036224367 .22898865 .034225465 .19099427 .034225465 .15589905 .034225465 .11399841 .056243898 .083999637 .11427307L.053985597 .11328125Z"/>
<path id="font_3_80" d="M.040985109 .20533753C.040985109 .072250369 .13398743-.009765625 .2829895-.009765625 .43598939-.009765625 .5249939 .076049808 .5249939 .21434021 .5249939 .34040834 .45399476 .43945313 .2849884 .43945313 .14199829 .43945313 .040985109 .36042787 .040985109 .20533753M.27799989 .38945008C.36299134 .38945008 .3829956 .32640077 .3829956 .1873169 .3829956 .072250369 .34199525 .040222169 .29699708 .040222169 .19299317 .040222169 .18299866 .1512909 .18299866 .22834778 .18299866 .31539918 .19198609 .38945008 .27799989 .38945008Z"/>
<path id="font_3_71" d="M.22200012 .3787079H.2599945C.28399659 .3787079 .31869508 .37800599 .33198548 .37670899 .3334961 .39170838 .33799745 .40899659 .34399415 .42370606L.33898927 .43171693C.3203888 .43011476 .2919922 .42871095 .2689972 .42871095H.22200012V.43873597C.22200012 .46429444 .21499634 .5129242 .21499634 .5349884 .21499634 .59033206 .24499512 .62924197 .29899598 .62924197 .32798768 .62924197 .35539247 .608078 .36299134 .57910159L.3929901 .5800781C.3959961 .608078 .40699769 .66056826 .41600038 .68107607L.4149933 .6840668C.40699769 .6892395 .37139894 .6982422 .33999635 .6982422 .26438905 .6982422 .20399475 .6731415 .1619873 .62924197 .117996219 .5831146 .09298706 .51994326 .09298706 .458786V.42871095C.07249451 .4288025 .0513916 .4300995 .038986207 .43171693 .033493043 .41470338 .026687623 .3986969 .016998291 .3836975L.021987915 .37670899C.03919983 .37800599 .07019043 .37860108 .09298706 .3787079V.19987488C.09298706 .124938968 .09298706 .05101013 .085998538 .000061035159L.08699036-.0029449464C.08699036-.0029449464 .1269989 .000061035159 .1619873 .000061035159 .19628906 .000061035159 .23098755-.0029449464 .23098755-.0029449464L.23298645 .000061035159C.22599793 .057998659 .22628784 .12484741 .22499085 .19987488L.22200012 .3787079Z"/>
<path id="font_3_53" d="M.22898865 .43563844V.19987488C.22898865 .124938968 .22698975 .054000856 .21899414 .000061035159L.21998596-.0029296876C.21998596-.0029296876 .2659912 .000061035159 .30099488 .000061035159 .33499146 .000061035159 .3809967-.0029296876 .3809967-.0029296876L.3829956 .000061035159C.375 .057006837 .37298585 .124938968 .37298585 .19987488V.43563844C.37298585 .45262147 .37399293 .5425415 .3809967 .5665283 .5149994 .5665283 .58499148 .5445404 .58499148 .5445404L.58699038 .5485382C.58499148 .56352236 .58499148 .6165161 .58699038 .64453127L.58499148 .647522C.56900027 .6455231 .54599 .64453127 .5249939 .64453127H.07699585C.055999757 .64453127 .032989503 .6455231 .016998291 .647522L.01499939 .64453127C.016998291 .6165161 .016998291 .56352236 .01499939 .5485382L.016998291 .5445404C.016998291 .5445404 .08699036 .5665283 .22099304 .5665283 .22799683 .5425415 .22898865 .45262147 .22898865 .43563844Z"/>
<path id="font_3_78" d="M.21598816 .34942628 .21179199 .35243226C.21179199 .37524415 .210495 .4169464 .20899964 .42544557 .20779419 .43234254 .20629883 .43544007 .19999695 .43544007 .17098999 .43074037 .10598755 .43074037 .070999149 .43244935L.068984989 .42944337C.076690677 .38674928 .07998657 .3100891 .07998657 .23530579V.18025208C.07998657 .10517883 .07598877 .054122926 .067993167 .000061035159L.068984989-.0029296876C.068984989-.0029296876 .11099243 .000061035159 .1459961 .000061035159 .17999268 .000061035159 .21998596-.0029296876 .21998596-.0029296876L.22200012 .000061035159C.21398926 .057128908 .21199036 .10417175 .21199036 .18025208V.2813568C.2539978 .33241273 .2899933 .36244203 .31799317 .36244203 .35598756 .36244203 .3769989 .34843446 .3769989 .2813568V.18025208C.3769989 .10517883 .37298585 .054122926 .36499024 .000061035159L.3659973-.0029296876C.3659973-.0029296876 .41099549 .000061035159 .44599916 .000061035159 .47999574 .000061035159 .5189972-.0029296876 .5189972-.0029296876L.5209961 .000061035159C.5130005 .057128908 .5089874 .10417175 .5089874 .18025208V.26834107C.5089874 .2823639 .5089874 .2863617 .5079956 .29837037 .55599978 .35142518 .5779877 .36244203 .61698916 .36244203 .6489868 .36244203 .6719971 .34042359 .6719971 .27334596V.18025208C.6719971 .10517883 .66799929 .054122926 .6599884 .000061035159L.6609955-.0029296876C.6609955-.0029296876 .70599368 .000061035159 .7409973 .000061035159 .7749939 .000061035159 .81399539-.0029296876 .81399539-.0029296876L.81599429 .000061035159C.80799868 .057128908 .80400088 .10417175 .80400088 .18025208V.280365C.80400088 .3804474 .7689972 .43945313 .6609955 .43945313 .61099246 .43945313 .5589905 .41944886 .5019989 .35943605 .48199464 .4094391 .45458985 .43945313 .36499024 .43945313 .31599427 .43945313 .2539978 .39845277 .21598816 .34942628Z"/>
<path id="font_3_66" d="M.31098939 .22233582 .30899049 .12927246C.30899049 .11627197 .30108644 .09135437 .2939911 .084243778 .2709961 .06123352 .24798584 .050231935 .21998596 .050231935 .18998719 .050231935 .16799927 .08024597 .16799927 .10726929 .16799927 .14338684 .18078614 .18811035 .23098755 .20132447L.31098939 .22233582M.43699647 .08024597C.43699647 .10926819 .44099427 .26637269 .44099427 .27737428 .44099427 .33750917 .42858888 .3747406 .40098573 .3995514 .3692932 .427948 .3090973 .43945313 .26098634 .43945313 .18899536 .43945313 .09298706 .4074402 .068984989 .3864441L.06599426 .3824463 .085998538 .3073883 .11898804 .30639649C.15299988 .35643006 .19699097 .38545228 .24198914 .38545228 .28599549 .38545228 .31098939 .36053468 .31098939 .28338624 .31098939 .27638246 .30799867 .27236939 .30499269 .27137757L.18798828 .24035645C.09199524 .21733094 .033996583 .16630554 .033996583 .09825134 .033996583 .029220581 .100997928-.009765625 .17098999-.009765625 .21009827-.009765625 .2630005 .0032196046 .30799867 .048233034H.30999757C.32398988 .007232666 .34599305-.009765625 .3889923-.009765625 .42808534-.009765625 .47799684 .00022888184 .5079956 .023223877 .5066986 .031921388 .5039978 .039230348 .49798585 .04421997 .45799256 .04421997 .43699647 .047225954 .43699647 .08024597Z"/>
<path id="font_3_49" d="M.23498535 .560318C.23498535 .58932498 .24299622 .6043396 .31498719 .6043396 .37399293 .6043396 .42199708 .58732607 .42199708 .46826173 .42199708 .36720277 .37208558 .3251953 .31399537 .3251953 .2889862 .3251953 .24798584 .32818605 .23498535 .33518983V.560318M.09298706 .44525147V.20014954C.09298706 .12512207 .08898926 .054092409 .08099365 .000061035159L.08198547-.0029296876C.08198547-.0029296876 .12998963 .000061035159 .16499329 .000061035159 .19898987 .000061035159 .24499512-.0029296876 .24499512-.0029296876L.24699402 .000061035159C.23899842 .05708313 .23498535 .12512207 .23498535 .20014954V.28419496C.25698854 .27719117 .2899933 .27418519 .32499696 .27418519 .5069885 .27418519 .57299807 .3832245 .57299807 .4862671 .57299807 .52259829 .5589905 .57933047 .5029907 .6183319 .46769715 .6429291 .4131012 .65234377 .34199525 .65234377 .31599427 .65234377 .19499207 .64533999 .16499329 .64533999 .1309967 .64533999 .08299255 .6483307 .08299255 .6483307L.08099365 .64533999C.08898926 .58833315 .09298706 .5202942 .09298706 .44525147Z"/>
<path id="font_3_77" d="M.085998538 .20011902C.085998538 .12509156 .08248901 .05357361 .07398987 .000061035159L.07499695-.0029296876C.07499695-.0029296876 .116989139 .000061035159 .1519928 .000061035159 .18629456 .000061035159 .22799683-.0029296876 .22799683-.0029296876L.22999573 .000061035159C.22149658 .05708313 .21798706 .12489319 .21798706 .20011902V.5001831C.21798706 .5751953 .22229004 .62690737 .22999573 .6882324 .22999573 .6952362 .22529602 .6982422 .21899414 .6982422 .19389344 .6882324 .116485599 .66822817 .07598877 .66522219L.07398987 .6622162C.08169556 .61950686 .085998538 .5502014 .085998538 .47418214V.20011902Z"/>
<path id="font_3_79" d="M.5119934 .18025208V.29136659C.5119934 .3964386 .46299745 .43945313 .37298585 .43945313 .32199098 .43945313 .2619934 .40844728 .21598816 .34942628L.21179199 .35243226C.21179199 .37524415 .210495 .4169464 .20899964 .42544557 .20779419 .43234254 .20629883 .43544007 .19999695 .43544007 .17098999 .43074037 .10598755 .43074037 .070999149 .43244935L.068984989 .42944337C.076690677 .38674928 .07998657 .3100891 .07998657 .23530579V.18025208C.07998657 .10517883 .07749939 .053619386 .068984989 .000061035159L.070999149-.0029296876C.070999149-.0029296876 .117996219 .000061035159 .15299988 .000061035159 .18728638 .000061035159 .21499634-.0029296876 .21499634-.0029296876L.21798706 .000061035159C.21299744 .057128908 .21199036 .10417175 .21199036 .18025208V.2823639C.25 .33241273 .2919922 .36244203 .32798768 .36244203 .35499574 .36244203 .37998963 .3424225 .37998963 .26934815V.18025208C.37998963 .10517883 .37998963 .053115846 .37399293 .000061035159L.37599183-.0029296876C.37599183-.0029296876 .4079895 .000061035159 .44299317 .000061035159 .47698976 .000061035159 .5209961-.0029296876 .5209961-.0029296876L.522995 .000061035159C.5139923 .057128908 .5119934 .10417175 .5119934 .18025208Z"/>
</defs>
<path transform="matrix(1.00008,0,0,-1,34.236055,204.189)" stroke-width=".3985" stroke-linecap="butt" stroke-miterlimit="10" stroke-linejoin="miter" fill="none" stroke="#bfbfbf" d="M0 0H295.32823M0 20.21558H295.32823M0 40.43117H295.32823M0 60.64676H295.32823M0 80.86235H295.32823M0 101.07794H295.32823M0 121.29353H295.32823M0 141.50913H295.32823M0 161.72472H295.32823M0 181.9403H295.32823"/>
<path transform="matrix(1.00008,0,0,-1,34.236055,204.189)" stroke-width=".19925" stroke-linecap="butt" stroke-miterlimit="10" stroke-linejoin="miter" fill="none" stroke="#7f807f" d="M0-4.25262V0M42.18974-4.25262V0M84.37949-4.25262V0M126.56923-4.25262V0M168.75897-4.25262V0M210.94873-4.25262V0M253.13848-4.25262V0M295.32823-4.25262V0"/>
<path transform="matrix(1.00008,0,0,-1,34.236055,204.189)" stroke-width=".19925" stroke-linecap="butt" stroke-miterlimit="10" stroke-linejoin="miter" fill="none" stroke="#7f807f" d="M0 0H4.25201M0 20.21558H4.25201M0 40.43117H4.25201M0 60.64676H4.25201M0 80.86235H4.25201M0 101.07794H4.25201M0 121.29353H4.25201M0 141.50913H4.25201M0 161.72472H4.25201M0 181.9403H4.25201"/>
<path transform="matrix(1.00008,0,0,-1,34.236055,204.189)" stroke-width=".3985" stroke-linecap="butt" stroke-miterlimit="10" stroke-linejoin="miter" fill="none" stroke="#000000" d="M0 0H295.32823"/>
<path transform="matrix(1.00008,0,0,-1,34.236055,204.189)" stroke-width=".3985" stroke-linecap="butt" stroke-miterlimit="10" stroke-linejoin="miter" fill="none" stroke="#000000" d="M0 0V181.9403"/>
<use data-text="6" xlink:href="#font_1_5" transform="matrix(10.909972,0,0,-10.9091,31.508835,219.30699)"/>
<use data-text="8" xlink:href="#font_1_6" transform="matrix(10.909972,0,0,-10.9091,73.70121,219.30699)"/>
<use data-text="1" xlink:href="#font_1_2" transform="matrix(10.909972,0,0,-10.9091,113.167369,219.30699)"/>
<use data-text="0" xlink:href="#font_1_1" transform="matrix(10.909972,0,0,-10.9091,118.62235,219.30699)"/>
<use data-text="1" xlink:href="#font_1_2" transform="matrix(10.909972,0,0,-10.9091,155.36075,219.30699)"/>
<use data-text="2" xlink:href="#font_1_3" transform="matrix(10.909972,0,0,-10.9091,160.81574,219.30699)"/>
<use data-text="1" xlink:href="#font_1_2" transform="matrix(10.909972,0,0,-10.9091,197.55312,219.30699)"/>
<use data-text="4" xlink:href="#font_1_4" transform="matrix(10.909972,0,0,-10.9091,203.0081,219.30699)"/>
<use data-text="1" xlink:href="#font_1_2" transform="matrix(10.909972,0,0,-10.9091,239.74649,219.30699)"/>
<use data-text="6" xlink:href="#font_1_5" transform="matrix(10.909972,0,0,-10.9091,245.20148,219.30699)"/>
<use data-text="1" xlink:href="#font_1_2" transform="matrix(10.909972,0,0,-10.9091,281.93989,219.30699)"/>
<use data-text="8" xlink:href="#font_1_6" transform="matrix(10.909972,0,0,-10.9091,287.39488,219.30699)"/>
<use data-text="2" xlink:href="#font_1_3" transform="matrix(10.909972,0,0,-10.9091,324.13325,219.30699)"/>
<use data-text="0" xlink:href="#font_1_1" transform="matrix(10.909972,0,0,-10.9091,329.58824,219.30699)"/>
<use data-text="0" xlink:href="#font_1_1" transform="matrix(10.909972,0,0,-10.9091,24.945313,207.704)"/>
<use data-text="2" xlink:href="#font_1_3" transform="matrix(10.909972,0,0,-10.9091,24.945313,187.489)"/>
<use data-text="4" xlink:href="#font_1_4" transform="matrix(10.909972,0,0,-10.9091,24.945313,167.273)"/>
<use data-text="6" xlink:href="#font_1_5" transform="matrix(10.909972,0,0,-10.9091,24.945313,147.05699)"/>
<use data-text="8" xlink:href="#font_1_6" transform="matrix(10.909972,0,0,-10.9091,24.945313,126.841999)"/>
<use data-text="1" xlink:href="#font_1_2" transform="matrix(10.909972,0,0,-10.9091,19.490876,106.62599)"/>
<use data-text="0" xlink:href="#font_1_1" transform="matrix(10.909972,0,0,-10.9091,24.945862,106.62599)"/>
<use data-text="1" xlink:href="#font_1_2" transform="matrix(10.909972,0,0,-10.9091,19.490876,86.410999)"/>
<use data-text="2" xlink:href="#font_1_3" transform="matrix(10.909972,0,0,-10.9091,24.945862,86.410999)"/>
<use data-text="1" xlink:href="#font_1_2" transform="matrix(10.909972,0,0,-10.9091,19.490876,66.19499)"/>
<use data-text="4" xlink:href="#font_1_4" transform="matrix(10.909972,0,0,-10.9091,24.945862,66.19499)"/>
<use data-text="1" xlink:href="#font_1_2" transform="matrix(10.909972,0,0,-10.9091,19.490876,45.97899)"/>
<use data-text="6" xlink:href="#font_1_5" transform="matrix(10.909972,0,0,-10.9091,24.945862,45.97899)"/>
<use data-text="1" xlink:href="#font_1_2" transform="matrix(10.909972,0,0,-10.9091,19.490876,25.763993)"/>
<use data-text="8" xlink:href="#font_1_6" transform="matrix(10.909972,0,0,-10.9091,24.945862,25.763993)"/>
<path transform="matrix(1.00008,0,0,-1,34.236055,204.189)" d="M42.18974 0H84.37948V171.83252H42.18974ZM84.37949 0H126.56923V70.75456H84.37949ZM126.56923 0H168.75897V141.50913H126.56923ZM168.75897 0H210.94872V101.07794H168.75897ZM210.94873 0H253.13848V161.72472H210.94873Z" fill="#3c546f"/>
<path transform="matrix(1.00008,0,0,-1,34.236055,204.189)" stroke-width=".3985" stroke-linecap="butt" stroke-miterlimit="10" stroke-linejoin="miter" fill="none" stroke="#bfbfbf" d="M42.18974 0H84.37948V171.83252H42.18974ZM84.37949 0H126.56923V70.75456H84.37949ZM126.56923 0H168.75897V141.50913H126.56923ZM168.75897 0H210.94872V101.07794H168.75897ZM210.94873 0H253.13848V161.72472H210.94873Z"/>
<use data-text="P" xlink:href="#font_2_49" transform="matrix(10.909972,0,0,-10.9091,134.25705,234.50099)"/>
<use data-text="l" xlink:href="#font_2_77" transform="matrix(10.909972,0,0,-10.9091,140.48667,234.50099)"/>
<use data-text="a" xlink:href="#font_2_66" transform="matrix(10.909972,0,0,-10.9091,143.23596,234.50099)"/>
<use data-text="n" xlink:href="#font_2_79" transform="matrix(10.909972,0,0,-10.9091,148.48368,234.50099)"/>
<use data-text="t" xlink:href="#font_2_85" transform="matrix(10.909972,0,0,-10.9091,154.36414,234.50099)"/>
<use data-text="H" xlink:href="#font_2_41" transform="matrix(10.909972,0,0,-10.9091,160.80103,234.50099)"/>
<use data-text="e" xlink:href="#font_2_70" transform="matrix(10.909972,0,0,-10.9091,168.72165,234.50099)"/>
<use data-text="i" xlink:href="#font_2_74" transform="matrix(10.909972,0,0,-10.9091,173.66388,234.50099)"/>
<use data-text="g" xlink:href="#font_2_72" transform="matrix(10.909972,0,0,-10.9091,176.50048,234.50099)"/>
<use data-text="h" xlink:href="#font_2_73" transform="matrix(10.909972,0,0,-10.9091,181.94455,234.50099)"/>
<use data-text="t" xlink:href="#font_2_85" transform="matrix(10.909972,0,0,-10.9091,187.93413,234.50099)"/>
<use data-text="(" xlink:href="#font_2_9" transform="matrix(10.909972,0,0,-10.9091,194.37102,234.50099)"/>
<use data-text="i" xlink:href="#font_2_74" transform="matrix(10.909972,0,0,-10.9091,197.64402,234.50099)"/>
<use data-text="n" xlink:href="#font_2_79" transform="matrix(10.909972,0,0,-10.9091,200.4806,234.50099)"/>
<use data-text="c" xlink:href="#font_2_68" transform="matrix(10.909972,0,0,-10.9091,206.36109,234.50099)"/>
<use data-text="h" xlink:href="#font_2_73" transform="matrix(10.909972,0,0,-10.9091,211.04146,234.50099)"/>
<use data-text="e" xlink:href="#font_2_70" transform="matrix(10.909972,0,0,-10.9091,217.03102,234.50099)"/>
<use data-text="s" xlink:href="#font_2_84" transform="matrix(10.909972,0,0,-10.9091,221.97324,234.50099)"/>
<use data-text=")" xlink:href="#font_2_10" transform="matrix(10.909972,0,0,-10.9091,226.2936,234.50099)"/>
<use data-text="F" xlink:href="#font_2_39" transform="matrix(0,-10.9091,-10.909972,-0,9.433075,136.658)"/>
<use data-text="r" xlink:href="#font_2_83" transform="matrix(0,-10.9091,-10.909972,-0,9.433075,131.15982)"/>
<use data-text="e" xlink:href="#font_2_70" transform="matrix(0,-10.9091,-10.909972,-0,9.433075,127.36345)"/>
<use data-text="q" xlink:href="#font_2_82" transform="matrix(0,-10.9091,-10.909972,-0,9.433075,122.35618)"/>
<use data-text="u" xlink:href="#font_2_86" transform="matrix(0,-10.9091,-10.909972,-0,9.433075,116.66163)"/>
<use data-text="e" xlink:href="#font_2_70" transform="matrix(0,-10.9091,-10.909972,-0,9.433075,110.803447)"/>
<use data-text="n" xlink:href="#font_2_79" transform="matrix(0,-10.9091,-10.909972,-0,9.433075,105.86162)"/>
<use data-text="c" xlink:href="#font_2_68" transform="matrix(0,-10.9091,-10.909972,-0,9.433075,99.98161)"/>
<use data-text="y" xlink:href="#font_2_90" transform="matrix(0,-10.9091,-10.909972,-0,9.433075,95.301609)"/>
<use data-text="H" xlink:href="#font_3_41" transform="matrix(11.956157,0,0,-11.9552,113.51039,9.578003)"/>
<use data-text="e" xlink:href="#font_3_70" transform="matrix(11.956157,0,0,-11.9552,122.6449,9.578003)"/>
<use data-text="i" xlink:href="#font_3_74" transform="matrix(11.956157,0,0,-11.9552,128.71863,9.578003)"/>
<use data-text="g" xlink:href="#font_3_72" transform="matrix(11.956157,0,0,-11.9552,132.44895,9.578003)"/>
<use data-text="h" xlink:href="#font_3_73" transform="matrix(11.956157,0,0,-11.9552,139.15636,9.578003)"/>
<use data-text="t" xlink:href="#font_3_85" transform="matrix(11.956157,0,0,-11.9552,146.4018,9.578003)"/>
<use data-text="s" xlink:href="#font_3_84" transform="matrix(11.956157,0,0,-11.9552,150.63426,9.578003)"/>
<use data-text="o" xlink:href="#font_3_80" transform="matrix(11.956157,0,0,-11.9552,158.63294,9.578003)"/>
<use data-text="f" xlink:href="#font_3_71" transform="matrix(11.956157,0,0,-11.9552,165.40012,9.578003)"/>
<use data-text="T" xlink:href="#font_3_53" transform="matrix(11.956157,0,0,-11.9552,172.7651,9.578003)"/>
<use data-text="o" xlink:href="#font_3_80" transform="matrix(11.956157,0,0,-11.9552,179.22144,9.578003)"/>
<use data-text="m" xlink:href="#font_3_78" transform="matrix(11.956157,0,0,-11.9552,185.98862,9.578003)"/>
<use data-text="a" xlink:href="#font_3_66" transform="matrix(11.956157,0,0,-11.9552,196.6535,9.578003)"/>
<use data-text="t" xlink:href="#font_3_85" transform="matrix(11.956157,0,0,-11.9552,202.8229,9.578003)"/>
<use data-text="o" xlink:href="#font_3_80" transform="matrix(11.956157,0,0,-11.9552,207.05539,9.578003)"/>
<use data-text="P" xlink:href="#font_3_49" transform="matrix(11.956157,0,0,-11.9552,216.79965,9.578003)"/>
<use data-text="l" xlink:href="#font_3_77" transform="matrix(11.956157,0,0,-11.9552,224.0929,9.578003)"/>
<use data-text="a" xlink:href="#font_3_66" transform="matrix(11.956157,0,0,-11.9552,227.72757,9.578003)"/>
<use data-text="n" xlink:href="#font_3_79" transform="matrix(11.956157,0,0,-11.9552,233.89698,9.578003)"/>
<use data-text="t" xlink:href="#font_3_85" transform="matrix(11.956157,0,0,-11.9552,241.07065,9.578003)"/>
<use data-text="s" xlink:href="#font_3_84" transform="matrix(11.956157,0,0,-11.9552,245.30313,9.578003)"/>
</svg>
