<svg xmlns="http://www.w3.org/2000/svg" xmlns:xlink="http://www.w3.org/1999/xlink" xmlns:inkscape="http://www.inkscape.org/namespaces/inkscape" version="1.1" width="276" height="171" viewBox="0 0 276 171">
<defs>
<path id="font_1_58" d="M.59799197 .038253786V.3002472H.3880005V.23925781H.519989V.07424927C.47799684 .060256959 .43299867 .053253175 .3880005 .053253175 .32299806 .053253175 .2639923 .088256839 .22299195 .13925171 .1769867 .19825745 .15499878 .2722473 .15499878 .347229 .15499878 .42218019 .1769867 .49713136 .22299195 .5560913 .2639923 .6070709 .32299806 .64204409 .3880005 .64204409 .42199708 .64204409 .45498658 .63804629 .4869995 .62605288 .519989 .6150665 .548996 .59606936 .57499697 .5740814L.58999636 .65605166C.5589905 .6730499 .526001 .6860504 .49198915 .6950531 .45799256 .7030487 .4229889 .7060547 .3880005 .7060547 .30099488 .7060547 .21899414 .66604617 .1599884 .6010742 .09799194 .5311127 .06599426 .4401703 .06599426 .347229 .06599426 .2542572 .09799194 .16325379 .1599884 .09425354 .21899414 .029251099 .30099488-.0107421879 .3880005-.0107421879 .46099855-.0107421879 .5329895 .0062561037 .59799197 .038253786Z"/>
<path id="font_1_96" d="M.32699586 .38806153V.45507813C.23799134 .45407105 .18299866 .4050598 .1519928 .35905458V.45007325H.08198547V0H.15699768V.21403504C.15699768 .31404115 .22898865 .38606263 .32699586 .38806153Z"/>
<path id="font_1_81" d="M.46899415 .22009278C.46899415 .3539734 .36898805 .4609375 .25 .4609375 .1269989 .4609375 .02999878 .35098268 .02999878 .22009278 .02999878 .08821106 .13198853-.0107421879 .24899292-.0107421879 .36898805-.0107421879 .46899415 .09020996 .46899415 .22009278M.3909912 .23008728C.3909912 .112197879 .32299806 .053253175 .24899292 .053253175 .17999268 .053253175 .10798645 .109191898 .10798645 .23008728 .10798645 .35098268 .18399048 .39993287 .24899292 .39993287 .31900025 .39993287 .3909912 .34797669 .3909912 .23008728Z"/>
<path id="font_1_109" d="M.43499757 .00024414063V.44433595H.35699464V.15426636C.35699464 .07925415 .30099488 .04425049 .23699951 .04425049 .1659851 .04425049 .15899658 .070251468 .15899658 .11326599V.44433595H.08099365V.10926819C.08099365 .037246705 .10398865-.0107421879 .18699646-.0107421879 .23999024-.0107421879 .31098939 .0052490236 .3600006 .04824829V.00024414063H.43499757Z"/>
<path id="font_1_84" d="M.47999574 .22315979C.47999574 .34309388 .4169922 .45507813 .32099916 .45507813 .26098634 .45507813 .20298767 .43406678 .15699768 .3950653V.44407655H.08198547V-.19335938H.1599884V.04624939C.19099427 .01725769 .23498535-.0107421879 .29499818-.0107421879 .3919983-.0107421879 .47999574 .0872345 .47999574 .22315979M.4019928 .22315979C.4019928 .12020874 .33099366 .050247194 .2559967 .050247194 .21699524 .050247194 .18998719 .070236209 .16999817 .097229007 .1599884 .112213138 .1599884 .114212039 .1599884 .13220215V.33309938C.18399048 .36808778 .22299195 .3910675 .2659912 .3910675 .34199525 .3910675 .4019928 .31510926 .4019928 .22315979Z"/>
<path id="font_1_27" d="M.6380005 0 .3769989 .69433596H.2889862L.027999878 0H.101989749L.1789856 .20410156H.46998597L.54599 0H.6380005M.44799806 .26010133H.19999695C.25099183 .40316773 .21398926 .29811097 .2649994 .44119264 .28599549 .5002289 .31698609 .5852661 .32398988 .62228396H.32499696C.32699586 .60827639 .33399964 .5832672 .35699464 .5172272L.44799806 .26010133Z"/>
<path id="font_1_34" d="M.6100006 .18806458C.6100006 .27511598 .522995 .3461609 .4169922 .36317445 .5079956 .3861847 .58299258 .44421388 .58299258 .5202637 .58299258 .61231997 .47599793 .69433596 .33399964 .69433596H.09700012V0H.36099244C.5049896 .000076293948 .6100006 .09007263 .6100006 .18806458M.5049896 .5192108C.5049896 .45913697 .43399049 .3910675 .29599 .3910675H.17999268V.6383209H.30599977C.4169922 .6380768 .5049896 .58506777 .5049896 .5190735V.5192108M.5289917 .18902588C.5289917 .11401367 .44099427 .055999757 .33299256 .055999757H.17999268V.33007813H.32499696C.43099977 .32998658 .5289917 .2689972 .5289917 .18899536V.18902588Z"/>
<path id="font_1_42" d="M.58699038 .04525757 .58099368 .114227298C.5519867 .09423828 .522995 .07524109 .4889984 .06524658 .45700074 .054244996 .42199708 .053253175 .3880005 .053253175 .32299806 .053253175 .2639923 .08824158 .22299195 .13922119 .1769867 .19819641 .15499878 .27217103 .15499878 .3471527 .15499878 .42211915 .1769867 .49710084 .22299195 .55607607 .2639923 .60705569 .32299806 .64204409 .3880005 .64204409 .41799928 .64204409 .44898988 .63905337 .47799684 .63005068 .5079956 .62106326 .5359955 .60606387 .56199648 .58807376L.57598879 .67004397C.54599 .6820526 .5149994 .6920471 .48298646 .6980438 .45199586 .7040405 .41999818 .7060547 .3880005 .7060547 .2999878 .7060547 .21899414 .66604617 .1599884 .60105898 .09799194 .53108218 .06599426 .4401245 .06599426 .3471527 .06599426 .2541809 .09799194 .16320801 .1599884 .09423828 .21899414 .029251099 .2999878-.0107421879 .3880005-.0107421879 .4229889-.0107421879 .45799256-.009750366 .49198915 .00024414063 .526001 .009246826 .5569916 .027252198 .58699038 .04525757Z"/>
<path id="font_1_46" d="M.6649933 .341156C.6649933 .5352783 .5299988 .69433596 .35798646 .69433596H.09599304V0H.35899354C.5289917 0 .6649933 .15205384 .6649933 .341156M.57899478 .341156C.57899478 .17106629 .47499085 .055999757 .33499146 .055999757H.18199158V.6383209H.33499146C.47499085 .6383209 .57899478 .5172577 .57899478 .341156Z"/>
<path id="font_1_49" d="M.55400088 0V.070999149H.42799378C.41600038 .070999149 .4039917 .069992069 .3919983 .069992069H.18299866V.32910157H.5130005V.39009095H.18299866V.6269684H.32099916C.33299256 .6269684 .34498597 .62597659 .35699464 .62597659H.5399933V.69096377H.09399414V0H.55400088Z"/>
<path id="font_1_54" d="M.526001 .6263275V.69132998H.09399414V0H.18299866V.31497193H.4850006V.37597657H.18299866V.6273346H.31399537C.32598878 .6273346 .33799745 .6263275 .34999085 .6263275H.526001Z"/>
<path id="font_1_82" d="M.42399598 0V.057998659H.29899598V.6777344H.2789917C.21998596 .6166992 .13699341 .6137085 .08898926 .6117096V.55371096C.12199402 .55470278 .16999817 .55670168 .21998596 .57769778V.057998659H.09498596V0H.42399598Z"/>
<path id="font_1_107" d="M.44898988 0V.070999149H.2669983C.25498963 .070999149 .24299622 .069992069 .23098755 .069992069H.12199402C.1539917 .09794617 .22999573 .17280579 .26098634 .20178223 .27999879 .2197876 .33099366 .2617798 .34999085 .27978517 .394989 .32476808 .44898988 .37776185 .44898988 .4627533 .44898988 .5777283 .36799623 .6777344 .23599243 .6777344 .12199402 .6777344 .06599426 .59973147 .041992189 .51374819 .053985597 .49674989 .05899048 .49075318 .06098938 .4877472 .06298828 .4857483 .07299805 .4727478 .08299255 .4587555 .102996829 .5357361 .1309967 .61372378 .22200012 .61372378 .31599427 .61372378 .36698915 .53874209 .36698915 .4607544 .36698915 .37576295 .30999757 .31877137 .25099183 .25878907L.17399597 .18777466 .049987794 .06399536V0H.44898988Z"/>
<path id="font_1_106" d="M.45700074 .17964173C.45700074 .27072145 .3869934 .33276368 .31900025 .35375978 .394989 .39476014 .42999269 .4627533 .42999269 .5257416 .42999269 .61172488 .34700013 .6777344 .24798584 .6777344 .17098999 .6777344 .09799194 .63772585 .055999757 .56773379L.09199524 .51374819C.12098694 .583725 .18598938 .61972048 .24699402 .61972048 .29899598 .61972048 .34799195 .58973696 .34799195 .5257416 .34799195 .4647522 .30699159 .40576173 .24598694 .39175416 .23999024 .39076234 .23799134 .39076234 .16699219 .38476563V.323761H.23799134C.34599305 .323761 .36799623 .23068238 .36799623 .1806488 .36799623 .10258484 .32199098 .038528444 .24499512 .038528444 .17599488 .038528444 .09700012 .07356262 .052993776 .14161682L.041992189 .08155823C.114990238-.012466431 .20698548-.022460938 .24699402-.022460938 .36898805-.022460938 .45700074 .07455444 .45700074 .17964173Z"/>
<path id="font_1_57" d="M.47099305 .17089844V.23188782H.37199403V.65625H.2809906L.027999878 .23188782V.17089844H.29299928V0H.37199403V.17089844H.47099305M.29899598 .23188782H.10598755C.1579895 .31796266 .2979889 .5551605 .29899598 .6121979V.23188782Z"/>
<path id="font_1_56" d="M.44898988 .2028656C.44898988 .328125 .36299134 .42720033 .2599945 .42720033 .21998596 .42720033 .18199158 .41220094 .15299988 .38619996V.5922394H.41600038V.65625H.08099365V.28704835H.14698792C.1639862 .32711793 .20098877 .36621095 .25898744 .36621095 .30599977 .36621095 .3600006 .32511903 .3600006 .20487976 .3600006 .038528444 .23799134 .038528444 .22898865 .038528444 .1619873 .038528444 .100997928 .0776062 .07199097 .13172913L.038986207 .0756073C.07998657 .01852417 .14898682-.022460938 .22999573-.022460938 .34899903-.022460938 .44898988 .07661438 .44898988 .2028656Z"/>
<path id="font_1_101" d="M.45700074 .22172547C.45700074 .34985353 .3909912 .46191407 .29499818 .46191407 .2630005 .46191407 .18699646 .4539032 .12599182 .37887574 .13899231 .5398102 .21798706 .61972048 .30999757 .61972048 .34799195 .61972048 .37998963 .61273196 .4149933 .5987549V.6577301C.3639984 .6777344 .32299806 .6777344 .30899049 .6777344 .16799927 .6777344 .041992189 .53681948 .041992189 .32182313 .041992189 .038528444 .1659851-.022460938 .25099183-.022460938 .31098939-.022460938 .35398866 .0005340576 .3929901 .045532228 .43798829 .096588138 .45700074 .14263916 .45700074 .22172547M.375 .22172547C.375 .1876831 .375 .14163208 .35099793 .1006012 .33399964 .0725708 .30799867 .038528444 .25099183 .038528444 .14498902 .038528444 .12998963 .1856842 .1269989 .21871948 .1269989 .23272705 .1269989 .23472595 .12799073 .24674988 .12799073 .32081605 .17298889 .40090943 .2559967 .40090943 .3039856 .40090943 .33198548 .375885 .35198976 .33883668 .37298585 .3018036 .375 .2667694 .375 .22172547Z"/>
<path id="font_1_100" d="M.45700074 .59124758V.65625H.041992189V.5852356H.23199463C.24398804 .5852356 .2559967 .5862427 .2679901 .5862427H.3889923C.24099732 .4232483 .1519928 .22325135 .1519928-.0107421879H.23599243C.23599243 .2892456 .3789978 .5032501 .45700074 .59124758Z"/>
<path id="font_1_51" d="M.45700074 .17964173C.45700074 .27072145 .3869934 .3317566 .31999208 .3547516 .40899659 .38375855 .44299317 .4497528 .44299317 .5027466 .44299317 .59672549 .35798646 .6777344 .25 .6777344 .13798523 .6777344 .055999757 .59472659 .055999757 .5027466 .055999757 .4497528 .08999634 .38375855 .1789856 .3547516 .10699463 .3297577 .041992189 .26670838 .041992189 .17964173 .041992189 .07055664 .13398743-.022460938 .24899292-.022460938 .36799623-.022460938 .45700074 .07356262 .45700074 .17964173M.37298585 .5027466C.37298585 .43075563 .32199098 .38476563 .25 .38476563 .17298889 .38476563 .12599182 .43374635 .12599182 .5027466 .12599182 .57173159 .1749878 .61972048 .24899292 .61972048 .32798768 .61972048 .37298585 .56773379 .37298585 .5027466M.37599183 .1806488C.37599183 .08357239 .31399537 .038528444 .25 .038528444 .18099976 .038528444 .12298584 .08656311 .12298584 .1806488 .12298584 .28572084 .19499207 .323761 .24899292 .323761 .30699159 .323761 .37599183 .28372193 .37599183 .1806488Z"/>
</defs>
<path transform="matrix(1.00003,0,0,-1.00005,61.209474,185.04044)" stroke-width="1.19553" stroke-linecap="butt" stroke-miterlimit="10" stroke-linejoin="miter" fill="none" stroke="#00aeef" d="M-14.17339 15.59082V41.10277H212.60106V15.59082ZM212.60106 41.10277"/>
<use data-text="G" xlink:href="#font_1_58" transform="matrix(9.962899,0,0,-9.963098,1.1296692,160.66022)"/>
<use data-text="r" xlink:href="#font_1_96" transform="matrix(9.962899,0,0,-9.963098,7.774925,160.66022)"/>
<use data-text="o" xlink:href="#font_1_81" transform="matrix(9.962899,0,0,-9.963098,11.182236,160.66022)"/>
<use data-text="u" xlink:href="#font_1_109" transform="matrix(9.962899,0,0,-9.963098,16.163689,160.66022)"/>
<use data-text="p" xlink:href="#font_1_84" transform="matrix(9.962899,0,0,-9.963098,21.314507,160.66022)"/>
<use data-text="A" xlink:href="#font_1_27" transform="matrix(9.962899,0,0,-9.963098,29.782975,160.66022)"/>
<path transform="matrix(1.00003,0,0,-1.00005,61.209474,185.04044)" stroke-width="1.19553" stroke-linecap="butt" stroke-miterlimit="10" stroke-linejoin="miter" fill="none" stroke="#00aeef" d="M-14.17339 43.93764V69.44957H212.60106V43.93764ZM212.60106 69.44957"/>
<use data-text="G" xlink:href="#font_1_58" transform="matrix(9.962899,0,0,-9.963098,1.1296692,132.3118)"/>
<use data-text="r" xlink:href="#font_1_96" transform="matrix(9.962899,0,0,-9.963098,7.774925,132.3118)"/>
<use data-text="o" xlink:href="#font_1_81" transform="matrix(9.962899,0,0,-9.963098,11.182236,132.3118)"/>
<use data-text="u" xlink:href="#font_1_109" transform="matrix(9.962899,0,0,-9.963098,16.163689,132.3118)"/>
<use data-text="p" xlink:href="#font_1_84" transform="matrix(9.962899,0,0,-9.963098,21.314507,132.3118)"/>
<use data-text="B" xlink:href="#font_1_34" transform="matrix(9.962899,0,0,-9.963098,29.782975,132.3118)"/>
<path transform="matrix(1.00003,0,0,-1.00005,61.209474,185.04044)" stroke-width="1.19553" stroke-linecap="butt" stroke-miterlimit="10" stroke-linejoin="miter" fill="none" stroke="#00aeef" d="M-14.17339 72.28444V97.79639H212.60106V72.28444ZM212.60106 97.79639"/>
<use data-text="G" xlink:href="#font_1_58" transform="matrix(9.962899,0,0,-9.963098,1.4086762,103.96339)"/>
<use data-text="r" xlink:href="#font_1_96" transform="matrix(9.962899,0,0,-9.963098,8.053932,103.96339)"/>
<use data-text="o" xlink:href="#font_1_81" transform="matrix(9.962899,0,0,-9.963098,11.461243,103.96339)"/>
<use data-text="u" xlink:href="#font_1_109" transform="matrix(9.962899,0,0,-9.963098,16.442696,103.96339)"/>
<use data-text="p" xlink:href="#font_1_84" transform="matrix(9.962899,0,0,-9.963098,21.593514,103.96339)"/>
<use data-text="C" xlink:href="#font_1_42" transform="matrix(9.962899,0,0,-9.963098,30.061982,103.96339)"/>
<path transform="matrix(1.00003,0,0,-1.00005,61.209474,185.04044)" stroke-width="1.19553" stroke-linecap="butt" stroke-miterlimit="10" stroke-linejoin="miter" fill="none" stroke="#00aeef" d="M-14.17339 100.63126V126.1432H212.60106V100.63126ZM212.60106 126.1432"/>
<use data-text="G" xlink:href="#font_1_58" transform="matrix(9.962899,0,0,-9.963098,.5816498,75.615978)"/>
<use data-text="r" xlink:href="#font_1_96" transform="matrix(9.962899,0,0,-9.963098,7.226906,75.615978)"/>
<use data-text="o" xlink:href="#font_1_81" transform="matrix(9.962899,0,0,-9.963098,10.634216,75.615978)"/>
<use data-text="u" xlink:href="#font_1_109" transform="matrix(9.962899,0,0,-9.963098,15.615669,75.615978)"/>
<use data-text="p" xlink:href="#font_1_84" transform="matrix(9.962899,0,0,-9.963098,20.766488,75.615978)"/>
<use data-text="D" xlink:href="#font_1_46" transform="matrix(9.962899,0,0,-9.963098,29.234955,75.615978)"/>
<path transform="matrix(1.00003,0,0,-1.00005,61.209474,185.04044)" stroke-width="1.19553" stroke-linecap="butt" stroke-miterlimit="10" stroke-linejoin="miter" fill="none" stroke="#00aeef" d="M-14.17339 128.97806V154.49H212.60106V128.97806ZM212.60106 154.49"/>
<use data-text="G" xlink:href="#font_1_58" transform="matrix(9.962899,0,0,-9.963098,1.8266907,47.267549)"/>
<use data-text="r" xlink:href="#font_1_96" transform="matrix(9.962899,0,0,-9.963098,8.471947,47.267549)"/>
<use data-text="o" xlink:href="#font_1_81" transform="matrix(9.962899,0,0,-9.963098,11.879257,47.267549)"/>
<use data-text="u" xlink:href="#font_1_109" transform="matrix(9.962899,0,0,-9.963098,16.86071,47.267549)"/>
<use data-text="p" xlink:href="#font_1_84" transform="matrix(9.962899,0,0,-9.963098,22.011528,47.267549)"/>
<use data-text="E" xlink:href="#font_1_49" transform="matrix(9.962899,0,0,-9.963098,30.479996,47.267549)"/>
<path transform="matrix(1.00003,0,0,-1.00005,61.209474,185.04044)" stroke-width="1.19553" stroke-linecap="butt" stroke-miterlimit="10" stroke-linejoin="miter" fill="none" stroke="#00aeef" d="M-14.17339 157.32488V182.83683H212.60106V157.32488ZM212.60106 182.83683"/>
<use data-text="G" xlink:href="#font_1_58" transform="matrix(9.962899,0,0,-9.963098,2.1056977,18.919129)"/>
<use data-text="r" xlink:href="#font_1_96" transform="matrix(9.962899,0,0,-9.963098,8.750954,18.919129)"/>
<use data-text="o" xlink:href="#font_1_81" transform="matrix(9.962899,0,0,-9.963098,12.158264,18.919129)"/>
<use data-text="u" xlink:href="#font_1_109" transform="matrix(9.962899,0,0,-9.963098,17.139718,18.919129)"/>
<use data-text="p" xlink:href="#font_1_84" transform="matrix(9.962899,0,0,-9.963098,22.290535,18.919129)"/>
<use data-text="F" xlink:href="#font_1_54" transform="matrix(9.962899,0,0,-9.963098,30.759003,18.919129)"/>
<path transform="matrix(1.00003,0,0,-1.00005,61.209474,185.04044)" d="M8.50412 28.3468C8.50412 33.04356 4.69675 36.85092 0 36.85092-4.69675 36.85092-8.50412 33.04356-8.50412 28.3468-8.50412 23.65004-4.69675 19.84268 0 19.84268 4.69675 19.84268 8.50412 23.65004 8.50412 28.3468ZM0 28.3468" fill="#7f807f"/>
<path transform="matrix(1.00003,0,0,-1.00005,61.209474,185.04044)" stroke-width=".3985" stroke-linecap="butt" stroke-miterlimit="10" stroke-linejoin="miter" fill="none" stroke="#000000" d="M8.50412 28.3468C8.50412 33.04356 4.69675 36.85092 0 36.85092-4.69675 36.85092-8.50412 33.04356-8.50412 28.3468-8.50412 23.65004-4.69675 19.84268 0 19.84268 4.69675 19.84268 8.50412 23.65004 8.50412 28.3468ZM0 28.3468"/>
<use data-text="A" xlink:href="#font_1_27" transform="matrix(9.962899,0,0,-9.963098,55.396299,160.1492)" fill="#ffffff"/>
<use data-text="1" xlink:href="#font_1_82" transform="matrix(9.962899,0,0,-9.963098,62.041555,160.1492)" fill="#ffffff"/>
<path transform="matrix(1.00003,0,0,-1.00005,61.209474,185.04044)" d="M36.85092 28.3468C36.85092 33.04356 33.04356 36.85092 28.3468 36.85092 23.65004 36.85092 19.84268 33.04356 19.84268 28.3468 19.84268 23.65004 23.65004 19.84268 28.3468 19.84268 33.04356 19.84268 36.85092 23.65004 36.85092 28.3468ZM28.3468 28.3468" fill="#7f807f"/>
<path transform="matrix(1.00003,0,0,-1.00005,61.209474,185.04044)" stroke-width=".3985" stroke-linecap="butt" stroke-miterlimit="10" stroke-linejoin="miter" fill="none" stroke="#000000" d="M36.85092 28.3468C36.85092 33.04356 33.04356 36.85092 28.3468 36.85092 23.65004 36.85092 19.84268 33.04356 19.84268 28.3468 19.84268 23.65004 23.65004 19.84268 28.3468 19.84268 33.04356 19.84268 36.85092 23.65004 36.85092 28.3468ZM28.3468 28.3468"/>
<use data-text="A" xlink:href="#font_1_27" transform="matrix(9.962899,0,0,-9.963098,83.74415,160.1492)" fill="#ffffff"/>
<use data-text="2" xlink:href="#font_1_107" transform="matrix(9.962899,0,0,-9.963098,90.389408,160.1492)" fill="#ffffff"/>
<path transform="matrix(1.00003,0,0,-1.00005,61.209474,185.04044)" d="M65.19774 28.3468C65.19774 33.04356 61.39037 36.85092 56.69362 36.85092 51.99686 36.85092 48.18948 33.04356 48.18948 28.3468 48.18948 23.65004 51.99686 19.84268 56.69362 19.84268 61.39037 19.84268 65.19774 23.65004 65.19774 28.3468ZM56.69362 28.3468" fill="#7f807f"/>
<path transform="matrix(1.00003,0,0,-1.00005,61.209474,185.04044)" stroke-width=".3985" stroke-linecap="butt" stroke-miterlimit="10" stroke-linejoin="miter" fill="none" stroke="#000000" d="M65.19774 28.3468C65.19774 33.04356 61.39037 36.85092 56.69362 36.85092 51.99686 36.85092 48.18948 33.04356 48.18948 28.3468 48.18948 23.65004 51.99686 19.84268 56.69362 19.84268 61.39037 19.84268 65.19774 23.65004 65.19774 28.3468ZM56.69362 28.3468"/>
<use data-text="A" xlink:href="#font_1_27" transform="matrix(9.962899,0,0,-9.963098,112.091,160.04019)" fill="#ffffff"/>
<use data-text="3" xlink:href="#font_1_106" transform="matrix(9.962899,0,0,-9.963098,118.73626,160.04019)" fill="#ffffff"/>
<path transform="matrix(1.00003,0,0,-1.00005,61.209474,185.04044)" d="M93.54454 28.3468C93.54454 33.04356 89.73718 36.85092 85.04042 36.85092 80.34366 36.85092 76.5363 33.04356 76.5363 28.3468 76.5363 23.65004 80.34366 19.84268 85.04042 19.84268 89.73718 19.84268 93.54454 23.65004 93.54454 28.3468ZM85.04042 28.3468" fill="#7f807f"/>
<path transform="matrix(1.00003,0,0,-1.00005,61.209474,185.04044)" stroke-width=".3985" stroke-linecap="butt" stroke-miterlimit="10" stroke-linejoin="miter" fill="none" stroke="#000000" d="M93.54454 28.3468C93.54454 33.04356 89.73718 36.85092 85.04042 36.85092 80.34366 36.85092 76.5363 33.04356 76.5363 28.3468 76.5363 23.65004 80.34366 19.84268 85.04042 19.84268 89.73718 19.84268 93.54454 23.65004 93.54454 28.3468ZM85.04042 28.3468"/>
<use data-text="A" xlink:href="#font_1_27" transform="matrix(9.962899,0,0,-9.963098,140.43885,160.1492)" fill="#ffffff"/>
<use data-text="4" xlink:href="#font_1_57" transform="matrix(9.962899,0,0,-9.963098,147.0841,160.1492)" fill="#ffffff"/>
<path transform="matrix(1.00003,0,0,-1.00005,61.209474,185.04044)" d="M121.89136 28.3468C121.89136 33.04356 118.08398 36.85092 113.38724 36.85092 108.69048 36.85092 104.8831 33.04356 104.8831 28.3468 104.8831 23.65004 108.69048 19.84268 113.38724 19.84268 118.08398 19.84268 121.89136 23.65004 121.89136 28.3468ZM113.38724 28.3468" fill="#7f807f"/>
<path transform="matrix(1.00003,0,0,-1.00005,61.209474,185.04044)" stroke-width=".3985" stroke-linecap="butt" stroke-miterlimit="10" stroke-linejoin="miter" fill="none" stroke="#000000" d="M121.89136 28.3468C121.89136 33.04356 118.08398 36.85092 113.38724 36.85092 108.69048 36.85092 104.8831 33.04356 104.8831 28.3468 104.8831 23.65004 108.69048 19.84268 113.38724 19.84268 118.08398 19.84268 121.89136 23.65004 121.89136 28.3468ZM113.38724 28.3468"/>
<use data-text="A" xlink:href="#font_1_27" transform="matrix(9.962899,0,0,-9.963098,168.78672,160.04019)" fill="#ffffff"/>
<use data-text="5" xlink:href="#font_1_56" transform="matrix(9.962899,0,0,-9.963098,175.43196,160.04019)" fill="#ffffff"/>
<path transform="matrix(1.00003,0,0,-1.00005,61.209474,185.04044)" d="M150.23816 28.3468C150.23816 33.04356 146.4308 36.85092 141.73404 36.85092 137.03728 36.85092 133.22992 33.04356 133.22992 28.3468 133.22992 23.65004 137.03728 19.84268 141.73404 19.84268 146.4308 19.84268 150.23816 23.65004 150.23816 28.3468ZM141.73404 28.3468" fill="#7f807f"/>
<path transform="matrix(1.00003,0,0,-1.00005,61.209474,185.04044)" stroke-width=".3985" stroke-linecap="butt" stroke-miterlimit="10" stroke-linejoin="miter" fill="none" stroke="#000000" d="M150.23816 28.3468C150.23816 33.04356 146.4308 36.85092 141.73404 36.85092 137.03728 36.85092 133.22992 33.04356 133.22992 28.3468 133.22992 23.65004 137.03728 19.84268 141.73404 19.84268 146.4308 19.84268 150.23816 23.65004 150.23816 28.3468ZM141.73404 28.3468"/>
<use data-text="A" xlink:href="#font_1_27" transform="matrix(9.962899,0,0,-9.963098,197.13457,160.04019)" fill="#ffffff"/>
<use data-text="6" xlink:href="#font_1_101" transform="matrix(9.962899,0,0,-9.963098,203.77982,160.04019)" fill="#ffffff"/>
<path transform="matrix(1.00003,0,0,-1.00005,61.209474,185.04044)" d="M178.58498 28.3468C178.58498 33.04356 174.7776 36.85092 170.08086 36.85092 165.3841 36.85092 161.57672 33.04356 161.57672 28.3468 161.57672 23.65004 165.3841 19.84268 170.08086 19.84268 174.7776 19.84268 178.58498 23.65004 178.58498 28.3468ZM170.08086 28.3468" fill="#7f807f"/>
<path transform="matrix(1.00003,0,0,-1.00005,61.209474,185.04044)" stroke-width=".3985" stroke-linecap="butt" stroke-miterlimit="10" stroke-linejoin="miter" fill="none" stroke="#000000" d="M178.58498 28.3468C178.58498 33.04356 174.7776 36.85092 170.08086 36.85092 165.3841 36.85092 161.57672 33.04356 161.57672 28.3468 161.57672 23.65004 165.3841 19.84268 170.08086 19.84268 174.7776 19.84268 178.58498 23.65004 178.58498 28.3468ZM170.08086 28.3468"/>
<use data-text="A" xlink:href="#font_1_27" transform="matrix(9.962899,0,0,-9.963098,225.4824,160.0942)" fill="#ffffff"/>
<use data-text="7" xlink:href="#font_1_100" transform="matrix(9.962899,0,0,-9.963098,232.12766,160.0942)" fill="#ffffff"/>
<path transform="matrix(1.00003,0,0,-1.00005,61.209474,185.04044)" d="M206.93178 28.3468C206.93178 33.04356 203.12442 36.85092 198.42766 36.85092 193.73091 36.85092 189.92354 33.04356 189.92354 28.3468 189.92354 23.65004 193.73091 19.84268 198.42766 19.84268 203.12442 19.84268 206.93178 23.65004 206.93178 28.3468ZM198.42766 28.3468" fill="#7f807f"/>
<path transform="matrix(1.00003,0,0,-1.00005,61.209474,185.04044)" stroke-width=".3985" stroke-linecap="butt" stroke-miterlimit="10" stroke-linejoin="miter" fill="none" stroke="#000000" d="M206.93178 28.3468C206.93178 33.04356 203.12442 36.85092 198.42766 36.85092 193.73091 36.85092 189.92354 33.04356 189.92354 28.3468 189.92354 23.65004 193.73091 19.84268 198.42766 19.84268 203.12442 19.84268 206.93178 23.65004 206.93178 28.3468ZM198.42766 28.3468"/>
<use data-text="A" xlink:href="#font_1_27" transform="matrix(9.962899,0,0,-9.963098,253.82926,160.04019)" fill="#ffffff"/>
<use data-text="8" xlink:href="#font_1_51" transform="matrix(9.962899,0,0,-9.963098,260.47453,160.04019)" fill="#ffffff"/>
<path transform="matrix(1.00003,0,0,-1.00005,61.209474,185.04044)" d="M8.50412 56.69362C8.50412 61.39037 4.69675 65.19774 0 65.19774-4.69675 65.19774-8.50412 61.39037-8.50412 56.69362-8.50412 51.99686-4.69675 48.18948 0 48.18948 4.69675 48.18948 8.50412 51.99686 8.50412 56.69362ZM0 56.69362" fill="#7f807f"/>
<path transform="matrix(1.00003,0,0,-1.00005,61.209474,185.04044)" stroke-width=".3985" stroke-linecap="butt" stroke-miterlimit="10" stroke-linejoin="miter" fill="none" stroke="#000000" d="M8.50412 56.69362C8.50412 61.39037 4.69675 65.19774 0 65.19774-4.69675 65.19774-8.50412 61.39037-8.50412 56.69362-8.50412 51.99686-4.69675 48.18948 0 48.18948 4.69675 48.18948 8.50412 51.99686 8.50412 56.69362ZM0 56.69362"/>
<use data-text="B" xlink:href="#font_1_34" transform="matrix(9.962899,0,0,-9.963098,55.396299,131.80078)" fill="#ffffff"/>
<use data-text="1" xlink:href="#font_1_82" transform="matrix(9.962899,0,0,-9.963098,62.041555,131.80078)" fill="#ffffff"/>
<path transform="matrix(1.00003,0,0,-1.00005,61.209474,185.04044)" d="M36.85092 56.69362C36.85092 61.39037 33.04356 65.19774 28.3468 65.19774 23.65004 65.19774 19.84268 61.39037 19.84268 56.69362 19.84268 51.99686 23.65004 48.18948 28.3468 48.18948 33.04356 48.18948 36.85092 51.99686 36.85092 56.69362ZM28.3468 56.69362" fill="#7f807f"/>
<path transform="matrix(1.00003,0,0,-1.00005,61.209474,185.04044)" stroke-width=".3985" stroke-linecap="butt" stroke-miterlimit="10" stroke-linejoin="miter" fill="none" stroke="#000000" d="M36.85092 56.69362C36.85092 61.39037 33.04356 65.19774 28.3468 65.19774 23.65004 65.19774 19.84268 61.39037 19.84268 56.69362 19.84268 51.99686 23.65004 48.18948 28.3468 48.18948 33.04356 48.18948 36.85092 51.99686 36.85092 56.69362ZM28.3468 56.69362"/>
<use data-text="B" xlink:href="#font_1_34" transform="matrix(9.962899,0,0,-9.963098,83.74415,131.80078)" fill="#ffffff"/>
<use data-text="2" xlink:href="#font_1_107" transform="matrix(9.962899,0,0,-9.963098,90.389408,131.80078)" fill="#ffffff"/>
<path transform="matrix(1.00003,0,0,-1.00005,61.209474,185.04044)" d="M65.19774 56.69362C65.19774 61.39037 61.39037 65.19774 56.69362 65.19774 51.99686 65.19774 48.18948 61.39037 48.18948 56.69362 48.18948 51.99686 51.99686 48.18948 56.69362 48.18948 61.39037 48.18948 65.19774 51.99686 65.19774 56.69362ZM56.69362 56.69362" fill="#7f807f"/>
<path transform="matrix(1.00003,0,0,-1.00005,61.209474,185.04044)" stroke-width=".3985" stroke-linecap="butt" stroke-miterlimit="10" stroke-linejoin="miter" fill="none" stroke="#000000" d="M65.19774 56.69362C65.19774 61.39037 61.39037 65.19774 56.69362 65.19774 51.99686 65.19774 48.18948 61.39037 48.18948 56.69362 48.18948 51.99686 51.99686 48.18948 56.69362 48.18948 61.39037 48.18948 65.19774 51.99686 65.19774 56.69362ZM56.69362 56.69362"/>
<use data-text="B" xlink:href="#font_1_34" transform="matrix(9.962899,0,0,-9.963098,112.091,131.69178)" fill="#ffffff"/>
<use data-text="3" xlink:href="#font_1_106" transform="matrix(9.962899,0,0,-9.963098,118.73626,131.69178)" fill="#ffffff"/>
<path transform="matrix(1.00003,0,0,-1.00005,61.209474,185.04044)" d="M93.54454 56.69362C93.54454 61.39037 89.73718 65.19774 85.04042 65.19774 80.34366 65.19774 76.5363 61.39037 76.5363 56.69362 76.5363 51.99686 80.34366 48.18948 85.04042 48.18948 89.73718 48.18948 93.54454 51.99686 93.54454 56.69362ZM85.04042 56.69362" fill="#7f807f"/>
<path transform="matrix(1.00003,0,0,-1.00005,61.209474,185.04044)" stroke-width=".3985" stroke-linecap="butt" stroke-miterlimit="10" stroke-linejoin="miter" fill="none" stroke="#000000" d="M93.54454 56.69362C93.54454 61.39037 89.73718 65.19774 85.04042 65.19774 80.34366 65.19774 76.5363 61.39037 76.5363 56.69362 76.5363 51.99686 80.34366 48.18948 85.04042 48.18948 89.73718 48.18948 93.54454 51.99686 93.54454 56.69362ZM85.04042 56.69362"/>
<use data-text="B" xlink:href="#font_1_34" transform="matrix(9.962899,0,0,-9.963098,140.43885,131.80078)" fill="#ffffff"/>
<use data-text="4" xlink:href="#font_1_57" transform="matrix(9.962899,0,0,-9.963098,147.0841,131.80078)" fill="#ffffff"/>
<path transform="matrix(1.00003,0,0,-1.00005,61.209474,185.04044)" d="M121.89136 56.69362C121.89136 61.39037 118.08398 65.19774 113.38724 65.19774 108.69048 65.19774 104.8831 61.39037 104.8831 56.69362 104.8831 51.99686 108.69048 48.18948 113.38724 48.18948 118.08398 48.18948 121.89136 51.99686 121.89136 56.69362ZM113.38724 56.69362" fill="#7f807f"/>
<path transform="matrix(1.00003,0,0,-1.00005,61.209474,185.04044)" stroke-width=".3985" stroke-linecap="butt" stroke-miterlimit="10" stroke-linejoin="miter" fill="none" stroke="#000000" d="M121.89136 56.69362C121.89136 61.39037 118.08398 65.19774 113.38724 65.19774 108.69048 65.19774 104.8831 61.39037 104.8831 56.69362 104.8831 51.99686 108.69048 48.18948 113.38724 48.18948 118.08398 48.18948 121.89136 51.99686 121.89136 56.69362ZM113.38724 56.69362"/>
<use data-text="B" xlink:href="#font_1_34" transform="matrix(9.962899,0,0,-9.963098,168.78672,131.69178)" fill="#ffffff"/>
<use data-text="5" xlink:href="#font_1_56" transform="matrix(9.962899,0,0,-9.963098,175.43196,131.69178)" fill="#ffffff"/>
<path transform="matrix(1.00003,0,0,-1.00005,61.209474,185.04044)" d="M150.23816 56.69362C150.23816 61.39037 146.4308 65.19774 141.73404 65.19774 137.03728 65.19774 133.22992 61.39037 133.22992 56.69362 133.22992 51.99686 137.03728 48.18948 141.73404 48.18948 146.4308 48.18948 150.23816 51.99686 150.23816 56.69362ZM141.73404 56.69362" fill="#7f807f"/>
<path transform="matrix(1.00003,0,0,-1.00005,61.209474,185.04044)" stroke-width=".3985" stroke-linecap="butt" stroke-miterlimit="10" stroke-linejoin="miter" fill="none" stroke="#000000" d="M150.23816 56.69362C150.23816 61.39037 146.4308 65.19774 141.73404 65.19774 137.03728 65.19774 133.22992 61.39037 133.22992 56.69362 133.22992 51.99686 137.03728 48.18948 141.73404 48.18948 146.4308 48.18948 150.23816 51.99686 150.23816 56.69362ZM141.73404 56.69362"/>
<use data-text="B" xlink:href="#font_1_34" transform="matrix(9.962899,0,0,-9.963098,197.13457,131.69178)" fill="#ffffff"/>
<use data-text="6" xlink:href="#font_1_101" transform="matrix(9.962899,0,0,-9.963098,203.77982,131.69178)" fill="#ffffff"/>
<path transform="matrix(1.00003,0,0,-1.00005,61.209474,185.04044)" d="M178.58498 56.69362C178.58498 61.39037 174.7776 65.19774 170.08086 65.19774 165.3841 65.19774 161.57672 61.39037 161.57672 56.69362 161.57672 51.99686 165.3841 48.18948 170.08086 48.18948 174.7776 48.18948 178.58498 51.99686 178.58498 56.69362ZM170.08086 56.69362" fill="#7f807f"/>
<path transform="matrix(1.00003,0,0,-1.00005,61.209474,185.04044)" stroke-width=".3985" stroke-linecap="butt" stroke-miterlimit="10" stroke-linejoin="miter" fill="none" stroke="#000000" d="M178.58498 56.69362C178.58498 61.39037 174.7776 65.19774 170.08086 65.19774 165.3841 65.19774 161.57672 61.39037 161.57672 56.69362 161.57672 51.99686 165.3841 48.18948 170.08086 48.18948 174.7776 48.18948 178.58498 51.99686 178.58498 56.69362ZM170.08086 56.69362"/>
<use data-text="B" xlink:href="#font_1_34" transform="matrix(9.962899,0,0,-9.963098,225.4824,131.74677)" fill="#ffffff"/>
<use data-text="7" xlink:href="#font_1_100" transform="matrix(9.962899,0,0,-9.963098,232.12766,131.74677)" fill="#ffffff"/>
<path transform="matrix(1.00003,0,0,-1.00005,61.209474,185.04044)" d="M206.93178 56.69362C206.93178 61.39037 203.12442 65.19774 198.42766 65.19774 193.73091 65.19774 189.92354 61.39037 189.92354 56.69362 189.92354 51.99686 193.73091 48.18948 198.42766 48.18948 203.12442 48.18948 206.93178 51.99686 206.93178 56.69362ZM198.42766 56.69362" fill="#7f807f"/>
<path transform="matrix(1.00003,0,0,-1.00005,61.209474,185.04044)" stroke-width=".3985" stroke-linecap="butt" stroke-miterlimit="10" stroke-linejoin="miter" fill="none" stroke="#000000" d="M206.93178 56.69362C206.93178 61.39037 203.12442 65.19774 198.42766 65.19774 193.73091 65.19774 189.92354 61.39037 189.92354 56.69362 189.92354 51.99686 193.73091 48.18948 198.42766 48.18948 203.12442 48.18948 206.93178 51.99686 206.93178 56.69362ZM198.42766 56.69362"/>
<use data-text="B" xlink:href="#font_1_34" transform="matrix(9.962899,0,0,-9.963098,253.82926,131.69178)" fill="#ffffff"/>
<use data-text="8" xlink:href="#font_1_51" transform="matrix(9.962899,0,0,-9.963098,260.47453,131.69178)" fill="#ffffff"/>
<path transform="matrix(1.00003,0,0,-1.00005,61.209474,185.04044)" d="M8.50412 85.04042C8.50412 89.73718 4.69675 93.54454 0 93.54454-4.69675 93.54454-8.50412 89.73718-8.50412 85.04042-8.50412 80.34366-4.69675 76.5363 0 76.5363 4.69675 76.5363 8.50412 80.34366 8.50412 85.04042ZM0 85.04042" fill="#7f807f"/>
<path transform="matrix(1.00003,0,0,-1.00005,61.209474,185.04044)" stroke-width=".3985" stroke-linecap="butt" stroke-miterlimit="10" stroke-linejoin="miter" fill="none" stroke="#000000" d="M8.50412 85.04042C8.50412 89.73718 4.69675 93.54454 0 93.54454-4.69675 93.54454-8.50412 89.73718-8.50412 85.04042-8.50412 80.34366-4.69675 76.5363 0 76.5363 4.69675 76.5363 8.50412 80.34366 8.50412 85.04042ZM0 85.04042"/>
<use data-text="C" xlink:href="#font_1_42" transform="matrix(9.962899,0,0,-9.963098,55.5353,103.45836)" fill="#ffffff"/>
<use data-text="1" xlink:href="#font_1_82" transform="matrix(9.962899,0,0,-9.963098,61.901597,103.45836)" fill="#ffffff"/>
<path transform="matrix(1.00003,0,0,-1.00005,61.209474,185.04044)" d="M36.85092 85.04042C36.85092 89.73718 33.04356 93.54454 28.3468 93.54454 23.65004 93.54454 19.84268 89.73718 19.84268 85.04042 19.84268 80.34366 23.65004 76.5363 28.3468 76.5363 33.04356 76.5363 36.85092 80.34366 36.85092 85.04042ZM28.3468 85.04042" fill="#7f807f"/>
<path transform="matrix(1.00003,0,0,-1.00005,61.209474,185.04044)" stroke-width=".3985" stroke-linecap="butt" stroke-miterlimit="10" stroke-linejoin="miter" fill="none" stroke="#000000" d="M36.85092 85.04042C36.85092 89.73718 33.04356 93.54454 28.3468 93.54454 23.65004 93.54454 19.84268 89.73718 19.84268 85.04042 19.84268 80.34366 23.65004 76.5363 28.3468 76.5363 33.04356 76.5363 36.85092 80.34366 36.85092 85.04042ZM28.3468 85.04042"/>
<use data-text="C" xlink:href="#font_1_42" transform="matrix(9.962899,0,0,-9.963098,83.883159,103.45836)" fill="#ffffff"/>
<use data-text="2" xlink:href="#font_1_107" transform="matrix(9.962899,0,0,-9.963098,90.24945,103.45836)" fill="#ffffff"/>
<path transform="matrix(1.00003,0,0,-1.00005,61.209474,185.04044)" d="M65.19774 85.04042C65.19774 89.73718 61.39037 93.54454 56.69362 93.54454 51.99686 93.54454 48.18948 89.73718 48.18948 85.04042 48.18948 80.34366 51.99686 76.5363 56.69362 76.5363 61.39037 76.5363 65.19774 80.34366 65.19774 85.04042ZM56.69362 85.04042" fill="#7f807f"/>
<path transform="matrix(1.00003,0,0,-1.00005,61.209474,185.04044)" stroke-width=".3985" stroke-linecap="butt" stroke-miterlimit="10" stroke-linejoin="miter" fill="none" stroke="#000000" d="M65.19774 85.04042C65.19774 89.73718 61.39037 93.54454 56.69362 93.54454 51.99686 93.54454 48.18948 89.73718 48.18948 85.04042 48.18948 80.34366 51.99686 76.5363 56.69362 76.5363 61.39037 76.5363 65.19774 80.34366 65.19774 85.04042ZM56.69362 85.04042"/>
<use data-text="C" xlink:href="#font_1_42" transform="matrix(9.962899,0,0,-9.963098,112.231,103.40336)" fill="#ffffff"/>
<use data-text="3" xlink:href="#font_1_106" transform="matrix(9.962899,0,0,-9.963098,118.597309,103.40336)" fill="#ffffff"/>
<path transform="matrix(1.00003,0,0,-1.00005,61.209474,185.04044)" d="M93.54454 85.04042C93.54454 89.73718 89.73718 93.54454 85.04042 93.54454 80.34366 93.54454 76.5363 89.73718 76.5363 85.04042 76.5363 80.34366 80.34366 76.5363 85.04042 76.5363 89.73718 76.5363 93.54454 80.34366 93.54454 85.04042ZM85.04042 85.04042" fill="#7f807f"/>
<path transform="matrix(1.00003,0,0,-1.00005,61.209474,185.04044)" stroke-width=".3985" stroke-linecap="butt" stroke-miterlimit="10" stroke-linejoin="miter" fill="none" stroke="#000000" d="M93.54454 85.04042C93.54454 89.73718 89.73718 93.54454 85.04042 93.54454 80.34366 93.54454 76.5363 89.73718 76.5363 85.04042 76.5363 80.34366 80.34366 76.5363 85.04042 76.5363 89.73718 76.5363 93.54454 80.34366 93.54454 85.04042ZM85.04042 85.04042"/>
<use data-text="C" xlink:href="#font_1_42" transform="matrix(9.962899,0,0,-9.963098,140.57886,103.45836)" fill="#ffffff"/>
<use data-text="4" xlink:href="#font_1_57" transform="matrix(9.962899,0,0,-9.963098,146.94516,103.45836)" fill="#ffffff"/>
<path transform="matrix(1.00003,0,0,-1.00005,61.209474,185.04044)" d="M121.89136 85.04042C121.89136 89.73718 118.08398 93.54454 113.38724 93.54454 108.69048 93.54454 104.8831 89.73718 104.8831 85.04042 104.8831 80.34366 108.69048 76.5363 113.38724 76.5363 118.08398 76.5363 121.89136 80.34366 121.89136 85.04042ZM113.38724 85.04042" fill="#7f807f"/>
<path transform="matrix(1.00003,0,0,-1.00005,61.209474,185.04044)" stroke-width=".3985" stroke-linecap="butt" stroke-miterlimit="10" stroke-linejoin="miter" fill="none" stroke="#000000" d="M121.89136 85.04042C121.89136 89.73718 118.08398 93.54454 113.38724 93.54454 108.69048 93.54454 104.8831 89.73718 104.8831 85.04042 104.8831 80.34366 108.69048 76.5363 113.38724 76.5363 118.08398 76.5363 121.89136 80.34366 121.89136 85.04042ZM113.38724 85.04042"/>
<use data-text="C" xlink:href="#font_1_42" transform="matrix(9.962899,0,0,-9.963098,168.9257,103.40336)" fill="#ffffff"/>
<use data-text="5" xlink:href="#font_1_56" transform="matrix(9.962899,0,0,-9.963098,175.29199,103.40336)" fill="#ffffff"/>
<path transform="matrix(1.00003,0,0,-1.00005,61.209474,185.04044)" d="M150.23816 85.04042C150.23816 89.73718 146.4308 93.54454 141.73404 93.54454 137.03728 93.54454 133.22992 89.73718 133.22992 85.04042 133.22992 80.34366 137.03728 76.5363 141.73404 76.5363 146.4308 76.5363 150.23816 80.34366 150.23816 85.04042ZM141.73404 85.04042" fill="#7f807f"/>
<path transform="matrix(1.00003,0,0,-1.00005,61.209474,185.04044)" stroke-width=".3985" stroke-linecap="butt" stroke-miterlimit="10" stroke-linejoin="miter" fill="none" stroke="#000000" d="M150.23816 85.04042C150.23816 89.73718 146.4308 93.54454 141.73404 93.54454 137.03728 93.54454 133.22992 89.73718 133.22992 85.04042 133.22992 80.34366 137.03728 76.5363 141.73404 76.5363 146.4308 76.5363 150.23816 80.34366 150.23816 85.04042ZM141.73404 85.04042"/>
<use data-text="C" xlink:href="#font_1_42" transform="matrix(9.962899,0,0,-9.963098,197.27356,103.40336)" fill="#ffffff"/>
<use data-text="6" xlink:href="#font_1_101" transform="matrix(9.962899,0,0,-9.963098,203.63986,103.40336)" fill="#ffffff"/>
<path transform="matrix(1.00003,0,0,-1.00005,61.209474,185.04044)" d="M178.58498 85.04042C178.58498 89.73718 174.7776 93.54454 170.08086 93.54454 165.3841 93.54454 161.57672 89.73718 161.57672 85.04042 161.57672 80.34366 165.3841 76.5363 170.08086 76.5363 174.7776 76.5363 178.58498 80.34366 178.58498 85.04042ZM170.08086 85.04042" fill="#7f807f"/>
<path transform="matrix(1.00003,0,0,-1.00005,61.209474,185.04044)" stroke-width=".3985" stroke-linecap="butt" stroke-miterlimit="10" stroke-linejoin="miter" fill="none" stroke="#000000" d="M178.58498 85.04042C178.58498 89.73718 174.7776 93.54454 170.08086 93.54454 165.3841 93.54454 161.57672 89.73718 161.57672 85.04042 161.57672 80.34366 165.3841 76.5363 170.08086 76.5363 174.7776 76.5363 178.58498 80.34366 178.58498 85.04042ZM170.08086 85.04042"/>
<use data-text="C" xlink:href="#font_1_42" transform="matrix(9.962899,0,0,-9.963098,225.62142,103.45836)" fill="#ffffff"/>
<use data-text="7" xlink:href="#font_1_100" transform="matrix(9.962899,0,0,-9.963098,231.9877,103.45836)" fill="#ffffff"/>
<path transform="matrix(1.00003,0,0,-1.00005,61.209474,185.04044)" d="M206.93178 85.04042C206.93178 89.73718 203.12442 93.54454 198.42766 93.54454 193.73091 93.54454 189.92354 89.73718 189.92354 85.04042 189.92354 80.34366 193.73091 76.5363 198.42766 76.5363 203.12442 76.5363 206.93178 80.34366 206.93178 85.04042ZM198.42766 85.04042" fill="#7f807f"/>
<path transform="matrix(1.00003,0,0,-1.00005,61.209474,185.04044)" stroke-width=".3985" stroke-linecap="butt" stroke-miterlimit="10" stroke-linejoin="miter" fill="none" stroke="#000000" d="M206.93178 85.04042C206.93178 89.73718 203.12442 93.54454 198.42766 93.54454 193.73091 93.54454 189.92354 89.73718 189.92354 85.04042 189.92354 80.34366 193.73091 76.5363 198.42766 76.5363 203.12442 76.5363 206.93178 80.34366 206.93178 85.04042ZM198.42766 85.04042"/>
<use data-text="C" xlink:href="#font_1_42" transform="matrix(9.962899,0,0,-9.963098,253.96926,103.40336)" fill="#ffffff"/>
<use data-text="8" xlink:href="#font_1_51" transform="matrix(9.962899,0,0,-9.963098,260.33555,103.40336)" fill="#ffffff"/>
<path transform="matrix(1.00003,0,0,-1.00005,61.209474,185.04044)" d="M8.50412 113.38724C8.50412 118.08398 4.69675 121.89136 0 121.89136-4.69675 121.89136-8.50412 118.08398-8.50412 113.38724-8.50412 108.69048-4.69675 104.8831 0 104.8831 4.69675 104.8831 8.50412 108.69048 8.50412 113.38724ZM0 113.38724" fill="#7f807f"/>
<path transform="matrix(1.00003,0,0,-1.00005,61.209474,185.04044)" stroke-width=".3985" stroke-linecap="butt" stroke-miterlimit="10" stroke-linejoin="miter" fill="none" stroke="#000000" d="M8.50412 113.38724C8.50412 118.08398 4.69675 121.89136 0 121.89136-4.69675 121.89136-8.50412 118.08398-8.50412 113.38724-8.50412 108.69048-4.69675 104.8831 0 104.8831 4.69675 104.8831 8.50412 108.69048 8.50412 113.38724ZM0 113.38724"/>
<use data-text="D" xlink:href="#font_1_46" transform="matrix(9.962899,0,0,-9.963098,55.12229,75.10494)" fill="#ffffff"/>
<use data-text="1" xlink:href="#font_1_82" transform="matrix(9.962899,0,0,-9.963098,62.315507,75.10494)" fill="#ffffff"/>
<path transform="matrix(1.00003,0,0,-1.00005,61.209474,185.04044)" d="M36.85092 113.38724C36.85092 118.08398 33.04356 121.89136 28.3468 121.89136 23.65004 121.89136 19.84268 118.08398 19.84268 113.38724 19.84268 108.69048 23.65004 104.8831 28.3468 104.8831 33.04356 104.8831 36.85092 108.69048 36.85092 113.38724ZM28.3468 113.38724" fill="#7f807f"/>
<path transform="matrix(1.00003,0,0,-1.00005,61.209474,185.04044)" stroke-width=".3985" stroke-linecap="butt" stroke-miterlimit="10" stroke-linejoin="miter" fill="none" stroke="#000000" d="M36.85092 113.38724C36.85092 118.08398 33.04356 121.89136 28.3468 121.89136 23.65004 121.89136 19.84268 118.08398 19.84268 113.38724 19.84268 108.69048 23.65004 104.8831 28.3468 104.8831 33.04356 104.8831 36.85092 108.69048 36.85092 113.38724ZM28.3468 113.38724"/>
<use data-text="D" xlink:href="#font_1_46" transform="matrix(9.962899,0,0,-9.963098,83.47014,75.10494)" fill="#ffffff"/>
<use data-text="2" xlink:href="#font_1_107" transform="matrix(9.962899,0,0,-9.963098,90.66336,75.10494)" fill="#ffffff"/>
<path transform="matrix(1.00003,0,0,-1.00005,61.209474,185.04044)" d="M65.19774 113.38724C65.19774 118.08398 61.39037 121.89136 56.69362 121.89136 51.99686 121.89136 48.18948 118.08398 48.18948 113.38724 48.18948 108.69048 51.99686 104.8831 56.69362 104.8831 61.39037 104.8831 65.19774 108.69048 65.19774 113.38724ZM56.69362 113.38724" fill="#7f807f"/>
<path transform="matrix(1.00003,0,0,-1.00005,61.209474,185.04044)" stroke-width=".3985" stroke-linecap="butt" stroke-miterlimit="10" stroke-linejoin="miter" fill="none" stroke="#000000" d="M65.19774 113.38724C65.19774 118.08398 61.39037 121.89136 56.69362 121.89136 51.99686 121.89136 48.18948 118.08398 48.18948 113.38724 48.18948 108.69048 51.99686 104.8831 56.69362 104.8831 61.39037 104.8831 65.19774 108.69048 65.19774 113.38724ZM56.69362 113.38724"/>
<use data-text="D" xlink:href="#font_1_46" transform="matrix(9.962899,0,0,-9.963098,111.81699,74.99494)" fill="#ffffff"/>
<use data-text="3" xlink:href="#font_1_106" transform="matrix(9.962899,0,0,-9.963098,119.01021,74.99494)" fill="#ffffff"/>
<path transform="matrix(1.00003,0,0,-1.00005,61.209474,185.04044)" d="M93.54454 113.38724C93.54454 118.08398 89.73718 121.89136 85.04042 121.89136 80.34366 121.89136 76.5363 118.08398 76.5363 113.38724 76.5363 108.69048 80.34366 104.8831 85.04042 104.8831 89.73718 104.8831 93.54454 108.69048 93.54454 113.38724ZM85.04042 113.38724" fill="#7f807f"/>
<path transform="matrix(1.00003,0,0,-1.00005,61.209474,185.04044)" stroke-width=".3985" stroke-linecap="butt" stroke-miterlimit="10" stroke-linejoin="miter" fill="none" stroke="#000000" d="M93.54454 113.38724C93.54454 118.08398 89.73718 121.89136 85.04042 121.89136 80.34366 121.89136 76.5363 118.08398 76.5363 113.38724 76.5363 108.69048 80.34366 104.8831 85.04042 104.8831 89.73718 104.8831 93.54454 108.69048 93.54454 113.38724ZM85.04042 113.38724"/>
<use data-text="D" xlink:href="#font_1_46" transform="matrix(9.962899,0,0,-9.963098,140.16486,75.10494)" fill="#ffffff"/>
<use data-text="4" xlink:href="#font_1_57" transform="matrix(9.962899,0,0,-9.963098,147.35807,75.10494)" fill="#ffffff"/>
<path transform="matrix(1.00003,0,0,-1.00005,61.209474,185.04044)" d="M121.89136 113.38724C121.89136 118.08398 118.08398 121.89136 113.38724 121.89136 108.69048 121.89136 104.8831 118.08398 104.8831 113.38724 104.8831 108.69048 108.69048 104.8831 113.38724 104.8831 118.08398 104.8831 121.89136 108.69048 121.89136 113.38724ZM113.38724 113.38724" fill="#7f807f"/>
<path transform="matrix(1.00003,0,0,-1.00005,61.209474,185.04044)" stroke-width=".3985" stroke-linecap="butt" stroke-miterlimit="10" stroke-linejoin="miter" fill="none" stroke="#000000" d="M121.89136 113.38724C121.89136 118.08398 118.08398 121.89136 113.38724 121.89136 108.69048 121.89136 104.8831 118.08398 104.8831 113.38724 104.8831 108.69048 108.69048 104.8831 113.38724 104.8831 118.08398 104.8831 121.89136 108.69048 121.89136 113.38724ZM113.38724 113.38724"/>
<use data-text="D" xlink:href="#font_1_46" transform="matrix(9.962899,0,0,-9.963098,168.5127,74.99494)" fill="#ffffff"/>
<use data-text="5" xlink:href="#font_1_56" transform="matrix(9.962899,0,0,-9.963098,175.7059,74.99494)" fill="#ffffff"/>
<path transform="matrix(1.00003,0,0,-1.00005,61.209474,185.04044)" d="M150.23816 113.38724C150.23816 118.08398 146.4308 121.89136 141.73404 121.89136 137.03728 121.89136 133.22992 118.08398 133.22992 113.38724 133.22992 108.69048 137.03728 104.8831 141.73404 104.8831 146.4308 104.8831 150.23816 108.69048 150.23816 113.38724ZM141.73404 113.38724" fill="#7f807f"/>
<path transform="matrix(1.00003,0,0,-1.00005,61.209474,185.04044)" stroke-width=".3985" stroke-linecap="butt" stroke-miterlimit="10" stroke-linejoin="miter" fill="none" stroke="#000000" d="M150.23816 113.38724C150.23816 118.08398 146.4308 121.89136 141.73404 121.89136 137.03728 121.89136 133.22992 118.08398 133.22992 113.38724 133.22992 108.69048 137.03728 104.8831 141.73404 104.8831 146.4308 104.8831 150.23816 108.69048 150.23816 113.38724ZM141.73404 113.38724"/>
<use data-text="D" xlink:href="#font_1_46" transform="matrix(9.962899,0,0,-9.963098,196.86055,74.99494)" fill="#ffffff"/>
<use data-text="6" xlink:href="#font_1_101" transform="matrix(9.962899,0,0,-9.963098,204.05377,74.99494)" fill="#ffffff"/>
<path transform="matrix(1.00003,0,0,-1.00005,61.209474,185.04044)" d="M178.58498 113.38724C178.58498 118.08398 174.7776 121.89136 170.08086 121.89136 165.3841 121.89136 161.57672 118.08398 161.57672 113.38724 161.57672 108.69048 165.3841 104.8831 170.08086 104.8831 174.7776 104.8831 178.58498 108.69048 178.58498 113.38724ZM170.08086 113.38724" fill="#7f807f"/>
<path transform="matrix(1.00003,0,0,-1.00005,61.209474,185.04044)" stroke-width=".3985" stroke-linecap="butt" stroke-miterlimit="10" stroke-linejoin="miter" fill="none" stroke="#000000" d="M178.58498 113.38724C178.58498 118.08398 174.7776 121.89136 170.08086 121.89136 165.3841 121.89136 161.57672 118.08398 161.57672 113.38724 161.57672 108.69048 165.3841 104.8831 170.08086 104.8831 174.7776 104.8831 178.58498 108.69048 178.58498 113.38724ZM170.08086 113.38724"/>
<use data-text="D" xlink:href="#font_1_46" transform="matrix(9.962899,0,0,-9.963098,225.2084,75.04994)" fill="#ffffff"/>
<use data-text="7" xlink:href="#font_1_100" transform="matrix(9.962899,0,0,-9.963098,232.40161,75.04994)" fill="#ffffff"/>
<path transform="matrix(1.00003,0,0,-1.00005,61.209474,185.04044)" d="M206.93178 113.38724C206.93178 118.08398 203.12442 121.89136 198.42766 121.89136 193.73091 121.89136 189.92354 118.08398 189.92354 113.38724 189.92354 108.69048 193.73091 104.8831 198.42766 104.8831 203.12442 104.8831 206.93178 108.69048 206.93178 113.38724ZM198.42766 113.38724" fill="#7f807f"/>
<path transform="matrix(1.00003,0,0,-1.00005,61.209474,185.04044)" stroke-width=".3985" stroke-linecap="butt" stroke-miterlimit="10" stroke-linejoin="miter" fill="none" stroke="#000000" d="M206.93178 113.38724C206.93178 118.08398 203.12442 121.89136 198.42766 121.89136 193.73091 121.89136 189.92354 118.08398 189.92354 113.38724 189.92354 108.69048 193.73091 104.8831 198.42766 104.8831 203.12442 104.8831 206.93178 108.69048 206.93178 113.38724ZM198.42766 113.38724"/>
<use data-text="D" xlink:href="#font_1_46" transform="matrix(9.962899,0,0,-9.963098,253.55525,74.99494)" fill="#ffffff"/>
<use data-text="8" xlink:href="#font_1_51" transform="matrix(9.962899,0,0,-9.963098,260.74848,74.99494)" fill="#ffffff"/>
<path transform="matrix(1.00003,0,0,-1.00005,61.209474,185.04044)" d="M8.50412 141.73404C8.50412 146.4308 4.69675 150.23816 0 150.23816-4.69675 150.23816-8.50412 146.4308-8.50412 141.73404-8.50412 137.03728-4.69675 133.22992 0 133.22992 4.69675 133.22992 8.50412 137.03728 8.50412 141.73404ZM0 141.73404" fill="#7f807f"/>
<path transform="matrix(1.00003,0,0,-1.00005,61.209474,185.04044)" stroke-width=".3985" stroke-linecap="butt" stroke-miterlimit="10" stroke-linejoin="miter" fill="none" stroke="#000000" d="M8.50412 141.73404C8.50412 146.4308 4.69675 150.23816 0 150.23816-4.69675 150.23816-8.50412 146.4308-8.50412 141.73404-8.50412 137.03728-4.69675 133.22992 0 133.22992 4.69675 133.22992 8.50412 137.03728 8.50412 141.73404ZM0 141.73404"/>
<use data-text="E" xlink:href="#font_1_49" transform="matrix(9.962899,0,0,-9.963098,55.74431,46.741518)" fill="#ffffff"/>
<use data-text="1" xlink:href="#font_1_82" transform="matrix(9.962899,0,0,-9.963098,61.692155,46.741518)" fill="#ffffff"/>
<path transform="matrix(1.00003,0,0,-1.00005,61.209474,185.04044)" d="M36.85092 141.73404C36.85092 146.4308 33.04356 150.23816 28.3468 150.23816 23.65004 150.23816 19.84268 146.4308 19.84268 141.73404 19.84268 137.03728 23.65004 133.22992 28.3468 133.22992 33.04356 133.22992 36.85092 137.03728 36.85092 141.73404ZM28.3468 141.73404" fill="#7f807f"/>
<path transform="matrix(1.00003,0,0,-1.00005,61.209474,185.04044)" stroke-width=".3985" stroke-linecap="butt" stroke-miterlimit="10" stroke-linejoin="miter" fill="none" stroke="#000000" d="M36.85092 141.73404C36.85092 146.4308 33.04356 150.23816 28.3468 150.23816 23.65004 150.23816 19.84268 146.4308 19.84268 141.73404 19.84268 137.03728 23.65004 133.22992 28.3468 133.22992 33.04356 133.22992 36.85092 137.03728 36.85092 141.73404ZM28.3468 141.73404"/>
<use data-text="E" xlink:href="#font_1_49" transform="matrix(9.962899,0,0,-9.963098,84.09216,46.741518)" fill="#ffffff"/>
<use data-text="2" xlink:href="#font_1_107" transform="matrix(9.962899,0,0,-9.963098,90.04001,46.741518)" fill="#ffffff"/>
<path transform="matrix(1.00003,0,0,-1.00005,61.209474,185.04044)" d="M65.19774 141.73404C65.19774 146.4308 61.39037 150.23816 56.69362 150.23816 51.99686 150.23816 48.18948 146.4308 48.18948 141.73404 48.18948 137.03728 51.99686 133.22992 56.69362 133.22992 61.39037 133.22992 65.19774 137.03728 65.19774 141.73404ZM56.69362 141.73404" fill="#7f807f"/>
<path transform="matrix(1.00003,0,0,-1.00005,61.209474,185.04044)" stroke-width=".3985" stroke-linecap="butt" stroke-miterlimit="10" stroke-linejoin="miter" fill="none" stroke="#000000" d="M65.19774 141.73404C65.19774 146.4308 61.39037 150.23816 56.69362 150.23816 51.99686 150.23816 48.18948 146.4308 48.18948 141.73404 48.18948 137.03728 51.99686 133.22992 56.69362 133.22992 61.39037 133.22992 65.19774 137.03728 65.19774 141.73404ZM56.69362 141.73404"/>
<use data-text="E" xlink:href="#font_1_49" transform="matrix(9.962899,0,0,-9.963098,112.44001,46.632524)" fill="#ffffff"/>
<use data-text="3" xlink:href="#font_1_106" transform="matrix(9.962899,0,0,-9.963098,118.387859,46.632524)" fill="#ffffff"/>
<path transform="matrix(1.00003,0,0,-1.00005,61.209474,185.04044)" d="M93.54454 141.73404C93.54454 146.4308 89.73718 150.23816 85.04042 150.23816 80.34366 150.23816 76.5363 146.4308 76.5363 141.73404 76.5363 137.03728 80.34366 133.22992 85.04042 133.22992 89.73718 133.22992 93.54454 137.03728 93.54454 141.73404ZM85.04042 141.73404" fill="#7f807f"/>
<path transform="matrix(1.00003,0,0,-1.00005,61.209474,185.04044)" stroke-width=".3985" stroke-linecap="butt" stroke-miterlimit="10" stroke-linejoin="miter" fill="none" stroke="#000000" d="M93.54454 141.73404C93.54454 146.4308 89.73718 150.23816 85.04042 150.23816 80.34366 150.23816 76.5363 146.4308 76.5363 141.73404 76.5363 137.03728 80.34366 133.22992 85.04042 133.22992 89.73718 133.22992 93.54454 137.03728 93.54454 141.73404ZM85.04042 141.73404"/>
<use data-text="E" xlink:href="#font_1_49" transform="matrix(9.962899,0,0,-9.963098,140.78786,46.741518)" fill="#ffffff"/>
<use data-text="4" xlink:href="#font_1_57" transform="matrix(9.962899,0,0,-9.963098,146.7357,46.741518)" fill="#ffffff"/>
<path transform="matrix(1.00003,0,0,-1.00005,61.209474,185.04044)" d="M121.89136 141.73404C121.89136 146.4308 118.08398 150.23816 113.38724 150.23816 108.69048 150.23816 104.8831 146.4308 104.8831 141.73404 104.8831 137.03728 108.69048 133.22992 113.38724 133.22992 118.08398 133.22992 121.89136 137.03728 121.89136 141.73404ZM113.38724 141.73404" fill="#7f807f"/>
<path transform="matrix(1.00003,0,0,-1.00005,61.209474,185.04044)" stroke-width=".3985" stroke-linecap="butt" stroke-miterlimit="10" stroke-linejoin="miter" fill="none" stroke="#000000" d="M121.89136 141.73404C121.89136 146.4308 118.08398 150.23816 113.38724 150.23816 108.69048 150.23816 104.8831 146.4308 104.8831 141.73404 104.8831 137.03728 108.69048 133.22992 113.38724 133.22992 118.08398 133.22992 121.89136 137.03728 121.89136 141.73404ZM113.38724 141.73404"/>
<use data-text="E" xlink:href="#font_1_49" transform="matrix(9.962899,0,0,-9.963098,169.13571,46.632524)" fill="#ffffff"/>
<use data-text="5" xlink:href="#font_1_56" transform="matrix(9.962899,0,0,-9.963098,175.08356,46.632524)" fill="#ffffff"/>
<path transform="matrix(1.00003,0,0,-1.00005,61.209474,185.04044)" d="M150.23816 141.73404C150.23816 146.4308 146.4308 150.23816 141.73404 150.23816 137.03728 150.23816 133.22992 146.4308 133.22992 141.73404 133.22992 137.03728 137.03728 133.22992 141.73404 133.22992 146.4308 133.22992 150.23816 137.03728 150.23816 141.73404ZM141.73404 141.73404" fill="#7f807f"/>
<path transform="matrix(1.00003,0,0,-1.00005,61.209474,185.04044)" stroke-width=".3985" stroke-linecap="butt" stroke-miterlimit="10" stroke-linejoin="miter" fill="none" stroke="#000000" d="M150.23816 141.73404C150.23816 146.4308 146.4308 150.23816 141.73404 150.23816 137.03728 150.23816 133.22992 146.4308 133.22992 141.73404 133.22992 137.03728 137.03728 133.22992 141.73404 133.22992 146.4308 133.22992 150.23816 137.03728 150.23816 141.73404ZM141.73404 141.73404"/>
<use data-text="E" xlink:href="#font_1_49" transform="matrix(9.962899,0,0,-9.963098,197.48256,46.632524)" fill="#ffffff"/>
<use data-text="6" xlink:href="#font_1_101" transform="matrix(9.962899,0,0,-9.963098,203.4304,46.632524)" fill="#ffffff"/>
<path transform="matrix(1.00003,0,0,-1.00005,61.209474,185.04044)" d="M178.58498 141.73404C178.58498 146.4308 174.7776 150.23816 170.08086 150.23816 165.3841 150.23816 161.57672 146.4308 161.57672 141.73404 161.57672 137.03728 165.3841 133.22992 170.08086 133.22992 174.7776 133.22992 178.58498 137.03728 178.58498 141.73404ZM170.08086 141.73404" fill="#7f807f"/>
<path transform="matrix(1.00003,0,0,-1.00005,61.209474,185.04044)" stroke-width=".3985" stroke-linecap="butt" stroke-miterlimit="10" stroke-linejoin="miter" fill="none" stroke="#000000" d="M178.58498 141.73404C178.58498 146.4308 174.7776 150.23816 170.08086 150.23816 165.3841 150.23816 161.57672 146.4308 161.57672 141.73404 161.57672 137.03728 165.3841 133.22992 170.08086 133.22992 174.7776 133.22992 178.58498 137.03728 178.58498 141.73404ZM170.08086 141.73404"/>
<use data-text="E" xlink:href="#font_1_49" transform="matrix(9.962899,0,0,-9.963098,225.83042,46.686525)" fill="#ffffff"/>
<use data-text="7" xlink:href="#font_1_100" transform="matrix(9.962899,0,0,-9.963098,231.77826,46.686525)" fill="#ffffff"/>
<path transform="matrix(1.00003,0,0,-1.00005,61.209474,185.04044)" d="M206.93178 141.73404C206.93178 146.4308 203.12442 150.23816 198.42766 150.23816 193.73091 150.23816 189.92354 146.4308 189.92354 141.73404 189.92354 137.03728 193.73091 133.22992 198.42766 133.22992 203.12442 133.22992 206.93178 137.03728 206.93178 141.73404ZM198.42766 141.73404" fill="#7f807f"/>
<path transform="matrix(1.00003,0,0,-1.00005,61.209474,185.04044)" stroke-width=".3985" stroke-linecap="butt" stroke-miterlimit="10" stroke-linejoin="miter" fill="none" stroke="#000000" d="M206.93178 141.73404C206.93178 146.4308 203.12442 150.23816 198.42766 150.23816 193.73091 150.23816 189.92354 146.4308 189.92354 141.73404 189.92354 137.03728 193.73091 133.22992 198.42766 133.22992 203.12442 133.22992 206.93178 137.03728 206.93178 141.73404ZM198.42766 141.73404"/>
<use data-text="E" xlink:href="#font_1_49" transform="matrix(9.962899,0,0,-9.963098,254.17827,46.632524)" fill="#ffffff"/>
<use data-text="8" xlink:href="#font_1_51" transform="matrix(9.962899,0,0,-9.963098,260.1261,46.632524)" fill="#ffffff"/>
<path transform="matrix(1.00003,0,0,-1.00005,61.209474,185.04044)" d="M8.50412 170.08086C8.50412 174.7776 4.69675 178.58498 0 178.58498-4.69675 178.58498-8.50412 174.7776-8.50412 170.08086-8.50412 165.3841-4.69675 161.57672 0 161.57672 4.69675 161.57672 8.50412 165.3841 8.50412 170.08086ZM0 170.08086" fill="#7f807f"/>
<path transform="matrix(1.00003,0,0,-1.00005,61.209474,185.04044)" stroke-width=".3985" stroke-linecap="butt" stroke-miterlimit="10" stroke-linejoin="miter" fill="none" stroke="#000000" d="M8.50412 170.08086C8.50412 174.7776 4.69675 178.58498 0 178.58498-4.69675 178.58498-8.50412 174.7776-8.50412 170.08086-8.50412 165.3841-4.69675 161.57672 0 161.57672 4.69675 161.57672 8.50412 165.3841 8.50412 170.08086ZM0 170.08086"/>
<use data-text="F" xlink:href="#font_1_54" transform="matrix(9.962899,0,0,-9.963098,55.884317,18.393113)" fill="#ffffff"/>
<use data-text="1" xlink:href="#font_1_82" transform="matrix(9.962899,0,0,-9.963098,61.5532,18.393113)" fill="#ffffff"/>
<path transform="matrix(1.00003,0,0,-1.00005,61.209474,185.04044)" d="M36.85092 170.08086C36.85092 174.7776 33.04356 178.58498 28.3468 178.58498 23.65004 178.58498 19.84268 174.7776 19.84268 170.08086 19.84268 165.3841 23.65004 161.57672 28.3468 161.57672 33.04356 161.57672 36.85092 165.3841 36.85092 170.08086ZM28.3468 170.08086" fill="#7f807f"/>
<path transform="matrix(1.00003,0,0,-1.00005,61.209474,185.04044)" stroke-width=".3985" stroke-linecap="butt" stroke-miterlimit="10" stroke-linejoin="miter" fill="none" stroke="#000000" d="M36.85092 170.08086C36.85092 174.7776 33.04356 178.58498 28.3468 178.58498 23.65004 178.58498 19.84268 174.7776 19.84268 170.08086 19.84268 165.3841 23.65004 161.57672 28.3468 161.57672 33.04356 161.57672 36.85092 165.3841 36.85092 170.08086ZM28.3468 170.08086"/>
<use data-text="F" xlink:href="#font_1_54" transform="matrix(9.962899,0,0,-9.963098,84.23216,18.393113)" fill="#ffffff"/>
<use data-text="2" xlink:href="#font_1_107" transform="matrix(9.962899,0,0,-9.963098,89.90105,18.393113)" fill="#ffffff"/>
<path transform="matrix(1.00003,0,0,-1.00005,61.209474,185.04044)" d="M65.19774 170.08086C65.19774 174.7776 61.39037 178.58498 56.69362 178.58498 51.99686 178.58498 48.18948 174.7776 48.18948 170.08086 48.18948 165.3841 51.99686 161.57672 56.69362 161.57672 61.39037 161.57672 65.19774 165.3841 65.19774 170.08086ZM56.69362 170.08086" fill="#7f807f"/>
<path transform="matrix(1.00003,0,0,-1.00005,61.209474,185.04044)" stroke-width=".3985" stroke-linecap="butt" stroke-miterlimit="10" stroke-linejoin="miter" fill="none" stroke="#000000" d="M65.19774 170.08086C65.19774 174.7776 61.39037 178.58498 56.69362 178.58498 51.99686 178.58498 48.18948 174.7776 48.18948 170.08086 48.18948 165.3841 51.99686 161.57672 56.69362 161.57672 61.39037 161.57672 65.19774 165.3841 65.19774 170.08086ZM56.69362 170.08086"/>
<use data-text="F" xlink:href="#font_1_54" transform="matrix(9.962899,0,0,-9.963098,112.58002,18.284104)" fill="#ffffff"/>
<use data-text="3" xlink:href="#font_1_106" transform="matrix(9.962899,0,0,-9.963098,118.2489,18.284104)" fill="#ffffff"/>
<path transform="matrix(1.00003,0,0,-1.00005,61.209474,185.04044)" d="M93.54454 170.08086C93.54454 174.7776 89.73718 178.58498 85.04042 178.58498 80.34366 178.58498 76.5363 174.7776 76.5363 170.08086 76.5363 165.3841 80.34366 161.57672 85.04042 161.57672 89.73718 161.57672 93.54454 165.3841 93.54454 170.08086ZM85.04042 170.08086" fill="#7f807f"/>
<path transform="matrix(1.00003,0,0,-1.00005,61.209474,185.04044)" stroke-width=".3985" stroke-linecap="butt" stroke-miterlimit="10" stroke-linejoin="miter" fill="none" stroke="#000000" d="M93.54454 170.08086C93.54454 174.7776 89.73718 178.58498 85.04042 178.58498 80.34366 178.58498 76.5363 174.7776 76.5363 170.08086 76.5363 165.3841 80.34366 161.57672 85.04042 161.57672 89.73718 161.57672 93.54454 165.3841 93.54454 170.08086ZM85.04042 170.08086"/>
<use data-text="F" xlink:href="#font_1_54" transform="matrix(9.962899,0,0,-9.963098,140.92687,18.393113)" fill="#ffffff"/>
<use data-text="4" xlink:href="#font_1_57" transform="matrix(9.962899,0,0,-9.963098,146.59575,18.393113)" fill="#ffffff"/>
<path transform="matrix(1.00003,0,0,-1.00005,61.209474,185.04044)" d="M121.89136 170.08086C121.89136 174.7776 118.08398 178.58498 113.38724 178.58498 108.69048 178.58498 104.8831 174.7776 104.8831 170.08086 104.8831 165.3841 108.69048 161.57672 113.38724 161.57672 118.08398 161.57672 121.89136 165.3841 121.89136 170.08086ZM113.38724 170.08086" fill="#7f807f"/>
<path transform="matrix(1.00003,0,0,-1.00005,61.209474,185.04044)" stroke-width=".3985" stroke-linecap="butt" stroke-miterlimit="10" stroke-linejoin="miter" fill="none" stroke="#000000" d="M121.89136 170.08086C121.89136 174.7776 118.08398 178.58498 113.38724 178.58498 108.69048 178.58498 104.8831 174.7776 104.8831 170.08086 104.8831 165.3841 108.69048 161.57672 113.38724 161.57672 118.08398 161.57672 121.89136 165.3841 121.89136 170.08086ZM113.38724 170.08086"/>
<use data-text="F" xlink:href="#font_1_54" transform="matrix(9.962899,0,0,-9.963098,169.27472,18.284104)" fill="#ffffff"/>
<use data-text="5" xlink:href="#font_1_56" transform="matrix(9.962899,0,0,-9.963098,174.9436,18.284104)" fill="#ffffff"/>
<path transform="matrix(1.00003,0,0,-1.00005,61.209474,185.04044)" d="M150.23816 170.08086C150.23816 174.7776 146.4308 178.58498 141.73404 178.58498 137.03728 178.58498 133.22992 174.7776 133.22992 170.08086 133.22992 165.3841 137.03728 161.57672 141.73404 161.57672 146.4308 161.57672 150.23816 165.3841 150.23816 170.08086ZM141.73404 170.08086" fill="#7f807f"/>
<path transform="matrix(1.00003,0,0,-1.00005,61.209474,185.04044)" stroke-width=".3985" stroke-linecap="butt" stroke-miterlimit="10" stroke-linejoin="miter" fill="none" stroke="#000000" d="M150.23816 170.08086C150.23816 174.7776 146.4308 178.58498 141.73404 178.58498 137.03728 178.58498 133.22992 174.7776 133.22992 170.08086 133.22992 165.3841 137.03728 161.57672 141.73404 161.57672 146.4308 161.57672 150.23816 165.3841 150.23816 170.08086ZM141.73404 170.08086"/>
<use data-text="F" xlink:href="#font_1_54" transform="matrix(9.962899,0,0,-9.963098,197.62258,18.284104)" fill="#ffffff"/>
<use data-text="6" xlink:href="#font_1_101" transform="matrix(9.962899,0,0,-9.963098,203.29146,18.284104)" fill="#ffffff"/>
<path transform="matrix(1.00003,0,0,-1.00005,61.209474,185.04044)" d="M178.58498 170.08086C178.58498 174.7776 174.7776 178.58498 170.08086 178.58498 165.3841 178.58498 161.57672 174.7776 161.57672 170.08086 161.57672 165.3841 165.3841 161.57672 170.08086 161.57672 174.7776 161.57672 178.58498 165.3841 178.58498 170.08086ZM170.08086 170.08086" fill="#7f807f"/>
<path transform="matrix(1.00003,0,0,-1.00005,61.209474,185.04044)" stroke-width=".3985" stroke-linecap="butt" stroke-miterlimit="10" stroke-linejoin="miter" fill="none" stroke="#000000" d="M178.58498 170.08086C178.58498 174.7776 174.7776 178.58498 170.08086 178.58498 165.3841 178.58498 161.57672 174.7776 161.57672 170.08086 161.57672 165.3841 165.3841 161.57672 170.08086 161.57672 174.7776 161.57672 178.58498 165.3841 178.58498 170.08086ZM170.08086 170.08086"/>
<use data-text="F" xlink:href="#font_1_54" transform="matrix(9.962899,0,0,-9.963098,225.97042,18.338105)" fill="#ffffff"/>
<use data-text="7" xlink:href="#font_1_100" transform="matrix(9.962899,0,0,-9.963098,231.6393,18.338105)" fill="#ffffff"/>
<path transform="matrix(1.00003,0,0,-1.00005,61.209474,185.04044)" d="M206.93178 170.08086C206.93178 174.7776 203.12442 178.58498 198.42766 178.58498 193.73091 178.58498 189.92354 174.7776 189.92354 170.08086 189.92354 165.3841 193.73091 161.57672 198.42766 161.57672 203.12442 161.57672 206.93178 165.3841 206.93178 170.08086ZM198.42766 170.08086" fill="#7f807f"/>
<path transform="matrix(1.00003,0,0,-1.00005,61.209474,185.04044)" stroke-width=".3985" stroke-linecap="butt" stroke-miterlimit="10" stroke-linejoin="miter" fill="none" stroke="#000000" d="M206.93178 170.08086C206.93178 174.7776 203.12442 178.58498 198.42766 178.58498 193.73091 178.58498 189.92354 174.7776 189.92354 170.08086 189.92354 165.3841 193.73091 161.57672 198.42766 161.57672 203.12442 161.57672 206.93178 165.3841 206.93178 170.08086ZM198.42766 170.08086"/>
<use data-text="F" xlink:href="#font_1_54" transform="matrix(9.962899,0,0,-9.963098,254.31827,18.284104)" fill="#ffffff"/>
<use data-text="8" xlink:href="#font_1_51" transform="matrix(9.962899,0,0,-9.963098,259.98716,18.284104)" fill="#ffffff"/>
<path transform="matrix(1.00003,0,0,-1.00005,61.209474,185.04044)" stroke-width=".79701" stroke-linecap="butt" stroke-miterlimit="10" stroke-linejoin="miter" fill="none" stroke="#ff0000" d="M11.33855 28.3468C11.33855 34.60898 6.26218 39.68535 0 39.68535-6.26218 39.68535-11.33855 34.60898-11.33855 28.3468-11.33855 22.08463-6.26218 17.00826 0 17.00826 6.26218 17.00826 11.33855 22.08463 11.33855 28.3468ZM0 28.3468"/>
<use data-text="A" xlink:href="#font_1_27" transform="matrix(9.962899,0,0,-9.963098,55.396299,160.1492)" fill="#fff200"/>
<use data-text="1" xlink:href="#font_1_82" transform="matrix(9.962899,0,0,-9.963098,62.041555,160.1492)" fill="#fff200"/>
<path transform="matrix(1.00003,0,0,-1.00005,61.209474,185.04044)" stroke-width=".79701" stroke-linecap="butt" stroke-miterlimit="10" stroke-linejoin="miter" fill="none" stroke="#ff0000" d="M96.37897 28.3468C96.37897 34.60898 91.3026 39.68535 85.04042 39.68535 78.77824 39.68535 73.70187 34.60898 73.70187 28.3468 73.70187 22.08463 78.77824 17.00826 85.04042 17.00826 91.3026 17.00826 96.37897 22.08463 96.37897 28.3468ZM85.04042 28.3468"/>
<use data-text="A" xlink:href="#font_1_27" transform="matrix(9.962899,0,0,-9.963098,140.43885,160.1492)" fill="#fff200"/>
<use data-text="4" xlink:href="#font_1_57" transform="matrix(9.962899,0,0,-9.963098,147.0841,160.1492)" fill="#fff200"/>
<path transform="matrix(1.00003,0,0,-1.00005,61.209474,185.04044)" stroke-width=".79701" stroke-linecap="butt" stroke-miterlimit="10" stroke-linejoin="miter" fill="none" stroke="#ff0000" d="M209.7662 28.3468C209.7662 34.60898 204.68985 39.68535 198.42766 39.68535 192.16548 39.68535 187.08911 34.60898 187.08911 28.3468 187.08911 22.08463 192.16548 17.00826 198.42766 17.00826 204.68985 17.00826 209.7662 22.08463 209.7662 28.3468ZM198.42766 28.3468"/>
<use data-text="A" xlink:href="#font_1_27" transform="matrix(9.962899,0,0,-9.963098,253.82926,160.04019)" fill="#fff200"/>
<use data-text="8" xlink:href="#font_1_51" transform="matrix(9.962899,0,0,-9.963098,260.47453,160.04019)" fill="#fff200"/>
<path transform="matrix(1.00003,0,0,-1.00005,61.209474,185.04044)" stroke-width=".79701" stroke-linecap="butt" stroke-miterlimit="10" stroke-linejoin="miter" fill="none" stroke="#ff0000" d="M39.68535 56.69362C39.68535 62.9558 34.60898 68.03217 28.3468 68.03217 22.08463 68.03217 17.00826 62.9558 17.00826 56.69362 17.00826 50.43143 22.08463 45.35507 28.3468 45.35507 34.60898 45.35507 39.68535 50.43143 39.68535 56.69362ZM28.3468 56.69362"/>
<use data-text="B" xlink:href="#font_1_34" transform="matrix(9.962899,0,0,-9.963098,83.74415,131.80078)" fill="#fff200"/>
<use data-text="2" xlink:href="#font_1_107" transform="matrix(9.962899,0,0,-9.963098,90.389408,131.80078)" fill="#fff200"/>
<path transform="matrix(1.00003,0,0,-1.00005,61.209474,185.04044)" stroke-width=".79701" stroke-linecap="butt" stroke-miterlimit="10" stroke-linejoin="miter" fill="none" stroke="#ff0000" d="M96.37897 56.69362C96.37897 62.9558 91.3026 68.03217 85.04042 68.03217 78.77824 68.03217 73.70187 62.9558 73.70187 56.69362 73.70187 50.43143 78.77824 45.35507 85.04042 45.35507 91.3026 45.35507 96.37897 50.43143 96.37897 56.69362ZM85.04042 56.69362"/>
<use data-text="B" xlink:href="#font_1_34" transform="matrix(9.962899,0,0,-9.963098,140.43885,131.80078)" fill="#fff200"/>
<use data-text="4" xlink:href="#font_1_57" transform="matrix(9.962899,0,0,-9.963098,147.0841,131.80078)" fill="#fff200"/>
<path transform="matrix(1.00003,0,0,-1.00005,61.209474,185.04044)" stroke-width=".79701" stroke-linecap="butt" stroke-miterlimit="10" stroke-linejoin="miter" fill="none" stroke="#ff0000" d="M181.4194 56.69362C181.4194 62.9558 176.34304 68.03217 170.08086 68.03217 163.81867 68.03217 158.74231 62.9558 158.74231 56.69362 158.74231 50.43143 163.81867 45.35507 170.08086 45.35507 176.34304 45.35507 181.4194 50.43143 181.4194 56.69362ZM170.08086 56.69362"/>
<use data-text="B" xlink:href="#font_1_34" transform="matrix(9.962899,0,0,-9.963098,225.4824,131.74677)" fill="#fff200"/>
<use data-text="7" xlink:href="#font_1_100" transform="matrix(9.962899,0,0,-9.963098,232.12766,131.74677)" fill="#fff200"/>
<path transform="matrix(1.00003,0,0,-1.00005,61.209474,185.04044)" stroke-width=".79701" stroke-linecap="butt" stroke-miterlimit="10" stroke-linejoin="miter" fill="none" stroke="#ff0000" d="M124.72578 85.04042C124.72578 91.3026 119.64941 96.37897 113.38724 96.37897 107.12505 96.37897 102.04869 91.3026 102.04869 85.04042 102.04869 78.77824 107.12505 73.70187 113.38724 73.70187 119.64941 73.70187 124.72578 78.77824 124.72578 85.04042ZM113.38724 85.04042"/>
<use data-text="C" xlink:href="#font_1_42" transform="matrix(9.962899,0,0,-9.963098,168.9257,103.40336)" fill="#fff200"/>
<use data-text="5" xlink:href="#font_1_56" transform="matrix(9.962899,0,0,-9.963098,175.29199,103.40336)" fill="#fff200"/>
<path transform="matrix(1.00003,0,0,-1.00005,61.209474,185.04044)" stroke-width=".79701" stroke-linecap="butt" stroke-miterlimit="10" stroke-linejoin="miter" fill="none" stroke="#ff0000" d="M153.07259 85.04042C153.07259 91.3026 147.99622 96.37897 141.73404 96.37897 135.47187 96.37897 130.3955 91.3026 130.3955 85.04042 130.3955 78.77824 135.47187 73.70187 141.73404 73.70187 147.99622 73.70187 153.07259 78.77824 153.07259 85.04042ZM141.73404 85.04042"/>
<use data-text="C" xlink:href="#font_1_42" transform="matrix(9.962899,0,0,-9.963098,197.27356,103.40336)" fill="#fff200"/>
<use data-text="6" xlink:href="#font_1_101" transform="matrix(9.962899,0,0,-9.963098,203.63986,103.40336)" fill="#fff200"/>
<path transform="matrix(1.00003,0,0,-1.00005,61.209474,185.04044)" stroke-width=".79701" stroke-linecap="butt" stroke-miterlimit="10" stroke-linejoin="miter" fill="none" stroke="#ff0000" d="M209.7662 85.04042C209.7662 91.3026 204.68985 96.37897 198.42766 96.37897 192.16548 96.37897 187.08911 91.3026 187.08911 85.04042 187.08911 78.77824 192.16548 73.70187 198.42766 73.70187 204.68985 73.70187 209.7662 78.77824 209.7662 85.04042ZM198.42766 85.04042"/>
<use data-text="C" xlink:href="#font_1_42" transform="matrix(9.962899,0,0,-9.963098,253.96926,103.40336)" fill="#fff200"/>
<use data-text="8" xlink:href="#font_1_51" transform="matrix(9.962899,0,0,-9.963098,260.33555,103.40336)" fill="#fff200"/>
<path transform="matrix(1.00003,0,0,-1.00005,61.209474,185.04044)" stroke-width=".79701" stroke-linecap="butt" stroke-miterlimit="10" stroke-linejoin="miter" fill="none" stroke="#ff0000" d="M11.33855 113.38724C11.33855 119.64941 6.26218 124.72578 0 124.72578-6.26218 124.72578-11.33855 119.64941-11.33855 113.38724-11.33855 107.12505-6.26218 102.04869 0 102.04869 6.26218 102.04869 11.33855 107.12505 11.33855 113.38724ZM0 113.38724"/>
<use data-text="D" xlink:href="#font_1_46" transform="matrix(9.962899,0,0,-9.963098,55.12229,75.10494)" fill="#fff200"/>
<use data-text="1" xlink:href="#font_1_82" transform="matrix(9.962899,0,0,-9.963098,62.315507,75.10494)" fill="#fff200"/>
<path transform="matrix(1.00003,0,0,-1.00005,61.209474,185.04044)" stroke-width=".79701" stroke-linecap="butt" stroke-miterlimit="10" stroke-linejoin="miter" fill="none" stroke="#ff0000" d="M39.68535 113.38724C39.68535 119.64941 34.60898 124.72578 28.3468 124.72578 22.08463 124.72578 17.00826 119.64941 17.00826 113.38724 17.00826 107.12505 22.08463 102.04869 28.3468 102.04869 34.60898 102.04869 39.68535 107.12505 39.68535 113.38724ZM28.3468 113.38724"/>
<use data-text="D" xlink:href="#font_1_46" transform="matrix(9.962899,0,0,-9.963098,83.47014,75.10494)" fill="#fff200"/>
<use data-text="2" xlink:href="#font_1_107" transform="matrix(9.962899,0,0,-9.963098,90.66336,75.10494)" fill="#fff200"/>
<path transform="matrix(1.00003,0,0,-1.00005,61.209474,185.04044)" stroke-width=".79701" stroke-linecap="butt" stroke-miterlimit="10" stroke-linejoin="miter" fill="none" stroke="#ff0000" d="M181.4194 113.38724C181.4194 119.64941 176.34304 124.72578 170.08086 124.72578 163.81867 124.72578 158.74231 119.64941 158.74231 113.38724 158.74231 107.12505 163.81867 102.04869 170.08086 102.04869 176.34304 102.04869 181.4194 107.12505 181.4194 113.38724ZM170.08086 113.38724"/>
<use data-text="D" xlink:href="#font_1_46" transform="matrix(9.962899,0,0,-9.963098,225.2084,75.04994)" fill="#fff200"/>
<use data-text="7" xlink:href="#font_1_100" transform="matrix(9.962899,0,0,-9.963098,232.40161,75.04994)" fill="#fff200"/>
<path transform="matrix(1.00003,0,0,-1.00005,61.209474,185.04044)" stroke-width=".79701" stroke-linecap="butt" stroke-miterlimit="10" stroke-linejoin="miter" fill="none" stroke="#ff0000" d="M68.03217 141.73404C68.03217 147.99622 62.9558 153.07259 56.69362 153.07259 50.43143 153.07259 45.35507 147.99622 45.35507 141.73404 45.35507 135.47187 50.43143 130.3955 56.69362 130.3955 62.9558 130.3955 68.03217 135.47187 68.03217 141.73404ZM56.69362 141.73404"/>
<use data-text="E" xlink:href="#font_1_49" transform="matrix(9.962899,0,0,-9.963098,112.44001,46.632524)" fill="#fff200"/>
<use data-text="3" xlink:href="#font_1_106" transform="matrix(9.962899,0,0,-9.963098,118.387859,46.632524)" fill="#fff200"/>
<path transform="matrix(1.00003,0,0,-1.00005,61.209474,185.04044)" stroke-width=".79701" stroke-linecap="butt" stroke-miterlimit="10" stroke-linejoin="miter" fill="none" stroke="#ff0000" d="M124.72578 141.73404C124.72578 147.99622 119.64941 153.07259 113.38724 153.07259 107.12505 153.07259 102.04869 147.99622 102.04869 141.73404 102.04869 135.47187 107.12505 130.3955 113.38724 130.3955 119.64941 130.3955 124.72578 135.47187 124.72578 141.73404ZM113.38724 141.73404"/>
<use data-text="E" xlink:href="#font_1_49" transform="matrix(9.962899,0,0,-9.963098,169.13571,46.632524)" fill="#fff200"/>
<use data-text="5" xlink:href="#font_1_56" transform="matrix(9.962899,0,0,-9.963098,175.08356,46.632524)" fill="#fff200"/>
<path transform="matrix(1.00003,0,0,-1.00005,61.209474,185.04044)" stroke-width=".79701" stroke-linecap="butt" stroke-miterlimit="10" stroke-linejoin="miter" fill="none" stroke="#ff0000" d="M153.07259 141.73404C153.07259 147.99622 147.99622 153.07259 141.73404 153.07259 135.47187 153.07259 130.3955 147.99622 130.3955 141.73404 130.3955 135.47187 135.47187 130.3955 141.73404 130.3955 147.99622 130.3955 153.07259 135.47187 153.07259 141.73404ZM141.73404 141.73404"/>
<use data-text="E" xlink:href="#font_1_49" transform="matrix(9.962899,0,0,-9.963098,197.48256,46.632524)" fill="#fff200"/>
<use data-text="6" xlink:href="#font_1_101" transform="matrix(9.962899,0,0,-9.963098,203.4304,46.632524)" fill="#fff200"/>
<path transform="matrix(1.00003,0,0,-1.00005,61.209474,185.04044)" stroke-width=".79701" stroke-linecap="butt" stroke-miterlimit="10" stroke-linejoin="miter" fill="none" stroke="#ff0000" d="M96.37897 170.08086C96.37897 176.34304 91.3026 181.4194 85.04042 181.4194 78.77824 181.4194 73.70187 176.34304 73.70187 170.08086 73.70187 163.81867 78.77824 158.74231 85.04042 158.74231 91.3026 158.74231 96.37897 163.81867 96.37897 170.08086ZM85.04042 170.08086"/>
<use data-text="F" xlink:href="#font_1_54" transform="matrix(9.962899,0,0,-9.963098,140.92687,18.393113)" fill="#fff200"/>
<use data-text="4" xlink:href="#font_1_57" transform="matrix(9.962899,0,0,-9.963098,146.59575,18.393113)" fill="#fff200"/>
<path transform="matrix(1.00003,0,0,-1.00005,61.209474,185.04044)" stroke-width=".79701" stroke-linecap="butt" stroke-miterlimit="10" stroke-linejoin="miter" fill="none" stroke="#ff0000" d="M153.07259 170.08086C153.07259 176.34304 147.99622 181.4194 141.73404 181.4194 135.47187 181.4194 130.3955 176.34304 130.3955 170.08086 130.3955 163.81867 135.47187 158.74231 141.73404 158.74231 147.99622 158.74231 153.07259 163.81867 153.07259 170.08086ZM141.73404 170.08086"/>
<use data-text="F" xlink:href="#font_1_54" transform="matrix(9.962899,0,0,-9.963098,197.62258,18.284104)" fill="#fff200"/>
<use data-text="6" xlink:href="#font_1_101" transform="matrix(9.962899,0,0,-9.963098,203.29146,18.284104)" fill="#fff200"/>
<path transform="matrix(1.00003,0,0,-1.00005,61.209474,185.04044)" stroke-width=".79701" stroke-linecap="butt" stroke-miterlimit="10" stroke-linejoin="miter" fill="none" stroke="#ff0000" d="M209.7662 170.08086C209.7662 176.34304 204.68985 181.4194 198.42766 181.4194 192.16548 181.4194 187.08911 176.34304 187.08911 170.08086 187.08911 163.81867 192.16548 158.74231 198.42766 158.74231 204.68985 158.74231 209.7662 163.81867 209.7662 170.08086ZM198.42766 170.08086"/>
<use data-text="F" xlink:href="#font_1_54" transform="matrix(9.962899,0,0,-9.963098,254.31827,18.284104)" fill="#fff200"/>
<use data-text="8" xlink:href="#font_1_51" transform="matrix(9.962899,0,0,-9.963098,259.98716,18.284104)" fill="#fff200"/>
</svg>
