<svg xmlns="http://www.w3.org/2000/svg" xmlns:xlink="http://www.w3.org/1999/xlink" xmlns:inkscape="http://www.inkscape.org/namespaces/inkscape" version="1.1" width="174" height="152" viewBox="0 0 174 152">
<defs>
<path id="font_1_81" d="M.46899415 .22009278C.46899415 .3539734 .36898805 .4609375 .25 .4609375 .1269989 .4609375 .02999878 .35098268 .02999878 .22009278 .02999878 .08821106 .13198853-.0107421879 .24899292-.0107421879 .36898805-.0107421879 .46899415 .09020996 .46899415 .22009278M.3909912 .23008728C.3909912 .112197879 .32299806 .053253175 .24899292 .053253175 .17999268 .053253175 .10798645 .109191898 .10798645 .23008728 .10798645 .35098268 .18399048 .39993287 .24899292 .39993287 .31900025 .39993287 .3909912 .34797669 .3909912 .23008728Z"/>
<path id="font_1_109" d="M.43499757 .00024414063V.44433595H.35699464V.15426636C.35699464 .07925415 .30099488 .04425049 .23699951 .04425049 .1659851 .04425049 .15899658 .070251468 .15899658 .11326599V.44433595H.08099365V.10926819C.08099365 .037246705 .10398865-.0107421879 .18699646-.0107421879 .23999024-.0107421879 .31098939 .0052490236 .3600006 .04824829V.00024414063H.43499757Z"/>
<path id="font_1_105" d="M.33198548 .027252198 .31599427 .086257938C.2899933 .06524658 .2579956 .053253175 .22599793 .053253175 .18899536 .053253175 .1749878 .08325195 .1749878 .13627625V.38632203H.31599427V.44433595H.1749878V.57128909H.10598755V.44433595H.018997193V.38632203H.102996829V.119262699C.102996829 .059249879 .116989139-.0107421879 .18598938-.0107421879 .2559967-.0107421879 .30699159 .014251709 .33198548 .027252198Z"/>
<path id="font_1_125" d="M.45700074 .6123047V.6953125H.37399293V.6123047H.45700074M.45298768 0V.44433595H.37799073V0H.45298768M.2939911 .38632203V.44433595H.17298889V.5654297C.17298889 .629364 .20899964 .6440735 .23399353 .6440735 .25498963 .6440735 .2769928 .63720706 .2939911 .62641909V.69407656C.28799439 .69607546 .2630005 .7050781 .23399353 .7050781 .1599884 .7050781 .100997928 .63523867 .100997928 .5354004V.44433595H.026992798V.38632203H.100997928V0H.17599488V.38632203H.2939911Z"/>
<path id="font_1_98" d="M.3600006 .12817383C.3600006 .18313599 .32299806 .21710205 .32099916 .22009278 .28199769 .25506593 .25498963 .26106263 .20498657 .27005006 .1499939 .28103639 .10398865 .29103089 .10398865 .33998109 .10398865 .40193177 .17599488 .40193177 .18899536 .40193177 .22099304 .40193177 .27398683 .39793397 .33099366 .3639679L.34298707 .42892457C.29100038 .45292665 .25 .4609375 .19898987 .4609375 .17399597 .4609375 .032989503 .4609375 .032989503 .32998658 .032989503 .28103639 .06199646 .24906922 .08699036 .23008728 .117996219 .20809937 .13999939 .20411682 .19499207 .19311524 .23098755 .18612671 .2889862 .1741333 .2889862 .1211853 .2889862 .052246095 .20999146 .052246095 .19499207 .052246095 .11399841 .052246095 .057998659 .08921814 .039993287 .10121155L.027999878 .0332489C.05999756 .01725769 .114990238-.0107421879 .19599915-.0107421879 .21398926-.0107421879 .2689972-.0107421879 .31199647 .021255494 .34298707 .04525757 .3600006 .08522034 .3600006 .12817383Z"/>
<path id="font_1_84" d="M.47999574 .22315979C.47999574 .34309388 .4169922 .45507813 .32099916 .45507813 .26098634 .45507813 .20298767 .43406678 .15699768 .3950653V.44407655H.08198547V-.19335938H.1599884V.04624939C.19099427 .01725769 .23498535-.0107421879 .29499818-.0107421879 .3919983-.0107421879 .47999574 .0872345 .47999574 .22315979M.4019928 .22315979C.4019928 .12020874 .33099366 .050247194 .2559967 .050247194 .21699524 .050247194 .18998719 .070236209 .16999817 .097229007 .1599884 .112213138 .1599884 .114212039 .1599884 .13220215V.33309938C.18399048 .36808778 .22299195 .3910675 .2659912 .3910675 .34199525 .3910675 .4019928 .31510926 .4019928 .22315979Z"/>
<path id="font_1_28" d="M.40899659 .00024414063V.28903199C.40899659 .39094544 .33599855 .4609375 .24398804 .4609375 .1789856 .4609375 .13398743 .44493104 .08699036 .41792298L.09298706 .3519745C.14498902 .38894654 .19499207 .40193177 .24398804 .40193177 .29100038 .40193177 .33099366 .361969 .33099366 .2880249V.24505615C.18099976 .24305725 .053985597 .20106507 .053985597 .11317444 .053985597 .07022095 .08099365-.0107421879 .16799927-.0107421879 .18199158-.0107421879 .27598573-.008743286 .33399964 .036254884V.00024414063H.40899659M.33099366 .13214112C.33099366 .11317444 .33099366 .0881958 .29699708 .069229129 .2679901 .051254274 .22999573 .050247194 .21899414 .050247194 .17098999 .050247194 .12599182 .07322693 .12599182 .11515808 .12599182 .18507385 .28799439 .19206238 .33099366 .19406128V.13214112Z"/>
<path id="font_1_77" d="M.43499757 0V.29804994C.43499757 .36405946 .41999818 .45507813 .2979889 .45507813 .20799256 .45507813 .15899658 .3870697 .15299988 .3790741V.45007325H.08099365V0H.15899658V.2450409C.15899658 .31105042 .18399048 .3940735 .2599945 .3940735 .35598756 .3940735 .35699464 .32305909 .35699464 .29104615V0H.43499757Z"/>
<path id="font_1_107" d="M.44898988 0V.070999149H.2669983C.25498963 .070999149 .24299622 .069992069 .23098755 .069992069H.12199402C.1539917 .09794617 .22999573 .17280579 .26098634 .20178223 .27999879 .2197876 .33099366 .2617798 .34999085 .27978517 .394989 .32476808 .44898988 .37776185 .44898988 .4627533 .44898988 .5777283 .36799623 .6777344 .23599243 .6777344 .12199402 .6777344 .06599426 .59973147 .041992189 .51374819 .053985597 .49674989 .05899048 .49075318 .06098938 .4877472 .06298828 .4857483 .07299805 .4727478 .08299255 .4587555 .102996829 .5357361 .1309967 .61372378 .22200012 .61372378 .31599427 .61372378 .36698915 .53874209 .36698915 .4607544 .36698915 .37576295 .30999757 .31877137 .25099183 .25878907L.17399597 .18777466 .049987794 .06399536V0H.44898988Z"/>
<path id="font_1_63" d="M.43499757 0V.29804994C.43499757 .36405946 .41999818 .45507813 .2979889 .45507813 .23599243 .45507813 .18798828 .42407228 .1559906 .3830719V.69433596H.08099365V0H.15899658V.2450409C.15899658 .31105042 .18399048 .3940735 .2599945 .3940735 .35598756 .3940735 .35699464 .32305909 .35699464 .29104615V0H.43499757Z"/>
<path id="font_1_66" d="M.1559906 0V.44433595H.08099365V0H.1559906M.1639862 .5662689V.65527346H.07499695V.5662689H.1639862Z"/>
<path id="font_1_96" d="M.32699586 .38806153V.45507813C.23799134 .45407105 .18299866 .4050598 .1519928 .35905458V.45007325H.08198547V0H.15699768V.21403504C.15699768 .31404115 .22898865 .38606263 .32699586 .38806153Z"/>
<path id="font_1_106" d="M.45700074 .17964173C.45700074 .27072145 .3869934 .33276368 .31900025 .35375978 .394989 .39476014 .42999269 .4627533 .42999269 .5257416 .42999269 .61172488 .34700013 .6777344 .24798584 .6777344 .17098999 .6777344 .09799194 .63772585 .055999757 .56773379L.09199524 .51374819C.12098694 .583725 .18598938 .61972048 .24699402 .61972048 .29899598 .61972048 .34799195 .58973696 .34799195 .5257416 .34799195 .4647522 .30699159 .40576173 .24598694 .39175416 .23999024 .39076234 .23799134 .39076234 .16699219 .38476563V.323761H.23799134C.34599305 .323761 .36799623 .23068238 .36799623 .1806488 .36799623 .10258484 .32199098 .038528444 .24499512 .038528444 .17599488 .038528444 .09700012 .07356262 .052993776 .14161682L.041992189 .08155823C.114990238-.012466431 .20698548-.022460938 .24699402-.022460938 .36898805-.022460938 .45700074 .07455444 .45700074 .17964173Z"/>
<path id="font_1_82" d="M.42399598 0V.057998659H.29899598V.6777344H.2789917C.21998596 .6166992 .13699341 .6137085 .08898926 .6117096V.55371096C.12199402 .55470278 .16999817 .55670168 .21998596 .57769778V.057998659H.09498596V0H.42399598Z"/>
</defs>
<use data-text="o" xlink:href="#font_1_81" transform="matrix(9.962899,0,0,-9.962799,1.53825,78.75633)"/>
<use data-text="u" xlink:href="#font_1_109" transform="matrix(9.962899,0,0,-9.962799,6.519699,78.75633)"/>
<use data-text="t" xlink:href="#font_1_105" transform="matrix(9.962899,0,0,-9.962799,11.670517,78.75633)"/>
<use data-text="f" xlink:href="#font_1_125" transform="matrix(9.962899,0,0,-9.962799,15.26712,78.75633)"/>
<use data-text="t" xlink:href="#font_1_105" transform="matrix(9.962899,0,0,-9.962799,20.607232,78.75633)"/>
<use data-text="s" xlink:href="#font_1_98" transform="matrix(9.962899,0,0,-9.962799,24.203835,78.75633)"/>
<use data-text="p" xlink:href="#font_1_84" transform="matrix(9.962899,0,0,-9.962799,56.06989,120.23116)"/>
<use data-text="a" xlink:href="#font_1_28" transform="matrix(9.962899,0,0,-9.962799,61.220708,120.23116)"/>
<use data-text="n" xlink:href="#font_1_77" transform="matrix(9.962899,0,0,-9.962799,66.01286,120.23116)"/>
<use data-text="t" xlink:href="#font_1_105" transform="matrix(9.962899,0,0,-9.962799,71.16368,120.23116)"/>
<use data-text="s" xlink:href="#font_1_98" transform="matrix(9.962899,0,0,-9.962799,74.760288,120.23116)"/>
<use data-text="2" xlink:href="#font_1_107" transform="matrix(9.962899,0,0,-9.962799,81.89371,120.23116)"/>
<path transform="matrix(1.00003,0,0,-1.00002,14.779644,75.29926)" stroke-width=".3985" stroke-linecap="butt" stroke-miterlimit="10" stroke-linejoin="miter" fill="none" stroke="#000000" d="M9.44447-7.08647 46.21274-34.65663"/>
<path transform="matrix(1.00003,0,0,-1.00002,14.779644,75.29926)" d="M128.0588-70.86697C128.0588-70.59187 127.83578-70.36884 127.56067-70.36884 127.28557-70.36884 127.06253-70.59187 127.06253-70.86697 127.06253-71.14209 127.28557-71.36511 127.56067-71.36511 127.83578-71.36511 128.0588-71.14209 128.0588-70.86697ZM127.56067-70.86697"/>
<use data-text="s" xlink:href="#font_1_98" transform="matrix(9.962899,0,0,-9.962799,146.5616,149.51474)"/>
<use data-text="h" xlink:href="#font_1_63" transform="matrix(9.962899,0,0,-9.962799,150.37738,149.51474)"/>
<use data-text="i" xlink:href="#font_1_66" transform="matrix(9.962899,0,0,-9.962799,155.52822,149.51474)"/>
<use data-text="r" xlink:href="#font_1_96" transform="matrix(9.962899,0,0,-9.962799,157.90933,149.51474)"/>
<use data-text="t" xlink:href="#font_1_105" transform="matrix(9.962899,0,0,-9.962799,161.31665,149.51474)"/>
<use data-text="3" xlink:href="#font_1_106" transform="matrix(9.962899,0,0,-9.962799,168.22095,149.51474)"/>
<path transform="matrix(1.00003,0,0,-1.00002,14.779644,75.29926)" stroke-width=".3985" stroke-linecap="butt" stroke-miterlimit="10" stroke-linejoin="miter" fill="none" stroke="#000000" d="M76.34775-50.38377 126.9132-70.608"/>
<path transform="matrix(1.00003,0,0,-1.00002,14.779644,75.29926)" d="M128.0588-42.52017C128.0588-42.24506 127.83578-42.02203 127.56067-42.02203 127.28557-42.02203 127.06253-42.24506 127.06253-42.52017 127.06253-42.79527 127.28557-43.01831 127.56067-43.01831 127.83578-43.01831 128.0588-42.79527 128.0588-42.52017ZM127.56067-42.52017"/>
<use data-text="s" xlink:href="#font_1_98" transform="matrix(9.962899,0,0,-9.962799,146.5616,121.22218)"/>
<use data-text="h" xlink:href="#font_1_63" transform="matrix(9.962899,0,0,-9.962799,150.37738,121.22218)"/>
<use data-text="i" xlink:href="#font_1_66" transform="matrix(9.962899,0,0,-9.962799,155.52822,121.22218)"/>
<use data-text="r" xlink:href="#font_1_96" transform="matrix(9.962899,0,0,-9.962799,157.90933,121.22218)"/>
<use data-text="t" xlink:href="#font_1_105" transform="matrix(9.962899,0,0,-9.962799,161.31665,121.22218)"/>
<use data-text="2" xlink:href="#font_1_107" transform="matrix(9.962899,0,0,-9.962799,168.22095,121.22218)"/>
<path transform="matrix(1.00003,0,0,-1.00002,14.779644,75.29926)" stroke-width=".3985" stroke-linecap="butt" stroke-miterlimit="10" stroke-linejoin="miter" fill="none" stroke="#000000" d="M80.13899-42.5202 126.86328-42.52017"/>
<path transform="matrix(1.00003,0,0,-1.00002,14.779644,75.29926)" d="M128.0588-14.17336C128.0588-13.89825 127.83578-13.67522 127.56067-13.67522 127.28557-13.67522 127.06253-13.89825 127.06253-14.17336 127.06253-14.44847 127.28557-14.6715 127.56067-14.6715 127.83578-14.6715 128.0588-14.44847 128.0588-14.17336ZM127.56067-14.17336"/>
<use data-text="s" xlink:href="#font_1_98" transform="matrix(9.962899,0,0,-9.962799,146.5616,92.87562)"/>
<use data-text="h" xlink:href="#font_1_63" transform="matrix(9.962899,0,0,-9.962799,150.37738,92.87562)"/>
<use data-text="i" xlink:href="#font_1_66" transform="matrix(9.962899,0,0,-9.962799,155.52822,92.87562)"/>
<use data-text="r" xlink:href="#font_1_96" transform="matrix(9.962899,0,0,-9.962799,157.90933,92.87562)"/>
<use data-text="t" xlink:href="#font_1_105" transform="matrix(9.962899,0,0,-9.962799,161.31665,92.87562)"/>
<use data-text="1" xlink:href="#font_1_82" transform="matrix(9.962899,0,0,-9.962799,168.22095,92.87562)"/>
<path transform="matrix(1.00003,0,0,-1.00002,14.779644,75.29926)" stroke-width=".3985" stroke-linecap="butt" stroke-miterlimit="10" stroke-linejoin="miter" fill="none" stroke="#000000" d="M76.34775-34.65663 126.9132-14.43234"/>
<use data-text="p" xlink:href="#font_1_84" transform="matrix(9.962899,0,0,-9.962799,56.06989,35.189458)"/>
<use data-text="a" xlink:href="#font_1_28" transform="matrix(9.962899,0,0,-9.962799,61.220708,35.189458)"/>
<use data-text="n" xlink:href="#font_1_77" transform="matrix(9.962899,0,0,-9.962799,66.01286,35.189458)"/>
<use data-text="t" xlink:href="#font_1_105" transform="matrix(9.962899,0,0,-9.962799,71.16368,35.189458)"/>
<use data-text="s" xlink:href="#font_1_98" transform="matrix(9.962899,0,0,-9.962799,74.760288,35.189458)"/>
<use data-text="1" xlink:href="#font_1_82" transform="matrix(9.962899,0,0,-9.962799,81.89371,35.189458)"/>
<path transform="matrix(1.00003,0,0,-1.00002,14.779644,75.29926)" stroke-width=".3985" stroke-linecap="butt" stroke-miterlimit="10" stroke-linejoin="miter" fill="none" stroke="#000000" d="M9.44447 7.08647 46.21274 34.65668"/>
<path transform="matrix(1.00003,0,0,-1.00002,14.779644,75.29926)" d="M128.0588 14.17346C128.0588 14.44858 127.83578 14.6716 127.56067 14.6716 127.28557 14.6716 127.06253 14.44858 127.06253 14.17346 127.06253 13.89836 127.28557 13.67532 127.56067 13.67532 127.83578 13.67532 128.0588 13.89836 128.0588 14.17346ZM127.56067 14.17346"/>
<use data-text="s" xlink:href="#font_1_98" transform="matrix(9.962899,0,0,-9.962799,146.5616,64.473049)"/>
<use data-text="h" xlink:href="#font_1_63" transform="matrix(9.962899,0,0,-9.962799,150.37738,64.473049)"/>
<use data-text="i" xlink:href="#font_1_66" transform="matrix(9.962899,0,0,-9.962799,155.52822,64.473049)"/>
<use data-text="r" xlink:href="#font_1_96" transform="matrix(9.962899,0,0,-9.962799,157.90933,64.473049)"/>
<use data-text="t" xlink:href="#font_1_105" transform="matrix(9.962899,0,0,-9.962799,161.31665,64.473049)"/>
<use data-text="3" xlink:href="#font_1_106" transform="matrix(9.962899,0,0,-9.962799,168.22095,64.473049)"/>
<path transform="matrix(1.00003,0,0,-1.00002,14.779644,75.29926)" stroke-width=".3985" stroke-linecap="butt" stroke-miterlimit="10" stroke-linejoin="miter" fill="none" stroke="#000000" d="M76.34775 34.65668 126.9132 14.43245"/>
<path transform="matrix(1.00003,0,0,-1.00002,14.779644,75.29926)" d="M128.0588 42.52028C128.0588 42.79538 127.83578 43.01842 127.56067 43.01842 127.28557 43.01842 127.06253 42.79538 127.06253 42.52028 127.06253 42.24516 127.28557 42.02214 127.56067 42.02214 127.83578 42.02214 128.0588 42.24516 128.0588 42.52028ZM127.56067 42.52028"/>
<use data-text="s" xlink:href="#font_1_98" transform="matrix(9.962899,0,0,-9.962799,146.5616,36.18048)"/>
<use data-text="h" xlink:href="#font_1_63" transform="matrix(9.962899,0,0,-9.962799,150.37738,36.18048)"/>
<use data-text="i" xlink:href="#font_1_66" transform="matrix(9.962899,0,0,-9.962799,155.52822,36.18048)"/>
<use data-text="r" xlink:href="#font_1_96" transform="matrix(9.962899,0,0,-9.962799,157.90933,36.18048)"/>
<use data-text="t" xlink:href="#font_1_105" transform="matrix(9.962899,0,0,-9.962799,161.31665,36.18048)"/>
<use data-text="2" xlink:href="#font_1_107" transform="matrix(9.962899,0,0,-9.962799,168.22095,36.18048)"/>
<path transform="matrix(1.00003,0,0,-1.00002,14.779644,75.29926)" stroke-width=".3985" stroke-linecap="butt" stroke-miterlimit="10" stroke-linejoin="miter" fill="none" stroke="#000000" d="M80.13899 42.52025 126.86328 42.52028"/>
<path transform="matrix(1.00003,0,0,-1.00002,14.779644,75.29926)" d="M128.0588 70.86708C128.0588 71.1422 127.83578 71.36522 127.56067 71.36522 127.28557 71.36522 127.06253 71.1422 127.06253 70.86708 127.06253 70.59198 127.28557 70.36894 127.56067 70.36894 127.83578 70.36894 128.0588 70.59198 128.0588 70.86708ZM127.56067 70.86708"/>
<use data-text="s" xlink:href="#font_1_98" transform="matrix(9.962899,0,0,-9.962799,146.5616,7.8329164)"/>
<use data-text="h" xlink:href="#font_1_63" transform="matrix(9.962899,0,0,-9.962799,150.37738,7.8329164)"/>
<use data-text="i" xlink:href="#font_1_66" transform="matrix(9.962899,0,0,-9.962799,155.52822,7.8329164)"/>
<use data-text="r" xlink:href="#font_1_96" transform="matrix(9.962899,0,0,-9.962799,157.90933,7.8329164)"/>
<use data-text="t" xlink:href="#font_1_105" transform="matrix(9.962899,0,0,-9.962799,161.31665,7.8329164)"/>
<use data-text="1" xlink:href="#font_1_82" transform="matrix(9.962899,0,0,-9.962799,168.22095,7.8329164)"/>
<path transform="matrix(1.00003,0,0,-1.00002,14.779644,75.29926)" stroke-width=".3985" stroke-linecap="butt" stroke-miterlimit="10" stroke-linejoin="miter" fill="none" stroke="#000000" d="M76.34775 50.38382 126.9132 70.60811"/>
</svg>
