<svg xmlns="http://www.w3.org/2000/svg" xmlns:xlink="http://www.w3.org/1999/xlink" xmlns:inkscape="http://www.inkscape.org/namespaces/inkscape" version="1.1" width="174" height="117" viewBox="0 0 174 117">
<defs>
<path id="font_1_54" d="M.5439911 .44535829V.27729798C.5439911 .16526795 .5269928 .04623413 .35798646 .04623413 .18998719 .04623413 .18998719 .21528626 .18998719 .26930238V.44535829C.18998719 .52038577 .19198609 .5924072 .19999695 .6454315L.19799805 .6484375C.18598938 .64642336 .15899658 .6454315 .14698792 .6454315 .1349945 .6454315 .10798645 .64642336 .09599304 .6484375L.09399414 .6454315C.101989749 .5884094 .10398865 .52038577 .10398865 .44535829V.23628235C.10398865 .032226564 .24699402-.009765625 .33699037-.009765625 .5419922-.009765625 .59799197 .117248538 .59799197 .29530335V.44535829C.59799197 .52038577 .59999087 .5924072 .60798647 .6454315L.60598757 .6484375C.59399417 .64642336 .58299258 .6454315 .57099917 .6454315 .5589905 .6454315 .5479889 .64642336 .5359955 .6484375L.5339966 .6454315C.5419922 .5884094 .5439911 .52038577 .5439911 .44535829Z"/>
<path id="font_1_30" d="M.46099855 .31835938H.06599426V.26934815H.46099855V.31835938M.46099855 .19335938H.06599426V.14434815H.46099855V.19335938Z"/>
<path id="font_1_34" d="M.4072876 .27592469C.3742981 .27442933 .33268739 .2734375 .30299378 .2734375 .27409364 .2734375 .22059632 .27513124 .19859314 .2763214L.3039856 .52207949H.30599977C.34709168 .42773438 .38038636 .34558106 .4072876 .27592469M.1789856 .22872925C.20399475 .23042298 .27349855 .23143006 .30799867 .23143006 .34599305 .23143006 .40098573 .23042298 .42529298 .22872925 .47428895 .09741211 .4968872 .019302369 .5029907-.0029296876 .519989 .000061035159 .5359955 .000061035159 .5529938 .000061035159 .56999209 .000061035159 .59599307 .000061035159 .61299136-.0029296876 .5629883 .098220828 .43099977 .43933106 .33898927 .6582031H.31098939C.21499634 .43632508 .116989139 .2184143 .015991211-.0029296876 .027999878 .000061035159 .039993287 .000061035159 .050994874 .000061035159 .06199646 .000061035159 .083999637 .000061035159 .09599304-.0029296876 .11239624 .05845642 .14329529 .14108277 .1789856 .22872925Z"/>
<path id="font_1_77" d="M.08999634 .20011902C.08999634 .1255951 .08848572 .05357361 .08099365 .000061035159L.08299255-.0029296876C.09498596-.00093078616 .117996219 .000061035159 .12998963 .000061035159 .14199829 .000061035159 .16499329-.00093078616 .1769867-.0029296876L.1789856 .000061035159C.17118836 .05708313 .16999817 .12489319 .16999817 .20011902V.5001831C.16999817 .5751953 .17428589 .62490847 .1789856 .6882324 .1789856 .6952362 .17630005 .6982422 .16999817 .6982422 .14489746 .6882324 .12348938 .68122866 .08299255 .67822268L.08099365 .67523196C.08869934 .6325226 .08999634 .558197 .08999634 .48217774V.20011902Z"/>
<path id="font_1_88" d="M.20498657-.0040130617C.21499634-.0010070801 .22799683-.0010070801 .23799134-.0010070801 .24798584-.0010070801 .2649994-.0010070801 .27398683-.0040130617 .3013916 .072891239 .33039857 .15512085 .3625946 .23353577 .39259339 .15551758 .4244995 .07458496 .45298768-.0030059815 .46299745 0 .46899415 0 .47898866 0 .4889984 0 .5069885 0 .5159912-.0030059815 .5649872 .11495972 .644989 .3067627 .70199587 .43164063 .69299319 .42863465 .6689911 .42863465 .6589966 .42863465 .6489868 .42863465 .6339874 .42863465 .625 .43164063 .58799746 .31375123 .54299929 .18589783 .50180056 .09008789H.49378968C.45199586 .19987488 .42099 .32574464 .397995 .43164063 .3849945 .42863465 .3619995 .42863465 .34799195 .42863465 .33198548 .42863465 .30599977 .42863465 .2899933 .43164063 .30369569 .39067079 .31959535 .34672547 .336792 .30107118 .30999757 .22584534 .28279115 .15092469 .25379945 .08909607H.24778748C.19769287 .20347595 .16429138 .3160553 .12799073 .43063355 .114990238 .42764283 .09199524 .42764283 .07798767 .42764283 .06199646 .42764283 .035995485 .42764283 .019989014 .43063355 .08699036 .28378297 .14898682 .14193726 .20498657-.0040130617Z"/>
<path id="font_1_73" d="M.16999817 .352417V.50138857C.16999817 .57533267 .17419434 .6267853 .1789856 .6882477 .1789856 .6952362 .17630005 .6982422 .16999817 .6982422 .14489746 .6882477 .12348938 .6812439 .08299255 .6782532L.08099365 .6752472C.08869934 .6325836 .08999634 .5573425 .08999634 .4814148V.18025208C.08999634 .105667117 .08879089 .056121828 .08099365 .000061035159L.08299255-.0029296876C.09498596-.00093078616 .117996219 .000061035159 .12998963 .000061035159 .14199829 .000061035159 .16499329-.00093078616 .1769867-.0029296876L.1789856 .000061035159C.17149353 .05732727 .16999817 .10417175 .16999817 .18025208V.29736329C.22099304 .35742188 .27949525 .3794403 .31498719 .3794403 .3659973 .3794403 .3869934 .35942079 .3869934 .27835084V.18025208C.3869934 .105163577 .38598634 .05392456 .37799073 .000061035159L.37998963-.0029296876C.3919983-.00093078616 .4149933 .000061035159 .4269867 .000061035159 .43899537 .000061035159 .46199037-.00093078616 .47399903-.0029296876L.47599793 .000061035159C.46798707 .05732727 .46699525 .10417175 .46699525 .18025208 .46699525 .21228028 .46899415 .24931336 .46899415 .28134156 .46899415 .38545228 .43499757 .43945313 .34498597 .43945313 .30699159 .43945313 .23599243 .42443849 .17199707 .349411L.16999817 .352417Z"/>
<path id="font_1_80" d="M.037994386 .20533753C.037994386 .08526611 .116989139-.009765625 .25-.009765625 .38198854-.009765625 .46199037 .08325195 .46199037 .21434021 .46199037 .3504181 .3889923 .43945313 .2539978 .43945313 .12298584 .43945313 .037994386 .3474121 .037994386 .20533753M.24699402 .39944459C.35299684 .39944459 .37399293 .31739808 .37399293 .19631958 .37399293 .10116577 .32598878 .030227662 .25898744 .030227662 .15299988 .030227662 .12599182 .14529419 .12599182 .22233582 .12599182 .3093872 .15299988 .39944459 .24699402 .39944459Z"/>
<path id="font_1_70" d="M.125 .27339173C.14199829 .3774414 .20748902 .39944459 .23899842 .39944459 .27848817 .39944459 .32299806 .36242677 .32299806 .2873993 .32299806 .2783966 .31900025 .27339173 .30899049 .27339173H.125M.3919983 .104278568C.35699464 .0662384 .30999757 .049224855 .25498963 .049224855 .22079468 .049224855 .17349243 .0622406 .1459961 .106277469 .12838745 .13439942 .12199402 .17524719 .12199402 .23339844H.3939972C.40499879 .23339844 .4119873 .23939514 .4119873 .25039674 .4119873 .33441163 .37098695 .43945313 .23899842 .43945313 .13598633 .43945313 .033996583 .35643006 .033996583 .20936585 .033996583 .15261841 .04548645 .096466068 .07899475 .056228639 .11338806 .014923096 .17059326-.009765625 .23799134-.009765625 .30999757-.009765625 .37399293 .02722168 .4119873 .07925415L.3919983 .104278568Z"/>
<path id="font_1_79" d="M.45999146 .18025208C.45999146 .21228028 .46199037 .24931336 .46199037 .28134156 .46199037 .38545228 .42799378 .43945313 .33799745 .43945313 .2999878 .43945313 .22898865 .42443849 .16499329 .349411L.16299439 .352417V.42544557C.16279602 .43315126 .16169739 .43544007 .15699768 .43544007 .13449097 .43093873 .09869385 .43014527 .07598877 .43244935L.07398987 .42944337C.08099365 .38613893 .08299255 .31037904 .08299255 .23530579V.18025208C.08299255 .105163577 .08198547 .054122926 .07398987 .000061035159L.07598877-.0029296876C.08799744-.00093078616 .11099243 .000061035159 .12298584 .000061035159 .1349945 .000061035159 .1579895-.00093078616 .16999817-.0029296876L.17199707 .000061035159C.1639862 .057128908 .16299439 .10417175 .16299439 .18025208V.29736329C.21398926 .35742188 .27198792 .3794403 .30799867 .3794403 .35899354 .3794403 .37998963 .35942079 .37998963 .27835084V.18025208C.37998963 .105163577 .3781891 .05392456 .37098695 .000061035159L.37298585-.0029296876C.3849945-.00093078616 .4079895 .000061035159 .41999818 .000061035159 .43199159 .000061035159 .45498658-.00093078616 .46699525-.0029296876L.46899415 .000061035159C.4611969 .057128908 .45999146 .10417175 .45999146 .18025208Z"/>
<path id="font_1_86" d="M.36499024 .09196472 .36898805 .088974 .37399293 .000061035159C.37399293-.0019378662 .37519837-.0029296876 .37799073-.0029296876 .3912964-.0012359619 .40299989 .000061035159 .41749574 .000061035159 .4300995 .000061035159 .44898988-.0009460449 .46199037-.0029296876L.46398927 .000061035159C.45599366 .043014528 .44699098 .11694336 .44699098 .19186402V.24880982C.44699098 .32374574 .44799806 .37568666 .45599366 .42863465L.45399476 .43164063C.44198609 .42964173 .4189911 .42863465 .40699769 .42863465 .394989 .42863465 .37199403 .42964173 .3600006 .43164063L.35798646 .42863465C.36579896 .37149049 .36698915 .32473756 .36698915 .24880982V.15090943C.33648683 .09963989 .2789917 .04623413 .22999573 .04623413 .1954956 .04623413 .16299439 .0572052 .16299439 .15007019V.24891663C.16299439 .32380677 .1639862 .37571717 .17199707 .42863465L.16999817 .43164063C.1579895 .42964173 .1349945 .42863465 .12298584 .42863465 .11099243 .42863465 .08799744 .42964173 .07598877 .43164063L.07398987 .42863465C.08198547 .37173463 .08299255 .32479859 .08299255 .24891663V.12910462C.08299255 .06021118 .114990238-.009765625 .21398926-.009765625 .27598573-.009765625 .33198548 .041229249 .36499024 .092163089V.09196472Z"/>
<path id="font_1_78" d="M.1619873 .352417V.42544557C.1619873 .43315126 .16069031 .43544007 .1559906 .43544007 .13349915 .43093873 .09768677 .43014527 .07499695 .43244935L.07299805 .42944337C.07998657 .38613893 .08198547 .31037904 .08198547 .23530579V.18025208C.08198547 .105163577 .08099365 .054122926 .07299805 .000061035159L.07499695-.0029296876C.08699036-.00093078616 .10998535 .000061035159 .12199402 .000061035159 .13398743 .000061035159 .15699768-.00093078616 .16899109-.0029296876L.17098999 .000061035159C.16299439 .057128908 .1619873 .10417175 .1619873 .18025208V.30136109C.20899964 .349411 .2649994 .3794403 .2999878 .3794403 .33799745 .3794403 .3659973 .35742188 .3659973 .2903595V.18025208C.3659973 .105163577 .36499024 .054122926 .35699464 .000061035159L.35899354-.0029296876C.37098695-.00093078616 .3939972 .000061035159 .4059906 .000061035159 .41799928 .000061035159 .44099427-.00093078616 .45298768-.0029296876L.45498658 .000061035159C.44699098 .057128908 .44599916 .10417175 .44599916 .18025208V.28134156C.44599916 .29536439 .44599916 .30737306 .44499208 .3193817 .49299623 .37243653 .5329895 .3794403 .57199099 .3794403 .6259918 .3794403 .6519928 .35742188 .6519928 .2903595V.18025208C.6519928 .105163577 .651001 .054122926 .6429901 .000061035159L.644989-.0029296876C.6569977-.00093078616 .6799927 .000061035159 .69200137 .000061035159 .70399478 .000061035159 .72698977-.00093078616 .7389984-.0029296876L.7409973 .000061035159C.73298647 .057128908 .7319946 .10417175 .7319946 .18025208V.28034974C.7319946 .36943055 .71598818 .43945313 .60798647 .43945313 .55400088 .43945313 .49598695 .42044068 .43899537 .36042787 .42999269 .40844728 .3889923 .43945313 .33299256 .43945313 .2709961 .43945313 .21199036 .39944459 .16499329 .349411L.1619873 .352417Z"/>
<path id="font_1_67" d="M.1619873 .08125305V.34040834C.20098877 .38043214 .22599793 .39944459 .2669983 .39944459 .32809449 .39944459 .38198854 .3491211 .38198854 .22434998 .38198854 .1002655 .34498597 .030227662 .25 .030227662 .21899414 .030227662 .18199158 .056243898 .1619873 .08125305M.1619873 .5003967C.1619873 .5743408 .16329956 .6269989 .16799927 .6882477 .16799927 .6952362 .16529846 .6982422 .15899658 .6982422 .13389588 .6882477 .11248779 .6812439 .07199097 .6782532L.069992069 .6752472C.077697757 .6325836 .08198547 .5583496 .08198547 .48240663V.07325745C.08198547 .034225465 .08119202 .020019532 .07699585-.0017700195 .08299255-.0077667238 .09449768-.009765625 .10499573-.009765625 .115997318 .0022277833 .12748719 .019226075 .13798523 .039230348 .16699219 .014221191 .21299744-.009765625 .2559967-.009765625 .35798646-.009765625 .47099305 .0622406 .47099305 .23234558 .47099305 .3544159 .38398744 .43945313 .2869873 .43945313 .23899842 .43945313 .19599915 .42645265 .1619873 .3894348V.5003967Z"/>
<path id="font_1_83" d="M.16699219 .33441163V.42544557C.16699219 .43315126 .16569519 .43544007 .16099549 .43544007 .13848877 .43093873 .10269165 .43014527 .07998657 .43244935L.07798767 .42944337C.084991458 .38613893 .08699036 .31037904 .08699036 .23530579V.18025208C.08699036 .10517883 .08580017 .05392456 .07798767 .000061035159L.07998657-.0029296876C.09199524-.00093078616 .114990238 .000061035159 .1269989 .000061035159 .13899231 .000061035159 .1619873-.00093078616 .17399597-.0029296876L.17599488 .000061035159C.16848755 .057128908 .16699219 .10417175 .16699219 .18025208V.2322998C.16699219 .27435304 .17948914 .29837037 .20098877 .33140565 .21549988 .35372926 .23799134 .36643983 .25698854 .36643983 .2769928 .36643983 .29599 .36444093 .30899049 .35243226L.31698609 .35443116 .33699037 .42845155 .33299256 .43244935C.31599427 .43743897 .31498719 .43945313 .29699708 .43945313 .24299622 .43945313 .21398926 .40844728 .16999817 .33241273L.16699219 .33441163Z"/>
<path id="font_1_84" d="M.049987794 .10127258 .032989503 .017227173C.08999634-.0027770997 .1459961-.009765625 .18399048-.009765625 .32199098-.009765625 .35398866 .072250369 .35398866 .12728882 .35398866 .20933533 .2889862 .24134827 .21798706 .25836183 .18019104 .2674713 .125 .28637696 .125 .33641053 .125 .3774414 .1579895 .39944459 .20098877 .39944459 .25299073 .39944459 .2849884 .35842896 .30799867 .33140565L.32199098 .33241273 .34199525 .40644837 .33999635 .4094391C.31098939 .42443849 .2559967 .43945313 .20498657 .43945313 .1309967 .43945313 .053985597 .40045167 .053985597 .31739808 .053985597 .23735047 .11369324 .2109375 .17399597 .19432068 .23199463 .17831421 .2749939 .16230774 .2749939 .11328125 .2749939 .0602417 .23599243 .030227662 .18299866 .030227662 .1349945 .030227662 .09298706 .06324768 .06498718 .102264408L.049987794 .10127258Z"/>
<path id="font_1_81" d="M.1619873 .29438783C.18399048 .3474121 .24299622 .39344789 .28199769 .39344789 .34999085 .39344789 .3849945 .33140565 .3849945 .21833802 .3849945 .1362915 .3619995 .030227662 .25498963 .030227662 .23899842 .030227662 .19699097 .034225465 .1619873 .07525635V.29438783M.1619873 .352417V.42544557C.1619873 .43315126 .16069031 .43544007 .1559906 .43544007 .13349915 .43093873 .09768677 .43014527 .07499695 .43244935L.07299805 .42944337C.07998657 .38613893 .08198547 .3103943 .08198547 .23535156V-.031829835C.08198547-.10652161 .08018494-.17840576 .07299805-.23234558L.07499695-.23535156C.08699036-.23335266 .10998535-.23234558 .12199402-.23234558 .13398743-.23234558 .15699768-.23335266 .16899109-.23535156L.17098999-.23234558C.16378784-.17520142 .1619873-.10722351 .1619873-.031829835V.01222229C.18798828-.0017700195 .22499085-.009765625 .26098634-.009765625 .3929901-.009765625 .47299195 .09036255 .47299195 .23135376 .47299195 .3374176 .41099549 .43945313 .29899598 .43945313 .2599945 .43945313 .20999146 .41944886 .1639862 .349411L.1619873 .352417Z"/>
<path id="font_1_74" d="M.07998657 .59742739C.07998657 .5704346 .10398865 .5464325 .1309967 .5464325 .1579895 .5464325 .18199158 .5704346 .18199158 .59742739 .18199158 .6244354 .1579895 .6484375 .1309967 .6484375 .10398865 .6484375 .07998657 .6244354 .07998657 .59742739M.08999634 .2348175V.1798706C.08999634 .10494995 .0881958 .054000856 .08099365 .000061035159L.08299255-.0029296876C.09498596-.0009460449 .117996219 .000061035159 .12998963 .000061035159 .14199829 .000061035159 .16499329-.0009460449 .1769867-.0029296876L.1789856 .000061035159C.1717987 .056793214 .16999817 .10395813 .16999817 .1798706V.25079347C.16999817 .3257141 .17248535 .36167909 .1789856 .42262269 .1789856 .4316101 .17779541 .4326172 .16999817 .4326172 .14729309 .4303131 .10418701 .42991639 .08299255 .4316101L.08099365 .42861939C.08729553 .38586427 .08999634 .30973817 .08999634 .2348175Z"/>
</defs>
<path transform="matrix(1.00002,0,0,-1,2.1260627,115.384)" stroke-width=".79701" stroke-linecap="butt" stroke-miterlimit="10" stroke-linejoin="miter" fill="none" stroke="#000000" d="M0 0V113.38724H170.08086V0ZM170.08086 113.38724"/>
<use data-text="U" xlink:href="#font_1_54" transform="matrix(10.909318,0,0,-10.9091,103.51509,55.669)"/>
<use data-text="=" xlink:href="#font_1_30" transform="matrix(10.909318,0,0,-10.9091,113.78076,55.669)"/>
<use data-text="A" xlink:href="#font_1_34" transform="matrix(10.909318,0,0,-10.9091,122.2573,55.669)"/>
<use data-text="l" xlink:href="#font_1_77" transform="matrix(10.909318,0,0,-10.9091,129.11927,55.669)"/>
<use data-text="l" xlink:href="#font_1_77" transform="matrix(10.909318,0,0,-10.9091,131.86841,55.669)"/>
<use data-text="w" xlink:href="#font_1_88" transform="matrix(10.909318,0,0,-10.9091,137.3449,55.669)"/>
<use data-text="h" xlink:href="#font_1_73" transform="matrix(10.909318,0,0,-10.9091,145.22142,55.669)"/>
<use data-text="o" xlink:href="#font_1_80" transform="matrix(10.909318,0,0,-10.9091,151.21063,55.669)"/>
<use data-text="l" xlink:href="#font_1_77" transform="matrix(10.909318,0,0,-10.9091,156.6653,55.669)"/>
<use data-text="e" xlink:href="#font_1_70" transform="matrix(10.909318,0,0,-10.9091,159.41445,55.669)"/>
<use data-text="n" xlink:href="#font_1_79" transform="matrix(10.909318,0,0,-10.9091,114.29831,69.218)"/>
<use data-text="u" xlink:href="#font_1_86" transform="matrix(10.909318,0,0,-10.9091,120.17844,69.218)"/>
<use data-text="m" xlink:href="#font_1_78" transform="matrix(10.909318,0,0,-10.9091,126.036739,69.218)"/>
<use data-text="b" xlink:href="#font_1_67" transform="matrix(10.909318,0,0,-10.9091,134.84056,69.218)"/>
<use data-text="e" xlink:href="#font_1_70" transform="matrix(10.909318,0,0,-10.9091,140.44794,69.218)"/>
<use data-text="r" xlink:href="#font_1_83" transform="matrix(10.909318,0,0,-10.9091,145.38986,69.218)"/>
<use data-text="s" xlink:href="#font_1_84" transform="matrix(10.909318,0,0,-10.9091,149.26268,69.218)"/>
<path transform="matrix(1.00002,0,0,-1,2.1260627,115.384)" d="M92.1271 56.69362C92.1271 80.17717 73.09047 99.21382 49.6069 99.21382 26.12335 99.21382 7.0867 80.17717 7.0867 56.69362 7.0867 33.21005 26.12335 14.1734 49.6069 14.1734 73.09047 14.1734 92.1271 33.21005 92.1271 56.69362ZM49.6069 56.69362" fill="#fff56d"/>
<path transform="matrix(1.00002,0,0,-1,2.1260627,115.384)" stroke-width=".79701" stroke-linecap="butt" stroke-miterlimit="10" stroke-linejoin="miter" fill="none" stroke="#000000" d="M92.1271 56.69362C92.1271 80.17717 73.09047 99.21382 49.6069 99.21382 26.12335 99.21382 7.0867 80.17717 7.0867 56.69362 7.0867 33.21005 26.12335 14.1734 49.6069 14.1734 73.09047 14.1734 92.1271 33.21005 92.1271 56.69362ZM49.6069 56.69362"/>
<use data-text="A" xlink:href="#font_1_34" transform="matrix(10.909318,0,0,-10.9091,31.109642,55.669)"/>
<use data-text="l" xlink:href="#font_1_77" transform="matrix(10.909318,0,0,-10.9091,37.971605,55.669)"/>
<use data-text="l" xlink:href="#font_1_77" transform="matrix(10.909318,0,0,-10.9091,40.72075,55.669)"/>
<use data-text="p" xlink:href="#font_1_81" transform="matrix(10.909318,0,0,-10.9091,46.186319,55.669)"/>
<use data-text="r" xlink:href="#font_1_83" transform="matrix(10.909318,0,0,-10.9091,51.89189,55.669)"/>
<use data-text="i" xlink:href="#font_1_74" transform="matrix(10.909318,0,0,-10.9091,55.7647,55.669)"/>
<use data-text="m" xlink:href="#font_1_78" transform="matrix(10.909318,0,0,-10.9091,58.601125,55.669)"/>
<use data-text="e" xlink:href="#font_1_70" transform="matrix(10.909318,0,0,-10.9091,67.404949,55.669)"/>
<use data-text="n" xlink:href="#font_1_79" transform="matrix(10.909318,0,0,-10.9091,32.091665,69.218)"/>
<use data-text="u" xlink:href="#font_1_86" transform="matrix(10.909318,0,0,-10.9091,37.971788,69.218)"/>
<use data-text="m" xlink:href="#font_1_78" transform="matrix(10.909318,0,0,-10.9091,43.83009,69.218)"/>
<use data-text="b" xlink:href="#font_1_67" transform="matrix(10.909318,0,0,-10.9091,52.63391,69.218)"/>
<use data-text="e" xlink:href="#font_1_70" transform="matrix(10.909318,0,0,-10.9091,58.230394,69.218)"/>
<use data-text="r" xlink:href="#font_1_83" transform="matrix(10.909318,0,0,-10.9091,63.17231,69.218)"/>
<use data-text="s" xlink:href="#font_1_84" transform="matrix(10.909318,0,0,-10.9091,67.04512,69.218)"/>
</svg>
